<svg width="66" height="66" viewBox="0 0 66 66" fill="none" xmlns="http://www.w3.org/2000/svg">
<g clip-path="url(#clip0_862_3067)">
<path d="M11.61 1.02832H53.589C59.9539 1.02832 65.0996 6.17414 65.0996 12.5388V52.8927C65.0996 59.2576 59.9539 64.4033 53.589 64.4033H11.61C5.24543 64.4033 0.0996094 59.2576 0.0996094 52.8927V12.5388C0.0996094 6.17414 5.24543 1.02832 11.61 1.02832Z" fill="#00005B"/>
<path d="M26.2078 38.9445H16.1328L14.0745 45.3362C14.0203 45.58 13.8037 45.7425 13.5599 45.7153H8.46823C8.1703 45.7153 8.08905 45.5528 8.1703 45.2278L16.8912 20.23C16.9724 19.9591 17.0537 19.7153 17.162 19.3903C17.2703 18.8216 17.3245 18.2258 17.3245 17.63C17.2974 17.4945 17.4057 17.3591 17.5412 17.332H17.6224H24.5557C24.7453 17.332 24.8807 17.4133 24.9078 17.5487L34.7932 45.1737C34.8745 45.4716 34.7932 45.607 34.5224 45.607H28.862C28.6724 45.6341 28.4828 45.4987 28.4287 45.3091L26.2078 38.8091V38.9445ZM17.7037 33.555H24.5828C24.4203 32.9862 24.2037 32.3091 23.9599 31.605C23.7162 30.8737 23.4724 30.0883 23.2287 29.2758C22.9578 28.4362 22.714 27.6237 22.4432 26.7841C22.1724 25.9445 21.9287 25.1591 21.712 24.3737C21.4953 23.6153 21.3057 22.9112 21.1162 22.2612H21.062C20.8182 23.4258 20.5203 24.5903 20.1412 25.755C19.7349 27.055 19.3287 28.4091 18.8953 29.7633C18.5432 31.1445 18.1099 32.4175 17.7037 33.555Z" fill="#9999FF"/>
<path d="M50.7451 36.5072H42.1599C42.2682 37.3468 42.5391 38.1863 42.9995 38.9176C43.487 39.6488 44.1641 40.2176 44.9766 40.5426C46.0599 41.003 47.2514 41.2468 48.4432 41.2197C49.3913 41.1926 50.3389 41.1113 51.26 40.9218C52.0994 40.8134 52.9119 40.5968 53.6701 40.2988C53.8057 40.1905 53.8869 40.2447 53.8869 40.5155V44.6593C53.8869 44.7676 53.86 44.8759 53.8326 44.9843C53.7788 45.0655 53.7244 45.1197 53.6432 45.1738C52.7764 45.553 51.8826 45.8238 50.935 45.9863C49.6619 46.2301 48.3889 46.3384 47.0889 46.3113C45.0307 46.3113 43.2974 45.9863 41.8891 45.3634C40.562 44.7947 39.3974 43.9009 38.4766 42.7905C37.6099 41.7343 36.987 40.5426 36.6079 39.2426C36.2287 37.9697 36.0391 36.6426 36.0391 35.2884C36.0391 33.8259 36.2557 32.3905 36.7162 30.9822C37.1495 29.628 37.8266 28.3822 38.7474 27.2718C39.6412 26.1884 40.7516 25.3218 42.0245 24.6988C43.2974 24.0759 44.8141 23.8593 46.5475 23.8593C47.9826 23.8322 49.4182 24.103 50.7451 24.6988C51.8557 25.1863 52.8307 25.9176 53.5889 26.8655C54.2932 27.7863 54.8619 28.8155 55.2139 29.953C55.5663 31.0363 55.7288 32.1468 55.7288 33.2572C55.7288 33.9072 55.7014 34.4759 55.6744 34.9905C55.6201 35.5051 55.5932 35.8843 55.5663 36.128C55.5389 36.3176 55.3764 36.4801 55.1869 36.4801C55.0244 36.4801 54.7264 36.5072 54.2932 36.5343C53.86 36.5884 53.3451 36.6155 52.7225 36.6155C52.0994 36.6155 51.4494 36.5072 50.7451 36.5072ZM42.1599 32.553H47.8744C48.5788 32.553 49.0932 32.553 49.4182 32.5259C49.635 32.4988 49.8514 32.4447 50.0413 32.3093V32.0384C50.0413 31.6863 49.9869 31.3613 49.8788 31.0363C49.3913 29.5197 47.9557 28.4905 46.3579 28.5447C44.8682 28.4634 43.4599 29.2488 42.7557 30.603C42.4307 31.2259 42.2412 31.8759 42.1599 32.553Z" fill="#9999FF"/>
</g>
<defs>
<clipPath id="clip0_862_3067">
<rect width="65" height="65" fill="white" transform="translate(0.0996094 0.0996094)"/>
</clipPath>
</defs>
</svg>
