<svg width="66" height="66" viewBox="0 0 66 66" fill="none" xmlns="http://www.w3.org/2000/svg">
<g clip-path="url(#clip0_862_3083)">
<mask id="mask0_862_3083" style="mask-type:luminance" maskUnits="userSpaceOnUse" x="0" y="0" width="66" height="66">
<path d="M65.0996 0.0996094H0.0996094V65.0996H65.0996V0.0996094Z" fill="white"/>
</mask>
<g mask="url(#mask0_862_3083)">
<path d="M21.6578 65.0993C27.6633 65.0993 32.5373 60.2461 32.5373 54.2661V43.4326H21.6578C15.6523 43.4326 10.7783 48.2861 10.7783 54.2661C10.7783 60.2461 15.6523 65.0993 21.6578 65.0993Z" fill="#0ACF83"/>
<path d="M10.7783 32.6C10.7783 26.62 15.6523 21.7666 21.6578 21.7666H32.5373V43.4333H21.6578C15.6523 43.4333 10.7783 38.58 10.7783 32.6Z" fill="#A259FF"/>
<path d="M10.7783 10.9329C10.7783 4.95293 15.6523 0.0996094 21.6578 0.0996094H32.5373V21.7663H21.6578C15.6523 21.7663 10.7783 16.9129 10.7783 10.9329Z" fill="#F24E1E"/>
<path d="M32.5371 0.0996094H43.4166C49.4219 0.0996094 54.296 4.95293 54.296 10.9329C54.296 16.9129 49.4219 21.7663 43.4166 21.7663H32.5371V0.0996094Z" fill="#FF7262"/>
<path d="M54.296 32.6C54.296 38.58 49.4219 43.4333 43.4166 43.4333C37.4111 43.4333 32.5371 38.58 32.5371 32.6C32.5371 26.62 37.4111 21.7666 43.4166 21.7666C49.4219 21.7666 54.296 26.62 54.296 32.6Z" fill="#1ABCFE"/>
</g>
</g>
<defs>
<clipPath id="clip0_862_3083">
<rect width="65" height="65" fill="white" transform="translate(0.0996094 0.0996094)"/>
</clipPath>
</defs>
</svg>
