<svg width="66" height="66" viewBox="0 0 66 66" fill="none" xmlns="http://www.w3.org/2000/svg">
<g clip-path="url(#clip0_862_3074)">
<path d="M11.61 1.02832H53.589C59.9539 1.02832 65.0996 6.19136 65.0996 12.5772V53.0664C65.0996 59.4522 59.9539 64.6155 53.589 64.6155H11.61C5.24543 64.6155 0.0996094 59.4522 0.0996094 53.0664V12.5772C0.0996094 6.19136 5.24543 1.02832 11.61 1.02832Z" fill="#001E36"/>
<path d="M14.7246 45.6202V17.6582C14.7246 17.468 14.8059 17.3593 14.9954 17.3593C15.4559 17.3593 15.8892 17.3593 16.5121 17.3321C17.1621 17.305 17.8392 17.305 18.5704 17.2778C19.3017 17.2506 20.0871 17.2506 20.9267 17.2234C21.7663 17.1963 22.5788 17.1963 23.3913 17.1963C25.6121 17.1963 27.4538 17.468 28.9704 18.0386C30.3246 18.5006 31.5704 19.2615 32.5996 20.2669C33.4663 21.1365 34.1434 22.1963 34.5767 23.3647C34.9829 24.506 35.1996 25.6745 35.1996 26.8974C35.1996 29.2343 34.6579 31.1637 33.5746 32.6854C32.4913 34.2072 30.9746 35.3485 29.2142 36.0006C27.3725 36.6799 25.3413 36.9245 23.1204 36.9245C22.4704 36.9245 22.0371 36.9245 21.7663 36.8974C21.4954 36.8702 21.1163 36.8702 20.6017 36.8702V45.593C20.6288 45.7832 20.4934 45.9463 20.3038 45.9735C20.2767 45.9735 20.2496 45.9735 20.1954 45.9735H15.0496C14.8329 45.9735 14.7246 45.8648 14.7246 45.6202ZM20.6288 22.6039V31.7343C21.0079 31.7615 21.36 31.7887 21.685 31.7887H23.1204C24.1767 31.7887 25.2329 31.6256 26.235 31.2995C27.1017 31.055 27.86 30.5387 28.4559 29.8593C29.0246 29.18 29.2954 28.256 29.2954 27.0604C29.3225 26.218 29.1059 25.3756 28.6725 24.6419C28.2121 23.9354 27.5621 23.3919 26.7767 23.093C25.7746 22.6854 24.6913 22.5223 23.5809 22.5495C22.8767 22.5495 22.2538 22.5495 21.7392 22.5767C21.1975 22.5495 20.8184 22.5767 20.6288 22.6039Z" fill="#31A8FF"/>
<path d="M52.0993 30.0768C51.2868 29.642 50.42 29.3431 49.4993 29.1529C48.4973 28.9355 47.495 28.7996 46.466 28.7996C45.9243 28.7725 45.3555 28.854 44.841 28.9899C44.4888 29.0714 44.191 29.2616 44.0013 29.5333C43.866 29.7507 43.7847 30.0225 43.7847 30.2671C43.7847 30.5116 43.893 30.7562 44.0555 30.9736C44.2993 31.2725 44.6243 31.5171 44.9763 31.7073C45.5993 32.0333 46.2493 32.3322 46.8993 32.604C48.3618 33.0931 49.77 33.7725 51.07 34.5877C51.9637 35.1584 52.695 35.9192 53.2098 36.8432C53.643 37.7127 53.8598 38.6638 53.8325 39.6421C53.8598 40.9192 53.4805 42.1964 52.7762 43.2562C52.018 44.3431 50.9618 45.1855 49.743 45.6747C48.4161 46.2453 46.7911 46.5442 44.841 46.5442C43.5951 46.5442 42.3763 46.4355 41.1576 46.1909C40.2097 46.0279 39.2618 45.729 38.3951 45.3214C38.2055 45.2127 38.0701 45.0225 38.0972 44.8051V40.0768C38.0972 39.9953 38.1243 39.8866 38.2055 39.8323C38.2868 39.7779 38.368 39.8051 38.4493 39.8594C39.5055 40.4845 40.616 40.9192 41.8076 41.191C42.8368 41.4627 43.9201 41.5986 45.0035 41.5986C46.0326 41.5986 46.7637 41.4627 47.2512 41.2181C47.6848 41.0279 47.9825 40.5659 47.9825 40.0768C47.9825 39.6964 47.7661 39.3431 47.3325 38.9899C46.8993 38.6366 46.0055 38.229 44.6785 37.7127C43.2972 37.2236 42.0243 36.5714 40.8326 35.7562C39.993 35.1584 39.2888 34.3703 38.7743 33.4464C38.341 32.5768 38.1243 31.6257 38.1513 30.6747C38.1513 29.5062 38.4763 28.392 39.0722 27.3866C39.7493 26.2996 40.7513 25.4301 41.916 24.8866C43.1888 24.2345 44.7868 23.9355 46.7098 23.9355C47.82 23.9355 48.9575 24.017 50.068 24.1801C50.8805 24.2888 51.6661 24.5062 52.3973 24.8051C52.5055 24.8323 52.6137 24.941 52.668 25.0496C52.695 25.1583 52.7224 25.267 52.7224 25.3758V29.8051C52.7224 29.9138 52.668 30.0225 52.5868 30.0768C52.343 30.1312 52.2075 30.1312 52.0993 30.0768Z" fill="#31A8FF"/>
</g>
<defs>
<clipPath id="clip0_862_3074">
<rect width="65" height="65" fill="white" transform="translate(0.0996094 0.0996094)"/>
</clipPath>
</defs>
</svg>
