<svg width="66" height="66" viewBox="0 0 66 66" fill="none" xmlns="http://www.w3.org/2000/svg">
<g clip-path="url(#clip0_862_3062)">
<path d="M11.61 1.02832H53.589C59.9539 1.02832 65.0996 6.17414 65.0996 12.5388V52.8927C65.0996 59.2576 59.9539 64.4033 53.589 64.4033H11.61C5.24543 64.4033 0.0996094 59.2576 0.0996094 52.8927V12.5388C0.0996094 6.17414 5.24543 1.02832 11.61 1.02832Z" fill="#00005B"/>
<path d="M15.5371 45.4451V17.5493C15.5371 17.3597 15.6184 17.2514 15.8079 17.2514C16.2684 17.2514 16.7017 17.2514 17.3246 17.2243C17.9746 17.1972 18.6517 17.1972 19.3829 17.1701C20.1142 17.143 20.8996 17.143 21.7392 17.1159C22.5788 17.0889 23.3913 17.0889 24.2038 17.0889C26.4246 17.0889 28.2663 17.3597 29.7829 17.9284C31.1371 18.3889 32.3829 19.1472 33.4121 20.1493C34.2788 21.0159 34.9559 22.0722 35.3892 23.2368C35.7954 24.3743 36.0121 25.5389 36.0121 26.7576C36.0121 29.0868 35.4704 31.0097 34.3871 32.5264C33.3038 34.043 31.7871 35.1806 30.0267 35.8306C28.185 36.5076 26.1538 36.7514 23.9329 36.7514C23.2829 36.7514 22.8496 36.7514 22.5788 36.7243C22.3079 36.6972 21.9288 36.6972 21.4142 36.6972V45.3909C21.4413 45.5806 21.3059 45.743 21.1163 45.7701H21.0079H15.8621C15.6454 45.7701 15.5371 45.6618 15.5371 45.418V45.4451ZM21.4413 22.5055V31.6055C21.8204 31.6326 22.1725 31.6597 22.4975 31.6597H23.9329C24.9892 31.6597 26.0454 31.4972 27.0475 31.1722C27.9142 30.9284 28.6725 30.4139 29.2684 29.7368C29.8371 29.0597 30.1079 28.1389 30.1079 26.9472C30.135 26.1076 29.9184 25.268 29.485 24.5368C29.0246 23.8326 28.3746 23.2909 27.5892 22.993C26.5871 22.5868 25.5038 22.4243 24.3934 22.4514C23.6892 22.4514 23.0663 22.4514 22.5517 22.4784C22.01 22.4514 21.6309 22.4784 21.4413 22.5055Z" fill="#9999FF"/>
<path d="M39.9117 24.1035H44.6514C44.9222 24.1035 45.1389 24.2931 45.2201 24.5368C45.3014 24.7535 45.3555 24.9702 45.3826 25.214C45.4367 25.4848 45.4909 25.7827 45.518 26.0535C45.5451 26.3515 45.5722 26.6764 45.5722 27.0285C46.3847 26.0806 47.3598 25.2952 48.4699 24.6993C49.7161 23.9952 51.1512 23.6431 52.5867 23.6431C52.7762 23.616 52.9387 23.7514 52.9661 23.941V24.0493V29.3306C52.9661 29.5473 52.8305 29.6285 52.5324 29.6285C51.5574 29.6014 50.5555 29.6827 49.6074 29.8993C48.8223 30.0618 48.0637 30.3056 47.3324 30.6306C46.818 30.8743 46.3305 31.1993 45.9514 31.6327V45.4452C45.9514 45.716 45.843 45.8243 45.5992 45.8243H40.2639C40.0472 45.8514 39.8576 45.716 39.8305 45.4993V45.391V30.3868C39.8305 29.7368 39.8305 29.0598 39.8034 28.3556C39.7764 27.6514 39.7764 26.9473 39.7492 26.2431C39.7492 25.6202 39.6951 25.0243 39.6409 24.4015C39.6139 24.266 39.6951 24.1306 39.8305 24.1035C39.8305 24.0764 39.8847 24.0764 39.9117 24.1035Z" fill="#9999FF"/>
</g>
<defs>
<clipPath id="clip0_862_3062">
<rect width="65" height="65" fill="white" transform="translate(0.0996094 0.0996094)"/>
</clipPath>
</defs>
</svg>
