<svg width="65" height="65" viewBox="0 0 65 65" fill="none" xmlns="http://www.w3.org/2000/svg">
<g clip-path="url(#clip0_862_3051)">
<path d="M14.1818 5.19058L32.5 3.25L50.8184 5.19058L65 24.2674L32.5 62.1911L0 24.2674L14.1818 5.19058Z" fill="#FDB300"/>
<path d="M13.1641 24.2676L32.5 62.1912L0 24.2676H13.1641Z" fill="#EA6C00"/>
<path d="M51.8357 24.2676L32.5 62.1912L65 24.2676H51.8357Z" fill="#EA6C00"/>
<path d="M13.1641 24.2676H51.836L32.5 62.1912L13.1641 24.2676Z" fill="#FDAD00"/>
<path d="M32.5 3.25L14.1817 5.19053L13.1641 24.2674L32.5 3.25Z" fill="#FDD231"/>
<path d="M32.5 3.25L50.8184 5.19053L51.8357 24.2674L32.5 3.25Z" fill="#FDD231"/>
<path d="M65.0004 24.2673L50.8184 5.19043L51.8361 24.2673H65.0004Z" fill="#FDAD00"/>
<path d="M0 24.2673L14.1817 5.19043L13.1641 24.2673H0Z" fill="#FDAD00"/>
<path d="M32.5 3.25L13.1641 24.2674H51.836L32.5 3.25Z" fill="#FEEEB7"/>
</g>
<defs>
<clipPath id="clip0_862_3051">
<rect width="65" height="65" fill="white"/>
</clipPath>
</defs>
</svg>
