<svg width="65" height="65" viewBox="0 0 65 65" fill="none" xmlns="http://www.w3.org/2000/svg">
<path d="M7.65987 21H11.2127V37.4458C9.39024 37.7919 8.05205 37.9304 6.59851 37.9304C2.26097 37.9301 0 35.9694 0 32.2086C0 28.5863 2.39954 26.2332 6.1139 26.2332C6.69064 26.2332 7.12897 26.2792 7.65987 26.4176V21ZM7.65987 29.2783C7.24461 29.14 6.89857 29.0939 6.4601 29.0939C4.66051 29.0939 3.62223 30.2014 3.62223 32.1392C3.62223 34.0312 4.61438 35.0694 6.43703 35.0694C6.82921 35.0694 7.15233 35.0464 7.65987 34.9772V29.2783Z" fill="#092E20"/>
<path d="M16.865 26.487V34.7233C16.865 37.5612 16.6572 38.9224 16.0345 40.099C15.4576 41.2297 14.6961 41.9447 13.1274 42.7294L9.82812 41.1605C11.397 40.4221 12.1583 39.7763 12.6428 38.7839C13.1505 37.7689 13.3121 36.5921 13.3121 33.5006V26.487H16.865ZM13.3121 21.019H16.865V24.6643H13.3121V21.019ZM19.011 27.2944C20.5801 26.5564 22.0796 26.2334 23.7177 26.2334C25.5403 26.2334 26.74 26.7177 27.2707 27.6637C27.5705 28.1943 27.6627 28.8864 27.6627 30.3631V37.5842C26.0706 37.8149 24.0636 37.9766 22.5871 37.9766C19.611 37.9766 18.2727 36.938 18.2727 34.631C18.2727 32.1391 20.0492 30.9856 24.4096 30.6163V29.8319C24.4096 29.186 24.0867 28.9554 23.1868 28.9554C21.8718 28.9554 20.3952 29.3246 19.0107 30.0399L19.011 27.2944ZM24.5714 32.9469C22.218 33.1776 21.4566 33.5468 21.4566 34.4697C21.4566 35.1616 21.895 35.4846 22.864 35.4846C23.3947 35.4846 23.879 35.4386 24.5713 35.3233L24.5714 32.9469ZM29.3933 27.0407C31.4926 26.487 33.223 26.2334 34.9764 26.2334C36.7991 26.2334 38.1142 26.6485 38.8989 27.4561C39.6371 28.2172 39.8676 29.0477 39.8676 30.8245V37.7919H36.3146V30.963C36.3146 29.6018 35.8532 29.094 34.5844 29.094C34.0999 29.094 33.6616 29.1402 32.9461 29.3478V37.7919H29.3933V27.0407ZM41.2488 39.7299C42.4949 40.376 43.7407 40.6756 45.0556 40.6756C47.3855 40.6756 48.3777 39.7299 48.3777 37.4687V37.3995C47.6857 37.7454 46.9933 37.884 46.0707 37.884C42.956 37.884 40.9715 35.8306 40.9715 32.5778C40.9715 28.54 43.9018 26.2562 49.0927 26.2562C50.6154 26.2562 52.023 26.4175 53.7301 26.7635L52.5135 29.3263C51.5677 29.1418 52.4378 29.3016 51.7229 29.2324V29.6017L51.7689 31.1011L51.7918 33.0392C51.8149 33.5235 51.8149 34.0081 51.8381 34.4926V35.4618C51.8381 38.5072 51.5843 39.9375 50.8232 41.1142C49.7157 42.8447 47.8006 43.6981 45.0782 43.6981C43.6939 43.6981 42.4946 43.4905 41.2485 43.0061L41.2488 39.7299ZM48.3087 29.1171H47.9398C47.2478 29.094 46.4404 29.2784 45.8864 29.6245C45.033 30.1091 44.5942 30.9859 44.5942 32.2316C44.5942 34.0083 45.4713 35.0234 47.0401 35.0234C47.5245 35.0234 47.9169 34.9309 48.3779 34.7927V33.57C48.3779 33.1546 48.3552 32.6929 48.3552 32.2087L48.3323 30.5708L48.309 29.3941L48.3087 29.1171ZM59.2461 26.1871C62.799 26.1871 64.9679 28.4251 64.9679 32.0472C64.9679 35.7619 62.707 38.0921 59.1077 38.0921C55.5545 38.0921 53.3626 35.854 53.3626 32.255C53.3629 28.5171 55.6241 26.1871 59.2461 26.1871ZM59.1766 35.231C60.5379 35.231 61.3455 34.1004 61.3455 32.1394C61.3455 30.2015 60.561 29.0479 59.2 29.0479C57.7924 29.0479 56.9847 30.1786 56.9847 32.1394C56.985 34.1006 57.7926 35.231 59.1766 35.231Z" fill="#092E20"/>
</svg>
