<svg width="66" height="66" viewBox="0 0 66 66" fill="none" xmlns="http://www.w3.org/2000/svg">
<g clip-path="url(#clip0_858_786)">
<path d="M65.0996 50.2969C62.7355 50.8981 61.2725 50.3233 59.9604 48.3529L50.6287 35.4424L49.28 33.6549L38.3826 48.3956C37.1374 50.1692 35.8313 50.9408 33.5076 50.3131L47.4623 31.5811L34.4704 14.6607C36.7048 14.2261 38.2485 14.4474 39.6196 16.4482L49.2986 29.5193L59.0486 16.5193C60.298 14.7461 61.6402 14.0717 63.8827 14.7257L58.8452 21.4045L52.0202 30.2912C51.2077 31.3068 51.3196 32.0015 52.0671 32.9826L65.0996 50.2969ZM0.115859 31.2682L1.25742 25.6538C4.36523 14.5429 17.1012 9.92588 25.8843 16.7915C31.0173 20.8296 32.2929 26.5415 32.039 32.9399H3.10586C2.67117 44.4571 10.9607 51.4079 21.5293 47.8617C25.2363 46.6165 27.4199 43.7137 28.5127 40.0818C29.0673 38.2618 29.9854 37.9774 31.6957 38.4974C30.8223 43.0393 28.8519 46.8338 24.6879 49.2081C18.4661 52.7627 9.58552 51.6131 4.91365 46.6731C2.13086 43.8071 0.981172 40.1753 0.465234 36.2915C0.383984 35.6496 0.221484 35.0382 0.0996094 34.4228C0.110443 33.3719 0.115859 32.3211 0.115859 31.2703V31.2682ZM3.15867 30.4963H29.3049C29.1343 22.1682 23.9485 16.2532 16.8615 16.2024C9.08182 16.1415 3.49586 21.9163 3.15867 30.4963Z" fill="black"/>
</g>
<defs>
<clipPath id="clip0_858_786">
<rect width="65" height="65" fill="white" transform="translate(0.0996094 0.100098)"/>
</clipPath>
</defs>
</svg>
