<svg width="66" height="66" viewBox="0 0 66 66" fill="none" xmlns="http://www.w3.org/2000/svg">
<g clip-path="url(#clip0_858_819)">
<path d="M23.8096 50.3479C23.8096 50.3479 21.2808 51.7899 25.6092 52.2774C30.8531 52.8643 33.5329 52.7802 39.3117 51.7077C39.3117 51.7077 40.8311 52.6419 42.9526 53.4507C29.9985 58.8944 13.6346 53.1354 23.8096 50.3479ZM22.2266 43.2441C22.2266 43.2441 19.3904 45.3027 23.722 45.7419C29.3235 46.3085 33.7471 46.3549 41.4018 44.9097C41.4018 44.9097 42.4606 45.9621 44.1254 46.5379C28.4629 51.0285 11.0178 46.8917 22.2266 43.2441Z" fill="#5382A1"/>
<path d="M35.5713 31.1937C38.7633 34.7969 34.7326 38.0394 34.7326 38.0394C34.7326 38.0394 42.8374 33.9371 39.1153 28.7998C35.6389 24.0094 32.9728 21.6288 47.4051 13.4219C47.4051 13.4219 24.7512 18.9696 35.5713 31.1937Z" fill="#E76F00"/>
<path d="M52.7048 55.6024C52.7048 55.6024 54.5759 57.1141 50.6439 58.2837C43.1664 60.5048 19.5222 61.1757 12.9538 58.3724C10.5928 57.3653 15.0206 55.9678 16.4133 55.6744C17.8658 55.3652 18.696 55.4232 18.696 55.4232C16.0701 53.6093 1.72372 58.9843 11.4088 60.5234C37.821 64.7233 59.5558 58.6324 52.7048 55.6024ZM25.0258 35.8842C25.0258 35.8842 12.999 38.6852 20.767 39.7021C24.0467 40.1327 30.585 40.0354 36.6753 39.5349C41.6526 39.1234 46.6506 38.248 46.6506 38.248C46.6506 38.248 44.8954 38.985 43.6257 39.8351C31.4125 42.9846 7.81881 41.5194 14.6111 38.2978C20.3554 35.5753 25.0258 35.8842 25.0258 35.8842ZM46.6009 47.7086C59.0163 41.3828 53.2759 35.304 49.2691 36.1231C48.2872 36.3234 47.8493 36.497 47.8493 36.497C47.8493 36.497 48.2138 35.9371 48.9102 35.6948C56.8365 32.9624 62.9326 43.7535 46.3514 48.0271C46.3514 48.0271 46.5433 47.8591 46.6009 47.7086Z" fill="#5382A1"/>
<path d="M39.1151 0.169922C39.1151 0.169922 45.9909 6.91415 32.5937 17.2843C21.8506 25.6031 30.1439 30.3463 32.5893 35.7655C26.3183 30.218 21.7161 25.3343 24.8037 20.7892C29.3352 14.1169 41.8892 10.8824 39.1151 0.169922Z" fill="#E76F00"/>
<path d="M26.2451 64.8495C38.1623 65.5975 56.4625 64.4345 56.8957 58.9053C56.8957 58.9053 56.0628 61.0015 47.0468 62.666C36.8753 64.5426 24.3303 64.324 16.8896 63.121C16.8896 63.121 18.4126 64.3569 26.2451 64.8495Z" fill="#5382A1"/>
</g>
<defs>
<clipPath id="clip0_858_819">
<rect width="65" height="65" fill="white" transform="translate(0.0996094 0.100098)"/>
</clipPath>
</defs>
</svg>
