<svg width="66" height="66" viewBox="0 0 66 66" fill="none" xmlns="http://www.w3.org/2000/svg">
<g clip-path="url(#clip0_858_797)">
<path d="M64.1355 14.8048C64.1587 14.8915 64.1708 14.9808 64.1708 15.0706V29.0226C64.1708 29.2017 64.1239 29.3776 64.0347 29.5326C63.9456 29.6875 63.8174 29.8161 63.6633 29.9052L52.0385 36.6472V50.0103C52.0385 50.3743 51.8468 50.71 51.5338 50.893L27.2685 64.9645C27.213 64.9966 27.1524 65.0165 27.0918 65.0383C27.069 65.0458 27.0476 65.0602 27.0236 65.0662C26.854 65.1112 26.6757 65.1112 26.506 65.0662C26.4783 65.0588 26.453 65.0435 26.4265 65.0332C26.371 65.0128 26.3129 64.9952 26.2599 64.9645L1.99963 50.893C1.84552 50.8038 1.71746 50.6752 1.62837 50.5201C1.53928 50.3655 1.49231 50.1896 1.49219 50.0103V8.15429C1.49219 8.06274 1.50481 7.97373 1.52753 7.88724C1.53511 7.85799 1.55278 7.83129 1.56288 7.80204C1.58181 7.74865 1.59948 7.69395 1.62725 7.64437C1.64619 7.61131 1.67396 7.58462 1.69668 7.55411C1.72571 7.51339 1.75222 7.47142 1.7863 7.43586C1.81534 7.40661 1.85321 7.38497 1.88603 7.35953C1.92264 7.32903 1.95545 7.29597 1.99711 7.27178L14.1291 0.235996C14.2827 0.146958 14.4569 0.100098 14.6341 0.100098C14.8113 0.100098 14.9854 0.146958 15.139 0.235996L27.2697 7.27178H27.2723C27.3126 7.29722 27.3467 7.32903 27.3834 7.35828C27.4162 7.38372 27.4528 7.40661 27.4818 7.43456C27.5172 7.47142 27.5424 7.51339 27.5727 7.55411C27.5941 7.58462 27.6232 7.61131 27.6409 7.64437C27.6699 7.69525 27.6863 7.74865 27.7065 7.80204C27.7166 7.83129 27.7343 7.85799 27.7418 7.88854C27.7651 7.97517 27.777 8.06455 27.7772 8.15429V34.2972L37.8857 28.4339V15.0693C37.8857 14.9803 37.8984 14.89 37.9211 14.8048C37.9299 14.7743 37.9463 14.7476 37.9564 14.7183C37.9766 14.6649 37.9943 14.6102 38.0221 14.5606C38.041 14.5276 38.0688 14.5009 38.0903 14.4703C38.1205 14.4297 38.1458 14.3877 38.1811 14.3521C38.2102 14.3228 38.2468 14.3013 38.2796 14.2758C38.3175 14.2453 38.3503 14.2122 38.3907 14.1881L50.524 7.15227C50.6777 7.06308 50.8518 7.01619 51.0287 7.01619C51.206 7.01619 51.3801 7.06308 51.5338 7.15227L63.6647 14.1881C63.7074 14.2135 63.7404 14.2453 63.778 14.2746C63.8095 14.3 63.8462 14.3228 63.8755 14.3508C63.9108 14.3877 63.9358 14.4297 63.9665 14.4703C63.9888 14.5009 64.0166 14.5276 64.0343 14.5606C64.0635 14.6102 64.0798 14.6649 64.1002 14.7183C64.1113 14.7476 64.128 14.7743 64.1355 14.8048ZM62.1483 28.4339V16.8317L57.9034 19.2936L52.0385 22.6951V34.2972L62.1497 28.4339H62.1483ZM50.0179 49.4216V37.812L44.249 41.1309L27.7759 50.6018V62.3209L50.0179 49.4216ZM3.5144 9.91547V49.4216L25.7537 62.3195V50.6032L14.1354 43.9793L14.1317 43.9767L14.1266 43.9742C14.0875 43.9513 14.0546 43.9182 14.0181 43.8903C13.9865 43.8648 13.9499 43.8445 13.9221 43.8165L13.9196 43.8127C13.8868 43.7809 13.8641 43.7415 13.8363 43.7059C13.811 43.6715 13.7808 43.6423 13.7606 43.6067L13.7593 43.6029C13.7366 43.5647 13.7227 43.519 13.7062 43.4757C13.6899 43.4376 13.6684 43.402 13.6583 43.3613C13.6457 43.313 13.6431 43.2608 13.6381 43.2113C13.6331 43.1731 13.623 43.1349 13.623 43.0968V15.7788L7.75953 12.376L3.5144 9.91547ZM14.6353 2.29346L4.52804 8.15429L14.6328 14.0151L24.7388 8.15304L14.6328 2.29346H14.6353ZM19.8916 38.87L25.755 35.4697V9.91547L21.5099 12.3773L15.6451 15.7788V41.3331L19.8916 38.87ZM51.0287 9.20971L40.9229 15.0706L51.0287 20.9314L61.1339 15.0693L51.0287 9.20971ZM50.0179 22.6951L44.1531 19.2936L39.908 16.8317V28.4339L45.7714 31.8342L50.0179 34.2972V22.6951ZM26.7636 48.8408L41.5868 40.3158L48.9965 36.0559L38.8981 30.1989L27.271 36.9422L16.674 43.0879L26.7636 48.8408Z" fill="#FF2D20"/>
</g>
<defs>
<clipPath id="clip0_858_797">
<rect width="65" height="65" fill="white" transform="translate(0.0996094 0.100098)"/>
</clipPath>
</defs>
</svg>
