<svg width="66" height="66" viewBox="0 0 66 66" fill="none" xmlns="http://www.w3.org/2000/svg">
<g clip-path="url(#clip0_858_811)">
<mask id="mask0_858_811" style="mask-type:luminance" maskUnits="userSpaceOnUse" x="0" y="0" width="66" height="66">
<path d="M65.0996 0.100098H0.0996094V65.1001H65.0996V0.100098Z" fill="white"/>
</mask>
<g mask="url(#mask0_858_811)">
<path fill-rule="evenodd" clip-rule="evenodd" d="M38.3724 0.100098C37.9024 0.100098 37.4659 0.200819 37.063 0.335107C37.9191 0.905842 38.3892 1.66123 38.6241 2.51733C38.641 2.63484 38.6745 2.71877 38.6913 2.83627C38.7082 2.93699 38.7249 3.03771 38.7249 3.13843C38.7921 4.61562 38.3388 4.80029 38.0199 5.67315C37.533 6.79784 37.6673 8.00647 38.2548 8.98007C38.3052 9.09758 38.3724 9.23185 38.4563 9.34937C37.8184 5.10245 41.3603 4.46455 42.015 3.13843C42.0653 1.98017 41.1085 1.20799 40.3531 0.670835C39.6314 0.234389 38.9767 0.100098 38.3724 0.100098ZM43.7104 1.05692C43.6432 1.44301 43.6936 1.34228 43.6769 1.54372C43.6601 1.67801 43.6601 1.84588 43.6433 1.98017C43.6098 2.11446 43.5762 2.24875 43.5258 2.38305C43.4923 2.51733 43.4419 2.65163 43.3915 2.78591C43.3243 2.92021 43.274 3.03771 43.2069 3.172C43.1565 3.23917 43.1229 3.30629 43.0726 3.37344C43.039 3.4238 43.0054 3.47415 42.9719 3.52452C42.8879 3.64202 42.804 3.75952 42.7201 3.86024C42.6194 3.96096 42.5354 4.07846 42.4179 4.1624V4.17921C42.3172 4.26314 42.2165 4.36386 42.099 4.44779C41.7465 4.71637 41.3436 4.9178 40.9743 5.16959C40.8568 5.25353 40.7393 5.32067 40.6386 5.42142C40.5211 5.50531 40.4204 5.58925 40.3196 5.68996C40.2021 5.79071 40.1182 5.89141 40.0175 6.00892C39.9336 6.10963 39.8328 6.22714 39.7657 6.34465C39.6817 6.46216 39.5978 6.57967 39.5307 6.69718C39.4635 6.83145 39.4131 6.94896 39.346 7.08323C39.2957 7.21755 39.2453 7.33502 39.2117 7.46933C39.1614 7.62041 39.1278 7.75468 39.0942 7.889C39.0774 7.95618 39.0774 8.04008 39.0607 8.10722C39.0438 8.1744 39.0438 8.24149 39.0271 8.30867C39.0271 8.44294 39.0103 8.59402 39.0103 8.72829C39.0103 8.82904 39.0103 8.92974 39.0271 9.03045C39.0271 9.16477 39.0439 9.29904 39.0775 9.45012C39.0943 9.58439 39.1278 9.71871 39.1614 9.85298C39.2118 9.9873 39.2453 10.1216 39.2957 10.2558C39.3292 10.3398 39.3796 10.4237 39.4132 10.4909L35.5524 8.99688C34.8977 8.81223 34.2598 8.64439 33.6052 8.49332C33.2526 8.40937 32.9001 8.32543 32.5476 8.24149C31.5404 8.04008 30.5165 7.889 29.4925 7.7883C29.4589 7.7883 29.4421 7.77144 29.4086 7.77144C28.4014 7.67074 27.411 7.62041 26.4038 7.62041C25.6652 7.62041 24.9266 7.65393 24.2048 7.70431C23.1808 7.77149 22.1568 7.90576 21.1329 8.0736C20.8811 8.10717 20.6293 8.15754 20.3775 8.20792C19.8571 8.30862 19.3535 8.42613 18.8667 8.54364C18.6149 8.61083 18.3631 8.67792 18.1113 8.74505C17.8596 8.8458 17.6245 8.96331 17.3895 9.06402C17.2049 9.14796 17.0202 9.23185 16.8356 9.3158C16.802 9.3326 16.7684 9.3326 16.7516 9.34937C16.5838 9.43331 16.4327 9.50044 16.2816 9.58439C16.2313 9.60119 16.1977 9.61791 16.1641 9.63472C15.9795 9.71866 15.7948 9.81936 15.6438 9.90331C15.5262 9.95368 15.4087 10.0208 15.308 10.0712C15.2577 10.1047 15.1905 10.1383 15.157 10.1551C15.0059 10.239 14.8548 10.323 14.7205 10.4069C14.5694 10.4908 14.4351 10.5748 14.3176 10.6587C14.2001 10.7426 14.0826 10.8098 13.9819 10.8937C13.9651 10.9105 13.9483 10.9105 13.9315 10.9272C13.8308 10.9944 13.7133 11.0783 13.6126 11.1623C13.6126 11.1623 13.5958 11.1791 13.579 11.1958C13.4951 11.263 13.4112 11.3301 13.3272 11.3972C13.2937 11.414 13.2601 11.4476 13.2265 11.4644C13.1426 11.5316 13.0587 11.6155 12.9748 11.6826C12.9579 11.7162 12.9244 11.733 12.9076 11.7498C12.8068 11.8505 12.7061 11.9345 12.6054 12.0352C12.5886 12.0352 12.5886 12.052 12.5719 12.0687C12.4712 12.1526 12.3704 12.2534 12.2697 12.3541C12.2529 12.3709 12.2529 12.3877 12.2362 12.3877C12.1522 12.4715 12.0683 12.5555 11.9843 12.6562C11.9508 12.6898 11.9005 12.7234 11.8669 12.7569C11.7829 12.8576 11.6822 12.9584 11.5815 13.0591C11.5647 13.0926 11.5312 13.1094 11.5143 13.143C11.38 13.2773 11.2625 13.4116 11.1283 13.5459C11.1114 13.5627 11.0947 13.5794 11.0779 13.5962C10.8093 13.8816 10.5239 14.167 10.2218 14.4188C9.91962 14.6874 9.60071 14.9392 9.28174 15.1574C8.94602 15.3924 8.62705 15.5938 8.27457 15.7953C7.93884 15.9799 7.58631 16.1478 7.21702 16.2988C6.86448 16.4499 6.49519 16.5842 6.1259 16.7017C5.42088 16.8528 4.69906 17.1382 4.07797 17.1885C3.94368 17.1885 3.7926 17.2221 3.65831 17.2389C3.50724 17.2724 3.37295 17.3061 3.23866 17.3396C3.10437 17.39 2.97007 17.4403 2.83578 17.4907C2.70149 17.541 2.5672 17.6082 2.43291 17.6754C2.31541 17.7593 2.18112 17.8264 2.06361 17.9103C1.94611 17.9943 1.8286 18.095 1.72788 18.1957C1.61038 18.2796 1.49288 18.3971 1.39216 18.4978C1.29144 18.6154 1.19072 18.7161 1.10679 18.8336C1.02286 18.9679 0.922143 19.0854 0.854993 19.2197C0.771064 19.3372 0.68713 19.4715 0.619985 19.6058C0.552812 19.7568 0.485695 19.8911 0.435335 20.0422C0.384976 20.1765 0.334616 20.3276 0.284257 20.4787C0.250711 20.6129 0.217085 20.7472 0.200327 20.8815C0.200327 20.8983 0.183515 20.915 0.183515 20.9319C0.149969 21.083 0.149969 21.2844 0.133156 21.3851C0.116343 21.5026 0.0996094 21.6034 0.0996094 21.7209C0.0996094 21.788 0.0996094 21.8719 0.116422 21.9391C0.133234 22.0566 0.149968 22.1573 0.183594 22.258C0.21714 22.3587 0.250766 22.4594 0.301094 22.5602V22.577C0.351453 22.6777 0.418602 22.7784 0.485742 22.8791C0.552915 22.9799 0.620041 23.0806 0.70397 23.1813C0.787899 23.2652 0.888617 23.3659 0.989334 23.4499C1.09006 23.5506 1.19077 23.6345 1.30828 23.7185C1.71115 24.071 1.81187 24.1884 2.33224 24.457C2.41617 24.5074 2.50011 24.541 2.60083 24.5914C2.61764 24.5914 2.63438 24.6082 2.65119 24.6082C2.65119 24.6417 2.65119 24.6585 2.66801 24.6921C2.68482 24.8264 2.71836 24.9606 2.75193 25.095C2.78548 25.246 2.83587 25.3803 2.88623 25.4978C2.93659 25.5985 2.97016 25.6993 3.02052 25.8C3.03733 25.8336 3.05407 25.8672 3.07088 25.8839C3.13805 26.0182 3.20517 26.1357 3.27231 26.2532C3.35625 26.3707 3.44018 26.4882 3.52411 26.6058C3.60804 26.7065 3.70876 26.824 3.80947 26.9247C3.91019 27.0254 4.01091 27.1093 4.12842 27.21C4.12842 27.21 4.14524 27.2269 4.16197 27.2269C4.26269 27.3108 4.3634 27.3948 4.46412 27.4619C4.58162 27.5458 4.69913 27.6129 4.83342 27.6801C4.95093 27.7473 5.0852 27.8144 5.21952 27.8648C5.32022 27.9151 5.43773 27.9487 5.55524 27.9823C5.57205 27.9991 5.58877 27.9991 5.62243 28.0158C5.68956 28.0326 5.77346 28.0494 5.84064 28.0662C5.79027 28.9726 5.77346 29.8287 5.90778 30.1309C6.05886 30.4666 6.79749 29.4426 7.53607 28.2676C7.43537 29.4259 7.36819 30.7855 7.53607 31.1884C7.72072 31.6081 8.72789 30.2987 9.6008 28.8551C21.5023 26.1022 32.3631 34.3275 33.5045 45.9436C33.2863 44.1307 31.0537 43.1235 30.0298 43.3753C29.5262 44.6175 28.6701 46.2122 27.2936 47.2028C27.4111 46.0947 27.3608 44.9532 27.1257 43.8453C26.7564 45.3897 26.0346 46.8332 25.0442 48.0757C23.4495 48.1931 21.8548 47.421 21.0155 46.2625C20.9483 46.2122 20.9316 46.1115 20.8812 46.0443C20.8308 45.9268 20.7805 45.8094 20.7469 45.6918C20.6966 45.5743 20.663 45.4568 20.6462 45.3393C20.6294 45.2218 20.6294 45.1043 20.6294 44.97C20.6294 44.8861 20.6294 44.8021 20.6294 44.7182C20.6462 44.6007 20.6798 44.4832 20.7133 44.3657C20.7469 44.2482 20.7805 44.1307 20.8308 44.0132C20.898 43.8957 20.9483 43.7782 21.0323 43.6607C21.3177 42.8549 21.3177 42.2003 20.7972 41.8142C20.6965 41.747 20.5958 41.6967 20.4783 41.6463C20.4111 41.6295 20.3272 41.596 20.2601 41.5792C20.2097 41.5623 20.1762 41.5456 20.1258 41.5288C20.0083 41.4953 19.8908 41.4616 19.7733 41.4448C19.6558 41.4113 19.5383 41.3945 19.4208 41.3945C19.3033 41.3777 19.169 41.3609 19.0515 41.3609C18.9675 41.3609 18.8836 41.3777 18.7997 41.3777C18.6654 41.3777 18.5479 41.3946 18.4304 41.4281C18.3129 41.4449 18.1954 41.4616 18.0779 41.4953C17.9604 41.5288 17.8428 41.5624 17.7253 41.6128C17.6079 41.6631 17.5071 41.7135 17.3896 41.7639C17.2889 41.8142 17.1882 41.8814 17.0707 41.9317C13.1595 44.4833 15.4928 50.4593 18.1618 52.1883C17.1546 52.3726 16.1307 52.5909 15.8453 52.8091C15.8284 52.8262 15.8117 52.843 15.8117 52.843C16.5336 53.2794 17.289 53.6485 18.0779 53.9675C19.1522 54.3199 20.2937 54.6388 20.7973 54.7735V54.7902C22.1906 55.0752 23.6006 55.176 25.0274 55.0924C32.4638 54.572 38.5572 48.9146 39.6652 41.4617C39.6987 41.6128 39.7323 41.7471 39.7659 41.8982C39.8162 42.2003 39.8834 42.5192 39.9169 42.8382V42.855C39.9505 43.0061 39.9673 43.1572 39.9841 43.2914V43.3586C40.0009 43.5097 40.0176 43.6608 40.0176 43.7951C40.0345 43.9797 40.0512 44.1644 40.0512 44.349V44.6176C40.0512 44.7016 40.068 44.8023 40.068 44.8862C40.068 44.9869 40.0512 45.0876 40.0512 45.1884V45.4233C40.0512 45.5409 40.0344 45.6416 40.0344 45.7591C40.0344 45.8263 40.0344 45.8934 40.0175 45.9773C40.0175 46.0948 40.0007 46.2123 40.0007 46.3466C39.9839 46.397 39.9839 46.4473 39.9839 46.4977C39.9671 46.6322 39.9504 46.7497 39.9336 46.8839C39.9336 46.934 39.9336 46.9846 39.9168 47.0347C39.8999 47.2028 39.8664 47.3537 39.8496 47.5218V47.5385V47.5552C39.816 47.7066 39.7824 47.8742 39.7489 48.0255V48.0757C39.7153 48.2266 39.6817 48.3779 39.6482 48.5288C39.6482 48.5455 39.6314 48.5794 39.6314 48.5961C39.5978 48.747 39.5642 48.8984 39.5138 49.0493V49.0999C39.4635 49.2675 39.4131 49.4184 39.3795 49.5697C39.3627 49.5865 39.3627 49.6032 39.3627 49.6032C39.3124 49.7712 39.262 49.9389 39.2116 50.1069C39.1445 50.2745 39.0942 50.4259 39.027 50.5935C38.9599 50.7616 38.9095 50.9292 38.8423 51.0805C38.7752 51.2481 38.7081 51.3995 38.6409 51.5671H38.6241C38.5569 51.7185 38.4898 51.8861 38.4059 52.0374C38.3891 52.0876 38.3723 52.121 38.3555 52.1549C38.3387 52.1716 38.3387 52.1883 38.322 52.205C37.2309 54.4039 35.6194 56.3344 33.605 57.8452C33.4707 57.9292 33.3364 58.03 33.2021 58.1307C33.1686 58.1641 33.1182 58.1808 33.0846 58.2147C32.9671 58.2988 32.8496 58.3823 32.7153 58.4664L32.7657 58.5671H32.7825C33.0175 58.5337 33.2525 58.4998 33.4875 58.4664H33.5043C33.9408 58.3991 34.3772 58.3155 34.8136 58.2315C34.9312 58.2147 35.0655 58.1809 35.1829 58.1474C35.2669 58.1307 35.334 58.114 35.418 58.0973C35.5355 58.0801 35.653 58.0467 35.7705 58.03C35.8712 57.9965 35.9719 57.9794 36.0727 57.9459C37.7513 57.5429 39.3796 56.989 40.9407 56.3344C38.2716 59.9772 34.6961 62.9147 30.5164 64.8452C32.4468 64.711 34.3772 64.3921 36.2405 63.8549C43.0054 61.8571 48.6959 57.308 52.1038 51.1813C51.4153 55.0585 49.871 58.7519 47.5881 61.9745C49.2164 60.9002 50.7105 59.6582 52.0699 58.2482C55.8301 54.3203 58.2978 49.3348 59.1372 43.9797C59.7079 46.6322 59.8755 49.3682 59.6238 52.0708C71.7435 35.1669 60.6309 17.642 55.981 13.0257C55.9643 12.9922 55.9476 12.9754 55.9476 12.9418C55.9309 12.9586 55.9309 12.9586 55.9309 12.9753C55.9309 12.9585 55.9309 12.9585 55.9142 12.9418C55.9142 13.1432 55.8975 13.3447 55.8803 13.5461C55.8301 13.9322 55.78 14.3015 55.7127 14.6708C55.6286 15.0401 55.5279 15.4094 55.4271 15.7787C55.3097 16.1312 55.1755 16.5005 55.0246 16.853C54.8733 17.1887 54.7056 17.5413 54.5209 17.877C54.3361 18.1959 54.1346 18.5316 53.9164 18.8338C53.6981 19.1528 53.4632 19.4549 53.2283 19.7403C52.9766 20.0424 52.7078 20.311 52.4395 20.5796C52.2714 20.7307 52.1205 20.865 51.9524 20.9992C51.8182 21.1167 51.7008 21.2175 51.5666 21.3349C51.2644 21.57 50.9621 21.7882 50.6264 21.9896C50.3075 22.1911 49.9718 22.3925 49.6361 22.5604C49.2833 22.7282 48.9309 22.8793 48.5785 23.0304C48.2261 23.1647 47.8565 23.2822 47.4874 23.3829C47.1178 23.4836 46.732 23.5676 46.3627 23.6347C45.9766 23.7019 45.5905 23.7354 45.2212 23.769C44.9526 23.7858 44.684 23.8025 44.4154 23.8025C44.0293 23.8025 43.6432 23.769 43.274 23.7354C42.8879 23.7018 42.5018 23.6515 42.1325 23.5675C41.7464 23.5003 41.3771 23.3996 41.0078 23.2822H40.991C41.3603 23.2486 41.7296 23.215 42.0989 23.1478C42.485 23.0807 42.8543 22.9968 43.2236 22.8961C43.5929 22.7953 43.9622 22.6778 44.3147 22.5435C44.684 22.4093 45.0365 22.2414 45.3722 22.0735C45.7247 21.9056 46.0437 21.721 46.3794 21.5195C46.6986 21.3013 47.0171 21.0831 47.3193 20.8481C47.6216 20.6131 47.9071 20.3613 48.1755 20.0928C48.461 19.8409 48.7126 19.5556 48.9643 19.2702C49.2164 18.9681 49.4513 18.6659 49.6695 18.3638C49.703 18.3134 49.7369 18.2462 49.7703 18.1959C49.9379 17.9273 50.106 17.6587 50.2569 17.3901C50.4416 17.0544 50.6097 16.7186 50.7606 16.3662C50.9115 16.0136 51.0461 15.6611 51.1636 15.2919C51.2811 14.9393 51.3651 14.57 51.4487 14.2007C51.516 13.8146 51.5833 13.4453 51.6167 13.076C51.6502 12.6899 51.6841 12.3038 51.6841 11.9346C51.6841 11.666 51.6669 11.3974 51.6502 11.1288C51.6167 10.7427 51.5666 10.3734 51.516 10.0041C51.4491 9.61805 51.3651 9.24876 51.2644 8.87946C51.1469 8.52693 51.0294 8.15764 50.8948 7.80515C50.7606 7.45262 50.593 7.10009 50.4249 6.76436C50.2401 6.42864 50.0558 6.09291 49.8543 5.77399C49.6361 5.45503 49.4179 5.15287 49.183 4.85072C48.9309 4.56536 48.6792 4.27999 48.4104 3.99462C48.2762 3.86034 48.1253 3.70926 47.974 3.57497C47.2186 2.98744 46.4298 2.43349 45.6409 1.9299C45.5234 1.86274 45.4227 1.8124 45.3052 1.76204C44.7512 1.40953 44.2308 1.22478 43.7104 1.05692Z" fill="#E0234E"/>
</g>
</g>
<defs>
<clipPath id="clip0_858_811">
<rect width="65" height="65" fill="white" transform="translate(0.0996094 0.100098)"/>
</clipPath>
</defs>
</svg>
