<svg width="65" height="65" viewBox="0 0 65 65" fill="none" xmlns="http://www.w3.org/2000/svg">
<g clip-path="url(#clip0_858_827)">
<mask id="mask0_858_827" style="mask-type:luminance" maskUnits="userSpaceOnUse" x="0" y="0" width="65" height="65">
<path d="M65 0H0V65H65V0Z" fill="white"/>
</mask>
<g mask="url(#mask0_858_827)">
<path d="M0 32.418C0 41.8599 14.551 49.5144 32.5 49.5144C50.4488 49.5144 65 41.8599 65 32.418C65 22.9762 50.4488 15.3218 32.5 15.3218C14.551 15.3218 0 22.9762 0 32.418Z" fill="black"/>
<path d="M0 32.418C0 41.8599 14.551 49.5144 32.5 49.5144C50.4488 49.5144 65 41.8599 65 32.418C65 22.9762 50.4488 15.3218 32.5 15.3218C14.551 15.3218 0 22.9762 0 32.418Z" fill="url(#paint0_radial_858_827)"/>
<path d="M32.5 48.2446C49.7477 48.2446 63.7302 41.1586 63.7302 32.4177C63.7302 23.6769 49.7477 16.5908 32.5 16.5908C15.2521 16.5908 1.26953 23.6769 1.26953 32.4177C1.26953 41.1586 15.2521 48.2446 32.5 48.2446Z" fill="#777BB3"/>
<path d="M17.6581 34.38C19.0763 34.38 20.1351 34.1184 20.805 33.6029C21.4678 33.0926 21.9255 32.2085 22.1654 30.9753C22.3891 29.8226 22.3039 29.0177 21.9122 28.5834C21.5117 28.1398 20.6458 27.9148 19.3387 27.9148H17.0722L15.8158 34.38H17.6581ZM10.2451 42.3439C10.1399 42.3439 10.04 42.2969 9.97312 42.2156C9.90612 42.1343 9.87896 42.0274 9.89906 41.924L13.229 24.7912C13.2612 24.6256 13.4064 24.5059 13.5752 24.5059H20.752C23.0075 24.5059 24.6864 25.1183 25.7416 26.3264C26.8025 27.5408 27.1301 29.2383 26.7153 31.3717C26.5464 32.2408 26.2561 33.048 25.8523 33.7707C25.4481 34.4942 24.9138 35.1637 24.2641 35.7608C23.4864 36.4887 22.6062 37.0165 21.6503 37.3271C20.7096 37.6335 19.5014 37.7889 18.0594 37.7889H15.1534L14.3235 42.0585C14.2913 42.2243 14.1462 42.3439 13.9774 42.3439H10.2451Z" fill="black"/>
<path d="M17.3621 28.2675H19.3379C20.9155 28.2675 21.4635 28.6137 21.6497 28.82C21.9586 29.1625 22.0169 29.8848 21.8184 30.9085C21.5953 32.0546 21.1817 32.8672 20.5891 33.3236C19.9823 33.7907 18.9958 34.0274 17.6573 34.0274H16.2427L17.3621 28.2675ZM20.7512 24.1533H13.5742C13.2366 24.1533 12.9464 24.3927 12.882 24.724L9.55204 41.8569C9.51183 42.0637 9.56615 42.2775 9.70005 42.4401C9.83404 42.6026 10.0336 42.6967 10.2443 42.6967H13.9765C14.3142 42.6967 14.6044 42.4573 14.6688 42.126L15.4433 38.1416H18.0586C19.5376 38.1416 20.7827 37.9804 21.7589 37.6624C22.7629 37.3362 23.6866 36.7831 24.5042 36.0186C25.1803 35.3965 25.7373 34.6983 26.1593 33.943C26.5814 33.1875 26.8847 32.3451 27.0606 31.439C27.4973 29.1933 27.1426 27.3951 26.0063 26.0945C24.8811 24.8064 23.113 24.1533 20.7512 24.1533ZM15.3871 34.7327H17.6573C19.1621 34.7327 20.2828 34.4493 21.0193 33.8824C21.7559 33.3153 22.2526 32.3689 22.5108 31.0428C22.7577 29.7695 22.6453 28.8709 22.1733 28.3474C21.7007 27.824 20.7558 27.5622 19.3379 27.5622H16.7807L15.3871 34.7327ZM20.7512 24.8586C22.9102 24.8586 24.4852 25.4252 25.4752 26.5585C26.4651 27.6918 26.7632 29.2737 26.3682 31.3045C26.2057 32.1411 25.9307 32.906 25.5437 33.599C25.1561 34.2924 24.6501 34.9264 24.0247 35.5014C23.2794 36.1988 22.4515 36.6958 21.5405 36.9918C20.6295 37.2886 19.4692 37.4363 18.0586 37.4363H14.8617L13.9765 41.9914H10.2443L13.5742 24.8586H20.7512Z" fill="white"/>
<path d="M35.2723 37.7892C35.167 37.7892 35.0672 37.7422 35.0004 37.6608C34.9332 37.5796 34.9061 37.4728 34.9262 37.3693L36.3992 29.7887C36.5393 29.0678 36.5047 28.5503 36.302 28.3317C36.1778 28.198 35.805 27.9739 34.7025 27.9739H32.0339L30.1819 37.5038C30.1497 37.6696 30.0045 37.7892 29.8358 37.7892H26.1329C26.0276 37.7892 25.9278 37.7422 25.8608 37.6608C25.7938 37.5796 25.7667 37.4727 25.7868 37.3693L29.1167 20.2364C29.1489 20.0708 29.2941 19.9512 29.4629 19.9512H33.1657C33.271 19.9512 33.3708 19.9982 33.4378 20.0794C33.5048 20.1608 33.5319 20.2676 33.5118 20.371L32.7083 24.5062H35.5791C37.7661 24.5062 39.2491 24.8917 40.1128 25.685C40.9932 26.4942 41.2679 27.788 40.9294 29.5311L39.3801 37.5038C39.3479 37.6696 39.2029 37.7892 39.0339 37.7892H35.2723Z" fill="black"/>
<path d="M33.1658 19.5981H29.463C29.1253 19.5981 28.835 19.8374 28.7706 20.1688L25.4407 37.3017C25.4005 37.5085 25.4548 37.7223 25.5888 37.8849C25.7228 38.0474 25.9224 38.1415 26.1331 38.1415H29.8359C30.1735 38.1415 30.4638 37.9021 30.5282 37.5708L32.3247 28.3262H34.7026C35.8032 28.3262 36.0342 28.5612 36.0435 28.5713C36.1103 28.6432 36.1981 28.9758 36.0531 29.7211L34.5802 37.3017C34.5399 37.5085 34.5943 37.7223 34.7283 37.8849C34.8623 38.0474 35.0619 38.1415 35.2725 38.1415H39.0341C39.3717 38.1415 39.662 37.9021 39.7264 37.5708L41.2756 29.598C41.6392 27.7265 41.3282 26.3226 40.3516 25.425C39.4196 24.5692 37.8586 24.1532 35.5792 24.1532H33.136L33.8581 20.438C33.8983 20.2312 33.844 20.0173 33.71 19.8548C33.576 19.6923 33.3764 19.5981 33.1658 19.5981ZM33.1658 20.3034L32.2805 24.8585H35.5792C37.6547 24.8585 39.0864 25.2207 39.8743 25.9444C40.6622 26.6685 40.8983 27.8417 40.5834 29.4636L39.0341 37.4362H35.2725L36.7455 29.8557C36.9131 28.9933 36.8515 28.4051 36.5605 28.0915C36.2693 27.7779 35.65 27.6209 34.7026 27.6209H31.7432L29.8359 37.4362H26.1331L29.463 20.3034H33.1658Z" fill="white"/>
<path d="M46.7879 34.38C48.2063 34.38 49.2649 34.1184 49.9349 33.6029C50.5974 33.0927 51.0552 32.2086 51.2952 30.9753C51.519 29.8226 51.434 29.0177 51.0422 28.5834C50.6415 28.1398 49.7756 27.9148 48.4687 27.9148H46.2021L44.9457 34.38H46.7879ZM39.3751 42.3439C39.2699 42.3439 39.17 42.2969 39.1031 42.2156C39.0361 42.1343 39.0088 42.0274 39.0289 41.924L42.3588 24.7912C42.3912 24.6256 42.5362 24.5059 42.7052 24.5059H49.8819C52.1374 24.5059 53.8163 25.1183 54.8716 26.3264C55.9325 27.5406 56.2598 29.2381 55.8452 31.3717C55.6762 32.2408 55.386 33.048 54.9821 33.7707C54.5777 34.4942 54.0438 35.1637 53.3938 35.7608C52.6161 36.4887 51.7363 37.0165 50.7803 37.3271C49.8392 37.6335 48.6312 37.7889 47.1891 37.7889H44.2831L43.4536 42.0585C43.4213 42.2243 43.2762 42.3439 43.1073 42.3439H39.3751Z" fill="black"/>
<path d="M46.4926 28.2675H48.4686C50.0463 28.2675 50.5941 28.6137 50.7803 28.82C51.0895 29.1625 51.1476 29.8848 50.9493 30.9084C50.726 32.0546 50.3123 32.8672 49.7199 33.3236C49.1131 33.7907 48.1265 34.0274 46.7879 34.0274H45.3735L46.4926 28.2675ZM49.8819 24.1533H42.705C42.3675 24.1533 42.0772 24.3927 42.0128 24.724L38.6829 41.8569C38.6427 42.0637 38.697 42.2775 38.8309 42.4401C38.9649 42.6026 39.1645 42.6967 39.3751 42.6967H43.1073C43.4449 42.6967 43.7353 42.4573 43.7997 42.126L44.574 38.1416H47.1895C48.6683 38.1416 49.9135 37.9804 50.8894 37.6624C51.8937 37.3362 52.8176 36.783 53.6352 36.0184C54.3112 35.3964 54.8679 34.6983 55.2899 33.943C55.712 33.1875 56.0151 32.3451 56.1916 31.439C56.628 29.1932 56.2733 27.395 55.1372 26.0944C54.0118 24.8064 52.2438 24.1533 49.8819 24.1533ZM44.5179 34.7327H46.7879C48.2927 34.7327 49.4135 34.4493 50.1498 33.8824C50.8866 33.3153 51.3834 32.3689 51.6416 31.0428C51.8886 29.7695 51.7762 28.8709 51.304 28.3474C50.8314 27.824 49.8866 27.5622 48.4686 27.5622H45.9115L44.5179 34.7327ZM49.8819 24.8586C52.0409 24.8586 53.6162 25.4252 54.606 26.5585C55.5959 27.6918 55.894 29.2737 55.4989 31.3045C55.3364 32.1411 55.0615 32.906 54.6743 33.599C54.2866 34.2924 53.7805 34.9264 53.1556 35.5014C52.41 36.1988 51.5821 36.6958 50.6712 36.9918C49.7603 37.2886 48.6 37.4363 47.1895 37.4363H43.9925L43.1073 41.9914H39.3751L42.705 24.8586H49.8819Z" fill="white"/>
</g>
</g>
<defs>
<radialGradient id="paint0_radial_858_827" cx="0" cy="0" r="1" gradientUnits="userSpaceOnUse" gradientTransform="translate(19.5131 21.3323) scale(42.6771 42.6771)">
<stop stop-color="#AEB2D5"/>
<stop offset="0.3" stop-color="#AEB2D5"/>
<stop offset="0.75" stop-color="#484C89"/>
<stop offset="1" stop-color="#484C89"/>
</radialGradient>
<clipPath id="clip0_858_827">
<rect width="65" height="65" fill="white"/>
</clipPath>
</defs>
</svg>
