<svg width="66" height="66" viewBox="0 0 66 66" fill="none" xmlns="http://www.w3.org/2000/svg">
<g clip-path="url(#clip0_858_1213)">
<mask id="mask0_858_1213" style="mask-type:luminance" maskUnits="userSpaceOnUse" x="0" y="0" width="66" height="66">
<path d="M65.0996 0.100098H0.0996094V65.1001H65.0996V0.100098Z" fill="white"/>
</mask>
<g mask="url(#mask0_858_1213)">
<path d="M9.22756 21.2002C6.98859 21.2002 5.20703 22.9818 5.20703 25.2207V41.9679C5.20703 44.2069 6.98859 45.9885 9.22756 45.9885C11.4665 45.9885 13.2481 44.2069 13.2481 41.9679V25.2207C13.2481 22.9818 11.4665 21.2002 9.22756 21.2002ZM56.1197 21.2002C53.8809 21.2002 52.099 22.9818 52.099 25.2207V41.9679C52.099 44.2069 53.8809 45.9885 56.1197 45.9885C58.3585 45.9885 60.1404 44.2069 60.1404 41.9679V25.2207C60.1404 22.9818 58.3585 21.2002 56.1197 21.2002Z" fill="#A4C639"/>
<path d="M25.9746 40.312C23.7357 40.312 21.9541 42.0936 21.9541 44.3325V61.0798C21.9541 63.3186 23.7357 65.1 25.9746 65.1C28.2136 65.1 29.9952 63.3186 29.9952 61.0798V44.3325C29.9952 42.0936 28.2136 40.312 25.9746 40.312ZM39.3724 40.312C37.1334 40.312 35.3518 42.0936 35.3518 44.3325V61.0798C35.3518 63.3186 37.1334 65.1 39.3724 65.1C41.6114 65.1 43.3929 63.3186 43.3929 61.0798V44.3325C43.3929 42.0936 41.6114 40.312 39.3724 40.312Z" fill="#A4C639"/>
<path d="M21.5415 0.100126C21.4465 0.101098 21.3579 0.125618 21.2706 0.174009C20.9839 0.332929 20.8897 0.662376 21.049 0.949801L23.8812 6.06631C18.4321 8.90161 14.7515 14.2899 14.7441 20.4738H50.6026C50.5956 14.2899 46.9147 8.90161 41.4657 6.06631L44.298 0.949801C44.4573 0.662376 44.363 0.332929 44.0763 0.174009C43.989 0.125618 43.9004 0.101031 43.8054 0.100126C43.6019 0.0981622 43.4091 0.199823 43.3005 0.395664L40.4314 5.56757C38.0842 4.52648 35.4516 3.94212 32.6735 3.94212C29.8953 3.94212 27.2627 4.52648 24.9156 5.56757L22.0464 0.395664C21.9378 0.199823 21.745 0.0981738 21.5415 0.100126ZM14.7441 21.8899V47.8788C14.7441 50.2801 16.6773 52.2134 19.0787 52.2134H46.2682C48.6697 52.2134 50.6026 50.2801 50.6026 47.8788V21.8899H14.7441Z" fill="#A4C639"/>
<path d="M24.3986 10.9185C23.5799 10.9185 22.9023 11.596 22.9023 12.4146C22.9023 13.2332 23.5799 13.9108 24.3986 13.9108C25.2171 13.9108 25.8947 13.2332 25.8947 12.4146C25.8947 11.596 25.2171 10.9185 24.3986 10.9185ZM40.9487 10.9185C40.1301 10.9185 39.4525 11.596 39.4525 12.4146C39.4525 13.2332 40.1301 13.9108 40.9487 13.9108C41.7672 13.9108 42.4448 13.2332 42.4448 12.4146C42.4448 11.596 41.7672 10.9185 40.9487 10.9185Z" fill="white"/>
</g>
</g>
<defs>
<clipPath id="clip0_858_1213">
<rect width="65" height="65" fill="white" transform="translate(0.0996094 0.100098)"/>
</clipPath>
</defs>
</svg>
