<svg width="66" height="66" viewBox="0 0 66 66" fill="none" xmlns="http://www.w3.org/2000/svg">
<path d="M32.5107 38.1693C35.5865 38.1693 38.08 35.6759 38.08 32.6001C38.08 29.5242 35.5865 27.0308 32.5107 27.0308C29.4349 27.0308 26.9414 29.5242 26.9414 32.6001C26.9414 35.6759 29.4349 38.1693 32.5107 38.1693Z" fill="#61DAFB"/>
<path fill-rule="evenodd" clip-rule="evenodd" d="M5.42357 28.6558C3.9941 29.9462 3.29599 31.2803 3.29599 32.6002C3.29599 33.9203 3.9941 35.2543 5.42357 36.5447C6.85292 37.835 8.95888 39.0277 11.6182 40.0431C16.9321 42.072 24.3185 43.341 32.5106 43.341C40.7026 43.341 48.0889 42.072 53.4031 40.0431C56.0621 39.0277 58.1681 37.835 59.5976 36.5447C61.0272 35.2543 61.725 33.9203 61.725 32.6002C61.725 31.2803 61.0272 29.9462 59.5976 28.6558C58.1681 27.3655 56.0621 26.1728 53.4031 25.1574C48.0889 23.1284 40.7026 21.8595 32.5106 21.8595C24.3185 21.8595 16.9321 23.1284 11.6182 25.1574C8.95888 26.1728 6.85292 27.3655 5.42357 28.6558ZM11.1406 23.9065C16.6425 21.8058 24.1981 20.5205 32.5106 20.5205C40.823 20.5205 48.3786 21.8058 53.8804 23.9065C56.629 24.956 58.8998 26.222 60.4946 27.6619C62.0899 29.1018 63.064 30.7694 63.064 32.6002C63.064 34.4311 62.0899 36.0988 60.4946 37.5386C58.8998 38.9785 56.629 40.2445 53.8804 41.294C48.3786 43.3947 40.823 44.68 32.5106 44.68C24.1981 44.68 16.6425 43.3947 11.1406 41.294C8.39189 40.2445 6.1214 38.9785 4.52634 37.5386C2.93136 36.0988 1.95703 34.4311 1.95703 32.6002C1.95703 30.7694 2.93136 29.1018 4.52634 27.6619C6.1214 26.222 8.39189 24.956 11.1406 23.9065Z" fill="#61DAFB"/>
<path fill-rule="evenodd" clip-rule="evenodd" d="M22.3827 7.16981C20.5504 6.5771 19.0461 6.63955 17.9029 7.29953C16.7597 7.95951 15.9535 9.23115 15.5507 11.1143C15.1479 12.9973 15.168 15.4175 15.6183 18.2282C16.5181 23.8447 19.1124 30.876 23.2084 37.9705C27.3044 45.065 32.0966 50.8275 36.5107 54.415C38.7197 56.2099 40.8056 57.4375 42.6377 58.0304C44.4699 58.6228 45.9743 58.5606 47.1172 57.9004C48.2608 57.2407 49.0668 55.969 49.4698 54.0858C49.8723 52.2027 49.8524 49.7828 49.402 46.9721C48.5022 41.3555 45.908 34.3242 41.812 27.2297C37.716 20.1352 32.9238 14.3728 28.5097 10.7853C26.3007 8.99 24.2148 7.76256 22.3827 7.16981ZM29.3542 9.74627C33.9244 13.4607 38.8153 19.3614 42.9715 26.5602C47.1279 33.759 49.7925 40.945 50.7243 46.7603C51.1895 49.6654 51.2285 52.2644 50.7791 54.3658C50.3296 56.4672 49.3727 58.1446 47.7867 59.0602C46.2014 59.9758 44.27 59.9656 42.2256 59.3044C40.1811 58.6428 37.9494 57.3094 35.6662 55.4541C31.096 51.7393 26.205 45.8387 22.0488 38.6399C17.8926 31.4411 15.2279 24.2552 14.2962 18.44C13.8307 15.5348 13.7919 12.9355 14.2414 10.8342C14.6908 8.73301 15.6479 7.05541 17.2335 6.13998C18.819 5.22455 20.7504 5.23448 22.7948 5.89586C24.8393 6.55728 27.071 7.89057 29.3542 9.74627Z" fill="#61DAFB"/>
<path fill-rule="evenodd" clip-rule="evenodd" d="M49.4698 11.1143C49.0668 9.23112 48.2608 7.95953 47.1177 7.29955C45.9743 6.63952 44.4699 6.57708 42.6377 7.16983C40.8055 7.76254 38.7197 8.98997 36.5107 10.7853C32.0966 14.3729 27.3044 20.1351 23.2084 27.2297C19.1124 34.3242 16.5181 41.3555 15.6183 46.972C15.168 49.7828 15.1479 52.2026 15.5507 54.0858C15.9535 55.9689 16.7598 57.2406 17.9029 57.9008C19.046 58.5605 20.5504 58.6232 22.3827 58.0303C24.2148 57.4374 26.3007 56.2103 28.5097 54.4149C32.9238 50.8274 37.7159 45.065 41.812 37.9705C45.908 30.8759 48.5022 23.8447 49.402 18.2281C49.8523 15.4174 49.8723 12.9973 49.4698 11.1143ZM50.7243 18.4399C49.7924 24.2551 47.1279 31.4412 42.9716 38.6399C38.8153 45.8387 33.9244 51.7393 29.3542 55.454C27.0709 57.3098 24.8393 58.6427 22.7948 59.3043C20.7504 59.9655 18.819 59.9757 17.2334 59.0601C15.6478 58.1445 14.6908 56.4671 14.2414 54.3657C13.7919 52.2648 13.8308 49.6653 14.2962 46.7603C15.2279 40.945 17.8926 33.759 22.0488 26.5602C26.2051 19.3614 31.096 13.4607 35.6662 9.74624C37.9494 7.89059 40.1811 6.5573 42.2256 5.89588C44.27 5.2345 46.2014 5.22452 47.7867 6.13995C49.3727 7.05538 50.3296 8.73303 50.779 10.8342C51.2285 12.9355 51.1895 15.5348 50.7243 18.4399Z" fill="#61DAFB"/>
</svg>
