<svg width="66" height="66" viewBox="0 0 66 66" fill="none" xmlns="http://www.w3.org/2000/svg">
<g clip-path="url(#clip0_858_1223)">
<mask id="mask0_858_1223" style="mask-type:luminance" maskUnits="userSpaceOnUse" x="0" y="0" width="66" height="66">
<path d="M65.0996 0.100098H0.0996094V65.1001H65.0996V0.100098Z" fill="white"/>
</mask>
<g mask="url(#mask0_858_1223)">
<path d="M65.0286 17.9829C65.0281 16.6923 64.8902 15.4054 64.6172 14.1439C64.1093 11.551 62.7605 9.17445 60.7576 7.33918C59.7311 6.37945 58.5471 5.60368 57.2569 5.04593C55.9945 4.43654 54.6467 4.03029 53.2552 3.80686C51.8805 3.55295 50.3609 3.55295 48.9866 3.43311H15.014C13.9558 3.4513 12.8999 3.53645 11.8524 3.68803C10.8094 3.80381 9.78767 4.05365 8.80552 4.43553L7.84069 4.80929C6.92043 5.27004 6.042 5.81005 5.21529 6.4231C4.94717 6.67701 4.6618 6.79685 4.39265 7.03451C3.37302 7.90421 2.51962 8.95174 1.8739 10.1261C1.20664 11.292 0.739451 12.5493 0.510938 13.8554C0.306444 15.1212 0.169142 16.3969 0.0996094 17.6772V47.2857C0.100131 48.5764 0.238017 49.8634 0.510938 51.1248C1.01875 53.7179 2.3675 56.0941 4.37031 57.9294C5.38601 58.8598 6.55137 59.612 7.81734 60.1547C9.07978 60.7643 10.4275 61.1706 11.8189 61.3939C13.194 61.6479 14.7134 61.6479 16.0876 61.7677H49.0609C50.4918 61.7658 51.9199 61.6409 53.3295 61.3939C54.6945 61.1706 56.0191 60.7569 57.2601 60.171C58.5448 59.592 59.7459 58.8436 60.8319 57.9457C61.8389 57.0733 62.6802 56.0258 63.3154 54.854C63.9955 53.6984 64.4607 52.4402 64.6901 51.1341C64.8953 49.8625 65.0328 48.581 65.1015 47.295V17.9941L65.0286 17.9829Z" fill="#F05138"/>
<path d="M43.5042 48.5586C37.7172 51.5649 29.7679 51.8694 21.7841 48.7963C15.5552 46.4127 10.2222 42.3065 6.47754 37.008C8.22441 38.2471 10.1257 39.2749 12.1397 40.065C20.3916 43.4623 28.6619 43.3089 34.4672 40.065C26.8043 34.5197 19.9031 28.0827 13.9262 20.9042C12.8963 19.8682 11.9748 18.7299 11.1758 17.507C17.4524 22.5211 24.1291 27.064 31.1461 31.096C26.0354 26.1682 21.3351 20.8687 17.0898 15.2472C24.1698 21.7096 31.9525 27.4377 40.308 32.3361L41.2018 32.8114C41.4435 32.2578 41.6523 31.6904 41.8274 31.1123C43.7571 24.7931 41.5593 17.6085 36.7371 11.6631C47.9009 17.7263 54.5104 29.1247 51.7582 38.6716C51.7582 38.9255 51.6161 39.1814 51.5246 39.4363L51.6138 39.5379C57.1327 45.7383 55.6154 52.2943 54.919 51.0551C51.9002 45.8754 46.3094 47.4699 43.5052 48.5568L43.5042 48.5586Z" fill="#FEFEFE"/>
</g>
</g>
<defs>
<clipPath id="clip0_858_1223">
<rect width="65" height="65" fill="white" transform="translate(0.0996094 0.100098)"/>
</clipPath>
</defs>
</svg>
