<svg width="66" height="66" viewBox="0 0 66 66" fill="none" xmlns="http://www.w3.org/2000/svg">
<g clip-path="url(#clip0_862_3123)">
<path d="M6.71276 47.4447L32.4242 62.2893L58.1369 47.4447V17.7554L32.4242 2.91096L6.71276 17.7554V47.4447ZM32.4242 65.0996L4.27832 48.8496V16.3503L32.4242 0.0996094L60.5716 16.3503V48.8496L32.4242 65.0996Z" fill="#A1070C"/>
<path d="M6.38477 17.5655L32.4249 2.53125L58.4651 17.5655V47.6341L32.4249 62.6682L6.38477 47.6341V17.5655Z" fill="url(#paint0_linear_862_3123)"/>
<path d="M44.3721 21.5989C44.3721 22.7801 44.139 23.9534 43.6727 25.1191C43.2065 26.2846 42.581 27.3648 41.7961 28.3594C41.0113 29.354 40.106 30.2243 39.0803 30.9704C38.0545 31.7163 36.99 32.2525 35.8865 32.5789L35.397 31.7629C36.0497 31.4366 36.648 31.017 37.192 30.5041C37.7359 29.9912 38.2022 29.4124 38.5907 28.7674C38.9793 28.1224 39.2784 27.4386 39.4882 26.7159C39.698 25.9933 39.8029 25.2589 39.8029 24.5129C39.8029 23.6582 39.6786 22.85 39.4299 22.0885C39.1813 21.327 38.8161 20.6626 38.3343 20.0953C37.8525 19.528 37.2581 19.0813 36.5509 18.7549C35.8438 18.4285 35.0318 18.2653 34.1148 18.2653C32.9958 18.2653 31.9701 18.4829 31.0377 18.9181C30.1051 19.3532 29.2659 19.9399 28.5199 20.6781C27.774 21.4163 27.1251 22.2633 26.5734 23.2191C26.0217 24.1749 25.5632 25.1773 25.198 26.2264C24.8328 27.2754 24.5569 28.3361 24.3704 29.4085C24.1839 30.4808 24.0907 31.491 24.0907 32.439C24.0907 33.4026 24.1917 34.3972 24.3937 35.423C24.5958 36.4487 24.8911 37.4588 25.2796 38.4535C25.6681 39.4481 26.1499 40.3884 26.7249 41.2743C27.3 42.1601 27.9644 42.9371 28.7181 43.6054C29.4718 44.2737 30.3111 44.806 31.2358 45.2023C32.1605 45.5986 33.1668 45.7968 34.2547 45.7968C35.0007 45.7968 35.7272 45.6957 36.4344 45.4937C37.1415 45.2917 37.8214 45.0197 38.4742 44.6778C39.1269 44.3359 39.7446 43.9318 40.3275 43.4656C40.9103 42.9993 41.4503 42.4943 41.9476 41.9503L42.7169 42.6963C42.0331 43.5977 41.2211 44.4641 40.2808 45.2956C39.3406 46.127 38.3265 46.8651 37.2386 47.51C36.1507 48.1554 35.0124 48.668 33.8234 49.0487C32.6345 49.4294 31.4573 49.6197 30.2916 49.6197C29.1572 49.6197 28.0887 49.422 27.0863 49.0255C26.0839 48.629 25.163 48.0932 24.3238 47.4172C23.4846 46.7407 22.7347 45.9483 22.0742 45.0391C21.4137 44.1299 20.8542 43.1625 20.3957 42.1368C19.9373 41.1111 19.5876 40.0542 19.3467 38.9663C19.1058 37.8785 18.9854 36.8139 18.9854 35.7726C18.9854 34.2651 19.2379 32.7149 19.743 31.1219C20.2481 29.5289 20.9436 27.9825 21.8294 26.4828C22.7153 24.9831 23.7604 23.5649 24.9649 22.2284C26.1693 20.8918 27.467 19.7262 28.858 18.7316C30.2489 17.7369 31.702 16.9482 33.2173 16.3654C34.7326 15.7826 36.244 15.4912 37.7515 15.4912C38.684 15.4912 39.5543 15.6272 40.3624 15.8992C41.1706 16.1712 41.8699 16.5636 42.4605 17.0764C43.0511 17.5893 43.5173 18.2265 43.8592 18.988C44.2011 19.7495 44.3721 20.6199 44.3721 21.5989Z" fill="#A1070C"/>
</g>
<defs>
<linearGradient id="paint0_linear_862_3123" x1="2610.4" y1="2722.34" x2="2610.4" y2="6016.22" gradientUnits="userSpaceOnUse">
<stop stop-color="#F7F6F3"/>
<stop offset="1" stop-color="#FEF6D5"/>
</linearGradient>
<clipPath id="clip0_862_3123">
<rect width="65" height="65" fill="white" transform="translate(0.0996094 0.0996094)"/>
</clipPath>
</defs>
</svg>
