<svg width="66" height="66" viewBox="0 0 66 66" fill="none" xmlns="http://www.w3.org/2000/svg">
<g clip-path="url(#clip0_862_3119)">
<path d="M58.5207 32.1029C58.5207 28.7615 55.8116 26.0528 52.4701 26.0528C52.2551 26.0528 52.0434 26.0644 51.8345 26.0862L60.1443 1.57715H24.83L33.1283 26.065C33.0066 26.0576 32.8842 26.0528 32.7607 26.0528C29.4193 26.0528 26.7104 28.7615 26.7104 32.1029C26.7104 34.8039 28.4805 37.0904 30.9235 37.8685C29.6332 40.1035 28.0096 42.1165 26.1662 43.8557C23.6597 46.2204 20.791 48.0133 17.6882 49.1183C13.9942 47.2208 12.2497 43.0003 13.8238 39.2998C14.0014 38.8819 14.1831 38.4585 14.3564 38.0368C17.0327 37.4122 19.0268 35.013 19.0268 32.1464C19.0268 28.8049 16.3181 26.0963 12.9765 26.0963C9.63511 26.0963 6.92628 28.8049 6.92628 32.1464C6.92628 34.1954 7.9459 36.0053 9.50423 37.0998C8.00677 40.5093 5.8055 44.0775 5.1197 48.213C4.29785 53.1697 5.11705 58.4305 9.40371 61.4015C19.3871 68.3207 30.2239 57.1124 41.6498 54.2946C45.7908 53.2732 50.3363 53.438 53.9846 51.3251C56.7244 49.7381 58.5304 47.1084 59.043 44.1561C59.5495 41.2395 58.8113 38.3357 57.1134 35.981C57.9914 34.9309 58.5207 33.579 58.5207 32.1029Z" fill="#99425B"/>
<path d="M57.5865 43.9033C57.1418 46.4664 55.5585 48.7052 53.2436 50.0465C51.0851 51.2964 48.4991 51.6692 45.761 52.0643C44.2942 52.2756 42.7774 52.4947 41.2956 52.8601C37.3776 53.8258 33.5827 55.7113 29.9128 57.5341C22.5684 61.182 16.2257 64.3321 10.2451 60.187C5.86427 57.151 6.06656 51.5332 6.57695 48.455C7.04997 45.6029 8.3287 42.9763 9.56537 40.4361C9.77904 39.997 9.98838 39.5659 10.1922 39.1386C10.8051 39.3834 11.4571 39.5506 12.1366 39.6265C10.8778 43.781 12.8574 48.298 17.0126 50.4328L17.5812 50.7249L18.1834 50.5104C21.4683 49.3408 24.4951 47.4633 27.1799 44.9304C28.9152 43.2932 30.4073 41.4819 31.6337 39.5464C32.0013 39.6018 32.3774 39.6309 32.7602 39.6309C36.5738 39.6309 39.7318 36.7799 40.2204 33.0978C41.7814 33.0406 43.4395 33.0402 45.0095 33.0972C45.4979 36.7797 48.656 39.6309 52.4696 39.6309C54.0645 39.6309 55.5432 39.1312 56.762 38.2823C57.6079 40.014 57.9236 41.9624 57.5865 43.9033ZM12.9761 27.5739C15.4976 27.5739 17.5487 29.6252 17.5487 32.1465C17.5487 33.0521 17.283 33.8966 16.8267 34.6078C16.0664 35.7932 14.7748 36.6057 13.2902 36.7071C13.1863 36.7142 13.0817 36.7191 12.9761 36.7191C12.4143 36.7191 11.8759 36.6165 11.3783 36.4305C10.3716 36.0537 9.53269 35.3314 9.00503 34.4091C8.62306 33.7413 8.40345 32.9692 8.40345 32.1465C8.40345 29.6252 10.4548 27.5739 12.9761 27.5739ZM28.1876 32.1031C28.1876 29.8122 29.881 27.91 32.0815 27.5811C32.303 27.5479 32.5297 27.5304 32.7602 27.5304C34.226 27.5304 35.5311 28.225 36.3682 29.301C36.5763 29.5683 36.7567 29.8583 36.9019 30.1681C37.1778 30.7562 37.3328 31.4116 37.3328 32.1031C37.3328 32.4686 37.2885 32.824 37.207 33.1649C36.7614 35.0304 35.1707 36.4562 33.2215 36.6525C33.0699 36.6677 32.916 36.6757 32.7602 36.6757C31.8473 36.6757 30.9968 36.4057 30.282 35.9429C29.0231 35.1274 28.1876 33.7113 28.1876 32.1031ZM47.272 26.6657C46.2924 27.603 45.5639 28.8005 45.2012 30.1471C43.5079 30.0836 41.7124 30.0836 40.0289 30.1471C39.6422 28.7118 38.8402 27.4456 37.7613 26.4839L42.4927 16.9165L47.272 26.6657ZM26.8905 3.05491H58.0824L50.7151 24.7832C50.3961 24.8599 50.0846 24.9564 49.7824 25.0724L42.5045 10.2261L35.2062 24.9837C34.8907 24.8751 34.5656 24.7876 34.2328 24.7213L26.8905 3.05491ZM57.0424 32.1031C57.0424 32.5616 56.9737 33.0041 56.8479 33.422C56.5475 34.4162 55.9174 35.268 55.0854 35.8505C54.3435 36.3697 53.4419 36.6757 52.4696 36.6757C50.3585 36.6757 48.5775 35.2368 48.0538 33.2884C47.9521 32.9101 47.8974 32.5129 47.8974 32.1031C47.8974 31.478 48.0236 30.8821 48.2516 30.3391C48.3691 30.0592 48.5153 29.7947 48.6839 29.5461C49.5066 28.3316 50.8953 27.5304 52.4696 27.5304C52.614 27.5304 52.7566 27.538 52.8977 27.5512C55.2191 27.7675 57.0424 29.726 57.0424 32.1031ZM59.9976 32.1031C59.9976 28.4278 57.3498 25.3614 53.862 24.7062L62.2048 0.0996094H22.7686L31.1243 24.7563C27.7576 25.5055 25.2323 28.514 25.2323 32.1031C25.2323 34.798 26.6566 37.1653 28.7911 38.4955C27.7644 40.0252 26.5468 41.4646 25.1518 42.7808C22.939 44.8684 20.474 46.4513 17.8164 47.493C15.1396 45.8115 14.0081 42.6406 15.1832 39.8782L15.2753 39.6617C15.3329 39.5265 15.3905 39.391 15.448 39.2555C18.3881 38.23 20.5039 35.4316 20.5039 32.1465C20.5039 27.9955 17.127 24.6186 12.9761 24.6186C8.82521 24.6186 5.44818 27.9955 5.44818 32.1465C5.44818 34.2416 6.30934 36.139 7.69537 37.5051C7.44419 38.0404 7.17969 38.5849 6.90822 39.1424C5.641 41.7453 4.20473 44.6955 3.66154 47.9712C2.58271 54.4777 4.32294 59.6786 8.56159 62.6161C11.1337 64.3985 13.7456 65.0996 16.3742 65.0996C21.3238 65.0996 26.3305 62.6129 31.2275 60.1805C34.7542 58.4292 38.401 56.6176 42.0032 55.7294C43.3435 55.3988 44.7227 55.1996 46.1829 54.9893C49.0785 54.5715 52.0727 54.1397 54.7247 52.6038C57.7987 50.8228 59.9033 47.8361 60.4985 44.4089C61.0093 41.4668 60.3945 38.5199 58.8954 36.0209C59.5941 34.8788 59.9976 33.5372 59.9976 32.1031Z" fill="white"/>
</g>
<defs>
<clipPath id="clip0_862_3119">
<rect width="65" height="65" fill="white" transform="translate(0.0996094 0.0996094)"/>
</clipPath>
</defs>
</svg>
