<svg width="66" height="66" viewBox="0 0 66 66" fill="none" xmlns="http://www.w3.org/2000/svg">
<g clip-path="url(#clip0_862_3128)">
<path fill-rule="evenodd" clip-rule="evenodd" d="M59.2822 50.1074L34.1659 64.6293C33.0887 65.2565 31.7524 65.2565 30.6752 64.6293L5.55882 50.1074C4.48161 49.4801 3.81348 48.3213 3.81348 47.1076V18.0915C3.81348 16.8371 4.48161 15.719 5.55882 15.0917L30.6752 0.570033C31.7524 -0.0571983 33.0887 -0.0571983 34.1659 0.570033L59.2822 15.119C60.3593 15.7462 61.0279 16.9053 61.0279 18.1188V47.135C60.9865 48.3621 60.3324 49.5075 59.2822 50.1348V50.1074Z" fill="#8D6748"/>
<path d="M32.3803 5.57439C32.7211 5.57439 33.062 5.68345 33.362 5.84711L55.0559 18.378C55.6558 18.7326 56.024 19.3871 56.0379 20.0824V45.1443C56.0379 45.8398 55.6697 46.4943 55.0559 46.8486L33.362 59.3663C33.0484 59.5431 32.7484 59.6388 32.3803 59.6388C32.0394 59.6388 31.6985 59.5431 31.3985 59.3663L9.71819 46.8486C9.11824 46.4943 8.75006 45.8398 8.73646 45.1443V20.0961C8.73646 19.4007 9.10459 18.7462 9.71819 18.3916L31.4121 5.87436C31.7258 5.68345 32.0803 5.57439 32.3803 5.57439ZM32.3803 4.53809C31.8621 4.53809 31.3303 4.68807 30.8803 4.96079L9.1864 17.4781C8.25922 18.0099 7.68652 18.9916 7.68652 20.0552V45.1034C7.68652 46.1806 8.24557 47.1625 9.1864 47.6806L30.8803 60.2113C31.3303 60.4842 31.8621 60.6342 32.3803 60.6342C32.8984 60.6342 33.4301 60.4842 33.8801 60.2113L55.5741 47.6941C56.5012 47.1625 57.0742 46.1806 57.0742 45.117V20.0552C57.0742 18.978 56.5147 17.9963 55.5741 17.4781L33.8801 4.94714C33.4301 4.67444 32.912 4.53809 32.3803 4.53809ZM35.4891 20.0552C35.4891 19.8779 35.3391 19.7007 35.1346 19.7007H28.5759C28.3987 19.7007 28.2215 19.8507 28.2215 20.0552C28.2215 21.2415 28.3987 25.3185 30.144 27.3092C30.2122 27.3774 30.294 27.4183 30.3895 27.4183H33.3074C33.4029 27.4183 33.4847 27.3774 33.5529 27.3092C35.2982 25.3594 35.4755 21.2824 35.4891 20.0552ZM32.912 26.4093H30.8531C30.7576 26.4093 30.6758 26.3684 30.6077 26.3002C29.4214 24.923 29.285 22.1141 29.2441 21.1324C29.2441 20.9551 29.3941 20.7778 29.5986 20.7778H34.1938C34.371 20.7778 34.5483 20.9279 34.5483 21.1324C34.5483 22.1141 34.371 24.8685 33.1847 26.3002C33.0757 26.3684 33.0075 26.4093 32.912 26.4093ZM32.5166 19.0052C32.5166 19.0052 33.7711 18.2689 33.0075 16.9463C32.5575 16.2509 32.3394 15.651 32.5166 15.4055C32.0666 15.9645 31.2894 16.5509 32.1348 17.8053C32.4212 18.1326 32.5575 18.8007 32.5166 19.0052ZM31.1394 19.1144C31.1394 19.1144 31.9712 18.6235 31.453 17.7372C31.1394 17.2872 31.003 16.8645 31.1394 16.7282C30.8258 17.1099 30.3349 17.4917 30.894 18.3644C31.0712 18.528 31.1394 18.978 31.1394 19.1144Z" fill="white"/>
<path d="M33.9754 23.1641C33.8254 24.1049 33.5527 25.1821 32.9664 25.8911C32.8982 25.9593 32.8164 26.0002 32.7618 26.0002H31.0165C30.9483 26.0002 30.8392 25.9593 30.812 25.8911C30.3893 25.373 30.1166 24.6639 29.9393 23.9413C29.9393 23.9413 31.9574 24.214 33.1164 23.7913C33.9345 23.464 33.9754 23.1641 33.9754 23.1641ZM11.0542 28.8091H12.3496L14.4768 32.0952L16.6039 28.8091H17.8993V35.7905H16.6721V30.7999L14.4768 34.086H14.4359L12.2814 30.8408V35.8314H11.0542V28.8091ZM24.2124 35.8995C23.7079 35.8995 23.217 35.8041 22.7535 35.6268C22.3171 35.4495 21.9217 35.1905 21.6081 34.8632C21.2808 34.536 21.0354 34.1406 20.8718 33.7178C20.6945 33.2951 20.5991 32.7907 20.5991 32.3407V32.2998C20.5991 31.8089 20.7081 31.3589 20.8718 30.9226C21.049 30.4999 21.2944 30.1181 21.6354 29.7772C21.9626 29.45 22.358 29.1773 22.7807 29.0136C23.2307 28.8091 23.7216 28.7409 24.2397 28.7409C24.7442 28.7409 25.2351 28.8364 25.6987 29.0136C26.135 29.1909 26.5305 29.45 26.8441 29.7772C27.1713 30.1045 27.4167 30.4999 27.5804 30.9226C27.7577 31.3453 27.8531 31.8498 27.8531 32.2998V32.3407C27.8531 32.8316 27.744 33.2815 27.5804 33.7178C27.4031 34.1406 27.1577 34.5223 26.8168 34.8632C26.4896 35.1905 26.0941 35.4632 25.6714 35.6268C25.2215 35.8177 24.7306 35.8995 24.2124 35.8995ZM24.2124 34.7814C24.567 34.7814 24.8806 34.7132 25.1533 34.5769C25.426 34.4405 25.6714 34.2633 25.8896 34.0588C26.0941 33.8542 26.2441 33.5679 26.3805 33.2951C26.4896 32.9952 26.5441 32.6679 26.5577 32.3543V32.3134C26.5577 31.9589 26.4896 31.6453 26.3805 31.3316C26.2714 31.0317 26.1078 30.759 25.8896 30.5272C25.6714 30.309 25.426 30.1317 25.1533 30.009C24.8806 29.859 24.567 29.8045 24.2124 29.8045C23.8852 29.8045 23.5579 29.8727 23.2716 30.009C22.9989 30.1454 22.7535 30.3227 22.5353 30.5272C22.3308 30.7317 22.1808 31.0181 22.0444 31.2907C21.9353 31.5907 21.8808 31.918 21.8671 32.2316V32.2725C21.8671 32.627 21.9353 32.9406 22.0444 33.2542C22.1535 33.5542 22.3171 33.8269 22.5353 34.0588C22.7535 34.2769 22.9989 34.4541 23.2716 34.5769C23.5579 34.7132 23.8852 34.7814 24.2124 34.7814ZM33.7709 35.8995C33.2936 35.8995 32.8164 35.8041 32.38 35.6268C31.9574 35.4495 31.5756 35.1769 31.262 34.8632C30.9347 34.536 30.6893 34.1406 30.5256 33.7178C30.3484 33.2679 30.2529 32.7907 30.2529 32.3407V32.2998C30.2529 31.8089 30.362 31.318 30.5256 30.9226C30.7029 30.4999 30.9483 30.1045 31.262 29.7772C31.5892 29.45 31.9846 29.1773 32.4073 29.0136C32.8709 28.8227 33.3754 28.7273 33.8663 28.7409C34.1799 28.7409 34.4526 28.7818 34.739 28.8091L35.4753 29.0136C35.6798 29.1227 35.898 29.2182 36.0616 29.3682L36.5797 29.8181L35.7753 30.7453C35.5162 30.4999 35.2162 30.2954 34.9026 30.1317C34.5617 29.9681 34.1935 29.8727 33.8254 29.8863C33.5118 29.8863 33.1982 29.9545 32.9118 30.0908C32.6391 30.2272 32.3937 30.4045 32.1755 30.609C31.971 30.8135 31.821 31.0999 31.6846 31.3725C31.5756 31.6725 31.521 31.9998 31.5074 32.3134V32.3543C31.5074 32.7088 31.5756 33.0224 31.6846 33.3361C31.7938 33.636 31.9574 33.9087 32.1755 34.1406C32.38 34.3451 32.6255 34.5633 32.9118 34.6587C33.1845 34.7678 33.4981 34.8632 33.839 34.8632C34.2618 34.8632 34.6435 34.795 34.9163 34.6178C35.2435 34.4269 35.5435 34.1951 35.8298 33.9497L36.6343 34.7541C36.457 34.9587 36.2798 35.1086 36.0753 35.2723C35.8707 35.4495 35.6526 35.545 35.4617 35.6541C35.2298 35.7768 34.9844 35.8586 34.7253 35.8995C34.4117 35.9677 34.1117 35.9677 33.7845 35.9677L33.7709 35.8995ZM39.0614 28.8091H40.2886V31.6998H43.6429V28.8091H44.8701V35.7905H43.6429V32.8725H40.3022V35.7905H39.075L39.0614 28.8091ZM50.2698 28.7818H51.3878L54.4558 35.7905H53.1605L52.465 34.0997H49.1787L48.4424 35.7905H47.1879L50.2698 28.7818ZM52.0016 33.0361L50.8153 30.2408L49.6286 33.0361H52.0016ZM10.168 37.9857H54.674V38.3675H10.168V37.9857ZM54.674 24.8685H35.748C35.748 25.0185 35.7071 25.1139 35.7071 25.2503H54.6466V24.8685H54.674ZM10.1952 24.8685V25.2503H28.0167C28.0167 25.1003 27.9758 25.0048 27.9758 24.8685H10.1952Z" fill="white"/>
</g>
<defs>
<clipPath id="clip0_862_3128">
<rect width="65" height="65" fill="white" transform="translate(0.0996094 0.0996094)"/>
</clipPath>
</defs>
</svg>
