<svg width="65" height="65" viewBox="0 0 65 65" fill="none" xmlns="http://www.w3.org/2000/svg">
<path d="M42.4004 41.1221C41.2058 41.0858 40.0412 41.5002 39.1381 42.2829C38.2349 43.0657 37.6592 44.1595 37.5254 45.3471C37.5194 45.3701 37.5189 45.3942 37.5239 45.4174C37.5289 45.4407 37.5392 45.4624 37.554 45.481C37.5688 45.4995 37.5878 45.5144 37.6094 45.5243C37.631 45.5343 37.6546 45.539 37.6783 45.5383H47.1414C47.1633 45.5385 47.1851 45.534 47.205 45.5251C47.225 45.5163 47.2426 45.5032 47.257 45.4869C47.2714 45.4707 47.2826 45.4515 47.2886 45.4306C47.2951 45.4098 47.2974 45.3879 47.2946 45.3662C47.2013 44.1571 46.6354 43.0334 45.7192 42.2388C44.8031 41.4443 43.6105 41.0431 42.4004 41.1221Z" fill="#01A71C"/>
<path d="M62.6839 9.38674L42.6102 31.9265C42.5529 31.9884 42.4834 32.0379 42.4061 32.0717C42.3288 32.1055 42.2454 32.123 42.1609 32.123C42.0766 32.123 41.9931 32.1055 41.9158 32.0717C41.8385 32.0379 41.769 31.9884 41.7117 31.9265L31.4646 21.3544C31.3778 21.2459 31.3304 21.1111 31.3304 20.9721C31.3304 20.8331 31.3778 20.6982 31.4646 20.5897L34.8484 16.25C34.9051 16.1711 34.9798 16.1067 35.0662 16.0624C35.1526 16.018 35.2484 15.9949 35.3455 15.9949C35.4427 15.9949 35.5384 16.018 35.6249 16.0624C35.7113 16.1067 35.7859 16.1711 35.8426 16.25L41.5779 22.5971C41.6353 22.6654 41.707 22.7203 41.7879 22.758C41.8688 22.7957 41.957 22.8153 42.0463 22.8153C42.1355 22.8153 42.2237 22.7957 42.3046 22.758C42.3855 22.7203 42.4572 22.6654 42.5146 22.5971L58.4969 0.688234C58.5415 0.623489 58.568 0.548015 58.5731 0.469662C58.5787 0.391307 58.5629 0.31293 58.5276 0.24268C58.4928 0.17243 58.4394 0.112871 58.3734 0.070193C58.3075 0.0275156 58.2314 0.003278 58.1529 0H1.87052C1.74376 0 1.6222 0.0503546 1.53256 0.139986C1.44293 0.229617 1.39258 0.351183 1.39258 0.47794V64.5222C1.39258 64.649 1.44293 64.7702 1.53256 64.8603C1.6222 64.9499 1.74376 65 1.87052 65H63.0469C63.1737 65 63.2953 64.9499 63.3849 64.8603C63.4745 64.7702 63.5252 64.649 63.5252 64.5222V9.67353C63.5628 9.56196 63.5553 9.4399 63.5033 9.33414C63.4513 9.22837 63.3594 9.14759 63.2475 9.10956C63.1361 9.07154 63.014 9.07938 62.9081 9.13134C62.8027 9.18334 62.7219 9.27522 62.6839 9.38674ZM18.7132 57.869C14.6971 58.0715 10.7604 56.7 7.73964 54.0456C7.64419 53.9375 7.59154 53.7982 7.59154 53.6538C7.59154 53.5094 7.64419 53.3701 7.73964 53.2619L10.1293 49.9163C10.1688 49.8476 10.2216 49.7877 10.2845 49.7399C10.3475 49.692 10.4195 49.6572 10.4961 49.6377C10.5727 49.6182 10.6524 49.614 10.7306 49.6256C10.8088 49.6377 10.8839 49.6646 10.9514 49.706C13.1345 51.7298 16.0039 52.8501 18.9808 52.8413C22.1161 52.8413 23.6455 51.3881 23.6455 49.8587C23.6455 45.1177 8.19845 48.3674 8.19845 38.2735C8.19845 33.8191 12.022 30.1103 18.369 30.1103C22.0115 29.9808 25.5774 31.1762 28.4058 33.475C28.5121 33.5854 28.5715 33.7328 28.5715 33.886C28.5715 34.0393 28.5121 34.1867 28.4058 34.2971L26.0543 37.5662C26.0058 37.6312 25.9444 37.6856 25.874 37.7259C25.8036 37.7662 25.7256 37.7916 25.6449 37.8006C25.5643 37.8096 25.4826 37.8019 25.4051 37.778C25.3275 37.7541 25.2557 37.7145 25.194 37.6618C23.1085 36.0041 20.5168 35.1133 17.8529 35.1383C15.4058 35.1383 14.0293 36.2279 14.0293 37.8338C14.0293 42.0971 29.4382 39.2485 29.4382 49.3044C29.4382 54.1603 25.9396 57.869 18.694 57.869H18.7132ZM52.3985 48.5587C52.4013 48.6297 52.3893 48.7008 52.3633 48.7667C52.3373 48.8331 52.2978 48.893 52.2477 48.9431C52.1975 48.9937 52.1371 49.0327 52.0712 49.0588C52.0048 49.0847 51.9343 49.0968 51.8632 49.094H37.7161C37.6935 49.0964 37.6715 49.1033 37.6515 49.1145C37.6315 49.1251 37.6139 49.14 37.5997 49.1576C37.5855 49.1757 37.5749 49.1962 37.5687 49.218C37.5624 49.2398 37.5605 49.2626 37.5632 49.2853C37.7926 50.6071 38.5084 51.7957 39.5698 52.6166C40.6312 53.437 41.9613 53.8311 43.2985 53.7206C45.0532 53.6835 46.757 53.1245 48.1926 52.1147C48.2488 52.0678 48.3138 52.0334 48.3843 52.0135C48.4549 51.9935 48.5283 51.9889 48.6007 52C48.6731 52.0107 48.7423 52.0367 48.8036 52.0761C48.8653 52.1161 48.9173 52.1681 48.9573 52.2294L50.6779 54.7337C50.7494 54.8451 50.7777 54.9789 50.7564 55.1093C50.735 55.2402 50.6663 55.3582 50.5632 55.4413C48.2919 57.0988 45.536 57.9591 42.7249 57.8881C41.3206 57.9665 39.9155 57.7506 38.5996 57.2543C37.2837 56.7575 36.086 55.9915 35.0834 55.0053C34.0808 54.0187 33.2955 52.8339 32.7776 51.5264C32.2598 50.2185 32.021 48.8173 32.0764 47.4119C32.0374 46.0401 32.277 44.6748 32.7805 43.3983C33.284 42.1219 34.0411 40.9607 35.0061 39.9851C35.971 39.0094 37.1237 38.2395 38.3945 37.7219C39.6654 37.2043 41.028 36.9497 42.3999 36.9735C48.3453 36.9735 52.3795 41.4279 52.3795 47.9473L52.3985 48.5587Z" fill="#01A71C"/>
</svg>
