<svg width="94" height="94" viewBox="0 0 94 94" fill="none" xmlns="http://www.w3.org/2000/svg">
<path d="M68.1345 14.1689C65.4145 17.28 62.9345 20.1222 60.5011 22.9067C59.1233 22.08 57.8433 21.1822 56.4589 20.5022C43.7233 14.2311 28.6522 22.3711 26.8878 36.4467C25.4922 47.5844 33.3522 57.8178 44.5011 59.3778C55.91 60.9733 66.3789 52.9556 67.8189 41.5C68.1233 39.0822 68.0033 36.6756 67.4145 34.3067C67.2811 33.7689 67.3678 33.3867 67.7433 32.9622C69.6367 30.8222 71.4945 28.6489 73.4922 26.34C75.2322 28.12 77.0922 29.7267 78.5767 31.6289C80.0589 33.5289 80.0656 35.8156 79.09 38.0333C78.6656 38.9978 78.2256 39.9667 77.6633 40.8533C75.9345 43.5756 75.7122 46.4956 76.2611 49.5844C76.4833 50.8311 76.6211 52.1311 76.5389 53.3889C76.3767 55.9244 75.0056 57.7467 72.7389 58.8489C71.3945 59.5022 70.01 60.0822 68.6189 60.6378C66.7745 61.3733 65.3256 62.5467 64.2767 64.2356C63.5589 65.3889 62.7967 66.5178 62.0478 67.6511C60.1611 70.5022 57.2878 71.5422 54.0145 70.5622C52.7656 70.1889 51.5078 69.8422 50.2722 69.4289C48.2745 68.76 46.3122 68.8156 44.3122 69.4622C42.6278 70.0067 40.9233 70.5778 39.1833 70.8422C36.6078 71.2333 34.5011 70.1844 32.9767 68.0844C32.0811 66.8511 31.2656 65.5556 30.4545 64.2622C29.4167 62.6067 28.0189 61.4067 26.2011 60.6778C25.0945 60.2333 24.0078 59.7422 22.9122 59.2711C19.1167 57.6378 17.7011 55.1645 18.2256 51.1C18.4211 49.5867 18.6011 48.0711 18.7722 46.5533C18.9167 45.2756 18.6367 44.0711 18.0633 42.9289C17.3167 41.4422 16.5589 39.96 15.8233 38.4667C14.3456 35.4689 14.8722 32.4867 17.2811 30.1844C18.2256 29.2822 19.1567 28.3667 20.1411 27.5111C21.7811 26.0867 22.75 24.3067 23.1767 22.1933C23.4233 20.9711 23.7322 19.76 24.0189 18.5467C24.7589 15.4022 26.9856 13.4267 30.1811 13.1356C32.0611 12.9644 33.9678 12.9911 35.8211 12.6844C36.9856 12.4911 38.1567 11.9822 39.1789 11.3711C40.5322 10.5644 41.7478 9.52889 43.0145 8.58C45.8256 6.47778 48.8589 6.47112 51.6945 8.57334C52.7433 9.35112 53.7967 10.12 54.8322 10.9133C56.4522 12.1556 58.2922 12.7422 60.3167 12.8489C61.8411 12.9289 63.3767 12.9667 64.8833 13.1911C65.9167 13.3467 66.91 13.7889 68.1345 14.1689Z" fill="url(#paint0_linear_772_945)"/>
<path d="M48.2329 40.9999C54.2218 34.1022 60.1374 27.2911 66.0507 20.4799C68.3796 17.7977 70.7018 15.1088 73.0418 12.4333C74.4085 10.8711 76.5418 10.6977 78.0018 12.0044C79.4774 13.3244 79.5151 15.4288 78.1507 16.9866C72.264 23.7111 66.4018 30.4577 60.5151 37.1822C57.3529 40.7955 54.184 44.4044 50.9618 47.9644C49.2996 49.8022 47.2729 49.7822 45.5196 48.0355C42.4529 44.9777 39.384 41.9222 36.3351 38.8444C35.0951 37.5933 34.9307 35.7866 35.8662 34.4288C36.7996 33.0711 38.5862 32.5311 40.0662 33.2288C40.5551 33.4599 41.004 33.8244 41.3929 34.2088C43.4507 36.2333 45.484 38.2844 47.5262 40.3244C47.7418 40.5377 47.964 40.7422 48.2329 40.9999Z" fill="url(#paint1_linear_772_945)"/>
<path d="M26.3232 63.4755C27.0166 64.271 27.6432 64.8977 28.161 65.6044C28.8299 66.5222 29.4455 67.4844 30.0277 68.4622C32.4255 72.4977 35.9366 74.1355 40.6432 73.3977C40.5499 73.6355 40.481 73.8533 40.3855 74.0577C38.5166 78.0822 36.6499 82.1066 34.7566 86.1199C34.5966 86.4599 34.2477 86.7088 33.9855 86.9999C33.7032 86.7244 33.3477 86.4955 33.1521 86.1688C31.7743 83.8555 30.4188 81.531 29.0899 79.1911C28.841 78.7533 28.5855 78.6422 28.101 78.731C25.4543 79.2199 22.8055 79.6888 20.1499 80.1266C19.7766 80.1888 19.3677 80.0466 18.9766 79.9977C19.0343 79.6111 19.0032 79.1844 19.161 78.8444C21.3766 74.0333 23.6188 69.2333 25.8543 64.4333C25.9655 64.1822 26.0921 63.9399 26.3232 63.4755Z" fill="url(#paint2_linear_772_945)"/>
<path d="M54.0527 73.3644C55.7483 73.6822 57.3683 73.6866 58.9705 73.1955C61.3038 72.4799 63.0594 71.0377 64.3616 68.9888C65.2394 67.6088 66.1638 66.2577 67.0838 64.9044C67.4261 64.4022 67.8127 63.9288 68.1772 63.4422C68.2794 63.5177 68.3794 63.5933 68.4816 63.6688C68.6416 63.9844 68.8105 64.2955 68.9594 64.6177C71.1727 69.3688 73.3861 74.1199 75.5794 78.8799C75.7283 79.2022 75.7061 79.5999 75.7661 79.9622C75.3794 80.0222 74.975 80.1888 74.6083 80.1288C71.955 79.6888 69.3038 79.2177 66.6594 78.7222C66.1327 78.6244 65.8661 78.7666 65.6061 79.2266C64.2638 81.591 62.895 83.9422 61.5038 86.2777C61.3283 86.5733 60.9838 86.9044 60.6816 86.9444C60.4905 86.971 60.1527 86.5266 60.0127 86.231C58.0861 82.1422 56.1838 78.0422 54.2772 73.9422C54.1994 73.7755 54.1438 73.5999 54.0527 73.3644Z" fill="url(#paint3_linear_772_945)"/>
<defs>
<linearGradient id="paint0_linear_772_945" x1="50.6766" y1="86.4585" x2="50.6766" y2="6.76019" gradientUnits="userSpaceOnUse">
<stop stop-color="#0D0D0D"/>
<stop offset="1" stop-color="#666666"/>
</linearGradient>
<linearGradient id="paint1_linear_772_945" x1="59.4364" y1="49.4952" x2="43.8842" y2="18.891" gradientUnits="userSpaceOnUse">
<stop stop-color="#0D0D0D"/>
<stop offset="1" stop-color="#666666"/>
</linearGradient>
<linearGradient id="paint2_linear_772_945" x1="30.9119" y1="87.0929" x2="20.1952" y2="70.1762" gradientUnits="userSpaceOnUse">
<stop stop-color="#0D0D0D"/>
<stop offset="1" stop-color="#22272B"/>
</linearGradient>
<linearGradient id="paint3_linear_772_945" x1="66.0137" y1="87.0384" x2="55.3207" y2="70.1074" gradientUnits="userSpaceOnUse">
<stop stop-color="#0D0D0D"/>
<stop offset="1" stop-color="#22272B"/>
</linearGradient>
</defs>
</svg>
