<svg width="78" height="80" viewBox="0 0 78 80" fill="none" xmlns="http://www.w3.org/2000/svg">
<path d="M5.98546 65.4825C5.98546 64.9845 5.98546 64.6077 5.98546 64.2284C5.98546 58.8431 5.9906 53.4553 5.97776 48.07C5.97776 47.523 6.04195 47.1204 6.594 46.8031C14.4049 42.2977 22.2003 37.7665 29.9983 33.2431C30.1293 33.1657 30.2731 33.1064 30.5273 32.9773C30.5273 43.8382 30.5273 54.5881 30.5273 65.4102C31.3387 65.4102 32.055 65.4102 32.9306 65.4102C32.9306 54.6268 32.9306 43.8537 32.9306 32.9025C34.7537 33.9553 36.3893 34.8971 38.0197 35.8416C49.0941 42.259 60.1659 48.6842 71.2505 55.0861C71.8591 55.437 72.0722 55.837 72.0619 56.5389C72.0209 59.1192 72.044 61.6996 72.044 64.28C72.044 64.631 72.044 64.9793 72.044 65.4825C73.3381 65.4825 74.5423 65.4799 75.7491 65.4851C76.1651 65.4876 76.5862 65.4722 76.9996 65.5238C77.6826 65.6115 78.1037 66.1172 77.9778 66.7185C77.888 67.1468 77.3693 67.4978 77.0098 67.8461C76.92 67.9338 76.6914 67.9235 76.5425 67.89C74.9583 67.5365 74.2701 68.3622 73.8156 69.7659C73.4639 70.8497 73.1095 72.2302 72.2905 72.7798C71.5047 73.3062 70.1233 72.9501 69.0013 72.9527C66.467 72.963 63.9301 72.9862 61.3958 72.9372C60.5639 72.9217 59.8835 73.0688 59.3879 73.7707C58.5098 75.017 57.3286 75.2983 55.8291 75.2879C46.5213 75.2183 37.2135 75.2647 27.9082 75.2286C27.2894 75.226 26.5987 74.9835 26.0647 74.6506C24.7064 73.8016 23.5304 72.4779 22.0694 72.0212C20.575 71.5541 18.829 71.8844 17.1934 71.8818C14.4331 71.8741 11.6729 71.8638 8.91261 71.8922C8.31948 71.8973 7.97798 71.7606 7.78283 71.149C7.50809 70.2949 7.09213 69.4847 6.80712 68.6331C6.60684 68.0345 6.26534 67.8668 5.66707 67.8848C4.28823 67.9235 2.90683 67.9106 1.52799 67.8926C0.534297 67.8797 -0.0126173 67.4229 0.000221014 66.6746C0.0130594 65.9263 0.557406 65.4954 1.55623 65.4876C2.99413 65.4722 4.43202 65.4825 5.98546 65.4825ZM8.43502 65.4231C15.0314 65.4231 21.5199 65.4231 28.07 65.4231C28.07 60.9074 28.07 56.4253 28.07 51.8297C26.288 52.3431 24.6062 52.8283 22.9218 53.3134C18.377 54.6268 13.8323 55.9325 9.29262 57.2639C8.9768 57.3568 8.47611 57.6458 8.47097 57.8549C8.41448 60.3578 8.43502 62.8608 8.43502 65.4231ZM8.42989 54.97C15.1135 53.027 21.6123 51.1381 28.0751 49.2596C28.0751 45.2213 28.0751 41.2785 28.0751 37.3227C27.9442 37.3434 27.8749 37.3356 27.8261 37.364C21.5045 41.023 15.1829 44.682 8.87409 48.359C8.66868 48.4803 8.453 48.7951 8.45043 49.0222C8.41705 50.9497 8.42989 52.8773 8.42989 54.97ZM49.8413 65.4128C52.1471 65.4128 54.3681 65.4128 56.5635 65.4128C56.6174 65.2889 56.6636 65.2296 56.6636 65.1728C56.6739 61.1165 56.6867 57.0575 56.6764 53.0011C56.6764 52.7844 56.5429 52.4541 56.3735 52.3715C54.2346 51.3058 52.0803 50.2737 49.8413 49.1899C49.8413 54.6655 49.8413 59.9992 49.8413 65.4128ZM65.9817 65.4309C65.9817 62.6879 65.9971 59.994 65.9534 57.3001C65.9509 57.0885 65.5914 56.8124 65.3372 56.6834C64.1407 56.0744 62.9236 55.5041 61.7116 54.9235C60.8951 54.5313 60.0735 54.1443 59.2005 53.7288C59.2005 57.7284 59.2005 61.5706 59.2005 65.4309C61.478 65.4309 63.6759 65.4309 65.9817 65.4309Z" fill="url(#paint0_linear_268_871)"/>
<path d="M63.6297 47.9333C59.5368 45.5619 55.5698 43.2679 51.6207 40.9482C51.3999 40.8191 51.1791 40.4631 51.1791 40.2153C51.1585 29.7415 51.1636 19.2677 51.1713 8.79138C51.1713 8.73719 51.2176 8.683 51.2818 8.53334C51.7825 8.8146 52.2754 9.08812 52.7659 9.37196C56.1809 11.346 59.5984 13.3096 62.9955 15.3146C63.3139 15.503 63.6733 15.9597 63.6733 16.2951C63.7093 26.6735 63.7016 37.0492 63.699 47.4275C63.6965 47.5488 63.6656 47.6701 63.6297 47.9333Z" fill="url(#paint1_linear_268_871)"/>
<path d="M34.9745 0V31.2949C34.0886 30.7866 33.2695 30.3712 32.5095 29.8628C31.9754 29.5093 31.5774 29.548 31.0357 29.868C26.9993 32.2445 22.9424 34.5849 18.8931 36.9357C18.5953 37.1085 18.2897 37.2711 17.8353 37.5214V10.7525C17.8353 10.2777 17.7942 9.87256 18.3565 9.55259C23.7538 6.45355 29.1279 3.3158 34.5097 0.188368C34.6176 0.129019 34.7383 0.0954743 34.9745 0Z" fill="url(#paint2_linear_268_871)"/>
<path d="M37.4908 0.565105C37.8015 0.717348 38.0608 0.825724 38.2996 0.965065C41.5734 2.86165 44.8523 4.74791 48.1004 6.68836C48.4291 6.88447 48.7654 7.40571 48.7654 7.77729C48.8014 18.0601 48.7937 28.343 48.7911 38.6258C48.7911 38.7806 48.7706 38.938 48.7526 39.2219C48.4419 39.0748 48.1903 38.9742 47.9592 38.84C44.6828 36.9486 41.4091 35.0468 38.1301 33.1631C37.6834 32.9077 37.4112 32.6548 37.4112 32.0587C37.4317 21.7423 37.4266 11.4285 37.4292 1.11215C37.4317 0.959904 37.4626 0.805081 37.4908 0.565105Z" fill="url(#paint3_linear_268_871)"/>
<path d="M13.4959 74.2352C16.0918 74.2352 18.5593 74.2223 21.0269 74.2532C21.3119 74.2558 21.6226 74.4519 21.8768 74.6274C23.117 75.4866 24.3289 76.3898 25.5845 77.2232C25.9337 77.4555 26.4036 77.6129 26.8196 77.6129C37.2777 77.6335 47.7384 77.6361 58.1965 77.6026C58.6381 77.6 59.2621 77.3445 59.4906 76.9987C60.7436 75.1047 62.5564 75.2363 64.4462 75.4324C64.4462 76.3872 64.5258 77.3239 64.4231 78.2373C64.3153 79.1947 63.5193 79.8346 62.4948 79.9714C62.179 80.0126 61.8554 79.9972 61.5345 79.9972C46.5187 79.9972 31.5056 79.9972 16.4898 79.9972C14.2457 79.9972 13.5062 79.2488 13.4985 76.9781C13.4959 76.0827 13.4959 75.1873 13.4959 74.2352Z" fill="url(#paint4_linear_268_871)"/>
<path d="M8.27583 43.095C8.25529 42.6873 8.23218 42.4422 8.23218 42.1945C8.22961 36.6157 8.24245 31.0369 8.21677 25.4607C8.2142 24.8311 8.39394 24.475 8.95112 24.1705C10.4994 23.3293 12.0118 22.4158 13.5447 21.5411C14.4023 21.0508 15.455 21.6572 15.4576 22.6532C15.4653 27.845 15.4653 33.0367 15.4499 38.2259C15.4499 38.5149 15.36 38.9484 15.1649 39.0671C12.9182 40.4192 10.6484 41.7197 8.27583 43.095ZM10.7998 32.8612C10.8024 32.8612 10.805 32.8612 10.8076 32.8612C10.8076 34.9539 10.7973 37.0466 10.8127 39.1393C10.8178 39.8773 11.1619 40.3856 11.963 40.4011C12.759 40.4166 13.0953 39.916 13.1904 39.1935C13.2109 39.0361 13.2006 38.8709 13.2006 38.711C13.2006 34.8146 13.2032 30.9182 13.1981 27.0218C13.1955 25.951 12.7744 25.3729 12.0144 25.3549C11.2261 25.3342 10.8101 25.871 10.805 26.9702C10.7921 28.9313 10.7998 30.8976 10.7998 32.8612Z" fill="url(#paint5_linear_268_871)"/>
<defs>
<linearGradient id="paint0_linear_268_871" x1="35.188" y1="79.9997" x2="35.188" y2="-1.70212" gradientUnits="userSpaceOnUse">
<stop/>
<stop offset="1" stop-color="#666666"/>
</linearGradient>
<linearGradient id="paint1_linear_268_871" x1="35.188" y1="79.9997" x2="35.188" y2="-1.70212" gradientUnits="userSpaceOnUse">
<stop/>
<stop offset="1" stop-color="#666666"/>
</linearGradient>
<linearGradient id="paint2_linear_268_871" x1="35.188" y1="79.9997" x2="35.188" y2="-1.70212" gradientUnits="userSpaceOnUse">
<stop/>
<stop offset="1" stop-color="#666666"/>
</linearGradient>
<linearGradient id="paint3_linear_268_871" x1="35.188" y1="79.9997" x2="35.188" y2="-1.70212" gradientUnits="userSpaceOnUse">
<stop/>
<stop offset="1" stop-color="#666666"/>
</linearGradient>
<linearGradient id="paint4_linear_268_871" x1="35.188" y1="79.9997" x2="35.188" y2="-1.70212" gradientUnits="userSpaceOnUse">
<stop/>
<stop offset="1" stop-color="#666666"/>
</linearGradient>
<linearGradient id="paint5_linear_268_871" x1="35.188" y1="79.9997" x2="35.188" y2="-1.70212" gradientUnits="userSpaceOnUse">
<stop/>
<stop offset="1" stop-color="#666666"/>
</linearGradient>
</defs>
</svg>
