<svg width="94" height="94" viewBox="0 0 94 94" fill="none" xmlns="http://www.w3.org/2000/svg">
<path d="M66.0881 48.2487H28.8084C28.7395 41.0207 34.9423 31.373 46.0473 30.5838C57.7703 29.7508 65.8418 39.1939 66.0881 48.2487Z" fill="url(#paint0_linear_772_968)"/>
<path d="M61.7753 54.7146C61.7043 60.2848 61.0654 65.7215 59.6102 71.1247C51.4094 69.801 43.2377 69.776 34.9805 71.1351C33.5107 65.7611 32.8843 60.3057 32.8071 54.7146C42.459 54.7146 52.0691 54.7146 61.7753 54.7146Z" fill="url(#paint1_linear_772_968)"/>
<path d="M47.4163 26.5502C42.0172 26.5418 37.5953 22.1032 37.6349 16.7271C37.6746 11.3489 42.0632 6.99166 47.4309 7.00001C52.8529 7.00836 57.2143 11.3948 57.1914 16.821C57.1684 22.2034 52.7945 26.5585 47.4163 26.5502Z" fill="url(#paint2_linear_772_968)"/>
<path d="M14 54.7C19.6391 54.7 25.2031 54.7 30.8506 54.7C30.9822 60.3496 31.5835 65.924 33.0199 71.2729C29.2514 72.4797 25.5309 73.6718 21.6372 74.9182C16.9146 69.1935 14.2986 62.429 14 54.7Z" fill="url(#paint3_linear_772_968)"/>
<path d="M61.5279 71.4441C62.9852 65.9616 63.6053 60.383 63.7306 54.7021C69.3593 54.7021 74.9274 54.7021 80.552 54.7021C80.5228 57.1928 80.1574 59.6 79.5457 61.9739C78.3368 66.6631 76.1947 70.8825 73.157 74.6531C72.8918 74.9809 72.6956 75.1082 72.2572 74.9036C68.9334 73.3586 65.4426 72.321 61.862 71.5715C61.768 71.5506 61.6783 71.5005 61.5279 71.4441Z" fill="url(#paint4_linear_772_968)"/>
<path d="M35.5728 72.9954C43.3854 71.7239 51.1833 71.7239 59.0793 73.0058C57.6179 77.315 55.9393 81.4217 52.6239 84.5993C50.6112 86.5285 48.252 87.5369 45.4168 86.708C43.7173 86.209 42.377 85.1297 41.1973 83.8457C38.9279 81.3653 36.3453 76.3839 35.5728 72.9954Z" fill="url(#paint5_linear_772_968)"/>
<path d="M28.3641 15.8105C32.642 15.8251 36.0493 19.2721 36.0263 23.5584C36.0033 27.7778 32.5439 31.1976 28.3119 31.1851C24.0507 31.1726 20.6288 27.7068 20.6559 23.4268C20.681 19.1865 24.1154 15.7938 28.3641 15.8105Z" fill="url(#paint6_linear_772_968)"/>
<path d="M58.8314 23.4769C58.8397 19.1948 62.2825 15.7855 66.5688 15.8105C70.8007 15.8356 74.2226 19.2784 74.2164 23.5062C74.208 27.7527 70.7172 31.2101 66.4623 31.1851C62.2345 31.16 58.8209 27.7152 58.8314 23.4769Z" fill="url(#paint7_linear_772_968)"/>
<path d="M14.3042 48.232C14.9222 39.5927 23.3194 33.4169 31.8376 35.6676C28.7622 39.2983 27.0565 43.4613 26.7621 48.232C22.6074 48.232 18.4798 48.232 14.3042 48.232Z" fill="url(#paint8_linear_772_968)"/>
<path d="M80.4706 48.2403C76.3639 48.2403 72.2572 48.2403 68.0878 48.2403C67.7955 43.4927 66.1065 39.3171 63.0228 35.6926C71.9064 33.2395 80.2493 40.2608 80.4706 48.2403Z" fill="url(#paint9_linear_772_968)"/>
<path d="M53.7935 86.28C57.4409 82.689 59.3888 78.1752 60.9881 73.3754C64.5728 74.0581 68.0156 75.0811 71.4208 76.6302C66.4957 81.7098 60.6728 84.9376 53.7935 86.28Z" fill="url(#paint10_linear_772_968)"/>
<path d="M40.7825 86.2738C33.9241 84.9418 28.1138 81.714 23.1657 76.6448C26.5354 75.079 29.9907 74.0768 33.5922 73.3712C35.1935 78.1543 37.131 82.6765 40.7825 86.2738Z" fill="url(#paint11_linear_772_968)"/>
<defs>
<linearGradient id="paint0_linear_772_968" x1="46.8887" y1="87.9102" x2="9.25844" y2="33.3764" gradientUnits="userSpaceOnUse">
<stop stop-color="#0D0D0D"/>
<stop offset="1" stop-color="#666666"/>
</linearGradient>
<linearGradient id="paint1_linear_772_968" x1="46.8887" y1="87.9102" x2="9.25844" y2="33.3764" gradientUnits="userSpaceOnUse">
<stop stop-color="#0D0D0D"/>
<stop offset="1" stop-color="#666666"/>
</linearGradient>
<linearGradient id="paint2_linear_772_968" x1="46.8887" y1="87.9102" x2="9.25844" y2="33.3764" gradientUnits="userSpaceOnUse">
<stop stop-color="#0D0D0D"/>
<stop offset="1" stop-color="#666666"/>
</linearGradient>
<linearGradient id="paint3_linear_772_968" x1="46.8887" y1="87.9102" x2="9.25844" y2="33.3764" gradientUnits="userSpaceOnUse">
<stop stop-color="#0D0D0D"/>
<stop offset="1" stop-color="#666666"/>
</linearGradient>
<linearGradient id="paint4_linear_772_968" x1="46.8887" y1="87.9102" x2="9.25844" y2="33.3764" gradientUnits="userSpaceOnUse">
<stop stop-color="#0D0D0D"/>
<stop offset="1" stop-color="#666666"/>
</linearGradient>
<linearGradient id="paint5_linear_772_968" x1="46.8887" y1="87.9102" x2="9.25844" y2="33.3764" gradientUnits="userSpaceOnUse">
<stop stop-color="#0D0D0D"/>
<stop offset="1" stop-color="#666666"/>
</linearGradient>
<linearGradient id="paint6_linear_772_968" x1="46.8887" y1="87.9102" x2="9.25844" y2="33.3764" gradientUnits="userSpaceOnUse">
<stop stop-color="#0D0D0D"/>
<stop offset="1" stop-color="#666666"/>
</linearGradient>
<linearGradient id="paint7_linear_772_968" x1="46.8887" y1="87.9102" x2="9.25844" y2="33.3764" gradientUnits="userSpaceOnUse">
<stop stop-color="#0D0D0D"/>
<stop offset="1" stop-color="#666666"/>
</linearGradient>
<linearGradient id="paint8_linear_772_968" x1="46.8887" y1="87.9102" x2="9.25844" y2="33.3764" gradientUnits="userSpaceOnUse">
<stop stop-color="#0D0D0D"/>
<stop offset="1" stop-color="#666666"/>
</linearGradient>
<linearGradient id="paint9_linear_772_968" x1="46.8887" y1="87.9102" x2="9.25844" y2="33.3764" gradientUnits="userSpaceOnUse">
<stop stop-color="#0D0D0D"/>
<stop offset="1" stop-color="#666666"/>
</linearGradient>
<linearGradient id="paint10_linear_772_968" x1="46.8887" y1="87.9102" x2="9.25844" y2="33.3764" gradientUnits="userSpaceOnUse">
<stop stop-color="#0D0D0D"/>
<stop offset="1" stop-color="#666666"/>
</linearGradient>
<linearGradient id="paint11_linear_772_968" x1="46.8887" y1="87.9102" x2="9.25844" y2="33.3764" gradientUnits="userSpaceOnUse">
<stop stop-color="#0D0D0D"/>
<stop offset="1" stop-color="#666666"/>
</linearGradient>
</defs>
</svg>
