<svg width="80" height="80" viewBox="0 0 80 80" fill="none" xmlns="http://www.w3.org/2000/svg">
<path d="M39.9964 57.8361C37.4379 57.8361 34.8793 57.8396 32.3207 57.8361C30.3027 57.8326 28.8181 56.3586 28.8111 54.3405C28.804 51.7644 28.7409 49.1883 28.8251 46.6157C28.969 42.1444 31.0327 38.8067 34.9565 36.6272C35.2654 36.4552 35.49 36.4587 35.8094 36.6342C38.6136 38.1995 41.4354 38.189 44.2291 36.6096C44.5485 36.4306 44.7801 36.4271 45.0854 36.5956C49.0619 38.7681 51.1432 42.1198 51.2555 46.6473C51.3186 49.1883 51.2765 51.7328 51.2625 54.2738C51.252 56.3972 49.7919 57.8361 47.6721 57.8361C45.1135 57.8361 42.555 57.8361 39.9964 57.8361Z" fill="url(#paint0_linear_268_864)"/>
<path d="M47.3176 29.492C47.3106 33.5036 44.0045 36.8027 39.9964 36.7991C35.9638 36.7956 32.6647 33.479 32.6787 29.4358C32.6928 25.4208 35.9849 22.1638 40.0245 22.1673C44.0466 22.1743 47.3246 25.4664 47.3176 29.492Z" fill="url(#paint1_linear_268_864)"/>
<path d="M27.8143 54.716C27.5967 54.716 27.4177 54.716 27.2422 54.716C24.9504 54.716 22.6551 54.7195 20.3633 54.716C18.6154 54.7125 17.6327 53.7368 17.6433 51.9855C17.6538 49.8586 17.559 47.7213 17.738 45.6049C17.9907 42.6322 19.5982 40.4562 22.2199 39.0453C22.3533 38.9751 22.5989 39.0102 22.7463 39.0874C24.8592 40.2141 26.9755 40.2386 29.0673 39.0699C29.5972 38.7751 29.8429 39.1857 30.2535 39.3401C30.1377 39.5156 30.043 39.663 29.9482 39.8069C28.5513 41.8917 27.8424 44.1905 27.8248 46.6929C27.8073 49.1672 27.8213 51.6416 27.8213 54.1159C27.8143 54.2949 27.8143 54.4739 27.8143 54.716Z" fill="url(#paint2_linear_268_864)"/>
<path d="M52.2627 54.6634C52.2627 54.4739 52.2627 54.2984 52.2627 54.1194C52.2627 52.0557 52.2276 49.992 52.2698 47.9318C52.3435 44.3485 51.7082 41.9794 49.8621 39.3191C50.2447 38.9892 50.5746 38.8699 51.1116 39.1576C53.098 40.2176 55.1266 40.2 57.1131 39.1331C57.4606 38.9471 57.7027 38.9716 58.0046 39.1506C60.8264 40.8107 62.2724 43.2885 62.3496 46.5455C62.3917 48.4091 62.3671 50.2763 62.3531 52.1399C62.3425 53.6456 61.3774 54.688 59.9209 54.709C57.4781 54.7406 55.0354 54.7195 52.5927 54.716C52.5014 54.7125 52.4031 54.6845 52.2627 54.6634Z" fill="url(#paint3_linear_268_864)"/>
<path d="M10.3221 36.1814C9.22003 36.1814 8.13905 36.1814 6.95278 36.1814C7.85828 28.8918 10.7467 22.5639 15.7621 17.2397C21.3074 11.3575 28.1302 7.97768 36.213 6.94583C36.213 7.20555 36.213 7.36699 36.213 7.52844C36.213 8.44797 36.213 9.37102 36.213 10.3186C29.4568 11.2662 23.6553 14.081 18.8576 18.8822C14.0739 23.6729 11.2662 29.4604 10.3221 36.1814Z" fill="url(#paint4_linear_268_864)"/>
<path d="M73.0506 36.1849C71.8643 36.1849 70.7833 36.1849 69.6743 36.1849C68.7302 29.4639 65.9224 23.6729 61.1352 18.8822C56.348 14.0915 50.557 11.2768 43.822 10.3257C43.822 9.22712 43.822 8.1321 43.822 6.95636C51.1256 7.86888 57.4606 10.7644 62.7848 15.7937C68.6424 21.3215 72.0117 28.1267 73.0506 36.1849Z" fill="url(#paint5_linear_268_864)"/>
<path d="M6.96682 43.822C8.14256 43.822 9.22354 43.822 10.3221 43.822C11.2697 50.543 14.0774 56.334 18.8611 61.1212C23.6483 65.9119 29.4358 68.7267 36.1744 69.6778C36.1744 70.7693 36.1744 71.8643 36.1744 73.0295C32.3383 72.6084 28.7163 71.5379 25.2838 69.8287C19.3314 66.87 14.6671 62.5145 11.2907 56.7938C8.93224 52.8033 7.49678 48.4899 6.96682 43.822Z" fill="url(#paint6_linear_268_864)"/>
<path d="M43.822 73.0541C43.822 71.8538 43.822 70.7693 43.822 69.6953C57.436 67.958 68.1686 56.7867 69.6988 43.822C70.7763 43.822 71.8573 43.822 73.0436 43.822C72.1767 50.8624 69.4426 57.0254 64.701 62.2583C59.1066 68.4319 52.1329 71.9836 43.822 73.0541Z" fill="url(#paint7_linear_268_864)"/>
<path d="M20.5633 33.5562C20.5668 30.566 22.9534 28.2004 25.9577 28.211C28.8953 28.2215 31.2854 30.6397 31.2749 33.5983C31.2643 36.5429 28.8567 38.9225 25.891 38.9155C22.9218 38.9085 20.5598 36.5324 20.5633 33.5562Z" fill="url(#paint8_linear_268_864)"/>
<path d="M59.433 33.6018C59.4155 36.5921 57.0289 38.9365 54.0141 38.9155C51.0765 38.8979 48.7039 36.4727 48.725 33.5071C48.7425 30.5484 51.1747 28.1899 54.186 28.2145C57.0956 28.2355 59.4506 30.6502 59.433 33.6018Z" fill="url(#paint9_linear_268_864)"/>
<path d="M41.6776 8.44797C41.6776 10.6099 41.6776 12.7719 41.6776 14.9339C41.6776 16.092 41.0177 16.8256 39.9859 16.8221C38.9821 16.8186 38.3188 16.0815 38.3188 14.9584C38.3188 10.5994 38.3188 6.2439 38.3188 1.88488C38.3188 0.786349 39.0032 0.0107109 39.9789 0.000181851C40.9581 -0.0138569 41.674 0.786349 41.674 1.90945C41.6776 4.08895 41.6776 6.26846 41.6776 8.44797Z" fill="url(#paint10_linear_268_864)"/>
<path d="M8.39526 41.6811C6.2333 41.6811 4.07133 41.6811 1.90937 41.6811C0.779253 41.6811 -0.010425 40.9827 0.000104036 39.9929C0.0106331 39.0243 0.796801 38.3259 1.88831 38.3223C6.26137 38.3223 10.6344 38.3223 15.011 38.3223C16.0885 38.3223 16.8185 38.9997 16.8255 39.9894C16.829 41.0037 16.099 41.6776 14.9864 41.6776C12.7859 41.6811 10.5888 41.6811 8.39526 41.6811Z" fill="url(#paint11_linear_268_864)"/>
<path d="M71.5519 41.6811C69.39 41.6811 67.228 41.6811 65.0661 41.6811C63.9079 41.6811 63.1743 41.0213 63.1778 39.9894C63.1814 38.9857 63.9184 38.3223 65.0415 38.3223C69.4321 38.3223 73.8227 38.3188 78.2133 38.3223C79.0135 38.3223 79.6698 38.7751 79.905 39.456C80.1296 40.1158 79.9576 40.8809 79.3715 41.2705C79.0381 41.4951 78.5889 41.653 78.1887 41.6565C75.9776 41.6986 73.7666 41.6811 71.5519 41.6811Z" fill="url(#paint12_linear_268_864)"/>
<path d="M41.6776 71.6081C41.6776 73.8192 41.6811 76.0303 41.674 78.2414C41.6705 79.0135 41.2213 79.6628 40.5615 79.898C39.9017 80.1331 39.1471 79.9611 38.7364 79.3891C38.5188 79.0837 38.3398 78.6731 38.3363 78.3081C38.3083 73.8192 38.3153 69.3303 38.3223 64.8415C38.3258 63.8868 39.0558 63.1849 39.9894 63.1814C40.944 63.1779 41.667 63.8903 41.674 64.873C41.6846 67.1192 41.6776 69.3654 41.6776 71.6081Z" fill="url(#paint13_linear_268_864)"/>
<defs>
<linearGradient id="paint0_linear_268_864" x1="40" y1="80" x2="40" y2="0" gradientUnits="userSpaceOnUse">
<stop/>
<stop offset="1" stop-color="#666666"/>
</linearGradient>
<linearGradient id="paint1_linear_268_864" x1="40" y1="80" x2="40" y2="0" gradientUnits="userSpaceOnUse">
<stop/>
<stop offset="1" stop-color="#666666"/>
</linearGradient>
<linearGradient id="paint2_linear_268_864" x1="40" y1="80" x2="40" y2="0" gradientUnits="userSpaceOnUse">
<stop/>
<stop offset="1" stop-color="#666666"/>
</linearGradient>
<linearGradient id="paint3_linear_268_864" x1="40" y1="80" x2="40" y2="0" gradientUnits="userSpaceOnUse">
<stop/>
<stop offset="1" stop-color="#666666"/>
</linearGradient>
<linearGradient id="paint4_linear_268_864" x1="40" y1="80" x2="40" y2="0" gradientUnits="userSpaceOnUse">
<stop/>
<stop offset="1" stop-color="#666666"/>
</linearGradient>
<linearGradient id="paint5_linear_268_864" x1="40" y1="80" x2="40" y2="0" gradientUnits="userSpaceOnUse">
<stop/>
<stop offset="1" stop-color="#666666"/>
</linearGradient>
<linearGradient id="paint6_linear_268_864" x1="40" y1="80" x2="40" y2="0" gradientUnits="userSpaceOnUse">
<stop/>
<stop offset="1" stop-color="#666666"/>
</linearGradient>
<linearGradient id="paint7_linear_268_864" x1="40" y1="80" x2="40" y2="0" gradientUnits="userSpaceOnUse">
<stop/>
<stop offset="1" stop-color="#666666"/>
</linearGradient>
<linearGradient id="paint8_linear_268_864" x1="40" y1="80" x2="40" y2="0" gradientUnits="userSpaceOnUse">
<stop/>
<stop offset="1" stop-color="#666666"/>
</linearGradient>
<linearGradient id="paint9_linear_268_864" x1="40" y1="80" x2="40" y2="0" gradientUnits="userSpaceOnUse">
<stop/>
<stop offset="1" stop-color="#666666"/>
</linearGradient>
<linearGradient id="paint10_linear_268_864" x1="40" y1="80" x2="40" y2="0" gradientUnits="userSpaceOnUse">
<stop/>
<stop offset="1" stop-color="#666666"/>
</linearGradient>
<linearGradient id="paint11_linear_268_864" x1="40" y1="80" x2="40" y2="0" gradientUnits="userSpaceOnUse">
<stop/>
<stop offset="1" stop-color="#666666"/>
</linearGradient>
<linearGradient id="paint12_linear_268_864" x1="40" y1="80" x2="40" y2="0" gradientUnits="userSpaceOnUse">
<stop/>
<stop offset="1" stop-color="#666666"/>
</linearGradient>
<linearGradient id="paint13_linear_268_864" x1="40" y1="80" x2="40" y2="0" gradientUnits="userSpaceOnUse">
<stop/>
<stop offset="1" stop-color="#666666"/>
</linearGradient>
</defs>
</svg>
