<svg width="66" height="66" viewBox="0 0 66 66" fill="none" xmlns="http://www.w3.org/2000/svg">
<g clip-path="url(#clip0_862_2686)">
<path d="M23.4717 45.2329C20.0644 42.0354 18.0201 37.6321 18.0201 32.5999C18.0201 27.5676 20.012 23.1644 23.262 19.9668C26.0927 17.1361 26.0927 12.7329 23.262 9.90229C20.4313 7.07163 16.0281 7.07163 13.1975 9.90229C7.5886 15.7209 3.97168 23.741 3.97168 32.5999C3.97168 41.4587 7.58859 49.4789 13.4072 55.2973C16.2378 58.1281 20.641 58.1281 23.4717 55.2973C26.0402 52.467 26.0402 48.0637 23.4717 45.2329Z" fill="#FFD85F"/>
<path d="M23.4717 19.9661C26.6693 16.5589 31.1249 14.5669 36.1048 14.5669C41.0846 14.5669 45.5402 16.5589 48.7378 19.8089C51.5686 22.6395 55.9719 22.6395 58.8021 19.8089C61.6329 16.9783 61.6329 12.575 58.8021 9.74437C52.9837 4.13549 44.9636 0.518555 36.1048 0.518555C27.2459 0.518555 19.2257 4.13549 13.4072 9.95404C10.5765 12.7847 10.5765 17.1879 13.4072 20.0185C16.2378 22.5347 20.641 22.5347 23.4717 19.9661Z" fill="#3BB4E7"/>
<path d="M48.7378 45.2323C45.5402 48.6395 41.0846 50.6313 36.1048 50.6313C31.1249 50.6313 26.6693 48.6395 23.4717 45.3896C20.641 42.5589 16.2378 42.5589 13.4072 45.3896C10.5765 48.2203 10.5765 52.6235 13.4072 55.4543C19.2257 61.0629 27.2459 64.6801 36.1048 64.6801C44.9636 64.6801 52.9837 61.0629 58.8021 55.2444C61.6329 52.4137 61.6329 48.0104 58.8021 45.1799C55.9719 42.6638 51.5686 42.6638 48.7378 45.2323Z" fill="#ED5C68"/>
<path d="M18.4393 21.9585C22.3186 21.9585 25.4634 18.8137 25.4634 14.9343C25.4634 11.0549 22.3186 7.91016 18.4393 7.91016C14.5599 7.91016 11.415 11.0549 11.415 14.9343C11.415 18.8137 14.5599 21.9585 18.4393 21.9585Z" fill="#308BC5"/>
<path d="M18.4393 57.2889C22.3186 57.2889 25.4634 54.1438 25.4634 50.2642C25.4634 46.3851 22.3186 43.2402 18.4393 43.2402C14.5599 43.2402 11.415 46.3851 11.415 50.2642C11.415 54.1438 14.5599 57.2889 18.4393 57.2889Z" fill="#D5465F"/>
</g>
<defs>
<clipPath id="clip0_862_2686">
<rect width="65" height="65" fill="white" transform="translate(0.0996094 0.0996094)"/>
</clipPath>
</defs>
</svg>
