<svg width="66" height="66" viewBox="0 0 66 66" fill="none" xmlns="http://www.w3.org/2000/svg">
<g clip-path="url(#clip0_862_2661)">
<path fill-rule="evenodd" clip-rule="evenodd" d="M52.082 37.6847C51.7741 37.6152 51.5257 37.5358 51.2876 37.4365C51.1288 37.3571 50.99 37.2777 50.8706 37.1685C50.7903 37.1 50.7495 36.9957 50.7615 36.8905C50.8809 35.6297 50.7518 34.5079 50.8609 33.2669C51.367 28.184 54.5636 29.7923 57.4329 28.9682C59.0709 28.5016 60.7191 27.5883 61.3245 25.7914C61.4239 25.4936 61.3342 25.1759 61.1258 24.9476C59.2765 22.837 57.1905 20.9448 54.9113 19.3087C47.2144 13.9518 37.7712 11.6952 28.484 12.9947C28.2507 13.0225 28.073 13.2231 28.073 13.4584C28.073 13.5467 28.0988 13.6341 28.1465 13.7095C29.2663 15.4538 30.7624 16.9261 32.5245 18.0181C32.8422 18.2166 32.7131 18.6436 32.3458 18.5542C31.2846 18.3209 30.2799 17.8821 29.3874 17.2636C29.2871 17.1981 29.16 17.1862 29.0499 17.2338L27.3721 17.9089C27.2003 17.9784 27.0882 18.1462 27.0882 18.3318C27.0882 18.4678 27.1487 18.5969 27.2529 18.6833C31.8018 22.6255 38.4175 23.1854 43.564 20.0632C43.8817 19.8646 44.388 20.2617 44.2887 20.6191C44.1199 21.185 43.9313 21.9693 43.7328 23.0316C42.4422 29.5143 38.7491 29.0179 34.1725 27.3798C25.0391 24.064 19.847 26.8934 15.2406 21.2942C14.9129 20.8971 14.3471 20.7681 13.9698 21.0957C13.0039 21.9177 12.4469 23.1239 12.4469 24.3926C12.4469 25.852 13.1845 27.217 14.4066 28.0152C14.5556 28.1145 14.7442 28.0748 14.8534 27.9457C15.1413 27.5784 15.3696 27.3501 15.6674 27.1912C15.9752 27.0324 16.134 27.489 15.866 27.7174C14.8832 28.5811 14.6052 29.6136 13.9698 31.6586C12.9572 34.8454 13.3841 38.1116 8.68834 38.9653C6.20645 39.0944 6.24615 40.7821 5.34274 43.2938C4.29041 46.3317 2.9204 47.6619 0.378935 50.3227C0.0215412 50.6798 -0.0082418 51.2657 0.378935 51.5935C1.39155 52.4571 2.44388 52.5067 3.50613 52.0699C6.14688 50.9579 8.18203 47.5426 10.098 45.3289C12.2325 42.8669 17.3551 43.9192 21.2269 41.5068C23.3117 40.2262 24.5725 38.5881 24.1754 36.1459C24.1059 35.7488 24.5626 35.5105 24.7214 35.8779C25.0292 36.5728 25.2377 37.3075 25.3171 38.0619C25.3469 38.2704 25.5156 38.4193 25.7241 38.4094C29.9135 38.1711 35.3241 42.7875 40.3872 44.0384C40.6949 44.1178 40.9133 43.7604 40.7446 43.4924C40.1231 42.5542 39.6754 41.5118 39.4242 40.4148C39.3249 40.0276 39.9007 39.9184 40.0993 40.2758C41.6262 43.0407 44.4545 44.8504 47.6044 45.0808C48.8357 45.18 50.1858 45.0311 51.5954 44.6042C53.2831 44.0979 54.8417 43.4427 56.6984 43.8001C58.0959 44.0155 59.349 44.7849 60.1731 45.9345C61.2948 47.5825 63.6775 48.0194 64.9482 46.2919C65.1168 46.0537 65.1465 45.7439 65.0276 45.4779C62.228 38.9256 55.1295 38.4789 52.0718 37.6847H52.082Z" fill="#3F2EA0"/>
</g>
<defs>
<clipPath id="clip0_862_2661">
<rect width="65" height="65" fill="white" transform="translate(0.0996094 0.0996094)"/>
</clipPath>
</defs>
</svg>
