<svg width="66" height="66" viewBox="0 0 66 66" fill="none" xmlns="http://www.w3.org/2000/svg">
<g clip-path="url(#clip0_862_2641)">
<mask id="mask0_862_2641" style="mask-type:luminance" maskUnits="userSpaceOnUse" x="0" y="0" width="66" height="66">
<path d="M65.0996 0.0996094H0.0996094V65.0996H65.0996V0.0996094Z" fill="white"/>
</mask>
<g mask="url(#mask0_862_2641)">
<path d="M63.7392 0.563477H20.8857V22.0498H41.9716C42.7228 22.0498 43.3322 22.6592 43.3322 23.4104V44.2052H65.0995V1.92658C65.1005 1.56529 64.957 1.21857 64.7021 0.962869C64.4467 0.707168 64.1004 0.563477 63.7392 0.563477Z" fill="#8E75FF"/>
<path opacity="0.405" d="M20.8833 0.563477V22.0498H0.779974C0.503727 22.0493 0.255098 21.8821 0.150438 21.6264C0.0457783 21.3708 0.10579 21.0772 0.30239 20.8832L20.8833 0.563477ZM44.4914 64.5472C44.2956 64.7394 44.0037 64.7955 43.7507 64.6897C43.4976 64.5838 43.3327 64.3364 43.3322 64.0624V44.2052H65.0996L44.4914 64.5448V64.5472Z" fill="#8E75FF"/>
<path opacity="0.405" d="M20.8838 22.0498H42.6536C43.0268 22.0498 43.3327 22.3533 43.3327 22.7289V44.2052H22.2469C21.4954 44.2052 20.8862 43.5961 20.8862 42.8446V22.0498H20.8838Z" fill="#8E75FF"/>
</g>
</g>
<defs>
<clipPath id="clip0_862_2641">
<rect width="65" height="65" fill="white" transform="translate(0.0996094 0.0996094)"/>
</clipPath>
</defs>
</svg>
