<svg width="65" height="65" viewBox="0 0 65 65" fill="none" xmlns="http://www.w3.org/2000/svg">
<g clip-path="url(#clip0_862_2579)">
<mask id="mask0_862_2579" style="mask-type:luminance" maskUnits="userSpaceOnUse" x="0" y="0" width="65" height="65">
<path d="M65 0H0V65H65V0Z" fill="white"/>
</mask>
<g mask="url(#mask0_862_2579)">
<path d="M32.5 65C50.4492 65 65 50.4492 65 32.5C65 14.5508 50.4492 0 32.5 0C14.5508 0 0 14.5508 0 32.5C0 50.4492 14.5508 65 32.5 65Z" fill="#4353FF"/>
<path d="M42.0467 28.6414L39.1014 37.9242C39.1014 37.2133 37.0701 21.8164 37.0701 21.8164C32.3982 21.8164 29.9201 25.1273 28.6201 28.6414L25.0248 37.9445C25.0248 37.2742 24.517 28.7227 24.517 28.7227C24.3435 26.8714 23.4973 25.1481 22.1384 23.8789C20.7795 22.6099 19.0023 21.8833 17.1436 21.8367L20.9623 45.1555C25.8373 45.1555 28.4779 41.8445 29.8389 38.3305L32.8857 30.4086C32.8857 30.7336 34.917 45.1555 34.917 45.1555C36.9105 45.1529 38.8513 44.5156 40.4582 43.336C42.0652 42.1563 43.2547 40.4956 43.8545 38.5945L50.7607 21.8164C45.8857 21.8164 43.3264 25.1273 42.0264 28.6414H42.0467Z" fill="white"/>
</g>
</g>
<defs>
<clipPath id="clip0_862_2579">
<rect width="65" height="65" fill="white"/>
</clipPath>
</defs>
</svg>
