<svg width="66" height="66" viewBox="0 0 66 66" fill="none" xmlns="http://www.w3.org/2000/svg">
<g clip-path="url(#clip0_862_2650)">
<mask id="mask0_862_2650" style="mask-type:luminance" maskUnits="userSpaceOnUse" x="0" y="0" width="66" height="66">
<path d="M65.0996 0.0996094H0.0996094V65.0996H65.0996V0.0996094Z" fill="white"/>
</mask>
<g mask="url(#mask0_862_2650)">
<path d="M4.71875 32.5985C4.71875 43.6342 11.1321 53.1713 20.432 57.6907L7.13258 21.252C5.58561 24.7193 4.71875 28.5565 4.71875 32.5985Z" fill="#464342"/>
<path d="M51.4211 31.1914C51.4211 27.7457 50.1833 25.3594 49.1218 23.5021C47.7085 21.2055 46.3838 19.2606 46.3838 16.9641C46.3838 14.4012 48.3276 12.0154 51.0656 12.0154C51.1892 12.0154 51.3065 12.0308 51.4269 12.0377C46.4666 7.49333 39.858 4.71875 32.5995 4.71875C22.8592 4.71875 14.2899 9.71618 9.30469 17.2856C9.95882 17.3052 10.5753 17.319 11.0989 17.319C14.015 17.319 18.5293 16.9652 18.5293 16.9652C20.0322 16.8765 20.2094 19.084 18.708 19.2617C18.708 19.2617 17.1976 19.4394 15.517 19.5275L25.67 49.7269L31.7714 31.4279L27.4275 19.5264C25.9262 19.4384 24.5039 19.2606 24.5039 19.2606C23.0014 19.1726 23.1776 16.8755 24.6801 16.9641C24.6801 16.9641 29.2844 17.3179 32.0238 17.3179C34.9396 17.3179 39.4543 16.9641 39.4543 16.9641C40.9582 16.8755 41.1349 19.0829 39.633 19.2606C39.633 19.2606 38.1195 19.4384 36.4419 19.5264L46.5175 49.4972L49.2984 40.2041C50.5037 36.3479 51.4211 33.5781 51.4211 31.1914Z" fill="#464342"/>
<path d="M33.0897 35.0381L24.7246 59.3456C27.2222 60.0799 29.8637 60.4814 32.6006 60.4814C35.8473 60.4814 38.961 59.9201 41.8592 58.9011C41.7843 58.7816 41.7164 58.6549 41.6606 58.5169L33.0897 35.0381Z" fill="#464342"/>
<path d="M57.0647 19.2217C57.1845 20.1097 57.2525 21.0631 57.2525 22.0886C57.2525 24.9178 56.7241 28.0982 55.1326 32.075L46.6162 56.6977C54.9049 51.8641 60.48 42.8841 60.48 32.5985C60.4806 27.7513 59.2425 23.1932 57.0647 19.2217Z" fill="#464342"/>
<path d="M32.5999 0.0996094C14.6797 0.0996094 0.0996094 14.6786 0.0996094 32.5988C0.0996094 50.5211 14.6797 65.0996 32.5999 65.0996C50.5196 65.0996 65.1018 50.5211 65.1018 32.5988C65.1012 14.6786 50.5196 0.0996094 32.5999 0.0996094ZM32.5999 63.6099C15.5015 63.6099 1.58982 49.6983 1.58982 32.5988C1.58982 15.5004 15.501 1.58982 32.5999 1.58982C49.6977 1.58982 63.6084 15.5004 63.6084 32.5988C63.6084 49.6983 49.6977 63.6099 32.5999 63.6099Z" fill="#464342"/>
</g>
</g>
<defs>
<clipPath id="clip0_862_2650">
<rect width="65" height="65" fill="white" transform="translate(0.0996094 0.0996094)"/>
</clipPath>
</defs>
</svg>
