<svg width="23" height="26" viewBox="0 0 23 26" fill="none" xmlns="http://www.w3.org/2000/svg">
<g clip-path="url(#clip0_186_705)">
<path d="M17.2959 18.6507L22.1191 23.4759L22.1231 23.479C22.2365 23.5923 22.3264 23.7269 22.3878 23.875C22.4492 24.0231 22.4807 24.1819 22.4807 24.3422C22.4807 24.5026 22.4492 24.6613 22.3878 24.8094C22.3264 24.9576 22.2365 25.0921 22.1231 25.2055C22.0098 25.3189 21.8752 25.4088 21.7271 25.4702C21.579 25.5315 21.4202 25.5631 21.2599 25.5631C21.0995 25.5631 20.9408 25.5315 20.7927 25.4702C20.6445 25.4088 20.51 25.3189 20.3966 25.2055L15.5693 20.3772C13.6848 21.8234 11.3207 22.4986 8.95673 22.2658C6.59271 22.033 4.40574 20.9097 2.83946 19.1238C1.27319 17.3379 0.444888 15.023 0.522589 12.6488C0.600291 10.2747 1.57818 8.01892 3.25787 6.33922C4.23264 5.36446 5.40139 4.62605 6.67471 4.16275C7.0246 4.00226 7.8349 3.90574 8.27761 4.80329C8.61142 5.48004 8.11758 6.24009 7.52783 6.48438C6.26588 7.00709 4.89835 7.99053 4.13948 9.12626C3.38061 10.262 2.97557 11.5972 2.97557 12.9632C2.97745 14.7942 3.70568 16.5498 5.00044 17.8445C6.29521 19.1393 8.05075 19.8675 9.88182 19.8694C11.2477 19.8694 12.583 19.4644 13.7187 18.7055C14.8545 17.9466 15.7396 16.868 16.2624 15.6061C16.7851 14.3441 16.9218 12.9555 16.6554 11.6158C16.5178 10.924 16.1334 9.66073 17.436 9.39405C18.4068 9.19531 18.7863 10.053 18.9295 10.6047C19.0509 11.0724 19.1365 11.5515 19.1844 12.0381C19.4172 14.4021 18.742 16.7661 17.2959 18.6507Z" fill="black"/>
<path d="M17.5745 0.867676C17.8644 2.32326 18.4439 2.90832 19.9079 3.20101C18.4435 3.4937 17.8641 4.07876 17.5745 5.53434C17.2847 4.07876 16.7052 3.49335 15.2412 3.20101C16.7056 2.90832 17.285 2.32326 17.5745 0.867676Z" fill="black"/>
<path d="M8.63509 9.73535C8.92498 11.1909 9.5044 11.776 10.9684 12.0687C9.50405 12.3614 8.92463 12.9464 8.63509 14.402C8.3452 12.9464 7.76578 12.361 6.30176 12.0687C7.76611 11.776 8.34555 11.1909 8.63509 9.73535Z" fill="black"/>
<path d="M13.2767 1.60083C14.0014 5.23978 15.45 6.70243 19.11 7.43416C15.4491 8.1659 14.0006 9.62855 13.2767 13.2675C12.552 9.62855 11.1034 8.16502 7.44336 7.43416C11.1042 6.70243 12.5528 5.23978 13.2767 1.60083Z" fill="black"/>
</g>
<defs>
<clipPath id="clip0_186_705">
<rect width="23" height="26" fill="white"/>
</clipPath>
</defs>
</svg>
