<svg width="44" height="44" viewBox="0 0 44 44" fill="none" xmlns="http://www.w3.org/2000/svg">
<g clip-path="url(#clip0_406_1750)">
<path d="M20.6211 13.7173C20.6211 12.4577 20.6277 11.278 20.6108 10.0991C20.6093 9.97583 20.4731 9.84965 20.3874 9.73373C20.3595 9.69632 20.2914 9.69045 20.2438 9.66624C19.4364 9.25614 18.7763 8.69712 18.81 7.71186C18.8437 6.71193 19.5309 6.14336 20.3844 5.79563C21.5691 5.3129 22.7618 5.34151 23.909 5.93208C24.6475 6.3121 25.1992 6.87919 25.2006 7.76248C25.2014 8.64723 24.6541 9.23634 23.9032 9.57894C23.4614 9.78069 23.3625 10.0301 23.3757 10.4732C23.4072 11.5267 23.3859 12.5817 23.3859 13.7181C23.6043 13.7181 23.7918 13.7181 23.9801 13.7181C25.6783 13.7181 27.3772 13.7144 29.0754 13.7188C32.4388 13.7283 34.7861 16.04 34.8169 19.4037C34.8389 21.7483 34.8396 24.0945 34.8176 26.4391C34.7671 31.7895 30.7839 35.7283 25.438 35.7342C23.1317 35.7364 20.8255 35.7379 18.5192 35.7342C13.7836 35.7261 10.0553 32.5598 9.27729 27.8888C9.24798 27.7127 9.22747 27.533 9.22674 27.3547C9.21575 24.5801 9.14102 21.8041 9.21795 19.0317C9.3022 15.993 11.6641 13.7665 14.7155 13.7232C16.4672 13.6983 18.2196 13.7181 19.9712 13.7181C20.1646 13.7173 20.3573 13.7173 20.6211 13.7173ZM17.4364 28.4383C17.4364 29.0604 17.4364 29.6275 17.4364 30.221C17.8445 30.3296 18.2349 30.455 18.635 30.535C19.698 30.747 20.7581 31.0082 21.8321 31.1241C23.3991 31.2928 24.8373 30.5995 26.3325 30.2863C26.4322 30.265 26.5721 30.1102 26.5765 30.0112C26.6014 29.4984 26.5882 28.9834 26.5882 28.439C23.5164 28.4383 20.5038 28.4383 17.4364 28.4383ZM19.2394 22.0234C19.2394 21.6662 19.2577 21.3074 19.2357 20.9509C19.1771 19.9964 18.4547 19.2856 17.5082 19.2291C16.6313 19.177 15.7712 19.78 15.6635 20.6794C15.5624 21.5231 15.5602 22.3961 15.654 23.2398C15.7572 24.1664 16.6305 24.7885 17.5243 24.7254C18.4723 24.6586 19.1815 23.947 19.2379 22.9882C19.2562 22.6683 19.2401 22.3455 19.2394 22.0234ZM28.449 21.9589C28.4197 21.5437 28.4337 21.0903 28.3479 20.6567C28.1714 19.7675 27.3494 19.1667 26.4746 19.2313C25.5457 19.2995 24.8219 19.995 24.7757 20.9208C24.7406 21.6163 24.742 22.3162 24.7735 23.0116C24.8153 23.9456 25.5186 24.6388 26.4512 24.7217C27.3428 24.801 28.1816 24.1847 28.356 23.2706C28.4351 22.8539 28.4197 22.4189 28.449 21.9589Z" fill="black"/>
<path d="M6.43765 29.304C5.51676 29.304 4.67645 29.3128 3.83761 29.2966C3.66911 29.2937 3.49328 29.213 3.3365 29.1367C2.80609 28.8785 2.27714 28.6188 1.75845 28.3378C0.64122 27.7333 0.057327 26.7766 0.0228942 25.5148C-0.00787559 24.3872 -0.00714298 23.2574 0.0221615 22.1298C0.0565943 20.8232 0.661 19.8475 1.83391 19.2452C2.29473 19.0082 2.74968 18.7551 3.22588 18.5549C3.5724 18.4096 3.69109 18.2027 3.70134 17.8271C3.78559 14.6703 4.57975 11.6984 6.23106 9.00451C9.51829 3.6439 14.2942 0.550198 20.5727 0.0586681C29.9721 -0.67716 38.1305 5.57994 39.9715 14.8192C40.1628 15.7796 40.2331 16.77 40.2902 17.7501C40.3159 18.191 40.4573 18.4272 40.8573 18.5879C41.3034 18.7676 41.7284 19.0009 42.1547 19.2261C43.3526 19.8585 43.9716 20.8577 43.9877 22.2142C44.0002 23.3066 44.0097 24.3997 43.9848 25.4913C43.9562 26.7553 43.3767 27.7142 42.2719 28.3334C41.8045 28.5953 41.3298 28.8535 40.8324 29.0472C40.4045 29.2137 40.3159 29.48 40.3173 29.9048C40.321 31.2833 40.3415 32.6654 40.2485 34.0388C39.9063 39.0693 35.5891 43.5327 30.5729 43.8804C27.7955 44.0733 24.9969 43.9684 22.2086 43.9948C21.5515 44.0014 20.8936 43.9956 20.2064 43.9956C20.2064 42.1454 20.2064 40.3472 20.2064 38.5213C21.4064 38.5213 22.58 38.5213 23.8211 38.5213C23.8211 39.406 23.8211 40.2908 23.8211 41.2283C24.5076 41.2283 25.1288 41.2379 25.7501 41.2261C27.3933 41.1946 29.0541 41.2958 30.6754 41.0889C34.4953 40.6018 37.5261 37.1215 37.5547 33.2612C37.5928 28.0854 37.6155 22.9082 37.5473 17.7332C37.4521 10.5363 31.7897 4.10389 24.6365 2.95062C16.1587 1.58461 8.38201 6.97677 6.72337 15.4076C6.5241 16.4185 6.4611 17.4691 6.45084 18.5028C6.41787 21.8877 6.43839 25.2727 6.43839 28.6576C6.43765 28.8513 6.43765 29.0443 6.43765 29.304Z" fill="black"/>
</g>
<defs>
<clipPath id="clip0_406_1750">
<rect width="44" height="44" fill="white"/>
</clipPath>
</defs>
</svg>
