<svg width="44" height="38" viewBox="0 0 44 38" fill="none" xmlns="http://www.w3.org/2000/svg">
<g clip-path="url(#clip0_406_1743)">
<path d="M20.349 24.4603C18.7091 24.4603 17.1516 24.4421 15.5953 24.4767C15.3079 24.4831 14.9565 24.6324 14.7507 24.8356C13.0082 26.5574 11.2971 28.3117 9.56295 30.0423C9.3497 30.255 9.07662 30.4665 8.79605 30.539C8.04382 30.7332 7.44382 30.1804 7.43355 29.3053C7.41727 27.9171 7.42842 26.5283 7.42798 25.1399C7.42798 24.9392 7.42798 24.7383 7.42798 24.4603C7.14639 24.4603 6.91671 24.4603 6.68719 24.4603C5.6057 24.4603 4.52421 24.4659 3.44271 24.4588C1.35145 24.4452 0.00317899 23.0846 0.00200569 20.9797C-0.00136755 15.148 -4.75867e-05 9.31628 0.00273901 3.48452C0.00288567 3.22647 0.00757888 2.96339 0.0549509 2.71128C0.364556 1.06095 1.65709 0.00462878 3.38537 0.00299934C8.93934 -0.00218524 14.4935 0.000925512 20.0474 0.000925512C23.5484 0.000925512 27.0496 -0.00100019 30.5505 0.00166617C32.7371 0.00344374 34.082 1.3581 34.0839 3.56481C34.0873 7.65633 34.085 11.7478 34.085 15.8394C34.085 16.0211 34.085 16.2029 34.085 16.4676C33.8299 16.4676 33.6183 16.4676 33.4067 16.4676C30.7305 16.4676 28.0542 16.466 25.378 16.468C22.2773 16.4706 20.3504 18.4278 20.349 21.5723C20.3485 22.5125 20.349 23.4527 20.349 24.4603ZM14.4264 9.59654C13.1203 9.59654 11.8944 9.58884 10.6689 9.59936C9.93914 9.60558 9.67559 9.88051 9.67163 10.6111C9.66605 11.6105 9.66972 12.61 9.67016 13.6096C9.6706 14.6631 9.87652 14.8709 10.9222 14.8715C12.0712 14.8722 13.2203 14.8716 14.4263 14.8716C14.4263 15.1117 14.4263 15.2916 14.4263 15.4716C14.4264 16.5451 14.419 17.6186 14.4294 18.6921C14.4361 19.3831 14.7236 19.6703 15.4039 19.6752C16.4851 19.6831 17.5663 19.6823 18.6475 19.6757C19.3609 19.6714 19.6355 19.3961 19.6432 18.6598C19.6544 17.6049 19.645 16.5498 19.6478 15.4948C19.6484 15.2997 19.6651 15.1046 19.6762 14.8716C19.9332 14.8716 20.1319 14.8716 20.3306 14.8716C21.3752 14.8713 22.4198 14.8814 23.4642 14.867C24.1109 14.8581 24.408 14.5537 24.4137 13.9086C24.4236 12.7797 24.4247 11.6505 24.4127 10.5216C24.4064 9.92969 24.1208 9.63106 23.5393 9.60306C23.0638 9.58025 22.5866 9.59639 22.1102 9.5961C21.3098 9.59565 20.5091 9.59595 19.6466 9.59595C19.6466 9.32932 19.6466 9.13126 19.6466 8.93307C19.6465 7.89659 19.6533 6.85997 19.6438 5.82365C19.6368 5.05959 19.3612 4.78659 18.6128 4.78303C17.5866 4.77829 16.5604 4.78007 15.5342 4.78229C14.6844 4.78407 14.4294 5.04434 14.4273 5.91623C14.4244 7.11624 14.4264 8.31595 14.4264 9.59654Z" fill="black"/>
<path d="M39.4113 34.227C39.4113 35.2077 39.4076 36.1114 39.4131 37.0152C39.4153 37.4007 39.3925 37.7693 38.9738 37.9431C38.5522 38.1181 38.2845 37.8579 38.018 37.5877C37.022 36.5777 36.0348 35.5583 35.0141 34.5744C34.8174 34.3848 34.4853 34.2438 34.2146 34.2416C31.2271 34.2183 28.2393 34.2282 25.2516 34.2263C23.7643 34.2254 22.9899 33.4381 22.9893 31.9279C22.988 28.4289 22.9879 24.9301 22.9893 21.4311C22.9899 19.941 23.7847 19.1356 25.2667 19.1349C30.7472 19.1321 36.2277 19.1322 41.7082 19.1347C43.2166 19.1355 43.9985 19.9386 43.9989 21.4755C44.0001 24.956 44.0004 28.4363 43.9988 31.9168C43.998 33.455 43.2269 34.2242 41.6897 34.2266C40.9579 34.2279 40.2259 34.227 39.4113 34.227ZM33.4896 22.669C31.6779 22.669 29.8662 22.6659 28.0545 22.6703C27.1509 22.6725 26.5434 23.2046 26.5326 23.9862C26.5214 24.7861 27.1415 25.3334 28.0781 25.334C31.6832 25.3367 35.2885 25.3368 38.8936 25.3339C39.8206 25.3331 40.3906 24.8273 40.3988 24.0179C40.4073 23.1873 39.8284 22.6718 38.87 22.6699C37.0766 22.6665 35.2832 22.669 33.4896 22.669ZM33.4561 28.0017C31.6627 28.0017 29.8691 27.9989 28.0757 28.0029C27.1408 28.005 26.5189 28.5547 26.5326 29.3531C26.5459 30.1358 27.1519 30.666 28.0568 30.6667C31.6619 30.6698 35.2672 30.6695 38.8723 30.667C39.8297 30.6663 40.4079 30.1487 40.3988 29.3168C40.39 28.5088 39.8193 28.0053 38.8912 28.0032C37.0795 27.9987 35.2678 28.0017 33.4561 28.0017Z" fill="black"/>
</g>
<defs>
<clipPath id="clip0_406_1743">
<rect width="44" height="38" fill="white"/>
</clipPath>
</defs>
</svg>
