<svg width="40" height="40" viewBox="0 0 40 40" fill="none" xmlns="http://www.w3.org/2000/svg">
<path d="M7.9727 25.219C7.9727 26.8249 6.85385 28.1395 5.487 28.1395C4.12012 28.1395 3 26.8261 3 25.219V15.6615C3 14.0557 4.11882 12.741 5.487 12.741C6.85515 12.741 7.9727 14.0557 7.9727 15.6615V25.219ZM36.9614 25.219C36.9614 26.8249 35.8426 28.1395 34.4744 28.1395C33.1063 28.1395 31.9875 26.8261 31.9875 25.219V15.6615C31.9875 14.0557 33.1063 12.741 34.4744 12.741C35.8426 12.741 36.9614 14.0557 36.9614 15.6615V25.219ZM25.4168 3.50325L27.0122 0.64027C27.1427 0.406586 27.1035 0.133735 26.9273 0.0358216C26.7511 -0.0620915 26.4978 0.0475712 26.3685 0.281257L24.7367 3.21081C23.2036 2.61459 21.5722 2.31169 19.9272 2.31785C18.1909 2.31785 16.5485 2.64422 15.0837 3.22517L13.444 0.282562C13.3135 0.0488767 13.0616 -0.0620915 12.8853 0.0371272C12.709 0.136346 12.6699 0.407891 12.8005 0.641575L14.4036 3.51891C11.068 5.0855 8.82125 8.02685 8.82125 11.3976C8.82125 11.7397 8.84605 12.0778 8.89045 12.4107H30.9653C31.011 12.0778 31.0345 11.741 31.0345 11.3976C31.0345 8.0164 28.7733 5.06725 25.4195 3.50455L25.4168 3.50325ZM14.8854 8.50075C14.7578 8.50075 14.6315 8.4756 14.5136 8.4268C14.3958 8.378 14.2887 8.30645 14.1985 8.21625C14.1083 8.12605 14.0368 8.01895 13.988 7.90115C13.9391 7.7833 13.9141 7.657 13.9141 7.52945C13.9141 7.4019 13.9391 7.2756 13.988 7.15775C14.0368 7.0399 14.1083 6.9328 14.1985 6.8426C14.2887 6.75245 14.3958 6.6809 14.5136 6.63205C14.6315 6.58325 14.7578 6.55815 14.8854 6.55815C15.143 6.55815 15.39 6.66045 15.5722 6.8426C15.7543 7.02475 15.8567 7.27185 15.8567 7.52945C15.8567 7.78705 15.7543 8.0341 15.5722 8.21625C15.39 8.3984 15.143 8.50075 14.8854 8.50075ZM25.0213 8.50075C24.8937 8.50075 24.7674 8.4756 24.6496 8.4268C24.5317 8.378 24.4247 8.30645 24.3345 8.21625C24.2443 8.12605 24.1727 8.01895 24.1239 7.90115C24.0751 7.7833 24.05 7.657 24.05 7.52945C24.05 7.4019 24.0751 7.2756 24.1239 7.15775C24.1727 7.0399 24.2443 6.9328 24.3345 6.8426C24.4247 6.75245 24.5317 6.6809 24.6496 6.63205C24.7674 6.58325 24.8937 6.55815 25.0213 6.55815C25.2789 6.55815 25.5259 6.66045 25.7081 6.8426C25.8902 7.02475 25.9926 7.27185 25.9926 7.52945C25.9926 7.78705 25.8902 8.0341 25.7081 8.21625C25.5259 8.3984 25.2789 8.50075 25.0213 8.50075ZM8.81865 13.3755V29.6565H8.8278C8.94135 31.0312 10.2064 32.1239 11.739 32.1239H28.1115C29.6428 32.1239 30.9078 31.0312 31.0227 29.6565H31.0319V13.3755H8.81995H8.81865ZM18.3358 32.0429V37.0796C18.3358 38.6854 17.2169 40 15.8488 40C14.4806 40 13.3631 38.6854 13.3631 37.0796V32.0468L18.3358 32.0429ZM26.6231 32.0403V37.0796C26.6231 38.6854 25.5044 40 24.1362 40C22.768 40 21.6492 38.6854 21.6492 37.0796V32.0403H26.6231Z" fill="black"/>
</svg>
