<svg width="40" height="40" viewBox="0 0 40 40" fill="none" xmlns="http://www.w3.org/2000/svg">
<g clip-path="url(#clip0_836_755)">
<path d="M39.0372 15.1566C39.0383 14.8155 38.9131 14.5871 38.6228 14.4214C37.4235 13.7358 36.2305 13.0394 35.0307 12.3561C34.0401 11.7917 34.1291 11.9479 34.1252 10.8428C34.1201 9.44286 34.1201 8.0429 34.1308 6.64238C34.1336 6.22797 33.9887 5.92802 33.6268 5.70982C33.1362 5.41382 32.6553 5.1009 32.1834 4.77614C29.9625 3.24764 27.7027 1.77607 25.4661 0.270682C24.9981 -0.0439284 24.5347 -0.0991825 24.0402 0.183854C23.9342 0.244182 23.8254 0.300564 23.7199 0.36202C22.5004 1.06848 21.2797 1.77213 20.0636 2.48423C19.749 2.66803 19.4609 2.67705 19.1395 2.48761C17.8529 1.72928 16.5527 0.992931 15.2683 0.23065C14.8201 -0.0354711 14.3922 -0.0715555 13.9388 0.183854C13.3339 0.525527 12.7125 0.842392 12.1245 1.21169C10.0553 2.51073 7.9201 3.69925 5.81706 4.94134C5.36939 5.20521 5.15796 5.52207 5.16416 6.04755C5.18333 7.71983 5.14894 9.39268 5.18446 11.0644C5.19799 11.6908 4.98318 12.064 4.43007 12.3617C3.10679 13.0738 1.81904 13.8519 0.505906 14.5832C0.204828 14.7512 0.0903732 14.9824 0.0396296 15.2975C-0.0364857 15.7672 0.0204599 16.2352 0.0204599 16.7037C0.0227151 19.0058 0.0193322 21.3078 0.0215875 23.6099C0.0215875 23.9662 -0.00378428 24.3214 0.00974733 24.6794C0.0249704 25.1034 0.226817 25.3583 0.58033 25.5398C1.77506 26.1527 2.94385 26.818 4.16395 27.3824C4.30829 27.4495 4.37989 27.5414 4.38497 27.7043C4.41485 28.6995 4.43233 29.6952 4.40583 30.6909C4.37651 31.6116 4.39286 32.5312 4.40921 33.4519C4.41654 33.868 4.56764 34.1358 4.91496 34.3489C7.84511 36.1486 10.7747 37.9494 13.6925 39.7689C14.2022 40.0874 14.6961 40.0621 15.1505 39.7824C16.3114 39.0681 17.5602 38.5031 18.6789 37.7228C19.2697 37.3106 19.7873 37.3259 20.3895 37.7025C21.5036 38.3999 22.6555 39.0376 23.782 39.7176C24.3582 40.0654 24.9107 40.0694 25.4774 39.7136C25.8354 39.4887 26.203 39.2789 26.5616 39.0551C27.917 38.2099 29.2673 37.358 30.625 36.5162C31.7904 35.794 32.9536 35.0678 34.1359 34.3732C34.6033 34.0986 34.7713 33.7597 34.7612 33.2128C34.7273 31.381 34.7499 29.548 34.7488 27.7162C34.7488 27.5222 34.7522 27.3463 34.9625 27.2392C36.0754 26.6737 37.1602 26.0422 38.307 25.5556C38.8714 25.316 39.0355 24.9873 39.0326 24.459C39.0321 24.384 39.0355 24.309 39.0349 24.2335C39.0343 21.208 39.0304 18.1826 39.0372 15.1566ZM18.2628 36.3617C17.2862 36.8855 16.3306 37.4482 15.3659 37.9934C15.2187 38.0769 15.0699 38.1569 14.9199 38.2347C14.6673 38.365 14.4108 38.3667 14.1655 38.2229C13.6062 37.8953 13.052 37.5587 12.4938 37.2306C12.2728 37.1009 12.3596 36.9836 12.4955 36.8607C13.0407 36.3679 13.6541 35.9654 14.2495 35.5386C14.7987 35.1445 15.3647 34.7735 15.915 34.3799C16.3035 34.1025 16.3103 34.0304 16.0836 33.6154C15.6483 32.8193 15.641 32.8221 14.9058 33.3464C13.7364 34.182 12.5569 35.0029 11.391 35.8436C11.0707 36.0742 10.7899 36.1097 10.4421 35.8926C9.0077 34.9973 7.56264 34.1194 6.1204 33.2371C5.89205 33.0978 5.82327 32.8852 5.82214 32.6377C5.81988 32.0835 5.81932 31.5293 5.81988 30.975C5.82045 29.857 5.82778 28.7389 5.82045 27.6209C5.81819 27.3683 5.90389 27.2048 6.11758 27.0644C6.83193 26.593 7.58519 26.1877 8.31364 25.7411C8.94568 25.3543 8.95414 24.7161 8.33507 24.2938C8.19468 24.1979 8.08079 24.2803 7.96859 24.3389C7.17022 24.7595 6.37411 25.188 5.63157 25.6983C5.18164 26.0078 4.78922 25.9993 4.32633 25.7513C3.46595 25.2895 2.58921 24.8587 1.71417 24.4246C1.50386 24.3197 1.4238 24.1799 1.41309 23.9414C1.35783 22.7298 1.37813 21.5193 1.41422 20.3076C1.42098 20.077 1.50725 19.949 1.70853 19.8515C2.73186 19.3565 3.75124 18.8541 4.77062 18.3512C5.27523 18.1025 5.31132 17.9813 5.05027 17.4767C4.72382 16.8446 4.71931 16.8362 4.08445 17.1446C3.34134 17.506 2.60894 17.8894 1.86752 18.2536C1.46383 18.4521 1.43846 18.4216 1.41534 17.9864C1.37982 17.3199 1.35445 16.6558 1.41196 15.9888C1.43508 15.7243 1.52811 15.5484 1.75645 15.4244C2.93709 14.7839 4.10306 14.1169 5.25832 13.4313C5.60901 13.2232 5.94223 13.2435 6.28447 13.4809C7.22604 14.1338 8.17551 14.7754 9.12836 15.4126C9.32288 15.5428 9.39448 15.7029 9.39279 15.9307C9.38715 16.879 9.38546 17.8285 9.39617 18.7768C9.40068 19.1535 9.25635 19.4269 8.9361 19.6181C7.87894 20.2495 6.89452 20.9915 5.8554 21.6506C5.49174 21.8812 5.4923 21.8953 5.71219 22.2657C5.78887 22.3949 5.87232 22.52 5.95351 22.6463C6.21399 23.0489 6.22132 23.0602 6.63178 22.7895C7.53389 22.1958 8.42866 21.5903 9.32513 20.9876C10.0846 20.4762 10.1613 20.4728 10.8762 21.0355C11.5184 21.5407 12.1499 22.0588 12.7887 22.5685C13.021 22.7535 13.1134 22.9908 13.1117 23.2829C13.1067 24.185 13.0954 25.0871 13.1168 25.9886C13.1264 26.407 12.9753 26.7098 12.6517 26.9545C12.1053 27.3683 11.5635 27.7889 11.0217 28.2095C10.7471 28.4226 10.4736 28.6374 10.2075 28.8607C9.90304 29.1161 9.885 29.2582 10.0908 29.5852C10.5238 30.2742 10.6383 30.2883 11.2793 29.7916C13.4562 28.1069 15.6354 26.4256 17.8168 24.7477C18.0468 24.5706 18.2994 24.4229 18.5441 24.265C18.7358 24.141 18.8632 24.1731 18.8824 24.4229C18.8954 24.5915 18.9128 24.7601 18.9128 24.9287C18.9151 26.6477 18.914 28.3668 18.914 30.0859H18.9162C18.9162 31.8055 18.8993 33.5246 18.9258 35.2437C18.9348 35.7872 18.7302 36.1108 18.2628 36.3617ZM37.759 22.9508C37.7584 23.39 37.6992 23.4272 37.3113 23.2022C36.328 22.6322 35.3509 22.0509 34.3693 21.4775C34.2069 21.3834 34.1314 21.2576 34.1218 21.0688C34.0857 20.364 33.8653 19.7449 33.2687 19.308C32.9959 19.1072 32.6976 18.986 32.3565 18.9776C32.2161 18.9742 32.0751 18.9708 31.9342 18.9719C30.6126 18.9826 29.9704 19.6987 29.8853 21.0146C29.7928 22.4355 31.1595 23.2479 32.1422 23.1476C32.4298 23.1182 32.6959 23.0314 32.9451 22.9006C33.39 22.6672 33.7937 22.701 34.2109 22.9829C34.9901 23.509 35.8629 23.8777 36.6483 24.3958C36.9347 24.5847 36.9341 24.6343 36.6466 24.8176C36.0416 25.2032 35.3724 25.4615 34.7364 25.7851C34.4353 25.9385 34.1432 26.1104 33.8422 26.2632C33.6138 26.3788 33.5292 26.5474 33.5292 26.8056C33.5304 28.713 33.5112 30.621 33.518 32.5283C33.5196 32.8734 33.3939 33.0674 33.1086 33.2517C30.5365 34.9155 27.8888 36.4587 25.306 38.1051C24.8989 38.3644 24.5318 38.3813 24.1248 38.1389C22.9785 37.4555 21.8345 36.7682 20.6567 36.1413C20.4616 36.037 20.3449 35.8746 20.3213 35.6502C20.3072 35.52 20.2728 35.3891 20.2756 35.2589C20.3055 34.0112 20.2401 32.7618 20.3218 31.514C20.3359 31.3043 20.4205 31.2068 20.633 31.2073C21.7043 31.2113 22.7756 31.213 23.8462 31.2107C24.0498 31.2101 24.1761 31.3015 24.2714 31.4757C24.5403 31.9685 24.909 32.3479 25.4531 32.5486C26.4528 32.9162 27.6142 32.4652 28.0912 31.5073C28.5699 30.5465 28.213 29.2785 27.3092 28.7282C26.4545 28.2078 25.0252 28.4711 24.4715 29.3027C24.1873 29.729 23.8688 29.8914 23.3597 29.8654C22.5162 29.822 21.6688 29.8553 20.8231 29.8502C20.3534 29.8474 20.3252 29.8119 20.3207 29.3563C20.306 27.9287 20.2846 26.5006 20.2778 25.073C20.2745 24.4342 20.3117 23.7954 20.3089 23.1571C20.3032 21.9263 20.2795 20.6961 20.2716 19.4653C20.2699 19.2555 20.2029 19.1168 20.0162 19.008C18.8965 18.3545 17.779 17.6966 16.6677 17.029C16.4518 16.8993 16.3142 16.9106 16.1902 17.1373C16.0819 17.3346 15.959 17.5246 15.831 17.7095C15.6923 17.9091 15.7357 18.0399 15.9353 18.1707C16.6508 18.6404 17.3747 19.0999 18.1427 19.4749C18.7116 19.7534 18.9963 20.1351 18.9219 20.7829C18.8796 21.1545 18.941 21.5333 18.8773 21.9077C18.8457 22.0938 18.7724 22.2483 18.6253 22.3633C17.3956 23.3218 16.1676 24.2831 14.9317 25.2337C14.6476 25.4524 14.5878 25.4164 14.5523 25.0499C14.4914 24.4314 14.5252 23.8106 14.5331 23.191C14.5342 23.0974 14.5331 23.0032 14.541 22.9096C14.5878 22.3469 14.3324 21.9562 13.8904 21.6236C13.0728 21.0073 12.2919 20.3426 11.4755 19.7246C11.0803 19.4252 10.8925 19.0751 10.9066 18.5767C10.9298 17.7879 10.9236 16.998 10.9111 16.2087C10.9038 15.7424 11.0792 15.4176 11.4817 15.1628C12.5535 14.4845 13.5684 13.7194 14.656 13.0654C15.0264 12.8427 15.2108 12.5495 15.2035 12.099C15.1838 10.84 15.1967 9.58043 15.1939 8.32142C15.1933 7.96171 15.1646 7.93634 14.8094 7.93408C14.612 7.93239 14.4147 7.93916 14.2174 7.93859C13.9496 7.93803 13.8351 8.0553 13.8385 8.33552C13.8503 9.28442 13.8233 10.2345 13.8515 11.1828C13.8672 11.7139 13.6665 12.0748 13.2228 12.3454C12.3404 12.8844 11.4846 13.4651 10.6462 14.069C10.3129 14.3092 10.0293 14.3137 9.70571 14.0633C8.76921 13.336 7.75039 12.7299 6.76597 12.0725C6.57258 11.9434 6.49533 11.79 6.49646 11.5589C6.50492 9.85783 6.50999 8.15735 6.50097 6.45632C6.49928 6.15806 6.60866 6.00808 6.88155 5.88686C7.6303 5.55365 8.2956 5.06989 9.00263 4.65943C9.29525 4.48972 9.58956 4.3234 9.885 4.15933C10.0666 4.0584 10.172 4.10689 10.1776 4.32396C10.1804 4.42714 10.1827 4.53032 10.1821 4.6335C10.1703 6.14509 10.2396 7.65668 10.1833 9.16828C10.1782 9.29965 10.1804 9.43158 10.1878 9.56295C10.2115 9.95649 10.2661 10.0072 10.6665 10.0134C10.8452 10.0163 11.0239 10.0168 11.2021 10.014C11.55 10.0089 11.5866 9.97454 11.5872 9.61877C11.59 7.73957 11.6154 5.8598 11.5759 3.98116C11.5635 3.40381 11.7428 3.06158 12.2412 2.79602C12.8371 2.47859 13.4055 2.10703 13.9721 1.7383C14.3448 1.49642 14.6887 1.4812 15.0755 1.70954C16.1355 2.33538 17.1949 2.96347 18.2774 3.54815C18.7516 3.80469 18.9258 4.15651 18.9004 4.66169C18.8316 6.0047 18.8931 7.34884 18.8655 8.61461C18.8655 9.94183 18.8959 11.1924 18.8536 12.4407C18.8305 13.124 19.0955 13.5525 19.6762 13.8699C20.9866 14.5871 22.28 15.3353 23.588 16.0559C23.8305 16.1889 23.9556 16.3547 23.9765 16.6225C23.9883 16.7719 24.0205 16.9202 24.0532 17.0668C24.3328 18.3066 25.527 19.0137 26.7471 18.6646C28.2091 18.2463 28.7069 16.3282 27.6813 15.1825C27.0301 14.4546 25.8455 14.3272 25.1532 14.7377C24.7737 14.9626 24.4343 14.9401 24.0689 14.7303C22.961 14.0943 21.8498 13.4634 20.7368 12.8376C20.3985 12.647 20.2604 12.3815 20.2621 11.9874C20.2739 9.52517 20.275 7.06299 20.2609 4.60136C20.2581 4.10069 20.438 3.77931 20.8879 3.54759C21.9315 3.0097 22.9588 2.43743 23.946 1.79975C24.436 1.48345 24.8397 1.49924 25.3302 1.84429C27.6588 3.48275 30.0522 5.02535 32.4332 6.58543C32.5944 6.69087 32.6683 6.81434 32.6694 6.99927C32.6711 7.43172 32.6734 7.86361 32.6829 8.29605C32.6875 8.50579 32.6012 8.61292 32.3869 8.61461C32.3215 8.61517 32.2567 8.63322 32.1919 8.64336C31.5508 8.74485 31.0473 8.55766 30.6532 8.0102C30.1548 7.31783 29.437 7.08892 28.6116 7.22987C27.7873 7.37139 27.0995 8.08857 26.9563 8.91174C26.7939 9.84824 27.1536 10.663 27.9367 11.1315C28.9448 11.7342 30.0866 11.5425 30.744 10.5671C31.0608 10.0974 31.4127 9.97341 31.9331 9.99258C32.7856 10.0247 32.6767 9.99371 32.6807 10.7487C32.6835 11.1811 32.6824 11.613 32.6953 12.0449C32.7072 12.4395 32.8803 12.7547 33.2259 12.9521C34.1641 13.4871 35.1079 14.0126 36.0484 14.5448C36.4977 14.7991 36.9443 15.059 37.3919 15.3167C37.6406 15.4599 37.746 15.6708 37.7725 15.9617C37.8109 16.3863 37.7567 16.8063 37.7584 17.2286C37.7652 19.136 37.7618 21.0434 37.759 22.9508ZM32.6717 21.0237C32.6683 21.4183 32.3452 21.7397 31.9539 21.738C31.557 21.7358 31.27 21.4369 31.2751 21.031C31.2807 20.6307 31.5773 20.3392 31.977 20.3426C32.4022 20.3454 32.675 20.6132 32.6717 21.0237ZM25.3934 30.4913C25.3996 30.1186 25.7965 29.7386 26.172 29.7465C26.5447 29.7544 26.8644 30.1051 26.8587 30.4997C26.8525 30.913 26.5334 31.2101 26.1032 31.2022C25.682 31.1949 25.3866 30.8989 25.3934 30.4913ZM25.907 15.9798C26.309 15.8349 26.7008 16.0801 26.7443 16.5041C26.751 16.5695 26.7505 16.6349 26.7505 16.7003C26.7522 17.2664 26.7341 17.2844 26.1771 17.2951C25.7097 17.3042 25.4616 17.1514 25.4041 16.8204C25.3409 16.4573 25.5495 16.1083 25.907 15.9798ZM29.7409 9.35885C29.7302 10.1037 29.6823 10.0569 29.0012 10.1042C28.5738 10.1335 28.3275 9.84091 28.3269 9.38196C28.3258 8.86325 28.4859 8.69975 28.995 8.69918C29.6812 8.69918 29.7426 8.75331 29.7409 9.35885Z" fill="black"/>
</g>
<defs>
<clipPath id="clip0_836_755">
<rect width="39.037" height="40" fill="white"/>
</clipPath>
</defs>
</svg>
