<svg width="40" height="40" viewBox="0 0 40 40" fill="none" xmlns="http://www.w3.org/2000/svg">
<g clip-path="url(#clip0_406_2293)">
<path d="M37.6935 11.76C37.6932 11.0874 37.5494 10.4931 37.2585 9.98305C36.9727 9.48147 36.5448 9.06105 35.9708 8.72868C31.2328 5.99674 26.4903 3.27313 21.7538 0.538394C20.4769 -0.198797 19.2388 -0.171922 17.9714 0.575852C16.0855 1.68804 6.64363 7.09747 3.83008 8.72716C2.67138 9.39789 2.10756 10.4245 2.10728 11.7587C2.10547 17.2529 2.10728 22.7468 2.10547 28.2411C2.10575 28.8989 2.24346 29.4817 2.52155 29.9841C2.80743 30.5008 3.24133 30.9328 3.82855 31.2727C6.64226 32.9024 16.0854 38.3114 17.9708 39.4238C19.2388 40.1721 20.4769 40.1988 21.7542 39.4613C26.4908 36.7265 31.2337 34.003 35.9724 31.2711C36.5596 30.9313 36.9935 30.4991 37.2794 29.9827C37.557 29.4803 37.695 28.8975 37.6953 28.2396C37.6953 28.2396 37.6953 17.2543 37.6935 11.76Z" fill="black"/>
<path d="M19.9548 19.9465L2.52148 29.9843C2.80736 30.501 3.24127 30.933 3.82848 31.2729C6.64215 32.9025 16.0853 38.3116 17.9707 39.424C19.2387 40.1722 20.4768 40.199 21.7542 39.4615C26.4907 36.7266 31.2336 34.0032 35.9723 31.2712C36.5595 30.9314 36.9934 30.4992 37.2793 29.9828L19.9548 19.9465Z" fill="#353535"/>
<path d="M14.791 22.9198C15.8055 24.6908 17.7125 25.8853 19.9001 25.8853C22.1012 25.8853 24.0191 24.6756 25.0284 22.8857L19.9545 19.9465L14.791 22.9198Z" fill="#353535"/>
<path d="M37.6938 11.7605C37.6934 11.0879 37.5496 10.4936 37.2587 9.98352L19.9551 19.9468L37.2796 29.9832C37.5573 29.4807 37.6953 28.898 37.6956 28.24C37.6956 28.24 37.6956 17.2547 37.6938 11.7605Z" fill="#0D0D0D"/>
<path d="M36.7404 20.6638H35.3866V22.0179H34.0325V20.6638H32.6789V19.3102H34.0325V17.9564H35.3866V19.3102H36.7404V20.6638ZM31.8005 20.6638H30.4468V22.0179H29.093V20.6638H27.7393V19.3102H29.093V17.9564H30.4468V19.3102H31.8005V20.6638Z" fill="white"/>
<path d="M25.0282 22.8859C24.0189 24.6758 22.1011 25.8855 19.8999 25.8855C17.7123 25.8855 15.8053 24.691 14.7908 22.92C14.2812 22.0314 14.0136 21.0246 14.0146 20.0003C14.0146 16.75 16.6497 14.1151 19.8999 14.1151C22.0735 14.1151 23.9705 15.2947 24.9899 17.0476L30.1339 14.0855C28.0894 10.556 24.2721 8.18152 19.8999 8.18152C13.3724 8.18152 8.08105 13.473 8.08105 20.0003C8.08105 22.1416 8.65074 24.1498 9.64637 25.8819C11.6858 29.43 15.5139 31.8191 19.8999 31.8191C24.2939 31.8191 28.1281 29.4204 30.1646 25.8618L25.0282 22.8859Z" fill="white"/>
</g>
<defs>
<clipPath id="clip0_406_2293">
<rect width="40" height="40" fill="white"/>
</clipPath>
</defs>
</svg>
