<svg width="41" height="40" viewBox="0 0 41 40" fill="none" xmlns="http://www.w3.org/2000/svg">
<mask id="mask0_406_2273" style="mask-type:luminance" maskUnits="userSpaceOnUse" x="0" y="0" width="41" height="40">
<path d="M40.3125 0H0.3125V40H40.3125V0Z" fill="white"/>
</mask>
<g mask="url(#mask0_406_2273)">
<path d="M0.3125 23.7574C0.3125 21.3855 0.3125 19.0235 0.3125 16.6491C0.498774 16.6243 0.687535 16.5945 0.87381 16.5771C1.5593 16.51 2.24478 16.4703 2.93027 16.5274C3.54125 16.5796 4.13734 16.7013 4.67877 17.0093C5.44375 17.4414 5.9231 18.0971 6.1218 18.9465C6.3304 19.8307 6.29065 20.7124 5.9827 21.5693C5.5853 22.677 4.7806 23.3476 3.65302 23.6456C3.04701 23.807 2.43107 23.8642 1.80766 23.8393C1.33081 23.8219 0.85394 23.7921 0.377077 23.7673C0.362176 23.7648 0.342304 23.7598 0.3125 23.7574ZM1.25132 17.3222C1.25132 19.2445 1.25132 21.1371 1.25132 23.0321C1.27119 23.0371 1.2861 23.0421 1.301 23.0446C1.90949 23.1141 2.51799 23.1265 3.11904 22.9949C4.05786 22.7887 4.7359 22.2597 5.05628 21.3358C5.30714 20.6131 5.33695 19.8679 5.15563 19.1228C4.94949 18.2759 4.42047 17.7146 3.5959 17.434C3.11158 17.27 2.60988 17.2303 2.10322 17.2527C1.82009 17.2626 1.53943 17.2974 1.25132 17.3222Z" fill="black"/>
<path d="M12.8105 23.7848C12.4851 23.7848 12.1747 23.7873 11.8642 23.7799C11.8344 23.7799 11.7922 23.7302 11.7798 23.6954C11.5587 23.0596 11.3426 22.4188 11.1266 21.783C11.0943 21.6911 11.0645 21.6017 11.0297 21.5073C10.7217 21.5073 10.4187 21.5073 10.1157 21.5073C9.60656 21.5073 9.09741 21.5098 8.58826 21.5048C8.49881 21.5048 8.46406 21.5322 8.43676 21.6166C8.21571 22.2996 7.98721 22.9777 7.76866 23.6607C7.73636 23.7575 7.69411 23.7923 7.58981 23.7873C7.31911 23.7774 7.04591 23.7848 6.75781 23.7848C6.77271 23.7302 6.78261 23.688 6.79751 23.6458C7.58236 21.3384 8.36721 19.0336 9.15201 16.7263C9.21166 16.5524 9.21166 16.5524 9.40041 16.5524C9.68106 16.5524 9.95921 16.5549 10.2399 16.55C10.3194 16.5475 10.3541 16.5748 10.3815 16.6493C10.8956 18.1594 11.4097 19.6694 11.9263 21.1795C12.2144 22.0214 12.5025 22.8659 12.7906 23.7078C12.7931 23.7277 12.7981 23.7451 12.8105 23.7848ZM9.75061 17.4813C9.41031 18.5369 9.05271 19.6496 8.69256 20.7622C9.40041 20.7622 10.1107 20.7622 10.8211 20.7622C10.456 19.6421 10.0934 18.5344 9.75061 17.4813Z" fill="black"/>
<path d="M26.2769 16.5573C27.5758 16.5573 28.8674 16.5573 30.1688 16.5573C30.1688 16.8156 30.1688 17.0689 30.1688 17.3347C29.1902 17.3347 28.2092 17.3347 27.2182 17.3347C27.2182 18.0996 27.2182 18.8522 27.2182 19.6171C28.1471 19.6171 29.0735 19.6171 30.0073 19.6171C30.0073 19.8804 30.0073 20.1288 30.0073 20.392C29.076 20.392 28.1496 20.392 27.2157 20.392C27.2157 21.2638 27.2157 22.1206 27.2157 22.9924C28.2564 22.9924 29.292 22.9924 30.3327 22.9924C30.3327 23.2582 30.3327 23.514 30.3327 23.7773C28.9816 23.7773 27.6305 23.7773 26.2744 23.7773C26.2769 21.3706 26.2769 18.9664 26.2769 16.5573Z" fill="black"/>
<path d="M14.8044 22.9924C15.8376 22.9924 16.8584 22.9924 17.8841 22.9924C17.8841 23.2581 17.8841 23.5139 17.8841 23.7772C16.5479 23.7772 15.2142 23.7772 13.873 23.7772C13.873 21.373 13.873 18.9713 13.873 16.5597C14.1835 16.5597 14.4865 16.5597 14.8044 16.5597C14.8044 18.7031 14.8044 20.8415 14.8044 22.9924Z" fill="black"/>
<path d="M18.9395 16.5573C19.2475 16.5573 19.5505 16.5573 19.8634 16.5573C19.8634 18.6982 19.8634 20.8366 19.8634 22.9899C20.8991 22.9899 21.9224 22.9899 22.9506 22.9899C22.9506 23.2582 22.9506 23.514 22.9506 23.7748C21.6119 23.7748 20.2782 23.7748 18.9395 23.7748C18.9395 21.3681 18.9395 18.9664 18.9395 16.5573Z" fill="black"/>
<path d="M24.0514 20.2853C24.1979 20.2853 24.3469 20.2877 24.4935 20.2853C24.5978 20.2828 24.6574 20.33 24.6574 20.4343C24.6599 20.7398 24.6599 21.0453 24.6574 21.3507C24.6574 21.4551 24.5953 21.5022 24.491 21.5022C24.1954 21.5022 23.9024 21.5022 23.6068 21.5022C23.4851 21.5022 23.4354 21.4526 23.4354 21.3334C23.433 21.0403 23.433 20.7447 23.4354 20.4517C23.4354 20.33 23.4826 20.2877 23.6068 20.2853C23.7558 20.2828 23.9049 20.2853 24.0514 20.2853Z" fill="black"/>
<path d="M37.8662 23.6967C36.402 23.6967 35.5062 22.7816 35.458 21.5775H36.2287C36.3057 22.3963 36.797 23.0224 37.8855 23.0224C38.9644 23.0224 39.4557 22.5022 39.4557 21.6931C39.4557 20.8069 38.974 20.3541 38.0011 20.3541H37.4809V19.6509H37.9626C38.8584 19.6509 39.2534 19.2271 39.2534 18.4757C39.2534 17.8207 38.8392 17.3198 38.0011 17.3198C37.1438 17.3198 36.5658 17.84 36.4791 18.6202H35.747C35.7952 17.5317 36.691 16.6359 38.0011 16.6359C39.3112 16.6359 40.0722 17.5028 40.0722 18.4565C40.0722 19.2367 39.6098 19.6991 38.9836 19.9592C39.7928 20.1711 40.313 20.7394 40.313 21.6931C40.313 22.9454 39.2919 23.6967 37.8662 23.6967Z" fill="black"/>
</g>
</svg>
