<svg width="44" height="40" viewBox="0 0 44 40" fill="none" xmlns="http://www.w3.org/2000/svg">
<path d="M44.0001 11.9463C44.0001 12.61 44.0001 13.2737 44.0001 13.9374C43.9761 14.0187 43.9384 14.0987 43.9301 14.1816C43.7308 16.1814 43.0543 18.0137 42.0449 19.7365C41.8827 20.0132 41.7059 20.0921 41.4003 20.0911C38.0795 20.0799 34.7585 20.0776 31.4378 20.094C31.0948 20.0957 30.9364 19.9737 30.7849 19.6877C29.4189 17.1081 28.0478 14.5312 26.6516 11.9683C26.4835 11.6598 26.201 11.351 25.8949 11.1955C25.2384 10.8621 24.5558 11.2036 24.1944 11.9706C22.5704 15.4174 20.9505 18.8661 19.3286 22.314C19.2533 22.4739 19.1727 22.6313 19.0707 22.8379C18.9379 22.6359 18.8493 22.5057 18.7652 22.3726C17.7131 20.7073 16.6648 19.0396 15.6089 17.3767C14.9579 16.3516 13.8616 16.3607 13.2379 17.3936C12.7623 18.1813 12.2885 18.9704 11.8302 19.7683C11.7026 19.9904 11.5675 20.0918 11.2973 20.0909C8.36298 20.08 5.4285 20.0804 2.49414 20.0904C2.22807 20.0913 2.06525 20.0118 1.95789 19.7727C1.50505 18.7655 0.975562 17.7858 0.613021 16.7468C0.308687 15.8746 0.196969 14.9342 0 14.0239C0 13.3313 0 12.6387 0 11.9461C0.0638229 11.5496 0.120656 11.152 0.192615 10.757C1.70259 2.47372 11.1081 -3.05072 19.4284 1.83296C20.3253 2.35932 21.1517 3.00747 22.0391 3.61857C22.3269 3.38909 22.644 3.12198 22.9752 2.87415C25.7273 0.81566 28.7735 -0.276784 32.2391 0.0680101C37.6303 0.60442 42.2314 4.57653 43.5993 9.87495C43.7747 10.5544 43.8685 11.2553 44.0001 11.9463Z" fill="black"/>
<path d="M4.19629 22.6813C4.45124 22.6813 4.60329 22.6813 4.75534 22.6813C7.21797 22.6813 9.68071 22.6716 12.1432 22.6878C12.8006 22.6921 13.2643 22.444 13.5828 21.8679C13.8522 21.3806 14.1514 20.9101 14.46 20.3946C15.6769 22.3206 16.8624 24.1907 18.0398 26.0659C18.2629 26.4211 18.5296 26.7017 18.9487 26.8028C19.572 26.9533 20.1387 26.6457 20.4625 25.9607C21.3783 24.0233 22.2885 22.0833 23.2007 20.1443C23.9535 18.544 24.7061 16.9438 25.4892 15.2791C25.5919 15.455 25.6716 15.5821 25.7422 15.7141C26.8205 17.7305 27.9086 19.7417 28.969 21.7678C29.3093 22.4179 29.7884 22.6951 30.5185 22.6898C33.4105 22.6691 36.3028 22.6812 39.1949 22.6812C39.3493 22.6812 39.5037 22.6812 39.7475 22.6812C39.6099 22.8404 39.5291 22.9464 39.4359 23.0397C33.9768 28.5143 28.5173 33.9884 23.0559 39.4606C22.3387 40.1791 21.6374 40.1777 20.9284 39.4673C15.4573 33.9846 9.98676 28.5013 4.51632 23.0179C4.43554 22.9371 4.35865 22.8524 4.19629 22.6813Z" fill="black"/>
</svg>
