<svg width="40" height="40" viewBox="0 0 40 40" fill="none" xmlns="http://www.w3.org/2000/svg">
<g clip-path="url(#clip0_406_2365)">
<mask id="mask0_406_2365" style="mask-type:luminance" maskUnits="userSpaceOnUse" x="0" y="0" width="40" height="40">
<path d="M40 0H0V40H40V0Z" fill="white"/>
</mask>
<g mask="url(#mask0_406_2365)">
<path d="M0 0H40V40H0V0Z" fill="black"/>
<path d="M16.7034 11.6158C15.4594 11.6322 14.3883 11.876 13.336 12.4003C10.6486 13.739 9.09688 16.5579 9.09688 20.1099C9.09688 23.6699 10.6234 26.4053 13.32 27.6849C14.0485 28.0305 14.7787 28.2187 15.8873 28.3505C16.4483 28.373 16.9731 28.4129 17.5195 28.3505C18.6281 28.2187 19.3583 28.0305 20.0868 27.6849C22.7836 26.4053 24.3102 23.6701 24.3102 20.1099C24.3102 16.5579 22.7582 13.739 20.071 12.4003C19.0186 11.876 17.9476 11.6322 16.7034 11.6158ZM17.7732 14.1198C19.3867 14.5497 20.5575 16.0055 21.0059 18.1291C21.3213 19.6205 21.2352 21.3437 20.7842 22.701C20.0816 24.8148 18.5567 26.0085 16.7034 25.9893C14.8502 26.0085 13.3252 24.8148 12.6229 22.701C12.1722 21.3437 12.0859 19.6205 12.4009 18.1291C12.8495 16.0055 14.0203 14.5497 15.6338 14.1198C16.3654 13.9647 17.0943 13.9927 17.7732 14.1198ZM5.98903 11.6158C5.66998 11.6158 5.35813 11.7104 5.09288 11.8876C4.8276 12.0649 4.62085 12.3168 4.49877 12.6116C4.37668 12.9063 4.34473 13.2306 4.40697 13.5435C4.46921 13.8564 4.62284 14.1439 4.84843 14.3695C5.07403 14.595 5.36143 14.7487 5.67433 14.8109C5.98723 14.8732 6.31158 14.8412 6.60633 14.7191C6.90108 14.597 7.15298 14.3903 7.33023 14.125C7.50748 13.8597 7.60208 13.5479 7.60208 13.2288C7.60208 12.801 7.43213 12.3908 7.12963 12.0882C6.82713 11.7857 6.41683 11.6158 5.98903 11.6158ZM4.48188 16.5374V28.384H7.49618V16.5374H4.48188ZM28.6931 28.3593C27.4016 28.138 26.1594 27.9667 25.1049 27.3678C25.0909 27.3555 25.7274 24.977 25.756 24.9344C27.4509 25.5099 29.8366 26.317 31.4451 25.5775C32.3221 25.1388 32.754 24.3278 32.6089 23.3919C32.4455 22.3399 31.7171 21.7335 29.7174 20.9859C27.4867 20.1522 26.1799 19.1273 25.6447 17.7947C25.3818 17.1393 25.2948 16.3051 25.4129 15.5764C25.7419 13.5497 27.3207 12.1399 29.7438 11.7088C30.4456 11.584 31.9469 11.5829 32.6855 11.7064C33.7499 11.8844 34.9707 12.287 34.9707 12.4601C34.9707 12.5238 34.347 14.7229 34.315 14.7716C33.2626 14.3548 32.0821 14.0569 31.0833 14.0506C29.6701 14.0328 28.1379 14.8716 28.4083 16.3536C28.5996 17.2821 29.1922 17.7355 31.3733 18.6216C32.9798 19.2751 33.7506 19.7257 34.4112 20.3962C35.3294 21.3131 35.6196 22.3887 35.6264 23.455C35.6289 24.3429 35.5459 24.7573 35.2291 25.4429C34.4595 27.1082 32.894 28.0736 30.5328 28.3392C30.0912 28.3885 29.0507 28.3998 28.6942 28.3593H28.6931Z" fill="white"/>
</g>
</g>
<defs>
<clipPath id="clip0_406_2365">
<rect width="40" height="40" fill="white"/>
</clipPath>
</defs>
</svg>
