<svg width="25" height="54" viewBox="0 0 25 54" fill="none" xmlns="http://www.w3.org/2000/svg">
<mask id="mask0_836_735" style="mask-type:luminance" maskUnits="userSpaceOnUse" x="9" y="6" width="8" height="48">
<path d="M14.1961 53.8478L12.7558 53.371C12.7558 53.371 12.9395 46.0815 10.3106 45.5711C8.57708 43.5625 10.5775 -40.2302 16.8751 45.2841C16.8751 45.2841 14.7196 46.3664 14.3116 48.2044C13.9037 50.0436 14.1961 53.8478 14.1961 53.8478Z" fill="white"/>
</mask>
<g mask="url(#mask0_836_735)">
<path d="M14.1961 53.8478L12.7558 53.371C12.7558 53.371 12.9395 46.0815 10.3106 45.5711C8.57708 43.5625 10.5775 -40.2302 16.8751 45.2841C16.8751 45.2841 14.7196 46.3664 14.3116 48.2044C13.9037 50.0436 14.1961 53.8478 14.1961 53.8478Z" fill="url(#paint0_linear_836_735)"/>
</g>
<mask id="mask1_836_735" style="mask-type:luminance" maskUnits="userSpaceOnUse" x="12" y="0" width="13" height="47">
<path d="M14.972 46.8086C14.972 46.8086 27.4869 38.5659 24.555 21.4476C21.7314 9.01082 15.0649 4.92229 14.3486 3.36143C13.5599 2.25677 12.7656 0.298842 12.7656 0.298842L13.298 34.9514C13.298 34.9514 12.1969 45.5323 14.972 46.8086Z" fill="white"/>
</mask>
<g mask="url(#mask1_836_735)">
<path d="M14.972 46.8086C14.972 46.8086 27.4869 38.5659 24.555 21.4476C21.7314 9.01082 15.0649 4.92229 14.3486 3.36143C13.5599 2.25677 12.7656 0.298842 12.7656 0.298842L13.298 34.9514C13.298 34.9514 12.1969 45.5323 14.972 46.8086Z" fill="#353535"/>
</g>
<mask id="mask2_836_735" style="mask-type:luminance" maskUnits="userSpaceOnUse" x="0" y="0" width="14" height="48">
<path d="M12.0227 47.2692C12.0227 47.2692 0.283333 39.2607 0.958728 25.1305C1.63436 10.9999 9.92582 4.05217 11.5407 2.79175C12.5848 1.67891 12.6279 1.25012 12.7087 0.152181C13.4404 1.7241 13.3188 23.631 13.3963 26.1916C13.6971 36.1591 12.8442 45.3876 12.0227 47.2692Z" fill="white"/>
</mask>
<g mask="url(#mask2_836_735)">
<path d="M12.0227 47.2692C12.0227 47.2692 0.283333 39.2607 0.958728 25.1305C1.63436 10.9999 9.92582 4.05217 11.5407 2.79175C12.5848 1.67891 12.6279 1.25012 12.7087 0.152181C13.4404 1.7241 13.3188 23.631 13.3963 26.1916C13.6971 36.1591 12.8442 45.3876 12.0227 47.2692Z" fill="black"/>
</g>
<defs>
<linearGradient id="paint0_linear_836_735" x1="4.66926" y1="27.5375" x2="21.2158" y2="33.149" gradientUnits="userSpaceOnUse">
<stop stop-color="#929669"/>
<stop offset="0.231" stop-color="#929669"/>
<stop offset="1" stop-color="#FDFCF1"/>
</linearGradient>
</defs>
</svg>
