<svg width="60" height="37" viewBox="0 0 60 37" fill="none" xmlns="http://www.w3.org/2000/svg">
<g clip-path="url(#clip0_835_420)">
<path d="M29.6558 37.0001C29.4578 37.0001 29.2611 36.9478 29.0875 36.8472L27.2786 35.7688C27.0084 35.6167 27.1402 35.5629 27.2294 35.5319C27.5896 35.4049 27.6627 35.3762 28.0472 35.1563C28.0876 35.1331 28.1405 35.1413 28.1819 35.1659L29.5716 35.9962C29.6218 36.0235 29.693 36.0235 29.7395 35.9962L35.158 32.847C35.2082 32.8183 35.2408 32.7596 35.2408 32.6995V26.4037C35.2408 26.3409 35.2082 26.2849 35.157 26.2535L29.7406 23.107C29.6904 23.077 29.624 23.077 29.5738 23.107L24.1585 26.2535C24.106 26.2836 24.0726 26.3423 24.0726 26.4024V32.6981C24.0726 32.7582 24.1052 32.8156 24.1567 32.8442L25.6406 33.7073C26.4462 34.1129 26.9386 33.635 26.9386 33.1542V26.9404C26.9386 26.8517 27.0077 26.7834 27.0959 26.7834H27.7822C27.8676 26.7834 27.9382 26.8517 27.9382 26.9404V33.157C27.9382 34.2386 27.3522 34.86 26.3336 34.86C26.0203 34.86 25.7735 34.86 25.0845 34.5186L23.663 33.6937C23.3117 33.4888 23.0947 33.1064 23.0947 32.6981V26.4024C23.0947 25.9927 23.3117 25.6103 23.663 25.4082L29.087 22.2576C29.4301 22.0623 29.8859 22.0623 30.2263 22.2576L35.6435 25.4095C35.9934 25.613 36.2118 25.994 36.2118 26.4037V32.6995C36.2118 33.1078 35.9934 33.4888 35.6435 33.6937L30.2263 36.8443C30.0527 36.9453 29.856 36.9972 29.6553 36.9972" fill="black"/>
<path d="M31.3299 32.662C28.959 32.662 28.4619 31.5662 28.4619 30.6471C28.4619 30.5597 28.5319 30.49 28.6188 30.49H29.3187C29.396 30.49 29.4611 30.5467 29.4733 30.6236C29.5791 31.3416 29.8938 31.7038 31.3274 31.7038C32.4695 31.7038 32.955 31.4441 32.955 30.8343C32.955 30.4833 32.8167 30.2225 31.0426 30.0477C29.5588 29.9002 28.6419 29.571 28.6419 28.3761C28.6419 27.2753 29.5642 26.6198 31.1091 26.6198C32.8438 26.6198 33.7037 27.2262 33.8122 28.529C33.8163 28.5741 33.8 28.6178 33.7702 28.6506C33.7403 28.682 33.6983 28.7011 33.6549 28.7011H32.951C32.8777 28.7011 32.814 28.6492 32.799 28.5782C32.6295 27.823 32.2199 27.5813 31.1063 27.5813C29.8599 27.5813 29.7148 28.0183 29.7148 28.346C29.7148 28.7434 29.8857 28.8595 31.5675 29.0835C33.2331 29.3061 34.0238 29.6202 34.0238 30.7988C34.0238 31.9869 33.0391 32.6684 31.322 32.6684M37.9219 25.9916H38.1036C38.2528 25.9916 38.2813 25.8865 38.2813 25.825C38.2813 25.6639 38.1715 25.6639 38.1104 25.6639H37.9232L37.9219 25.9916ZM37.7008 25.4754H38.1036C38.242 25.4754 38.5132 25.4754 38.5132 25.7868C38.5132 26.0039 38.3749 26.049 38.2922 26.0763C38.4536 26.0872 38.4644 26.1937 38.4861 26.344C38.497 26.4382 38.5146 26.6007 38.5472 26.6553H38.2989C38.2922 26.6007 38.2542 26.3003 38.2542 26.2839C38.2379 26.217 38.2149 26.1842 38.1321 26.1842H37.9273V26.6567H37.7008V25.4754ZM37.2166 26.0626C37.2166 26.5515 37.6086 26.9476 38.0901 26.9476C38.5756 26.9476 38.9676 26.5433 38.9676 26.0626C38.9676 25.5724 38.5702 25.1831 38.0887 25.1831C37.614 25.1831 37.2152 25.5669 37.2152 26.0613M39.1358 26.0654C39.1358 26.6444 38.6652 27.1169 38.0914 27.1169C37.5218 27.1169 37.0471 26.6499 37.0471 26.0654C37.0471 25.4699 37.5326 25.0138 38.0914 25.0138C38.6543 25.0138 39.1344 25.4713 39.1344 26.0654" fill="black"/>
<path fill-rule="evenodd" clip-rule="evenodd" d="M12.8764 12.3661C12.8764 12.1148 12.7449 11.884 12.5295 11.7591L6.78462 8.43094C6.68764 8.37358 6.579 8.34354 6.46887 8.33944H6.40946C6.29933 8.34354 6.19068 8.37358 6.09208 8.43094L0.347491 11.7591C0.133463 11.8847 0 12.1155 0 12.3668L0.0126138 21.3311C0.0126138 21.4554 0.0763612 21.5714 0.184867 21.6329C0.290661 21.6984 0.423581 21.6984 0.529374 21.6329L3.94461 19.6636C4.16026 19.5344 4.29183 19.3061 4.29183 19.0572V14.8694C4.29183 14.6195 4.42339 14.3887 4.63837 14.2644L6.09235 13.4212C6.20031 13.3584 6.31886 13.3273 6.43957 13.3273C6.55838 13.3273 6.67964 13.3581 6.78462 13.4211L8.23792 14.264C8.45304 14.3883 8.58514 14.6191 8.58514 14.869V19.0565C8.58514 19.3051 8.71847 19.5345 8.93304 19.6629L12.3461 21.6308C12.4533 21.695 12.5866 21.695 12.6933 21.6308C12.7986 21.5694 12.8653 21.4533 12.8653 21.329L12.8764 12.3661ZM39.9851 17.0334C39.9851 17.0959 39.9521 17.1536 39.8983 17.1845L37.9251 18.3297C37.8715 18.3607 37.8053 18.3607 37.7519 18.3297L35.7784 17.1845C35.7242 17.1535 35.6916 17.0957 35.6916 17.0334V14.7397C35.6916 14.6771 35.7242 14.6195 35.7771 14.5881L37.7492 13.4409C37.8034 13.4095 37.8699 13.4095 37.9241 13.4409L39.8976 14.5881C39.9518 14.6195 39.9844 14.6771 39.9844 14.7397L39.9851 17.0334ZM40.5181 0.0442182C40.4104 -0.0161445 40.2794 -0.0145057 40.1731 0.0479055C40.0673 0.110726 40.0019 0.225443 40.0019 0.349719V9.22658C40.0019 9.31399 39.9558 9.39456 39.8806 9.43826C39.806 9.48196 39.7131 9.48196 39.6378 9.43826L38.1988 8.6037C37.9845 8.47888 37.7205 8.47888 37.5054 8.6037L31.7587 11.9432C31.544 12.0675 31.4114 12.2983 31.4114 12.5468V19.2277C31.4114 19.4776 31.544 19.707 31.7587 19.8327L37.5054 23.1745C37.72 23.2987 37.9842 23.2987 38.1995 23.1745L43.9462 19.8313C44.1605 19.7057 44.2934 19.4762 44.2934 19.2263V2.57604C44.2934 2.32257 44.1564 2.08945 43.9367 1.96558L40.5181 0.0442182ZM59.6549 14.6793C59.8684 14.5545 59.9998 14.324 59.9998 14.0754V12.4563C59.9998 12.2072 59.8683 11.9773 59.6544 11.852L53.9442 8.51425C53.7286 8.38861 53.4641 8.38861 53.2485 8.51425L47.5031 11.8533C47.2874 11.979 47.1558 12.2084 47.1558 12.4583V19.1364C47.1558 19.3877 47.2901 19.6199 47.5058 19.7442L53.2145 23.0204C53.4248 23.142 53.6825 23.1433 53.8954 23.0245L57.3486 21.0921C57.4571 21.0306 57.5263 20.9145 57.5263 20.7889C57.5263 20.6633 57.4598 20.5458 57.3513 20.4844L51.5707 17.1439C51.4622 17.0825 51.3957 16.9664 51.3957 16.8421V14.7472C51.3957 14.6221 51.4608 14.5068 51.5693 14.4445L53.3678 13.3998C53.475 13.337 53.6065 13.337 53.7137 13.3998L55.5135 14.4445C55.6207 14.506 55.6871 14.6221 55.6871 14.7464V16.3934C55.6871 16.5176 55.7536 16.6337 55.8607 16.6965C55.9679 16.758 56.1008 16.758 56.208 16.6952L59.6549 14.6793Z" fill="black"/>
<path fill-rule="evenodd" clip-rule="evenodd" d="M53.5116 14.3669C53.5523 14.3427 53.6033 14.3427 53.6446 14.3669L54.7472 15.0074C54.7885 15.0314 54.8137 15.0757 54.8137 15.1235V16.4058C54.8137 16.4536 54.7885 16.4979 54.7472 16.5219L53.6446 17.1624C53.6033 17.1866 53.5523 17.1866 53.5116 17.1624L52.4096 16.5219C52.3676 16.4979 52.3418 16.4536 52.3418 16.4058V15.1235C52.3418 15.0757 52.3662 15.0314 52.4083 15.0074L53.5116 14.3669Z" fill="black"/>
<mask id="mask0_835_420" style="mask-type:luminance" maskUnits="userSpaceOnUse" x="15" y="8" width="14" height="16">
<path d="M21.7998 8.54758L16.0856 11.8685C15.8715 11.9928 15.7402 12.2222 15.7402 12.4702V19.1166C15.7402 19.3648 15.8715 19.5941 16.0856 19.7184L21.8002 23.0419C22.0138 23.1657 22.2772 23.1657 22.4905 23.0419L28.2042 19.7184C28.4171 19.5941 28.5487 19.3647 28.5487 19.1166V12.4702C28.5487 12.2222 28.4171 11.9928 28.2028 11.8685L22.49 8.54758C22.3828 8.48571 22.2635 8.45471 22.1441 8.45471C22.0248 8.45471 21.9054 8.48571 21.7983 8.54758" fill="white"/>
</mask>
<g mask="url(#mask0_835_420)">
<path d="M34.3234 11.3045L18.2218 3.35767L9.96582 20.3158L26.0671 28.263L34.3234 11.3045Z" fill="black"/>
</g>
<mask id="mask1_835_420" style="mask-type:luminance" maskUnits="userSpaceOnUse" x="15" y="8" width="14" height="16">
<path d="M15.8818 19.5386C15.9365 19.6101 16.0049 19.6719 16.0853 19.7183L20.9871 22.5692L21.8036 23.0417C21.9256 23.1127 22.0648 23.1428 22.2015 23.1325C22.2471 23.1288 22.2927 23.1202 22.3371 23.1075L28.3638 11.9964C28.3177 11.9459 28.2637 11.9036 28.2033 11.8681L24.4617 9.69254L22.4839 8.54675C22.4277 8.51397 22.3668 8.49075 22.3049 8.47437L15.8818 19.5386Z" fill="white"/>
</mask>
<g mask="url(#mask1_835_420)">
<path d="M8.9209 13.6551L20.2903 29.1491L35.3266 17.9634L23.9565 2.46985L8.9209 13.6551Z" fill="black"/>
</g>
<mask id="mask2_835_420" style="mask-type:luminance" maskUnits="userSpaceOnUse" x="16" y="8" width="13" height="16">
<path d="M22.0755 8.4584C21.9796 8.46796 21.8859 8.49801 21.7995 8.54745L16.1016 11.8588L22.2457 23.1269C22.3312 23.1147 22.4153 23.086 22.4912 23.0417L28.2054 19.7182C28.3817 19.6153 28.5025 19.441 28.5391 19.2435L22.2756 8.46974C22.2294 8.46059 22.1833 8.45581 22.1359 8.45581C22.1169 8.45581 22.0979 8.45677 22.0789 8.45854" fill="white"/>
</mask>
<g mask="url(#mask2_835_420)">
<path d="M16.1016 8.45581V23.1272H28.5368V8.45581H16.1016Z" fill="black"/>
</g>
</g>
<defs>
<clipPath id="clip0_835_420">
<rect width="60" height="37" fill="white"/>
</clipPath>
</defs>
</svg>
