<svg width="44" height="44" viewBox="0 0 44 44" fill="none" xmlns="http://www.w3.org/2000/svg">
<g clip-path="url(#clip0_406_1757)">
<path d="M0.0207753 16.4192C14.6823 16.4192 29.3063 16.4192 43.9724 16.4192C43.9812 16.5775 43.9967 16.7266 43.9967 16.8756C43.9978 23.4223 44.0039 29.9689 43.9952 36.5157C43.9901 40.3549 41.4686 43.3082 37.6874 43.9252C37.3525 43.9798 37.0076 43.9921 36.6674 43.9922C26.8772 43.9952 17.087 44.0124 7.29679 43.9838C3.77717 43.9735 0.940815 41.6411 0.174612 38.239C0.0632387 37.7443 0.012084 37.2257 0.0112148 36.7181C0.000164418 30.0628 0.00326847 23.4074 0.00351679 16.7522C0.00339263 16.6598 0.0127048 16.5673 0.0207753 16.4192ZM22.0974 21.7127C19.5999 21.7127 17.1022 21.7126 14.6047 21.7127C13.3016 21.7128 11.9984 21.7001 10.6955 21.7173C9.45609 21.7337 8.61961 22.8907 8.96888 24.073C9.21894 24.9192 9.91164 25.3672 10.9896 25.3673C18.3738 25.3686 25.7579 25.3679 33.1421 25.3677C33.2661 25.3677 33.3904 25.3673 33.5142 25.3606C34.5044 25.307 35.2506 24.5185 35.2474 23.5313C35.244 22.4943 34.4471 21.7162 33.3597 21.7148C29.6056 21.7098 25.8515 21.7129 22.0974 21.7127ZM16.4188 34.9716C16.4188 34.9708 16.4188 34.97 16.4188 34.9692C18.3252 34.9692 20.2318 34.9868 22.138 34.9621C23.166 34.9488 23.9126 34.1339 23.8995 33.1246C23.8868 32.1481 23.1217 31.3255 22.137 31.3214C18.3087 31.3055 14.4803 31.3086 10.652 31.3203C9.85763 31.3226 9.18206 31.8772 8.96689 32.6215C8.61737 33.8307 9.45199 34.9537 10.7461 34.9666C12.6369 34.9856 14.5279 34.9716 16.4188 34.9716Z" fill="black"/>
<path d="M43.9767 12.686C29.3045 12.686 14.6803 12.686 0.0262245 12.686C0.0175332 12.5272 0.00387536 12.3919 0.00375119 12.2566C0.00238541 10.6432 -0.00444349 9.02966 0.00462033 7.41625C0.0259762 3.62021 2.57676 0.653597 6.32545 0.0651405C6.63027 0.017344 6.94378 0.00927446 7.25332 0.00915032C17.0748 0.00604665 26.8961 -0.0126995 36.7174 0.0158542C40.2221 0.0260343 43.0699 2.38023 43.8313 5.77763C43.9356 6.24269 43.9821 6.72922 43.9875 7.20656C44.0066 8.92836 43.9969 10.6505 43.9968 12.3726C43.9968 12.4633 43.9855 12.5541 43.9767 12.686ZM23.8972 6.74548C23.9036 5.74262 23.1053 4.91307 22.1311 4.90997C21.0948 4.90674 20.2395 5.73306 20.2383 6.7389C20.2371 7.74722 21.0857 8.57565 22.1223 8.57814C23.0892 8.58062 23.8909 7.75269 23.8972 6.74548ZM10.1046 6.75318C10.1114 5.71891 9.3144 4.91295 8.28808 4.9163C7.29702 4.91953 6.46563 5.72959 6.4521 6.70538C6.43832 7.69334 7.25034 8.55976 8.20787 8.57876C9.25208 8.59937 10.0977 7.78546 10.1046 6.75318ZM15.1747 4.94424C14.1361 4.94523 13.3598 5.69706 13.3484 6.71333C13.337 7.72289 14.1799 8.5939 15.1542 8.57913C16.1827 8.56349 16.9948 7.7615 17.0061 6.7502C17.0178 5.71382 16.2363 4.94324 15.1747 4.94424Z" fill="black"/>
</g>
<defs>
<clipPath id="clip0_406_1757">
<rect width="44" height="44" fill="white"/>
</clipPath>
</defs>
</svg>
