<svg width="41" height="42" viewBox="0 0 41 42" fill="none" xmlns="http://www.w3.org/2000/svg">
<path d="M30.7356 30.9091C31.0124 28.6035 30.9295 28.2653 32.6468 28.6388L33.0828 28.6771C34.4034 28.7372 36.1308 28.4647 37.1456 27.9932C39.3303 26.9795 40.6257 25.2871 38.4715 25.7318C33.5578 26.7455 33.22 25.0816 33.22 25.0816C38.4086 17.3831 40.5776 7.61042 38.7054 5.21829C33.5989 -1.3066 24.7598 1.77897 24.6119 1.85908L24.5648 1.86787C23.5939 1.66633 22.5073 1.54597 21.2868 1.52623C19.0631 1.48969 17.3759 2.10917 16.096 3.07996C16.096 3.07996 0.327373 -3.4165 1.06096 11.2499C1.21697 14.3699 5.5331 34.8582 10.6809 28.6697C12.5624 26.4069 14.3807 24.4935 14.3807 24.4935C15.2836 25.0934 16.3645 25.3993 17.4983 25.2894L17.5859 25.2147C17.5585 25.4957 17.5706 25.7706 17.621 26.0959C16.2951 27.5775 16.6847 27.8378 14.0334 28.3834C11.351 28.9364 12.9269 29.9205 13.9555 30.1777C15.2029 30.4897 18.0884 30.9316 20.0387 28.202L19.961 28.5134C20.4813 28.9296 20.4461 31.5048 20.5199 33.3446C20.5937 35.1846 20.7169 36.9016 21.092 37.9138C21.467 38.926 21.9096 41.5334 25.394 40.7866C28.3062 40.1626 30.5327 39.2644 30.7356 30.9091Z" fill="#D9D9D9"/>
<path d="M38.4715 25.7316C33.5573 26.7453 33.2195 25.0815 33.2195 25.0815C38.4081 17.3824 40.5771 7.60955 38.7053 5.21771C33.5988 -1.30679 24.7593 1.77888 24.6118 1.85899L24.5643 1.86749C23.5934 1.66594 22.5068 1.54588 21.2857 1.52595C19.0621 1.48951 17.3754 2.10889 16.0955 3.07948C16.0955 3.07948 0.326578 -3.41669 1.05997 11.2496C1.21598 14.3698 5.53201 34.8581 10.68 28.6697C12.5616 26.4068 14.3796 24.4934 14.3796 24.4934C15.2826 25.0933 16.3635 25.3993 17.4968 25.2893L17.5848 25.2146C17.5575 25.4956 17.57 25.7705 17.6201 26.0958C16.2939 27.5774 16.6836 27.8377 14.0325 28.3833C11.3499 28.9363 12.9258 29.9204 13.9547 30.1777C15.2021 30.4896 18.0878 30.9315 20.0377 28.2019L19.96 28.5133C20.4796 28.9295 20.8445 31.2205 20.7833 33.2974C20.7222 35.3742 20.6813 36.8 21.0908 37.9138C21.5002 39.0275 21.9083 41.5333 25.3934 40.7866C28.3056 40.1625 29.8147 38.5453 30.0246 35.8476C30.1736 33.9299 30.5107 34.2133 30.532 32.4987L30.8024 31.6869C31.1143 29.0873 30.852 28.2485 32.6461 28.6386L33.0821 28.6769C34.4027 28.737 36.131 28.4645 37.1453 27.993C39.3296 26.9794 40.625 25.2869 38.4713 25.7316H38.4715Z" fill="black"/>
<path d="M20.2485 27.2218C20.1132 32.0593 20.2825 36.9304 20.7558 38.1142C21.2294 39.2981 22.243 41.6007 25.7284 40.8541C28.6403 40.2298 29.6998 39.0217 30.1595 36.3553C30.4981 34.3933 31.1509 28.9447 31.2346 27.8283M16.0709 2.97143C16.0709 2.97143 0.291223 -3.47794 1.02481 11.1885C1.18082 14.3085 5.49714 34.7975 10.645 28.6088C12.5262 26.3456 14.2276 24.5706 14.2276 24.5706M24.5942 1.79432C24.048 1.96558 33.3718 -1.61413 38.6706 5.15665C40.5423 7.5486 38.3733 17.3215 33.1848 25.0208" stroke="white" stroke-width="1.21776" stroke-linecap="round" stroke-linejoin="round"/>
<path d="M33.185 25.0207C33.185 25.0207 33.5232 26.685 38.4375 25.6706C40.5906 25.2259 39.2948 26.9186 37.1111 27.9327C35.3189 28.7645 31.3008 28.9776 31.2352 27.8283C31.0663 24.8628 33.3499 25.7637 33.185 25.0207ZM33.185 25.0207C33.0361 24.3514 32.0149 23.6946 31.3393 22.0568C30.7495 20.6273 23.2506 9.66442 33.4189 11.2926C33.7914 11.2155 30.7669 1.62068 21.2508 1.46466C11.7369 1.30864 12.049 13.1647 12.049 13.1647" stroke="white" stroke-width="1.21776" stroke-linecap="round" stroke-linejoin="bevel"/>
<path d="M17.5854 26.0348C16.259 27.5165 16.6491 27.7767 13.9978 28.3225C11.3152 28.8755 12.8913 29.8596 13.92 30.1167C15.1673 30.4288 18.0531 30.8707 20.003 28.1404C20.5968 27.3092 19.9995 25.9828 19.1838 25.6446C18.7897 25.4815 18.2627 25.2768 17.5854 26.0348Z" stroke="white" stroke-width="1.21776" stroke-linecap="round" stroke-linejoin="round"/>
<path d="M17.4987 26.009C17.3651 25.1378 17.785 24.1012 18.235 22.8884C18.9112 21.0688 20.4715 19.2488 19.2233 13.4767C18.293 9.17528 12.053 12.5815 12.0491 13.1647C12.0453 13.7478 12.3313 16.1209 11.9448 18.8845C11.4405 22.4907 14.2395 25.5406 17.4625 25.2286" stroke="white" stroke-width="1.21776" stroke-linecap="round" stroke-linejoin="round"/>
<path d="M16.0141 13.0773C15.986 13.2766 16.3788 13.808 16.891 13.8791C17.4023 13.9504 17.84 13.535 17.8678 13.336C17.8955 13.1368 17.5032 12.9174 16.9908 12.8461C16.4791 12.7747 16.0413 12.8786 16.0142 13.0773H16.0141Z" fill="white" stroke="white" stroke-width="0.405919"/>
<path d="M31.5891 12.6712C31.6168 12.8705 31.2245 13.4019 30.7121 13.4729C30.2004 13.5443 29.7628 13.1289 29.7347 12.9299C29.7077 12.7307 30.1001 12.5112 30.6119 12.4399C31.1237 12.3686 31.5613 12.4725 31.5891 12.6713V12.6712Z" fill="white" stroke="white" stroke-width="0.203008"/>
<path d="M33.4193 11.2926C33.5036 12.8551 33.0827 13.9194 33.0297 15.5827C32.9511 18.0005 34.1824 20.7678 32.3271 23.5385" stroke="white" stroke-width="1.21776" stroke-linecap="round" stroke-linejoin="round"/>
</svg>
