<svg width="41" height="40" viewBox="0 0 41 40" fill="none" xmlns="http://www.w3.org/2000/svg">
<g clip-path="url(#clip0_406_2285)">
<mask id="mask0_406_2285" style="mask-type:luminance" maskUnits="userSpaceOnUse" x="0" y="0" width="41" height="40">
<path d="M40.3438 0H0.34375V40H40.3438V0Z" fill="white"/>
</mask>
<g mask="url(#mask0_406_2285)">
<path d="M20.3034 0C10.0959 0 10.7332 4.42662 10.7332 4.42662L10.7445 9.01274H20.4854V10.3896H6.87559C6.87559 10.3896 0.34375 9.64879 0.34375 19.9482C0.34375 30.2479 6.04491 29.8826 6.04491 29.8826H9.44733V25.1032C9.44733 25.1032 9.26391 19.402 15.0575 19.402H24.7187C24.7187 19.402 30.1467 19.4897 30.1467 14.1561V5.33716C30.1467 5.33716 30.9711 0 20.3034 0ZM14.9323 3.08407C15.1625 3.08386 15.3904 3.12905 15.6032 3.21704C15.8159 3.30503 16.0091 3.43411 16.1719 3.59687C16.3346 3.75963 16.4637 3.95289 16.5517 4.1656C16.6397 4.3783 16.6849 4.60627 16.6847 4.83645C16.6849 5.06664 16.6397 5.29458 16.5517 5.50732C16.4637 5.72 16.3346 5.91326 16.1719 6.07605C16.0091 6.23879 15.8159 6.3679 15.6032 6.45584C15.3904 6.54384 15.1625 6.58905 14.9323 6.58884C14.7021 6.58905 14.4742 6.54384 14.2614 6.45584C14.0487 6.3679 13.8555 6.23879 13.6927 6.07605C13.53 5.91326 13.4009 5.72 13.3129 5.50732C13.2249 5.29458 13.1797 5.06664 13.1799 4.83645C13.1797 4.60627 13.2249 4.3783 13.3129 4.1656C13.4009 3.95289 13.53 3.75963 13.6927 3.59687C13.8555 3.43411 14.0487 3.30503 14.2614 3.21704C14.4742 3.12905 14.7021 3.08386 14.9323 3.08407Z" fill="black"/>
<path d="M20.5935 40C30.8012 40 30.1638 35.5733 30.1638 35.5733L30.1525 30.9874H20.4114V29.6105H34.0213C34.0213 29.6105 40.5531 30.3513 40.5531 20.0516C40.5531 9.75206 34.852 10.1173 34.852 10.1173H31.4495V14.8966C31.4495 14.8966 31.633 20.5978 25.8394 20.5978H16.1781C16.1781 20.5978 10.7501 20.5101 10.7501 25.8439V34.663C10.7501 34.663 9.92606 40 20.5935 40ZM25.9647 36.9162C25.7345 36.9164 25.5065 36.8712 25.2939 36.7832C25.0812 36.6952 24.8879 36.5662 24.7251 36.4034C24.5623 36.2406 24.4333 36.0474 24.3453 35.8347C24.2573 35.622 24.2121 35.394 24.2123 35.1638C24.2121 34.9336 24.2573 34.7056 24.3452 34.4929C24.4332 34.2802 24.5623 34.0869 24.7251 33.9241C24.8879 33.7613 25.0811 33.6323 25.2938 33.5443C25.5065 33.4563 25.7345 33.4111 25.9647 33.4113C26.1949 33.4111 26.4229 33.4563 26.6355 33.5442C26.8483 33.6322 27.0415 33.7613 27.2043 33.9241C27.3671 34.0869 27.4961 34.2801 27.5841 34.4928C27.6721 34.7055 27.7173 34.9335 27.7171 35.1636C27.7173 35.3939 27.6721 35.6218 27.5841 35.8345C27.4961 36.0472 27.3671 36.2405 27.2043 36.4032C27.0415 36.566 26.8483 36.6951 26.6355 36.7831C26.4229 36.8711 26.1949 36.9164 25.9647 36.9162Z" fill="black"/>
</g>
</g>
<defs>
<clipPath id="clip0_406_2285">
<rect width="40" height="40" fill="white" transform="translate(0.34375)"/>
</clipPath>
</defs>
</svg>
