<svg width="43" height="42" viewBox="0 0 43 42" fill="none" xmlns="http://www.w3.org/2000/svg">
<g clip-path="url(#clip0_406_2301)">
<mask id="mask0_406_2301" style="mask-type:luminance" maskUnits="userSpaceOnUse" x="2" y="0" width="41" height="40">
<path d="M42.6875 0H2.6875V40H42.6875V0Z" fill="white"/>
</mask>
<g mask="url(#mask0_406_2301)">
<mask id="mask1_406_2301" style="mask-type:luminance" maskUnits="userSpaceOnUse" x="0" y="0" width="45" height="40">
<path d="M44.6459 0H0.6875V40H44.6459V0Z" fill="white"/>
</mask>
<g mask="url(#mask1_406_2301)">
<path d="M43.2614 28.3344C42.3825 28.3571 41.498 28.4223 40.6171 28.3849C40.0146 28.3611 39.6401 28.5415 39.3116 29.0621C38.8001 29.8708 38.1891 30.6193 37.6286 31.3997C37.6038 31.4394 37.5871 31.4837 37.5796 31.5299C37.572 31.5761 37.5737 31.6235 37.5846 31.669C37.8742 32.6677 38.1674 33.6654 38.4782 34.6575C38.5287 34.8208 38.4726 34.89 38.366 34.9673L36.033 36.6589C35.702 36.899 35.3664 37.1335 35.0429 37.3831C34.9151 37.4817 34.8115 37.4843 34.6891 37.3953C33.8881 36.8353 33.0749 36.292 32.291 35.7088C32.0701 35.5445 31.8867 35.5571 31.6719 35.6274C30.6105 35.9711 29.5491 36.3158 28.4954 36.6746C28.4084 36.7039 28.3311 36.8312 28.2957 36.9273C27.9293 37.9497 27.5755 38.9701 27.2217 39.9814H24.9727V29.191C27.9369 29.1217 30.3588 27.9335 32.2 25.6325C33.5692 23.9191 34.205 21.9268 34.1332 19.7338C34.0523 17.2649 33.1224 15.1574 31.3454 13.4269C29.5684 11.6963 27.4401 10.87 24.9772 10.8104V0.0173496C25.0813 0.0112847 25.1794 0.000165687 25.2805 0.000165687C25.8531 0.000165687 26.4257 0.0138117 26.9989 0.000165687C27.1869 -0.00387757 27.2662 0.0658685 27.3228 0.232653C27.6443 1.17625 27.9697 2.11883 28.3074 3.05687C28.3458 3.16352 28.4519 3.28785 28.554 3.32272C29.6659 3.69975 30.7808 4.0655 31.8988 4.41996C31.9493 4.43006 32.0014 4.43008 32.052 4.42001C32.1025 4.40996 32.1506 4.39002 32.1934 4.36133C33.0233 3.79224 33.8495 3.21591 34.672 2.63233C34.816 2.53125 34.9176 2.50952 35.0707 2.62222C36.1452 3.41234 37.2243 4.1959 38.3079 4.97288C38.4944 5.1063 38.5606 5.2089 38.4726 5.45605C38.2128 6.19395 37.9965 6.947 37.7651 7.695C37.6925 7.90545 37.6351 8.1208 37.5932 8.3394C37.5781 8.43745 37.6281 8.5663 37.6887 8.65225C38.2169 9.40075 38.7536 10.1432 39.2878 10.8867C39.346 10.968 39.4228 11.0382 39.4642 11.1283C39.6487 11.5219 39.9514 11.6306 40.374 11.618C41.3342 11.5892 42.2945 11.6089 43.2513 11.6089C43.5307 12.4656 43.791 13.26 44.0503 14.0546C44.2368 14.6282 44.4167 15.2038 44.6123 15.773C44.6629 15.919 44.6629 16.0003 44.5239 16.1055C43.69 16.7332 42.8651 17.373 42.0418 18.0154C41.9778 18.0712 41.9385 18.1501 41.9326 18.2348C41.9235 19.4139 41.9185 20.5935 41.9296 21.7726C41.9296 21.8803 42.0261 22.0172 42.1176 22.0885C42.9091 22.7031 43.7068 23.3096 44.5107 23.908C44.6462 24.0091 44.6624 24.0828 44.6118 24.239C44.2136 25.4398 43.8289 26.6448 43.4377 27.8482C43.3872 28.0069 43.3245 28.1615 43.2614 28.3344Z" fill="black"/>
<path d="M23.0699 8.6067V13.3232H26.6108C26.6244 13.3952 26.634 13.468 26.6396 13.541C26.6396 14.0717 26.6366 14.6024 26.6436 15.1331C26.6436 15.2887 26.6108 15.3565 26.4354 15.3555C24.717 15.3497 22.9986 15.3497 21.2802 15.3555C21.0498 15.3555 21.069 15.2281 21.069 15.0805C21.069 13.6906 21.0644 12.3008 21.0745 10.9114C21.0745 10.6648 21.021 10.5854 20.7551 10.5859C17.6812 10.597 14.6072 10.5979 11.533 10.5885C11.3399 10.5885 11.2484 10.6547 11.1741 10.8199C10.9096 11.4005 10.4578 11.8755 9.89123 12.1688C9.32458 12.462 8.67593 12.5566 8.04918 12.4372C6.79324 12.1845 5.98155 11.4168 5.73441 10.1882C5.29622 8.00935 7.20009 6.35865 9.14693 6.76755C10.1026 6.9697 10.7875 7.52565 11.1928 8.41215C11.2701 8.58095 11.3818 8.60975 11.5466 8.60975C15.2694 8.6057 18.9926 8.6047 22.7161 8.6067H23.0699ZM7.67012 9.6029C7.67012 10.0739 8.07443 10.4752 8.55558 10.4813C9.03673 10.4874 9.46938 10.0649 9.46533 9.5933C9.46128 9.12175 9.04333 8.71385 8.57378 8.7083C8.33653 8.711 8.10963 8.80585 7.94098 8.9728C7.77233 9.1397 7.67522 9.36565 7.67012 9.6029Z" fill="black"/>
<path d="M26.6351 25.8448H26.2813C25.3549 25.8448 24.4285 25.8529 23.5016 25.8413C23.2756 25.8388 23.216 25.9111 23.217 26.1294C23.2246 27.7123 23.2211 29.2953 23.2211 30.8802V31.2062H22.9203C21.8509 31.2062 20.7814 31.2113 19.7125 31.2017C19.5301 31.2017 19.4421 31.2648 19.3698 31.4205C18.8255 32.5905 17.6515 33.2086 16.3672 33.057C14.9521 32.8897 13.8099 31.5711 13.8715 30.1257C13.9266 28.8293 14.5735 27.9448 15.7471 27.4814C17.1733 26.9188 18.7452 27.6279 19.3506 28.9309C19.4416 29.126 19.5528 29.2063 19.7721 29.1957C20.1588 29.1775 20.5474 29.1765 20.9346 29.1957C21.1777 29.2078 21.2297 29.1148 21.2282 28.8925C21.2151 27.3257 21.2151 25.7589 21.209 24.1922C21.209 23.8293 21.2055 23.8293 21.5603 23.8293C23.1513 23.8293 24.7444 23.8338 26.3344 23.8232C26.5775 23.8232 26.6502 23.8904 26.6427 24.1335C26.623 24.692 26.6351 25.2535 26.6351 25.8448ZM16.7533 31.0708C17.2456 31.0708 17.659 30.672 17.659 30.1929C17.659 29.7213 17.231 29.3018 16.7523 29.3054C16.2737 29.3089 15.8669 29.7178 15.8613 30.1828C15.863 30.4184 15.9577 30.6439 16.1247 30.8102C16.2918 30.9765 16.5177 31.0701 16.7533 31.0708Z" fill="black"/>
<path d="M18.515 37.1168H17.6023C16.6167 37.1168 15.6312 37.1199 14.6456 37.1138C14.4743 37.1138 14.3894 37.1548 14.3121 37.3306C13.8198 38.4501 12.5659 39.1319 11.3564 38.9697C10.1182 38.8034 9.28831 38.1104 8.92541 36.9409C8.49326 35.5495 9.13871 34.1188 10.4598 33.485C11.9943 32.7491 13.7591 33.5355 14.3555 34.9572C14.3874 35.0341 14.5577 35.0917 14.6633 35.0922C16.4828 35.1003 18.3023 35.0982 20.1217 35.0982C20.5058 35.0982 20.5058 35.0982 20.5058 35.4753C20.5058 36.2167 20.5144 36.9581 20.5008 37.6991C20.4967 37.926 20.5725 37.9872 20.7904 37.9826C21.4221 37.9705 22.0539 37.9826 22.6857 37.9755C22.8651 37.9755 22.9444 38.016 22.9384 38.2126C22.9272 38.7347 22.9328 39.2573 22.9348 39.7793C22.9348 39.9112 22.9222 40.0012 22.7473 40.0001C21.3494 39.9946 19.9514 39.9972 18.514 39.9972L18.515 37.1168ZM11.6834 36.9829C11.8009 36.9855 11.9177 36.9646 12.027 36.9215C12.1362 36.8783 12.2357 36.8137 12.3197 36.7314C12.4036 36.6492 12.4702 36.551 12.5156 36.4427C12.561 36.3343 12.5843 36.2179 12.5841 36.1004C12.5797 35.8682 12.4859 35.6466 12.3221 35.4818C12.1584 35.317 11.9374 35.2218 11.7052 35.216C11.589 35.2146 11.4737 35.236 11.3659 35.2791C11.258 35.3223 11.1597 35.3863 11.0766 35.4674C10.9934 35.5485 10.9271 35.6452 10.8813 35.752C10.8355 35.8587 10.8113 35.9735 10.8098 36.0896C10.8084 36.2058 10.8299 36.321 10.873 36.4289C10.9161 36.5368 10.9801 36.6351 11.0612 36.7182C11.1423 36.8013 11.239 36.8676 11.3458 36.9134C11.4525 36.9592 11.5673 36.9835 11.6834 36.9849V36.9829Z" fill="black"/>
<path d="M13.4239 15.7588V13.4238H15.3884V17.7784H15.0538C12.2402 17.7784 9.42662 17.7819 6.61352 17.7718C6.38154 17.7718 6.27288 17.8517 6.17533 18.0442C5.62696 19.1258 4.72279 19.6904 3.5275 19.6661C2.35496 19.6418 1.47504 19.0596 0.964074 17.9841C0.781144 17.5973 0.686989 17.1745 0.688494 16.7467C0.690004 16.3188 0.787134 15.8967 0.972784 15.5112C1.15843 15.1257 1.4279 14.7866 1.76149 14.5186C2.09507 14.2507 2.48433 14.0607 2.9008 13.9626C4.22547 13.6361 5.54256 14.2254 6.16826 15.4854C6.26176 15.6729 6.35981 15.7679 6.59937 15.7664C8.76452 15.7532 10.9292 15.7588 13.0939 15.7588H13.4239ZM3.60382 15.8917C3.36639 15.8886 3.1374 15.9796 2.96692 16.1449C2.79644 16.3102 2.69834 16.5362 2.69408 16.7736C2.69408 17.2427 3.10346 17.6551 3.57703 17.6616C3.69539 17.667 3.81361 17.6485 3.9247 17.6073C4.03578 17.5662 4.13747 17.5031 4.22372 17.4219C4.30998 17.3406 4.37904 17.2429 4.42683 17.1345C4.47461 17.0261 4.50014 16.9092 4.5019 16.7907C4.50366 16.6723 4.48162 16.5547 4.43707 16.4449C4.39253 16.3351 4.3264 16.2354 4.2426 16.1516C4.15879 16.0679 4.05903 16.0018 3.94921 15.9573C3.8394 15.9129 3.72177 15.8909 3.60331 15.8927L3.60382 15.8917Z" fill="black"/>
<path d="M12.527 26.8679C12.431 26.873 12.3567 26.88 12.2829 26.88C10.9946 26.88 9.70533 26.88 8.41808 26.8659C8.19568 26.8628 8.09158 26.9417 7.99908 27.1262C7.45375 28.2093 6.55008 28.7834 5.3558 28.7576C4.91161 28.7526 4.47461 28.6448 4.07904 28.4426C3.68347 28.2405 3.34007 27.9495 3.07573 27.5925C2.81138 27.2355 2.63328 26.8221 2.55536 26.3848C2.47744 25.9475 2.50182 25.498 2.6266 25.0717C2.93995 24.0209 3.63741 23.33 4.68159 23.0602C6.0007 22.7195 7.34408 23.2942 7.97838 24.5592C8.08448 24.771 8.19518 24.866 8.44888 24.8579C9.13678 24.8357 9.82563 24.8503 10.5403 24.8503V21.5146H14.7882V23.4857H13.9947C13.599 23.4857 13.2028 23.4978 12.808 23.4807C12.5872 23.4711 12.5351 23.558 12.5366 23.7586C12.5437 24.7017 12.5402 25.6448 12.5392 26.5889C12.5392 26.6764 12.5316 26.7663 12.527 26.8679ZM6.29738 25.8697C6.30041 25.3901 5.90619 25.008 5.42555 24.9827C4.92014 24.9565 4.52491 25.3921 4.50722 25.8571C4.48953 26.3221 4.93176 26.7567 5.40988 26.7532C5.64316 26.7487 5.86569 26.6543 6.03105 26.4897C6.19641 26.3251 6.29182 26.103 6.29738 25.8697Z" fill="black"/>
<path d="M29.7186 19.0114C29.7186 19.6401 29.7186 20.2451 29.7186 20.85C29.7186 21.0441 29.575 21.0016 29.4659 21.0016C28.5561 21.0102 27.6464 21.0143 26.7367 21.0209C25.7602 21.0279 24.7838 21.0416 23.8053 21.0436C23.1725 21.0436 22.5418 21.037 21.9075 21.0168C21.7053 21.0102 21.5911 21.0603 21.5032 21.2513C21.1352 22.0393 20.5151 22.5351 19.6837 22.7847C18.5854 23.1148 17.3113 22.6983 16.6007 21.7658C16.3249 21.4105 16.136 20.9956 16.0488 20.5543C15.9617 20.113 15.9788 19.6575 16.0988 19.224C16.2189 18.7905 16.4384 18.391 16.7401 18.0573C17.0418 17.7236 17.4172 17.465 17.8364 17.3021C19.2364 16.7497 20.7461 17.3354 21.4521 18.6495C21.583 18.8941 21.7094 18.9901 21.997 18.9886C24.4735 18.98 26.9499 18.9911 29.4264 18.9972C29.5154 18.9992 29.6059 19.0068 29.7186 19.0114ZM19.7924 19.9974C19.7924 19.5375 19.3678 19.1074 18.9079 19.0993C18.448 19.0912 17.9951 19.5395 17.9982 20.0025C18.0012 20.4654 18.4303 20.892 18.8877 20.896C19.3597 20.9011 19.7924 20.472 19.7924 19.9974Z" fill="black"/>
<path d="M22.9364 2.10354V3.59146C22.9364 4.109 22.9364 4.109 22.4144 4.109C21.3121 4.109 20.2093 4.11304 19.107 4.10496C18.9174 4.10496 18.8194 4.16864 18.7456 4.33997C18.2341 5.52665 16.8003 6.2398 15.5464 5.94315C14.3592 5.6606 13.5758 4.9217 13.3155 3.75016C12.9956 2.32087 13.7011 0.96688 15.0844 0.420029C16.4677 -0.126822 17.987 0.446311 18.6476 1.70124C18.8315 2.05098 19.0312 2.11668 19.3789 2.11112C20.5464 2.09192 21.7154 2.10354 22.9364 2.10354ZM16.1271 2.23495C16.0121 2.23389 15.8981 2.25556 15.7915 2.29874C15.685 2.34191 15.588 2.40574 15.5063 2.48654C15.4245 2.56733 15.3595 2.66351 15.315 2.76952C15.2706 2.87553 15.2475 2.98929 15.2472 3.10425C15.2459 3.34016 15.3384 3.56692 15.5043 3.73464C15.6702 3.90236 15.896 3.99729 16.1319 3.99857C16.3678 3.99985 16.5946 3.90735 16.7623 3.74143C16.93 3.57552 17.0249 3.34977 17.0262 3.11385C17.0268 2.99655 17.0038 2.88034 16.9586 2.77211C16.9133 2.66388 16.8468 2.56586 16.7629 2.48386C16.679 2.40187 16.5795 2.33757 16.4703 2.29482C16.361 2.25206 16.2443 2.2317 16.1271 2.23495Z" fill="black"/>
</g>
</g>
</g>
<defs>
<clipPath id="clip0_406_2301">
<rect width="42" height="42" fill="white" transform="translate(0.6875)"/>
</clipPath>
</defs>
</svg>
