<svg width="40" height="36" viewBox="0 0 40 36" fill="none" xmlns="http://www.w3.org/2000/svg">
<g clip-path="url(#clip0_836_487)">
<path d="M20.0008 21.3596C21.9698 21.3596 23.566 19.7634 23.566 17.7943C23.566 15.8253 21.9698 14.2291 20.0008 14.2291C18.0317 14.2291 16.4355 15.8253 16.4355 17.7943C16.4355 19.7634 18.0317 21.3596 20.0008 21.3596Z" fill="black"/>
<path d="M19.9996 25.0986C30.565 25.0986 39.13 21.8284 39.13 17.7943C39.13 13.7602 30.565 10.4899 19.9996 10.4899C9.43413 10.4899 0.869141 13.7602 0.869141 17.7943C0.869141 21.8284 9.43413 25.0986 19.9996 25.0986Z" stroke="black" stroke-width="1.73913"/>
<path d="M13.6745 21.4465C18.9572 30.5964 26.0718 36.3788 29.5654 34.3618C33.059 32.3447 31.6087 23.2921 26.326 14.1421C21.0432 4.9922 13.9286 -0.790159 10.435 1.22688C6.94138 3.24392 8.39173 12.2966 13.6745 21.4465Z" stroke="black" stroke-width="1.73913"/>
<path d="M13.6749 14.1422C8.39216 23.2921 6.9418 32.3448 10.4354 34.3618C13.929 36.3788 21.0437 30.5965 26.3264 21.4465C31.6091 12.2966 33.0595 3.24396 29.5659 1.22692C26.0722 -0.790124 18.9576 4.99224 13.6749 14.1422Z" stroke="black" stroke-width="1.73913"/>
</g>
<defs>
<clipPath id="clip0_836_487">
<rect width="40" height="35.5887" fill="white"/>
</clipPath>
</defs>
</svg>
