<svg width="66" height="66" viewBox="0 0 66 66" fill="none" xmlns="http://www.w3.org/2000/svg">
<g clip-path="url(#clip0_862_1891)">
<mask id="mask0_862_1891" style="mask-type:luminance" maskUnits="userSpaceOnUse" x="0" y="0" width="66" height="66">
<path d="M65.0996 0.0996094H0.0996094V65.0996H65.0996V0.0996094Z" fill="white"/>
</mask>
<g mask="url(#mask0_862_1891)">
<path d="M18.4171 27.4303C18.4171 28.216 18.5036 28.8531 18.6549 29.3202C18.8279 29.7874 19.0441 30.2971 19.3467 30.8492C19.4548 31.0191 19.4981 31.189 19.4981 31.3376C19.4981 31.55 19.3684 31.7623 19.0873 31.9747L17.7254 32.8666C17.5308 32.994 17.3362 33.0577 17.1633 33.0577C16.9471 33.0577 16.7309 32.9515 16.5147 32.7604C16.2121 32.4418 15.9527 32.1021 15.7365 31.7623C15.5203 31.4013 15.3041 30.9978 15.0663 30.5094C13.3801 32.4631 11.2615 33.4399 8.71055 33.4399C6.89459 33.4399 5.44616 32.9303 4.38687 31.911C3.32757 30.8916 2.78711 29.5326 2.78711 27.8338C2.78711 26.0287 3.43566 24.5635 4.75437 23.4592C6.07308 22.355 7.82418 21.8029 10.0508 21.8029C10.7859 21.8029 11.5425 21.8666 12.3424 21.9728C13.1423 22.0789 13.9638 22.2488 14.8285 22.4399V20.8897C14.8285 19.2758 14.4826 18.1503 13.8124 17.492C13.1207 16.8338 11.9533 16.5152 10.2887 16.5152C9.53201 16.5152 8.75377 16.6001 7.9539 16.7913C7.15403 16.9824 6.37575 17.216 5.6191 17.5133C5.27321 17.6619 5.01381 17.7469 4.86246 17.7894C4.71114 17.8318 4.60305 17.8531 4.51657 17.8531C4.21392 17.8531 4.06259 17.6407 4.06259 17.1947V16.1542C4.06259 15.8144 4.10582 15.5596 4.21392 15.411C4.32201 15.2623 4.51657 15.1137 4.81923 14.965C5.57588 14.5828 6.48384 14.2643 7.54315 14.0094C8.60242 13.7334 9.72659 13.606 10.9156 13.606C13.4882 13.606 15.369 14.1793 16.5796 15.326C17.7686 16.4727 18.3739 18.214 18.3739 20.55V27.4303H18.4171ZM9.6401 30.6581C10.3535 30.6581 11.0885 30.5307 11.8668 30.2758C12.645 30.021 13.3368 29.5538 13.9205 28.9168C14.2664 28.5133 14.5259 28.0673 14.6556 27.5577C14.7853 27.0481 14.8718 26.4322 14.8718 25.7102V24.8183C14.2448 24.6697 13.5746 24.5423 12.8829 24.4573C12.1911 24.3724 11.5209 24.3299 10.8507 24.3299C9.40234 24.3299 8.34302 24.606 7.6296 25.1793C6.91622 25.7526 6.57033 26.5596 6.57033 27.6214C6.57033 28.6195 6.82973 29.3627 7.3702 29.8723C7.88904 30.4033 8.64569 30.6581 9.6401 30.6581ZM26.9996 32.9515C26.6105 32.9515 26.3511 32.8878 26.1781 32.7392C26.0052 32.6117 25.8538 32.3144 25.7242 31.911L20.6439 15.4959C20.5141 15.0712 20.4493 14.7951 20.4493 14.6465C20.4493 14.3067 20.6222 14.1156 20.9681 14.1156H23.0867C23.4974 14.1156 23.7785 14.1793 23.9298 14.328C24.1028 14.4554 24.2325 14.7527 24.3622 15.1562L27.9941 29.214L31.3665 15.1562C31.4746 14.7314 31.6043 14.4554 31.7773 14.328C31.9502 14.2005 32.2529 14.1156 32.642 14.1156H34.3715C34.7822 14.1156 35.0633 14.1793 35.2362 14.328C35.4092 14.4554 35.5605 14.7527 35.647 15.1562L39.0626 29.3839L42.8026 15.1562C42.9323 14.7314 43.0837 14.4554 43.235 14.328C43.4079 14.2005 43.689 14.1156 44.0781 14.1156H46.0886C46.4345 14.1156 46.6292 14.2855 46.6292 14.6465C46.6292 14.7527 46.6074 14.8588 46.586 14.9862C46.5642 15.1137 46.521 15.2836 46.4345 15.5171L41.2245 31.9322C41.0948 32.3569 40.9434 32.633 40.7705 32.7604C40.5976 32.8878 40.3165 32.9728 39.949 32.9728H38.0898C37.6791 32.9728 37.398 32.9091 37.2251 32.7604C37.0521 32.6117 36.9008 32.3357 36.8143 31.911L33.4635 18.214L30.1343 31.8897C30.0262 32.3144 29.8965 32.5905 29.7235 32.7392C29.5506 32.8878 29.2479 32.9515 28.8588 32.9515H26.9996ZM54.7793 33.5249C53.6548 33.5249 52.5308 33.3974 51.4499 33.1426C50.369 32.8878 49.5259 32.6117 48.9637 32.2932C48.6178 32.1021 48.3801 31.8897 48.2937 31.6986C48.2073 31.5075 48.1642 31.2952 48.1642 31.104V30.021C48.1642 29.5751 48.3369 29.3627 48.6614 29.3627C48.7909 29.3627 48.9205 29.3839 49.0505 29.4264C49.18 29.4689 49.3745 29.5538 49.5909 29.6388C50.3259 29.9573 51.1258 30.2121 51.969 30.382C52.8335 30.5519 53.6766 30.6368 54.5416 30.6368C55.9033 30.6368 56.9628 30.4033 57.6978 29.936C58.4328 29.4689 58.8218 28.7894 58.8218 27.9187C58.8218 27.3241 58.6273 26.8357 58.2382 26.4322C57.8492 26.0287 57.1137 25.6677 56.0547 25.328L52.9198 24.3724C51.3417 23.8839 50.1745 23.1619 49.4609 22.2063C48.7478 21.272 48.3801 20.2314 48.3801 19.1272C48.3801 18.2353 48.5746 17.4496 48.9637 16.77C49.3532 16.0905 49.8718 15.4959 50.5204 15.0287C51.169 14.5403 51.904 14.1793 52.7685 13.9245C53.6334 13.6697 54.5416 13.5635 55.4924 13.5635C55.9683 13.5635 56.4656 13.5847 56.941 13.6484C57.4383 13.7121 57.8923 13.7971 58.3464 13.882C58.7787 13.9882 59.1891 14.0944 59.5786 14.2218C59.9677 14.3492 60.2704 14.4766 60.4863 14.604C60.789 14.7739 61.0054 14.9438 61.1349 15.1349C61.2644 15.3048 61.3294 15.5384 61.3294 15.8357V16.8338C61.3294 17.2797 61.1567 17.5133 60.8322 17.5133C60.6595 17.5133 60.3781 17.4283 60.0109 17.2584C58.7787 16.7063 57.3951 16.4303 55.8602 16.4303C54.6279 16.4303 53.6548 16.6214 52.9848 17.0249C52.3149 17.4283 51.969 18.0442 51.969 18.9148C51.969 19.5094 52.1849 20.0191 52.6171 20.4226C53.0498 20.826 53.8498 21.2295 54.9952 21.5905L58.065 22.5461C59.6218 23.0345 60.7458 23.7141 61.4158 24.5847C62.0862 25.4554 62.4103 26.4534 62.4103 27.5577C62.4103 28.4708 62.2158 29.299 61.8485 30.021C61.4594 30.743 60.9404 31.3801 60.2704 31.8897C59.6 32.4206 58.8 32.8029 57.8705 33.0789C56.8978 33.3762 55.8815 33.5249 54.7793 33.5249Z" fill="#252F3E"/>
<path fill-rule="evenodd" clip-rule="evenodd" d="M58.8652 43.8457C51.7528 49.0059 41.4191 51.7452 32.534 51.7452C20.0819 51.7452 8.86193 47.2221 0.387569 39.7048C-0.282599 39.1101 0.322714 38.3032 1.12259 38.7704C10.2888 43.9943 21.5952 47.1585 33.2907 47.1585C41.1813 47.1585 49.8501 45.5445 57.8275 42.2318C59.0165 41.7009 60.0324 42.9963 58.8652 43.8457Z" fill="#FF9900"/>
<path fill-rule="evenodd" clip-rule="evenodd" d="M61.8266 40.5329C60.9185 39.3862 55.8169 39.9808 53.5034 40.2569C52.8116 40.3418 52.7039 39.7472 53.3307 39.3013C57.395 36.4982 64.0747 37.3051 64.8533 38.2395C65.6315 39.1951 64.637 45.7569 60.8321 48.8996C60.2485 49.388 59.6863 49.1331 59.9458 48.4961C60.8108 46.394 62.7348 41.6584 61.8266 40.5329Z" fill="#FF9900"/>
</g>
</g>
<defs>
<clipPath id="clip0_862_1891">
<rect width="65" height="65" fill="white" transform="translate(0.0996094 0.0996094)"/>
</clipPath>
</defs>
</svg>
