<svg width="66" height="66" viewBox="0 0 66 66" fill="none" xmlns="http://www.w3.org/2000/svg">
<g clip-path="url(#clip0_862_1887)">
<path d="M30.1702 55.1859C38.5212 53.7108 45.4186 52.4897 45.4979 52.473L45.6419 52.4424L37.7577 43.0646C33.4214 37.9067 29.8736 33.6666 29.8736 33.6422C29.8736 33.5959 38.0147 11.1772 38.0604 11.0974C38.0757 11.0708 43.6159 20.6358 51.4905 34.2838C58.8624 47.0613 64.9404 57.5964 64.997 57.6949L65.0996 57.8745L40.0431 57.8713L14.9866 57.868L30.1702 55.1859ZM0.0996094 52.3259C0.0996094 52.3129 3.81459 45.8639 8.35512 37.9951L16.6106 23.6882L26.2315 15.6144C31.5229 11.1738 35.8666 7.53514 35.884 7.5285C35.9014 7.52186 35.8318 7.69704 35.7293 7.91781C35.6268 8.13857 30.9257 18.2219 25.2824 30.3253L15.0219 52.3314L7.56073 52.3407C3.45712 52.3458 0.0996094 52.3393 0.0996094 52.3259Z" fill="#0089D6"/>
</g>
<defs>
<clipPath id="clip0_862_1887">
<rect width="65" height="65" fill="white" transform="translate(0.0996094 0.0996094)"/>
</clipPath>
</defs>
</svg>
