<svg width="66" height="66" viewBox="0 0 66 66" fill="none" xmlns="http://www.w3.org/2000/svg">
<g clip-path="url(#clip0_862_1883)">
<path d="M55.8371 0.0996094H9.19961C5.94961 0.0996094 3.34961 2.69961 3.34961 5.94961V59.2496C3.34961 62.4996 5.94961 65.0996 9.19961 65.0996H55.8371C59.0871 65.0996 61.6871 62.4996 61.6871 59.2496V5.94961C61.6871 2.69961 59.0871 0.0996094 55.8371 0.0996094ZM58.4371 59.2496C58.4371 60.7121 57.2996 61.8496 55.8371 61.8496H9.19961C7.73711 61.8496 6.59961 60.7121 6.59961 59.2496V5.94961C6.59961 4.48711 7.73711 3.34961 9.19961 3.34961H55.8371C57.2996 3.34961 58.4371 4.48711 58.4371 5.94961V59.2496ZM17.9746 55.3496L25.2871 48.8496L17.9746 42.3496V55.3496ZM44.2996 29.0246C42.9996 27.7246 40.5621 26.0996 36.4996 26.0996C32.1121 26.0996 27.5621 27.2371 24.3121 28.3746V9.84961H17.8121V37.9621L22.3621 35.8496C22.3621 35.8496 29.8371 32.4371 36.3371 32.4371C39.5871 32.4371 40.3996 34.2246 40.3996 35.8496V55.3496H46.8996V35.8496C47.0621 35.3621 47.0621 31.7871 44.2996 29.0246ZM35.6871 20.4121H42.1871C45.1121 16.9996 46.5746 13.5871 47.0621 9.84961H40.5621C39.9121 13.5871 38.2871 16.9996 35.6871 20.4121Z" fill="#430098"/>
</g>
<defs>
<clipPath id="clip0_862_1883">
<rect width="65" height="65" fill="white" transform="translate(0.0996094 0.0996094)"/>
</clipPath>
</defs>
</svg>
