<svg width="576" height="317" viewBox="0 0 576 317" fill="none" xmlns="http://www.w3.org/2000/svg">
<g clip-path="url(#clip0_889_749)">
<path opacity="0.5" d="M166.562 172.543H94.0977V298.342H166.562H186.377H271.569V78.9746H166.562V172.543Z" fill="#D4E0FF" fill-opacity="0.3"/>
<path opacity="0.5" d="M391.016 180.166V0H286.009V298.342H386.875H391.016H468.099V180.166H391.016Z" fill="#D4E0FF" fill-opacity="0.3"/>
<path d="M576 294.358H0V297.014H576V294.358Z" fill="#516092"/>
<path d="M379.324 109.77H126.202V308.82H379.324V109.77Z" fill="#717786"/>
<path d="M379.324 132.319H126.202V308.82H379.324V132.319Z" fill="#3D3D3D"/>
<path d="M135.267 124.311C137.304 124.311 138.956 122.658 138.956 120.619C138.956 118.581 137.304 116.928 135.267 116.928C133.229 116.928 131.577 118.581 131.577 120.619C131.577 122.658 133.229 124.311 135.267 124.311Z" fill="#C9C9C9"/>
<path d="M154.67 120.619C154.67 122.665 153.011 124.311 150.981 124.311C148.937 124.311 147.291 122.651 147.291 120.619C147.291 118.574 148.95 116.928 150.981 116.928C153.011 116.928 154.67 118.574 154.67 120.619Z" fill="#C9C9C9"/>
<path d="M170.371 120.619C170.371 122.665 168.712 124.311 166.682 124.311C164.638 124.311 162.992 122.651 162.992 120.619C162.992 118.574 164.651 116.928 166.682 116.928C168.712 116.928 170.371 118.574 170.371 120.619Z" fill="#C9C9C9"/>
<path d="M292.246 127.259H188.062C184.585 127.259 181.758 124.431 181.758 120.951C181.758 117.472 184.585 114.644 188.062 114.644H292.246C295.724 114.644 298.55 117.472 298.55 120.951C298.55 124.444 295.724 127.259 292.246 127.259Z" fill="#C9C9C9"/>
<path d="M363.902 127.259H314.583C311.106 127.259 308.279 124.431 308.279 120.951C308.279 117.472 311.106 114.644 314.583 114.644H363.902C367.379 114.644 370.206 117.472 370.206 120.951C370.219 124.444 367.392 127.259 363.902 127.259Z" fill="#C9C9C9"/>
<path d="M236.452 210.961H146.402V261.809H236.452V210.961Z" fill="#717786"/>
<path d="M236.452 148.547H146.402V199.395H236.452V148.547Z" fill="#717786"/>
<path d="M235.668 274.664H147.185V278.648H235.668V274.664Z" fill="#717786"/>
<path d="M235.668 287.944H147.185V291.928H235.668V287.944Z" fill="#717786"/>
<path d="M356.072 274.664H267.588V278.648H356.072V274.664Z" fill="#717786"/>
<path d="M356.072 287.944H267.588V291.928H356.072V287.944Z" fill="#717786"/>
<path d="M380.651 310.161H124.875V108.442H380.651V310.161ZM127.529 307.505H377.996V111.098H127.529V307.505Z" fill="#516092"/>
<path d="M441.303 280.202H415.33V61.5249H441.303V280.202ZM417.984 277.546H438.649V64.1808H417.984V277.546Z" fill="#516092"/>
<path d="M444.847 267.546H411.773V291.263H444.847V267.546Z" fill="#3D3D3D"/>
<path d="M440.109 254.97H417.109C416.578 254.97 416.1 254.652 415.888 254.174C415.676 253.696 415.768 253.125 416.127 252.739L438.251 228.836L440.202 230.642L420.148 252.314H440.109V254.97Z" fill="#516092"/>
<path d="M440.109 231.014H417.109C416.578 231.014 416.1 230.695 415.888 230.217C415.676 229.739 415.768 229.168 416.127 228.783L438.251 204.879L440.202 206.685L420.148 228.358H440.109V231.014Z" fill="#516092"/>
<path d="M440.109 207.07H417.109C416.578 207.07 416.1 206.752 415.888 206.274C415.676 205.796 415.768 205.225 416.127 204.84L438.251 180.936L440.202 182.742L420.148 204.415H440.109V207.07Z" fill="#516092"/>
<path d="M440.109 183.127H417.109C416.578 183.127 416.1 182.808 415.888 182.33C415.676 181.852 415.768 181.281 416.127 180.896L438.251 156.993L440.202 158.799L420.148 180.471H440.109V183.127Z" fill="#516092"/>
<path d="M440.109 159.171H417.109C416.578 159.171 416.1 158.852 415.888 158.374C415.676 157.896 415.768 157.325 416.127 156.94L438.251 133.036L440.202 134.842L420.148 156.515H440.109V159.171Z" fill="#516092"/>
<path d="M440.109 135.227H417.109C416.578 135.227 416.1 134.909 415.888 134.43C415.676 133.952 415.768 133.381 416.127 132.996L438.251 109.093L440.202 110.899L420.148 132.571H440.109V135.227Z" fill="#516092"/>
<path d="M440.109 111.271H417.109C416.578 111.271 416.1 110.952 415.888 110.474C415.676 109.996 415.768 109.425 416.127 109.04L438.251 85.1362L440.202 86.9423L420.148 108.615H440.109V111.271Z" fill="#516092"/>
<path d="M440.109 87.3273H417.109C416.578 87.3273 416.1 87.0086 415.888 86.5306C415.676 86.0525 415.768 85.4815 416.127 85.0964L438.251 61.1929L440.202 62.9989L420.148 84.6714H440.109V87.3273Z" fill="#516092"/>
<path d="M441.263 52.2954H399.165V87.8054H441.263V52.2954Z" fill="#ED7445"/>
<path d="M504.517 52.2954H462.419V72.693H504.517V52.2954Z" fill="#ED7445"/>
<path d="M503.814 54.8849H295.897C295.167 54.8849 294.569 54.2874 294.569 53.557C294.569 52.8266 295.167 52.229 295.897 52.229H503.827C504.557 52.229 505.154 52.8266 505.154 53.557C505.141 54.2874 504.557 54.8849 503.814 54.8849Z" fill="#516092"/>
<path d="M306.886 59.7583H305.559V146.076H306.886V59.7583Z" fill="#516092"/>
<path d="M456.128 287.027H400.492V297.465H456.128V287.027Z" fill="#516092"/>
<path d="M420.36 54.5396C420.188 54.5396 420.015 54.4732 419.896 54.3405L408.814 43.2519H307.164L296.746 53.6765C296.48 53.9421 296.069 53.9421 295.804 53.6765C295.538 53.4109 295.538 52.9992 295.804 52.7336L306.62 41.9106H409.358L420.838 53.3976C421.103 53.6632 421.103 54.0749 420.838 54.3405C420.705 54.4732 420.533 54.5396 420.36 54.5396Z" fill="#516092"/>
<path d="M504.703 54.5397C504.464 54.5397 504.239 54.4069 504.119 54.1812L493.024 32.9735H466.109L455.677 53.5039C455.504 53.8359 455.106 53.9554 454.788 53.7961C454.456 53.6234 454.336 53.225 454.496 52.9063L465.299 31.6455H493.82L505.287 53.5703C505.46 53.889 505.327 54.3007 505.008 54.46C504.916 54.5132 504.809 54.5397 504.703 54.5397Z" fill="#516092"/>
<path d="M311.079 59.7584C311.079 62.4542 308.903 64.6321 306.209 64.6321C303.514 64.6321 301.338 62.4542 301.338 59.7584C301.338 57.0759 303.514 54.8848 306.209 54.8848C308.903 54.8848 311.079 57.0626 311.079 59.7584Z" fill="#BCCCFD"/>
<path d="M358.15 144.344L247.016 154.617L252.306 211.916L363.441 201.643L358.15 144.344Z" fill="#717786"/>
<path d="M334.982 43.2383C334.703 43.2383 334.438 43.0524 334.345 42.7735C334.239 42.4282 334.438 42.0564 334.783 41.9502L433.035 11.9779C433.181 11.938 433.34 11.938 433.486 12.0044L480.057 31.6717C480.389 31.8178 480.548 32.2029 480.415 32.5349C480.269 32.8669 479.885 33.0262 479.553 32.8934L433.207 13.3191L335.181 43.225C335.115 43.225 335.048 43.2383 334.982 43.2383Z" fill="#516092"/>
<path d="M417.785 54.6324C417.626 54.6324 417.467 54.6058 417.307 54.5394C416.617 54.2738 416.272 53.5169 416.538 52.8263L432.013 12.0975C432.225 11.5397 432.769 11.1944 433.366 11.2476C433.95 11.3007 434.442 11.7256 434.561 12.3099L442.564 52.0428C442.71 52.7599 442.245 53.4638 441.529 53.6098C440.812 53.7559 440.109 53.2911 439.963 52.574L432.875 17.3562L419.033 53.7957C418.821 54.3004 418.316 54.6324 417.785 54.6324Z" fill="#516092"/>
<path d="M435.928 12.5624C435.928 14.0364 434.734 15.2449 433.247 15.2449C431.774 15.2449 430.566 14.0497 430.566 12.5624C430.566 11.0751 431.761 9.87988 433.247 9.87988C434.734 9.89316 435.928 11.0883 435.928 12.5624Z" fill="#BCCCFD"/>
<path d="M320.993 54.659C320.847 54.659 320.701 54.6058 320.582 54.5129L307.549 43.9688V53.8223C307.549 54.1942 307.257 54.4863 306.885 54.4863C306.514 54.4863 306.222 54.1942 306.222 53.8223V42.5744C306.222 42.3221 306.368 42.0831 306.593 41.9768C306.819 41.8706 307.098 41.8971 307.297 42.0565L321.405 53.4771C321.683 53.7028 321.737 54.1278 321.498 54.4066C321.378 54.5793 321.192 54.659 320.993 54.659Z" fill="#516092"/>
<path d="M333.602 54.659C333.456 54.659 333.31 54.6058 333.19 54.5129L320.157 43.9688V53.8223C320.157 54.1942 319.865 54.4863 319.494 54.4863C319.122 54.4863 318.83 54.1942 318.83 53.8223V42.5744C318.83 42.3221 318.976 42.0831 319.202 41.9768C319.427 41.8706 319.706 41.8971 319.905 42.0565L334.013 53.4771C334.292 53.7028 334.345 54.1278 334.106 54.4066C333.987 54.5793 333.801 54.659 333.602 54.659Z" fill="#516092"/>
<path d="M346.21 54.659C346.064 54.659 345.918 54.6058 345.799 54.5129L332.766 43.9688V53.8223C332.766 54.1942 332.474 54.4863 332.102 54.4863C331.73 54.4863 331.438 54.1942 331.438 53.8223V42.5744C331.438 42.3221 331.584 42.0831 331.81 41.9768C332.036 41.8706 332.314 41.8971 332.513 42.0565L346.622 53.4771C346.9 53.7028 346.953 54.1278 346.714 54.4066C346.595 54.5793 346.396 54.659 346.21 54.659Z" fill="#516092"/>
<path d="M358.805 54.659C358.659 54.659 358.513 54.6058 358.393 54.5129L345.36 43.9688V53.8223C345.36 54.1942 345.068 54.4863 344.697 54.4863C344.325 54.4863 344.033 54.1942 344.033 53.8223V42.5744C344.033 42.3221 344.179 42.0831 344.405 41.9768C344.63 41.8706 344.909 41.8971 345.108 42.0565L359.216 53.4771C359.495 53.7028 359.548 54.1278 359.309 54.4066C359.19 54.5793 359.004 54.659 358.805 54.659Z" fill="#516092"/>
<path d="M371.413 54.659C371.267 54.659 371.121 54.6058 371.002 54.5129L357.969 43.9688V53.8223C357.969 54.1942 357.677 54.4863 357.305 54.4863C356.934 54.4863 356.642 54.1942 356.642 53.8223V42.5744C356.642 42.3221 356.788 42.0831 357.013 41.9768C357.239 41.8706 357.518 41.8971 357.717 42.0565L371.825 53.4771C372.103 53.7028 372.156 54.1278 371.918 54.4066C371.798 54.5793 371.599 54.659 371.413 54.659Z" fill="#516092"/>
<path d="M384.009 54.659C383.863 54.659 383.717 54.6058 383.597 54.5129L370.564 43.9688V53.8223C370.564 54.1942 370.273 54.4863 369.901 54.4863C369.529 54.4863 369.237 54.1942 369.237 53.8223V42.5744C369.237 42.3221 369.383 42.0831 369.609 41.9768C369.835 41.8706 370.113 41.8971 370.312 42.0565L384.42 53.4771C384.699 53.7028 384.752 54.1278 384.513 54.4066C384.394 54.5793 384.208 54.659 384.009 54.659Z" fill="#516092"/>
<path d="M396.616 54.659C396.47 54.659 396.324 54.6058 396.205 54.5129L383.172 43.9688V53.8223C383.172 54.1942 382.88 54.4863 382.508 54.4863C382.137 54.4863 381.845 54.1942 381.845 53.8223V42.5744C381.845 42.3221 381.991 42.0831 382.216 41.9768C382.442 41.8706 382.721 41.8971 382.92 42.0565L397.028 53.4771C397.306 53.7028 397.36 54.1278 397.121 54.4066C397.001 54.5793 396.802 54.659 396.616 54.659Z" fill="#516092"/>
<path d="M409.212 54.659C409.066 54.659 408.92 54.6058 408.801 54.5129L395.768 43.9688V53.8223C395.768 54.1942 395.476 54.4863 395.104 54.4863C394.732 54.4863 394.44 54.1942 394.44 53.8223V42.5744C394.44 42.3221 394.586 42.0831 394.812 41.9768C395.038 41.8706 395.316 41.8971 395.515 42.0565L409.623 53.4771C409.902 53.7028 409.955 54.1278 409.716 54.4066C409.597 54.5793 409.411 54.659 409.212 54.659Z" fill="#516092"/>
<path d="M483.72 54.6589C483.534 54.6589 483.348 54.5792 483.216 54.4198L466.294 34.4339V53.8223C466.294 54.1941 466.002 54.4862 465.63 54.4862C465.259 54.4862 464.967 54.1941 464.967 53.8223V32.6278C464.967 32.349 465.139 32.0966 465.405 32.0037C465.67 31.9107 465.962 31.9904 466.135 32.2029L484.224 53.5699C484.463 53.8488 484.423 54.2738 484.145 54.4995C484.025 54.619 483.866 54.6589 483.72 54.6589Z" fill="#516092"/>
<path d="M496.74 54.659C496.528 54.659 496.315 54.5527 496.183 54.3668L483.282 34.8457V53.8356C483.282 54.2075 482.99 54.4996 482.619 54.4996C482.247 54.4996 481.955 54.2075 481.955 53.8356V32.6279C481.955 32.3358 482.141 32.0702 482.433 31.9905C482.712 31.9108 483.017 32.0171 483.176 32.2561L497.284 53.6232C497.483 53.9286 497.404 54.3403 497.098 54.5395C496.992 54.6324 496.859 54.659 496.74 54.659Z" fill="#516092"/>
<path d="M310.39 147.843C310.39 150.153 308.518 152.026 306.209 152.026C303.9 152.026 302.028 150.153 302.028 147.843C302.028 145.532 303.9 143.66 306.209 143.66C308.518 143.66 310.39 145.532 310.39 147.843Z" fill="#ED7445"/>
<path d="M82.4444 231.279H79.79V295.022H82.4444V231.279Z" fill="#516092"/>
<path d="M32.0118 231.279H29.3574V295.022H32.0118V231.279Z" fill="#516092"/>
<path d="M89.3731 237.255H22.7217V261.823H89.3731V237.255Z" fill="#E3EBFF"/>
<path d="M89.3593 261.823V238.583L77.1094 261.823H89.3593Z" fill="#ED7445"/>
<path d="M47.248 261.823H61.5021L74.4554 237.255H60.2014L47.248 261.823Z" fill="#ED7445"/>
<path d="M30.3397 237.255L22.7217 251.717V261.823H31.6404L44.5938 237.255H30.3397Z" fill="#ED7445"/>
<path d="M92.3987 276.443H19.4033V279.099H92.3987V276.443Z" fill="#516092"/>
<path d="M544.293 231.279H541.639V295.022H544.293V231.279Z" fill="#516092"/>
<path d="M493.86 231.279H491.206V295.022H493.86V231.279Z" fill="#516092"/>
<path d="M551.222 237.255H484.57V261.823H551.222V237.255Z" fill="#E3EBFF"/>
<path d="M551.222 261.823V238.583L538.972 261.823H551.222Z" fill="#ED7445"/>
<path d="M509.109 261.823H523.363L536.317 237.255H522.063L509.109 261.823Z" fill="#ED7445"/>
<path d="M492.202 237.255L484.57 251.717V261.823H493.502L506.456 237.255H492.202Z" fill="#ED7445"/>
<path d="M554.247 276.443H481.252V279.099H554.247V276.443Z" fill="#516092"/>
<path d="M121.438 313.388H91.2044C90.209 313.388 89.3994 314.198 89.3994 315.194C89.3994 316.19 90.209 317 91.2044 317H121.438C122.433 317 123.243 316.19 123.243 315.194C123.243 314.198 122.433 313.388 121.438 313.388Z" fill="#ED7445"/>
<path d="M108.776 287.679C108.63 287.293 108.258 287.028 107.847 287.028H104.383C103.958 287.028 103.587 287.293 103.454 287.692L93.6992 315.619H118.942L108.776 287.679Z" fill="#ED7445"/>
<path d="M101.649 292.857L100.109 297.266H112.266L110.661 292.857H101.649Z" fill="#ECEFF1"/>
<path d="M97.7212 304.092L96.1816 308.501H116.355L114.749 304.092H97.7212Z" fill="#ECEFF1"/>
<path opacity="0.5" d="M116.912 78.2704C114.696 78.2704 112.652 78.9742 110.966 80.1561V77.2346C110.966 68.8019 104.131 61.9629 95.7037 61.9629C87.276 61.9629 80.441 68.8019 80.441 77.2346V83.0112C79.0607 81.6965 77.2027 80.8865 75.1455 80.8865C70.8853 80.8865 67.4346 84.3392 67.4346 88.602H127.238C127.238 82.905 122.619 78.2704 116.912 78.2704Z" fill="#D4E0FF" fill-opacity="0.4"/>
<path opacity="0.5" d="M240.155 36.6518C238.549 36.6518 237.049 37.1698 235.828 38.0329V35.8949C235.828 29.7597 230.851 24.7798 224.719 24.7798C218.588 24.7798 213.611 29.7597 213.611 35.8949V40.0913C212.602 39.1352 211.248 38.5508 209.749 38.5508C206.643 38.5508 204.135 41.0607 204.135 44.1682H247.667C247.68 40.0249 244.309 36.6518 240.155 36.6518Z" fill="#D4E0FF" fill-opacity="0.4"/>
</g>
<defs>
<clipPath id="clip0_889_749">
<rect width="576" height="317" fill="white"/>
</clipPath>
</defs>
</svg>
