<svg width="217" height="30" viewBox="0 0 217 30" fill="none" xmlns="http://www.w3.org/2000/svg">
<path d="M2 23.1765C2 25.562 3.93495 27.497 6.32046 27.497H14.0356C16.4211 27.497 18.356 25.562 18.356 23.1765V19.4733C18.356 17.0877 16.4211 15.1528 14.0356 15.1528H6.32046C3.93495 15.1528 2 13.2178 2 10.8323V6.82046C2 4.43495 3.93495 2.5 6.32046 2.5H14.0356C16.4211 2.5 18.356 4.43495 18.356 6.82046" stroke="white" stroke-width="4" stroke-miterlimit="10" stroke-linecap="round"/>
<path d="M173.275 22.7413V15.591C173.275 12.9647 175.405 10.8323 178.034 10.8323H185.184C187.811 10.8323 189.943 12.9617 189.943 15.591V22.7413C189.943 25.3675 187.814 27.5 185.184 27.5H178.034C175.405 27.4969 173.275 25.3675 173.275 22.7413Z" stroke="white" stroke-width="4" stroke-miterlimit="10" stroke-linecap="round"/>
<path d="M124.516 22.7413V15.591C124.516 12.9647 126.645 10.8323 129.275 10.8323H136.425C139.051 10.8323 141.184 12.9617 141.184 15.591V22.7413C141.184 25.3675 139.054 27.5 136.425 27.5H129.275C126.645 27.4969 124.516 25.3675 124.516 22.7413Z" stroke="white" stroke-width="4" stroke-miterlimit="10" stroke-linecap="round"/>
<path d="M26.3799 22.7413V15.591C26.3799 12.9647 28.5093 10.8323 31.1386 10.8323H38.2889C40.9152 10.8323 43.0476 12.9617 43.0476 15.591V22.7413C43.0476 25.3675 40.9182 27.5 38.2889 27.5H31.1386C28.5093 27.4969 26.3799 25.3675 26.3799 22.7413Z" stroke="white" stroke-width="4" stroke-miterlimit="10" stroke-linecap="round"/>
<path d="M67.4243 2.50024H59.6505C57.1261 2.50024 55.0801 4.54629 55.0801 7.07068V27.4972" stroke="white" stroke-width="4" stroke-miterlimit="10" stroke-linecap="round"/>
<path d="M50.7598 10.8325H67.4244" stroke="white" stroke-width="4" stroke-miterlimit="10" stroke-linecap="round"/>
<path d="M79.7686 6.82056V23.2167C79.7686 25.5806 81.685 27.4971 84.0489 27.4971H92.1127" stroke="white" stroke-width="4" stroke-miterlimit="10" stroke-linecap="round"/>
<path d="M75.4478 10.8325H92.1124" stroke="white" stroke-width="4" stroke-miterlimit="10" stroke-linecap="round"/>
<path d="M116.492 15.1527V14.2269C116.492 12.3506 114.974 10.8323 113.098 10.8323H103.531C101.655 10.8323 100.136 12.3506 100.136 14.2269V24.1023C100.136 25.9786 101.655 27.4969 103.531 27.4969H113.098C114.974 27.4969 116.492 25.9786 116.492 24.1023V23.1765" stroke="white" stroke-width="4" stroke-miterlimit="10" stroke-linecap="round"/>
<path d="M149.205 2.50024H157.228V27.4972M149.205 27.4972H165.869" stroke="white" stroke-width="4" stroke-miterlimit="10" stroke-linecap="round"/>
<path d="M198.272 27.4969V10.8323H210.685C212.863 10.8323 214.629 12.5975 214.629 14.7762V27.4969" stroke="white" stroke-width="4" stroke-miterlimit="10" stroke-linecap="round"/>
</svg>
