<svg width="66" height="66" viewBox="0 0 66 66" fill="none" xmlns="http://www.w3.org/2000/svg">
<mask id="mask0_858_710" style="mask-type:luminance" maskUnits="userSpaceOnUse" x="2" y="2" width="62" height="62">
<path d="M2.11426 2.11523H63.9005V63.9014H2.11426V2.11523Z" fill="white"/>
</mask>
<g mask="url(#mask0_858_710)">
<path d="M2.11426 2.11523H63.9005V63.9014H2.11426V2.11523Z" fill="#FFD600"/>
</g>
<path d="M42.5127 48.3633C43.7004 50.2924 44.991 52.1408 47.725 52.1408C50.0215 52.1408 51.2263 50.9996 51.2263 49.4206C51.2263 47.5309 49.9802 46.8599 47.4539 45.7598L46.0689 45.1693C42.0715 43.4737 39.4131 41.3489 39.4131 36.8608C39.4131 32.7245 42.5796 29.5769 47.5276 29.5769C51.0511 29.5769 53.5827 30.7971 55.4089 33.9929L51.0942 36.751C50.145 35.0553 49.1186 34.3877 47.5276 34.3877C45.904 34.3877 44.8761 35.4122 44.8761 36.751C44.8761 38.4054 45.9057 39.0749 48.2827 40.0994L49.6678 40.6899C54.379 42.6961 57.0359 44.7454 57.0359 49.3519C57.0359 54.3155 53.1158 57.0357 47.8537 57.0357C42.7065 57.0357 39.7838 54.4527 38.1567 51.2553L42.5127 48.3633ZM22.6278 48.504C23.4962 50.059 24.8161 51.2553 26.7142 51.2553C28.5301 51.2553 29.5753 50.5378 29.5753 47.7488V29.5752H35.2956V48.6277C35.2956 54.4063 31.9438 57.0357 27.0489 57.0357C22.6261 57.0357 19.4337 54.0391 18.1328 51.2553L22.6278 48.504Z" fill="#000001"/>
</svg>
