<svg width="66" height="66" viewBox="0 0 66 66" fill="none" xmlns="http://www.w3.org/2000/svg">
<g clip-path="url(#clip0_858_753)">
<mask id="mask0_858_753" style="mask-type:luminance" maskUnits="userSpaceOnUse" x="0" y="0" width="66" height="66">
<path d="M65.0996 0.100098H0.0996094V65.1001H65.0996V0.100098Z" fill="white"/>
</mask>
<g mask="url(#mask0_858_753)">
<path d="M30.471 0.117589C30.3313 0.130295 29.8865 0.174766 29.4862 0.206531C20.2541 1.03876 11.6065 6.01946 6.12943 13.6747C3.07957 17.9312 1.12894 22.7594 0.391887 27.8735C0.131379 29.6587 0.0996094 30.186 0.0996094 32.6065C0.0996094 35.0269 0.131379 35.5542 0.391887 37.3394C2.15826 49.5433 10.844 59.797 22.6241 63.5958C24.7335 64.276 26.9574 64.7393 29.4862 65.0193C30.471 65.127 34.7282 65.127 35.713 65.0193C40.0781 64.5365 43.776 63.4561 47.4233 61.5947C47.9823 61.3092 48.0905 61.2326 48.0139 61.1695C47.9633 61.1309 45.5805 57.9357 42.7213 54.0728L37.5239 47.0528L31.0111 37.4156C27.4276 32.1173 24.4794 27.7846 24.4539 27.7846C24.4286 27.7782 24.4031 32.0601 24.3904 37.2885C24.3714 46.4431 24.365 46.8114 24.2506 47.0278C24.0854 47.3388 23.9584 47.4661 23.6915 47.6058C23.4882 47.7075 23.3103 47.7265 22.3508 47.7265H21.2516L20.9593 47.5422C20.7687 47.4215 20.6289 47.2627 20.5336 47.0784L20.4002 46.7924L20.4129 34.0549L20.432 21.3109L20.6289 21.0632C20.7306 20.9298 20.9466 20.7583 21.0991 20.6757C21.3596 20.5486 21.4613 20.5359 22.5605 20.5359C23.8567 20.5359 24.0727 20.5867 24.4095 20.9552C24.5048 21.0568 28.0312 26.3679 32.2501 32.7653C36.4691 39.1627 42.2384 47.8978 45.0722 52.186L50.2188 59.9813L50.4793 59.8096C52.7858 58.3104 55.2256 56.1756 57.1571 53.9521C61.2683 49.2322 63.918 43.4763 64.8071 37.3394C65.068 35.5542 65.0996 35.0269 65.0996 32.6065C65.0996 30.186 65.068 29.6587 64.8071 27.8735C63.041 15.6695 54.3551 5.41594 42.5752 1.61688C40.4974 0.943468 38.2863 0.479706 35.8083 0.200177C35.1984 0.136648 30.9984 0.066766 30.471 0.117589ZM43.776 19.7736C44.081 19.926 44.3289 20.2182 44.4178 20.5232C44.4686 20.6884 44.4813 24.2206 44.4686 32.1808L44.4496 43.6034L42.4354 40.5158L40.4148 37.4283V29.1251C40.4148 23.7568 40.4403 20.7392 40.4784 20.5931C40.5801 20.2373 40.8024 19.9578 41.1074 19.7926C41.3679 19.6592 41.4632 19.6465 42.4608 19.6465C43.4012 19.6465 43.5664 19.6592 43.776 19.7736Z" fill="black"/>
</g>
</g>
<defs>
<clipPath id="clip0_858_753">
<rect width="65" height="65" fill="white" transform="translate(0.0996094 0.100098)"/>
</clipPath>
</defs>
</svg>
