<svg width="66" height="66" viewBox="0 0 66 66" fill="none" xmlns="http://www.w3.org/2000/svg">
<g clip-path="url(#clip0_858_761)">
<path d="M36.4996 54.112H60.5496C61.3171 54.112 62.0516 53.8427 62.7164 53.462C63.3808 53.0817 64.0661 52.6045 64.4496 51.9452C64.8331 51.2868 65.1001 50.5393 65.0996 49.7788C65.0991 49.0178 64.8336 48.2708 64.4496 47.6125L48.1996 19.6622C47.8161 19.0034 47.3472 18.5257 46.6828 18.1454C46.0184 17.7652 45.0669 17.4954 44.2996 17.4954C43.5323 17.4954 42.7974 17.7652 42.133 18.1454C41.4684 18.5257 40.9998 19.0034 40.6162 19.6622L36.4996 26.8122L28.2662 12.945C27.8824 12.2864 27.4143 11.5924 26.7496 11.2122C26.0849 10.8318 25.3504 10.7788 24.583 10.7788C23.8156 10.7788 23.081 10.8318 22.4162 11.2122C21.7517 11.5924 21.0668 12.2864 20.683 12.945L0.532949 47.6125C0.14879 48.2708 0.0999483 49.0178 0.0996111 49.7788C0.0992738 50.5393 0.149372 51.2863 0.532949 51.9452C0.916525 52.604 1.60165 53.0817 2.26627 53.462C2.93091 53.8427 3.66546 54.112 4.43295 54.112H19.5996C25.6092 54.112 29.9834 51.4163 33.033 46.3122L40.3996 33.5288L44.2996 26.8122L56.2164 47.1788H40.3996L36.4996 54.112ZM19.383 47.1788H8.76624L24.583 19.8788L32.5996 33.5288L27.2894 42.7857C25.2643 46.0975 22.9552 47.1788 19.383 47.1788Z" fill="#00DC82"/>
</g>
<defs>
<clipPath id="clip0_858_761">
<rect width="65" height="65" fill="white" transform="translate(0.0996094 0.100098)"/>
</clipPath>
</defs>
</svg>
