<svg width="70" height="70" viewBox="0 0 70 70" fill="none" xmlns="http://www.w3.org/2000/svg">
<path d="M40.8602 34.95C40.8602 35.0458 40.8579 35.1419 40.8531 35.2376C40.8484 35.3335 40.8415 35.4292 40.832 35.5247C40.8227 35.6202 40.8108 35.7156 40.7968 35.8104C40.7828 35.9053 40.7664 36 40.7476 36.094C40.7288 36.1883 40.7079 36.2818 40.6845 36.3749C40.6612 36.4681 40.6357 36.5605 40.6078 36.6524C40.5799 36.7443 40.5498 36.8352 40.5175 36.9256C40.4851 37.016 40.4506 37.1056 40.414 37.1941C40.3772 37.2829 40.3383 37.3706 40.2973 37.4574C40.2563 37.5441 40.2131 37.6298 40.1679 37.7144C40.1227 37.7992 40.0755 37.8827 40.0261 37.9649C39.9767 38.0473 39.9255 38.1284 39.872 38.2081C39.8188 38.2879 39.7636 38.3663 39.7063 38.4434C39.6493 38.5205 39.5902 38.5962 39.5293 38.6703C39.4685 38.7445 39.4057 38.8173 39.3414 38.8884C39.2769 38.9595 39.2109 39.0289 39.1429 39.0967C39.0751 39.1647 39.0056 39.2309 38.9345 39.2952C38.8634 39.3598 38.7907 39.4225 38.7167 39.4834C38.6425 39.5443 38.5668 39.6031 38.4897 39.6604C38.4126 39.7176 38.3342 39.7728 38.2544 39.8261C38.1747 39.8795 38.0936 39.9307 38.0112 39.9801C37.929 40.0295 37.8455 40.0767 37.7609 40.1219C37.6763 40.1673 37.5907 40.2103 37.5039 40.2514C37.4171 40.2926 37.3294 40.3314 37.2408 40.368C37.1521 40.4049 37.0626 40.4393 36.9723 40.4718C36.8819 40.504 36.7908 40.5341 36.6991 40.562C36.6072 40.5899 36.5148 40.6154 36.4216 40.6387C36.3285 40.6621 36.235 40.683 36.1409 40.7018C36.0467 40.7206 35.9522 40.737 35.8573 40.751C35.7625 40.7651 35.6671 40.7769 35.5716 40.7862C35.4763 40.7957 35.3806 40.8028 35.2847 40.8074C35.1888 40.8121 35.0929 40.8145 34.997 40.8145C34.901 40.8145 34.8051 40.8121 34.7094 40.8074C34.6135 40.8028 34.5178 40.7957 34.4223 40.7862C34.3267 40.7769 34.2316 40.7651 34.1366 40.751C34.0418 40.737 33.9472 40.7206 33.8531 40.7018C33.7591 40.683 33.6654 40.6621 33.5724 40.6387C33.4793 40.6154 33.3868 40.5899 33.295 40.562C33.2031 40.5341 33.1121 40.504 33.0217 40.4718C32.9313 40.4393 32.8418 40.4049 32.7532 40.368C32.6646 40.3314 32.5769 40.2926 32.4901 40.2514C32.4034 40.2103 32.3177 40.1673 32.2331 40.1219C32.1485 40.0767 32.065 40.0295 31.9826 39.9801C31.9004 39.9307 31.8193 39.8795 31.7395 39.8261C31.6598 39.7728 31.5812 39.7176 31.5043 39.6604C31.4272 39.6031 31.3515 39.5443 31.2774 39.4834C31.2032 39.4225 31.1306 39.3598 31.0595 39.2952C30.9884 39.2309 30.919 39.1647 30.851 39.0967C30.7832 39.0289 30.717 38.9595 30.6526 38.8884C30.5881 38.8173 30.5256 38.7445 30.4647 38.6703C30.4038 38.5962 30.3448 38.5205 30.2875 38.4434C30.2305 38.3663 30.1752 38.2879 30.1218 38.2081C30.0686 38.1284 30.0172 38.0473 29.968 37.9649C29.9186 37.8827 29.8713 37.7992 29.8261 37.7144C29.7807 37.6298 29.7377 37.5441 29.6967 37.4574C29.6557 37.3706 29.6167 37.2829 29.58 37.1941C29.5434 37.1056 29.5088 37.016 29.4765 36.9256C29.444 36.8352 29.414 36.7443 29.3863 36.6524C29.3584 36.5605 29.3327 36.4681 29.3095 36.3749C29.2862 36.2818 29.265 36.1883 29.2464 36.094C29.2277 36 29.2113 35.9053 29.1972 35.8104C29.1832 35.7156 29.1713 35.6202 29.162 35.5247C29.1526 35.4292 29.1455 35.3335 29.1407 35.2376C29.1362 35.1419 29.1338 35.0458 29.1338 34.95C29.1338 34.8539 29.1362 34.758 29.1407 34.6621C29.1455 34.5662 29.1526 34.4707 29.162 34.3752C29.1713 34.2797 29.1832 34.1843 29.1972 34.0894C29.2113 33.9946 29.2277 33.9 29.2464 33.8059C29.265 33.7116 29.2862 33.6181 29.3095 33.525C29.3327 33.4318 29.3584 33.3394 29.3863 33.2475C29.414 33.1557 29.444 33.0645 29.4765 32.9743C29.5088 32.8839 29.5434 32.7944 29.58 32.7056C29.6167 32.617 29.6557 32.5293 29.6967 32.4425C29.7377 32.3558 29.7807 32.2701 29.8261 32.1853C29.8713 32.1007 29.9186 32.0172 29.968 31.9349C30.0172 31.8526 30.0686 31.7715 30.1218 31.6917C30.1752 31.612 30.2305 31.5334 30.2875 31.4563C30.3448 31.3794 30.4038 31.3038 30.4647 31.2296C30.5256 31.1554 30.5881 31.0826 30.6526 31.0115C30.717 30.9404 30.7832 30.871 30.851 30.803C30.919 30.7352 30.9884 30.669 31.0595 30.6047C31.1306 30.5401 31.2032 30.4774 31.2774 30.4165C31.3515 30.3557 31.4272 30.2966 31.5043 30.2395C31.5812 30.1823 31.6598 30.1271 31.7395 30.0737C31.8193 30.0204 31.9004 29.969 31.9826 29.9198C32.065 29.8704 32.1485 29.8232 32.2331 29.7778C32.3177 29.7326 32.4034 29.6894 32.4901 29.6484C32.5769 29.6074 32.6646 29.5685 32.7532 29.5317C32.8418 29.4951 32.9313 29.4606 33.0217 29.4282C33.1121 29.3959 33.2031 29.3658 33.295 29.3379C33.3868 29.31 33.4793 29.2845 33.5724 29.2612C33.6654 29.2378 33.7591 29.2167 33.8531 29.1981C33.9472 29.1793 34.0418 29.1629 34.1366 29.1489C34.2316 29.1349 34.3267 29.123 34.4223 29.1135C34.5178 29.1042 34.6135 29.0971 34.7094 29.0924C34.8051 29.0876 34.901 29.0854 34.997 29.0854C35.0929 29.0854 35.1888 29.0876 35.2847 29.0924C35.3806 29.0971 35.4763 29.1042 35.5716 29.1135C35.6671 29.123 35.7625 29.1349 35.8573 29.1489C35.9522 29.1629 36.0467 29.1793 36.1409 29.1981C36.235 29.2167 36.3285 29.2378 36.4216 29.2612C36.5148 29.2845 36.6072 29.31 36.6991 29.3379C36.7908 29.3658 36.8819 29.3959 36.9723 29.4282C37.0626 29.4606 37.1521 29.4951 37.2408 29.5317C37.3294 29.5685 37.4171 29.6074 37.5039 29.6484C37.5907 29.6894 37.6763 29.7326 37.7609 29.7778C37.8455 29.823 37.929 29.8704 38.0112 29.9198C38.0936 29.969 38.1747 30.0204 38.2544 30.0737C38.3342 30.1271 38.4126 30.1823 38.4897 30.2395C38.5668 30.2966 38.6425 30.3557 38.7167 30.4165C38.7907 30.4774 38.8634 30.5401 38.9345 30.6045C39.0056 30.669 39.0751 30.7352 39.1429 30.803C39.2109 30.871 39.2769 30.9404 39.3414 31.0115C39.4057 31.0826 39.4685 31.1554 39.5293 31.2296C39.5902 31.3038 39.6493 31.3794 39.7063 31.4563C39.7636 31.5334 39.8188 31.612 39.872 31.6917C39.9255 31.7715 39.9767 31.8526 40.0261 31.935C40.0755 32.0172 40.1227 32.1007 40.1679 32.1853C40.2131 32.2701 40.2563 32.3558 40.2973 32.4425C40.3383 32.5293 40.3772 32.617 40.414 32.7056C40.4506 32.7944 40.4851 32.8839 40.5175 32.9743C40.5498 33.0645 40.5799 33.1557 40.6078 33.2475C40.6357 33.3394 40.6612 33.4318 40.6845 33.525C40.7079 33.6181 40.7288 33.7116 40.7476 33.8059C40.7664 33.9 40.7828 33.9946 40.7968 34.0894C40.8108 34.1843 40.8227 34.2797 40.832 34.3752C40.8415 34.4707 40.8484 34.5662 40.8531 34.6621C40.8579 34.758 40.8602 34.8539 40.8602 34.95Z" fill="#00D8FF"/>
<mask id="mask0_858_695" style="mask-type:luminance" maskUnits="userSpaceOnUse" x="2" y="7" width="66" height="56">
<path d="M2.16699 7.14062H67.827V62.9073H2.16699V7.14062Z" fill="white"/>
</mask>
<g mask="url(#mask0_858_695)">
<path d="M34.9971 23.0254C42.8693 23.0254 50.1825 24.1552 55.6967 26.054C62.3405 28.3417 66.4251 31.8093 66.4251 34.9493C66.4251 38.2212 62.0962 41.9052 54.9617 44.2695C49.568 46.057 42.4701 46.99 34.9971 46.99C27.3355 46.99 20.0805 46.1143 14.6258 44.25C7.72497 41.8906 3.56836 38.1591 3.56836 34.9493C3.56836 31.8348 7.46849 28.3939 14.0188 26.1096C19.5533 24.1797 27.0468 23.0254 34.9965 23.0254H34.9971Z" stroke="#00D8FF" stroke-width="2.80531"/>
</g>
<mask id="mask1_858_695" style="mask-type:luminance" maskUnits="userSpaceOnUse" x="2" y="4" width="66" height="62">
<path d="M2.16602 4.25635H67.826V65.7513H2.16602V4.25635Z" fill="white"/>
</mask>
<g mask="url(#mask1_858_695)">
<path d="M24.6198 29.0208C28.5525 22.2 33.1844 16.4283 37.5835 12.5987C42.8838 7.98528 47.9269 6.1784 50.6467 7.74684C53.4806 9.38145 54.5083 14.9731 52.9918 22.3362C51.8465 27.9026 49.1078 34.5184 45.3744 40.9936C41.5468 47.6321 37.164 53.4809 32.8246 57.2744C27.3337 62.0752 22.0252 63.8126 19.246 62.209C16.5485 60.6543 15.5171 55.555 16.811 48.7386C17.9043 42.9789 20.6482 35.9098 24.6181 29.0221L24.6198 29.0208Z" stroke="#00D8FF" stroke-width="2.80531"/>
<path d="M24.6295 41.0107C20.6861 34.1975 18.0004 27.3005 16.8795 21.5758C15.5304 14.6787 16.4843 9.40532 19.2012 7.83178C22.0324 6.19243 27.3888 8.0941 33.0087 13.0852C37.2579 16.8589 41.6211 22.5352 45.3648 29.0037C49.2033 35.6358 52.0804 42.3549 53.1995 48.0094C54.6157 55.1653 53.4695 60.6324 50.6923 62.2409C47.9974 63.8013 43.0661 62.1494 37.8079 57.6235C33.3653 53.7995 28.612 47.8911 24.6291 41.0094L24.6295 41.0107Z" stroke="#00D8FF" stroke-width="2.80531"/>
</g>
</svg>
