<svg width="66" height="66" viewBox="0 0 66 66" fill="none" xmlns="http://www.w3.org/2000/svg">
<g clip-path="url(#clip0_858_781)">
<path fill-rule="evenodd" clip-rule="evenodd" d="M32.5996 13.1001C23.9329 13.1001 18.5163 17.4334 16.3496 26.1001C19.5996 21.7668 23.3913 20.1418 27.7246 21.2251C30.197 21.8426 31.964 23.6373 33.9201 25.6222C37.1063 28.8566 40.7944 32.6001 48.8496 32.6001C57.5164 32.6001 62.9328 28.2668 65.0996 19.6001C61.8496 23.9334 58.0578 25.5584 53.7246 24.4751C51.2523 23.8576 49.4852 22.0629 47.5292 20.078C44.3429 16.8436 40.6548 13.1001 32.5996 13.1001ZM16.3496 32.6001C7.68293 32.6001 2.26628 36.9334 0.0996094 45.6001C3.34961 41.2668 7.14129 39.6418 11.4746 40.7251C13.947 41.3438 15.714 43.1373 17.6701 45.1222C20.8563 48.3566 24.5444 52.1001 32.5996 52.1001C41.2663 52.1001 46.6828 47.7669 48.8496 39.1001C45.5996 43.4334 41.8079 45.0584 37.4746 43.9751C35.0022 43.3576 33.2352 41.5629 31.2791 39.578C28.0929 36.3436 24.4048 32.6001 16.3496 32.6001Z" fill="#38BDF8"/>
</g>
<defs>
<clipPath id="clip0_858_781">
<rect width="65" height="65" fill="white" transform="translate(0.0996094 0.100098)"/>
</clipPath>
</defs>
</svg>
