<svg width="66" height="66" viewBox="0 0 66 66" fill="none" xmlns="http://www.w3.org/2000/svg">
<g clip-path="url(#clip0_858_729)">
<mask id="mask0_858_729" style="mask-type:luminance" maskUnits="userSpaceOnUse" x="0" y="0" width="66" height="66">
<path d="M65.0996 0.100098H0.0996094V65.1001H65.0996V0.100098Z" fill="white"/>
</mask>
<g mask="url(#mask0_858_729)">
<path d="M58.7519 0.100098H6.44728C2.94155 0.100098 0.0996094 2.94204 0.0996094 6.44777V58.7524C0.0996094 62.2582 2.94155 65.1001 6.44728 65.1001H58.7519C62.2577 65.1001 65.0996 62.2582 65.0996 58.7524V6.44777C65.0996 2.94204 62.2577 0.100098 58.7519 0.100098Z" fill="#3178C6"/>
<path d="M58.7519 0.100098H6.44728C2.94155 0.100098 0.0996094 2.94204 0.0996094 6.44777V58.7524C0.0996094 62.2582 2.94155 65.1001 6.44728 65.1001H58.7519C62.2577 65.1001 65.0996 62.2582 65.0996 58.7524V6.44777C65.0996 2.94204 62.2577 0.100098 58.7519 0.100098Z" fill="#3178C6"/>
<path fill-rule="evenodd" clip-rule="evenodd" d="M40.336 51.8239V58.1795C41.3691 58.7088 42.5911 59.1062 44.0018 59.3708C45.4125 59.6355 46.8992 59.7683 48.4624 59.7683C49.9857 59.7683 51.4324 59.6225 52.8035 59.3309C54.1745 59.0398 55.3765 58.5597 56.4096 57.8911C57.4431 57.2226 58.2607 56.3488 58.8633 55.2698C59.466 54.1903 59.7678 52.8564 59.7678 51.2676C59.7678 50.1158 59.5955 49.1064 59.251 48.2391C58.9065 47.3718 58.4097 46.6006 57.7607 45.9254C57.112 45.2501 56.3334 44.6443 55.4262 44.108C54.519 43.5718 53.4957 43.0653 52.3564 42.5888C51.522 42.2445 50.7736 41.9102 50.1116 41.5858C49.449 41.2614 48.8863 40.9304 48.4225 40.5928C47.9591 40.2551 47.6012 39.8976 47.3495 39.5203C47.0979 39.1429 46.972 38.716 46.972 38.2392C46.972 37.8024 47.0849 37.4084 47.31 37.0576C47.5352 36.7067 47.8533 36.4055 48.2637 36.1539C48.6741 35.9024 49.1774 35.707 49.7735 35.568C50.3697 35.429 51.0318 35.3595 51.7607 35.3595C52.2904 35.3595 52.8499 35.3993 53.4396 35.4786C54.0287 35.5581 54.6216 35.6806 55.2178 35.846C55.8139 36.0116 56.3933 36.2202 56.956 36.4717C57.5192 36.7233 58.0392 37.0145 58.516 37.3456V31.4073C57.5489 31.0365 56.4927 30.7618 55.3468 30.5831C54.201 30.4043 52.8861 30.3149 51.4027 30.3149C49.8929 30.3149 48.4624 30.4772 47.1113 30.8016C45.7602 31.1259 44.5714 31.6324 43.5447 32.3208C42.5182 33.0094 41.707 33.8865 41.111 34.9524C40.5149 36.0182 40.2168 37.2925 40.2168 38.7755C40.2168 40.6689 40.7632 42.2842 41.856 43.6216C42.9487 44.9587 44.6077 46.0908 46.8332 47.0176C47.7075 47.3751 48.5218 47.7261 49.2768 48.0701C50.0322 48.4146 50.6845 48.7721 51.2337 49.1426C51.7834 49.5136 52.2175 49.9175 52.5356 50.3544C52.8532 50.7913 53.0124 51.2876 53.0124 51.8438C53.0124 52.2542 52.913 52.635 52.7143 52.9855C52.5156 53.3365 52.2143 53.6411 51.8104 53.8992C51.406 54.1574 50.9027 54.3593 50.3 54.5051C49.6974 54.6509 48.9922 54.7233 48.1843 54.7233C46.8068 54.7233 45.4423 54.4819 44.0912 53.9986C42.7401 53.5152 41.4884 52.7905 40.336 51.8239ZM29.6518 36.1652H37.8047V30.9497H15.0801V36.1652H23.1931V59.3871H29.6518V36.1652Z" fill="white"/>
</g>
</g>
<defs>
<clipPath id="clip0_858_729">
<rect width="65" height="65" fill="white" transform="translate(0.0996094 0.100098)"/>
</clipPath>
</defs>
</svg>
