<svg width="31" height="24" viewBox="0 0 31 24" fill="none" xmlns="http://www.w3.org/2000/svg">
<g clip-path="url(#clip0_385_1732)">
<path d="M30.5001 11.414C30.4316 11.7039 30.3761 11.9975 30.2921 12.2829C30.0901 12.9697 29.7266 13.5734 29.2662 14.1432C29.6487 14.6253 29.9142 15.1559 29.9751 15.7695C30.1057 17.0829 29.5863 18.1741 28.7592 19.1412C27.6223 20.4706 26.1492 21.2614 24.4653 21.6948C24.3538 21.7236 24.2425 21.7529 24.109 21.7878C24.1837 22.1013 24.2543 22.4006 24.3263 22.6994C24.5148 23.4819 24.1142 23.991 23.2978 23.9977C22.732 24.0024 22.166 23.9944 21.6002 24.0001C21.2253 24.0038 20.9275 23.8719 20.6751 23.5896C19.8337 22.6482 18.9847 21.7134 18.1258 20.7879C18.029 20.6836 17.8557 20.6267 17.7077 20.5956C17.1004 20.4681 16.4808 20.3903 15.8831 20.2301C15.5936 20.1525 15.2816 19.9858 15.0882 19.7658C14.7775 19.4123 14.4586 19.4361 14.0544 19.5096C13.225 19.6604 12.3874 19.6712 11.5535 19.5033C10.2556 19.2419 9.28044 18.531 8.58611 17.4237C8.53045 17.3351 8.47299 17.2475 8.43247 17.1844C7.85587 17.3466 7.31354 17.5425 6.75387 17.6483C5.08589 17.9637 3.71393 17.4623 2.69094 16.0963C2.3483 15.6388 2.01472 15.1744 1.68653 14.7066C0.30895 12.743 0.0907525 10.6531 1.24349 8.5525C2.01261 7.151 2.92249 5.81123 3.89286 4.53635C5.06567 2.99561 6.7584 2.24093 8.62803 1.81971C9.22899 1.68434 9.80505 1.43094 10.3835 1.2086C12.4867 0.400169 14.6482 -0.0809103 16.9192 0.0115573C19.4212 0.113473 21.6904 0.905953 23.7613 2.27887C25.5885 3.49025 27.0877 5.04795 28.4757 6.72042C28.6924 6.98156 28.9323 7.22372 29.148 7.48556C29.8331 8.3173 30.3111 9.24492 30.455 10.3232C30.4598 10.3591 30.4844 10.3923 30.4999 10.4268C30.5001 10.7558 30.5001 11.0849 30.5001 11.414ZM22.235 22.0852C22.1753 21.8285 22.118 21.5842 22.0616 21.3396C21.8953 20.6188 22.237 20.1507 22.9725 20.0639C24.3899 19.8968 25.6738 19.4025 26.7732 18.4836C27.3171 18.029 27.7691 17.4996 28.0042 16.819C28.2678 16.0562 28.0697 15.4917 27.422 15.0163C27.2505 14.8903 27.089 14.7068 27.0071 14.5144C26.8528 14.1519 26.9649 13.8144 27.2402 13.5318C27.4502 13.3162 27.6742 13.1113 27.8629 12.8784C28.9174 11.577 28.853 10.0409 27.6927 8.67215C27.178 8.06499 26.6625 7.45822 26.1357 6.86144C25.7994 6.4805 25.4416 6.11822 25.0765 5.72953C25.0109 5.83872 24.972 5.90439 24.9322 5.9696C24.5691 6.56569 24.066 7.01277 23.442 7.32401C22.8973 7.59569 22.2715 7.32781 22.0989 6.75984C21.9693 6.33374 22.1526 5.90292 22.5897 5.66114C23.0261 5.4196 23.345 5.09325 23.4892 4.60636C23.5319 4.46193 23.5108 4.38154 23.3874 4.29148C22.552 3.68145 21.6729 3.14632 20.7103 2.75732C20.6142 2.71852 20.4556 2.73014 20.3692 2.7852C19.4572 3.36641 18.8293 4.16478 18.6769 5.2445C18.5953 5.82308 18.6353 6.41916 18.6285 7.00742C18.6228 7.5019 18.2937 7.88718 17.8116 7.94728C17.3291 8.00738 16.8973 7.72006 16.7858 7.24014C16.7359 7.02516 16.7217 6.80003 16.7104 6.57854C16.6266 4.92737 17.0304 3.43464 18.1743 2.18493C18.209 2.14706 18.2306 2.09742 18.2629 2.04585C16.2807 1.63044 13.5723 2.00395 11.9323 2.67283C12.1312 2.94497 12.3418 3.21098 12.5277 3.49296C12.7462 3.82426 12.7373 4.17461 12.5238 4.50452C12.3152 4.82708 12.002 4.95602 11.6186 4.9166C11.2521 4.87889 11.0256 4.6481 10.8444 4.3587C10.5727 3.92501 10.2107 3.60928 9.67663 3.59092C9.40909 3.58171 9.13445 3.63816 8.87004 3.69617C6.90056 4.12799 5.393 5.16148 4.51061 7.00649C3.85765 8.37175 4.57985 10.5322 6.59579 10.5434C7.12211 10.5464 7.50402 10.9794 7.49223 11.4954C7.48068 12.0007 7.06965 12.4087 6.54192 12.3986C4.94646 12.3678 3.74649 11.6626 2.95309 10.2857C2.87213 10.1452 2.80265 9.99829 2.71249 9.8249C2.25985 10.9614 2.31707 12.0389 2.88853 13.0743C3.37918 13.9633 4.05516 14.7161 4.76144 15.4412C5.1396 15.8294 5.61065 15.9355 6.13082 15.8598C7.24398 15.6977 8.23403 15.2343 9.15264 14.6104C9.33556 14.4862 9.49926 14.3262 9.64697 14.1608C9.93667 13.8364 10.0403 13.4717 9.90576 13.0331C9.74361 12.5044 10.0198 12.0184 10.5289 11.8601C11.0238 11.7062 11.5251 11.9736 11.7042 12.4966C12.0551 13.5214 11.8283 14.4505 11.1682 15.2734C10.868 15.6476 10.4891 15.9596 10.1261 16.3193C10.123 16.2945 10.1204 16.3161 10.1287 16.3321C10.1552 16.3836 10.1835 16.4345 10.215 16.4832C10.7331 17.2865 11.4898 17.6804 12.4334 17.7468C13.2725 17.8058 14.0824 17.6373 14.8878 17.4309C15.3734 17.3064 15.8327 17.4859 16.0141 17.9227C16.1888 18.3436 16.5082 18.5441 16.9186 18.6091C17.3502 18.6774 17.7902 18.7158 18.2271 18.7209C18.6167 18.7255 18.9184 18.8472 19.1779 19.1372C20.0135 20.0709 20.8646 20.9911 21.7013 21.924C21.8463 22.0857 21.9901 22.1711 22.235 22.0852Z" fill="black"/>
<path d="M21.6586 13.3775C22.3572 13.8358 22.9556 14.3566 23.3887 15.0415C23.8334 15.7449 24.051 16.5023 23.8951 17.336C23.7945 17.874 23.337 18.1924 22.8079 18.1053C22.3027 18.022 21.9714 17.5736 22.0444 17.0438C22.101 16.6331 21.9928 16.2624 21.7422 15.9549C20.7858 14.7818 19.5444 14.1908 18.0149 14.2684C17.5356 14.2927 17.1517 14.5331 16.888 14.9534C16.569 15.4618 16.0241 15.604 15.5579 15.3207C15.0986 15.0417 14.9772 14.4761 15.2861 13.9776C16.0276 12.781 17.1611 12.342 18.5184 12.3871C18.982 12.4025 19.443 12.4974 19.938 12.5602C20.1389 11.9347 20.2375 11.2886 19.9978 10.6294C19.8803 10.3059 19.6445 10.0852 19.3513 9.90719C18.9858 9.68539 18.8314 9.31181 18.9109 8.91212C18.9837 8.54597 19.2951 8.22752 19.6958 8.19491C19.9051 8.17788 20.1497 8.22829 20.3339 8.32874C21.4108 8.91576 21.9054 9.87273 22.0068 11.0527C22.0746 11.8444 21.9368 12.6121 21.6586 13.3775Z" fill="black"/>
<path d="M12.6325 9.3366C11.8155 9.69764 10.9526 9.89667 10.0343 9.73156C9.40668 9.61872 8.87473 9.33853 8.48103 8.83058C8.15026 8.40387 8.19929 7.85773 8.58994 7.5269C8.98558 7.19187 9.54127 7.21697 9.90116 7.61743C10.1128 7.85301 10.3709 7.92503 10.6591 7.9193C11.3374 7.90583 11.9388 7.67892 12.4405 7.22099C12.6739 7.00795 12.7939 6.76384 12.7141 6.4193C12.5892 5.88068 12.9027 5.41896 13.4244 5.29722C13.9182 5.18198 14.3877 5.46953 14.5404 5.99096C14.7427 6.6816 14.632 7.3346 14.2563 7.93975C14.1615 8.09231 14.1572 8.19833 14.2836 8.3155C14.4256 8.44724 14.5572 8.59291 14.7124 8.7069C14.9181 8.858 15.1439 8.89401 15.4022 8.80402C15.9446 8.61506 16.4564 8.85668 16.6357 9.36246C16.8086 9.85028 16.5645 10.349 16.0427 10.5536C15.1329 10.9103 14.295 10.7328 13.5362 10.1674C13.2197 9.93175 12.951 9.6329 12.6325 9.3366Z" fill="black"/>
<path d="M24.6767 12.0134C24.0667 12.01 23.6712 11.681 23.5971 11.2423C23.5222 10.7988 23.7738 10.3231 24.2088 10.2125C24.7911 10.0646 25.385 9.95148 25.9801 9.86599C26.4053 9.80488 26.8278 10.1467 26.9294 10.565C27.0407 11.0228 26.8246 11.5184 26.3768 11.6454C25.7721 11.8167 25.1462 11.9148 24.6767 12.0134Z" fill="black"/>
</g>
<defs>
<clipPath id="clip0_385_1732">
<rect width="30" height="24" fill="white" transform="translate(0.5)"/>
</clipPath>
</defs>
</svg>
