<svg width="23" height="30" viewBox="0 0 23 30" fill="none" xmlns="http://www.w3.org/2000/svg">
<g clip-path="url(#clip0_385_1748)">
<path d="M8.22073 16.7697C8.06943 16.7697 7.94784 16.7697 7.82625 16.7697C5.7508 16.7697 3.67534 16.7713 1.59997 16.7686C0.99569 16.7678 0.573923 16.4797 0.507745 15.9606C0.477035 15.7198 0.540959 15.4406 0.641102 15.2136C2.36139 11.3133 4.09419 7.41833 5.82398 3.52214C6.23741 2.59083 6.65525 1.66144 7.06083 0.726713C7.27614 0.230026 7.63306 -0.00182201 8.18076 1.07793e-05C10.7776 0.00859159 13.3746 0.00275997 15.9714 0.00442615C16.8551 0.00500931 17.3042 0.64707 16.9943 1.47358C15.9469 4.267 14.8952 7.05885 13.8454 9.85136C13.8094 9.94708 13.776 10.0438 13.7232 10.1906C13.8727 10.1906 13.9915 10.1906 14.1102 10.1906C16.5507 10.1906 18.9912 10.1881 21.4316 10.1923C22.2117 10.1936 22.7072 10.8941 22.4151 11.5745C22.3629 11.6963 22.2803 11.8101 22.1927 11.911C17.076 17.802 11.9576 23.6916 6.83809 29.5802C6.4674 30.0066 5.99322 30.1119 5.55168 29.8793C5.10296 29.6429 4.93213 29.1912 5.08401 28.6195C6.10046 24.7916 7.11849 20.9643 8.13544 17.1365C8.1639 17.0286 8.1861 16.919 8.22073 16.7697ZM3.00288 14.7703C3.17813 14.7703 3.29905 14.7703 3.42006 14.7703C5.39153 14.7703 7.36301 14.769 9.33448 14.771C10.2397 14.7719 10.6661 15.3291 10.4349 16.21C9.6985 19.0156 8.95945 21.8204 8.22182 24.6257C8.19728 24.719 8.17792 24.8136 8.15622 24.9077C8.17792 24.9184 8.19962 24.9292 8.22123 24.9399C11.8935 20.7076 15.5658 16.4753 19.284 12.19C19.087 12.19 18.9742 12.19 18.8616 12.19C16.7232 12.19 14.5848 12.1909 12.4464 12.1896C11.4951 12.189 11.0621 11.5613 11.3968 10.6713C12.4397 7.89769 13.4834 5.12442 14.5262 2.35082C14.5653 2.24702 14.5983 2.14088 14.6414 2.0145C12.6343 2.0145 10.6652 2.0145 8.68389 2.0145C6.79762 6.25 4.91202 10.4837 3.00288 14.7703Z" fill="black"/>
</g>
<defs>
<clipPath id="clip0_385_1748">
<rect width="22" height="30" fill="white" transform="translate(0.5)"/>
</clipPath>
</defs>
</svg>
