<svg width="31" height="30" viewBox="0 0 31 30" fill="none" xmlns="http://www.w3.org/2000/svg">
<path d="M13.3912 0C13.871 0.0736782 14.3573 0.119229 14.8299 0.22541C19.7789 1.33707 22.9972 4.32639 24.2708 9.23478C25.2032 12.828 24.4513 16.1772 22.2972 19.2043C22.2462 19.2759 22.1943 19.3467 22.1447 19.4192C22.1343 19.4343 22.1326 19.4554 22.1045 19.5453C22.1707 19.5943 22.2755 19.6533 22.3576 19.7352C24.9 22.274 27.4395 24.8157 29.9814 27.355C30.4066 27.7797 30.6005 28.2715 30.4488 28.8694C30.1844 29.9122 28.9476 30.3439 28.0934 29.6906C27.9701 29.5962 27.8612 29.482 27.7508 29.3717C25.2305 26.8522 22.7109 24.3319 20.1909 21.8123C20.1231 21.7444 20.0514 21.6804 19.9714 21.6051C19.135 22.24 18.2493 22.7653 17.2948 23.1754C10.2803 26.1882 2.14249 21.8747 0.732822 14.3915C0.639225 13.8946 0.576878 13.3918 0.5 12.8917C0.5 12.3448 0.5 11.7979 0.5 11.251C0.575941 10.7526 0.639693 10.2521 0.729775 9.75646C1.57012 5.12896 5.35934 1.24308 9.96563 0.293463C10.5744 0.167905 11.1943 0.0964927 11.8091 0C12.3364 0 12.8638 0 13.3912 0ZM21.6467 12.0814C21.6552 7.0835 17.5815 3.00299 12.5799 2.99932C7.58436 2.99565 3.50106 7.06764 3.49075 12.0633C3.48044 17.0479 7.55959 21.1324 12.562 21.1463C17.5548 21.1603 21.6383 17.0858 21.6467 12.0814Z" fill="black"/>
</svg>
