<svg width="31" height="32" viewBox="0 0 31 32" fill="none" xmlns="http://www.w3.org/2000/svg">
<path d="M12.599 31.5C12.409 31.438 12.2125 31.391 12.0302 31.3115C11.1741 30.9382 10.6989 30.2706 10.5502 29.3569C10.4693 28.8596 10.3889 28.3621 10.3033 27.8656C10.1023 26.6986 8.99553 26.039 7.87748 26.4273C7.37418 26.6021 6.88031 26.804 6.37982 26.9874C5.16371 27.4331 3.99369 27.0176 3.3422 25.8977C2.51134 24.4696 1.68604 23.0382 0.866783 21.6035C0.221741 20.4739 0.44253 19.2698 1.44003 18.4254C1.83995 18.0868 2.25171 17.7623 2.64994 17.4217C3.57048 16.6346 3.56831 15.3656 2.64551 14.5794C2.23132 14.2265 1.80256 13.8908 1.38983 13.5363C0.454536 12.7331 0.231733 11.5209 0.839789 10.4487C1.66976 8.98526 2.51078 7.52794 3.35985 6.07546C3.99401 4.99056 5.1741 4.5777 6.35702 5.00824C6.8484 5.18702 7.33405 5.38163 7.82607 5.55848C8.99335 5.97796 10.0963 5.329 10.3082 4.10325C10.4043 3.54728 10.4868 2.98849 10.5991 2.43583C10.8273 1.31226 11.7756 0.517215 12.9162 0.509305C14.6385 0.49744 16.361 0.496633 18.0833 0.509466C19.2974 0.518507 20.2418 1.38539 20.4481 2.64198C20.5297 3.13918 20.6098 3.63664 20.6953 4.1332C20.8971 5.30454 21.9943 5.96391 23.1163 5.57906C23.6202 5.40617 24.1142 5.2043 24.6143 5.0201C25.8312 4.57189 27.0015 4.98249 27.6542 6.10194C28.4915 7.53795 29.3223 8.97776 30.1447 10.4223C30.7712 11.5227 30.5508 12.7342 29.5871 13.5571C29.181 13.9038 28.7599 14.2332 28.3539 14.5801C27.4302 15.3692 27.428 16.6319 28.3495 17.4216C28.7627 17.7757 29.1921 18.1107 29.6053 18.4648C30.5421 19.2674 30.7694 20.4795 30.1627 21.5515C29.329 23.0244 28.484 24.491 27.6276 25.9508C27.0082 27.0065 25.8316 27.42 24.6757 27.0097C24.1736 26.8315 23.6795 26.6304 23.1782 26.4492C22.0102 26.0269 20.901 26.6739 20.6924 27.8957C20.6043 28.4123 20.5324 28.932 20.4305 29.4457C20.2173 30.5197 19.5866 31.2027 18.5088 31.4513C18.4711 31.4601 18.4368 31.4836 18.4008 31.5003C16.4668 31.5 14.5329 31.5 12.599 31.5ZM28.0748 20.336C27.6749 20.0058 27.2956 19.6908 26.9144 19.3781C24.6807 17.5454 24.6801 14.4594 26.913 12.6281C27.2998 12.3109 27.6844 11.991 28.0753 11.6681C27.2512 10.2381 26.4405 8.83432 25.6346 7.42769C25.5599 7.29725 25.4907 7.27126 25.3462 7.32776C24.8218 7.53254 24.297 7.73925 23.7617 7.91207C21.3516 8.69025 18.7929 7.15382 18.3363 4.66116C18.2314 4.08905 18.1376 3.51484 18.0382 2.93893C16.3338 2.93893 14.6546 2.93893 12.9583 2.93893C12.8772 3.42403 12.7908 3.8992 12.7192 4.37656C12.3356 6.93331 10.0386 8.56974 7.57547 7.99867C6.93357 7.84983 6.32003 7.57403 5.69916 7.34133C5.52479 7.27595 5.43067 7.28725 5.34219 7.46458C5.20755 7.73449 5.04494 7.99044 4.89401 8.25228C4.24067 9.3861 3.58724 10.5199 2.92568 11.6679C3.33865 12.0093 3.74107 12.3426 4.14421 12.675C6.29417 14.4477 6.29425 17.5551 4.14413 19.3303C3.74123 19.663 3.33857 19.996 2.92528 20.3377C3.77653 21.8137 4.61947 23.2753 5.46621 24.7436C6.01931 24.5376 6.53607 24.3434 7.05404 24.1528C7.78868 23.8825 8.5413 23.8088 9.31011 23.968C11.1568 24.3506 12.4321 25.7249 12.719 27.6275C12.7919 28.1105 12.88 28.5913 12.9621 29.0786C13.8372 29.0786 14.6724 29.0786 15.5076 29.0786C16.3492 29.0786 17.1908 29.0786 18.0407 29.0786C18.1256 28.5656 18.2099 28.0897 18.2825 27.6119C18.6704 25.0607 20.9838 23.4259 23.4392 24.0083C24.0807 24.1605 24.6931 24.4373 25.3157 24.6656C25.4541 24.7164 25.5435 24.7392 25.6342 24.5801C26.4378 23.172 27.2495 21.7686 28.0748 20.336Z" fill="black"/>
<path d="M15.6617 21.9753C12.4308 22.1112 9.67283 19.4987 9.53617 16.1729C9.40297 12.9297 11.9929 10.1792 15.3208 10.0298C18.563 9.8843 21.3298 12.5051 21.4615 15.8464C21.5894 19.0873 18.9889 21.8353 15.6617 21.9753ZM15.5361 12.4471C13.6122 12.4155 11.9911 13.999 11.9503 15.9498C11.9097 17.8867 13.5047 19.5257 15.4616 19.5578C17.3855 19.5895 19.003 18.0093 19.0475 16.0547C19.0914 14.1204 17.4941 12.4792 15.5361 12.4471Z" fill="black"/>
</svg>
