<svg width="65" height="65" viewBox="0 0 65 65" fill="none" xmlns="http://www.w3.org/2000/svg">
<mask id="mask0_862_2034" style="mask-type:luminance" maskUnits="userSpaceOnUse" x="0" y="0" width="65" height="65">
<path d="M65 0H0V65H65V0Z" fill="white"/>
</mask>
<g mask="url(#mask0_862_2034)">
<path d="M40.9472 65H41.7376L54.6384 58.5488L54.8534 58.2451V6.75095L54.6384 6.44591L41.7376 0H40.9375L40.9472 65Z" fill="#5294CF"/>
<path d="M24.1589 65H23.3575L10.4675 58.5488L10.2059 58.0989L10.0732 7.01322L10.4675 6.44591L23.3575 0H24.1688L24.1589 65Z" fill="#1F5B98"/>
<path d="M23.3799 0H41.7254V65H23.3799V0Z" fill="#2D72B8"/>
<path d="M61.3912 31.0401L60.9552 30.9434L54.7305 30.363L54.6381 30.409L41.7258 29.8926H23.3794L10.4666 30.409V20.5624L10.4531 20.5696L10.4666 20.5407L23.3794 17.5488H41.7258L54.6381 20.5407L59.3854 23.0639V21.4417L61.3912 21.2223L61.1836 20.8172L54.8317 16.2753L54.6381 16.3382L41.7258 12.3371H23.3794L10.4666 16.3382V6.44629L3.71387 14.3573V21.2665L3.76614 21.2286L5.71995 21.4417V23.0972L3.71387 24.1708V31.0455L3.76614 31.0401L5.71995 31.0689V33.9544L4.03425 33.9796L3.71387 33.9489V40.8263L5.71995 41.9051V43.5797L3.7979 43.792L3.71387 43.7289V50.6371L10.4666 58.549V48.6578L23.3794 52.6591H41.7258L54.6762 48.6462L54.8484 48.7219L61.1168 44.2469L61.3912 43.801L59.3854 43.5797V41.9387L59.1222 41.8336L54.8317 44.1464L54.6762 44.4708L41.7258 47.4456V47.4493H23.3794V47.4456L10.4666 44.4582V34.5755L23.3794 35.0901V35.1027H41.7258L54.6381 34.5755L54.9325 34.7107L60.9659 34.1912L61.3912 33.9832L59.3854 33.9544V31.0689L61.3912 31.0401Z" fill="#1A476F"/>
<path d="M54.6387 48.6576V58.5488L61.3917 50.6364V43.7734L54.6777 48.646L54.6387 48.6576Z" fill="#2D72B8"/>
<path d="M54.6387 44.4796L54.6777 44.4705L61.3917 40.8594V33.9541L54.6387 34.5753V44.4796Z" fill="#2D72B8"/>
<path d="M54.6777 20.5495L54.6387 20.5405V30.4088L61.3917 31.0398V24.138L54.6777 20.5495Z" fill="#2D72B8"/>
<path d="M54.6777 16.3769L61.3917 21.2223V14.3591L54.6387 6.44629V16.3382L54.6777 16.3517V16.3769Z" fill="#2D72B8"/>
</g>
</svg>
