<svg width="66" height="66" viewBox="0 0 66 66" fill="none" xmlns="http://www.w3.org/2000/svg">
<g clip-path="url(#clip0_862_2116)">
<mask id="mask0_862_2116" style="mask-type:luminance" maskUnits="userSpaceOnUse" x="0" y="0" width="66" height="66">
<path d="M65.0996 0.100098H0.0996094V65.1001H65.0996V0.100098Z" fill="white"/>
</mask>
<g mask="url(#mask0_862_2116)">
<path d="M8.94727 52.5449L16.9478 1.35027C17.0456 0.722412 17.5339 0.227467 18.1604 0.121039C18.7869 0.0146115 19.4111 0.320802 19.7107 0.881161L27.9846 16.3134L31.2826 10.034C31.538 9.54854 32.0415 9.24453 32.5902 9.24453C33.1389 9.24453 33.6423 9.54854 33.8978 10.034L56.2262 52.5449H8.94727Z" fill="#FFA000"/>
<path d="M36.5871 32.6027L27.9808 16.3062L8.94727 52.5449L36.5871 32.6027Z" fill="#F57C00"/>
<path d="M56.2267 52.5451L50.0986 14.6258C50.0062 14.0813 49.6176 13.6339 49.0911 13.4653C48.565 13.2967 47.9889 13.437 47.5979 13.8274L8.94727 52.5446L30.3337 64.5381C31.6767 65.2879 33.3123 65.2879 34.6553 64.5381L56.2267 52.5451Z" fill="#FFCA28"/>
<path d="M50.0979 14.6255C50.0055 14.081 49.6169 13.6337 49.0904 13.465C48.5644 13.2964 47.9882 13.4368 47.5973 13.8272L39.9262 21.5179L33.8939 10.034C33.6385 9.54843 33.1349 9.24441 32.5863 9.24441C32.0376 9.24441 31.5342 9.54843 31.2787 10.034L27.9807 16.3133L19.7064 0.881296C19.4063 0.320789 18.7813 0.015094 18.1541 0.122315C17.5269 0.229537 17.0402 0.725723 16.9435 1.35407L8.94667 52.545H8.9209L8.94667 52.5747L9.15722 52.6777L47.5861 14.2044C47.9771 13.8119 48.5542 13.6708 49.0821 13.8389C49.61 14.0071 49.999 14.4561 50.0905 15.0023L56.1666 52.5816L56.226 52.545L50.0979 14.6255ZM9.01687 52.4748L16.9472 1.7161C17.0439 1.08775 17.5316 0.591572 18.1583 0.484349C18.785 0.377128 19.41 0.682725 19.7106 1.24333L27.9841 16.6755L31.282 10.3962C31.5375 9.91071 32.041 9.6067 32.5896 9.6067C33.1383 9.6067 33.6417 9.91071 33.8972 10.3962L39.8071 21.6362L9.01687 52.4748Z" fill="white" fill-opacity="0.2"/>
<path opacity="0.2" d="M34.6554 64.1762C33.3124 64.9265 31.6768 64.9265 30.3338 64.1762L8.99899 52.2162L8.94727 52.545L30.3337 64.5351C31.6767 65.285 33.3123 65.285 34.6553 64.5351L56.2267 52.545L56.171 52.2056L34.6554 64.1762Z" fill="#A52714"/>
<path d="M50.0366 14.6333C49.9447 14.089 49.5574 13.6415 49.0328 13.4739C48.5086 13.3062 47.9343 13.4456 47.5448 13.8359L39.9 21.5228L33.8893 10.0441C33.6347 9.55879 33.133 9.25487 32.5863 9.25487C32.0396 9.25487 31.5379 9.55879 31.2833 10.0441L27.9964 16.3207L19.7515 0.895129C19.4524 0.33487 18.8296 0.0292247 18.2051 0.136496C17.5806 0.243767 17.0945 0.739556 16.9982 1.36776L9.0293 52.5362L30.341 64.5208C31.6793 65.2702 33.3092 65.2702 34.6476 64.5208L56.1433 52.5362L50.0366 14.6333Z" fill="url(#paint0_linear_862_2116)"/>
</g>
</g>
<defs>
<linearGradient id="paint0_linear_862_2116" x1="-155.398" y1="1105.86" x2="5724" y2="4207.18" gradientUnits="userSpaceOnUse">
<stop stop-color="white" stop-opacity="0.1"/>
<stop offset="0.14" stop-color="white" stop-opacity="0.08"/>
<stop offset="0.61" stop-color="white" stop-opacity="0.02"/>
<stop offset="1" stop-color="white" stop-opacity="0"/>
</linearGradient>
<clipPath id="clip0_862_2116">
<rect width="65" height="65" fill="white" transform="translate(0.0996094 0.100098)"/>
</clipPath>
</defs>
</svg>
