<svg width="66" height="66" viewBox="0 0 66 66" fill="none" xmlns="http://www.w3.org/2000/svg">
<g clip-path="url(#clip0_862_2056)">
<path d="M64.8015 11.4599C64.6246 11.3132 64.3999 11.2363 64.1701 11.2436C63.5429 11.2436 62.7322 11.6762 62.2972 11.8924C62.2215 11.9313 62.1635 11.9637 62.1222 11.9811C61.3928 12.3402 60.597 12.5448 59.7845 12.5822C58.9497 12.6082 58.2296 12.6579 57.2978 12.7531C51.7486 13.324 49.2856 17.5711 46.9047 21.6777C45.6072 23.9115 44.2708 26.2189 42.4348 28.0095C42.0552 28.3784 41.6513 28.7216 41.2259 29.0367C39.3273 30.451 36.9421 31.4522 35.078 32.1658C33.2918 32.847 31.3412 33.4633 29.4555 34.0558C27.7255 34.5986 26.1015 35.1111 24.6028 35.6691C23.926 35.9199 23.3508 36.1124 22.8447 36.281C21.4802 36.7352 20.4941 37.0639 19.0582 38.0456C18.4981 38.4305 17.9359 38.8458 17.5445 39.1571C16.4041 40.069 15.3948 41.1335 14.5451 42.3209C13.8169 43.4148 12.9762 44.4295 12.0366 45.3484C11.7338 45.6447 11.1954 45.7809 10.3888 45.7809C9.44378 45.7809 8.29764 45.5863 7.08446 45.3787C5.8367 45.1624 4.54354 44.9461 3.43634 44.9461C2.53458 44.9461 1.84691 45.0932 1.33007 45.3916C1.33007 45.3916 0.465071 45.8976 0.0996094 46.5507L0.458584 46.7151C1.01528 47.0159 1.53125 47.3864 1.99396 47.8177C2.47444 48.263 3.01007 48.6446 3.58771 48.9534C3.77226 49.0267 3.93944 49.1382 4.0786 49.2798C3.92723 49.4961 3.70449 49.7882 3.4731 50.0928C2.19291 51.7665 1.44685 52.8241 1.87502 53.3994C2.07492 53.5039 2.29818 53.5563 2.52377 53.5507C5.3134 53.5507 6.80984 52.8265 8.70635 51.9095C9.2556 51.6435 9.82217 51.3686 10.471 51.0877C11.5781 50.6076 12.7718 49.8397 14.0347 49.0291C15.7085 47.9478 17.4385 46.8404 19.1144 46.3042C20.495 45.8825 21.9333 45.6803 23.3767 45.7052C25.1565 45.7052 27.0162 45.9431 28.8154 46.1723C30.1583 46.3453 31.5466 46.5226 32.909 46.6046C33.4388 46.6371 33.9297 46.6524 34.4055 46.6524C35.0434 46.6552 35.6809 46.6213 36.3149 46.5507L36.4663 46.4989C37.4221 45.9106 37.8698 44.6499 38.3044 43.4302C38.5834 42.6474 38.817 41.9424 39.1803 41.484C39.2025 41.4613 39.2272 41.441 39.2538 41.4235C39.2711 41.4138 39.2912 41.4103 39.3108 41.4134C39.3304 41.4165 39.3484 41.4262 39.3619 41.4407C39.3619 41.4407 39.3619 41.4407 39.3619 41.4754C39.1327 46.2437 37.221 49.271 35.2791 51.9615L33.9816 53.3516C33.9816 53.3516 35.7959 53.3516 36.8274 52.9537C40.5945 51.825 43.4404 49.3448 45.5099 45.3852C46.0204 44.3685 46.4766 43.3254 46.8764 42.2603C46.9112 42.1717 47.2399 42.0095 47.2074 42.4766C47.2074 42.6128 47.1879 42.7642 47.1773 42.9091C47.1773 43.0042 47.1643 43.0994 47.1601 43.1945C47.1058 43.8433 46.9437 45.264 46.9437 45.264L48.1072 44.6412C50.9185 42.8615 53.0806 39.2912 54.7154 33.725C55.3988 31.4089 55.8984 29.1059 56.3395 27.0753C56.8674 24.6446 57.3238 22.547 57.8535 21.7361C58.6706 20.4645 59.9186 19.6038 61.1253 18.7692L61.6184 18.4275C63.132 17.3613 64.646 16.1309 64.9789 13.8387V13.7868C65.2384 12.0957 65.0328 11.661 64.8015 11.4599Z" fill="#003445"/>
</g>
<defs>
<clipPath id="clip0_862_2056">
<rect width="65" height="65" fill="white" transform="translate(0.0996094 0.100098)"/>
</clipPath>
</defs>
</svg>
