<svg width="66" height="66" viewBox="0 0 66 66" fill="none" xmlns="http://www.w3.org/2000/svg">
<g clip-path="url(#clip0_862_2047)">
<mask id="mask0_862_2047" style="mask-type:luminance" maskUnits="userSpaceOnUse" x="0" y="0" width="66" height="66">
<path d="M65.0996 0.100098H0.0996094V65.1001H65.0996V0.100098Z" fill="white"/>
</mask>
<g mask="url(#mask0_862_2047)">
<path d="M46.8632 25.9673C43.4389 10.8608 36.3016 6.83921 34.481 3.99639C33.7302 2.74406 33.0651 1.44232 32.4903 0.100098C32.3942 1.44211 32.2175 2.28757 31.0767 3.30526C28.7864 5.34736 19.0591 13.2741 18.2405 30.4384C17.4777 46.4419 30.0054 56.3102 31.6605 57.3298C32.9332 57.9561 34.4832 57.3433 35.2392 56.7685C41.2782 52.6238 49.5291 41.5748 46.8697 25.9673" fill="#10AA50"/>
<path d="M33.009 48.8081C32.6936 52.7694 32.4677 55.0709 31.667 57.3343C31.667 57.3343 32.1926 61.1056 32.5617 65.1004H33.8679C34.1795 62.2872 34.6552 59.4946 35.2926 56.7372C33.6017 55.9052 33.0739 52.2842 33.009 48.8081Z" fill="#B8C4C2"/>
<path d="M35.2905 56.7395C33.5817 55.9497 33.0874 52.2526 33.0114 48.8081C33.434 43.1262 33.5571 37.426 33.3804 31.7311C33.291 28.7429 33.4229 4.05441 32.6445 0.439941C33.177 1.66413 33.7904 2.85145 34.4809 3.99402C36.3015 6.83909 43.441 10.8606 46.8631 25.9671C49.529 41.5478 41.3229 52.5679 35.2905 56.7395Z" fill="#12924F"/>
</g>
</g>
<defs>
<clipPath id="clip0_862_2047">
<rect width="65" height="65" fill="white" transform="translate(0.0996094 0.100098)"/>
</clipPath>
</defs>
</svg>
