<svg width="66" height="66" viewBox="0 0 66 66" fill="none" xmlns="http://www.w3.org/2000/svg">
<g clip-path="url(#clip0_862_2107)">
<mask id="mask0_862_2107" style="mask-type:luminance" maskUnits="userSpaceOnUse" x="0" y="0" width="66" height="66">
<path d="M65.0996 0.100098H0.0996094V65.1001H65.0996V0.100098Z" fill="white"/>
</mask>
<g mask="url(#mask0_862_2107)">
<path d="M40.4005 30.4248L27.3861 34.6875L16.051 39.6931L12.8862 40.5328C12.0788 41.3078 11.2392 42.0829 10.3027 42.8579C9.30157 43.7298 8.36506 44.5049 7.65456 45.0862C6.84721 45.7321 5.68464 46.8946 5.07109 47.6375C4.16684 48.7676 3.45637 49.9626 3.16573 50.8666C2.61673 52.5139 2.87509 54.1932 3.94078 55.743C5.26483 57.713 7.9452 59.7154 11.0454 61.0716C12.6278 61.782 15.3082 62.6539 17.3104 63.1706C20.6367 64.0105 27.0955 64.947 30.6478 65.0761C31.3582 65.1086 32.3271 65.1086 32.3593 65.0761C32.424 65.0115 33.0053 63.978 33.6188 62.6539C35.8148 58.1977 37.3649 53.9991 38.2368 50.4469C38.7535 48.2833 39.1411 45.4091 39.4317 41.986C39.4963 41.0172 39.5286 37.8201 39.464 36.7544C39.3671 34.9782 39.2057 33.5573 38.9796 32.1363C38.9473 31.9426 38.915 31.7489 38.9473 31.7489C38.9796 31.7165 39.1088 31.6842 40.7234 31.2322L40.4005 30.4248ZM37.4295 32.1687C37.5586 32.1687 37.8493 35.2043 37.9462 37.1096C37.9785 37.4971 37.9462 37.7878 37.9462 37.7878C37.8816 37.7878 36.2992 36.8513 35.1367 36.1408C34.1678 35.5272 32.2948 34.2677 32.0041 34.0417C31.9073 33.9771 31.9073 33.9771 32.7146 33.6865C34.0709 33.2021 37.3003 32.1687 37.4295 32.1687ZM30.777 34.3646C30.8739 34.3646 31.0999 34.4938 31.6489 34.8168C33.6834 36.0762 36.4284 37.6263 37.6233 38.143C37.9785 38.3045 38.0108 38.2399 37.2034 38.8212C35.4273 40.0483 33.1667 41.2432 30.454 42.4381C29.9696 42.6642 29.5821 42.8256 29.5498 42.8256C29.5175 42.8256 29.5821 42.5673 29.679 42.2766C30.3248 39.8223 30.7124 37.3356 30.7446 35.3657C30.6801 34.3646 30.6801 34.3646 30.777 34.3646ZM29.4206 34.8813C29.4852 34.9459 29.4529 37.1419 29.356 37.7555C29.1945 39.1764 28.9039 40.5328 28.4518 42.0506C28.3549 42.4058 28.258 42.7287 28.2258 42.7287C28.1934 42.7933 26.8371 41.4693 26.385 40.9526C25.6099 40.0806 25.0286 39.1764 24.5766 38.3045C24.3505 37.8524 23.9952 36.9804 24.0276 36.9804C24.189 36.8513 29.3883 34.849 29.4206 34.8813ZM22.9941 37.4002C23.0587 37.4325 23.1233 37.594 23.1556 37.7555C23.4786 38.6274 24.189 39.8869 24.8026 40.6619C25.4808 41.5339 26.3527 42.5027 27.0632 43.1163C27.2893 43.31 27.5153 43.5038 27.5476 43.5361C27.6122 43.6007 27.6122 43.6007 26.0298 44.182C24.1567 44.8924 22.1545 45.6029 19.8293 46.3456C19.2804 46.5395 18.7314 46.701 18.1824 46.8946C18.0855 46.9271 18.1178 46.8621 18.3761 46.4748C19.5387 44.6663 21.2826 41.1463 22.2514 38.6274C22.4129 38.2076 22.5743 37.7555 22.6066 37.6586C22.6389 37.5294 22.7035 37.4649 22.8327 37.4002C22.8972 37.4325 22.9619 37.4002 22.9941 37.4002ZM21.0242 38.2076C21.0565 38.2399 20.5398 39.2733 20.0554 40.2421C19.0866 42.1151 18.0532 43.9236 16.6645 46.1519C16.4385 46.5395 16.2125 46.8946 16.1801 46.9271C16.1156 46.9917 16.1156 46.9917 15.9541 46.6685C15.6312 46.0227 15.3405 45.1508 15.2113 44.3757C15.0498 43.6007 15.0822 42.2766 15.2759 41.437C15.4051 40.8234 15.4051 40.8234 15.6958 40.6942C16.8906 40.0806 20.9596 38.1753 21.0242 38.2076ZM37.9785 38.9181V39.3379C37.9785 41.5339 37.7524 44.5372 37.3972 46.7331C37.3326 47.1208 37.3003 47.4434 37.268 47.4434C37.268 47.4434 36.9774 47.3789 36.6544 47.2823C35.1689 46.8301 33.5865 46.1519 32.1333 45.3445C31.1645 44.8278 29.7759 43.9559 29.8405 43.9236C29.8405 43.9236 30.2603 43.6976 30.7446 43.4392C32.6823 42.4381 34.5231 41.3401 36.1377 40.2744C36.7513 39.8869 37.6555 39.2087 37.8493 39.0472L37.9785 38.9181ZM13.5966 41.8245C13.6289 41.8245 13.6289 41.8891 13.5644 42.2443C13.532 42.5027 13.4675 42.9871 13.4675 43.31C13.4029 44.731 13.6289 45.7967 14.3394 47.2498C14.5332 47.6375 14.6946 47.9927 14.6946 47.9927C14.63 48.0572 8.10668 49.9626 6.07218 50.5114C5.45858 50.673 4.94188 50.8346 4.8773 50.8346C4.81271 50.8666 4.81271 50.8346 4.81271 50.673C5.03877 49.2198 6.13676 47.3469 7.68687 45.7321C8.72028 44.6663 9.52763 44.0528 10.9163 43.2455C11.9174 42.7287 13.4351 41.8568 13.5966 41.8245C13.5644 41.8245 13.5644 41.8245 13.5966 41.8245ZM28.9362 44.5695C28.9362 44.5695 29.1946 44.6987 29.4529 44.8601C31.552 46.0873 34.4907 47.2178 36.9774 47.7991L37.2034 47.8636L36.8805 48.0247C35.5565 48.7676 31.2614 50.5439 26.8694 52.1908C26.2235 52.4169 25.6099 52.6755 25.4808 52.7075C25.3516 52.772 25.2547 52.772 25.2547 52.772C25.2547 52.772 25.4162 52.4169 25.6422 51.9971C26.8694 49.704 28.0965 46.8946 28.7425 44.957C28.8716 44.7309 28.9362 44.5695 28.9362 44.5695ZM27.3861 45.0862C27.3861 45.0862 27.3215 45.3123 27.2246 45.5383C26.3527 47.605 25.2547 49.8656 23.8015 52.4169C23.4463 53.0627 23.1233 53.5794 23.1233 53.5794C23.1233 53.5794 22.8327 53.4179 22.4774 53.1917C20.3784 51.9001 18.5376 50.3499 17.3427 48.8001L17.1812 48.574L18.0855 48.3154C21.2826 47.4434 24.0275 46.5071 26.7402 45.3445C27.0309 45.2154 27.3538 45.0862 27.3861 45.0862ZM37.1066 48.4769C37.1066 48.703 36.6221 50.7375 36.2023 52.1908C35.8471 53.4179 35.5565 54.3868 35.0074 56.0982C34.7814 56.841 34.5553 57.4548 34.5553 57.4548C34.5553 57.4548 34.4907 57.4548 34.4262 57.4223C31.5197 56.9056 28.8716 56.1632 26.4173 55.1617C25.7391 54.8711 24.738 54.4514 24.6734 54.3868C24.6411 54.3543 25.2547 54.0962 25.9975 53.773C30.4863 51.8035 35.1043 49.6075 36.719 48.6385C36.9128 48.5415 37.0743 48.4769 37.1066 48.4769ZM14.6623 49.2523C14.6946 49.2843 13.4351 51.0607 11.6913 53.5149C11.0777 54.3868 10.3672 55.3878 10.1089 55.743C9.85054 56.1307 9.43073 56.712 9.20467 57.0671L8.78486 57.713L8.33274 57.3258C7.81604 56.9056 6.9118 55.9691 6.49199 55.4524C5.65237 54.3868 5.07104 53.2888 4.84503 52.2878C4.74813 51.8035 4.74813 51.5774 4.84503 51.5449C5.00646 51.5124 7.62229 50.8991 10.0766 50.3178C11.433 49.9947 13.0153 49.6395 13.5966 49.4779C14.1779 49.3489 14.63 49.2523 14.6623 49.2523ZM15.9218 49.7365L16.2447 50.0917C17.6657 51.674 19.1189 52.8366 20.8627 53.8701C21.1857 54.0316 21.4118 54.1932 21.3794 54.2253C21.3149 54.2898 15.3082 56.4213 12.4986 57.3578C10.9485 57.907 9.65679 58.3588 9.62448 58.3588L9.43073 58.2297L9.26925 58.1006L9.55989 57.6809C10.4965 56.3568 11.659 54.8711 14.1779 51.8356L15.9218 49.7365ZM23.7692 55.3558C23.7692 55.3558 24.2213 55.5169 24.738 55.711C26.0298 56.1952 27.0309 56.4859 28.3872 56.841C30.0665 57.2607 32.4886 57.6809 33.9095 57.81C34.1355 57.842 34.2324 57.842 34.2001 57.8745C34.1355 57.907 32.6823 58.3913 31.6166 58.7465C29.9373 59.2632 24.7703 60.8135 20.5398 62.0081C19.7648 62.2342 19.0866 62.4278 19.0543 62.4278C18.9574 62.4603 18.6345 62.3632 18.6345 62.3312C18.6345 62.2987 18.8605 62.0081 19.1512 61.6854C20.5721 60.0061 21.9607 58.1006 23.1556 56.3243C23.4786 55.743 23.7692 55.3558 23.7692 55.3558ZM22.0253 55.3878C22.0253 55.3878 21.3472 56.5184 20.12 58.4558C19.6033 59.2632 19.022 60.1997 18.7959 60.5228C18.6022 60.8455 18.3115 61.3302 18.1501 61.6209L17.8594 62.1371L17.6979 62.1051C17.3427 62.0081 14.8561 61.1361 14.2102 60.878C13.4029 60.5549 12.5632 60.1672 11.9174 59.812C11.1423 59.3923 10.1412 58.7465 10.2381 58.7465C10.2704 58.7465 11.5944 58.3588 13.2414 57.9391C17.5365 56.7765 19.9262 56.0982 21.5086 55.5819C21.767 55.4524 22.0253 55.3878 22.0253 55.3878ZM34.2647 58.2622C34.3293 58.3588 32.7146 62.7834 32.1333 64.1716C32.0041 64.4948 31.9719 64.5593 31.875 64.5593C31.7135 64.5593 29.3883 64.2366 27.9997 64.0105C25.5453 63.6229 21.444 62.9125 20.4106 62.6864L20.1846 62.6219L21.6378 62.2987C24.8026 61.5884 26.2881 61.2007 27.8382 60.7489C29.7759 60.1672 31.6812 59.4248 33.6188 58.5204C33.9418 58.3913 34.2001 58.2622 34.2647 58.2622Z" fill="url(#paint0_linear_862_2107)"/>
<path d="M26.9662 0.100706C26.7401 0.0684126 23.2523 1.32787 20.9918 2.2321C17.9561 3.45927 15.5987 4.65414 14.1455 5.68754C13.5965 6.07508 12.9183 6.75322 12.8215 7.01159C12.7892 7.10849 12.7568 7.23766 12.7568 7.33451L14.0809 8.59397L17.2134 9.59511L24.6733 10.9192L33.1989 12.3724L33.2957 11.6296H33.2311L32.1009 11.4681L31.8748 11.0806C30.7123 9.04609 29.4205 6.49489 28.6777 4.7833C28.0964 3.45927 27.5474 1.90916 27.2568 0.81117C27.0953 0.132999 27.063 0.100706 26.9662 0.100706ZM26.8047 0.585114C26.837 0.585114 26.8693 0.875761 26.9016 1.1987C27.063 2.58733 27.386 3.91138 27.8704 5.33232C28.2256 6.43031 28.2256 6.36573 27.8058 6.23652C26.8047 5.94587 22.3158 5.17084 19.0541 4.71873C18.5374 4.65414 18.0854 4.58955 18.0854 4.55726C18.053 4.52496 20.4428 3.2655 21.4762 2.7811C22.8325 2.16752 26.5463 0.649701 26.8047 0.585114ZM17.3103 5.00936L17.6978 5.13853C19.7969 5.84902 25.0285 6.85012 27.9349 7.07618C28.2579 7.10849 28.5485 7.14076 28.5485 7.14076C28.5485 7.14076 28.2902 7.30224 27.9349 7.46372C26.5463 8.17417 24.9962 9.01383 23.9305 9.69196C23.6076 9.88576 23.3169 10.0472 23.2847 10.0472C23.2523 10.0472 23.0263 10.0149 22.8325 9.9826L22.445 9.91802L21.4762 8.9492C19.7323 7.26992 18.376 5.97819 17.8593 5.46148L17.3103 5.00936ZM16.9228 5.3L18.3114 7.04386C19.0542 8.01269 19.8292 8.91693 19.9907 9.14299C20.1522 9.33674 20.2813 9.53053 20.2813 9.53053C20.249 9.5628 18.2791 9.17526 17.2457 8.9492C16.18 8.69087 15.7279 8.59397 15.082 8.36791L14.533 8.20648V8.07727C14.533 7.4314 15.3727 6.43031 16.7936 5.42917L16.9228 5.3ZM28.71 7.65746C28.7423 7.65746 28.8069 7.75436 28.9038 8.01269C29.2267 8.75545 30.2924 10.7254 30.5508 11.1129C30.6154 11.2421 30.7768 11.2421 29.3882 11.016C26.0619 10.467 24.9962 10.3056 24.9962 10.2732C24.9962 10.2732 25.0931 10.2087 25.2223 10.1118C26.2557 9.53053 27.2891 8.82003 28.2256 8.045C28.4516 7.85121 28.6454 7.68978 28.71 7.65746Z" fill="url(#paint1_linear_862_2107)"/>
<path d="M12.8857 6.8501C12.8857 6.8501 12.6596 7.20532 12.8857 7.72203C13.0149 8.04498 13.4024 8.43248 13.8222 8.82002C13.8222 8.82002 18.2142 13.0828 18.7309 13.6964C21.1529 16.5059 22.2186 19.2509 22.3155 23.0293C22.3801 25.4836 21.9279 27.615 20.7654 30.1017C18.7309 34.5582 14.4035 39.4992 7.75098 44.9568L8.7198 44.6339C9.33336 44.1495 10.2053 43.6651 12.2075 42.5671C16.8578 40.0159 22.0572 37.6907 28.4513 35.301C37.6551 31.8455 52.8011 27.7765 61.4233 26.4525L62.3278 26.3233L62.1982 26.0972C61.4233 24.87 60.8745 24.1273 60.2283 23.3199C58.3553 20.9625 56.0627 19.0895 53.2528 17.5071C49.4099 15.3434 44.4045 13.6641 38.0749 12.4046C36.88 12.1786 34.2642 11.7264 32.1328 11.4035C27.6117 10.693 24.7053 10.2086 21.5081 9.65968C20.3456 9.46588 18.634 9.17524 17.5037 8.91691C16.9224 8.7877 15.7921 8.52937 14.8879 8.20642C14.1129 7.98035 13.1118 7.68971 12.8857 6.8501ZM15.4369 9.33672C15.4369 9.33672 15.5984 9.4013 15.8244 9.46588C16.2119 9.59505 16.6964 9.75653 17.2453 9.88569C17.6652 10.0149 18.1173 10.1118 18.5371 10.241C19.1184 10.4024 19.6351 10.5316 19.6351 10.5316C19.6997 10.5962 20.7008 13.7933 21.0237 14.9881C21.1529 15.4403 21.2498 15.8601 21.2498 15.8601C21.2498 15.8601 21.1206 15.6986 20.9914 15.4725C19.8289 13.438 18.0204 11.4035 15.9213 9.72426C15.6306 9.4982 15.4369 9.33672 15.4369 9.33672ZM20.281 10.6608C20.3456 10.6608 20.5393 10.693 20.7977 10.7577C22.477 11.1452 25.4803 11.6942 27.3856 12.0171C27.7086 12.0817 27.9669 12.114 27.9669 12.1463C27.9669 12.1786 27.8377 12.2431 27.7086 12.3077C27.3856 12.4692 26.0616 13.2443 25.6418 13.5349C24.5438 14.2777 23.5749 15.0527 22.8645 15.7632L22.3478 16.2799C22.3478 16.2799 22.2832 16.1184 22.2509 15.8924C21.8957 14.536 21.1529 12.5015 20.4747 11.0806C20.3456 10.8868 20.2487 10.6608 20.281 10.6608C20.2487 10.6608 20.2487 10.6608 20.281 10.6608ZM28.7743 12.2755C28.8388 12.3077 28.9357 12.6307 29.1295 13.3735C29.4847 14.7944 29.6462 16.4091 29.6139 17.8946C29.5816 18.3144 29.5816 18.7019 29.5493 18.7342L29.517 18.8311L29.0003 18.6697C27.9346 18.3467 26.223 17.83 24.7698 17.4102C23.9302 17.1841 23.252 16.9904 23.252 16.9581C23.252 16.8935 24.4792 15.6663 24.9959 15.2142C25.997 14.3423 28.7097 12.2431 28.7743 12.2755ZM29.4524 12.3724C29.4847 12.34 33.5214 13.0505 35.3622 13.4057C36.7186 13.6641 38.7208 14.0839 38.85 14.1485C38.9145 14.1808 38.6885 14.2777 38.0426 14.5683C35.4591 15.7309 33.5214 16.7966 31.5838 18.0561C31.0671 18.379 30.6473 18.6697 30.6473 18.6697C30.6473 18.6697 30.615 18.379 30.615 18.0561C30.615 16.183 30.2275 14.31 29.5493 12.6953C29.517 12.5338 29.4524 12.4046 29.4524 12.3724ZM39.9156 14.4391C39.9479 14.4714 39.8187 15.2788 39.6896 15.7309C39.3343 17.1841 38.3655 19.3801 37.2029 21.4146C37.0092 21.7698 36.8154 22.0605 36.7831 22.0928C36.7508 22.0928 36.4925 21.9636 36.2018 21.7698C35.0715 21.0917 33.7475 20.4781 32.3589 19.8968C31.9714 19.7353 31.6161 19.6062 31.6161 19.5738C31.5515 19.5093 34.7163 17.4102 36.3956 16.4091C37.7196 15.6017 39.8834 14.4069 39.9156 14.4391ZM40.6584 14.5683C40.7553 14.5683 42.5315 15.0527 43.468 15.3434C45.7931 16.0216 48.4414 16.9904 50.1528 17.7977L50.8632 18.1206L50.3464 18.2498C46.1161 19.2186 42.4991 20.3489 39.0114 21.7698C38.7208 21.899 38.4624 21.9959 38.4624 21.9959C38.4301 21.9959 38.527 21.7698 38.6562 21.4792C39.7219 19.2509 40.4001 16.9257 40.5615 14.9236C40.6261 14.7298 40.6584 14.5683 40.6584 14.5683ZM22.8322 18.6697C22.8645 18.6373 24.2208 18.9603 24.9636 19.1864C26.0939 19.5093 28.4513 20.2843 28.4513 20.3489C28.4513 20.3489 28.193 20.575 27.8701 20.8656C26.5783 21.9313 25.3511 23.0616 23.8656 24.5148C23.4135 24.9346 23.0582 25.2899 23.026 25.2899C22.9937 25.2899 22.9937 25.2253 22.9937 25.1607C23.2197 23.5137 23.1551 21.3823 22.8645 19.2186C22.8645 18.8957 22.8322 18.6697 22.8322 18.6697ZM51.5735 18.7019C51.606 18.7342 50.9277 19.7353 50.5405 20.3166C49.9592 21.1563 49.0873 22.2865 47.1173 24.7409C46.0838 26.0326 44.9212 27.5181 44.5336 28.0025C44.1461 28.487 43.8232 28.9068 43.7909 28.9068C43.7909 28.9068 43.6617 28.7453 43.5002 28.5192C42.4022 26.8723 41.0782 25.4191 39.5281 24.1273C39.2374 23.869 38.9145 23.6106 38.7854 23.546C38.6885 23.4814 38.5916 23.3845 38.5916 23.3845C38.5916 23.3522 40.2708 22.6418 41.5303 22.1251C43.7586 21.2209 46.7942 20.1229 49.0548 19.4447C50.2819 19.0249 51.5735 18.6697 51.5735 18.7019ZM52.3489 18.8957C52.3809 18.8957 52.6395 18.9926 52.8977 19.1864C55.2873 20.5427 57.645 22.3188 59.4859 24.1273C60.0026 24.644 61.2943 25.968 61.2618 26.0004C61.2618 26.0004 60.8095 26.0326 60.2933 26.0649C56.1593 26.3878 50.8632 27.2598 45.7608 28.487C45.4056 28.5516 45.1149 28.6484 45.0827 28.6484C45.0503 28.6484 45.4379 28.2609 45.9223 27.8088C48.9257 24.9346 50.2819 23.0939 51.8967 19.8645C52.1228 19.3155 52.3164 18.928 52.3489 18.8957C52.3164 18.8957 52.3164 18.8957 52.3489 18.8957ZM30.4213 21.124C30.5504 21.1563 31.8422 21.7698 32.811 22.2219C33.6829 22.6741 35.0393 23.3845 35.1039 23.4168C35.1039 23.4168 34.6517 23.6752 34.0704 23.9658C32.2297 24.9024 30.6473 25.7743 28.968 26.7754C28.4836 27.066 28.0961 27.2921 28.0961 27.2921C28.0638 27.2921 28.0638 27.2598 28.3221 26.7754C29.1941 25.1607 29.9046 23.2231 30.3244 21.35C30.3566 21.2209 30.3889 21.124 30.4213 21.124ZM29.1618 21.3823C29.1941 21.4146 28.8711 22.6095 28.6451 23.2877C28.2575 24.5471 27.5471 26.0972 26.9012 27.2921C26.7398 27.5827 26.5137 27.9703 26.3845 28.1963L26.1262 28.5839L25.5772 28.0672C24.9313 27.4536 24.4146 27.066 23.7364 26.7108C23.4781 26.5816 23.252 26.4525 23.252 26.4202C23.252 26.3556 24.9313 24.8055 26.223 23.7075C27.1596 22.9001 29.1295 21.35 29.1618 21.3823ZM36.9769 24.5794L37.4613 24.9024C38.5593 25.6128 39.851 26.5816 40.8521 27.4212C41.4011 27.8734 42.4991 28.8422 42.7252 29.1006L42.8544 29.2297L42.047 29.4558C37.5259 30.7152 34.0704 31.8133 30.0014 33.2987C29.5493 33.4602 29.1618 33.5894 29.1295 33.5894C29.0649 33.5894 29.0326 33.654 30.0337 32.7175C32.6172 30.3277 34.9424 27.6796 36.654 25.1284L36.9769 24.5794ZM34.9101 25.0961C34.9424 25.1284 33.586 27.0014 32.7787 28.0994C31.8099 29.3912 30.0983 31.5226 28.9357 32.9112C28.4513 33.4925 28.0315 33.9769 27.9992 33.9769C27.9669 33.9769 27.9669 33.8478 27.9669 33.6217C27.9669 32.4268 27.6763 31.1673 27.1273 30.0693C26.9012 29.6172 26.8689 29.5204 26.9012 29.4558C27.095 29.2943 29.9368 27.6473 31.7776 26.6785C32.9725 26.0326 34.8778 25.0638 34.9101 25.0961ZM22.477 28.1317C22.5093 28.1317 22.7353 28.2609 22.9937 28.3901C23.6073 28.7453 24.1885 29.1328 24.6729 29.5204C24.7053 29.5526 24.4469 29.7464 24.0917 30.0048C23.1551 30.6829 21.7342 31.7486 20.9268 32.3945C20.0549 33.0727 20.0226 33.105 20.1195 32.9435C20.7654 31.9424 21.0883 31.3934 21.4436 30.6829C21.7342 30.0371 22.0572 29.2943 22.2832 28.6161C22.3478 28.3578 22.4446 28.1317 22.477 28.1317ZM25.8032 30.7475C25.8678 30.7475 25.9001 30.8121 26.1907 31.2319C26.7398 32.0716 27.1919 33.2019 27.2887 34.1061L27.321 34.2999L25.9647 34.8166C23.5426 35.7531 21.3144 36.6896 19.8289 37.3678C19.4091 37.5615 18.6663 37.9168 18.1819 38.1428C17.6975 38.4012 17.3099 38.5627 17.3099 38.5627C17.3099 38.5627 17.6006 38.3366 17.9881 38.0459C20.9268 35.9146 23.4781 33.5571 25.3834 31.2319C25.5772 30.9736 25.7709 30.7475 25.8032 30.7475ZM24.2854 31.1028C24.3177 31.1351 23.1874 32.4268 22.4446 33.2019C20.5393 35.1395 18.6663 36.6573 16.3411 38.1428C16.0505 38.3366 15.7921 38.498 15.7599 38.5304C15.6952 38.5626 15.7921 38.4658 16.7933 37.3678C17.4391 36.6573 17.9235 36.076 18.5048 35.3656C18.8923 34.8812 18.9569 34.8166 19.4736 34.429C20.8946 33.3311 24.2208 31.0705 24.2854 31.1028Z" fill="url(#paint2_radial_862_2107)"/>
</g>
</g>
<defs>
<linearGradient id="paint0_linear_862_2107" x1="12.6899" y1="58.6476" x2="17.3965" y2="55.8665" gradientUnits="userSpaceOnUse">
<stop stop-color="#909CA9"/>
<stop offset="1" stop-color="#EDEDEE"/>
</linearGradient>
<linearGradient id="paint1_linear_862_2107" x1="12.7951" y1="6.24849" x2="16.5821" y2="6.24849" gradientUnits="userSpaceOnUse">
<stop stop-color="#939FAB"/>
<stop offset="1" stop-color="#DCDEE1"/>
</linearGradient>
<radialGradient id="paint2_radial_862_2107" cx="0" cy="0" r="1" gradientUnits="userSpaceOnUse" gradientTransform="translate(31.8867 23.5933) rotate(-171.457) scale(4.88248 9.76736)">
<stop stop-color="#EE352C"/>
<stop offset="1" stop-color="#A91D22"/>
</radialGradient>
<clipPath id="clip0_862_2107">
<rect width="65" height="65" fill="white" transform="translate(0.0996094 0.100098)"/>
</clipPath>
</defs>
</svg>
