<svg width="66" height="66" viewBox="0 0 66 66" fill="none" xmlns="http://www.w3.org/2000/svg">
<g clip-path="url(#clip0_862_2063)">
<path d="M0.0996094 46.3278H2.24099V37.811L5.55603 45.2383C5.94706 46.1337 6.48279 46.4554 7.53273 46.4554C8.58262 46.4554 9.09742 46.1372 9.48905 45.2383L12.8045 37.811V46.331H14.9461V37.8251C14.9461 36.9953 14.6161 36.594 13.9369 36.3868C12.3103 35.8752 11.2188 36.3177 10.725 37.4241L7.47177 44.7542L4.3208 37.4209C3.84727 36.3145 2.73548 35.872 1.10889 36.3836C0.429053 36.5911 0.0996094 36.9924 0.0996094 37.8219V46.3278ZM16.726 39.3932H18.8668V44.0874C18.8468 44.3427 18.948 44.9413 20.121 44.9595C20.7197 44.9691 24.7403 44.9595 24.7777 44.9595V39.3699H26.9232C26.9327 39.3699 26.921 46.9912 26.9213 47.0237C26.933 48.9036 24.6063 49.3117 23.5342 49.3437H16.7727V47.8919L23.5463 47.8914C24.9244 47.7443 24.7619 47.0548 24.7619 46.8222V46.2561H20.2106C18.093 46.237 16.7448 45.3055 16.7279 44.2343C16.7263 44.1383 16.7736 39.4393 16.7267 39.393L16.726 39.3932Z" fill="#00618A"/>
<path d="M28.5742 46.3279H34.7308C35.4513 46.3279 36.1517 46.1759 36.7081 45.9128C37.6349 45.4843 38.0878 44.9033 38.0878 44.1426V42.5661C38.0878 41.9435 37.573 41.3628 36.5643 40.9755C36.0289 40.7677 35.3701 40.6574 34.7318 40.6574H32.1372C31.2726 40.6574 30.8607 40.3945 30.7578 39.8138C30.7372 39.7448 30.7372 39.6859 30.7372 39.62V38.6384C30.7372 38.583 30.7372 38.5274 30.7578 38.4583C30.8607 38.0158 31.0873 37.891 31.849 37.8188C31.9109 37.8188 31.9931 37.8047 32.0553 37.8047H38.1706V36.3667H32.1581C31.2933 36.3667 30.8404 36.422 30.4284 36.5464C29.1506 36.9478 28.5946 37.5873 28.5946 38.6937V39.9523C28.5946 40.9206 29.6864 41.7503 31.5183 41.9438C31.7246 41.9575 31.9303 41.9713 32.1359 41.9713H34.3598C34.4423 41.9713 34.5248 41.9713 34.5864 41.9854C35.2656 42.0407 35.5544 42.1651 35.7601 42.4139C35.887 42.5418 35.9252 42.6633 35.9252 42.7976V44.0562C35.9252 44.2084 35.8223 44.4022 35.6163 44.5678C35.431 44.7341 35.1222 44.8444 34.7102 44.8722C34.6277 44.8722 34.5661 44.886 34.4839 44.886H28.5742V46.3243V46.3279ZM51.4462 43.8247C51.4462 45.3046 52.5373 46.1344 54.7408 46.3003C54.946 46.3164 55.1521 46.3255 55.3583 46.3279H60.9385V44.8895H55.3169C54.061 44.8895 53.587 44.5714 53.587 43.8106V36.3696H51.4457V43.8241L51.4462 43.8247ZM39.4538 43.8995V38.772C39.4538 37.4693 40.3615 36.6791 42.1566 36.4297C42.3481 36.4022 42.5412 36.3883 42.7346 36.3882H46.7992C46.9997 36.3882 47.1994 36.4022 47.3981 36.4297C49.193 36.6791 50.1007 37.469 50.1007 38.772V43.8995C50.1007 44.9564 49.7153 45.522 48.8262 45.8907L50.9359 47.8093H48.4492L46.743 46.2572L45.0248 46.3669H42.7346C42.3426 46.3669 41.93 46.3112 41.4758 46.1865C40.1111 45.8124 39.4538 45.0916 39.4538 43.8995ZM41.7653 43.7716C41.7653 43.841 41.7859 43.91 41.8065 43.9935C41.9335 44.5896 42.4873 44.9221 43.33 44.9221H45.2756L43.4887 43.2968H45.9751L47.5304 44.7143C47.8173 44.5601 48.0063 44.3242 48.0699 44.0213C48.0903 43.9523 48.0903 43.8829 48.0903 43.8135V38.8971C48.0903 38.8417 48.0903 38.7691 48.0699 38.7029C47.9427 38.1488 47.3888 37.83 46.5633 37.83H43.3338C42.3817 37.83 41.7659 38.2457 41.7659 38.8971V43.7754L41.7653 43.7716Z" fill="#E48E00"/>
<path d="M62.8219 33.9832C61.5056 33.9474 60.4995 34.0705 59.6401 34.4357C59.3959 34.5396 59.0064 34.5422 58.9664 34.8507C59.1006 34.9924 59.122 35.2041 59.2283 35.3784C59.4335 35.7131 59.7803 36.1618 60.0896 36.3965C60.4271 36.6533 60.7748 36.9283 61.1374 37.1511C61.7819 37.547 62.5011 37.7731 63.1213 38.1693C63.4867 38.4027 63.8498 38.6969 64.2068 38.9611C64.3828 39.0915 64.5021 39.2942 64.7305 39.3758V39.3381C64.6098 39.1836 64.5792 38.9713 64.4687 38.8104L63.9821 38.3203C63.5058 37.6807 62.9022 37.1253 62.2601 36.6606C61.7484 36.2903 60.6021 35.7902 60.3886 35.1897L60.3509 35.152C60.7145 35.1104 61.1393 34.9783 61.4745 34.8882C62.0372 34.7362 62.5405 34.7753 63.1218 34.6244L63.9083 34.398V34.247C63.6144 33.9432 63.4045 33.5413 63.0847 33.2666C62.2466 32.5471 61.3315 31.8293 60.3899 31.2297C59.8676 30.8971 59.2218 30.6816 58.6679 30.3999C58.4817 30.3052 58.1544 30.256 58.0318 30.098C57.7412 29.7245 57.5829 29.2506 57.3582 28.8189C56.8883 27.9076 56.4273 26.9118 56.0108 25.9528C55.7267 25.2989 55.5409 24.654 55.1872 24.0671C53.4879 21.2519 51.6581 19.5527 48.8246 17.8828C48.2215 17.5279 47.4958 17.3872 46.7283 17.2039L45.4929 17.1285C45.2415 17.023 44.98 16.7128 44.7439 16.5625C43.8051 15.9645 41.3971 14.6653 40.7017 16.3706C40.2627 17.4492 41.3577 18.5016 41.7497 19.0484C42.0245 19.4321 42.3768 19.8616 42.573 20.2929C42.7021 20.5762 42.7247 20.8605 42.8351 21.1604C43.1071 21.8959 43.3439 22.7027 43.6959 23.3854C43.8736 23.7308 44.0697 24.0947 44.2948 24.4036C44.4329 24.5932 44.6693 24.6767 44.7064 24.9695C44.4754 25.2957 44.462 25.8009 44.3319 26.2141C43.747 28.0726 43.9676 30.3823 44.8184 31.7579C45.0797 32.18 45.6944 33.0856 46.5403 32.7383C47.2799 32.4345 47.1114 31.4945 47.3263 30.6643C47.3742 30.4756 47.3449 30.3382 47.4387 30.2118V30.2496L48.1124 31.607C48.611 32.416 49.4964 33.2618 50.2462 33.8326C50.6348 34.1284 50.944 34.64 51.4436 34.813V34.7753H51.4065C51.309 34.6218 51.1567 34.5588 51.0318 34.4363C50.7388 34.1469 50.4129 33.7872 50.171 33.4559C49.4885 32.5228 48.8859 31.5021 48.3371 30.4389C48.0748 29.9314 47.8468 29.3715 47.6258 28.855C47.5408 28.6559 47.5418 28.355 47.3644 28.2517C47.1221 28.6303 46.7655 28.936 46.5779 29.383C46.2784 30.0974 46.2397 30.9684 46.1289 31.8721C46.0632 31.8957 46.0924 31.8794 46.0541 31.9098C45.5329 31.7832 45.3495 31.2424 45.1558 30.7785C44.6658 29.6049 44.575 27.7164 45.006 26.3663C45.1171 26.0171 45.6218 24.9165 45.4177 24.5938C45.3203 24.2718 44.9987 24.0822 44.8188 23.8392C44.5966 23.5354 44.3738 23.1344 44.2199 22.7833C43.8187 21.8688 43.6315 20.8423 43.2093 19.9172C43.0075 19.4753 42.6666 19.0283 42.3861 18.6381C42.0756 18.2032 41.7281 17.8822 41.4878 17.3591C41.4021 17.172 41.286 16.873 41.413 16.6802C41.4251 16.6248 41.4527 16.574 41.4925 16.5339C41.5323 16.4938 41.5827 16.466 41.6376 16.4538C41.8547 16.2853 42.4596 16.5097 42.6857 16.6047C43.2855 16.856 43.7869 17.0952 44.2954 17.4345C44.5398 17.5944 44.7864 17.9129 45.0812 18.0005H45.4177C45.9445 18.1227 46.5347 18.0389 47.0269 18.1891C47.8969 18.4555 48.6765 18.8703 49.385 19.3205C51.5425 20.6929 53.3063 22.6468 54.513 24.9804C54.7071 25.3555 54.7911 25.714 54.962 26.1118C55.3069 26.9112 55.7415 27.7403 56.0851 28.5251C56.4277 29.3085 56.7611 30.0983 57.2453 30.75C57.4998 31.0922 58.4831 31.2763 58.9298 31.4663C59.2427 31.5996 59.7557 31.7387 60.0524 31.9188C60.6188 32.2632 61.1681 32.6734 61.6997 33.0507C61.9653 33.2394 62.7819 33.6529 62.8228 33.9934L62.8219 33.9832Z" fill="#00618A"/>
<path fill-rule="evenodd" clip-rule="evenodd" d="M46.0918 19.6154C45.8173 19.6103 45.6233 19.6454 45.418 19.6908V19.7286H45.4554C45.5862 19.9997 45.8173 20.174 45.9791 20.4075L46.3536 21.1992L46.3911 21.1615C46.6226 20.9968 46.7289 20.7336 46.7275 20.3317C46.6347 20.2332 46.6207 20.1098 46.5404 19.9921C46.4333 19.8354 46.2229 19.7465 46.0911 19.6147L46.0918 19.6154Z" fill="#00618A"/>
<path fill-rule="evenodd" clip-rule="evenodd" d="M61.9434 44.8482C61.9434 45.7979 62.6881 46.4381 63.521 46.4381C64.3544 46.4381 65.0991 45.7979 65.0991 44.8482C65.0991 43.8985 64.3544 43.2583 63.521 43.2583C62.6881 43.2583 61.9434 43.8985 61.9434 44.8482ZM64.7458 44.8482C64.7458 45.569 64.1989 46.1074 63.5205 46.1074C62.8353 46.1074 62.2953 45.569 62.2953 44.8482C62.2953 44.1274 62.8343 43.5889 63.5205 43.5889C64.1984 43.5889 64.7458 44.1274 64.7458 44.8482ZM63.9458 45.7557H64.2991L63.7819 44.9588C64.0596 44.9291 64.2694 44.7932 64.2694 44.4625C64.2694 44.0935 64.0378 43.9413 63.5925 43.9413H62.8891V45.756H63.1923V44.9716H63.4741L63.9454 45.756L63.9458 45.7557ZM63.1923 44.7164V44.1952H63.5414C63.7225 44.1952 63.9416 44.2291 63.9416 44.4414C63.9416 44.6956 63.7439 44.7171 63.5164 44.7171H63.1923V44.7164Z" fill="#E48E00"/>
</g>
<defs>
<clipPath id="clip0_862_2063">
<rect width="65" height="65" fill="white" transform="translate(0.0996094 0.100098)"/>
</clipPath>
</defs>
</svg>
