<svg width="66" height="66" viewBox="0 0 66 66" fill="none" xmlns="http://www.w3.org/2000/svg">
<g clip-path="url(#clip0_862_2027)">
<path d="M63.8081 39.019C63.4302 37.8745 62.4403 37.0773 61.1603 36.886C60.5567 36.7959 59.8654 36.8344 59.0473 37.003C57.621 37.2972 56.5634 37.4092 55.7913 37.4309C58.7056 32.5108 61.0749 26.9002 62.4389 21.6187C64.6448 13.0787 63.4664 9.18824 62.0889 7.4285C58.4433 2.77061 53.1249 0.26836 46.7089 0.191795C43.2862 0.149943 40.2815 0.82573 38.714 1.3117C37.2546 1.05419 35.6854 0.910416 34.0389 0.883826C30.9525 0.834589 28.2255 1.50742 25.8953 2.89026C24.6053 2.45401 22.5348 1.83903 20.1439 1.44661C14.5204 0.52341 9.98812 1.24277 6.67299 3.58475C2.65864 6.42035 0.797705 11.347 1.14188 18.228C1.25118 20.4127 2.47326 27.0597 4.39746 33.3636C5.50336 36.987 6.6826 39.9959 7.90241 42.3076C9.63239 45.5856 11.4835 47.5158 13.5615 48.209C14.7263 48.5971 16.8425 48.8692 19.0683 47.0153C19.3504 47.357 19.7268 47.6964 20.2263 48.0117C20.8608 48.4119 21.6365 48.7387 22.4112 48.9324C25.2033 49.6306 27.8185 49.4561 30.0497 48.4773C30.0635 48.8743 30.0741 49.2536 30.0829 49.581C30.0977 50.1121 30.1125 50.6326 30.132 51.1196C30.2641 54.4123 30.4881 56.9724 31.1519 58.7636C31.1883 58.862 31.2373 59.012 31.289 59.1712C31.6201 60.1852 32.1738 61.8827 33.5825 63.2115C35.0412 64.5885 36.8056 65.0106 38.4215 65.0106C39.232 65.0106 40.0053 64.9042 40.6835 64.7589C43.1011 64.2408 45.8468 63.4515 47.833 60.6235C49.711 57.9497 50.6238 53.923 50.7891 47.578C50.8104 47.3983 50.8299 47.227 50.849 47.0641L50.8884 46.7288L51.3309 46.7674L51.4447 46.7753C53.9072 46.8876 56.9181 46.3653 58.7674 45.5063C60.2285 44.8283 64.9108 42.3563 63.8081 39.019Z" fill="black"/>
<path d="M59.5979 39.6678C52.2761 41.1781 51.7729 38.6993 51.7729 38.6993C59.5032 27.2287 62.7346 12.6684 59.9461 9.1048C52.3379 -0.615904 39.1682 3.9814 38.9484 4.10056L38.8777 4.11336C37.4311 3.81301 35.8124 3.63428 33.9928 3.60449C30.6802 3.55033 28.1671 4.47304 26.2601 5.91915C26.2601 5.91915 2.76642 -3.75947 3.85924 18.0917C4.09164 22.7401 10.5221 53.2654 18.1918 44.0452C20.9951 40.6737 23.7039 37.8231 23.7039 37.8231C25.0491 38.7167 26.6596 39.1727 28.348 39.0089L28.4792 38.8977C28.4384 39.3162 28.4571 39.7256 28.5317 40.2104C26.5558 42.4179 27.1365 42.8054 23.1867 43.6186C19.1898 44.4423 21.5377 45.9086 23.0708 46.2922C24.9292 46.7566 29.2286 47.4149 32.1336 43.3482L32.0179 43.8123C32.7919 44.4325 33.3355 47.8458 33.2444 50.9398C33.1533 54.0342 33.0926 56.1584 33.7023 57.8177C34.3126 59.4771 34.9205 63.2104 40.1131 62.098C44.4516 61.168 46.7001 58.7588 47.013 54.7395C47.2349 51.8823 47.7373 52.3048 47.7689 49.7498L48.1719 48.5408C48.6361 44.6673 48.2457 43.4177 50.9186 43.9989L51.5686 44.056C53.5353 44.1454 56.1107 43.7394 57.6219 43.0371C60.8761 41.5269 62.8066 39.0053 59.5979 39.6678Z" fill="#336791"/>
<path d="M27.6353 20.1703C26.9755 20.0785 26.378 20.1634 26.0757 20.3924C25.9058 20.5211 25.8531 20.6703 25.8389 20.773C25.801 21.045 25.9915 21.3458 26.1087 21.501C26.4401 21.9401 26.9241 22.242 27.4032 22.3084C27.4726 22.3183 27.5418 22.3227 27.6104 22.3227C28.4093 22.3227 29.1358 21.7006 29.1998 21.2415C29.2799 20.6664 28.445 20.2828 27.6353 20.1703ZM49.4928 20.1885C49.4297 19.7377 48.6279 19.6092 47.8664 19.7151C47.1064 19.8209 46.3692 20.1641 46.4308 20.6159C46.48 20.9672 47.1143 21.5669 47.8655 21.5669C47.9286 21.5669 47.9927 21.5628 48.0572 21.5536C48.5587 21.4842 48.9264 21.1659 49.101 20.9825C49.367 20.7028 49.5211 20.3911 49.4928 20.1885Z" fill="white"/>
<path d="M62.0341 39.496C61.7551 38.6519 60.8562 38.3803 59.3635 38.6886C54.931 39.6034 53.3436 38.9697 52.8222 38.5859C56.2677 33.3372 59.1021 26.9924 60.631 21.0729C61.3553 18.2688 61.7555 15.6646 61.788 13.542C61.8243 11.2123 61.4278 9.5003 60.6092 8.4545C57.31 4.23854 52.4675 1.97706 46.6054 1.91502C42.5758 1.86972 39.171 2.901 38.5109 3.19101C37.121 2.84536 35.6057 2.63315 33.956 2.60607C30.9308 2.55708 28.3158 3.28136 26.1509 4.75776C25.2104 4.40767 22.78 3.57334 19.8078 3.0945C14.6694 2.26731 10.5861 2.89411 7.67228 4.95838C4.19535 7.42174 2.59021 11.825 2.90115 18.0457C3.00578 20.1386 4.19831 26.5769 6.08015 32.7426C8.5573 40.8579 11.2501 45.452 14.0832 46.3971C14.4148 46.5077 14.7972 46.5852 15.2189 46.5852C16.2524 46.5852 17.5195 46.1192 18.8378 44.5343C20.4459 42.6053 22.1092 40.7231 23.8259 38.8901C24.9396 39.4879 26.1632 39.8217 27.4145 39.8552C27.417 39.8879 27.4202 39.9207 27.4231 39.9532C27.2078 40.2101 26.9968 40.4707 26.7905 40.7348C25.9234 41.8356 25.7429 42.0647 22.9519 42.6393C22.158 42.8033 20.0494 43.2378 20.0183 44.716C19.9848 46.3309 22.5109 47.0091 22.7988 47.081C23.8017 47.3322 24.768 47.4562 25.6895 47.4562C27.9306 47.4562 29.9028 46.7193 31.4789 45.2942C31.4303 51.0516 31.6704 56.7247 32.3617 58.4532C32.9279 59.8684 34.311 63.3264 38.6798 63.3264C39.3209 63.3264 40.0265 63.2516 40.8027 63.0854C45.3624 62.1076 47.3423 60.0926 48.1083 55.6494C48.5183 53.2751 49.2217 47.6052 49.5522 44.5638C50.2505 44.7817 51.1494 44.8814 52.1211 44.8811C54.1477 44.8811 56.4864 44.4506 57.953 43.7698C59.6003 43.0047 62.5731 41.1273 62.0341 39.496ZM51.1759 18.9443C51.161 19.8421 51.037 20.6573 50.9061 21.5081C50.765 22.4232 50.6196 23.3693 50.583 24.5177C50.5467 25.6354 50.686 26.7975 50.8211 27.9213C51.0937 30.1911 51.3736 32.5279 50.2905 34.8337C50.1103 34.5148 49.9501 34.1852 49.8104 33.8468C49.6758 33.5203 49.3833 32.9959 48.9779 32.2702C47.4026 29.445 43.7136 22.8289 45.6021 20.1292C46.1647 19.3257 47.5925 18.4995 51.1759 18.9443ZM46.832 3.73311C52.0845 3.84907 56.2389 5.81387 59.1801 9.57268C61.4366 12.4558 58.9522 25.5744 51.7604 36.8919C51.688 36.7999 51.6151 36.7082 51.5422 36.6169L51.4512 36.5031C53.3097 33.4339 52.9462 30.3972 52.6226 27.7049C52.4898 26.6 52.364 25.5564 52.396 24.5761C52.429 23.5372 52.5664 22.6459 52.6996 21.7843C52.8626 20.7225 53.0288 19.6238 52.9829 18.3286C53.0172 18.1927 53.0311 18.0322 53.013 17.8416C52.896 16.5996 51.4781 12.8824 48.5879 9.51804C47.007 7.6778 44.7013 5.61841 41.5533 4.22943C42.9073 3.94877 44.7589 3.68708 46.832 3.73311ZM17.4427 43.3742C15.9902 45.1207 14.9872 44.7859 14.6573 44.6761C12.5081 43.9592 10.0142 39.4165 7.81556 32.2131C5.91301 25.9801 4.80123 19.7124 4.71309 17.9549C4.43539 12.3965 5.78278 8.5227 8.71809 6.44094C13.4951 3.05339 21.349 5.081 24.5048 6.1093C24.4596 6.1541 24.4123 6.19598 24.3675 6.24153C19.1887 11.4715 19.3115 20.4072 19.3243 20.9534C19.3238 21.1642 19.3415 21.4625 19.3657 21.873C19.4548 23.3759 19.6207 26.1731 19.1776 29.3408C18.766 32.2845 19.6734 35.1656 21.6668 37.2456C21.8713 37.4587 22.0864 37.6615 22.3111 37.8532C21.4238 38.8035 19.4954 40.905 17.4427 43.3742ZM22.9768 35.9903C21.3702 34.3138 20.6404 31.9819 20.9745 29.5919C21.4423 26.2457 21.2697 23.3314 21.1769 21.7656C21.1638 21.5465 21.1523 21.3545 21.1456 21.2031C21.9021 20.5322 25.4081 18.6538 27.9084 19.2267C29.0492 19.4879 29.7445 20.2649 30.0335 21.6012C31.5293 28.5198 30.2314 31.4034 29.1885 33.7207C28.9736 34.1981 28.7705 34.6493 28.5972 35.1161L28.4628 35.477C28.1226 36.3894 27.806 37.2378 27.6098 38.0433C25.9017 38.0384 24.2402 37.3089 22.9768 35.9903ZM23.2389 45.3208C22.7402 45.1963 22.2916 44.9799 22.0285 44.8004C22.2483 44.697 22.6395 44.5561 23.318 44.4164C26.6014 43.7405 27.1085 43.2634 28.2159 41.8574C28.4697 41.535 28.7575 41.1696 29.156 40.7245L29.1565 40.724C29.7501 40.0593 30.0217 40.172 30.514 40.3764C30.9131 40.5413 31.3018 41.0416 31.4594 41.5921C31.534 41.8521 31.6177 42.3454 31.3437 42.7295C29.0305 45.9683 25.6597 45.9267 23.2389 45.3208ZM40.4226 61.3114C36.4058 62.1717 34.9836 60.1223 34.0463 57.7796C33.4414 56.2669 33.1441 49.4461 33.355 41.9133C33.3577 41.8131 33.3435 41.7164 33.3159 41.6253C33.2912 41.4454 33.2537 41.2676 33.2036 41.093C32.89 39.997 32.1256 39.0802 31.2085 38.7001C30.8442 38.5492 30.1755 38.2722 29.372 38.4778C29.5433 37.7717 29.8405 36.9743 30.1627 36.1109L30.2979 35.7478C30.45 35.3384 30.6411 34.9142 30.8429 34.4652C31.9343 32.0407 33.4289 28.7199 31.8068 21.2179C31.1992 18.4079 29.1701 17.0356 26.0942 17.3544C24.2503 17.5452 22.5632 18.2892 21.7217 18.7158C21.5407 18.8074 21.3753 18.8961 21.2207 18.9822C21.4556 16.1511 22.3428 10.86 25.6619 7.51232C27.7518 5.40498 30.535 4.36409 33.9259 4.42022C40.6075 4.52953 44.8921 7.95841 47.3102 10.8159C49.3939 13.2781 50.5221 15.7584 50.9725 17.0962C47.586 16.7517 45.2831 17.4201 44.1157 19.0893C41.5757 22.7201 45.5051 29.7669 47.3938 33.1538C47.7401 33.7744 48.0387 34.3109 48.1329 34.5388C48.7481 36.0292 49.5439 37.0243 50.1252 37.7506C50.3035 37.9731 50.4762 38.189 50.608 38.3776C49.5824 38.6733 47.7401 39.3564 47.9077 42.7713C47.7726 44.4848 46.8097 52.5071 46.3205 55.3416C45.6748 59.0861 44.2969 60.4808 40.4226 61.3114ZM57.1888 42.1243C56.14 42.611 54.385 42.9761 52.7178 43.0546C50.8764 43.1408 49.939 42.8484 49.7185 42.6684C49.6149 40.5404 50.407 40.3181 51.245 40.0827C51.3769 40.0458 51.5055 40.0096 51.6295 39.9663C51.7065 40.029 51.791 40.0913 51.8834 40.1524C53.3636 41.1293 56.0035 41.2346 59.7308 40.4653L59.7716 40.4572C59.2688 40.9271 58.4085 41.5578 57.1888 42.1243Z" fill="white"/>
</g>
<defs>
<clipPath id="clip0_862_2027">
<rect width="65" height="65" fill="white" transform="translate(0.0996094 0.100098)"/>
</clipPath>
</defs>
</svg>
