<svg width="51" height="50" viewBox="0 0 51 50" fill="none" xmlns="http://www.w3.org/2000/svg">
<g clip-path="url(#clip0_772_1207)">
<path d="M25.417 5.61509C26.088 4.19083 26.9645 2.97198 28.1833 2.05443C31.0592 -0.12306 34.2228 -0.616075 37.5369 0.808192C40.8511 2.24615 42.741 4.84818 43.1381 8.46363C43.2066 9.12098 43.1792 9.80573 43.1107 10.4768C43.0697 10.8602 43.2477 10.9424 43.5353 11.052C46.8221 12.3119 48.9721 14.6126 49.8349 18.0364C51.0949 23.0487 48.2189 28.2116 43.3162 29.7866C43.1655 29.8413 43.0149 29.8824 42.8231 29.9509C43.4531 31.9914 43.4394 34.0183 42.7273 36.1136C43.3846 36.1136 43.9872 36.141 44.5761 36.0999C44.713 36.0862 44.8774 35.8534 44.9459 35.689C45.4663 34.5524 46.6029 33.8129 47.8218 33.8539C49.0543 33.895 50.1636 34.703 50.5881 35.8397C51.1359 37.3598 50.3964 39.058 48.9174 39.6743C47.4246 40.3042 45.6991 39.6469 45.0006 38.1815C44.9185 38.0172 44.8637 37.8528 44.7815 37.6474C43.9324 37.6474 43.0697 37.6337 42.2069 37.6611C42.0836 37.6611 41.9193 37.7844 41.8508 37.8939C40.3033 40.1947 38.1806 41.5778 35.4553 42.0572C35.3731 42.0709 35.291 42.1119 35.1951 42.1393C35.1951 42.9336 35.1951 43.7006 35.1951 44.5496C35.3868 44.5633 35.5786 44.577 35.7703 44.577C37.0439 44.577 38.3175 44.5633 39.5912 44.5907C40.002 44.6044 40.1663 44.4675 40.317 44.0977C40.9469 42.5639 42.6177 41.7833 44.2063 42.2352C45.7812 42.6871 46.7399 44.2483 46.4797 45.9054C46.2332 47.4803 44.7678 48.6718 43.1518 48.5759C41.8097 48.4938 40.8374 47.8227 40.3307 46.5765C40.1663 46.193 39.9746 46.0972 39.5912 46.1108C38.2491 46.1382 36.8933 46.1245 35.5512 46.1245C34.3323 46.1245 33.6339 45.4261 33.6339 44.221C33.6339 43.5499 33.6339 42.8789 33.6339 42.1667C31.7851 42.0572 30.128 41.482 28.5805 40.4001C28.5805 41.6326 28.5805 42.7967 28.5805 43.9744C30.3334 44.7961 31.0592 46.015 30.7306 47.5762C30.4567 48.932 29.183 49.9591 27.7862 49.9591C26.403 49.9728 25.1567 49.0005 24.8281 47.6584C24.4309 46.0972 25.1704 44.8372 27.0056 43.9197C27.0056 42.3311 27.0056 40.7151 26.9919 39.0991C26.9919 38.9758 26.9097 38.8389 26.8412 38.7156C26.3756 37.9898 25.8963 37.264 25.417 36.5244C23.8831 39.7838 21.2948 41.6874 17.5835 42.1256C17.5835 42.8241 17.5835 43.5088 17.5835 44.1936C17.5698 45.3987 16.8987 46.0698 15.7073 46.0698C14.3241 46.0835 12.9409 46.0835 11.5577 46.0698C11.2428 46.0698 11.0647 46.1382 10.9415 46.4669C10.3663 47.946 8.84615 48.7814 7.36711 48.4801C5.79219 48.1651 4.6966 46.8641 4.6966 45.2892C4.6966 43.7142 5.79219 42.4132 7.36711 42.0983C8.84615 41.797 10.3663 42.646 10.9552 44.1114C11.0647 44.399 11.188 44.5222 11.5167 44.5222C12.8861 44.5085 14.2419 44.5085 15.6114 44.5222C15.9401 44.5222 16.1044 44.4538 16.0907 44.084C16.0634 43.4267 16.0907 42.783 16.0907 42.2352C15.0088 41.8928 13.968 41.66 13.0094 41.2492C11.3934 40.5644 10.1198 39.4141 9.14744 37.9487C8.90093 37.7707 8.73659 37.6611 8.42161 37.6611C7.61361 37.6885 6.79192 37.6748 5.98392 37.6748C5.47721 39.058 4.55965 39.8934 3.06691 39.9208C1.53309 39.9482 0.273158 38.8663 0.0403448 37.3461C-0.192468 35.8808 0.711394 34.4565 2.14936 34.0046C3.58732 33.5663 5.14853 34.21 5.75111 35.5932C5.95653 36.0588 6.20304 36.1821 6.65497 36.141C7.1069 36.1136 7.55883 36.1273 8.10663 36.1273C7.39449 34.0594 7.35341 32.0462 7.99707 29.992C7.72317 29.8961 7.49036 29.8003 7.24385 29.7181C3.34081 28.3349 0.711394 24.6373 0.697699 20.5151C0.684004 16.2012 3.20386 12.5721 7.28494 11.0794C7.62731 10.9561 7.73687 10.8191 7.68209 10.4357C6.98365 5.57401 10.695 0.726023 15.5566 0.137143C19.6925 -0.369567 23.2942 1.53402 25.2115 5.25903C25.2526 5.36859 25.3211 5.46445 25.417 5.61509ZM24.5679 30.2522C24.3214 30.2522 24.1296 30.2522 23.9379 30.2522C22.1987 30.2522 20.4594 30.2659 18.7339 30.2522C17.1179 30.2385 16.0223 29.1566 16.0086 27.5543C15.9949 23.0761 15.9949 18.5841 16.0086 14.1059C16.0086 12.5036 17.1042 11.408 18.7202 11.3943C20.4594 11.3806 22.1987 11.3943 23.9242 11.3943C24.1159 11.3943 24.3077 11.3943 24.4857 11.3943C24.965 7.95692 24.1296 4.82079 20.9935 2.78025C18.323 1.04101 14.8171 1.20534 12.2699 3.09524C9.50351 5.14947 8.79137 8.50471 9.27069 10.4494C10.3526 10.5316 11.4071 10.6137 12.4616 10.6548C12.5985 10.6548 12.7629 10.5179 12.8724 10.3946C13.4476 9.66878 14.1598 9.13468 15.0225 8.79231C15.584 8.57319 16.0223 8.69644 16.2003 9.10729C16.4057 9.57292 16.1866 9.95637 15.5977 10.2166C13.8585 10.9698 13.0368 12.6132 13.5024 14.462C13.6531 15.0783 13.475 15.4891 12.9957 15.6124C12.5575 15.7219 12.1192 15.448 12.0371 14.8728C11.9138 13.9964 11.8864 13.0925 11.8179 12.1612C9.72262 11.5861 6.02501 12.5721 3.95708 15.3385C1.84807 18.1459 1.71112 21.9942 3.66949 24.9797C5.28548 27.4584 8.81876 29.1977 11.0236 28.6636C10.873 27.8419 10.695 27.0476 10.6128 26.2259C10.5443 25.637 10.873 25.2809 11.3523 25.2672C11.8316 25.2536 12.1055 25.5822 12.1192 26.1985C12.1877 28.1706 13.4476 29.5537 15.406 29.8003C16.036 29.8824 16.3509 30.1974 16.2825 30.7041C16.214 31.1971 15.8305 31.4162 15.1869 31.3478C14.2419 31.2382 13.3655 30.8958 12.5985 30.3207C12.4753 30.2385 12.3247 30.1289 12.1877 30.1426C11.3249 30.1837 10.4621 30.2385 9.55829 30.2933C9.5309 30.3891 9.47612 30.5261 9.42134 30.6767C8.35314 34.1963 9.98283 38.072 13.2422 39.7427C16.6111 41.4683 20.6511 40.5781 22.9519 37.6474C24.6637 35.4699 24.609 32.909 24.5679 30.2522ZM26.3071 30.2522C26.3071 31.4573 26.2386 32.6077 26.3208 33.7444C26.6084 37.5105 29.9226 40.6192 33.7024 40.6466C36.8659 40.674 39.2899 39.3319 40.81 36.497C41.8371 34.5935 41.9604 32.6351 41.3715 30.5946C41.2893 30.3207 41.1661 30.2385 40.8922 30.2522C40.3581 30.2796 39.824 30.2248 39.3036 30.2522C39.0434 30.2659 38.7421 30.348 38.5503 30.4987C37.8245 31.0602 37.0165 31.4573 36.1127 31.608C35.5649 31.7038 35.1951 31.4573 35.1129 30.9917C35.0445 30.5535 35.291 30.2111 35.8251 30.1152C37.7971 29.7729 39.0844 27.9104 38.8242 26.0479C38.7421 25.4727 39.2351 25.0481 39.7281 25.1714C40.1663 25.2809 40.3855 25.6096 40.3581 26.0479C40.2896 26.938 40.18 27.8145 40.0979 28.7047C42.0015 28.9375 45.5621 27.8419 47.4246 24.5962C49.1639 21.5833 48.8626 17.8035 46.6714 15.1056C44.535 12.4762 40.9606 11.6135 39.016 12.1749C38.9338 13.1199 38.9064 14.0101 38.7832 14.8865C38.701 15.4754 38.2628 15.7356 37.8245 15.6261C37.3589 15.5028 37.1672 15.1056 37.3041 14.5168C37.7697 12.531 37.0165 11.0246 35.154 10.2029C34.6336 9.97007 34.4282 9.6003 34.6062 9.16207C34.7843 8.71014 35.2088 8.57319 35.7566 8.77861C36.6194 9.10729 37.3315 9.65508 37.9204 10.3672C38.0299 10.5042 38.2217 10.6548 38.3586 10.6548C39.4131 10.6137 40.4676 10.5316 41.5632 10.4631C41.5632 9.70986 41.6591 8.88817 41.5495 8.09387C40.9059 3.75259 36.6604 0.794497 32.3329 1.75314C27.9642 2.72548 25.5676 6.64221 26.3345 11.3943C26.5262 11.3943 26.718 11.3943 26.9097 11.3943C28.6489 11.3943 30.3882 11.3943 32.1138 11.3943C33.7708 11.408 34.8527 12.4762 34.8664 14.1196C34.8801 18.5841 34.8801 23.0487 34.8664 27.5132C34.8664 29.1566 33.7708 30.2385 32.1274 30.2522C30.3745 30.2659 28.6216 30.2522 26.8686 30.2522C26.6495 30.2522 26.4715 30.2522 26.3071 30.2522ZM25.4717 12.9282C23.2806 12.9282 21.0757 12.9282 18.8845 12.9282C17.9532 12.9282 17.5424 13.3253 17.5424 14.2429C17.5424 18.6389 17.5424 23.035 17.5424 27.431C17.5424 28.3075 17.9669 28.732 18.8571 28.732C23.2532 28.732 27.6492 28.732 32.0316 28.732C32.8944 28.732 33.3189 28.3075 33.3326 27.4721C33.3463 23.0487 33.3463 18.6115 33.3326 14.1881C33.3326 13.3664 32.8944 12.9419 32.0727 12.9419C29.8678 12.9145 27.6629 12.9282 25.4717 12.9282ZM44.9322 45.3713C44.9322 44.4401 44.1652 43.6869 43.234 43.6732C42.3164 43.6732 41.5358 44.4401 41.5221 45.3576C41.5084 46.3026 42.3027 47.0832 43.2477 47.0695C44.1926 47.0558 44.9459 46.3026 44.9322 45.3713ZM9.54459 45.3987C9.54459 44.4401 8.84615 43.7006 7.90121 43.6732C6.96995 43.6595 6.16196 44.4538 6.16196 45.385C6.16196 46.3026 6.92887 47.0695 7.86012 47.0695C8.80507 47.0832 9.5309 46.3437 9.54459 45.3987ZM3.08061 35.4288C2.24522 35.4015 1.57417 36.0314 1.54678 36.8394C1.51939 37.6748 2.17675 38.3869 2.99844 38.4006C3.79274 38.4143 4.49118 37.757 4.51857 36.949C4.54596 36.1273 3.9023 35.4425 3.08061 35.4288ZM47.6985 35.4288C46.8768 35.4288 46.2195 36.0862 46.2195 36.9079C46.2195 37.7159 46.8905 38.4006 47.6985 38.4143C48.5202 38.428 49.205 37.7296 49.205 36.8942C49.1913 36.0588 48.5339 35.4288 47.6985 35.4288ZM27.704 45.5083C26.8549 45.5083 26.2113 46.1382 26.225 46.9736C26.225 47.7953 26.896 48.4527 27.7177 48.4527C28.5394 48.4527 29.1967 47.7953 29.1967 46.9736C29.1967 46.1245 28.5531 45.5083 27.704 45.5083Z" fill="#1BA1E3"/>
<path d="M24.1835 21.9668C22.992 21.9668 21.8827 21.9668 20.6639 21.9668C20.6639 22.4598 20.6639 22.9528 20.6639 23.4321C20.6639 23.8156 20.6776 24.2127 20.6502 24.5962C20.6091 25.0481 20.3215 25.322 19.8696 25.3083C19.4177 25.2946 19.1711 25.007 19.1164 24.5688C19.1027 24.514 19.1164 24.4592 19.1164 24.4045C19.1164 22.7748 19.089 21.1451 19.1301 19.5154C19.1711 17.7898 20.5132 16.434 22.2251 16.3108C23.8274 16.1875 25.3338 17.3379 25.6488 18.9676C25.7584 19.5154 25.7173 20.0906 25.7173 20.6658C25.731 21.912 25.7173 23.1445 25.7173 24.3908C25.7173 24.9797 25.4023 25.3357 24.9367 25.322C24.4848 25.3083 24.1972 24.966 24.1972 24.4045C24.1698 23.6239 24.1835 22.8296 24.1835 21.9668ZM24.115 20.3919C24.3067 19.3374 24.0328 18.5568 23.3481 18.1185C22.7592 17.7488 21.9649 17.7761 21.4034 18.187C20.7598 18.6526 20.5269 19.4332 20.7598 20.3919C21.869 20.3919 22.992 20.3919 24.115 20.3919Z" fill="#1BA1E3"/>
<path d="M28.5554 23.5143C28.5554 21.8025 28.5554 20.1728 28.5554 18.4609C28.2678 18.4609 27.9939 18.4746 27.7337 18.4609C27.2407 18.4335 26.9668 18.1322 26.9668 17.694C26.9668 17.2558 27.2681 16.9545 27.7611 16.9545C28.8293 16.9408 29.8838 16.9408 30.952 16.9545C31.4313 16.9545 31.7463 17.2832 31.76 17.694C31.7737 18.1185 31.4587 18.4335 30.9931 18.4746C30.7329 18.4883 30.4727 18.4746 30.1714 18.4746C30.1714 20.1728 30.1714 21.8162 30.1714 23.528C30.4727 23.528 30.7466 23.5143 31.0205 23.528C31.4861 23.5554 31.7463 23.8293 31.7463 24.2812C31.7463 24.7332 31.4724 25.0208 31.0205 25.0345C29.9112 25.0482 28.7882 25.0619 27.6789 25.0345C27.227 25.0208 26.9668 24.7195 26.9805 24.2675C26.9942 23.8293 27.2407 23.5828 27.6652 23.5417C27.9254 23.5006 28.213 23.5143 28.5554 23.5143Z" fill="#1BA1E3"/>
</g>
<defs>
<clipPath id="clip0_772_1207">
<rect width="50.7395" height="50" fill="white"/>
</clipPath>
</defs>
</svg>
