<svg width="42" height="50" viewBox="0 0 42 50" fill="none" xmlns="http://www.w3.org/2000/svg">
<path d="M26.9358 0C27.3446 0.0950496 27.7587 0.175777 28.1623 0.287753C31.3185 1.16013 33.601 3.93219 33.7833 7.20033C33.9109 9.48022 33.864 11.7562 33.196 14.0087C33.3393 14.0595 33.4695 14.1103 33.6023 14.1546C35.4264 14.7535 36.2415 16.7079 35.3639 18.4071C34.5137 20.0529 33.6491 21.6921 32.7937 23.3353C32.519 23.8627 32.1179 24.2272 31.5581 24.4512C31.3523 24.5332 31.1336 24.7376 31.0476 24.9408C30.3419 26.61 29.4865 28.1933 28.4279 29.6659C28.1623 30.0344 27.9162 30.4562 27.5608 30.714C26.8212 31.2479 26.967 31.9835 26.9996 32.6945C27.0048 32.8051 27.2457 32.9575 27.4019 33.0004C29.8367 33.6866 32.1544 34.654 34.3835 35.848C37.1491 37.3285 39.2922 39.4052 40.649 42.2567C41.6607 44.383 41.9237 46.6433 41.8429 48.961C41.8195 49.6328 41.425 49.9961 40.7401 49.9974C35.7441 50.0013 30.7469 50.0013 25.7509 49.9974C25.0856 49.9974 24.6416 49.6042 24.6298 49.0313C24.6181 48.4506 25.0804 48.0404 25.7717 48.0404C30.2469 48.0378 34.7233 48.0391 39.1985 48.0391C39.3912 48.0391 39.5852 48.0391 39.8951 48.0391C39.8209 47.2969 39.8026 46.5873 39.6724 45.8985C39.0058 42.37 37.1321 39.6878 33.9994 37.8988C31.8731 36.6852 29.6466 35.7113 27.2938 35.0277C27.1701 34.9913 27.0452 34.9639 26.9097 34.9288C25.9592 37.943 23.9997 39.7021 20.7771 39.5172C17.9516 39.3557 16.246 37.6409 15.4335 34.8845C14.5142 35.2009 13.5898 35.4887 12.6875 35.8337C10.6784 36.6019 8.7175 37.4912 6.99098 38.788C4.00799 41.0276 2.58225 44.0835 2.4872 47.7865C2.48589 47.849 2.50282 47.9128 2.52105 48.0378C2.71245 48.0378 2.90255 48.0378 3.09265 48.0378C7.50269 48.0378 11.914 48.0378 16.3241 48.0378C16.4699 48.0378 16.617 48.0326 16.7629 48.0404C17.2954 48.0704 17.6964 48.4493 17.7329 48.9545C17.768 49.4401 17.3918 49.8971 16.8748 49.9805C16.716 50.0065 16.5506 49.9974 16.3879 49.9974C11.5416 49.9987 6.69151 49.9987 1.84138 49.9987C0.816666 49.9987 0.522403 49.6823 0.493758 48.6589C0.402615 45.4702 1.14348 42.5419 3.07833 39.9508C4.67073 37.8167 6.78786 36.3845 9.14197 35.2374C11.0169 34.3246 12.944 33.5525 14.9595 33.0148C15.2968 32.9249 15.4257 32.7713 15.371 32.4419C15.3684 32.4262 15.3684 32.4093 15.371 32.3937C15.4556 31.6958 15.2317 31.1802 14.7252 30.632C13.2109 28.9914 12.1875 27.0227 11.3307 24.9733C11.2161 24.6999 11.0859 24.5241 10.7813 24.4395C10.2175 24.2832 9.83726 23.8861 9.57034 23.3757C8.72662 21.7625 7.87377 20.1544 7.04177 18.536C6.07044 16.6441 6.8751 14.7613 8.9076 14.1324C8.9688 14.1129 9.02609 14.083 9.01437 14.0882C8.95968 12.9228 8.81646 11.7888 8.86854 10.6651C9.10291 5.68996 12.7812 1.37627 17.6496 0.294263C18.1378 0.186193 18.6313 0.0989558 19.1222 0.0026041C19.6756 0.0026041 20.2289 0.0026041 20.7823 0.0026041C21.6508 0.225255 22.475 0.539048 23.1429 1.207C23.8083 0.53384 24.6259 0.239577 25.4697 0.0026041C25.9592 0 26.4475 0 26.9358 0ZM26.3368 10.6338C26.3577 10.6078 26.3251 10.6443 26.2991 10.6846C23.9853 14.1949 19.8982 14.9137 16.5181 12.4046C15.5025 11.6507 14.3996 11.4737 13.263 12.044C12.1159 12.6182 11.569 13.6194 11.5247 14.8902C11.4857 16.0491 11.0625 16.3694 9.95836 16.0582C9.52868 15.9371 9.14978 16.0308 8.85161 16.3681C8.54954 16.7092 8.50918 17.0907 8.72141 17.4969C9.56384 19.1102 10.4037 20.7247 11.2552 22.3328C11.3086 22.433 11.4635 22.5346 11.5742 22.5385C12.3971 22.5723 12.569 22.6817 12.8528 23.4603C13.5025 25.2415 14.3827 26.9016 15.4699 28.4537C18.3318 32.5421 23.9971 32.5525 26.8629 28.4758C27.9917 26.8704 28.8836 25.1452 29.5607 23.3041C29.7951 22.6661 30.0607 22.5176 30.7365 22.5228C30.8654 22.5242 31.0529 22.3939 31.1167 22.2729C31.9356 20.739 32.7312 19.1935 33.5476 17.6584C33.7924 17.1988 33.8627 16.7678 33.4942 16.3524C33.1309 15.9423 32.6921 15.9332 32.2039 16.1129C31.4435 16.3928 30.8823 16.053 30.7534 15.2496C30.5372 13.8968 29.8224 12.8812 28.6818 12.1468C27.9123 11.652 27.1428 11.1547 26.3368 10.6338ZM10.819 11.363C10.8906 11.3487 10.9297 11.3526 10.9453 11.3356C12.9127 9.29533 15.8345 9.34351 17.9712 11.001C20.613 13.0504 24.458 11.5323 25.1754 8.26411C25.2587 7.88521 25.2626 7.48809 25.3369 7.10659C25.4345 6.6053 25.8173 6.30843 26.3043 6.31364C26.7886 6.31885 27.1571 6.63394 27.2483 7.13263C27.2834 7.32403 27.2912 7.52064 27.3212 7.71334C27.4657 8.64561 27.8811 9.44507 28.7079 9.90469C29.7821 10.501 30.8042 11.1364 31.575 12.2236C31.6114 12.0739 31.6336 12.0179 31.6362 11.9619C31.7052 10.518 31.838 9.07398 31.8276 7.63131C31.808 4.89961 29.8992 2.64056 27.2261 2.07807C26.1767 1.85802 25.2171 1.93485 24.359 2.71868C23.6494 3.3684 22.5895 3.32283 21.8565 2.67441C21.2562 2.14448 20.5896 1.93224 19.7992 1.96609C15.9699 2.13015 12.5976 4.60795 11.3346 8.21984C10.9818 9.23023 10.7747 10.2719 10.819 11.363ZM24.9632 32.6437C22.4294 33.7791 19.9073 33.7543 17.3839 32.6437C17.186 34.4692 17.5506 36.0225 19.1717 37.0147C20.5479 37.8558 21.9672 37.8219 23.307 36.9339C24.8304 35.9235 25.1585 34.408 24.9632 32.6437Z" fill="#1BA1E3"/>
</svg>
