<svg width="50" height="50" viewBox="0 0 50 50" fill="none" xmlns="http://www.w3.org/2000/svg">
<g clip-path="url(#clip0_784_1772)">
<g clip-path="url(#clip1_784_1772)">
<path d="M25.0897 40.5138C24.3035 40.5138 23.5172 40.5179 22.731 40.5138C21.9855 40.5098 21.794 40.3387 21.684 39.6176C21.5618 38.8028 21.4274 37.9921 21.3174 37.1774C21.2766 36.8922 21.1748 36.713 20.8733 36.6478C20.6289 36.5908 20.3682 36.5052 20.1645 36.3667C19.5086 35.9145 18.9871 36.0815 18.4372 36.5908C17.9687 37.0226 17.4269 37.377 16.9095 37.7518C16.4003 38.1266 16.1477 38.1144 15.7118 37.6825C14.5182 36.4971 13.3286 35.3075 12.139 34.1139C11.7031 33.678 11.6909 33.4254 12.0698 32.9162C12.5464 32.2684 13.019 31.6166 13.5241 30.9893C13.7726 30.6837 13.8704 30.4148 13.6382 30.0604C13.5404 29.9097 13.4549 29.7345 13.4264 29.5593C13.2919 28.6794 12.742 28.3942 11.915 28.3657C11.2958 28.3453 10.6847 28.2068 10.0655 28.1254C9.56847 28.0602 9.30774 27.7872 9.30774 27.2862C9.30367 25.5833 9.30367 23.8845 9.30774 22.1817C9.30774 21.6521 9.58884 21.3913 10.1062 21.3221C10.921 21.2162 11.7317 21.0736 12.5464 20.9677C12.8886 20.9228 13.129 20.8088 13.1942 20.4381C13.2227 20.2792 13.2716 20.104 13.3653 19.9777C13.9519 19.1793 13.7075 18.5356 13.0842 17.8797C12.6727 17.4438 12.355 16.9224 11.9924 16.4376C11.7154 16.0709 11.752 15.7247 12.0698 15.4028C13.296 14.1725 14.5263 12.9422 15.7566 11.716C16.0947 11.3779 16.4491 11.3494 16.8321 11.6427C17.5328 12.1723 18.2457 12.6856 18.9342 13.2274C19.1827 13.4229 19.3945 13.48 19.6756 13.3048C19.8426 13.1989 20.0341 13.1011 20.2256 13.0685C21.1014 12.9137 21.4396 12.3882 21.4559 11.5245C21.4681 10.9257 21.6066 10.3309 21.6921 9.73207C21.7736 9.14951 22.0058 8.93767 22.6047 8.9336C24.2709 8.92545 25.933 8.92545 27.5992 8.9336C28.1899 8.93767 28.4058 9.15359 28.4954 9.74836C28.6258 10.5957 28.7358 11.4512 28.8987 12.2945C28.9354 12.4778 29.1432 12.6408 29.302 12.7752C29.408 12.8648 29.5831 12.8648 29.7013 12.9504C30.6097 13.6022 31.3552 13.3089 32.0845 12.6082C32.4633 12.2456 32.9277 11.9686 33.3473 11.6468C33.7262 11.3575 34.0847 11.3697 34.4228 11.7119C35.6531 12.9422 36.8793 14.1685 38.1096 15.3988C38.4518 15.741 38.4559 16.0954 38.1667 16.4742C37.633 17.1709 37.0953 17.8675 36.5983 18.5886C36.4842 18.7556 36.4597 19.057 36.5168 19.2607C36.639 19.6966 36.8101 20.1285 37.026 20.5277C37.1238 20.7151 37.3519 20.9147 37.5515 20.9514C38.3785 21.1062 39.2136 21.1999 40.0447 21.318C40.6721 21.4076 40.8798 21.6195 40.8798 22.2468C40.888 23.8927 40.888 25.5385 40.8798 27.1884C40.8758 27.8198 40.6761 28.0357 40.0529 28.1294C39.2381 28.2516 38.4274 28.3779 37.6126 28.4879C37.2949 28.5327 37.0749 28.6346 36.9975 28.9849C36.9405 29.2497 36.8508 29.5308 36.696 29.7467C36.2683 30.3374 36.4557 30.7896 36.8834 31.2826C37.3478 31.8203 37.743 32.4192 38.1748 32.9895C38.4681 33.3765 38.4355 33.7269 38.0974 34.065C36.8793 35.279 35.6613 36.493 34.4513 37.7151C34.0929 38.0736 33.7344 38.1021 33.331 37.7966C32.6344 37.2629 31.9419 36.7252 31.2167 36.2282C31.0497 36.1141 30.7523 36.1019 30.5446 36.1549C30.1412 36.2648 29.7705 36.493 29.3672 36.5989C28.9721 36.7048 28.8661 36.937 28.8254 37.2996C28.7317 38.1184 28.5973 38.9291 28.4914 39.7439C28.4221 40.2694 28.1329 40.5179 27.6073 40.5179C26.7722 40.5138 25.9289 40.5138 25.0897 40.5138ZM33.7221 13.1011C33.0337 13.6185 32.2963 14.1562 31.5752 14.7184C31.2167 14.9995 30.8745 15.024 30.459 14.8325C29.7461 14.5066 29.0209 14.201 28.2877 13.9322C27.8599 13.7733 27.6318 13.537 27.5747 13.0726C27.4647 12.1682 27.314 11.272 27.1796 10.3676C25.7578 10.3676 24.3809 10.3676 22.9754 10.3676C22.841 11.2883 22.6862 12.1682 22.5884 13.0563C22.5354 13.5533 22.2829 13.7855 21.8388 13.9444C21.1544 14.1888 20.4659 14.4496 19.8182 14.7755C19.3253 15.024 18.9423 15.0077 18.5146 14.6655C17.822 14.1114 17.0969 13.594 16.4451 13.1052C15.4307 14.1236 14.4693 15.0891 13.4793 16.0872C13.9926 16.7716 14.5345 17.509 15.0926 18.2301C15.3737 18.5926 15.39 18.9308 15.1985 19.3463C14.8726 20.0592 14.567 20.7843 14.2982 21.5176C14.1393 21.9454 13.8989 22.1694 13.4345 22.2224C12.5301 22.3283 11.6339 22.4831 10.7214 22.6176C10.7214 24.0312 10.7214 25.3959 10.7214 26.8014C11.6054 26.9277 12.469 27.0662 13.3367 27.1639C13.8786 27.225 14.1678 27.4858 14.3389 28.0113C14.563 28.7038 14.8604 29.3719 15.1781 30.0319C15.3818 30.4597 15.3859 30.8141 15.0844 31.197C14.5222 31.914 13.9886 32.6514 13.4916 33.3154C14.5019 34.3257 15.4755 35.2994 16.4736 36.2934C17.1539 35.7841 17.8913 35.2423 18.6123 34.6842C18.9749 34.4031 19.309 34.395 19.7245 34.5946C20.413 34.9246 21.1218 35.222 21.8429 35.4745C22.2951 35.6334 22.5354 35.8697 22.5925 36.3585C22.6984 37.2629 22.8532 38.1633 22.9876 39.0758C24.3972 39.0758 25.7619 39.0758 27.1633 39.0758C27.2896 38.1877 27.424 37.324 27.5259 36.4563C27.591 35.9267 27.8232 35.6171 28.3651 35.4542C29.025 35.2545 29.6728 34.9816 30.2838 34.6598C30.8134 34.3787 31.2167 34.4113 31.6771 34.7861C32.3493 35.3401 33.0663 35.8371 33.6814 36.2974C34.6999 35.2749 35.6653 34.3094 36.6553 33.3195C36.1461 32.6391 35.6083 31.8977 35.0502 31.1807C34.7691 30.8182 34.7528 30.4841 34.9524 30.0686C35.2824 29.3801 35.5676 28.6672 35.8405 27.9502C35.9994 27.5387 36.2275 27.2821 36.696 27.221C37.6167 27.1069 38.5333 26.9521 39.4581 26.8136C39.4581 25.4 39.4581 24.0352 39.4581 22.6216C38.5455 22.4872 37.6493 22.3283 36.7449 22.2265C36.252 22.1694 36.0157 21.9209 35.8568 21.4769C35.6124 20.7925 35.3517 20.104 35.0258 19.4563C34.7813 18.9674 34.7895 18.5804 35.1358 18.1486C35.6898 17.452 36.2112 16.7268 36.696 16.0791C35.6857 15.0647 34.7202 14.0992 33.7221 13.1011Z" fill="#1BA1E3"/>
<path d="M47.6744 22.7153C48.1469 22.1002 48.5665 21.5502 48.9902 21.0043C49.3609 20.5277 49.7479 20.4217 50.1064 20.6906C50.4609 20.9554 50.469 21.3832 50.1146 21.8476C49.3283 22.8823 48.538 23.913 47.7436 24.9396C47.3037 25.5099 46.9615 25.5588 46.3993 25.1311C45.3645 24.3489 44.3338 23.5586 43.3072 22.7642C42.8306 22.3935 42.7288 22.0065 42.9895 21.648C43.2665 21.2691 43.6657 21.2691 44.1831 21.6602C44.8512 22.1653 45.5153 22.6746 46.2526 23.2367C46.11 21.1347 45.7312 19.1874 44.9775 17.3379C41.6003 9.07616 35.457 4.3709 26.5801 3.58872C16.7582 2.721 7.63281 9.1169 4.78521 18.56C4.72818 18.7515 4.71596 19 4.58967 19.1181C4.38598 19.3096 4.056 19.5662 3.85638 19.5092C3.61603 19.444 3.38789 19.1059 3.28197 18.8411C3.20864 18.6578 3.33493 18.3808 3.40011 18.1567C6.08476 9.1943 13.9187 2.85544 23.2437 2.08141C34.7359 1.12814 45.0997 8.99061 47.2874 20.3321C47.434 21.0858 47.5359 21.8476 47.6744 22.7153Z" fill="#1BA1E3"/>
<path d="M3.9463 26.2351C4.57367 35.5194 11.4829 43.4592 20.5145 45.378C30.475 47.4964 40.24 42.5956 44.4523 33.3399C44.8515 32.4599 45.1367 31.5311 45.4626 30.6185C45.6704 30.036 45.9718 29.8079 46.4036 29.9464C46.8436 30.0889 47.0025 30.4556 46.8151 31.0259C43.8494 40.0739 37.7101 45.6102 28.2996 47.0931C17.341 48.8204 6.94463 42.2249 3.54707 31.6614C3.07858 30.2112 2.89526 28.6713 2.58157 27.1721C2.5612 27.0703 2.54898 26.9684 2.50824 26.7362C2.02753 27.3595 1.62015 27.885 1.21277 28.4105C0.817609 28.9198 0.430596 29.0298 0.0639524 28.7364C-0.302691 28.4472 -0.298617 28.0276 0.0843215 27.5347C0.866495 26.5244 1.65274 25.51 2.44306 24.5037C2.89526 23.9293 3.20894 23.8845 3.78335 24.3204C4.83032 25.1189 5.87729 25.9174 6.92019 26.7199C7.37238 27.0703 7.46608 27.5021 7.18091 27.8443C6.89982 28.1824 6.5291 28.1865 6.06876 27.8402C5.38029 27.335 4.70403 26.8136 3.9463 26.2351Z" fill="#1BA1E3"/>
<path d="M25.0782 31.2947C21.4566 31.2703 18.5153 28.3127 18.5235 24.7074C18.5316 21.0776 21.534 18.1159 25.1638 18.1485C28.7324 18.1811 31.69 21.1794 31.6656 24.74C31.6452 28.3657 28.6754 31.3192 25.0782 31.2947ZM25.119 19.5662C22.2591 19.5621 19.9411 21.8679 19.9371 24.7155C19.933 27.5427 22.2347 29.873 25.0456 29.8852C27.9299 29.8974 30.2561 27.5876 30.2561 24.7074C30.2561 21.8924 27.938 19.5703 25.119 19.5662Z" fill="#1BA1E3"/>
</g>
</g>
<defs>
<clipPath id="clip0_784_1772">
<rect width="50" height="50" fill="white"/>
</clipPath>
<clipPath id="clip1_784_1772">
<rect width="50.5846" height="45.3701" fill="white" transform="translate(-0.208984 2)"/>
</clipPath>
</defs>
</svg>
