<svg width="50" height="50" viewBox="0 0 50 50" fill="none" xmlns="http://www.w3.org/2000/svg">
<g clip-path="url(#clip0_772_837)">
<path d="M45.302 29.417C45.8941 29.1485 46.3914 28.914 46.896 28.6966C47.4145 28.4731 47.8009 28.5848 48.0915 29.0703C48.6777 30.0494 49.2506 31.0368 49.8164 32.0279C50.1013 32.5269 50.0222 32.9002 49.5658 33.2514C49.0178 33.673 48.466 34.091 47.8981 34.4848C47.6317 34.6695 47.5648 34.8656 47.6244 35.1816C47.861 36.4357 47.8559 37.6956 47.6222 38.9506C47.5691 39.2361 47.6165 39.431 47.8747 39.6085C48.4584 40.0098 49.0239 40.4384 49.5852 40.871C50.0565 41.2342 50.1156 41.5703 49.8177 42.0845C49.2627 43.042 48.7059 43.9986 48.1409 44.9501C47.7868 45.5465 47.4343 45.6531 46.796 45.3687C46.1654 45.0877 45.5467 44.7779 44.9055 44.5246C44.7449 44.4611 44.4646 44.4987 44.3301 44.6049C43.3045 45.4161 42.1915 46.0594 40.9723 46.5326C40.7975 46.6005 40.606 46.838 40.5736 47.0234C40.4579 47.687 40.407 48.362 40.332 49.0328C40.2523 49.7471 39.9789 49.9955 39.2536 49.9974C38.1994 50.0003 37.1451 50.0007 36.0909 49.9973C35.3791 49.9949 35.125 49.7668 35.0422 49.0694C34.9626 48.3991 34.8801 47.7293 34.8073 47.0582C34.7769 46.778 34.6863 46.6123 34.3721 46.518C33.1149 46.1404 31.9888 45.5091 31.0297 44.604C30.8352 44.4205 30.6822 44.3961 30.4442 44.5117C29.8077 44.8206 29.1605 45.1077 28.5129 45.3927C27.9372 45.646 27.5679 45.5332 27.2437 44.9905C26.6675 44.0256 26.0991 43.0557 25.5397 42.0809C25.2606 41.5942 25.3475 41.1953 25.7965 40.8529C26.3601 40.423 26.9283 39.9986 27.5073 39.5902C27.736 39.429 27.7926 39.2706 27.7403 38.985C27.5044 37.6968 27.5026 36.4 27.7428 35.1122C27.7971 34.8208 27.7219 34.6713 27.4978 34.5128C26.9333 34.1137 26.3814 33.6963 25.8301 33.2789C25.2924 32.872 25.2285 32.5641 25.5588 31.9943C26.1053 31.0519 26.6527 30.11 27.2068 29.172C27.5637 28.568 27.8988 28.4591 28.5476 28.7265C29.1698 28.983 29.781 29.2697 30.4143 29.4942C30.5952 29.5583 30.8933 29.5259 31.0404 29.4117C32.073 28.6118 33.1757 27.9512 34.4056 27.4993C34.5678 27.4398 34.7477 27.2157 34.7771 27.0434C34.8963 26.3449 34.9592 25.6368 35.0444 24.9325C35.1241 24.274 35.398 24.0222 36.0655 24.0185C37.137 24.0125 38.2085 24.0129 39.28 24.0182C39.9577 24.0215 40.25 24.2912 40.3289 24.97C40.4067 25.6404 40.468 26.313 40.5638 26.9808C40.587 27.1424 40.679 27.3681 40.8048 27.4291C41.7602 27.8927 42.7319 28.3227 43.7013 28.7646C43.7013 23.0407 43.7013 17.2352 43.7013 11.3864C29.6808 11.3864 15.6591 11.3864 1.55954 11.3864C1.55954 11.5659 1.55954 11.7484 1.55954 11.9309C1.55954 21.1275 1.55926 30.3239 1.55995 39.5205C1.56009 40.8005 2.14639 41.385 3.42947 41.3851C9.6513 41.3858 15.8731 41.3849 22.0949 41.3879C22.335 41.3881 22.5824 41.3929 22.8137 41.4486C23.2117 41.5446 23.3578 41.8473 23.3364 42.2353C23.3146 42.6327 23.1087 42.8817 22.7063 42.9345C22.5359 42.9568 22.3614 42.9525 22.1888 42.9525C15.9324 42.9533 9.67605 42.9543 3.41965 42.9525C1.2751 42.9518 0.000864239 41.6759 0.00072596 39.5315C-0.000241987 27.4946 -0.000241987 15.4576 0.00072596 3.42076C0.00127907 1.29108 1.29625 0.000580672 3.43072 0.000580672C16.2373 -0.000112177 29.044 -0.000112177 41.8505 0.000580672C44.0138 0.000719242 45.3011 1.28845 45.3015 3.45734C45.3029 11.8745 45.302 20.2918 45.302 28.7089C45.302 28.9152 45.302 29.1216 45.302 29.417ZM43.7324 9.74855C43.7324 7.47462 43.7601 5.25986 43.7192 3.04648C43.7023 2.13068 42.9772 1.56462 41.991 1.56448C29.1005 1.56296 16.21 1.56282 3.31954 1.56448C2.19506 1.56462 1.5641 2.2055 1.56092 3.34288C1.55705 4.76281 1.55995 6.18273 1.55995 7.60266C1.55995 8.30826 1.55995 9.01385 1.55995 9.74855C15.6322 9.74855 29.6537 9.74855 43.7324 9.74855ZM47.0153 43.8154C47.414 43.1221 47.7891 42.4699 48.1806 41.7892C47.556 41.331 46.9722 40.9044 46.3901 40.4753C45.7889 40.032 45.738 39.8783 45.9199 39.1575C46.2693 37.7718 46.2741 36.3836 45.9309 34.9962C45.7513 34.2701 45.8207 34.0578 46.4098 33.6219C46.9893 33.1929 47.5704 32.7657 48.1799 32.3162C47.8049 31.6728 47.4524 31.0681 47.0901 30.4466C46.3773 30.7487 45.7018 31.0083 45.0508 31.3196C44.5605 31.5539 44.1558 31.4946 43.7772 31.1232C42.6796 30.0465 41.3821 29.3174 39.9021 28.9206C39.3783 28.7803 39.1344 28.471 39.0871 27.9302C39.0214 27.1794 38.9022 26.4333 38.807 25.6936C38.0221 25.6936 37.3024 25.6936 36.5452 25.6936C36.4551 26.4329 36.3612 27.1497 36.2827 27.8684C36.2226 28.4186 36.0113 28.7947 35.4111 28.9305C33.9249 29.2668 32.6568 30.0154 31.5956 31.1077C31.2461 31.4674 30.894 31.5339 30.4353 31.3067C29.7601 30.9722 29.0609 30.6867 28.3473 30.3694C27.9456 31.0408 27.5687 31.6706 27.1808 32.3189C27.8271 32.7924 28.4161 33.2444 29.0268 33.6646C29.4902 33.9833 29.6206 34.3583 29.4628 34.9109C29.0602 36.3215 29.0545 37.7503 29.4551 39.1629C29.6174 39.7352 29.4569 40.1309 28.9945 40.4607C28.3917 40.8906 27.8003 41.3364 27.1811 41.7923C27.5798 42.4571 27.9591 43.0897 28.3504 43.7422C29.0263 43.4393 29.6702 43.1507 30.3143 42.8622C31.037 42.5385 31.1335 42.5516 31.6811 43.0936C32.7092 44.1112 33.9129 44.8243 35.3049 45.2194C36.0743 45.4378 36.2 45.605 36.2905 46.4079C36.3693 47.1064 36.4638 47.803 36.5508 48.4956C37.3329 48.4956 38.0525 48.4956 38.81 48.4956C38.907 47.7566 39.0174 47.0399 39.0902 46.3193C39.1441 45.7857 39.3977 45.4685 39.9179 45.3304C41.4036 44.936 42.6886 44.1849 43.7602 43.0817C44.1104 42.7211 44.4588 42.6499 44.9185 42.8766C45.5953 43.2105 46.2956 43.4963 47.0153 43.8154Z" fill="#1BA1E3"/>
<path d="M7.22918 22.9574C7.98445 22.1065 8.75909 21.2467 9.51132 20.3674C9.59138 20.2739 9.5853 20.0523 9.54174 19.9149C9.16922 18.743 9.41079 17.7134 10.2851 16.8684C11.1466 16.0357 12.187 15.8076 13.3 16.2595C14.4176 16.7133 15.057 17.5818 15.1296 18.8034C15.1495 19.1396 15.2504 19.3265 15.539 19.4958C16.6091 20.1237 17.662 20.7809 18.7306 21.4329C19.7775 20.5122 20.9108 20.3189 22.1809 20.9673C22.9532 20.0662 23.7157 19.1764 24.4951 18.2668C24.3657 18.0352 24.2296 17.8193 24.1197 17.5908C23.5513 16.4086 23.8342 15.0559 24.8231 14.1936C25.8008 13.3411 27.1744 13.2303 28.2356 13.9183C29.3411 14.6351 29.841 15.9573 29.4658 17.172C29.0814 18.4166 27.9087 19.3664 26.6736 19.2033C25.9494 19.1077 25.6217 19.4179 25.2432 19.8752C24.6373 20.6073 24.0047 21.3172 23.3597 22.0638C23.8006 22.8717 23.8721 23.7017 23.4893 24.5497C22.9117 25.8296 21.5212 26.5338 20.2067 26.2086C18.8216 25.8659 17.8586 24.5842 17.9724 23.1746C17.9986 22.851 17.9309 22.6879 17.6509 22.5238C16.6674 21.9475 15.7027 21.3388 14.7304 20.7432C14.7021 20.7259 14.6679 20.7183 14.5994 20.6918C13.5078 21.8109 12.2427 22.0775 10.7654 21.3046C10.0431 22.1246 9.3057 22.9445 8.59813 23.7895C8.51959 23.8834 8.56674 24.1392 8.63049 24.2876C9.53248 26.3893 7.94836 28.5935 5.6824 28.3776C4.16673 28.2332 2.92859 26.679 3.14347 25.1905C3.38518 23.5164 4.95837 22.3391 6.52949 22.6718C6.75889 22.7205 6.97143 22.8498 7.22918 22.9574ZM6.01385 26.826C6.721 26.8267 7.33994 26.2145 7.34478 25.5093C7.34989 24.7878 6.75557 24.1972 6.02491 24.1976C5.31154 24.198 4.68942 24.8062 4.68569 25.5066C4.68223 26.2059 5.30559 26.8253 6.01385 26.826ZM20.8456 22.0739C20.1265 22.0711 19.5214 22.675 19.5238 23.3931C19.5261 24.0893 20.1583 24.7252 20.8492 24.726C21.5408 24.727 22.1794 24.089 22.1784 23.3979C22.1776 22.7051 21.5451 22.0767 20.8456 22.0739ZM26.7687 17.5935C27.477 17.6027 28.0966 16.9984 28.1041 16.291C28.1115 15.5846 27.5077 14.9685 26.7973 14.9579C26.0647 14.947 25.4787 15.5203 25.4717 16.2547C25.4649 16.9745 26.0555 17.5843 26.7687 17.5935ZM12.3254 20.1747C13.0359 20.1817 13.6641 19.5709 13.6692 18.8681C13.6743 18.1685 13.0478 17.5456 12.3398 17.5466C11.665 17.5475 11.0224 18.1988 11.0143 18.8901C11.0065 19.5501 11.6371 20.1677 12.3254 20.1747Z" fill="#1BA1E3"/>
<path d="M5.39097 36.1643C5.39097 34.825 5.3723 33.5471 5.40563 32.2706C5.41296 31.9911 5.5334 31.6264 5.73362 31.4663C5.91256 31.3233 6.3285 31.3072 6.53799 31.422C6.74236 31.5339 6.92185 31.8787 6.93125 32.128C6.97315 33.2348 6.95006 34.344 6.95033 35.4524C6.95033 35.6594 6.95033 35.8666 6.95033 36.1164C8.66761 36.1164 10.3635 36.1164 12.1159 36.1164C12.1159 35.8994 12.1159 35.6964 12.1159 35.4934C12.1159 32.4628 12.1146 29.4321 12.1171 26.4013C12.1177 25.7811 12.3128 25.5067 12.768 25.4527C13.3207 25.3871 13.6662 25.6992 13.672 26.3155C13.6841 27.597 13.6762 28.8787 13.6762 30.1602C13.6763 32.1335 13.6762 34.1069 13.6762 36.1198C15.8509 36.1198 18.0004 36.1198 20.2249 36.1198C20.2249 35.9459 20.2249 35.7634 20.2249 35.5807C20.2249 33.3467 20.2271 31.1127 20.2234 28.8785C20.2225 28.415 20.3552 28.0497 20.8629 27.9584C21.4209 27.8581 21.7804 28.2023 21.7819 28.8451C21.7872 31.0792 21.7841 33.3132 21.7843 35.5473C21.7843 35.7336 21.7843 35.9198 21.7843 36.1598C22.8349 36.1598 23.8322 36.1625 24.8296 36.1584C25.2098 36.1569 25.5063 36.2748 25.6424 36.6626C25.8159 37.1575 25.5442 37.6299 25.028 37.7074C24.8586 37.7327 24.6831 37.7215 24.5104 37.7215C17.805 37.7221 11.0998 37.7221 4.3944 37.7215C4.22169 37.7215 4.04566 37.7356 3.87696 37.7079C3.43959 37.6359 3.20493 37.3669 3.21516 36.9197C3.2254 36.474 3.46282 36.1961 3.9107 36.1702C4.3749 36.1433 4.84173 36.1643 5.39097 36.1643Z" fill="#1BA1E3"/>
<path d="M28.4215 23.7462C28.4215 24.455 28.4274 25.1638 28.4196 25.8724C28.4132 26.4557 28.1373 26.7611 27.642 26.7584C27.1485 26.7558 26.8682 26.4483 26.8652 25.8651C26.8577 24.4823 26.857 23.0992 26.8657 21.7164C26.8692 21.1642 27.1907 20.8173 27.6576 20.8178C28.1369 20.8184 28.4142 21.1401 28.42 21.7238C28.4266 22.3979 28.4215 23.0721 28.4215 23.7462Z" fill="#1BA1E3"/>
<path d="M34.2711 4.8627C35.7212 4.86242 37.1712 4.85965 38.6213 4.86367C39.2584 4.86547 39.5791 5.11864 39.5945 5.61153C39.6109 6.12923 39.271 6.42424 38.6222 6.42507C35.7048 6.42895 32.7874 6.42923 29.87 6.42507C29.1731 6.4241 28.8407 6.09597 28.9196 5.50816C28.9858 5.01471 29.3163 4.86173 29.7656 4.86228C31.2673 4.86409 32.7693 4.86298 34.2711 4.8627Z" fill="#1BA1E3"/>
<path d="M20.1999 3.30199C21.5021 3.29381 22.5479 4.30939 22.5745 5.60807C22.6014 6.92365 21.5479 7.98994 20.2233 7.98773C18.9106 7.98565 17.9002 6.97243 17.8907 5.64881C17.8812 4.32214 18.8768 3.3103 20.1999 3.30199ZM20.2264 4.86811C19.7501 4.86935 19.4553 5.17005 19.461 5.64853C19.4662 6.09001 19.7714 6.40969 20.1974 6.42009C20.6224 6.43048 20.9955 6.07172 21.0051 5.64326C21.0155 5.18695 20.6941 4.867 20.2264 4.86811Z" fill="#1BA1E3"/>
<path d="M9.36265 5.66848C9.34993 6.99057 8.33151 7.99728 7.01635 7.98814C5.71183 7.97899 4.68623 6.94665 4.6836 5.64021C4.68111 4.30495 5.71723 3.28633 7.06198 3.30212C8.36415 3.3175 9.37524 4.35747 9.36265 5.66848ZM7.00764 6.42091C7.44003 6.42687 7.79223 6.0756 7.79638 5.63411C7.80066 5.17919 7.52231 4.88584 7.06986 4.86879C6.60041 4.85119 6.2673 5.15092 6.25015 5.60668C6.23314 6.05661 6.56639 6.41482 7.00764 6.42091Z" fill="#1BA1E3"/>
<path d="M13.5886 3.30188C14.9151 3.30202 15.9256 4.30138 15.936 5.6232C15.9464 6.94876 14.8906 8.00161 13.565 7.98776C12.251 7.97404 11.2469 6.94821 11.252 5.62514C11.2571 4.29598 12.257 3.30188 13.5886 3.30188ZM13.5807 6.42081C14.0327 6.42552 14.3686 6.08949 14.367 5.63401C14.3653 5.18851 14.0697 4.88324 13.6254 4.86827C13.1414 4.85192 12.8333 5.13876 12.8232 5.61503C12.8131 6.08381 13.1255 6.41596 13.5807 6.42081Z" fill="#1BA1E3"/>
<path d="M32.3418 37.104C32.3375 34.1324 34.7328 31.7096 37.6887 31.6955C40.6296 31.6815 43.0898 34.1433 43.1097 37.1201C43.1292 40.0323 40.6522 42.4978 37.7103 42.4947C34.7585 42.4915 32.3461 40.0691 32.3418 37.104ZM37.7302 40.8429C39.8322 40.8382 41.5574 39.1025 41.5468 37.0027C41.5363 34.8995 39.7994 33.1689 37.7066 33.1767C35.605 33.1844 33.8972 34.9123 33.9014 37.0264C33.9059 39.1425 35.6164 40.8475 37.7302 40.8429Z" fill="#1BA1E3"/>
</g>
<defs>
<clipPath id="clip0_772_837">
<rect width="50" height="50" fill="white"/>
</clipPath>
</defs>
</svg>
