<svg width="50" height="50" viewBox="0 0 50 50" fill="none" xmlns="http://www.w3.org/2000/svg">
<path d="M47.1715 35.8417C46.2328 35.731 45.2927 35.6351 44.358 35.4986C44.0595 35.4554 43.9244 35.5338 43.7528 35.7769C42.8587 37.0425 41.9483 38.2974 41.0068 39.5265C40.7961 39.8021 40.7718 39.979 40.919 40.2762C41.2999 41.0461 41.6457 41.8349 41.9982 42.6183C42.2481 43.1748 42.1833 43.4396 41.6984 43.7948C40.3503 44.7822 38.9996 45.7655 37.6448 46.7435C37.1626 47.092 36.8276 47.0703 36.3792 46.6624C35.7173 46.06 35.0622 45.4508 34.4179 44.8295C34.2261 44.6444 34.0802 44.6053 33.806 44.6985C32.3094 45.205 30.8034 45.6885 29.2892 46.1397C29.0096 46.2234 28.9137 46.3328 28.8637 46.5935C28.6989 47.4715 28.5206 48.3468 28.3329 49.2207C28.2073 49.8015 27.9817 49.9879 27.3874 49.9906C25.699 49.9987 24.0106 49.9987 22.3221 49.9906C21.7265 49.9879 21.5022 49.8029 21.3766 49.2221C21.1889 48.3481 21.0092 47.4729 20.8458 46.5949C20.7972 46.3328 20.7013 46.2234 20.4217 46.1397C18.9075 45.6872 17.4014 45.205 15.9048 44.6985C15.6306 44.6053 15.4847 44.6431 15.2929 44.8281C14.6621 45.4387 14.0165 46.033 13.3708 46.6287C12.8495 47.1095 12.6009 47.1284 12.0404 46.7232C10.714 45.7628 9.39024 44.7998 8.06923 43.834C7.50598 43.422 7.44789 43.1883 7.7437 42.5413C8.1003 41.7593 8.45419 40.9758 8.82699 40.2019C8.94315 39.9587 8.92154 39.8061 8.74865 39.5792C7.79233 38.3176 6.85627 37.0398 5.94048 35.7485C5.77569 35.5162 5.64602 35.4527 5.37317 35.4932C4.52221 35.6189 3.66585 35.7107 2.81219 35.8147C2.08009 35.9039 1.80859 35.7296 1.58032 35.0205C1.09406 33.5131 0.609144 32.0043 0.125583 30.4955C-0.113497 29.7472 -0.00543823 29.4784 0.682084 29.0948C1.41823 28.6828 2.15033 28.2655 2.89323 27.867C3.12556 27.7427 3.21335 27.6185 3.2093 27.3267C3.18229 25.7437 3.20525 24.1593 3.18499 22.5762C3.18229 22.406 3.05937 22.1642 2.91889 22.0805C2.16789 21.6293 1.39122 21.2201 0.625353 20.7919C-3.53167e-05 20.4434 -0.116198 20.1732 0.0945158 19.5114C0.596988 17.9378 1.10486 16.3669 1.62084 14.7973C1.83561 14.1449 2.08819 14.0058 2.75681 14.095C3.65909 14.2152 4.56273 14.3354 5.46907 14.4259C5.6055 14.4394 5.80811 14.3246 5.89725 14.2057C6.86438 12.9104 7.82069 11.6069 8.7581 10.2899C8.85535 10.1535 8.87832 9.88338 8.81213 9.72669C8.46499 8.9041 8.07328 8.10041 7.70723 7.28592C7.4587 6.73212 7.52489 6.47819 8.0206 6.11484C9.35513 5.13826 10.6937 4.16709 12.0336 3.19726C12.5564 2.81906 12.8562 2.82716 13.3371 3.2621C14.0003 3.86182 14.6554 4.47235 15.2997 5.09369C15.4942 5.28144 15.6441 5.33547 15.9089 5.20985C17.3352 4.53854 18.8291 4.08199 20.3838 3.80914C20.5324 3.78348 20.7188 3.55656 20.7566 3.39312C20.9565 2.53946 21.1092 1.67634 21.2888 0.817274C21.4185 0.194587 21.6346 0.0041343 22.2451 0.00143284C23.9336 -0.00532082 25.622 -0.00667155 27.3104 0.00143284C27.9169 0.0041343 28.1505 0.210796 28.2748 0.819976C28.4518 1.67904 28.6314 2.53675 28.784 3.39987C28.8327 3.67407 28.9421 3.76862 29.2149 3.85102C30.7277 4.30621 32.2338 4.79112 33.7318 5.2936C33.9762 5.37599 34.1194 5.37059 34.3045 5.19364C34.9744 4.55069 35.6579 3.92125 36.3414 3.29316C36.7642 2.90415 37.0478 2.87849 37.5111 3.21212C38.8943 4.20761 40.2679 5.21795 41.6484 6.21614C42.0725 6.52276 42.1563 6.89016 41.932 7.36156C41.5471 8.16795 41.1905 8.98784 40.8042 9.79288C40.688 10.0347 40.7069 10.1832 40.8798 10.4115C41.8361 11.6731 42.7709 12.9509 43.6866 14.2422C43.8501 14.4718 43.9798 14.5407 44.2553 14.4988C45.1063 14.3719 45.9626 14.2814 46.8163 14.1774C47.5511 14.0882 47.8185 14.2611 48.0468 14.9716C48.5331 16.479 49.0193 17.9864 49.5029 19.4952C49.7433 20.2462 49.638 20.515 48.9504 20.9013C48.2156 21.3146 47.4822 21.732 46.7366 22.1264C46.4975 22.2534 46.4138 22.3871 46.4178 22.6707C46.4381 24.2538 46.4178 25.8382 46.4381 27.4213C46.4408 27.5915 46.5745 27.8305 46.719 27.917C47.4849 28.3762 48.2764 28.7936 49.0545 29.2326C49.6488 29.5689 49.7771 29.8945 49.5731 30.5266C49.0774 32.0664 48.5763 33.6049 48.0792 35.1447C47.9374 35.5945 47.6916 35.8958 47.1715 35.8417ZM1.8302 19.8112C2.7541 20.3407 3.62803 20.8486 4.5087 21.343C4.89907 21.5618 5.03279 21.859 4.9612 22.3074C4.65593 24.2214 4.65593 26.1408 4.95715 28.0548C5.03549 28.5545 4.8734 28.8557 4.44657 29.0854C3.70367 29.4852 2.97968 29.9174 2.23542 30.3132C1.97338 30.4523 1.92476 30.5874 2.02201 30.871C2.3759 31.8895 2.71223 32.9147 3.0229 33.948C3.12285 34.283 3.28359 34.3573 3.60371 34.3086C4.38714 34.1911 5.17461 34.0993 5.96209 34.0007C6.7131 33.9061 6.79414 33.9466 7.15749 34.618C8.02195 36.2132 9.06337 37.6814 10.3263 38.9889C10.8801 39.563 10.9004 39.6845 10.5573 40.4112C10.1656 41.2433 9.7725 42.0753 9.37404 42.9182C10.5019 43.7232 11.5811 44.4932 12.6739 45.2725C13.4073 44.5904 14.1246 43.9488 14.8107 43.2761C15.193 42.902 15.5563 42.8507 16.0345 43.0992C17.708 43.9664 19.4829 44.5418 21.3442 44.8443C21.8723 44.9308 22.1344 45.2185 22.2289 45.7304C22.3829 46.5584 22.5734 47.381 22.726 48.209C22.7787 48.4967 22.8989 48.5953 23.1947 48.5913C24.2915 48.5751 25.3897 48.5737 26.4864 48.5926C26.8012 48.598 26.9281 48.4981 26.9889 48.1888C27.1564 47.3283 27.3833 46.4801 27.5414 45.6183C27.6494 45.0294 27.9709 44.7525 28.5436 44.6593C30.3374 44.3689 32.0393 43.7908 33.6683 42.9898C34.2761 42.6913 34.5368 42.7264 35.0312 43.1816C35.7241 43.8191 36.4116 44.4607 37.1153 45.1145C38.1676 44.3648 39.1874 43.6489 40.1883 42.906C40.2774 42.8399 40.3071 42.5765 40.2531 42.4535C39.9235 41.6971 39.5602 40.9542 39.209 40.2073C38.897 39.5414 38.9159 39.3928 39.4264 38.866C40.6813 37.5734 41.7159 36.1227 42.579 34.545C42.9856 33.8021 43.1464 33.7332 44.0014 33.8534C44.8645 33.975 45.7317 34.0763 46.6218 34.1898C46.9811 32.9863 47.3107 31.8192 47.6848 30.6671C47.7956 30.3253 47.6916 30.1903 47.4133 30.039C46.6434 29.6189 45.891 29.1691 45.1265 28.7396C44.7402 28.5235 44.6011 28.2358 44.6713 27.7792C44.9658 25.8828 44.9847 23.9769 44.6794 22.0818C44.5876 21.5078 44.7794 21.1985 45.2575 20.9445C46.0018 20.5487 46.7325 20.126 47.4511 19.687C47.5822 19.6073 47.7375 19.3615 47.7024 19.2466C47.3404 18.0567 46.9419 16.8761 46.5394 15.6551C45.579 15.7726 44.6376 15.8482 43.7137 16.0157C43.1139 16.1238 42.8127 15.8955 42.5507 15.3998C41.6781 13.7505 40.6056 12.2391 39.2819 10.918C38.9024 10.5385 38.851 10.1711 39.0928 9.69293C39.5237 8.84061 39.9114 7.96669 40.3287 7.07926C39.2144 6.28368 38.1338 5.51241 37.0343 4.72629C36.3117 5.3976 35.5931 6.0365 34.9096 6.71051C34.5098 7.10357 34.1343 7.14275 33.6413 6.88746C31.9812 6.03109 30.2185 5.46919 28.3775 5.15852C27.8547 5.07072 27.5751 4.80058 27.4792 4.2846C27.3252 3.4566 27.1361 2.63401 26.9808 1.80601C26.9295 1.53181 26.8363 1.40214 26.527 1.40754C25.4126 1.4251 24.2983 1.42375 23.1853 1.40754C22.884 1.40349 22.7773 1.5156 22.7233 1.79655C22.5437 2.72316 22.3235 3.64165 22.1519 4.5696C22.052 5.10855 21.7724 5.38815 21.2267 5.47594C19.4343 5.76635 17.7256 6.32285 16.0993 7.13464C15.3929 7.48718 15.1903 7.45476 14.6176 6.92123C13.9422 6.29179 13.2655 5.66505 12.5901 5.03831C11.465 5.84604 10.3857 6.61866 9.29704 7.39668C9.73873 8.33544 10.1507 9.22152 10.5735 10.1008C10.7653 10.4993 10.7248 10.8356 10.4073 11.1571C9.04716 12.5362 7.9301 14.095 7.02106 15.8036C6.79144 16.2359 6.46186 16.4182 5.93913 16.3331C4.99632 16.1778 4.04405 16.0873 3.08368 15.9684C2.6609 17.2678 2.25298 18.5145 1.8302 19.8112Z" fill="#1BA1E3"/>
<path d="M9.58059 28.1223C9.06731 28.6545 8.63102 29.1178 8.18123 29.5676C7.72198 30.0282 7.31271 30.0714 6.94936 29.7175C6.59817 29.3744 6.63734 28.9206 7.07228 28.4816C7.749 27.7981 8.44057 27.1295 9.10378 26.4325C9.23345 26.2961 9.3334 26.0584 9.32665 25.872C9.11864 20.2084 11.3298 15.7064 15.8696 12.3606C18.0875 10.7262 20.6134 9.82801 23.3621 9.57543C23.5458 9.55922 23.7281 9.5295 24.0199 9.49303C23.6484 9.16345 23.3405 8.89196 23.0352 8.61776C22.5773 8.20579 22.4909 7.78571 22.7894 7.43317C23.1271 7.0347 23.5877 7.03876 24.0699 7.44938C24.7642 8.03965 25.4409 8.65288 26.1581 9.21208C26.4337 9.42685 26.7889 9.6092 27.1293 9.66187C33.3886 10.629 38.3971 15.1242 39.895 21.2701C40.2192 22.5978 40.2152 24.0053 40.3556 25.3776C40.3732 25.5546 40.3583 25.7342 40.3583 25.999C41.0256 25.587 41.6132 25.2007 42.2223 24.8522C42.818 24.5118 43.4812 24.8198 43.4285 25.429C43.4069 25.6829 43.1962 25.9963 42.9774 26.1462C42.1859 26.6892 41.3444 27.1606 40.5461 27.6941C40.3489 27.8265 40.1638 28.0723 40.103 28.302C38.389 34.7855 34.2827 38.7809 27.729 40.2357C27.0955 40.3761 26.4391 40.4194 25.7043 40.5193C26.0825 40.88 26.4107 41.1852 26.7295 41.4999C27.1441 41.9106 27.2036 42.3225 26.9091 42.6562C26.5741 43.0357 26.1257 43.0357 25.6651 42.6467C24.9181 42.0146 24.1847 41.3662 23.4269 40.7462C23.2419 40.595 22.9974 40.4734 22.7624 40.4315C15.8588 39.1821 11.4878 35.1826 9.66298 28.406C9.65218 28.36 9.63732 28.3114 9.58059 28.1223ZM38.7888 24.9832C38.9279 23.6595 38.5375 21.4632 37.8271 19.8153C35.7821 15.0743 32.1972 12.235 27.1374 11.2395C26.7538 11.1639 26.4863 11.2382 26.2283 11.5705C25.6705 12.2904 25.0681 12.9752 24.4656 13.66C23.978 14.2138 23.2919 14.1612 23.1027 13.5277C23.0271 13.2764 23.1311 12.8928 23.2905 12.6659C23.6606 12.1405 24.1144 11.6745 24.5723 11.1382C24.1523 11.1382 23.8294 11.1085 23.5147 11.1423C19.0506 11.6326 15.5441 13.7397 13.0682 17.4786C11.4122 19.9788 10.6112 22.7491 10.8638 25.7734C10.8813 25.9814 11.0097 26.2178 11.1569 26.3731C11.8687 27.116 12.613 27.8292 13.3302 28.5681C13.7071 28.9571 13.7017 29.4069 13.3559 29.7283C13.0182 30.043 12.6157 30.0295 12.2348 29.6554C11.9754 29.4001 11.7512 29.1097 11.5108 28.8355C11.4189 28.9706 11.4149 29.0205 11.427 29.0665C12.771 33.9831 17.6458 38.2244 22.6935 38.8485C22.8812 38.8714 23.1527 38.7553 23.2824 38.6107C23.9267 37.8962 24.5305 37.1465 25.1599 36.4198C25.5341 35.9876 25.965 35.9214 26.3094 36.2118C26.697 36.5387 26.7051 37.0074 26.3256 37.4545C25.9163 37.9367 25.503 38.4162 25.0924 38.8957C25.1113 38.9363 25.1302 38.9754 25.1491 39.016C25.8285 38.939 26.5106 38.8836 27.186 38.7796C32.6524 37.9394 37.4029 33.4509 38.5119 28.0629C38.5592 27.8319 38.4957 27.5266 38.3741 27.3213C37.8514 26.4366 37.2773 25.5816 36.7411 24.7023C36.4736 24.2633 36.5749 23.8364 36.9518 23.5933C37.3516 23.3367 37.7987 23.4393 38.0864 23.8689C38.3133 24.2079 38.52 24.555 38.7888 24.9832Z" fill="#1BA1E3"/>
<path d="M17.3864 22.7004C16.9326 22.1655 16.8015 21.4523 16.8421 20.6864C16.8623 20.3163 16.8434 19.9435 16.8461 19.5721C16.8556 17.9958 17.8646 16.9922 19.4544 16.9895C23.0662 16.9854 26.6781 16.9854 30.2899 16.9895C31.7366 16.9908 32.7469 17.831 32.9158 19.2641C33.0036 20.0124 32.9928 20.7864 32.9117 21.536C32.8617 22.0007 32.5956 22.4424 32.439 22.8611C33.2075 24.5428 33.1981 26.2082 32.4133 27.9615C33.2521 29.1015 33.0265 30.4914 32.855 31.8286C32.7132 32.9308 31.7069 33.7034 30.5952 33.7088C26.7983 33.725 23 33.7277 19.2031 33.7088C17.9051 33.7021 16.8826 32.6377 16.8515 31.3356C16.8394 30.8129 16.8664 30.2888 16.8434 29.7661C16.8124 29.0623 16.9852 28.4302 17.3959 27.9196C16.5787 26.1907 16.6138 24.509 17.3864 22.7004ZM24.9073 22.0169C26.6943 22.0169 28.4813 22.0223 30.2697 22.0142C31.0801 22.0115 31.3624 21.7197 31.3705 20.9147C31.3746 20.4933 31.3746 20.0719 31.3705 19.6504C31.3624 18.8454 31.0761 18.555 30.267 18.5509C28.7663 18.5455 27.2657 18.5496 25.765 18.5496C23.6741 18.5496 21.5831 18.5455 19.4922 18.5523C18.7277 18.555 18.4184 18.8684 18.4049 19.6261C18.3981 20.03 18.4008 20.4352 18.4035 20.8404C18.4089 21.7292 18.6926 22.0142 19.5949 22.0169C21.367 22.0196 23.1365 22.0169 24.9073 22.0169ZM24.8587 32.1582C26.6308 32.1582 28.4043 32.1622 30.1765 32.1568C30.9734 32.1541 31.3462 31.784 31.3692 30.979C31.3813 30.54 31.38 30.101 31.3678 29.662C31.3503 29.015 31.0491 28.6976 30.3912 28.6949C26.7281 28.6855 23.0649 28.6855 19.4017 28.6949C18.7344 28.6963 18.4251 29.0299 18.4062 29.7053C18.3941 30.1267 18.4008 30.5495 18.4035 30.9709C18.4089 31.861 18.698 32.1541 19.5908 32.1555C21.3481 32.1609 23.1027 32.1582 24.8587 32.1582ZM24.9194 23.5851C23.0973 23.5851 21.2738 23.5824 19.4517 23.5865C18.7439 23.5878 18.4251 23.8971 18.4076 24.5968C18.3954 25.0858 18.3927 25.5761 18.4089 26.0651C18.4305 26.7148 18.7439 27.0335 19.3868 27.0349C23.0325 27.0403 26.6781 27.0403 30.3237 27.0349C30.9653 27.0335 31.2814 26.7148 31.303 26.0664C31.3192 25.595 31.3124 25.1209 31.3057 24.6495C31.2935 23.8512 31.0261 23.5878 30.2359 23.5865C28.4638 23.5838 26.6916 23.5851 24.9194 23.5851Z" fill="#1BA1E3"/>
</svg>
