<svg width="52" height="50" viewBox="0 0 52 50" fill="none" xmlns="http://www.w3.org/2000/svg">
<g clip-path="url(#clip0_772_820)">
<path d="M0.000406224 4.83918C0.162354 4.28763 0.287065 3.72147 0.493155 3.18726C1.09707 1.62203 2.67146 0.0023227 5.18571 0.00969491C17.7952 0.046829 30.4049 0.0647135 43.0141 0.000138337C46.1641 -0.0159713 48.0053 2.48867 48.2393 4.86826C48.281 5.29189 48.2935 5.72002 48.2936 6.14597C48.2969 13.1255 48.2925 20.105 48.3084 27.0846C48.3091 27.3569 48.4137 27.7171 48.6023 27.8868C49.8155 28.978 49.7249 30.6698 48.6621 31.5803C48.6256 31.6115 48.6075 31.6643 48.5881 31.6955C48.8034 32.226 48.9953 32.7538 49.2366 33.2576C49.3036 33.3975 49.5097 33.5415 49.6639 33.5561C51.1751 33.6998 51.9919 34.5757 51.9965 36.0965C51.9981 36.6426 52.0051 37.1889 51.9944 37.7347C51.9694 39.022 51.0299 40.0115 49.7576 40.0446C49.4065 40.0538 49.2231 40.1485 49.1612 40.4926C49.1403 40.6082 49.0986 40.7262 49.0403 40.8277C48.6691 41.4747 48.5535 42.0062 49.1465 42.6945C49.7762 43.4255 49.5858 44.5958 48.9256 45.3353C48.4507 45.8672 47.9471 46.3772 47.4215 46.8582C46.5236 47.6797 45.2211 47.6715 44.3394 46.826C44.0677 46.5654 43.854 46.5222 43.5631 46.7205C43.5495 46.7297 43.5325 46.7352 43.5164 46.7401C42.675 46.9923 42.063 47.3296 41.9668 48.4191C41.8849 49.3466 40.8684 49.9634 39.9002 49.9892C39.2744 50.0059 38.6477 50.001 38.0216 49.9924C36.749 49.9749 35.794 49.1031 35.7168 47.8144C35.6904 47.3744 35.5173 47.2338 35.1463 47.0777C34.3909 46.7599 33.7755 46.4261 32.9663 47.1651C32.2963 47.777 31.1479 47.5249 30.4429 46.8792C29.9174 46.398 29.4081 45.894 28.9334 45.3622C28.1151 44.4459 28.1264 43.1518 28.9702 42.2563C29.2302 41.9804 29.2615 41.7764 29.0717 41.4706C28.9476 41.2709 28.8744 41.0378 28.787 40.8164C28.4882 40.0593 28.4897 40.0587 27.6568 40.0587C25.118 40.0587 22.5791 40.061 20.0404 40.0568C19.3941 40.0557 18.9712 39.7321 18.8887 39.2038C18.7819 38.5193 19.2394 38.0076 19.988 38.0045C21.7312 37.9971 23.4746 38.0019 25.218 38.0017C25.4002 38.0017 25.5823 38.0017 25.8255 38.0017C25.8255 37.3427 25.8227 36.7341 25.8261 36.1256C25.835 34.567 26.6462 33.6985 28.187 33.5557C28.3396 33.5415 28.5424 33.3899 28.6092 33.2481C28.8404 32.7579 29.0218 32.2436 29.234 31.7086C29.1272 31.5902 28.9995 31.4567 28.8805 31.3154C28.1105 30.4017 28.1235 29.1167 28.9315 28.237C29.3682 27.7614 29.8286 27.3072 30.2922 26.8581C31.2291 25.9509 32.5328 25.9208 33.4887 26.8117C33.748 27.0533 33.9463 27.1102 34.2285 26.9049C34.3225 26.8365 34.4373 26.7849 34.5501 26.7569C35.2867 26.5744 35.711 26.2358 35.7783 25.3476C35.8479 24.4291 36.7168 23.7481 37.6409 23.6682C38.3636 23.6057 39.0956 23.6053 39.8213 23.6345C41.1276 23.6871 41.9928 24.5376 42.0839 25.8582C42.1076 26.2021 42.2064 26.3644 42.5378 26.4643C42.9399 26.5856 43.3121 26.8048 43.7107 26.9414C43.8495 26.9889 44.0891 26.9779 44.1798 26.8881C44.7348 26.3383 45.3914 26.0987 46.1974 26.1438C46.1974 22.6911 46.1974 19.2542 46.1974 15.7774C31.4975 15.7774 16.8009 15.7774 2.04154 15.7774C2.04154 15.9744 2.04154 16.1557 2.04154 16.3368C2.04154 22.2925 2.03071 28.2481 2.05725 34.2037C2.0601 34.8526 2.18061 35.5402 2.41879 36.1404C2.90815 37.373 3.82893 38.0372 5.21347 38.01C7.00695 37.9748 8.80151 37.9998 10.5957 38.0023C11.3732 38.0034 11.8371 38.3963 11.8295 39.0363C11.8221 39.6729 11.3546 40.0567 10.5731 40.0578C8.82967 40.0601 7.08346 39.9933 5.34373 40.0729C2.23355 40.2152 0.477448 37.814 0.0973582 35.5834C0.0779949 35.4699 0.0330395 35.3608 0 35.2498C0.000406224 25.1128 0.000406224 14.976 0.000406224 4.83918ZM2.06836 13.631C16.7948 13.631 31.4919 13.631 46.2374 13.631C46.2374 13.1767 46.2381 12.7538 46.2373 12.331C46.233 9.99318 46.2695 7.65427 46.2112 5.31783C46.1604 3.28446 44.8683 2.08238 42.8772 2.08238C41.2184 2.08238 39.5597 2.08238 37.9011 2.08238C26.9839 2.08238 16.067 2.08648 5.14983 2.07528C4.19561 2.07432 3.43476 2.40212 2.85602 3.15463C2.27296 3.91274 2.04222 4.79003 2.04209 5.73777C2.04168 8.21224 2.04141 10.6866 2.0429 13.161C2.04303 13.3103 2.05861 13.4593 2.06836 13.631ZM47.4628 43.8047C47.3764 43.6932 47.3126 43.5949 47.2334 43.5114C47.0464 43.3142 46.85 43.1261 46.6611 42.9306C46.1654 42.4173 46.1531 42.0631 46.4657 41.4134C46.8253 40.6662 47.1681 39.9035 47.4303 39.1177C47.7414 38.1849 47.9206 38.0016 48.8998 38.0014C50.0787 38.0013 49.9532 38.0898 49.9552 36.9222C49.9574 35.6762 49.9557 35.6762 48.7112 35.6402C47.9961 35.6194 47.733 35.3617 47.4882 34.6556C47.2109 33.8555 46.8991 33.0618 46.5265 32.303C46.1351 31.5057 46.1352 31.2032 46.7468 30.58C47.5413 29.7705 47.5413 29.7705 46.7494 28.9721C45.9018 28.1174 45.9018 28.1174 45.0468 28.9545C44.4897 29.5001 44.1438 29.5102 43.4598 29.1796C42.6724 28.7992 41.8605 28.4596 41.0352 28.1726C40.3017 27.9176 40.0549 27.6521 40.0452 26.8442C40.0317 25.7015 40.0317 25.7015 38.921 25.7015C37.7099 25.7015 37.7099 25.7015 37.6974 26.9049C37.6894 27.6829 37.4519 27.937 36.728 28.1877C35.9494 28.4573 35.1773 28.7664 34.4422 29.1384C33.6317 29.5485 33.3354 29.5472 32.6933 28.9112C31.8019 28.0283 32.0271 28.0298 31.127 28.9282C30.2714 29.7821 30.2745 29.7853 31.101 30.6425C31.6672 31.2297 31.6742 31.5413 31.3202 32.2846C30.9568 33.0479 30.6343 33.836 30.3622 34.637C30.1119 35.3745 29.8389 35.6298 29.0454 35.6406C27.8855 35.6563 27.8806 35.6563 27.8867 36.7991C27.894 38.1837 27.7327 37.9871 29.0677 38.0008C29.8704 38.009 30.1157 38.2406 30.3695 39.0043C30.6259 39.775 30.9266 40.5379 31.2875 41.2639C31.7068 42.1079 31.7028 42.4023 31.0467 43.0652C30.1659 43.9552 30.1983 43.7206 31.0551 44.5974C31.9232 45.4857 31.9284 45.4807 32.8265 44.6083C33.3431 44.1066 33.6927 44.0897 34.3324 44.4022C35.0737 44.7644 35.8277 45.1167 36.6074 45.3786C37.5566 45.6974 37.7448 45.8852 37.7482 46.8978C37.7521 48.0604 37.6399 47.9347 38.7818 47.9377C40.075 47.941 40.075 47.9385 40.0955 46.6577C40.0963 46.6065 40.0966 46.5553 40.0978 46.5042C40.1093 45.9764 40.388 45.6733 40.8669 45.4855C41.7915 45.1229 42.7128 44.7488 43.6174 44.3388C44.1145 44.1136 44.5301 44.1529 44.9176 44.5255C45.1503 44.7489 45.3784 44.9776 45.6009 45.2113C45.7856 45.4053 45.9554 45.443 46.1584 45.2303C46.5219 44.8493 46.9 44.4826 47.2652 44.1032C47.3429 44.0225 47.3919 43.9138 47.4628 43.8047Z" fill="#1BA1E3"/>
<path d="M22.9036 26.8642C22.1296 25.9853 21.38 25.1349 20.6315 24.2835C20.5307 24.169 20.4231 24.0581 20.3391 23.9317C20.049 23.4947 20.1211 22.9278 20.5008 22.5872C20.8805 22.2466 21.484 22.2043 21.8365 22.5879C22.8807 23.724 23.9081 24.8775 24.9012 26.0593C25.322 26.5602 25.28 27.247 24.8442 27.7576C23.8967 28.8674 22.9284 29.9594 21.9501 31.0418C21.5403 31.495 20.9126 31.5148 20.4977 31.1399C20.0766 30.7594 20.033 30.1459 20.4341 29.6737C21.0491 28.9494 21.6893 28.2469 22.3181 27.5347C22.5065 27.3211 22.6928 27.1058 22.9036 26.8642Z" fill="#1BA1E3"/>
<path d="M8.06268 26.8685C8.8559 27.7666 9.61201 28.6172 10.3601 29.475C10.5037 29.6396 10.6502 29.8175 10.7341 30.0156C10.9137 30.4395 10.754 30.9289 10.3882 31.2021C10.0177 31.4787 9.45034 31.496 9.12766 31.1426C8.07392 29.9887 7.03195 28.822 6.03088 27.6218C5.63414 27.1462 5.70198 26.4581 6.1254 25.9645C7.07731 24.8552 8.04589 23.7598 9.02705 22.6767C9.44005 22.2207 10.0621 22.2122 10.4788 22.6024C10.8893 22.987 10.9211 23.6035 10.5182 24.0749C9.88865 24.8113 9.23721 25.5288 8.59578 26.2549C8.42814 26.4444 8.26389 26.6366 8.06268 26.8685Z" fill="#1BA1E3"/>
<path d="M17.5098 22.728C17.3025 23.6178 17.0732 24.6132 16.8384 25.6074C16.4039 27.4469 15.9661 29.2857 15.5291 31.1247C15.5055 31.224 15.4787 31.323 15.4465 31.4198C15.2601 31.9812 14.7503 32.2861 14.2251 32.1521C13.6898 32.0156 13.3559 31.5125 13.4815 30.9356C13.7423 29.7376 14.0356 28.5468 14.3165 27.3534C14.6947 25.7455 15.0715 24.1373 15.4535 22.5303C15.6056 21.8904 15.9951 21.5349 16.5127 21.545C17.0816 21.5559 17.5255 22.0323 17.5098 22.728Z" fill="#1BA1E3"/>
<path d="M15.3742 38.0035C15.9567 38.0055 16.4045 38.4612 16.3941 39.0417C16.3842 39.5994 15.9444 40.0438 15.3911 40.0554C14.8309 40.0672 14.3418 39.5927 14.336 39.0323C14.3302 38.4656 14.7984 38.0016 15.3742 38.0035Z" fill="#1BA1E3"/>
<path d="M35.0096 11.3842C33.4699 11.3842 31.9298 11.4094 30.3907 11.3775C28.6379 11.3412 27.2516 10.0319 27.0386 8.27298C26.8416 6.64549 27.9328 5.03262 29.5494 4.59015C29.8563 4.50619 30.1825 4.45622 30.5 4.45513C33.4947 4.44502 36.4896 4.43124 39.4842 4.45636C40.9488 4.46864 42.0587 5.15112 42.6642 6.51389C43.2412 7.81249 43.048 9.05348 42.154 10.1519C41.4694 10.9932 40.5481 11.3793 39.4762 11.3853C37.9874 11.3937 36.4983 11.3875 35.0095 11.3875C35.0096 11.3865 35.0096 11.3853 35.0096 11.3842ZM34.9847 6.52426C33.4962 6.52426 32.0075 6.50924 30.5192 6.53013C29.6652 6.54215 29.0668 7.14721 29.0716 7.92416C29.0763 8.70371 29.6759 9.31383 30.5264 9.31819C33.5034 9.33376 36.4804 9.32761 39.4575 9.32188C40.0423 9.32079 40.5102 9.07478 40.7791 8.53169C41.2514 7.57808 40.5818 6.54774 39.4502 6.52918C37.9621 6.50501 36.4733 6.52331 34.9847 6.52426Z" fill="#1BA1E3"/>
<path d="M21.8387 7.91446C21.8397 9.83206 20.2856 11.3944 18.3875 11.3842C16.5149 11.3739 14.9763 9.81595 14.9707 7.92429C14.9652 6.02062 16.5447 4.4341 18.4282 4.45143C20.3088 4.46864 21.8378 6.02131 21.8387 7.91446ZM19.796 7.93767C19.8082 7.17492 19.1793 6.53436 18.4141 6.52972C17.6644 6.52521 17.0529 7.12263 17.0346 7.8776C17.0158 8.65783 17.6135 9.29812 18.3793 9.31792C19.1288 9.33744 19.7839 8.6992 19.796 7.93767Z" fill="#1BA1E3"/>
<path d="M12.9287 7.92761C12.923 9.85394 11.3739 11.4017 9.46928 11.3841C7.58874 11.3666 6.07569 9.81722 6.07813 7.91137C6.08057 6.01166 7.60485 4.46376 9.48553 4.45107C11.3808 4.43823 12.9344 6.00674 12.9287 7.92761ZM9.48837 6.52935C8.72197 6.5374 8.10911 7.1736 8.12292 7.947C8.13606 8.6905 8.75541 9.3125 9.49027 9.32014C10.2446 9.32792 10.8777 8.68913 10.8781 7.91956C10.8783 7.14288 10.2571 6.52129 9.48837 6.52935Z" fill="#1BA1E3"/>
<path d="M38.9086 30.5145C42.3619 30.5132 45.1809 33.3476 45.1771 36.8172C45.1732 40.2763 42.3283 43.1311 38.8949 43.1207C35.4741 43.1105 32.6751 40.2837 32.6641 36.8283C32.6533 33.344 35.4502 30.5159 38.9086 30.5145ZM34.7167 36.7928C34.7106 39.1316 36.5615 41.0236 38.8846 41.0537C41.1921 41.0836 43.1317 39.1382 43.1243 36.8015C43.117 34.4681 41.2362 32.5794 38.919 32.5785C36.5925 32.5778 34.7227 34.4528 34.7167 36.7928Z" fill="#1BA1E3"/>
</g>
<defs>
<clipPath id="clip0_772_820">
<rect width="52" height="50" fill="white"/>
</clipPath>
</defs>
</svg>
