<svg width="44" height="44" viewBox="0 0 44 44" fill="none" xmlns="http://www.w3.org/2000/svg">
<g clip-path="url(#clip0_416_760)">
<path d="M18.2151 44C17.7863 43.7077 17.6599 43.3009 17.6771 42.7912C17.7073 41.8913 17.6856 40.9897 17.6856 40.0703C13.3783 38.9816 9.87878 36.6897 7.131 33.1587C7.07725 33.3143 7.04322 33.4286 6.99898 33.5387C6.84049 33.9333 6.42231 34.1727 6.0368 34.0932C5.61174 34.0055 5.27195 33.6273 5.33842 33.1963C5.47307 32.3222 5.64039 31.4513 5.84197 30.5903C5.94855 30.1351 6.35424 29.923 6.85126 30.0078C7.62562 30.1399 8.3978 30.2879 9.16631 30.4508C9.68557 30.5609 9.95087 30.9611 9.87729 31.4597C9.81105 31.9093 9.42829 32.1818 8.9033 32.153C8.81804 32.1483 8.73289 32.1422 8.64327 32.1365C9.36858 34.1194 14.6349 37.6857 17.6857 38.2342C17.6857 37.6458 17.6834 37.0675 17.6863 36.489C17.6903 35.6815 17.9649 35.4081 18.7695 35.4079C20.9181 35.4072 23.0667 35.4071 25.2153 35.408C25.9819 35.4084 26.2875 35.708 26.2882 36.4665C26.2902 38.5862 26.2769 40.7059 26.2975 42.8254C26.3025 43.3499 26.1606 43.745 25.693 44C23.2002 44 20.7076 44 18.2151 44ZM24.5398 37.1478C22.8154 37.1478 21.1322 37.1478 19.4417 37.1478C19.4417 38.8665 19.4417 40.5605 19.4417 42.2576C21.1533 42.2576 22.8358 42.2576 24.5398 42.2576C24.5398 40.5496 24.5398 38.8666 24.5398 37.1478Z" fill="black"/>
<path d="M44.0002 22.6011C43.9291 22.8583 43.8694 23.1193 43.7848 23.3721C43.2076 25.0967 42.0299 26.1818 40.2679 26.617C40.0401 26.6733 39.9295 26.7517 39.8659 26.9761C38.7357 30.9587 36.5279 34.2156 33.2593 36.755C33.2376 36.7719 33.2234 36.7984 33.1716 36.8631C33.3016 36.905 33.4157 36.9348 33.5245 36.9781C33.9366 37.142 34.1655 37.5753 34.059 37.982C33.9413 38.4319 33.5437 38.7253 33.0949 38.6467C32.2933 38.5065 31.4933 38.3537 30.6989 38.1781C30.1622 38.0594 29.9165 37.722 29.999 37.1741C30.1222 36.3558 30.2804 35.5417 30.4575 34.7331C30.5586 34.2719 30.9798 34.0299 31.4383 34.1038C31.8739 34.174 32.1426 34.5103 32.1428 34.9854C32.1428 35.1068 32.1428 35.2283 32.1428 35.3675C34.7997 33.5574 37.2593 30.0661 38.1273 26.703C37.5112 26.3644 36.8448 26.1084 36.312 25.6844C34.7154 24.4138 34.2302 22.7139 34.7289 20.7712C35.2198 18.8594 36.4873 17.6944 38.4423 17.3617C41.1108 16.9075 43.4214 18.5683 43.9235 21.2537C43.933 21.3048 43.974 21.3501 44.0004 21.3981C44.0002 21.799 44.0002 22.2001 44.0002 22.6011ZM36.2604 21.9929C36.2444 23.6127 37.5847 24.9784 39.2178 25.007C40.8345 25.0352 42.2195 23.6985 42.2597 22.0709C42.3016 20.3761 40.9905 19.0344 39.2742 19.0156C37.5918 18.9972 36.277 20.296 36.2604 21.9929Z" fill="black"/>
<path d="M27.855 28.3103C27.3292 28.0815 26.8795 27.9033 26.4466 27.6909C26.1848 27.5624 25.9758 27.5562 25.744 27.7517C25.5822 27.8881 25.3924 28.0154 25.1934 28.0783C24.7807 28.2088 24.6669 28.4948 24.6559 28.8852C24.6475 29.1844 24.6033 29.4831 24.5664 29.7809C24.505 30.2777 24.1771 30.5856 23.678 30.5891C22.5471 30.597 21.4161 30.5968 20.2851 30.5894C19.7908 30.5862 19.5017 30.3211 19.4096 29.8243C19.394 29.7399 19.3555 29.6521 19.3669 29.5713C19.5107 28.5464 18.9225 28.0171 18.076 27.6733C17.95 27.6221 17.7745 27.6105 17.649 27.6557C17.2734 27.7908 16.9144 27.9714 16.5429 28.1192C16.0326 28.3222 15.6433 28.2039 15.3673 27.7376C14.7995 26.7783 14.241 25.813 13.6932 24.8421C13.4412 24.3955 13.539 23.9913 13.9378 23.661C13.9928 23.6155 14.0526 23.5758 14.1102 23.5334C15.1547 22.7641 15.1601 22.7639 15.1151 21.4543C15.1105 21.3223 15.0223 21.1575 14.9196 21.0713C14.6245 20.8235 14.2975 20.614 13.9915 20.3785C13.5204 20.0161 13.4326 19.6164 13.7241 19.1035C14.2609 18.1591 14.803 17.2178 15.3546 16.282C15.6431 15.7926 16.0282 15.6766 16.5611 15.8847C16.5878 15.8951 16.619 15.8989 16.6411 15.9153C17.489 16.5434 18.2907 16.3797 19.0556 15.7624C19.1493 15.6868 19.2276 15.5512 19.2474 15.4324C19.3177 15.0098 19.3477 14.5805 19.4157 14.1574C19.4919 13.6826 19.7917 13.4144 20.2599 13.4108C21.4051 13.4021 22.5505 13.4022 23.6957 13.4107C24.1709 13.4142 24.4965 13.7206 24.5647 14.1926C24.579 14.2915 24.5769 14.3928 24.59 14.4919C24.7626 15.7961 24.7608 15.8006 25.9448 16.3628C26.0495 16.4125 26.2184 16.3821 26.3372 16.3365C26.7101 16.1932 27.0694 16.0145 27.4413 15.8683C27.9221 15.6793 28.3262 15.8051 28.5862 16.2451C29.1532 17.2051 29.7105 18.1709 30.2573 19.1425C30.5284 19.6243 30.4354 20.012 30.0092 20.3526C29.9868 20.3705 29.9641 20.3891 29.9386 20.4013C29.038 20.8332 28.6518 21.5314 28.8571 22.5221C28.8877 22.67 28.953 22.8437 29.0614 22.9362C29.3652 23.1956 29.7056 23.4115 30.0211 23.658C30.4326 23.9796 30.527 24.3766 30.2704 24.8337C29.7178 25.8184 29.1646 26.804 28.5674 27.7617C28.4215 27.9959 28.1052 28.1242 27.855 28.3103ZM22.9232 15.1514C22.2717 15.1514 21.6642 15.1514 21.0425 15.1514C21.0003 15.5185 20.9477 15.8582 20.9252 16.1998C20.891 16.7211 20.6137 17.0025 20.1404 17.2092C19.6354 17.4298 19.152 17.7228 18.7053 18.0476C18.3105 18.3349 17.9408 18.3936 17.5086 18.1927C17.1881 18.0437 16.8617 17.9073 16.504 17.7503C16.1833 18.3064 15.879 18.8338 15.5657 19.3771C15.8871 19.6165 16.1796 19.8451 16.4832 20.0577C16.8194 20.2932 16.9479 20.5979 16.9301 21.0126C16.9017 21.6797 16.9072 22.3494 16.9304 23.017C16.9434 23.3957 16.8312 23.6844 16.5256 23.9063C16.2061 24.1383 15.8931 24.3794 15.5649 24.6259C15.8916 25.1869 16.1979 25.7131 16.5079 26.2455C16.9116 26.0706 17.2644 25.9164 17.6184 25.765C17.9611 25.6186 18.2704 25.6654 18.5912 25.8674C19.1562 26.2234 19.7349 26.5602 20.3245 26.8737C20.6416 27.0423 20.8484 27.2542 20.8907 27.6175C20.9383 28.0268 20.996 28.435 21.0506 28.8525C21.6851 28.8525 22.2945 28.8525 22.9226 28.8525C22.9628 28.4786 23.0077 28.1263 23.037 27.7726C23.0749 27.314 23.3023 27.0285 23.7248 26.827C24.2624 26.5705 24.7898 26.2769 25.2771 25.9357C25.6629 25.6657 26.0192 25.6088 26.4361 25.7984C26.7694 25.9498 27.1072 26.091 27.4608 26.2444C27.7848 25.6814 28.0871 25.1556 28.3963 24.6182C28.0564 24.3659 27.7615 24.1404 27.4596 23.9248C27.1109 23.6755 27.0028 23.3595 27.0389 22.9244C27.0895 22.3155 27.0941 21.6958 27.0401 21.0877C26.9997 20.633 27.1185 20.3112 27.4827 20.0556C27.7856 19.8431 28.0786 19.6167 28.3978 19.3803C28.0774 18.826 27.7724 18.2982 27.458 17.7544C27.0865 17.9155 26.7461 18.0601 26.4082 18.2103C26.0046 18.3898 25.6591 18.3265 25.2877 18.0698C24.7982 17.7312 24.2747 17.4309 23.7364 17.1768C23.296 16.9688 23.0675 16.6723 23.0341 16.1958C23.0105 15.8549 22.9628 15.5159 22.9232 15.1514Z" fill="black"/>
<path d="M36.8427 10.8507C36.8972 10.6732 36.9233 10.5617 36.9651 10.4563C37.1285 10.0444 37.5677 9.8108 37.9703 9.91668C38.41 10.0323 38.7035 10.4431 38.6247 10.8899C38.4832 11.6916 38.3309 12.492 38.1583 13.2875C38.0415 13.8259 37.6578 14.0831 37.1114 13.9911C36.3368 13.8607 35.565 13.7105 34.7964 13.5486C34.3047 13.445 34.0011 13.0208 34.0674 12.5852C34.1421 12.0954 34.5128 11.8174 35.0522 11.8442C35.1455 11.8489 35.2394 11.8449 35.4119 11.8449C33.0216 8.78686 30.027 6.7714 26.2885 5.71996C26.2885 6.35145 26.2898 6.93091 26.2881 7.51048C26.2858 8.29838 25.9897 8.59091 25.1933 8.59114C23.0306 8.59183 20.8679 8.59241 18.705 8.5908C17.9874 8.59023 17.6885 8.2978 17.687 7.57454C17.6825 5.38342 17.6823 3.19231 17.6872 1.00108C17.6888 0.287783 17.9925 0.00131774 18.7207 0.000973981C20.8978 -0.000286465 23.0748 -0.000401051 25.252 0.00108857C25.9782 0.00154691 26.2858 0.314138 26.2878 1.05322C26.2903 1.99764 26.2884 2.94205 26.2884 3.92509C30.5858 5.00861 34.1007 7.29426 36.8427 10.8507ZM24.5375 1.73856C22.8191 1.73856 21.1361 1.73856 19.4392 1.73856C19.4392 3.45505 19.4392 5.14909 19.4392 6.85287C21.1487 6.85287 22.8313 6.85287 24.5375 6.85287C24.5375 5.14726 24.5375 3.46422 24.5375 1.73856Z" fill="black"/>
<path d="M4.72499 26.7242C2.0399 26.7221 -0.00446211 24.672 7.31421e-06 21.9859C0.00447674 19.3046 2.05766 17.2684 4.75066 17.2748C7.31966 17.2809 9.43703 19.4099 9.44069 21.9907C9.44448 24.5904 7.31669 26.7262 4.72499 26.7242ZM4.71479 25.0069C6.33719 25.0003 7.72512 23.6162 7.70862 22.0214C7.69086 20.3121 6.41237 19.0281 4.71514 19.0152C3.01389 19.0023 1.70526 20.3195 1.70779 22.0421C1.71031 23.6525 3.09067 25.0136 4.71479 25.0069Z" fill="black"/>
<path d="M10.8322 7.14613C10.6381 7.08127 10.5151 7.04976 10.4001 6.99992C10.0133 6.83239 9.80287 6.41392 9.89661 6.01253C9.99116 5.60747 10.412 5.27941 10.8272 5.34976C11.6576 5.49047 12.486 5.64872 13.3074 5.83503C13.8374 5.95523 14.0706 6.37256 13.9693 6.90939C13.8343 7.62521 13.697 8.34046 13.5591 9.0557C13.4411 9.66771 13.0543 9.9811 12.5249 9.89619C12.0051 9.81289 11.7613 9.40347 11.8483 8.76374C11.8539 8.72283 11.8442 8.67975 11.8326 8.48495C11.0582 9.21188 10.3437 9.85597 9.66214 10.5333C9.29805 10.8952 8.98943 11.313 8.65858 11.708C8.28143 12.1583 7.78269 12.2414 7.37861 11.9174C6.97109 11.5906 6.93785 11.0999 7.30423 10.6251C8.30618 9.32658 9.46755 8.18645 10.8322 7.14613Z" fill="black"/>
<path d="M5.06555 14.5741C5.05787 14.0796 5.42551 13.6922 5.90763 13.6868C6.37967 13.6815 6.77699 14.0797 6.77631 14.5574C6.77562 15.0293 6.41967 15.3954 5.94602 15.4115C5.45141 15.4283 5.07323 15.0685 5.06555 14.5741Z" fill="black"/>
<path d="M21.9844 18.9935C23.6424 18.9939 25.0071 20.3466 24.9972 21.9801C24.9869 23.691 23.68 24.9982 21.9798 24.9982C20.2708 24.9982 18.9833 23.7014 18.9785 21.9754C18.9741 20.3259 20.3175 18.9932 21.9844 18.9935ZM20.7028 21.9953C20.6979 22.6838 21.2899 23.2849 21.9761 23.288C22.6572 23.2912 23.2694 22.6806 23.2648 22.0029C23.26 21.2946 22.6895 20.7239 21.9839 20.7216C21.2739 20.7193 20.708 21.2819 20.7028 21.9953Z" fill="black"/>
</g>
<defs>
<clipPath id="clip0_416_760">
<rect width="44" height="44" fill="white"/>
</clipPath>
</defs>
</svg>
