<svg width="44" height="44" viewBox="0 0 44 44" fill="none" xmlns="http://www.w3.org/2000/svg">
<g clip-path="url(#clip0_416_708)">
<path d="M43.9996 42.2814C43.9036 42.4839 43.8243 42.6964 43.7088 42.887C43.2568 43.6329 42.5922 44.0013 41.7146 44C38.8505 43.9958 35.9865 44.0007 33.1224 43.9975C31.771 43.996 30.8159 43.127 30.7954 41.7761C30.7703 40.1316 30.7844 38.4834 30.8678 36.8412C30.944 35.3415 32.4908 33.9032 33.9913 33.766C34.4386 33.7251 34.8224 33.8071 35.2285 33.9734C36.6397 34.5515 38.0937 34.5966 39.488 33.9995C40.632 33.5097 41.5716 33.8388 42.4939 34.4537C43.3519 35.0257 43.7472 35.907 43.9999 36.8674C43.9996 38.672 43.9996 40.4767 43.9996 42.2814ZM37.3781 42.5361C38.78 42.5361 40.182 42.5403 41.5839 42.5343C42.248 42.5314 42.5304 42.2534 42.5336 41.5953C42.5404 40.2363 42.545 38.8771 42.5321 37.5182C42.5236 36.6243 42.163 35.9071 41.3547 35.4735C40.9895 35.2777 40.6128 35.148 40.1721 35.3292C38.3134 36.093 36.4497 36.0703 34.583 35.3305C34.3879 35.2533 34.1311 35.2455 33.9254 35.2963C32.9228 35.5438 32.3068 36.3406 32.291 37.4315C32.2711 38.8046 32.2826 40.1781 32.2856 41.5515C32.2872 42.295 32.5363 42.5345 33.3011 42.5357C34.6602 42.5377 36.0192 42.5362 37.3781 42.5361Z" fill="black"/>
<path d="M22.6883 0C23.466 0.236042 24.2087 0.522501 24.8521 1.05635C26.8279 2.69547 26.9273 5.85603 25.0255 7.58452C23.7595 8.73517 22.2812 9.11524 20.6543 8.57899C19.021 8.04056 18.0172 6.87078 17.6686 5.17769C17.2079 2.93918 18.7451 0.637543 21.0415 0.0955627C21.1344 0.0736773 21.2228 0.0323126 21.3133 0C21.7716 0 22.2299 0 22.6883 0ZM21.9808 7.31387C23.5887 7.32201 24.9102 6.0232 24.925 4.42018C24.9395 2.83308 23.6243 1.49715 22.0208 1.47022C20.4499 1.44387 19.0935 2.78473 19.077 4.38019C19.0605 5.9729 20.3799 7.30574 21.9808 7.31387Z" fill="black"/>
<path d="M21.9988 19.7746C20.4535 19.7746 18.9063 19.8197 17.3632 19.759C16.3034 19.7173 15.4517 18.8782 15.4221 17.8146C15.3739 16.0858 15.3557 14.3474 15.4831 12.6249C15.6123 10.8781 17.3376 9.48541 19.0833 9.54213C19.2208 9.5466 19.3653 9.58785 19.4917 9.64503C21.166 10.403 22.8303 10.3867 24.5134 9.64938C25.1956 9.35043 25.8762 9.59771 26.4924 9.89826C27.8991 10.5844 28.5812 11.7604 28.6066 13.3084C28.6286 14.6539 28.6127 16.0001 28.6109 17.346C28.6087 18.8944 27.7178 19.8008 26.1652 19.8134C24.7765 19.8246 23.3876 19.8158 21.9988 19.8158C21.9989 19.8017 21.9988 19.7881 21.9988 19.7746ZM21.9774 18.3171C23.3937 18.3171 24.81 18.3196 26.2264 18.3159C26.8419 18.3143 27.1159 18.0786 27.1224 17.4793C27.138 16.0632 27.1467 14.6463 27.1184 13.2305C27.0982 12.2201 26.6153 11.4804 25.6363 11.1471C25.3886 11.0628 25.0575 11.0411 24.821 11.134C22.9357 11.8745 21.0653 11.8808 19.1846 11.129C19.013 11.0604 18.7953 11.0462 18.6116 11.0786C17.7168 11.2364 16.9638 11.9867 16.9288 12.8872C16.8681 14.4438 16.8748 16.0038 16.8862 17.5622C16.89 18.0854 17.183 18.3132 17.7283 18.3151C19.1446 18.3203 20.5609 18.3168 21.9774 18.3171Z" fill="black"/>
<path d="M6.60579 43.9985C5.17365 43.9985 3.74151 44.0022 2.30949 43.9975C0.920086 43.9929 0.00768268 43.0734 0.00367237 41.6755C-0.000337942 40.2863 -0.00217123 38.8971 0.00401611 37.508C0.0135263 35.3833 1.51258 33.8242 3.63873 33.7288C3.77405 33.7228 3.92232 33.7672 4.04802 33.8245C5.74919 34.5981 7.44028 34.5825 9.15486 33.8403C9.45426 33.7107 9.85552 33.7484 10.1973 33.7967C11.7038 34.0097 13.0578 35.4101 13.1381 36.9458C13.2233 38.5734 13.2421 40.2084 13.1977 41.8378C13.1614 43.1738 12.2075 43.9952 10.8591 43.998C9.44131 44.0008 8.02349 43.9985 6.60579 43.9985ZM6.56981 42.5363C7.9717 42.5363 9.37371 42.5397 10.7756 42.5348C11.406 42.5326 11.7063 42.2866 11.7097 41.733C11.7186 40.2453 11.7234 38.7573 11.6976 37.27C11.6832 36.4421 11.2469 35.8369 10.5247 35.4579C10.1873 35.2809 9.83203 35.1444 9.4216 35.3139C7.55051 36.0863 5.67425 36.0793 3.7917 35.3322C3.59634 35.2546 3.33968 35.2442 3.13401 35.2946C2.09854 35.5485 1.47626 36.3964 1.46732 37.5512C1.45712 38.8672 1.46331 40.1834 1.46549 41.4995C1.46675 42.2701 1.72811 42.5342 2.49282 42.5356C3.85185 42.5381 5.21089 42.5364 6.56981 42.5363Z" fill="black"/>
<path d="M13.6491 6.49582C13.1595 6.26814 12.7197 6.0714 12.2869 5.86034C11.8217 5.63346 11.6473 5.24182 11.8213 4.8504C11.9935 4.46299 12.4195 4.31151 12.8763 4.51272C13.8042 4.92156 14.7284 5.33956 15.6445 5.7744C16.1174 5.99887 16.2575 6.36508 16.0399 6.83797C15.5803 7.83714 15.1005 8.82725 14.6117 9.81256C14.4021 10.2349 13.9827 10.3726 13.6074 10.1863C13.2563 10.012 13.1239 9.61078 13.2873 9.18819C13.349 9.02869 13.4316 8.87721 13.5024 8.72115C13.5651 8.58285 13.6247 8.44305 13.6084 8.22397C13.0915 8.58491 12.5524 8.918 12.0616 9.31137C8.77665 11.9431 6.75121 15.3244 6.09398 19.494C5.96531 20.3105 5.93998 21.1435 5.87089 21.9693C5.84225 22.3117 5.70601 22.5747 5.36181 22.6869C4.83967 22.8572 4.39017 22.493 4.39556 21.8776C4.40816 20.4569 4.57155 19.0511 4.93729 17.6776C6.19263 12.963 8.90876 9.34082 13.0954 6.82731C13.2645 6.72567 13.434 6.62461 13.6491 6.49582Z" fill="black"/>
<path d="M38.0072 19.9295C37.0829 14.2842 34.1475 10.0838 28.9984 7.47484C28.7948 7.37171 28.5802 7.29013 28.3775 7.18517C27.9138 6.94523 27.7513 6.56058 27.9382 6.16801C28.1266 5.77247 28.5494 5.61423 28.9968 5.85096C30.0307 6.39798 31.1035 6.8986 32.0569 7.56605C35.7335 10.1396 38.0842 13.6433 39.1349 18.0076C39.3079 18.726 39.4033 19.4632 39.5344 20.1917C39.5764 20.2301 39.6184 20.2686 39.6604 20.3069C39.9134 20.0056 40.1497 19.6879 40.4235 19.4065C40.8214 18.9976 41.2693 18.9674 41.5881 19.2919C41.9034 19.6127 41.8568 20.0521 41.4514 20.4617C40.8069 21.1128 40.1599 21.7616 39.5074 22.4046C39.064 22.8415 38.6829 22.8494 38.2422 22.4187C37.5666 21.7583 36.8986 21.09 36.2383 20.4143C35.8534 20.0204 35.8405 19.5936 36.1747 19.2788C36.4865 18.9851 36.9084 19.0151 37.2805 19.3708C37.4953 19.5761 37.6949 19.7974 37.9012 20.0114C37.9366 19.9842 37.9719 19.9569 38.0072 19.9295Z" fill="black"/>
<path d="M2.1934 28.6107C2.18331 26.2174 4.16533 24.221 6.58011 24.1924C8.96258 24.1642 10.9889 26.1717 10.9986 28.5699C11.0082 30.9922 9.0429 32.9902 6.64267 32.9983C4.19878 33.0065 2.20371 31.0391 2.1934 28.6107ZM6.6044 25.6863C4.98893 25.6839 3.6873 26.9823 3.68684 28.5967C3.68627 30.2003 5.0013 31.5257 6.59741 31.5304C8.17896 31.535 9.52528 30.1917 9.53055 28.604C9.53582 27.0139 8.20669 25.6886 6.6044 25.6863Z" fill="black"/>
<path d="M37.383 32.9983C34.9718 32.9948 33.0007 31.0137 33.002 28.5949C33.0032 26.1869 34.9864 24.1988 37.3937 24.1926C39.7874 24.1865 41.7866 26.1762 41.8076 28.5856C41.8284 30.9938 39.8151 33.0017 37.383 32.9983ZM37.4156 25.686C35.8105 25.6805 34.4908 26.979 34.4695 28.5846C34.4486 30.1552 35.7868 31.5077 37.3838 31.5298C38.9645 31.5517 40.3064 30.2172 40.3137 28.6161C40.3209 26.9997 39.027 25.6915 37.4156 25.686Z" fill="black"/>
<path d="M16.962 38.9046C17.1506 39.2726 17.3091 39.5693 17.4558 39.8717C17.6929 40.3604 17.5949 40.7745 17.202 40.9817C16.8046 41.1912 16.409 41.0402 16.1479 40.5525C15.6957 39.7083 15.2501 38.8605 14.8153 38.0072C14.5124 37.4126 14.6958 36.9775 15.3352 36.7812C16.222 36.5089 17.1138 36.2522 18.0061 35.998C18.5156 35.8529 18.9101 36.0417 19.0417 36.4734C19.16 36.861 18.92 37.2278 18.4343 37.4039C18.3184 37.4459 18.2036 37.4913 18.0883 37.5351C18.0863 37.5773 18.0844 37.6195 18.0825 37.6617C18.9996 37.7961 19.9125 37.989 20.8346 38.0535C23.2771 38.2244 25.6553 37.8955 27.9395 36.9795C28.0983 36.9158 28.2613 36.8578 28.4273 36.8176C28.7761 36.7332 29.1444 36.9226 29.2756 37.2404C29.4086 37.5626 29.2954 37.9607 28.9813 38.14C28.7604 38.2661 28.5106 38.3428 28.2719 38.4364C26.0858 39.2937 23.8075 39.7022 21.4733 39.5812C20.0987 39.5099 18.737 39.1896 17.3696 38.9804C17.2615 38.9641 17.1542 38.9407 16.962 38.9046Z" fill="black"/>
</g>
<defs>
<clipPath id="clip0_416_708">
<rect width="44" height="44" fill="white"/>
</clipPath>
</defs>
</svg>
