<svg width="44" height="44" viewBox="0 0 44 44" fill="none" xmlns="http://www.w3.org/2000/svg">
<g clip-path="url(#clip0_416_750)">
<path d="M1.01674e-05 21.9619C0.0115508 9.80974 9.85766 -0.00803855 22.0254 4.93886e-06C34.2025 0.00804843 44.0184 9.86255 43.9998 22.0607C43.9813 34.2051 34.1216 44.0161 21.9511 44C9.80293 43.9839 -0.0115305 34.1306 1.01674e-05 21.9619ZM23.07 41.8118C33.0327 41.5483 41.5697 32.8914 41.8082 23.0661C40.4593 23.0661 39.1103 23.0661 37.7471 23.0661C37.7471 22.3322 37.7471 21.6547 37.7471 20.9215C39.1248 20.9215 40.4736 20.9215 41.8228 20.9215C41.4623 10.5284 32.448 2.34451 23.0577 2.20235C23.0577 3.55086 23.0577 4.89954 23.0577 6.24822C22.3233 6.24822 21.6457 6.24822 20.9127 6.24822C20.9127 4.86597 20.9127 3.51728 20.9127 2.1679C10.2324 2.60662 2.29538 11.8467 2.21005 20.9496C3.55838 20.9496 4.90724 20.9496 6.24438 20.9496C6.24438 21.6844 6.24438 22.3621 6.24438 23.0778C4.87034 23.0778 3.5339 23.0778 2.12489 23.0778C2.51115 28.4853 4.61767 33.0266 8.57123 36.6645C12.0451 39.8609 16.1753 41.5597 20.9584 41.8676C20.9584 40.4329 20.9584 39.0849 20.9584 37.7598C21.6938 37.7598 22.3714 37.7598 23.07 37.7598C23.07 39.1262 23.07 40.45 23.07 41.8118Z" fill="black"/>
<path d="M27.2412 16.763C27.2389 19.6658 24.9025 21.9986 21.9976 21.9979C19.0958 21.9974 16.7548 19.6557 16.7588 16.7577C16.7628 13.8682 19.1236 11.5038 22.0028 11.5059C24.885 11.508 27.2435 13.8748 27.2412 16.763ZM22.0257 13.6397C20.2733 13.6332 18.8588 15.0258 18.8581 16.7586C18.8574 18.4656 20.2544 19.8678 21.9743 19.8867C23.7049 19.9057 25.1417 18.4878 25.1419 16.7609C25.142 15.0478 23.7426 13.646 22.0257 13.6397Z" fill="black"/>
<path d="M30.368 32.4687C29.6626 32.4687 29.0013 32.4687 28.2875 32.4687C28.2875 31.2553 28.2989 30.0656 28.2846 28.8762C28.2688 27.5705 27.4827 26.5745 26.2445 26.2757C26.0254 26.2229 25.7918 26.2131 25.5648 26.2127C23.1927 26.2084 20.8205 26.2052 18.4486 26.2117C16.8194 26.2162 15.7245 27.3199 15.714 28.961C15.7066 30.1191 15.7126 31.2773 15.7126 32.4655C15.0098 32.4655 14.3489 32.4655 13.6094 32.4655C13.6094 32.1793 13.6076 31.9084 13.6097 31.6374C13.6174 30.5907 13.5821 29.5413 13.6433 28.4978C13.7867 26.0594 15.7385 24.1447 18.1917 24.0938C20.7263 24.0412 23.2635 24.0427 25.7982 24.0929C28.2748 24.1419 30.2223 26.0492 30.3559 28.5343C30.4255 29.8334 30.368 31.1392 30.368 32.4687Z" fill="black"/>
</g>
<defs>
<clipPath id="clip0_416_750">
<rect width="44" height="44" fill="white"/>
</clipPath>
</defs>
</svg>
