<svg width="44" height="40" viewBox="0 0 44 40" fill="none" xmlns="http://www.w3.org/2000/svg">
<g clip-path="url(#clip0_416_734)">
<path d="M12.9659 36.7402C13.0936 37.883 12.8123 38.3284 11.705 38.7262C10.6308 39.1122 9.55643 39.4979 8.47893 39.8745C7.53214 40.2054 6.82304 39.8786 6.48259 38.9361C5.17538 35.3164 3.87416 31.6945 2.57818 28.0707C2.25419 27.1647 2.60512 26.4472 3.52074 26.1118C4.59274 25.7192 5.66886 25.3378 6.74335 24.9523C7.83119 24.5621 8.26818 24.6879 8.9779 25.6251C9.90524 25.2936 10.8474 24.9571 11.7892 24.6197C12.4915 24.3681 13.1923 24.1125 13.8957 23.8639C14.6654 23.5917 15.4287 23.6251 16.1649 23.9703C18.4679 25.0499 20.777 26.1181 23.0578 27.2429C23.5698 27.4953 23.9768 27.9605 24.4982 28.381C24.4957 28.3823 24.6136 28.3217 24.7257 28.2516C26.7569 26.985 28.7781 25.7024 30.8205 24.4542C32.8169 23.2341 35.2604 24.1792 35.8827 26.3842C36.2879 27.82 35.7292 29.2556 34.3914 30.1466C32.2213 31.5918 30.0425 33.0242 27.8671 34.4618C26.3787 35.4454 24.8789 36.4121 23.4053 37.4174C22.3605 38.13 21.2696 38.3019 20.0612 37.9291C18.476 37.4402 16.8708 37.015 15.2913 36.509C14.4586 36.2423 13.7091 36.3479 12.9659 36.7402ZM9.43234 27.0422C10.4309 29.8203 11.4162 32.5617 12.3968 35.2899C12.473 35.2899 12.5058 35.2977 12.5327 35.2885C12.6624 35.2445 12.7926 35.2009 12.9188 35.1481C13.8008 34.7786 14.6827 34.7755 15.5979 35.0575C17.2409 35.5639 18.9028 36.009 20.5448 36.5186C21.28 36.7468 21.9075 36.6288 22.5346 36.2126C26.1937 33.7841 29.8616 31.3689 33.5215 28.9417C33.759 28.784 33.9925 28.5915 34.1626 28.3662C34.6967 27.6583 34.6274 26.6593 34.033 26.0087C33.4061 25.3225 32.4508 25.1846 31.6187 25.6993C29.4663 27.0306 27.3268 28.3825 25.1728 29.7112C24.8757 29.8943 24.7266 30.1081 24.6619 30.4513C24.3124 32.3056 22.3606 33.3393 20.621 32.5916C19.8658 32.267 19.1296 31.898 18.385 31.5488C17.8471 31.2967 17.3024 31.0579 16.7741 30.7869C16.3747 30.582 16.2506 30.1935 16.4223 29.8232C16.5933 29.4546 16.9718 29.3047 17.3822 29.4486C17.4823 29.4838 17.5764 29.5364 17.6728 29.5817C18.7751 30.1009 19.8683 30.6409 20.9851 31.1268C21.3167 31.2711 21.7263 31.3535 22.0791 31.3063C22.7294 31.2194 23.1532 30.6964 23.2311 30.0588C23.3131 29.3867 23.0058 28.835 22.3355 28.5165C20.4508 27.6211 18.5588 26.7407 16.6738 25.8457C14.77 24.9417 15.1398 25.0022 13.1943 25.6866C11.9489 26.1248 10.7097 26.5812 9.43234 27.0422ZM7.56357 26.2288C6.33393 26.6709 5.14982 27.0965 3.95273 27.5267C5.27689 31.2096 6.58772 34.8551 7.90365 38.5154C9.13316 38.0714 10.3133 37.645 11.5112 37.2124C10.1866 33.5268 8.88586 29.9077 7.56357 26.2288Z" fill="black"/>
<path d="M14.5943 18.2665C14.7442 17.3833 14.9161 16.3629 15.091 15.3431C15.1888 14.773 15.3402 14.2065 15.3707 13.6332C15.3845 13.3752 15.2252 13.0424 15.036 12.8499C14.0203 11.8156 12.9609 10.8243 11.9362 9.79865C11.3492 9.21093 11.1705 8.48516 11.4286 7.69297C11.6846 6.90714 12.2311 6.40788 13.0601 6.26721C13.8261 6.13713 14.5957 6.02848 15.3644 5.91597C16.058 5.81443 16.7524 5.71687 17.4473 5.62442C17.8126 5.57582 18.0421 5.3888 18.2043 5.05053C18.7965 3.81527 19.4218 2.59597 20.0158 1.36159C20.4226 0.515956 21.0591 -0.000995334 22.0092 1.43886e-06C22.9588 0.000998212 23.5956 0.517949 24.0015 1.36396C24.5876 2.58551 25.2083 3.7906 25.7887 5.01477C25.9833 5.42519 26.2745 5.58367 26.7077 5.64174C28.127 5.83175 29.5439 6.04331 30.9581 6.2692C31.7879 6.40178 32.334 6.91113 32.5874 7.69733C32.8425 8.48914 32.662 9.21529 32.0748 9.80301C31.0718 10.8071 30.053 11.7961 29.0262 12.7759C28.6999 13.0873 28.5709 13.3915 28.6646 13.8654C28.9304 15.2088 29.118 16.5674 29.3639 17.915C29.5286 18.818 29.2711 19.5548 28.5447 20.0928C27.8287 20.623 27.0457 20.6368 26.2598 20.2278C25.0567 19.6015 23.8449 18.9903 22.6621 18.3277C22.1905 18.0634 21.8126 18.0762 21.3491 18.3331C20.1499 18.9977 18.9353 19.6364 17.7097 20.2513C16.2558 20.9807 14.5968 19.9858 14.5943 18.2665ZM27.2033 19.0118C27.7208 19.0164 27.9804 18.7044 27.9049 18.2411C27.6776 16.8443 27.4537 15.4466 27.1949 14.0555C27.0305 13.1707 27.2403 12.4386 27.8932 11.8145C28.8747 10.8762 29.8373 9.91802 30.8164 8.97719C31.0717 8.73198 31.3415 8.45089 31.142 8.11772C31.0119 7.90055 30.6848 7.72375 30.4201 7.67789C29.2798 7.48053 28.1344 7.28778 26.9826 7.18935C25.6732 7.07734 24.7647 6.54543 24.2554 5.27393C23.8208 4.18906 23.2349 3.16463 22.714 2.11453C22.5656 1.8155 22.4463 1.49379 22.0174 1.48818C21.5889 1.48258 21.4589 1.79207 21.3094 2.09584C20.7113 3.31153 20.1052 4.52348 19.5153 5.74328C19.1225 6.55578 18.4847 6.97903 17.5936 7.09516C16.2191 7.2742 14.8468 7.47468 13.4804 7.70555C13.2509 7.7443 12.9777 7.93793 12.8626 8.13878C12.7055 8.41289 12.8857 8.67691 13.1154 8.89732C14.1284 9.86905 15.1257 10.857 16.1373 11.8301C16.7746 12.4431 16.9812 13.1667 16.8215 14.0332C16.5733 15.3798 16.3637 16.7335 16.1274 18.0823C16.0717 18.3999 16.0263 18.7558 16.3572 18.8821C16.5985 18.9743 16.9582 18.9464 17.1949 18.8298C18.4245 18.2243 19.6389 17.5863 20.8441 16.9331C21.6224 16.5113 22.3742 16.5061 23.1506 16.92C24.3602 17.5648 25.5763 18.1975 26.7916 18.8317C26.9503 18.9144 27.1202 18.9758 27.2033 19.0118Z" fill="black"/>
<path d="M0.615373 2.1217C0.87614 2.19821 1.01145 2.22587 1.13728 2.27658C2.68942 2.90305 4.23968 3.53451 5.79194 4.16098C6.19213 4.32245 6.42047 4.58672 6.3464 5.03864C6.27332 5.48432 5.82399 5.75756 5.37204 5.57951C3.72937 4.93235 2.09318 4.26838 0.461357 3.59419C0.094212 3.44255 -0.0988382 3.10103 0.0510626 2.73646C0.156442 2.48067 0.444147 2.29975 0.615373 2.1217Z" fill="black"/>
<path d="M43.9928 3.10783C43.8961 3.21224 43.7498 3.49894 43.5226 3.59525C41.9115 4.27804 40.2863 4.92806 38.6596 5.57359C38.257 5.73333 37.8508 5.54818 37.7022 5.19133C37.5417 4.80608 37.6999 4.38108 38.1197 4.20839C39.7386 3.54255 41.361 2.8848 42.9901 2.24437C43.514 2.03841 44.0096 2.40249 43.9928 3.10783Z" fill="black"/>
<path d="M43.9996 18.659C43.9813 19.3194 43.4782 19.619 42.9007 19.3928C41.8384 18.9766 40.7847 18.5389 39.7269 18.1114C39.2191 17.9062 38.7077 17.7097 38.2027 17.4979C37.7216 17.2961 37.5287 16.8911 37.7003 16.4782C37.8619 16.0896 38.271 15.9342 38.7451 16.1232C40.3275 16.7537 41.9049 17.3966 43.4831 18.0378C43.8079 18.1699 44.0025 18.4021 43.9996 18.659Z" fill="black"/>
<path d="M6.36879 16.9265C6.27987 17.0308 6.14581 17.3311 5.92395 17.4258C4.30148 18.1181 2.66491 18.7783 1.02449 19.4275C0.602094 19.5947 0.185315 19.3789 0.0493817 18.9942C-0.082935 18.6194 0.076319 18.2343 0.49023 18.0631C2.09275 17.4002 3.69888 16.7456 5.31112 16.1069C5.85099 15.8932 6.3517 16.2199 6.36879 16.9265Z" fill="black"/>
<path d="M3.16753 11.5743C2.40568 11.5743 1.64383 11.5779 0.8821 11.573C0.34136 11.5695 0.0242235 11.2976 0.0167409 10.8467C0.00913363 10.3902 0.3133 10.1055 0.85828 10.1028C2.41241 10.0948 3.96654 10.0949 5.52054 10.1025C6.06016 10.1051 6.37156 10.3947 6.36408 10.8454C6.35672 11.2935 6.03547 11.5696 5.49872 11.5731C4.72166 11.578 3.94447 11.5744 3.16753 11.5743Z" fill="black"/>
<path d="M40.836 10.0999C41.6131 10.1001 42.3903 10.092 43.1672 10.1029C43.7081 10.1105 44.0111 10.3997 43.9969 10.8591C43.9834 11.2929 43.6727 11.5705 43.1645 11.5723C41.6103 11.5778 40.0561 11.5773 38.5019 11.5728C37.9707 11.5713 37.6488 11.2832 37.6484 10.8331C37.6479 10.3848 37.96 10.1082 38.5048 10.1019C39.2818 10.0932 40.0589 10.0997 40.836 10.0999Z" fill="black"/>
<path d="M6.85964 28.8744C7.06204 29.0675 7.33142 29.2263 7.45201 29.4612C7.66489 29.8761 7.80132 30.3329 7.94312 30.7807C8.07119 31.1849 7.86842 31.5825 7.50364 31.7111C7.12328 31.8451 6.72732 31.6839 6.56271 31.2881C6.38238 30.8546 6.21789 30.412 6.08432 29.9622C5.92482 29.4251 6.24906 28.9772 6.85964 28.8744Z" fill="black"/>
</g>
<defs>
<clipPath id="clip0_416_734">
<rect width="44" height="40" fill="white"/>
</clipPath>
</defs>
</svg>
