<svg width="44" height="48" viewBox="0 0 44 48" fill="none" xmlns="http://www.w3.org/2000/svg">
<path d="M36.8692 41.1943C36.8698 39.7527 36.8866 38.3108 36.8661 36.8693C36.8322 34.4829 37.4866 32.3189 38.8333 30.3439C40.1378 28.4306 41.015 26.3273 41.4832 24.0551C43.3649 14.9201 38.2281 5.98667 29.4005 3.04761C19.0394 -0.402028 7.89774 6.09291 5.84824 16.8086C5.62182 17.9922 5.53417 19.2188 5.53326 20.4254C5.53143 22.683 5.06106 24.8163 4.16303 26.8753C3.50494 28.3842 2.89506 29.9142 2.23204 31.4208C2.01127 31.9226 2.1296 32.1402 2.64672 32.2645C3.40013 32.4456 4.14276 32.6723 4.88813 32.8863C5.93735 33.1873 6.56659 33.8673 6.73769 34.9555C7.12279 37.4048 7.51483 39.8529 7.89154 42.3035C8.06263 43.417 8.76381 44.0512 9.89977 44.0541C12.0249 44.0596 14.1501 44.0645 16.2752 44.0534C18.9094 44.0397 20.8342 42.1916 20.9682 39.5667C21.0044 38.8591 21.4211 38.4312 22.0565 38.4488C22.7028 38.4667 23.0963 38.9526 23.0678 39.6976C22.9316 43.2562 20.0598 46.1075 16.4907 46.1721C14.2524 46.2126 12.0125 46.2044 9.77396 46.1732C7.63243 46.1432 6.06663 44.5739 5.80095 42.4672C5.50057 40.0837 5.07055 37.7162 4.66609 35.3471C4.63542 35.1674 4.38525 34.9496 4.19225 34.8867C3.43792 34.6404 2.6637 34.456 1.90043 34.2364C0.310902 33.7788 -0.401238 32.3326 0.227454 30.8041C0.918594 29.1245 1.62617 27.4514 2.33995 25.7813C3.0793 24.0509 3.44176 22.2557 3.43318 20.3683C3.39008 10.8418 9.99965 2.56915 19.2991 0.48133C30.2677 -1.98127 41.4647 5.26669 43.5887 16.2549C44.6465 21.7272 43.6702 26.8468 40.5776 31.5108C39.4704 33.1807 38.941 34.9796 38.9505 36.9705C38.9664 40.2712 38.9571 43.5718 38.9509 46.8725C38.9496 47.5335 38.5137 47.9936 37.9228 47.9999C37.3626 48.006 36.9251 47.5666 36.8776 46.9423C36.8647 46.7723 36.869 46.6011 36.869 46.4304C36.8683 44.6848 36.8685 42.9397 36.8692 41.1943Z" fill="black"/>
<path d="M27.1572 22.1996C25.8355 22.1693 24.7544 21.7014 23.9179 20.7206C23.4396 20.1598 23.4502 19.5097 23.9257 19.1067C24.3857 18.7167 24.9956 18.8016 25.4795 19.3228C26.1556 20.0512 27.0199 20.2715 27.8388 19.9241C28.6713 19.5713 29.1057 18.8451 29.0427 17.8137C29.0095 17.2697 29.1181 16.8328 29.6455 16.5882C30.2718 16.2978 30.9748 16.6817 31.0935 17.4002C31.3579 19.0028 30.8165 20.3137 29.5699 21.3234C29.3084 21.5351 29.2144 21.7191 29.2786 22.0346C29.5345 23.2913 30.725 24.4044 32.0271 24.5892C33.5467 24.805 34.9005 24.1253 35.5847 22.8033C36.2171 21.5815 36.0168 19.9986 35.1076 19.0457C35.085 19.022 35.0455 19.0143 34.9957 18.9902C34.9427 19.0639 34.8876 19.1388 34.8341 19.2149C34.4351 19.7839 33.882 19.9469 33.368 19.6468C32.8457 19.3418 32.7042 18.7379 33.0479 18.1165C33.4722 17.3496 33.666 16.5433 33.6285 15.6649C33.5246 13.2399 31.2642 11.3247 28.8612 11.6446C28.1529 11.7388 27.8419 11.5562 27.4689 10.8538C26.4525 8.94065 24.867 7.92494 22.691 7.95908C20.0307 8.00088 17.8039 10.2941 17.7727 12.9577C17.7697 13.2039 17.7851 13.4504 17.792 13.6968C17.8112 14.3757 17.4398 14.843 16.8454 14.8878C16.2518 14.9325 15.8015 14.5188 15.7232 13.8589C15.6969 13.6378 15.6664 13.4173 15.639 13.2059C13.7598 13.1084 11.8312 15.0146 11.7239 17.025C11.5884 19.564 13.2754 21.5174 15.7168 21.6713C15.9846 21.1671 16.1976 20.6344 16.5218 20.1813C17.3921 18.9656 18.5929 18.3222 20.103 18.3089C20.7447 18.3033 21.1739 18.7019 21.1951 19.2898C21.217 19.8978 20.8593 20.3263 20.2003 20.3653C18.2271 20.4822 17.4509 22.2648 17.8831 23.5229C18.2067 24.4645 19.0479 25.131 20.0524 25.1606C20.773 25.1817 21.4944 25.1653 22.2155 25.1713C24.9885 25.1947 26.9547 27.0737 27.0675 29.8366C27.1053 30.7647 27.0884 31.6957 27.0721 32.6248C27.0588 33.3837 26.6368 33.8353 25.9964 33.8266C25.3577 33.8178 24.9634 33.3563 24.9589 32.5954C24.9534 31.6849 24.9642 30.7743 24.9554 29.8638C24.9412 28.3972 23.8673 27.3227 22.4083 27.2935C21.4237 27.2738 20.4264 27.3336 19.4577 27.1964C17.6912 26.9459 16.516 25.8851 15.9134 24.2159C15.7995 23.9002 15.6748 23.7858 15.3291 23.7599C12.3202 23.5339 9.77296 20.8781 9.59656 17.8146C9.41305 14.6325 11.6262 11.6818 14.6986 11.1732C15.5986 11.0243 16.0456 10.7128 16.462 9.85869C18.8836 4.8906 25.7015 4.46234 28.8262 9.03393C29.0442 9.35285 29.2538 9.53558 29.6743 9.55274C33.0899 9.69239 35.7909 12.5402 35.744 15.9644C35.7365 16.5165 35.8626 16.8783 36.298 17.2607C37.9861 18.7432 38.5125 21.2587 37.6499 23.3535C36.7431 25.5554 34.5969 26.8627 32.1095 26.7283C30.0041 26.6146 27.9997 25.0041 27.3465 22.8988C27.2801 22.6835 27.2284 22.4638 27.1572 22.1996Z" fill="black"/>
<path d="M25.1803 16.1068C25.1934 15.1338 24.7368 14.4082 23.9147 14.0895C23.0641 13.7596 22.2561 13.9823 21.5836 14.7726C21.2705 15.1406 20.881 15.3814 20.4453 15.2032C20.1371 15.0771 19.8098 14.7622 19.7008 14.4568C19.6086 14.1985 19.7361 13.7782 19.9066 13.5236C20.7944 12.1972 22.5521 11.5763 24.1771 11.9619C25.7157 12.327 26.9948 13.6809 27.2177 15.2215C27.2765 15.6284 27.2891 16.0535 27.2426 16.4613C27.1681 17.1156 26.7187 17.4893 26.1475 17.452C25.5468 17.4128 25.179 16.9663 25.1803 16.2775C25.1803 16.2207 25.1803 16.1638 25.1803 16.1068Z" fill="black"/>
</svg>
