<svg width="44" height="49" viewBox="0 0 44 49" fill="none" xmlns="http://www.w3.org/2000/svg">
<path d="M21.242 49C20.9874 48.9262 20.7298 48.8617 20.4789 48.777C19.1267 48.3209 18.1238 47.4554 17.4625 46.176C17.3808 46.018 17.2085 45.8613 17.0434 45.8011C15.6776 45.3031 14.8926 44.2111 14.8901 42.756C14.8877 41.3842 14.8896 40.0126 14.8895 38.6408C14.8894 37.2593 14.379 36.1282 13.2576 35.3107C10.566 33.3481 8.58484 30.8283 7.58641 27.6223C5.7248 21.6443 7.01681 16.3808 11.2931 11.8541C11.7059 11.4172 12.116 11.3929 12.4447 11.7427C12.741 12.058 12.6971 12.4851 12.3068 12.879C10.3585 14.8449 9.0047 17.16 8.51103 19.9018C7.50117 25.5105 9.21245 30.1599 13.6101 33.7321C14.8727 34.7577 15.9254 35.8337 16.2357 37.4971C16.2533 37.5911 16.4862 37.7048 16.6202 37.7065C17.7896 37.7231 18.9593 37.7162 20.129 37.7162C20.8402 37.7162 21.5515 37.7137 22.2627 37.717C22.8439 37.7197 23.1729 37.9927 23.1655 38.4563C23.1582 38.9117 22.8601 39.1572 22.2846 39.1585C20.4828 39.1623 18.681 39.1601 16.879 39.1601C16.7083 39.1601 16.5375 39.1601 16.3085 39.1601C16.3085 40.0759 16.3085 40.9473 16.3085 41.8188C16.3085 42.1218 16.3044 42.425 16.3094 42.7279C16.3266 43.7575 16.968 44.472 17.9836 44.4811C20.6545 44.505 23.3259 44.501 25.9969 44.4837C26.9057 44.4777 27.6093 43.901 27.6561 43.0313C27.7244 41.7634 27.6736 40.489 27.6736 39.1599C26.938 39.1599 26.2314 39.1624 25.5249 39.1591C24.9276 39.1562 24.5923 38.9044 24.5811 38.4595C24.5695 37.9994 24.93 37.7185 25.5402 37.7165C26.1567 37.7145 26.7732 37.7089 27.3895 37.7195C27.6292 37.7235 27.7463 37.6681 27.8009 37.3948C28.0789 36.0041 28.8271 34.9137 29.9604 34.0852C32.7846 32.0206 34.6345 29.2839 35.4348 25.8593C37.2329 18.1639 32.2512 10.5093 24.5223 9.06758C21.0686 8.4234 17.8411 9.05176 14.8361 10.8751C14.7684 10.9161 14.7025 10.96 14.6341 10.9998C14.1896 11.2577 13.7858 11.193 13.5574 10.828C13.3298 10.4642 13.446 10.0485 13.8724 9.77305C15.3475 8.82021 16.9396 8.14521 18.6483 7.75554C27.0091 5.84833 35.3475 11.2335 36.9238 19.7559C38.0704 25.9553 36.0254 31.1014 31.11 35.0011C29.7492 36.0806 29.0288 37.3223 29.1015 39.0706C29.153 40.3125 29.115 41.5584 29.1103 42.8025C29.1051 44.1815 28.3227 45.3085 27.0391 45.7479C26.7612 45.8431 26.6079 45.9941 26.4759 46.2504C25.7394 47.68 24.5765 48.557 23.0174 48.9023C22.9285 48.9221 22.845 48.9668 22.759 49C22.2536 49 21.7478 49 21.242 49ZM18.9768 45.9302C19.8634 47.09 20.9199 47.6349 22.2356 47.5468C23.3618 47.4715 24.2877 46.9689 24.9882 45.9302C24.7432 45.9302 24.5893 45.9302 24.4354 45.9302C22.6588 45.9302 20.8823 45.9302 18.9768 45.9302Z" fill="black"/>
<path d="M21.9781 34.2711C21.5515 34.2711 21.1249 34.2747 20.6984 34.2703C20.1061 34.2642 19.9042 34.0899 19.8173 33.5089C19.7491 33.0526 19.6808 32.5961 19.627 32.138C19.5944 31.8605 19.4516 31.7363 19.2086 31.5856C18.406 31.0881 17.7546 31.242 17.1452 31.901C17.018 32.0385 16.848 32.1371 16.6927 32.2465C16.2623 32.5493 15.9649 32.5354 15.5958 32.1705C14.9527 31.5345 14.3144 30.8932 13.6836 30.2447C13.2975 29.8476 13.2879 29.5704 13.6247 29.1054C13.9229 28.6938 14.2449 28.2989 14.5258 27.8761C14.6019 27.7617 14.6257 27.5474 14.5736 27.4209C14.0605 26.1743 14.0543 26.1775 12.6693 26.0282C12.4973 26.0097 12.3241 25.9886 12.1559 25.9492C11.7835 25.8619 11.5862 25.6061 11.5817 25.231C11.5702 24.2746 11.5711 23.3179 11.5803 22.3613C11.5843 21.94 11.805 21.6725 12.224 21.6033C12.7681 21.5133 13.3155 21.4425 13.859 21.3483C13.9638 21.3301 14.1066 21.2664 14.1468 21.1823C14.3243 20.8107 14.486 20.4293 14.618 20.0391C14.6522 19.9382 14.5876 19.7718 14.5173 19.6719C14.216 19.2432 13.8946 18.8289 13.5825 18.4078C13.302 18.0293 13.3305 17.6746 13.6637 17.3405C14.3137 16.6887 14.9615 16.0348 15.6094 15.381C15.9418 15.0456 16.2955 15.0259 16.6689 15.3059C17.0871 15.6194 17.4965 15.9459 17.9259 16.2429C18.0346 16.3181 18.2224 16.358 18.3434 16.3186C18.687 16.2067 19.0291 16.0711 19.3419 15.8915C19.4734 15.8161 19.5797 15.6168 19.6106 15.4568C19.704 14.9732 19.7496 14.4806 19.8235 13.993C19.8973 13.506 20.126 13.303 20.6208 13.2992C21.5371 13.2923 22.4536 13.2924 23.3698 13.2991C23.8845 13.3028 24.0994 13.5067 24.1811 14.0325C24.208 14.2055 24.2442 14.3773 24.2644 14.5511C24.4167 15.8631 24.4139 15.8687 25.6499 16.3135C25.7687 16.3562 25.96 16.3218 26.0667 16.2481C26.4835 15.9608 26.8763 15.6385 27.2846 15.3383C27.7308 15.0101 28.0279 15.0252 28.4166 15.4094C29.0486 16.0342 29.6745 16.6654 30.2949 17.3017C30.7028 17.7201 30.715 17.9941 30.3636 18.4776C30.0742 18.8758 29.7599 19.257 29.4919 19.6692C29.4099 19.7953 29.3981 20.0091 29.4331 20.1648C29.6288 21.0345 30.1117 21.4718 31.0677 21.5124C32.511 21.5738 32.4388 21.8797 32.4252 23.1683C32.4186 23.79 32.4266 24.4119 32.4233 25.0336C32.4199 25.6759 32.2032 25.9216 31.572 26.0124C31.1195 26.0774 30.6686 26.1728 30.214 26.1981C29.9331 26.2138 29.8261 26.3419 29.7683 26.5791C29.7535 26.6403 29.7348 26.7065 29.6982 26.7555C29.1732 27.4557 29.4912 27.9897 29.9616 28.5762C30.8641 29.7015 30.8375 29.7233 29.8176 30.7511C29.3481 31.2242 28.8837 31.7027 28.4069 32.1683C28.034 32.5323 27.729 32.5522 27.3108 32.2477C26.9012 31.9494 26.5121 31.621 26.0908 31.3414C25.9643 31.2574 25.752 31.2495 25.593 31.2803C24.643 31.4646 24.1874 32.0406 24.258 33.0335C24.2724 33.2347 24.2127 33.4443 24.1692 33.6461C24.0856 34.0329 23.8595 34.2661 23.4477 34.2685C22.958 34.2714 22.4683 34.2692 21.9785 34.2692C21.9781 34.2698 21.9781 34.2704 21.9781 34.2711ZM28.8975 29.5449C28.5918 29.1316 28.2687 28.6816 27.9313 28.2428C27.6898 27.9284 27.677 27.627 27.8591 27.2701C28.0963 26.8049 28.3678 26.3329 28.4761 25.8313C28.633 25.1036 29.0459 24.8525 29.7263 24.7884C31.0163 24.6667 31.0009 24.6453 30.9946 23.3477C30.993 23.0071 30.8548 22.9059 30.5613 22.8738C30.1539 22.8292 29.75 22.7499 29.3423 22.7088C28.9236 22.6664 28.7126 22.4302 28.5752 22.0442C28.3684 21.4626 28.1443 20.8833 27.873 20.3304C27.6782 19.9335 27.6958 19.6183 27.9674 19.2769C28.3012 18.8575 28.6066 18.4151 28.8667 18.061C28.4734 17.6213 28.1157 17.2215 27.7459 16.8082C27.2988 17.1441 26.8632 17.4594 26.4413 17.7922C26.1126 18.0514 25.7952 18.0384 25.429 17.8645C24.8749 17.6015 24.3138 17.3412 23.7327 17.1513C23.2867 17.0055 23.0956 16.7393 23.0458 16.2963C22.9878 15.7806 22.901 15.2684 22.8267 14.7557C22.2512 14.7557 21.7194 14.7557 21.1671 14.7557C21.0919 15.2935 21.0116 15.81 20.9494 16.3287C20.8986 16.7531 20.6994 17.0096 20.2802 17.1506C19.7149 17.3408 19.1553 17.5646 18.6236 17.8348C18.2025 18.0489 17.8593 18.0454 17.4915 17.7456C17.0903 17.4186 16.6658 17.1207 16.2747 16.8275C15.8595 17.2365 15.4796 17.6109 15.0832 18.0015C15.4082 18.44 15.7212 18.8784 16.0517 19.303C16.3073 19.6312 16.3121 19.9421 16.1311 20.3188C15.8643 20.8745 15.6363 21.4515 15.427 22.0321C15.2899 22.4126 15.0901 22.6571 14.6681 22.7078C14.1239 22.7731 13.5838 22.8733 13.0119 22.9632C13.0119 23.4182 13.0346 23.8327 13.0047 24.2433C12.9809 24.571 13.138 24.6575 13.4119 24.6894C13.8346 24.7387 14.2537 24.8215 14.677 24.8629C15.1056 24.9048 15.2935 25.1686 15.4297 25.5442C15.6349 26.1097 15.8479 26.6764 16.115 27.2135C16.3197 27.6254 16.303 27.9573 16.0199 28.3118C15.6943 28.7194 15.3944 29.1482 15.1382 29.4939C15.539 29.9219 15.9116 30.3198 16.2957 30.73C16.7182 30.4122 17.1535 30.0956 17.5765 29.7632C17.8907 29.5161 18.196 29.5284 18.5458 29.6924C19.1013 29.9527 19.6603 30.217 20.2413 30.4058C20.704 30.5562 20.9072 30.8288 20.9553 31.2937C21.0075 31.796 21.0954 32.2946 21.1688 32.801C21.7421 32.801 22.287 32.801 22.8352 32.801C22.9109 32.2504 22.9867 31.7309 23.0528 31.2101C23.1041 30.8059 23.3011 30.562 23.7001 30.4246C24.279 30.2252 24.8504 29.9909 25.3993 29.7189C25.8047 29.518 26.1368 29.5247 26.4899 29.811C26.8937 30.1384 27.3188 30.4389 27.7454 30.7591C28.1346 30.3489 28.5028 29.9608 28.8975 29.5449Z" fill="black"/>
<path d="M21.2676 2.82152C21.2676 2.16889 21.2596 1.51614 21.2701 0.863625C21.279 0.308084 21.5546 -0.00365617 22.0046 3.23638e-05C22.4525 0.0037209 22.7229 0.313201 22.7269 0.876832C22.7361 2.16615 22.7355 3.45559 22.7272 4.74491C22.7236 5.30676 22.4538 5.62718 22.0152 5.63766C21.5579 5.64848 21.2765 5.31568 21.2693 4.7317C21.2616 4.09502 21.2676 3.45821 21.2676 2.82152Z" fill="black"/>
<path d="M2.79544 22.8886C2.13269 22.8886 1.46983 22.8963 0.807318 22.8861C0.288651 22.8781 -0.0072915 22.6008 0.000136555 22.1596C0.0074467 21.7246 0.314591 21.448 0.828895 21.4455C2.13859 21.439 3.44828 21.4391 4.75798 21.4455C5.27334 21.448 5.58131 21.7234 5.58992 22.1578C5.59865 22.5966 5.29952 22.878 4.7838 22.8861C4.12105 22.8964 3.45819 22.8886 2.79544 22.8886Z" fill="black"/>
<path d="M41.157 22.8885C40.5101 22.8885 39.863 22.8964 39.2162 22.886C38.6954 22.8777 38.4025 22.6026 38.4103 22.159C38.4179 21.7236 38.7242 21.448 39.2387 21.4455C40.5483 21.4391 41.8581 21.4391 43.1677 21.4455C43.6825 21.448 43.9911 21.7242 43.9996 22.1581C44.0082 22.5962 43.7079 22.8783 43.1924 22.886C42.5141 22.8963 41.8355 22.8885 41.157 22.8885Z" fill="black"/>
<path d="M37.0955 6.20667C37.2948 6.36468 37.5502 6.48461 37.6761 6.68677C37.8597 6.98126 37.7715 7.29978 37.5204 7.55286C36.7503 8.329 35.9801 9.1049 35.2098 9.8808C35.0089 10.0832 34.8172 10.2963 34.6041 10.4848C34.2677 10.7823 33.8724 10.7689 33.5885 10.4706C33.3214 10.19 33.2964 9.78644 33.59 9.48375C34.5718 8.47154 35.5689 7.47421 36.5707 6.482C36.6851 6.36848 36.8664 6.32363 37.0955 6.20667Z" fill="black"/>
<path d="M9.93985 10.7985C9.67716 10.6351 9.46646 10.551 9.31743 10.4035C8.37135 9.46796 7.43589 8.52144 6.50373 7.57182C6.17348 7.23545 6.15013 6.80211 6.42202 6.50822C6.70865 6.19838 7.16105 6.20361 7.51135 6.55224C8.4658 7.50186 9.42543 8.44743 10.3434 9.43227C10.5096 9.61051 10.5874 9.99447 10.5232 10.2335C10.4648 10.4508 10.1579 10.6002 9.93985 10.7985Z" fill="black"/>
<path d="M29.6497 4.52814C29.3279 5.28321 29.0943 5.96262 28.7418 6.57206C28.6464 6.73685 28.1629 6.78861 27.9082 6.71448C27.5939 6.62298 27.4358 6.28066 27.5558 5.93013C27.746 5.37495 27.954 4.82405 28.1922 4.28838C28.3486 3.93678 28.691 3.79864 29.0254 3.94487C29.2632 4.04886 29.4312 4.31539 29.6497 4.52814Z" fill="black"/>
<path d="M16.5877 6.18647C16.3632 6.40267 16.1925 6.66432 15.9535 6.77307C15.6428 6.91442 15.298 6.79984 15.1488 6.4674C14.896 5.90436 14.6446 5.32978 14.5011 4.73355C14.45 4.52164 14.6544 4.11566 14.8527 4.01071C15.0547 3.90375 15.5551 3.96288 15.6425 4.11483C16.002 4.7389 16.2539 5.42604 16.5877 6.18647Z" fill="black"/>
<path d="M6.13856 16.7158C5.39587 16.3846 4.73124 16.1348 4.11719 15.7929C3.84565 15.6418 3.7755 15.2405 4.00565 14.9888C4.18227 14.7957 4.52656 14.5814 4.73713 14.6312C5.31428 14.7678 5.87186 15.0136 6.41434 15.266C6.73316 15.4144 6.87582 15.7506 6.7229 16.0741C6.60971 16.3134 6.35657 16.4852 6.13856 16.7158Z" fill="black"/>
<path d="M40.0961 15.488C39.9938 15.5965 39.8437 15.8548 39.6209 15.9716C39.1783 16.2033 38.7011 16.373 38.2278 16.5385C37.7901 16.6915 37.401 16.5024 37.2676 16.1116C37.1352 15.7237 37.2901 15.381 37.7174 15.1977C38.1928 14.9936 38.6731 14.7958 39.1643 14.6363C39.6492 14.4787 40.1174 14.8451 40.0961 15.488Z" fill="black"/>
<path d="M21.9895 28.425C19.4438 28.4219 17.363 26.3258 17.3721 23.7735C17.3812 21.2149 19.4589 19.1392 22.0091 19.141C24.552 19.1428 26.6346 21.2413 26.6262 23.7933C26.6175 26.3537 24.5411 28.4281 21.9895 28.425ZM18.8332 23.7458C18.8105 25.5024 20.2087 26.9628 21.9385 26.9894C23.7027 27.0164 25.1427 25.6018 25.1638 23.8207C25.1845 22.0615 23.7985 20.6115 22.0603 20.574C20.3131 20.5362 18.8561 21.9682 18.8332 23.7458Z" fill="black"/>
</svg>
