<svg width="44" height="50" viewBox="0 0 44 50" fill="none" xmlns="http://www.w3.org/2000/svg">
<g clip-path="url(#clip0_416_724)">
<path d="M7.63584 11.809C11.0673 9.8073 14.4822 7.81515 17.887 5.82898C17.4171 3.49486 18.0078 1.78837 19.6385 0.712088C21.127 -0.270266 23.0692 -0.233309 24.5066 0.804885C26.0532 1.92216 26.6326 3.70934 26.1005 5.81494C29.5146 7.80676 32.9411 9.80584 36.3793 11.8117C37.1175 11.0383 37.9613 10.5222 39.0085 10.3605C41.2428 10.0156 43.3362 11.4321 43.8812 13.6807C44.4071 15.8501 43.1417 18.1346 41.0045 18.8136C40.5945 18.9438 40.4491 19.0978 40.4525 19.5587C40.4779 23.1666 40.4665 26.7749 40.4665 30.3832C40.4665 30.5662 40.4665 30.7492 40.4665 30.9475C42.6222 31.5629 43.9161 32.9469 43.9804 35.2144C44.0331 37.0689 43.1155 38.4584 41.4418 39.256C39.9936 39.9462 38.069 39.8759 36.3656 38.1493C32.9589 40.1363 29.5435 42.1282 26.1171 44.1266C26.6489 46.2788 26.1502 48.0868 24.2545 49.293C22.6895 50.2888 21.0374 50.2262 19.5308 49.1465C17.8158 47.9174 17.3741 46.1841 17.8953 44.1284C14.4876 42.1404 11.0731 40.1484 7.64702 38.1498C6.04556 39.7033 4.23885 40.1751 2.24334 39.0807C0.675421 38.221 -0.102626 36.7873 0.033464 34.9968C0.197188 32.8436 1.46289 31.5416 3.51575 30.9591C3.51575 26.9739 3.51575 22.9849 3.51575 19.0035C1.23448 18.1895 0.0979952 16.8274 0.00423335 14.8125C-0.0740346 13.1333 0.939615 11.4612 2.49443 10.7212C4.0526 9.97966 6.01697 10.1367 7.63584 11.809ZM38.8414 18.9763C36.1193 18.2116 35.0017 16.2553 35.5446 13.2064C32.1321 11.2157 28.7081 9.21808 25.296 7.22755C23.6381 9.02716 20.8489 9.43175 18.694 7.23997C15.277 9.23309 11.8522 11.2309 8.43161 13.2261C8.80922 14.527 8.72951 15.7313 8.07142 16.8665C7.41637 17.9963 6.42572 18.6719 5.1704 18.9745C5.1704 22.9869 5.1704 26.9758 5.1704 30.984C6.44009 31.2772 7.42084 31.9665 8.07733 33.0949C8.74564 34.2437 8.79804 35.4676 8.43928 36.7325C11.8818 38.7399 15.2957 40.7304 18.7245 42.7296C19.6193 41.7465 20.7042 41.216 21.9954 41.2126C23.3038 41.2092 24.3995 41.7537 25.2899 42.7298C28.7366 40.7184 32.1495 38.7266 35.5711 36.73C35.2031 35.451 35.2686 34.2443 35.9195 33.1072C36.5764 31.9594 37.5837 31.2796 38.8416 30.9714C38.8414 26.959 38.8414 22.9852 38.8414 18.9763ZM1.63684 14.6547C1.62789 16.1796 2.83626 17.4207 4.33357 17.4242C5.79446 17.4278 7.03621 16.1924 7.05586 14.7162C7.07598 13.198 5.87992 11.9592 4.37063 11.9347C2.86612 11.9105 1.64594 13.1244 1.63684 14.6547ZM42.3689 14.6513C42.3588 13.1222 41.1366 11.9093 39.6318 11.9356C38.142 11.9616 36.9517 13.1751 36.9501 14.6695C36.9485 16.1681 38.1971 17.4303 39.6751 17.4244C41.1752 17.4181 42.379 16.179 42.3689 14.6513ZM1.63732 35.272C1.63396 36.8034 2.83801 38.024 4.34571 38.0177C5.8304 38.0114 7.04132 36.8018 7.05586 35.3106C7.07055 33.8074 5.84398 32.5425 4.35833 32.5288C2.86357 32.5147 1.64067 33.7477 1.63732 35.272ZM42.3688 35.2767C42.3668 33.7508 41.1483 32.5184 39.6517 32.5288C38.1677 32.5389 36.9386 33.8024 36.9502 35.3061C36.9617 36.7968 38.1698 38.0077 39.6553 38.0173C41.1633 38.0272 42.3707 36.8076 42.3688 35.2767ZM19.2998 4.34698C19.2947 5.87917 20.489 7.10038 21.9974 7.10522C23.4843 7.1099 24.6947 5.90483 24.7062 4.40879C24.7179 2.87498 23.5343 1.63796 22.0336 1.6152C20.5456 1.59261 19.3048 2.83253 19.2998 4.34698ZM24.7064 45.5981C24.7097 44.0667 23.5099 42.846 22.002 42.8466C20.5138 42.8473 19.3094 44.052 19.3 45.5495C19.2904 47.079 20.4823 48.3194 21.9788 48.3373C23.4674 48.3552 24.703 47.1142 24.7064 45.5981Z" fill="black"/>
<path d="M31.7081 17.8654C31.5938 18.0988 31.5102 18.3168 31.388 18.5097C30.9764 19.1591 30.5387 19.7917 30.141 20.4495C30.0579 20.5869 30.0635 20.8117 30.0968 20.9828C30.3086 22.0734 30.9873 22.5811 32.0771 22.6223C32.4847 22.6376 32.8871 22.7845 33.2928 22.8665C33.7701 22.963 34.0169 23.2702 34.0263 23.7449C34.0427 24.5668 34.0431 25.3894 34.026 26.2113C34.0162 26.6866 33.7646 26.9887 33.289 27.0873C32.5267 27.2452 31.7658 27.4101 31.004 27.571C30.9392 27.5847 30.8697 27.5809 30.8072 27.6007C30.4838 27.7029 29.9464 29.2213 30.134 29.5118C30.5509 30.1579 30.9762 30.7981 31.3923 31.4446C31.7664 32.0257 31.7429 32.2954 31.2759 32.7746C30.7632 33.3005 30.2467 33.8231 29.7267 34.3416C29.2507 34.8164 28.9801 34.8408 28.4114 34.466C27.8 34.0631 27.1836 33.6669 26.5862 33.2436C26.3417 33.0702 26.131 33.0026 25.8741 33.1895C25.7949 33.2471 25.6992 33.3007 25.6048 33.3152C24.7308 33.4508 24.4639 34.0487 24.3878 34.8477C24.3405 35.3446 24.2017 35.833 24.096 36.3236C23.976 36.8801 23.7264 37.117 23.1814 37.1299C22.4013 37.1484 21.62 37.147 20.8397 37.1305C20.2864 37.1189 20.0277 36.8857 19.9111 36.3402C19.7432 35.5551 19.5898 34.7667 19.4146 33.9833C19.386 33.8557 19.3039 33.6895 19.1999 33.6385C18.7835 33.4343 18.3551 33.2495 17.9167 33.101C17.7972 33.0605 17.6074 33.1404 17.484 33.2197C16.8257 33.6417 16.1828 34.0882 15.5257 34.5122C15.0334 34.8298 14.7403 34.7975 14.3269 34.3887C13.7691 33.8371 13.2225 33.2739 12.6692 32.7178C12.3119 32.3587 12.2614 31.9749 12.5468 31.544C12.9898 30.8754 13.4378 30.2092 13.8506 29.5217C13.9395 29.3735 13.9114 29.1373 13.8931 28.9459C13.8811 28.8201 13.7603 28.7072 13.7389 28.5798C13.6003 27.7503 13.0561 27.4705 12.2942 27.3957C11.7694 27.3443 11.2556 27.1871 10.7345 27.0893C10.2568 26.9995 9.99228 26.707 9.98062 26.2309C9.96001 25.3925 9.95889 24.5526 9.98142 23.7142C9.99419 23.2381 10.264 22.9547 10.7414 22.8615C11.5219 22.7088 12.3015 22.5482 13.0736 22.3584C13.2284 22.3203 13.357 22.1452 13.48 22.0161C13.5322 21.9612 13.5217 21.8496 13.5685 21.785C14.1435 20.9905 13.9317 20.3009 13.346 19.6129C13.0348 19.2474 12.8122 18.8055 12.5438 18.402C12.2727 17.9947 12.2986 17.6159 12.6411 17.2675C13.2144 16.6839 13.7903 16.1031 14.3671 15.5231C14.7106 15.1777 15.0835 15.1432 15.4896 15.4154C16.1531 15.8604 16.8118 16.3136 17.4919 16.7312C17.6405 16.8226 17.8788 16.8263 18.0606 16.7909C19.1447 16.5798 19.6465 15.8927 19.6764 14.7857C19.6871 14.3908 19.8254 13.9986 19.9117 13.6066C20.032 13.0597 20.2871 12.837 20.8461 12.8286C21.6266 12.8168 22.4073 12.8199 23.1878 12.8279C23.6842 12.8331 23.9928 13.08 24.0938 13.585C24.2511 14.3724 24.4051 15.1609 24.5916 15.9412C24.629 16.0979 24.7947 16.2325 24.9228 16.3541C24.9899 16.4176 25.1159 16.4136 25.1948 16.4696C25.9436 16.9999 26.5987 16.8468 27.2585 16.2645C27.6422 15.9259 28.1118 15.6871 28.5411 15.4011C28.9317 15.1409 29.2963 15.1839 29.6228 15.5087C30.2145 16.0973 30.8058 16.6868 31.3794 17.2932C31.5201 17.4423 31.5918 17.6579 31.7081 17.8654ZM28.9127 17.1013C28.2204 17.5624 27.5369 18.0047 26.8678 18.4682C26.4846 18.7335 26.1366 18.749 25.7118 18.5297C25.1398 18.2344 24.541 17.9768 23.9294 17.7797C23.4358 17.6208 23.1865 17.3348 23.1031 16.8347C23.0068 16.2574 22.836 15.6904 22.7733 15.1107C22.7148 14.5701 22.4739 14.3808 21.9663 14.477C21.9021 14.4891 21.8328 14.4863 21.7675 14.4775C21.4547 14.4354 21.336 14.574 21.2862 14.888C21.1812 15.5483 21.0137 16.1982 20.9001 16.8573C20.8129 17.3642 20.5398 17.6314 20.0545 17.7875C19.4742 17.9741 18.9006 18.2087 18.3634 18.4974C17.8916 18.751 17.5071 18.7347 17.0765 18.4284C16.4293 17.9681 15.7565 17.5446 15.1215 17.1234C14.7986 17.432 14.5114 17.7063 14.21 17.9942C14.6679 18.6984 15.1029 19.3912 15.5634 20.0663C15.8296 20.4565 15.8338 20.8075 15.6201 21.2339C15.3297 21.8131 15.0723 22.4168 14.8778 23.0349C14.7201 23.5357 14.4317 23.7789 13.9387 23.8656C13.2701 23.9829 12.6031 24.1169 11.9455 24.2844C11.8105 24.3188 11.6736 24.5168 11.6223 24.6686C11.5666 24.8341 11.6249 25.0352 11.6059 25.2177C11.5725 25.5393 11.7143 25.65 12.0199 25.7002C12.673 25.8077 13.3163 25.9759 13.9684 26.0908C14.47 26.1791 14.7347 26.4552 14.8883 26.9456C15.0722 27.5323 15.3008 28.1141 15.5888 28.6554C15.8434 29.1337 15.8256 29.5199 15.522 29.9553C15.0663 30.6088 14.6471 31.2884 14.243 31.9095C14.5563 32.2359 14.8313 32.5225 15.1251 32.8285C15.7902 32.3869 16.4765 31.9483 17.1437 31.4819C17.5306 31.2115 17.8782 31.209 18.2995 31.4236C18.8733 31.7159 19.4699 31.978 20.0813 32.1747C20.5773 32.3341 20.8174 32.6258 20.903 33.1235C21.0193 33.7992 21.1518 34.4733 21.3176 35.1379C21.352 35.2754 21.5459 35.416 21.6959 35.4686C21.859 35.5257 22.0583 35.4665 22.2391 35.4852C22.5565 35.5181 22.668 35.3755 22.718 35.0667C22.8276 34.3902 22.9856 33.7216 23.1149 33.0481C23.2025 32.5924 23.4465 32.3301 23.9011 32.1842C24.4976 31.9926 25.0905 31.7591 25.6403 31.4598C26.1139 31.2019 26.4952 31.2128 26.9266 31.5196C27.5745 31.9802 28.2461 32.4066 28.8925 32.8375C29.2096 32.5289 29.4947 32.2515 29.7958 31.9584C29.3398 31.2574 28.9047 30.5649 28.4443 29.89C28.1794 29.5013 28.1661 29.1515 28.3819 28.723C28.6734 28.1446 28.9301 27.5402 29.1248 26.9222C29.2821 26.4229 29.5658 26.1732 30.0603 26.0877C30.6477 25.986 31.2243 25.808 31.8143 25.7404C32.3109 25.6834 32.4769 25.4619 32.3978 24.9916C32.3841 24.9101 32.387 24.8229 32.3974 24.7405C32.437 24.4253 32.3017 24.3036 31.9907 24.2529C31.3209 24.1438 30.6593 23.9832 29.9928 23.8524C29.5422 23.7639 29.2834 23.5173 29.1365 23.0592C28.9384 22.4419 28.6875 21.8355 28.395 21.2579C28.1709 20.8152 28.1725 20.4528 28.4531 20.0459C28.9157 19.3754 29.347 18.6827 29.784 18.0112C29.48 17.6936 29.2048 17.4061 28.9127 17.1013Z" fill="black"/>
<path d="M22.0248 19.6102C24.9737 19.6293 27.3342 22.0337 27.3142 24.9982C27.2941 27.9782 24.9149 30.3622 21.9807 30.3424C19.0317 30.3225 16.6709 27.9175 16.6906 24.9537C16.7105 21.9736 19.0886 19.5912 22.0248 19.6102ZM22.0262 21.2399C19.9602 21.2344 18.3102 22.8802 18.3043 24.9519C18.2984 27.0382 19.9289 28.7069 21.9787 28.7127C24.0444 28.7185 25.695 27.0719 25.7009 24.9997C25.707 22.9125 24.0774 21.2454 22.0262 21.2399Z" fill="black"/>
</g>
<defs>
<clipPath id="clip0_416_724">
<rect width="44" height="50" fill="white"/>
</clipPath>
</defs>
</svg>
