<svg width="44" height="44" viewBox="0 0 44 44" fill="none" xmlns="http://www.w3.org/2000/svg">
<g clip-path="url(#clip0_416_785)">
<path d="M25.3638 32.7316C27.852 33.8376 29.5398 35.6268 30.4848 38.1978C31.3148 37.0041 32.3293 36.0649 33.6932 35.4507C32.2674 34.3877 31.5323 33.0151 31.5413 31.3083C31.5491 29.8267 32.0858 28.5278 33.1623 27.4869C35.1521 25.563 38.4619 25.6518 40.3507 27.6763C42.1693 29.6255 42.5727 33.1897 39.6812 35.4385C39.8926 35.5528 40.0929 35.6569 40.2892 35.7679C42.9592 37.2792 44.2482 40.244 43.9606 43.3016C43.9201 43.7317 43.5839 44.0048 43.155 43.9902C42.7076 43.975 42.4384 43.6686 42.3966 43.1976C42.3149 42.2759 42.339 41.3184 42.0869 40.4427C41.3153 37.7633 39.0043 36.2653 36.0971 36.4308C33.7188 36.5661 31.5076 38.5764 31.0352 41.0535C30.9536 41.4814 30.9444 41.9231 30.895 42.429C31.1294 42.429 31.3029 42.429 31.4765 42.429C33.9615 42.429 36.4464 42.4288 38.9315 42.4293C39.0786 42.4293 39.2274 42.4193 39.3725 42.4373C39.7726 42.4868 40.0399 42.807 40.0361 43.2158C40.0324 43.6241 39.762 43.9403 39.3631 43.989C39.2341 44.0048 39.1019 43.996 38.9711 43.996C27.6577 43.9962 16.3444 43.9962 5.031 43.9959C4.8839 43.9959 4.73351 44.0106 4.59048 43.9854C4.17985 43.9132 3.96844 43.6489 3.94747 43.2401C3.9265 42.8316 4.19597 42.4954 4.58594 42.4393C4.73038 42.4185 4.87967 42.4295 5.02678 42.4295C7.51183 42.429 9.99673 42.4292 12.4818 42.4292C12.6577 42.4292 12.8334 42.4292 13.057 42.4292C13.0785 40.7175 12.5574 39.2632 11.3665 38.1009C9.58923 36.3665 7.47693 35.9176 5.18593 36.8364C2.90869 37.7497 1.75458 39.5536 1.58839 41.991C1.56178 42.3819 1.5898 42.7761 1.57978 43.1685C1.56679 43.6777 1.26837 43.9882 0.805627 43.9913C0.342418 43.9946 0.0419583 43.6976 0.0158246 43.1817C-0.156783 39.772 1.0726 37.1264 4.19879 35.5175C4.22492 35.5041 4.23932 35.4681 4.28189 35.4134C2.91025 34.3127 2.12264 32.8985 2.19322 31.1097C2.2494 29.6883 2.75674 28.4345 3.82979 27.4512C5.88449 25.5685 9.30504 25.7236 11.1607 27.8132C12.8292 29.6918 13.2126 33.1271 10.3258 35.4453C11.6263 36.0762 12.6763 36.9796 13.4817 38.1926C14.4485 35.6777 16.0214 33.9219 18.6448 32.709C16.584 31.2967 15.6086 29.3584 15.8255 26.887C15.9679 25.2635 16.6516 23.8701 17.8691 22.7729C20.3383 20.5478 24.2238 20.7332 26.4982 23.1415C28.6392 25.4078 29.2047 30.1078 25.3638 32.7316ZM14.6596 42.3942C19.5693 42.3942 24.4476 42.3942 29.3218 42.3942C29.8728 37.3866 26.2899 33.7327 22.0898 33.6682C18.4406 33.6123 14.096 36.5725 14.6596 42.3942ZM17.365 27.4369C17.3622 29.9902 19.4133 32.0717 21.9474 32.0872C24.5711 32.1034 26.6131 30.0594 26.6036 27.4266C26.5942 24.8136 24.5892 22.814 21.9602 22.7953C19.4557 22.7775 17.368 24.8864 17.365 27.4369ZM7.30213 34.7743C9.3196 34.7785 10.8516 33.2736 10.8718 31.2676C10.8918 29.287 9.34776 27.7388 7.33468 27.7211C5.34132 27.7036 3.783 29.2366 3.76328 31.2345C3.74356 33.2152 5.29797 34.77 7.30213 34.7743ZM40.1682 31.2514C40.1688 29.2188 38.6695 27.6984 36.664 27.6979C34.6565 27.6975 33.1575 29.2141 33.1566 31.2469C33.1555 33.2894 34.639 34.7898 36.66 34.7904C38.6825 34.7909 40.1676 33.2927 40.1682 31.2514Z" fill="black"/>
<path d="M17.9217 9.44139C16.6678 9.44139 15.4916 9.43435 14.3156 9.4453C13.9247 9.44891 13.5978 9.36623 13.428 8.97996C13.2505 8.57599 13.4097 8.26315 13.7007 7.97254C16.2359 5.44273 18.7654 2.90728 21.2994 0.376368C21.8027 -0.126244 22.1806 -0.126087 22.6871 0.379656C25.2212 2.91057 27.7505 5.44617 30.2855 7.9763C30.5629 8.25313 30.721 8.55751 30.5717 8.94191C30.4121 9.35246 30.0735 9.45063 29.6592 9.44609C28.4834 9.43278 27.3073 9.44139 26.0601 9.44139C26.0601 9.66013 26.0601 9.8499 26.0601 10.0397C26.0601 12.7552 26.0606 15.4707 26.0592 18.1862C26.059 18.3821 26.0582 18.5795 26.0348 18.7735C25.9844 19.1891 25.7345 19.4191 25.3231 19.4476C24.8886 19.4778 24.6019 19.2658 24.4944 18.8446C24.4548 18.6894 24.4608 18.5205 24.4608 18.3578C24.4591 15.2333 24.4589 12.1088 24.4599 8.9845C24.4602 8.12223 24.7071 7.87515 25.5606 7.87453C26.308 7.8739 27.0552 7.87437 27.746 7.87437C25.8129 5.94002 23.8707 3.99658 21.9582 2.08274C20.0833 3.95948 18.1455 5.89915 16.172 7.87437C16.8657 7.87437 17.5724 7.87437 18.279 7.87437C19.3329 7.87453 19.5225 8.06665 19.5225 9.13748C19.5226 12.1965 19.5242 15.2556 19.5189 18.3146C19.5184 18.5396 19.5034 18.7771 19.4311 18.9869C19.3093 19.34 19.014 19.4764 18.6528 19.4484C18.289 19.4202 18.0364 19.2298 17.9652 18.8631C17.9252 18.6566 17.9236 18.4405 17.9233 18.2288C17.9208 15.5133 17.9216 12.7978 17.9216 10.0823C17.9217 9.88842 17.9217 9.69489 17.9217 9.44139Z" fill="black"/>
<path d="M11.6093 18.088C10.1371 16.6117 8.7296 15.2003 7.35938 13.8262C5.95629 15.225 4.53959 16.6377 3.08596 18.0871C3.57515 18.0871 4.05667 18.083 4.53803 18.088C5.197 18.0951 5.49496 18.388 5.49778 19.0496C5.50357 20.4401 5.50279 21.8307 5.49793 23.2211C5.49574 23.8518 5.21657 24.17 4.69264 24.1657C4.1853 24.1615 3.9224 23.8643 3.91692 23.2507C3.90816 22.2528 3.9141 21.255 3.91395 20.2569C3.91395 20.0808 3.91395 19.9048 3.91395 19.6623C2.93777 19.6623 2.01197 19.6596 1.08618 19.6635C0.720309 19.6651 0.388239 19.5237 0.335189 19.1719C0.292937 18.8914 0.450835 18.5795 0.527671 18.2838C0.538312 18.2427 0.59324 18.213 0.627824 18.1782C2.62807 16.1772 4.62691 14.1746 6.62967 12.1762C7.14013 11.6668 7.50225 11.6651 8.01209 12.1738C10.0266 14.1838 12.0337 16.201 14.0502 18.2089C14.3319 18.4895 14.4781 18.7895 14.3222 19.1737C14.166 19.5588 13.8559 19.6745 13.4545 19.6676C12.5603 19.6522 11.6657 19.6627 10.7172 19.6627C10.7172 20.7286 10.7175 21.7382 10.7169 22.7478C10.7167 22.9768 10.7252 23.2065 10.709 23.4345C10.6777 23.8803 10.3793 24.1651 9.95429 24.1736C9.52801 24.182 9.16214 23.9061 9.15635 23.4777C9.13538 21.924 9.136 20.3695 9.15509 18.8158C9.16057 18.3765 9.5061 18.1021 9.98637 18.0905C10.5137 18.0782 11.0413 18.088 11.6093 18.088Z" fill="black"/>
<path d="M40.0688 19.6632C40.0688 20.721 40.0691 21.715 40.0684 22.7089C40.0683 22.9378 40.0756 23.1675 40.0606 23.3957C40.0282 23.8886 39.7498 24.1615 39.2921 24.1657C38.8173 24.1701 38.5046 23.8786 38.4888 23.3711C38.4705 22.7827 38.4835 22.1935 38.4834 21.6044C38.4832 20.7538 38.4788 19.9031 38.4849 19.0526C38.4896 18.3877 38.7822 18.0954 39.4411 18.088C39.9234 18.0827 40.4058 18.0869 40.8758 18.0869C39.4361 16.6494 38.0205 15.2358 36.6169 13.8343C35.2606 15.1964 33.8541 16.6089 32.3823 18.0868C32.8784 18.0868 33.3374 18.0852 33.7965 18.0871C34.5661 18.0902 34.8376 18.3536 34.8389 19.1074C34.8412 20.4815 34.8422 21.8556 34.8382 23.2297C34.8365 23.8643 34.5627 24.1748 34.0312 24.1656C33.5284 24.157 33.2704 23.8532 33.2672 23.2418C33.2619 22.2276 33.2666 21.2133 33.2646 20.199C33.2643 20.0395 33.251 19.8801 33.2411 19.6629C32.3524 19.6629 31.4908 19.6522 30.6296 19.6674C30.2083 19.6749 29.8395 19.6187 29.66 19.1788C29.4821 18.7427 29.699 18.4406 29.9979 18.1433C31.969 16.1827 33.9312 14.2131 35.8975 12.2476C36.5005 11.6449 36.8227 11.6407 37.4211 12.2386C39.3879 14.2037 41.3493 16.174 43.3184 18.1366C43.6131 18.4303 43.8442 18.7261 43.665 19.169C43.4865 19.6103 43.1253 19.6751 42.7022 19.6674C41.8532 19.6524 41.0038 19.6632 40.0688 19.6632Z" fill="black"/>
</g>
<defs>
<clipPath id="clip0_416_785">
<rect width="44" height="44" fill="white"/>
</clipPath>
</defs>
</svg>
