<svg width="48" height="48" viewBox="0 0 48 48" fill="none" xmlns="http://www.w3.org/2000/svg">
  <path d="M4 24C4 12.954 12.954 4 24 4C35.046 4 44 12.954 44 24C44 35.046 35.046 44 24 44C12.954 44 4 35.046 4 24Z" fill="#512BD4"/>
  <path d="M24 12L36 24L24 36L12 24L24 12Z" fill="#512BD4"/>
  <path d="M24 16L32 24L24 32L16 24L24 16Z" fill="white"/>
  <path d="M30 22H32V26H30V22Z" fill="#512BD4"/>
  <path d="M26 22H28V26H26V22Z" fill="#512BD4"/>
  <path d="M22 22H24V26H22V22Z" fill="#512BD4"/>
  <path d="M18 22H20V26H18V22Z" fill="#512BD4"/>
</svg>