
<svg width="48" height="48" viewBox="0 0 48 48" fill="none" xmlns="http://www.w3.org/2000/svg">
  <path d="M24 4C12.954 4 4 12.954 4 24C4 35.046 12.954 44 24 44C35.046 44 44 35.046 44 24C44 12.954 35.046 4 24 4ZM28.954 36H19.046C18.523 36 18 35.477 18 34.954V33.046C18 32.523 18.523 32 19.046 32H28.954C29.477 32 30 32.523 30 33.046V34.954C30 35.477 29.477 36 28.954 36ZM32 28H16C15.477 28 15 27.523 15 27V21C15 20.477 15.477 20 16 20H32C32.523 20 33 20.477 33 21V27C33 27.523 32.523 28 32 28ZM32 16H16C15.477 16 15 15.523 15 15V13C15 12.477 15.477 12 16 12H32C32.523 12 33 12.477 33 13V15C33 15.523 32.523 16 32 16Z" fill="#000000"/>
</svg>
