<svg width="48" height="48" viewBox="0 0 48 48" fill="none" xmlns="http://www.w3.org/2000/svg">
  <rect width="48" height="48" fill="#F7DF1E"/>
  <path d="M32.4 36.3C31.2 38.4 29.4 39.9 26.7 39.9C24 39.9 22.2 38.7 21 36.6L24 34.8C24.6 36 25.5 36.9 26.7 36.9C27.9 36.9 28.8 36.3 29.4 35.1C30 33.9 30.3 32.1 30.3 29.7C30.3 27.3 30 25.5 29.4 24.3C28.8 23.1 27.9 22.5 26.7 22.5C25.5 22.5 24.6 23.4 24 24.6L21 22.8C22.2 20.7 24 19.5 26.7 19.5C29.4 19.5 31.2 21 32.4 24C33.6 27 34.2 30.6 34.2 34.8C34.2 39 33.6 42.6 32.4 45.6" fill="#000000"/>
  <path d="M13.8 39.9C11.1 39.9 9.3 38.7 8.1 36.6L11.1 34.8C11.7 36 12.6 36.9 13.8 36.9C15 36.9 15.9 36.3 16.5 35.1C17.1 33.9 17.4 32.1 17.4 29.7C17.4 27.3 17.1 25.5 16.5 24.3C15.9 23.1 15 22.5 13.8 22.5C12.6 22.5 11.7 23.4 11.1 24.6L8.1 22.8C9.3 20.7 11.1 19.5 13.8 19.5C16.5 19.5 18.3 21 19.5 24C20.7 27 21.3 30.6 21.3 34.8C21.3 39 20.7 42.6 19.5 45.6C18.3 48.6 16.5 50.1 13.8 50.1" fill="#000000"/>
</svg>
