<svg width="48" height="48" viewBox="0 0 48 48" fill="none" xmlns="http://www.w3.org/2000/svg">
  <path d="M24 4C12.954 4 12 8.954 12 12V20H24V22H8C4.954 22 4 26.954 4 30C4 33.046 4.954 38 8 38H16V30H28V38H36C39.046 38 44 33.046 44 30V12C44 8.954 39.046 4 36 4H24Z" fill="#366A96"/>
  <path d="M20 8C20 9.105 19.105 10 18 10C16.895 10 16 9.105 16 8C16 6.895 16.895 6 18 6C19.105 6 20 6.895 20 8Z" fill="white"/>
  <path d="M32 40C32 41.105 31.105 42 30 42C28.895 42 28 41.105 28 40C28 38.895 28.895 38 30 38C31.105 38 32 38.895 32 40Z" fill="white"/>
</svg>
