<svg width="48" height="48" viewBox="0 0 48 48" fill="none" xmlns="http://www.w3.org/2000/svg">
  <path d="M24 27.6C25.9882 27.6 27.6 25.9882 27.6 24C27.6 22.0118 25.9882 20.4 24 20.4C22.0118 20.4 20.4 22.0118 20.4 24C20.4 25.9882 22.0118 27.6 24 27.6Z" fill="#00D8FF"/>
  <path d="M24 31.2C36.4264 31.2 46.4 27.9765 46.4 24C46.4 20.0235 36.4264 16.8 24 16.8C11.5736 16.8 1.6 20.0235 1.6 24C1.6 27.9765 11.5736 31.2 24 31.2Z" stroke="#00D8FF" stroke-width="2"/>
  <path d="M16.8 27.6C22.9647 38.4 30.7765 45.6 34.4 43.6C38.0235 41.6 36.4264 31.2 30.2618 20.4C24.0971 9.6 16.2853 2.4 12.6618 4.4C9.03824 6.4 10.6353 16.8 16.8 27.6Z" stroke="#00D8FF" stroke-width="2"/>
  <path d="M16.8 20.4C10.6353 31.2 9.03824 41.6 12.6618 43.6C16.2853 45.6 24.0971 38.4 30.2618 27.6C36.4264 16.8 38.0235 6.4 34.4 4.4C30.7765 2.4 22.9647 9.6 16.8 20.4Z" stroke="#00D8FF" stroke-width="2"/>
</svg>
