<svg width="48" height="48" viewBox="0 0 48 48" fill="none" xmlns="http://www.w3.org/2000/svg">
  <path d="M44 24C44 35.046 35.046 44 24 44C12.954 44 4 35.046 4 24C4 12.954 12.954 4 24 4C35.046 4 44 12.954 44 24Z" fill="#F05138"/>
  <path d="M12 32C16 36 20 36 24 36C28 36 32 32 36 28C32 32 28 36 24 36C20 36 16 32 12 32Z" fill="white"/>
  <path d="M12 24C16 20 20 16 24 16C28 16 32 20 36 24C32 20 28 16 24 16C20 16 16 20 12 24Z" fill="white"/>
  <path d="M12 28C16 24 20 20 24 20C28 20 32 24 36 28C32 24 28 20 24 20C20 20 16 24 12 28Z" fill="white"/>
</svg>
