<svg width="56" height="51" viewBox="0 0 56 51" fill="none" xmlns="http://www.w3.org/2000/svg">
<path d="M21.368 16.6813C22.1585 8.39361 26.2482 2.73595 34.3572 0.565517C41.0983 -1.23941 48.1501 1.37988 52.0624 6.99467C56.7604 13.7369 56.3902 20.5709 51.9469 27.3929C52.9791 29.0264 54.0483 30.7218 55.1246 32.4136C55.3603 32.7839 55.4877 33.1613 55.227 33.5566C54.9567 33.9662 54.5638 34.0304 54.0971 33.9257C51.579 33.3602 49.0586 32.8018 46.5345 32.2624C46.2833 32.2089 45.9678 32.2208 45.7392 32.3255C42.0579 34.0162 38.254 34.3995 34.3156 33.4578C34.2084 33.4328 34.0965 33.4292 34.0465 33.4221C33.8215 34.7519 33.6798 36.0842 33.3619 37.3736C31.701 44.1171 25.6505 49.2985 18.7665 49.9628C15.6008 50.2688 12.5874 49.7616 9.70499 48.4234C9.45973 48.3103 9.12637 48.2805 8.85968 48.3377C6.3535 48.8711 3.85089 49.4259 1.35185 49.989C0.874428 50.0962 0.460105 50.0783 0.157696 49.6497C-0.13995 49.2283 0.0303039 48.8485 0.275564 48.4651C1.27446 46.8983 2.25431 45.3196 3.26274 43.7587C3.44609 43.4754 3.42347 43.2991 3.23417 43.0325C-3.92482 32.9982 1.40543 19.1124 13.4268 16.4884C15.9722 15.9324 18.5213 15.9824 21.0524 16.6205C21.1584 16.6479 21.2679 16.6622 21.368 16.6813ZM2.80913 47.7876C3.09963 47.7341 3.27703 47.7079 3.45323 47.6686C5.24863 47.2721 7.04761 46.8911 8.83586 46.4661C9.32638 46.3494 9.73475 46.4232 10.1693 46.6399C12.7946 47.9531 15.5662 48.4698 18.4939 48.1793C27.003 47.334 33.1797 39.4988 32.0058 31.0266C30.8331 22.5639 22.9669 16.7646 14.4935 18.1147C3.26869 19.9066 -2.03417 33.247 4.89265 42.2681C5.66534 43.2753 5.66534 43.2753 4.97599 44.3635C4.27355 45.4732 3.5711 46.584 2.80913 47.7876ZM52.5232 31.735C52.385 31.4933 52.3029 31.3362 52.2076 31.185C51.5731 30.1789 50.9349 29.1741 50.2991 28.1692C49.7122 27.2417 49.7289 27.1774 50.3861 26.3036C53.1315 22.6604 54.1638 18.5779 53.272 14.1025C51.6326 5.88028 43.9581 0.669098 35.6728 2.06565C28.6198 3.25505 23.1288 9.79731 23.2026 16.9087C23.2062 17.2123 23.2931 17.3539 23.5777 17.4837C29.3865 20.1387 32.7988 24.6225 33.7715 30.9385C33.8357 31.3588 33.9822 31.5314 34.3775 31.6314C37.8671 32.522 41.2864 32.3303 44.5641 30.8278C45.513 30.3932 46.3512 30.323 47.3298 30.573C49.0157 31.0064 50.7254 31.3397 52.5232 31.735Z" fill="#1BA1E3"/>
<path d="M17.8521 33.0292C17.8521 34.2389 17.8521 35.408 17.8521 36.6177C17.2663 36.6177 16.702 36.6177 16.0686 36.6177C16.0686 35.5854 16.0686 34.5508 16.0686 33.5162C16.0686 33.2745 16.0686 33.0328 16.0686 32.7911C16.0686 31.5362 16.1091 31.4886 17.3664 31.2719C18.7212 31.0386 19.6844 29.8682 19.6368 28.5145C19.5904 27.1966 18.526 26.0738 17.2104 25.9524C15.8626 25.8286 14.6542 26.7239 14.3447 28.0776C14.3077 28.2395 14.2863 28.405 14.2518 28.5943C13.6863 28.5943 13.1172 28.5943 12.5504 28.5943C12.3528 26.6144 14.0363 24.6285 16.2329 24.2249C18.4546 23.8177 20.6667 25.25 21.2739 27.4692C21.8275 29.4825 20.8798 32.2137 17.8521 33.0292Z" fill="#1BA1E3"/>
<path d="M16.9744 41.1191C16.2434 41.1274 15.6255 40.5143 15.6255 39.7821C15.6255 39.0713 16.2089 38.4701 16.9208 38.4486C17.6531 38.426 18.2817 39.0237 18.296 39.7571C18.3126 40.4881 17.7078 41.112 16.9744 41.1191Z" fill="#1BA1E3"/>
<path d="M45.5244 10.7961C45.5244 11.3902 45.5244 11.9272 45.5244 12.507C40.7847 12.507 36.0569 12.507 31.2886 12.507C31.2886 11.957 31.2886 11.3926 31.2886 10.7961C36.02 10.7961 40.749 10.7961 45.5244 10.7961Z" fill="#1BA1E3"/>
<path d="M45.5107 16.1504C45.5107 16.7278 45.5107 17.2779 45.5107 17.8672C40.7782 17.8672 36.0504 17.8672 31.2856 17.8672C31.2856 17.3064 31.2856 16.7433 31.2856 16.1504C36.0146 16.1504 40.7294 16.1504 45.5107 16.1504Z" fill="#1BA1E3"/>
<path d="M45.4905 23.2449C41.9414 23.2449 38.4173 23.2449 34.8574 23.2449C34.8574 22.6639 34.8574 22.1007 34.8574 21.5078C38.3958 21.5078 41.9212 21.5078 45.4905 21.5078C45.4905 22.0579 45.4905 22.621 45.4905 23.2449Z" fill="#1BA1E3"/>
</svg>
