<svg width="50" height="50" viewBox="0 0 50 50" fill="none" xmlns="http://www.w3.org/2000/svg">
<g clip-path="url(#clip0_337_2375)">
<path d="M0 31.6353C0.0208339 31.6117 0.0541682 31.5909 0.0611128 31.5645C0.676408 29.3596 1.83755 28.362 4.13206 28.0925C4.33484 26.2321 5.37932 25.179 7.3002 24.9553C7.3002 24.7608 7.3002 24.5691 7.3002 24.3773C7.30437 21.9682 7.27659 19.5591 7.31826 17.1499C7.4516 9.64465 12.6906 2.82987 19.9006 0.741678C28.3161 -1.69525 36.9024 2.0171 40.8553 9.81832C42.1345 12.3442 42.7192 15.0395 42.704 17.871C42.6915 20.0523 42.7012 22.2336 42.7012 24.4148C42.7012 24.5913 42.7012 24.7677 42.7012 24.9331C44.8276 25.393 45.5374 26.1029 45.8624 28.08C46.1707 28.13 46.4916 28.1633 46.8041 28.2342C48.7583 28.6802 50.1236 30.5433 49.9931 32.5745C49.8639 34.5891 48.2486 36.2466 46.2332 36.4244C46.0152 36.4439 45.8471 36.4314 45.8027 36.7426C45.5679 38.3973 44.5748 39.3559 42.9317 39.563C42.8706 39.5713 42.8109 39.5935 42.7012 39.6227C42.7012 40.6494 42.7192 41.6706 42.697 42.6918C42.6498 44.8814 41.6387 46.5069 39.658 47.4114C38.9302 47.7448 38.0608 47.8768 37.2496 47.9005C35.0218 47.9644 32.7912 47.9282 30.562 47.9171C30.2092 47.9157 29.9842 47.9671 29.8119 48.3423C29.3897 49.262 28.5577 49.7024 27.6383 49.9984C25.8799 49.9984 24.1229 49.9984 22.3645 49.9984C22.2006 49.9359 22.0367 49.8706 21.8714 49.8122C20.4478 49.3037 19.6103 47.8907 19.8325 46.368C20.0422 44.9314 21.327 43.781 22.809 43.756C24.2729 43.7296 25.7396 43.7171 27.2021 43.7602C28.4022 43.7963 29.3036 44.3979 29.8522 45.4691C29.9939 45.747 30.1467 45.8303 30.4425 45.8289C32.7537 45.8178 35.0649 45.8317 37.3746 45.8192C39.3094 45.8095 40.615 44.491 40.6233 42.5598C40.6275 41.5858 40.6247 40.6105 40.6247 39.5671C40.2553 39.5671 39.9178 39.5755 39.583 39.5657C38.3636 39.5296 37.5066 38.6682 37.5038 37.4428C37.4955 34.0083 37.4955 30.5725 37.5038 27.138C37.5066 25.8723 38.3927 25.0039 39.6636 24.99C39.9692 24.9859 40.2733 24.99 40.5775 24.99C40.6122 21.3402 40.9289 17.7251 40.2122 14.1489C39.9553 12.8721 39.4844 11.662 38.8705 10.5547C38.2177 10.6519 37.6149 10.7923 37.0052 10.8242C35.401 10.9117 33.9968 10.381 32.8065 9.30842C30.6134 7.33276 28.048 6.27408 25.0951 6.25185C22.2367 6.22962 19.6797 7.13687 17.5352 9.03889C16.1254 10.2907 14.5615 11.0034 12.6559 10.8228C12.1601 10.7756 11.6725 10.6422 11.1434 10.5422C10.4295 11.8509 9.88083 13.2431 9.68777 14.7338C9.50304 16.1663 9.40721 17.6154 9.36832 19.0589C9.31554 21.0095 9.35582 22.9644 9.35582 24.9928C9.72666 24.9928 10.0614 24.9873 10.3947 24.9942C11.6017 25.0164 12.4934 25.8917 12.4976 27.1005C12.5087 30.5516 12.5073 34.0028 12.4976 37.4539C12.4948 38.6738 11.6295 39.5463 10.41 39.5671C9.33637 39.5852 8.26134 39.5907 7.1877 39.5616C5.61405 39.5185 4.38901 38.3792 4.19734 36.8134C4.17234 36.605 4.16956 36.4369 3.88483 36.43C2.19589 36.3897 0.412511 35.0267 0.0722242 33.0288C0.0638907 32.9844 0.0250007 32.9455 0 32.9052C0 32.4814 0 32.0577 0 31.6353ZM37.7497 8.6457C34.1454 4.02472 29.5355 1.75868 23.777 2.17271C18.9964 2.51588 15.1963 4.76663 12.3559 8.65543C12.8281 8.7249 13.2837 8.7638 13.7295 8.71656C14.6004 8.62486 15.3129 8.19277 15.9685 7.62175C19.2478 4.76663 23.0465 3.67877 27.3355 4.37067C29.9231 4.78886 32.1703 5.93924 34.119 7.68705C35.1274 8.59291 36.2941 8.94024 37.7497 8.6457ZM10.4003 27.0741C9.31831 27.0741 8.29329 27.0504 7.27242 27.0824C6.64185 27.1019 6.25712 27.5312 6.25573 28.1675C6.2474 30.9184 6.24601 33.6693 6.25573 36.4202C6.25851 37.0677 6.68491 37.4762 7.33909 37.4914C7.92522 37.5053 8.50996 37.4956 9.09609 37.4956C9.52804 37.4956 9.96 37.4956 10.4003 37.4956C10.4003 33.9944 10.4003 30.5669 10.4003 27.0741ZM39.5983 37.4914C40.6886 37.4914 41.7289 37.5109 42.7679 37.4845C43.3484 37.4692 43.7443 37.0232 43.7457 36.4119C43.754 33.661 43.7554 30.9101 43.7457 28.1605C43.7429 27.4742 43.3095 27.0824 42.5748 27.0713C41.697 27.0588 40.8178 27.0671 39.9386 27.0699C39.8303 27.0699 39.7233 27.0991 39.5983 27.1185C39.5983 30.5738 39.5983 34.0014 39.5983 37.4914ZM24.9826 47.9241C25.616 47.9241 26.2493 47.9296 26.8813 47.9227C27.6549 47.9143 28.1341 47.4962 28.1216 46.8543C28.1091 46.2304 27.6424 45.8303 26.8924 45.8262C25.6257 45.8192 24.3604 45.8178 23.0937 45.8262C22.3478 45.8317 21.8826 46.2416 21.8784 46.8682C21.8742 47.4948 22.3409 47.9102 23.0826 47.9213C23.7159 47.9324 24.3493 47.9241 24.9826 47.9241ZM4.14039 30.2473C2.96258 30.2293 2.01117 31.2324 2.08339 32.38C2.15423 33.5207 3.12648 34.4335 4.14039 34.3098C4.14039 32.9552 4.14039 31.6006 4.14039 30.2473ZM45.854 34.3307C46.9944 34.3654 47.9472 33.3956 47.9222 32.2536C47.8972 31.1074 46.918 30.1557 45.854 30.2682C45.854 31.6214 45.854 32.9774 45.854 34.3307Z" fill="#1BA1E3"/>
<path d="M28.6024 30.5504C28.4968 30.9561 28.4093 31.2979 28.3204 31.6411C28.0426 32.7039 27.2982 33.3027 26.212 33.318C25.3981 33.3291 24.5842 33.3291 23.7717 33.318C22.7161 33.3013 21.9605 32.6956 21.6897 31.6688C21.5994 31.3243 21.5147 30.9797 21.4091 30.5643C21.0563 30.763 20.741 30.9422 20.4244 31.1201C19.441 31.6716 18.5104 31.5507 17.7104 30.7602C17.1659 30.2225 16.6243 29.6821 16.0881 29.1374C15.2895 28.3275 15.1798 27.366 15.7659 26.381C15.9381 26.092 16.1131 25.8058 16.3173 25.4682C15.9229 25.3654 15.5812 25.2737 15.2395 25.1875C14.1811 24.9194 13.5714 24.1663 13.5575 23.084C13.5464 22.2546 13.545 21.4238 13.5589 20.5943C13.5756 19.562 14.1825 18.8076 15.1826 18.5464C15.5548 18.4492 15.927 18.3519 16.3381 18.2435C16.1173 17.8767 15.9187 17.5614 15.734 17.239C15.2187 16.3401 15.3312 15.3801 16.052 14.6409C16.6312 14.0463 17.2173 13.4586 17.8132 12.8806C18.5326 12.1818 19.498 12.0651 20.3716 12.5597C20.6966 12.7431 21.0133 12.9418 21.3966 13.1724C21.4966 12.8098 21.5938 12.4791 21.68 12.1443C21.9758 10.9981 22.705 10.4243 23.8925 10.4173C24.6578 10.4131 25.4217 10.4104 26.187 10.4173C27.3315 10.427 28.0482 10.9856 28.344 12.0859C28.4413 12.4444 28.5357 12.8042 28.6426 13.2002C29.0093 12.9793 29.3371 12.7709 29.6746 12.5791C30.533 12.0929 31.4844 12.1915 32.1955 12.8695C32.8205 13.4642 33.4289 14.0755 34.0261 14.6979C34.6984 15.3995 34.8095 16.3721 34.3345 17.2196C34.1456 17.5572 33.9386 17.8837 33.7081 18.2699C34.1136 18.3741 34.472 18.4603 34.8262 18.5575C35.8595 18.8437 36.4401 19.5843 36.4554 20.6555C36.4665 21.4696 36.4665 22.2838 36.4554 23.0965C36.4415 24.1705 35.8665 24.9027 34.8275 25.1917C34.4692 25.2917 34.1067 25.3779 33.6789 25.489C33.8345 25.753 33.9678 25.9836 34.1053 26.2101C34.865 27.4591 34.7609 28.3011 33.7192 29.3445C33.2358 29.828 32.7567 30.3156 32.2691 30.7936C31.4705 31.5758 30.5094 31.6925 29.5538 31.1284C29.2524 30.9533 28.9635 30.7727 28.6024 30.5504ZM19.3091 29.3736C19.5952 29.1944 19.8938 29.0027 20.198 28.8193C21.5605 27.9926 23.0369 28.5859 23.4467 30.1211C23.5453 30.4921 23.6439 30.8644 23.737 31.2159C24.6134 31.2159 25.4356 31.2159 26.2759 31.2159C26.5384 30.1822 26.6287 29.0749 27.8079 28.5928C28.9843 28.1121 29.8205 28.854 30.6719 29.357C31.2844 28.729 31.8705 28.1288 32.4594 27.5244C32.2678 27.191 32.0205 26.8242 31.8344 26.4296C31.2163 25.1222 31.8608 23.7884 33.265 23.4286C33.6358 23.3341 34.0053 23.2327 34.365 23.1368C34.365 22.2671 34.365 21.4543 34.365 20.6096C33.3678 20.3262 32.2427 20.2609 31.7441 19.1022C31.2316 17.9115 31.9775 17.057 32.4775 16.222C31.8483 15.5927 31.2538 14.9994 30.658 14.4034C30.3191 14.5979 29.9524 14.8438 29.5566 15.03C28.2649 15.6385 26.9398 15.0189 26.5648 13.6476C26.4593 13.2627 26.3606 12.8751 26.262 12.5013C25.3926 12.5013 24.5814 12.5013 23.7383 12.5013C23.4592 13.5031 23.3953 14.6284 22.2314 15.1231C21.0438 15.6288 20.1882 14.8841 19.3729 14.3964C18.734 15.0314 18.141 15.6218 17.5312 16.2276C18.0799 17.0598 18.7063 17.924 18.2507 19.0646C17.7812 20.24 16.6548 20.3248 15.6409 20.5971C15.6409 21.4529 15.6409 22.2796 15.6409 23.1327C16.6534 23.3994 17.7687 23.48 18.2632 24.6443C18.7674 25.8308 18.0132 26.6852 17.5035 27.5508C18.1229 28.1774 18.7049 28.7651 19.3091 29.3736Z" fill="#1BA1E3"/>
<path d="M24.9715 27.0644C22.1089 27.0589 19.8075 24.7456 19.8047 21.8724C19.8019 18.9562 22.1298 16.6471 25.0548 16.6651C27.8952 16.6818 30.1939 18.9909 30.198 21.8321C30.2022 24.7595 27.8938 27.07 24.9715 27.0644ZM25.0243 24.9915C26.7438 24.9832 28.1396 23.5591 28.1244 21.8294C28.1091 20.126 26.7063 18.7394 25.0007 18.7408C23.2728 18.7422 21.8686 20.151 21.877 21.8766C21.8853 23.6036 23.2951 24.9999 25.0243 24.9915Z" fill="#1BA1E3"/>
</g>
<defs>
<clipPath id="clip0_337_2375">
<rect width="50" height="50" fill="white"/>
</clipPath>
</defs>
</svg>
