<svg width="52" height="50" viewBox="0 0 52 50" fill="none" xmlns="http://www.w3.org/2000/svg">
<g clip-path="url(#clip0_337_2333)">
<path d="M-8.20577e-05 4.83912C0.161866 4.28757 0.286576 3.72141 0.492667 3.1872C1.09659 1.62196 2.67097 0.00226166 5.18523 0.00963388C17.7947 0.046768 30.4044 0.0646524 43.0136 7.73019e-05C46.1636 -0.0160324 48.0048 2.48861 48.2388 4.8682C48.2805 5.29183 48.293 5.71996 48.2931 6.14591C48.2964 13.1255 48.292 20.1049 48.3079 27.0845C48.3086 27.3569 48.4132 27.717 48.6019 27.8867C49.815 28.9779 49.7244 30.6697 48.6616 31.5802C48.6251 31.6115 48.607 31.6643 48.5876 31.6954C48.8029 32.2259 48.9948 32.7537 49.2361 33.2575C49.3031 33.3974 49.5092 33.5415 49.6635 33.5561C51.1746 33.6997 51.9914 34.5756 51.996 36.0965C51.9976 36.6426 52.0047 37.1888 51.994 37.7346C51.9689 39.0219 51.0294 40.0114 49.7572 40.0446C49.406 40.0537 49.2226 40.1485 49.1607 40.4925C49.1398 40.6082 49.0981 40.7261 49.0398 40.8277C48.6686 41.4747 48.553 42.0061 49.1461 42.6945C49.7757 43.4254 49.5853 44.5957 48.9251 45.3352C48.4502 45.8671 47.9466 46.3772 47.421 46.8582C46.5231 47.6796 45.2206 47.6714 44.3389 46.8259C44.0672 46.5653 43.8535 46.5222 43.5627 46.7204C43.549 46.7297 43.5321 46.7351 43.5159 46.7401C42.6745 46.9922 42.0625 47.3296 41.9663 48.419C41.8844 49.3465 40.8679 49.9634 39.8997 49.9892C39.2739 50.0058 38.6472 50.0009 38.0211 49.9923C36.7485 49.9748 35.7935 49.103 35.7163 47.8144C35.6899 47.3743 35.5169 47.2337 35.1458 47.0777C34.3904 46.7599 33.775 46.4261 32.9658 47.1651C32.2958 47.7769 31.1474 47.5248 30.4424 46.8792C29.9169 46.3979 29.4077 45.8939 28.9329 45.3621C28.1147 44.4458 28.1259 43.1517 28.9698 42.2563C29.2297 41.9803 29.261 41.7764 29.0712 41.4706C28.9471 41.2708 28.8739 41.0378 28.7865 40.8163C28.4877 40.0592 28.4892 40.0586 27.6563 40.0586C25.1175 40.0586 22.5786 40.061 20.0399 40.0567C19.3936 40.0556 18.9707 39.7321 18.8882 39.2037C18.7814 38.5192 19.2389 38.0075 19.9875 38.0044C21.7307 37.997 23.4741 38.0018 25.2175 38.0017C25.3997 38.0017 25.5818 38.0017 25.825 38.0017C25.825 37.3427 25.8222 36.7341 25.8256 36.1256C25.8345 34.5669 26.6457 33.6985 28.1866 33.5557C28.3392 33.5415 28.5419 33.3898 28.6088 33.2481C28.8399 32.7578 29.0213 32.2436 29.2335 31.7085C29.1267 31.5902 28.999 31.4566 28.88 31.3153C28.11 30.4016 28.123 29.1166 28.931 28.2369C29.3677 27.7614 29.8281 27.3072 30.2917 26.858C31.2286 25.9508 32.5323 25.9208 33.4882 26.8116C33.7475 27.0532 33.9459 27.1102 34.228 26.9048C34.322 26.8364 34.4368 26.7848 34.5496 26.7568C35.2863 26.5743 35.7105 26.2357 35.7778 25.3475C35.8474 24.429 36.7163 23.748 37.6405 23.6682C38.3631 23.6056 39.0951 23.6052 39.8208 23.6344C41.1271 23.687 41.9923 24.5375 42.0835 25.8581C42.1072 26.202 42.2059 26.3643 42.5373 26.4643C42.9394 26.5855 43.3116 26.8048 43.7102 26.9413C43.849 26.9888 44.0886 26.9779 44.1793 26.888C44.7343 26.3383 45.3909 26.0987 46.1969 26.1437C46.1969 22.6911 46.1969 19.2541 46.1969 15.7773C31.497 15.7773 16.8004 15.7773 2.04106 15.7773C2.04106 15.9743 2.04106 16.1556 2.04106 16.3368C2.04106 22.2924 2.03022 28.2481 2.05676 34.2036C2.05961 34.8525 2.18012 35.5402 2.4183 36.1403C2.90767 37.373 3.82844 38.0372 5.21298 38.01C7.00646 37.9748 8.80102 37.9998 10.5952 38.0022C11.3727 38.0033 11.8366 38.3962 11.829 39.0362C11.8216 39.6728 11.3541 40.0566 10.5726 40.0577C8.82919 40.06 7.08297 39.9933 5.34325 40.0728C2.23306 40.2151 0.47696 37.8139 0.09687 35.5833C0.0775066 35.4699 0.0325512 35.3608 -0.000488281 35.2498C-8.20577e-05 25.1127 -8.20577e-05 14.9759 -8.20577e-05 4.83912ZM2.06787 13.6309C16.7943 13.6309 31.4914 13.6309 46.237 13.6309C46.237 13.1767 46.2376 12.7537 46.2368 12.3309C46.2325 9.99311 46.2691 7.65421 46.2107 5.31777C46.1599 3.2844 44.8678 2.08232 42.8767 2.08232C41.2179 2.08232 39.5592 2.08232 37.9006 2.08232C26.9834 2.08232 16.0665 2.08641 5.14934 2.07522C4.19512 2.07426 3.43427 2.40205 2.85553 3.15457C2.27247 3.91268 2.04173 4.78997 2.0416 5.73771C2.04119 8.21218 2.04092 10.6865 2.04241 13.161C2.04255 13.3102 2.05812 13.4593 2.06787 13.6309ZM47.4623 43.8047C47.3759 43.6931 47.3121 43.5949 47.2329 43.5113C47.0459 43.3142 46.8495 43.126 46.6606 42.9305C46.1649 42.4172 46.1526 42.0631 46.4653 41.4134C46.8248 40.6662 47.1676 39.9034 47.4298 39.1176C47.7409 38.1849 47.9201 38.0015 48.8993 38.0014C50.0782 38.0013 49.9527 38.0897 49.9547 36.9222C49.9569 35.6761 49.9553 35.6761 48.7107 35.6401C47.9956 35.6193 47.7325 35.3616 47.4877 34.6555C47.2104 33.8555 46.8986 33.0617 46.5261 32.3029C46.1346 31.5056 46.1347 31.2031 46.7464 30.5799C47.5408 29.7704 47.5408 29.7704 46.7489 28.9721C45.9013 28.1173 45.9013 28.1173 45.0463 28.9545C44.4893 29.5 44.1433 29.5101 43.4593 29.1796C42.6719 28.7991 41.86 28.4596 41.0347 28.1726C40.3012 27.9176 40.0544 27.652 40.0448 26.8441C40.0312 25.7014 40.0312 25.7014 38.9205 25.7014C37.7094 25.7014 37.7094 25.7014 37.6969 26.9048C37.6889 27.6829 37.4514 27.937 36.7275 28.1876C35.9489 28.4572 35.1768 28.7663 34.4417 29.1383C33.6312 29.5485 33.3349 29.5471 32.6928 28.9112C31.8014 28.0283 32.0266 28.0298 31.1265 28.9281C30.2709 29.7821 30.274 29.7852 31.1005 30.6424C31.6667 31.2296 31.6737 31.5413 31.3198 32.2845C30.9563 33.0478 30.6338 33.836 30.3617 34.6369C30.1114 35.3744 29.8384 35.6297 29.0449 35.6405C27.885 35.6562 27.8801 35.6562 27.8862 36.799C27.8935 38.1836 27.7323 37.9871 29.0672 38.0007C29.8699 38.0089 30.1152 38.2406 30.3691 39.0043C30.6254 39.775 30.9261 40.5378 31.287 41.2639C31.7063 42.1078 31.7023 42.4022 31.0462 43.0651C30.1654 43.9551 30.1978 43.7206 31.0546 44.5973C31.9227 45.4857 31.9279 45.4806 32.826 44.6083C33.3426 44.1065 33.6922 44.0896 34.3319 44.4021C35.0733 44.7643 35.8272 45.1167 36.6069 45.3785C37.5561 45.6973 37.7443 45.8852 37.7477 46.8977C37.7516 48.0604 37.6394 47.9346 38.7813 47.9376C40.0745 47.9409 40.0745 47.9385 40.095 46.6576C40.0958 46.6064 40.0961 46.5552 40.0973 46.5041C40.1088 45.9764 40.3875 45.6733 40.8664 45.4854C41.791 45.1228 42.7123 44.7487 43.617 44.3388C44.114 44.1135 44.5296 44.1528 44.9171 44.5254C45.1498 44.7489 45.3779 44.9776 45.6004 45.2113C45.7851 45.4053 45.9549 45.443 46.1579 45.2303C46.5215 44.8492 46.8995 44.4825 47.2647 44.1031C47.3424 44.0224 47.3914 43.9138 47.4623 43.8047Z" fill="#1BA1E3"/>
<path d="M22.9036 26.8641C22.1296 25.9852 21.38 25.1348 20.6315 24.2834C20.5307 24.1689 20.4231 24.058 20.3391 23.9316C20.049 23.4946 20.1211 22.9278 20.5008 22.5872C20.8805 22.2465 21.484 22.2042 21.8365 22.5878C22.8807 23.724 23.9081 24.8775 24.9012 26.0592C25.322 26.5601 25.28 27.2469 24.8442 27.7575C23.8967 28.8673 22.9284 29.9594 21.9501 31.0417C21.5403 31.495 20.9126 31.5148 20.4977 31.1399C20.0766 30.7594 20.033 30.1459 20.4341 29.6736C21.0491 28.9494 21.6893 28.2468 22.3181 27.5346C22.5065 27.3211 22.6928 27.1058 22.9036 26.8641Z" fill="#1BA1E3"/>
<path d="M8.0617 26.8683C8.85492 27.7665 9.61104 28.617 10.3592 29.4748C10.5027 29.6394 10.6492 29.8173 10.7332 30.0154C10.9127 30.4393 10.7531 30.9287 10.3872 31.2019C10.0167 31.4785 9.44936 31.4958 9.12668 31.1424C8.07294 29.9885 7.03098 28.8218 6.02991 27.6216C5.63316 27.146 5.701 26.4579 6.12442 25.9644C7.07634 24.855 8.04491 23.7597 9.02608 22.6765C9.43907 22.2205 10.0611 22.212 10.4778 22.6022C10.8883 22.9868 10.9202 23.6033 10.5172 24.0748C9.88768 24.8112 9.23623 25.5286 8.5948 26.2547C8.42717 26.4442 8.26292 26.6365 8.0617 26.8683Z" fill="#1BA1E3"/>
<path d="M17.5083 22.7279C17.301 23.6177 17.0718 24.6131 16.837 25.6073C16.4025 27.4468 15.9647 29.2856 15.5276 31.1245C15.504 31.2239 15.4772 31.3229 15.445 31.4197C15.2587 31.9811 14.7489 32.2859 14.2236 32.152C13.6883 32.0155 13.3544 31.5124 13.4801 30.9355C13.7409 29.7375 14.0342 28.5467 14.315 27.3532C14.6932 25.7454 15.07 24.1372 15.452 22.5302C15.6041 21.8903 15.9937 21.5348 16.5112 21.5449C17.0802 21.5558 17.524 22.0321 17.5083 22.7279Z" fill="#1BA1E3"/>
<path d="M15.3742 38.0034C15.9567 38.0055 16.4045 38.4612 16.3941 39.0417C16.3842 39.5994 15.9444 40.0438 15.3911 40.0554C14.8309 40.0671 14.3418 39.5927 14.336 39.0323C14.3302 38.4655 14.7984 38.0015 15.3742 38.0034Z" fill="#1BA1E3"/>
<path d="M35.0096 11.3842C33.4699 11.3842 31.9298 11.4094 30.3907 11.3775C28.6379 11.3412 27.2516 10.0319 27.0386 8.27298C26.8416 6.64549 27.9328 5.03262 29.5494 4.59015C29.8563 4.50619 30.1825 4.45622 30.5 4.45513C33.4947 4.44502 36.4896 4.43124 39.4842 4.45636C40.9488 4.46864 42.0587 5.15112 42.6642 6.51389C43.2412 7.81249 43.048 9.05348 42.154 10.1519C41.4694 10.9932 40.5481 11.3793 39.4762 11.3853C37.9874 11.3937 36.4983 11.3875 35.0095 11.3875C35.0096 11.3865 35.0096 11.3853 35.0096 11.3842ZM34.9847 6.52426C33.4962 6.52426 32.0075 6.50924 30.5192 6.53013C29.6652 6.54215 29.0668 7.14721 29.0716 7.92416C29.0763 8.70371 29.6759 9.31383 30.5264 9.31819C33.5034 9.33376 36.4804 9.32761 39.4575 9.32188C40.0423 9.32079 40.5102 9.07478 40.7791 8.53169C41.2514 7.57808 40.5818 6.54774 39.4502 6.52918C37.9621 6.50501 36.4733 6.52331 34.9847 6.52426Z" fill="#1BA1E3"/>
<path d="M21.8373 7.91434C21.8382 9.83194 20.2841 11.3943 18.386 11.3841C16.5134 11.3738 14.9748 9.81583 14.9693 7.92417C14.9637 6.0205 16.5432 4.43397 18.4268 4.45131C20.3073 4.46851 21.8363 6.02119 21.8373 7.91434ZM19.7945 7.93755C19.8067 7.1748 19.1779 6.53424 18.4127 6.52959C17.6629 6.52509 17.0514 7.12251 17.0331 7.87748C17.0143 8.65771 17.612 9.298 18.3779 9.31779C19.1274 9.33732 19.7825 8.69907 19.7945 7.93755Z" fill="#1BA1E3"/>
<path d="M12.9287 7.92755C12.923 9.85388 11.3739 11.4016 9.46928 11.384C7.58874 11.3666 6.07569 9.81716 6.07813 7.91131C6.08057 6.01159 7.60485 4.4637 9.48553 4.45101C11.3808 4.43817 12.9344 6.00668 12.9287 7.92755ZM9.48837 6.52929C8.72197 6.53734 8.10911 7.17354 8.12292 7.94694C8.13606 8.69044 8.75541 9.31244 9.49027 9.32008C10.2446 9.32786 10.8777 8.68907 10.8781 7.9195C10.8783 7.14282 10.2571 6.52123 9.48837 6.52929Z" fill="#1BA1E3"/>
<path d="M38.9081 30.5144C42.3614 30.513 45.1804 33.3475 45.1766 36.8171C45.1727 40.2762 42.3278 43.131 38.8944 43.1206C35.4736 43.1104 32.6746 40.2835 32.6636 36.8282C32.6528 33.3438 35.4498 30.5158 38.9081 30.5144ZM34.7163 36.7927C34.7102 39.1314 36.561 41.0235 38.8841 41.0535C41.1916 41.0834 43.1312 39.1381 43.1239 36.8014C43.1165 34.468 41.2357 32.5793 38.9185 32.5784C36.5921 32.5777 34.7222 34.4527 34.7163 36.7927Z" fill="#1BA1E3"/>
</g>
<defs>
<clipPath id="clip0_337_2333">
<rect width="52" height="50" fill="white"/>
</clipPath>
</defs>
</svg>
