<svg width="50" height="50" viewBox="0 0 50 50" fill="none" xmlns="http://www.w3.org/2000/svg">
<g clip-path="url(#clip0_337_2357)">
<path d="M45.302 29.4169C45.8941 29.1484 46.3914 28.9139 46.896 28.6965C47.4145 28.473 47.8009 28.5847 48.0915 29.0702C48.6777 30.0494 49.2506 31.0367 49.8164 32.0279C50.1013 32.5269 50.0222 32.9002 49.5658 33.2513C49.0178 33.673 48.466 34.0909 47.8981 34.4847C47.6317 34.6694 47.5648 34.8655 47.6244 35.1816C47.861 36.4356 47.8559 37.6955 47.6222 38.9505C47.5691 39.236 47.6165 39.431 47.8747 39.6085C48.4584 40.0098 49.0239 40.4384 49.5852 40.871C50.0565 41.2342 50.1156 41.5702 49.8177 42.0844C49.2627 43.042 48.7059 43.9985 48.1409 44.9501C47.7868 45.5465 47.4343 45.653 46.796 45.3687C46.1654 45.0877 45.5467 44.7778 44.9055 44.5245C44.7449 44.4611 44.4646 44.4986 44.3301 44.6049C43.3045 45.4161 42.1915 46.0593 40.9723 46.5325C40.7975 46.6004 40.606 46.8379 40.5736 47.0233C40.4579 47.687 40.407 48.3619 40.332 49.0327C40.2523 49.7471 39.9789 49.9954 39.2536 49.9973C38.1994 50.0002 37.1451 50.0007 36.0909 49.9972C35.3791 49.9948 35.125 49.7668 35.0422 49.0693C34.9626 48.3991 34.8801 47.7292 34.8073 47.0581C34.7769 46.7779 34.6863 46.6122 34.3721 46.518C33.1149 46.1404 31.9888 45.5091 31.0297 44.6039C30.8352 44.4205 30.6822 44.3961 30.4442 44.5116C29.8077 44.8205 29.1605 45.1076 28.5129 45.3927C27.9372 45.646 27.5679 45.5332 27.2437 44.9904C26.6675 44.0255 26.0991 43.0557 25.5397 42.0808C25.2606 41.5942 25.3475 41.1952 25.7965 40.8528C26.3601 40.423 26.9283 39.9986 27.5073 39.5902C27.736 39.4289 27.7926 39.2705 27.7403 38.9849C27.5044 37.6968 27.5026 36.3999 27.7428 35.1122C27.7971 34.8208 27.7219 34.6712 27.4978 34.5127C26.9333 34.1136 26.3814 33.6963 25.8301 33.2789C25.2924 32.8719 25.2285 32.564 25.5588 31.9942C26.1053 31.0518 26.6527 30.1099 27.2068 29.172C27.5637 28.5679 27.8988 28.459 28.5476 28.7265C29.1698 28.9829 29.781 29.2696 30.4143 29.4941C30.5952 29.5583 30.8933 29.5259 31.0404 29.4117C32.073 28.6117 33.1757 27.9512 34.4056 27.4993C34.5678 27.4397 34.7477 27.2156 34.7771 27.0434C34.8963 26.3449 34.9592 25.6368 35.0444 24.9324C35.1241 24.2739 35.398 24.0221 36.0655 24.0184C37.137 24.0124 38.2085 24.0129 39.28 24.0181C39.9577 24.0215 40.25 24.2911 40.3289 24.97C40.4067 25.6404 40.468 26.313 40.5638 26.9808C40.587 27.1423 40.679 27.3681 40.8048 27.429C41.7602 27.8927 42.7319 28.3227 43.7013 28.7646C43.7013 23.0407 43.7013 17.2351 43.7013 11.3864C29.6808 11.3864 15.6591 11.3864 1.55954 11.3864C1.55954 11.5658 1.55954 11.7483 1.55954 11.9308C1.55954 21.1274 1.55926 30.3239 1.55995 39.5205C1.56009 40.8005 2.14639 41.3849 3.42947 41.3851C9.6513 41.3858 15.8731 41.3848 22.0949 41.3878C22.335 41.388 22.5824 41.3928 22.8137 41.4485C23.2117 41.5446 23.3578 41.8472 23.3364 42.2352C23.3146 42.6326 23.1087 42.8816 22.7063 42.9344C22.5359 42.9567 22.3614 42.9524 22.1888 42.9524C15.9324 42.9533 9.67605 42.9542 3.41965 42.9524C1.2751 42.9518 0.000864239 41.6758 0.00072596 39.5314C-0.000241987 27.4946 -0.000241987 15.4576 0.00072596 3.4207C0.00127907 1.29102 1.29625 0.000519637 3.43072 0.000519637C16.2373 -0.000173212 29.044 -0.000173212 41.8505 0.000519637C44.0138 0.000658206 45.3011 1.28839 45.3015 3.45728C45.3029 11.8744 45.302 20.2917 45.302 28.7089C45.302 28.9152 45.302 29.1215 45.302 29.4169ZM43.7324 9.74849C43.7324 7.47456 43.7601 5.2598 43.7192 3.04642C43.7023 2.13061 42.9772 1.56456 41.991 1.56442C29.1005 1.56289 16.21 1.56276 3.31954 1.56442C2.19506 1.56456 1.5641 2.20544 1.56092 3.34282C1.55705 4.76275 1.55995 6.18267 1.55995 7.6026C1.55995 8.30819 1.55995 9.01379 1.55995 9.74849C15.6322 9.74849 29.6537 9.74849 43.7324 9.74849ZM47.0153 43.8153C47.414 43.1221 47.7891 42.4698 48.1806 41.7892C47.556 41.3309 46.9722 40.9044 46.3901 40.4752C45.7889 40.0319 45.738 39.8783 45.9199 39.1574C46.2693 37.7717 46.2741 36.3835 45.9309 34.9962C45.7513 34.2701 45.8207 34.0578 46.4098 33.6218C46.9893 33.1928 47.5704 32.7656 48.1799 32.3161C47.8049 31.6727 47.4524 31.068 47.0901 30.4465C46.3773 30.7486 45.7018 31.0083 45.0508 31.3195C44.5605 31.5538 44.1558 31.4945 43.7772 31.1232C42.6796 30.0465 41.3821 29.3173 39.9021 28.9206C39.3783 28.7802 39.1344 28.4709 39.0871 27.9301C39.0214 27.1793 38.9022 26.4333 38.807 25.6936C38.0221 25.6936 37.3024 25.6936 36.5452 25.6936C36.4551 26.4328 36.3612 27.1497 36.2827 27.8683C36.2226 28.4186 36.0113 28.7946 35.4111 28.9304C33.9249 29.2667 32.6568 30.0153 31.5956 31.1076C31.2461 31.4674 30.894 31.5339 30.4353 31.3066C29.7601 30.9721 29.0609 30.6867 28.3473 30.3693C27.9456 31.0407 27.5687 31.6705 27.1808 32.3189C27.8271 32.7924 28.4161 33.2444 29.0268 33.6645C29.4902 33.9832 29.6206 34.3582 29.4628 34.9108C29.0602 36.3215 29.0545 37.7503 29.4551 39.1628C29.6174 39.7351 29.4569 40.1309 28.9945 40.4607C28.3917 40.8905 27.8003 41.3363 27.1811 41.7922C27.5798 42.4571 27.9591 43.0896 28.3504 43.7422C29.0263 43.4392 29.6702 43.1506 30.3143 42.8621C31.037 42.5384 31.1335 42.5516 31.6811 43.0935C32.7092 44.1112 33.9129 44.8242 35.3049 45.2193C36.0743 45.4377 36.2 45.6049 36.2905 46.4078C36.3693 47.1063 36.4638 47.8029 36.5508 48.4955C37.3329 48.4955 38.0525 48.4955 38.81 48.4955C38.907 47.7565 39.0174 47.0398 39.0902 46.3193C39.1441 45.7856 39.3977 45.4685 39.9179 45.3303C41.4036 44.9359 42.6886 44.1849 43.7602 43.0816C44.1104 42.721 44.4588 42.6498 44.9185 42.8765C45.5953 43.2105 46.2956 43.4962 47.0153 43.8153Z" fill="#1BA1E3"/>
<path d="M7.23015 22.9575C7.98543 22.1065 8.76006 21.2467 9.5123 20.3675C9.59236 20.274 9.58628 20.0524 9.54272 19.9149C9.1702 18.743 9.41177 17.7135 10.2861 16.8685C11.1476 16.0358 12.188 15.8077 13.301 16.2596C14.4185 16.7134 15.0579 17.5818 15.1305 18.8035C15.1504 19.1396 15.2514 19.3266 15.54 19.4959C16.6101 20.1237 17.663 20.781 18.7316 21.433C19.7785 20.5123 20.9118 20.319 22.1819 20.9674C22.9542 20.0662 23.7166 19.1765 24.4961 18.2669C24.3667 18.0352 24.2306 17.8193 24.1207 17.5908C23.5522 16.4087 23.8351 15.056 24.8241 14.1937C25.8017 13.3412 27.1754 13.2303 28.2365 13.9183C29.3421 14.6351 29.8419 15.9574 29.4668 17.1721C29.0824 18.4167 27.9097 19.3665 26.6746 19.2034C25.9504 19.1078 25.6227 19.418 25.2442 19.8753C24.6383 20.6074 24.0056 21.3172 23.3607 22.0639C23.8015 22.8717 23.873 23.7018 23.4903 24.5498C22.9127 25.8296 21.5222 26.5338 20.2077 26.2086C18.8226 25.8659 17.8596 24.5843 17.9734 23.1746C17.9995 22.8511 17.9319 22.688 17.6519 22.5239C16.6683 21.9476 15.7037 21.3389 14.7313 20.7433C14.7031 20.726 14.6688 20.7183 14.6004 20.6919C13.5088 21.811 12.2437 22.0776 10.7663 21.3046C10.0441 22.1247 9.30668 22.9446 8.59911 23.7896C8.52057 23.8834 8.56772 24.1392 8.63146 24.2876C9.53345 26.3893 7.94934 28.5935 5.68337 28.3777C4.16771 28.2333 2.92956 26.6791 3.14445 25.1905C3.38616 23.5165 4.95935 22.3392 6.53047 22.6719C6.75987 22.7205 6.9724 22.8498 7.23015 22.9575ZM6.01483 26.8261C6.72198 26.8268 7.34091 26.2146 7.34575 25.5094C7.35087 24.7879 6.75655 24.1973 6.02589 24.1977C5.31251 24.1981 4.6904 24.8063 4.68667 25.5066C4.68321 26.206 5.30657 26.8254 6.01483 26.8261ZM20.8465 22.074C20.1275 22.0712 19.5224 22.6751 19.5247 23.3932C19.5271 24.0893 20.1593 24.7252 20.8501 24.7261C21.5418 24.727 22.1804 24.0891 22.1794 23.398C22.1786 22.7052 21.5461 22.0767 20.8465 22.074ZM26.7697 17.5936C27.4779 17.6027 28.0976 16.9984 28.105 16.291C28.1125 15.5846 27.5086 14.9685 26.7983 14.958C26.0657 14.9471 25.4797 15.5203 25.4726 16.2547C25.4659 16.9746 26.0564 17.5843 26.7697 17.5936ZM12.3264 20.1747C13.0369 20.1818 13.6651 19.571 13.6702 18.8682C13.6753 18.1685 13.0488 17.5457 12.3408 17.5466C11.666 17.5476 11.0234 18.1989 11.0152 18.8902C11.0075 19.5502 11.638 20.1678 12.3264 20.1747Z" fill="#1BA1E3"/>
<path d="M5.38999 36.1643C5.38999 34.825 5.37133 33.5471 5.40465 32.2706C5.41198 31.9911 5.53242 31.6264 5.73265 31.4663C5.91158 31.3233 6.32752 31.3072 6.53701 31.422C6.74139 31.5339 6.92087 31.8787 6.93028 32.128C6.97217 33.2348 6.94908 34.344 6.94936 35.4524C6.94936 35.6594 6.94936 35.8666 6.94936 36.1164C8.66663 36.1164 10.3625 36.1164 12.1149 36.1164C12.1149 35.8994 12.1149 35.6964 12.1149 35.4934C12.1149 32.4628 12.1136 29.4321 12.1161 26.4013C12.1167 25.7811 12.3118 25.5067 12.767 25.4527C13.3197 25.3871 13.6653 25.6992 13.6711 26.3155C13.6831 27.597 13.6752 28.8787 13.6752 30.1602C13.6753 32.1335 13.6752 34.1069 13.6752 36.1198C15.8499 36.1198 17.9994 36.1198 20.2239 36.1198C20.2239 35.9459 20.2239 35.7634 20.2239 35.5807C20.2239 33.3467 20.2261 31.1127 20.2224 28.8785C20.2216 28.415 20.3542 28.0497 20.8619 27.9584C21.4199 27.8581 21.7794 28.2023 21.7809 28.8451C21.7862 31.0792 21.7831 33.3132 21.7833 35.5473C21.7833 35.7336 21.7833 35.9198 21.7833 36.1598C22.8339 36.1598 23.8312 36.1625 24.8286 36.1584C25.2089 36.1569 25.5053 36.2748 25.6414 36.6626C25.8149 37.1575 25.5432 37.6299 25.027 37.7074C24.8576 37.7327 24.6821 37.7215 24.5094 37.7215C17.8041 37.7221 11.0988 37.7221 4.39342 37.7215C4.22072 37.7215 4.04469 37.7356 3.87599 37.7079C3.43861 37.6359 3.20396 37.3669 3.21419 36.9197C3.22442 36.474 3.46184 36.1961 3.90973 36.1702C4.37393 36.1433 4.84075 36.1643 5.38999 36.1643Z" fill="#1BA1E3"/>
<path d="M28.4205 23.746C28.4205 24.4548 28.4265 25.1636 28.4186 25.8722C28.4122 26.4555 28.1363 26.7609 27.641 26.7583C27.1475 26.7556 26.8672 26.4481 26.8642 25.8649C26.8567 24.4821 26.856 23.099 26.8647 21.7163C26.8682 21.1641 27.1897 20.8171 27.6567 20.8176C28.1359 20.8182 28.4132 21.1399 28.419 21.7236C28.4256 22.3977 28.4205 23.0719 28.4205 23.746Z" fill="#1BA1E3"/>
<path d="M34.2711 4.86276C35.7212 4.86248 37.1712 4.85971 38.6213 4.86373C39.2584 4.86553 39.5791 5.1187 39.5945 5.61159C39.6109 6.12929 39.271 6.4243 38.6222 6.42514C35.7048 6.42902 32.7874 6.42929 29.87 6.42514C29.1731 6.42417 28.8407 6.09603 28.9196 5.50822C28.9858 5.01477 29.3163 4.86179 29.7656 4.86235C31.2673 4.86415 32.7693 4.86304 34.2711 4.86276Z" fill="#1BA1E3"/>
<path d="M20.199 3.30205C21.5011 3.29388 22.5469 4.30945 22.5735 5.60813C22.6004 6.92371 21.5469 7.99001 20.2223 7.98779C18.9097 7.98571 17.8993 6.97249 17.8897 5.64887C17.8802 4.3222 18.8758 3.31037 20.199 3.30205ZM20.2254 4.86817C19.7491 4.86941 19.4543 5.17011 19.46 5.64859C19.4653 6.09008 19.7704 6.40976 20.1965 6.42015C20.6214 6.43054 20.9945 6.07178 21.0042 5.64333C21.0145 5.18702 20.6932 4.86706 20.2254 4.86817Z" fill="#1BA1E3"/>
<path d="M9.36168 5.66854C9.34896 6.99063 8.33054 7.99734 7.01537 7.9882C5.71086 7.97905 4.68525 6.94671 4.68262 5.64027C4.68013 4.30501 5.71625 3.28639 7.06101 3.30218C8.36317 3.31756 9.37426 4.35753 9.36168 5.66854ZM7.00666 6.42097C7.43906 6.42693 7.79125 6.07566 7.7954 5.63417C7.79969 5.17925 7.52133 4.8859 7.06889 4.86885C6.59943 4.85126 6.26632 5.15098 6.24917 5.60674C6.23217 6.05667 6.56542 6.41488 7.00666 6.42097Z" fill="#1BA1E3"/>
<path d="M13.5896 3.30176C14.9161 3.3019 15.9266 4.30126 15.937 5.62308C15.9474 6.94864 14.8916 8.00149 13.5659 7.98763C12.252 7.97392 11.2478 6.94808 11.2529 5.62502C11.2581 4.29586 12.258 3.30176 13.5896 3.30176ZM13.5817 6.42069C14.0337 6.4254 14.3696 6.08937 14.3679 5.63389C14.3663 5.18839 14.0706 4.88312 13.6264 4.86815C13.1424 4.8518 12.8343 5.13864 12.8242 5.6149C12.8141 6.08369 13.1265 6.41584 13.5817 6.42069Z" fill="#1BA1E3"/>
<path d="M32.3428 37.1039C32.3385 34.1323 34.7337 31.7095 37.6897 31.6954C40.6306 31.6814 43.0907 34.1432 43.1106 37.12C43.1301 40.0321 40.6532 42.4977 37.7113 42.4945C34.7595 42.4913 32.3471 40.069 32.3428 37.1039ZM37.7312 40.8428C39.8332 40.8381 41.5583 39.1023 41.5478 37.0026C41.5373 34.8994 39.8004 33.1688 37.7076 33.1765C35.606 33.1843 33.8981 34.9121 33.9024 37.0263C33.9068 39.1424 35.6173 40.8474 37.7312 40.8428Z" fill="#1BA1E3"/>
</g>
<defs>
<clipPath id="clip0_337_2357">
<rect width="50" height="50" fill="white"/>
</clipPath>
</defs>
</svg>
