<svg width="53" height="50" viewBox="0 0 53 50" fill="none" xmlns="http://www.w3.org/2000/svg">
<g clip-path="url(#clip0_337_2311)">
<path d="M26.4825 49.9995C18.8263 49.9995 11.1702 50.0013 3.51394 49.9981C1.73523 49.9973 0.405302 48.9582 0.0649876 47.308C0.00934569 47.0383 0.00274173 46.7553 0.00260122 46.4784C-0.000208974 32.1767 -0.000771013 17.8749 0.00105561 3.57326C0.00147714 1.41036 1.40011 0.00494299 3.58644 0.00410768C18.8461 -0.00146107 34.1059 -0.00104342 49.3655 0.00341159C51.6005 0.00410768 52.9987 1.41537 52.9988 3.64315C53.0004 17.8926 53.0005 32.1421 52.9987 46.3915C52.9984 48.6151 51.5944 49.9987 49.3457 49.999C41.7247 50.0004 34.1036 49.9997 26.4825 49.9995ZM1.2107 11.5821C1.20143 11.7751 1.1864 11.9442 1.1864 12.1135C1.18527 23.5461 1.18457 34.9789 1.1864 46.4116C1.18668 47.9625 2.06809 48.8277 3.64265 48.8277C18.8695 48.8288 34.0965 48.8287 49.3234 48.8279C50.9365 48.8277 51.7855 47.9859 51.7856 46.3779C51.7875 34.9626 51.7868 23.5473 51.7856 12.132C51.7856 11.9495 51.7692 11.767 51.7604 11.5821C34.882 11.5821 18.0639 11.5821 1.2107 11.5821ZM51.7868 10.3457C51.7868 10.1229 51.7868 9.95157 51.7868 9.78033C51.7868 7.72769 51.79 5.67504 51.7856 3.6224C51.7823 2.03628 50.9464 1.20668 49.3571 1.20654C34.1179 1.20584 18.879 1.20584 3.63984 1.20654C2.0473 1.20654 1.18907 2.04659 1.18626 3.61113C1.18274 5.68117 1.18471 7.75121 1.18668 9.82126C1.18682 9.98818 1.20551 10.1551 1.21703 10.3457C18.074 10.3457 34.8861 10.3457 51.7868 10.3457Z" fill="#1BA1E3"/>
<path d="M22.5448 31.7118C22.5448 30.7909 22.5415 29.9256 22.5455 29.0604C22.5528 27.4883 23.5106 26.5269 25.1087 26.5169C27.0929 26.5045 29.0775 26.5047 31.0619 26.5167C32.6767 26.5265 33.6276 27.4958 33.6327 29.1067C33.6349 29.8165 33.6331 30.5262 33.6331 31.2687C35.2856 31.2687 36.892 31.2687 38.5351 31.2687C38.5351 29.2485 38.5351 27.2384 38.5351 25.138C38.1395 25.138 37.7276 25.1382 37.3156 25.138C36.8589 25.1379 36.4023 25.1454 35.9459 25.1355C34.6597 25.1075 33.6503 24.1163 33.6247 22.8401C33.6077 21.9923 33.6214 21.1439 33.6214 20.2661C28.854 20.2661 24.1411 20.2661 19.368 20.2661C19.368 21.0205 19.3698 21.7468 19.3676 22.473C19.3625 24.2184 18.4302 25.1373 16.665 25.1379C14.6982 25.1385 12.7313 25.1415 10.7644 25.1369C9.25424 25.1334 8.25972 24.1579 8.25086 22.6517C8.23906 20.6509 8.23962 18.6497 8.25058 16.6488C8.25887 15.1373 9.24329 14.1612 10.756 14.1556C12.7931 14.1481 14.8302 14.1478 16.8673 14.1558C18.3545 14.1615 19.3343 15.1231 19.3645 16.6048C19.3806 17.4014 19.3674 18.1987 19.3674 19.0279C24.1332 19.0279 28.8462 19.0279 33.6198 19.0279C33.6198 18.2306 33.6172 17.4529 33.6203 16.6753C33.6264 15.1272 34.5877 14.1605 36.1419 14.1553C38.1615 14.1487 40.181 14.1484 42.2006 14.1555C43.7313 14.1608 44.7005 15.1154 44.7077 16.6318C44.7171 18.6502 44.7182 20.6686 44.7071 22.687C44.699 24.1734 43.722 25.1297 42.2298 25.1373C41.4268 25.1415 40.6236 25.138 39.7582 25.138C39.7582 25.3792 39.7582 25.5653 39.7582 25.7514C39.7582 27.6654 39.7588 29.5794 39.7579 31.4934C39.7575 32.3737 39.6583 32.4687 38.7488 32.4738C37.2386 32.482 35.7285 32.49 34.2183 32.498C34.0458 32.4988 33.8732 32.4981 33.6335 32.4981C33.6335 33.3263 33.6347 34.104 33.6333 34.8818C33.6303 36.5884 32.6844 37.5325 30.9664 37.5357C29.0346 37.5394 27.1029 37.5406 25.1712 37.5353C23.5128 37.5307 22.5511 36.5783 22.5456 34.947C22.5434 34.2892 22.5452 33.6312 22.5452 32.9382C19.8218 32.9382 17.1449 32.9382 14.442 32.9382C14.442 33.7789 14.442 34.5911 14.442 35.4752C15.1835 35.4752 15.9147 35.4742 16.6458 35.4753C18.428 35.4781 19.3656 36.4116 19.3676 38.1895C19.3697 40.0687 19.3709 41.9479 19.3673 43.827C19.3639 45.5371 18.4249 46.4787 16.6993 46.4871C14.7676 46.4964 12.8358 46.4974 10.9041 46.4867C9.18947 46.4772 8.25044 45.5236 8.24848 43.8126C8.24623 41.916 8.24567 40.0194 8.24876 38.1228C8.25157 36.4265 9.2135 35.4793 10.9317 35.4753C11.6655 35.4736 12.3994 35.475 13.2002 35.475C13.2002 34.5164 13.1991 33.6006 13.2005 32.6849C13.2017 31.8677 13.3583 31.7124 14.1818 31.7121C16.7632 31.7113 19.3447 31.7118 21.9261 31.7118C22.1143 31.7118 22.3028 31.7118 22.5448 31.7118ZM39.192 15.3189C38.2085 15.3189 37.2251 15.3164 36.2417 15.3196C35.2702 15.3228 34.8116 15.7617 34.8082 16.7134C34.8015 18.662 34.8016 20.6106 34.8083 22.5593C34.8116 23.4929 35.2611 23.9483 36.1929 23.9523C38.1771 23.9611 40.1613 23.9614 42.1455 23.9522C43.0741 23.9479 43.5208 23.4866 43.5227 22.5544C43.5268 20.6056 43.5272 18.6568 43.5226 16.7081C43.5204 15.753 43.0723 15.3227 42.0896 15.3194C41.1237 15.3163 40.1578 15.3188 39.192 15.3189ZM9.46459 19.6116C9.46459 20.6033 9.45939 21.5949 9.46613 22.5866C9.47246 23.5043 9.8968 23.9467 10.8088 23.9516C12.8105 23.9623 14.8122 23.9625 16.814 23.9515C17.6993 23.9466 18.1458 23.4985 18.1488 22.6311C18.1558 20.6307 18.1562 18.6301 18.1487 16.6295C18.1453 15.7555 17.6994 15.3234 16.8073 15.3207C14.8056 15.3149 12.8039 15.3148 10.8022 15.3209C9.91843 15.3235 9.47541 15.7612 9.46684 16.6366C9.45728 17.6283 9.46473 18.62 9.46459 19.6116ZM28.0679 36.3148C29.1041 36.3148 30.1403 36.3225 31.1764 36.3123C31.9331 36.3048 32.4167 35.8771 32.4254 35.1249C32.4493 33.0571 32.4481 30.9886 32.4271 28.9208C32.4194 28.162 31.9587 27.7204 31.1961 27.7144C29.1239 27.6983 27.0515 27.6984 24.9793 27.7126C24.1852 27.718 23.7298 28.1748 23.7255 28.9501C23.7144 30.9859 23.7148 33.0219 23.7246 35.0577C23.7286 35.8609 24.1946 36.3064 25.0121 36.3131C26.0307 36.3213 27.0494 36.3151 28.0679 36.3148ZM13.7988 45.2819C14.7996 45.2819 15.8005 45.2858 16.8012 45.2808C17.6954 45.2763 18.145 44.8506 18.1485 43.9796C18.1567 41.9791 18.1557 39.9783 18.1491 37.9776C18.1463 37.125 17.7209 36.6656 16.8702 36.6578C14.8349 36.6392 12.7992 36.6402 10.7637 36.6569C9.90185 36.664 9.47119 37.1111 9.46768 37.9598C9.45911 39.9604 9.45925 41.9611 9.4674 43.9618C9.47091 44.8454 9.91211 45.2755 10.7963 45.2806C11.797 45.2863 12.7979 45.2819 13.7988 45.2819Z" fill="#1BA1E3"/>
<path d="M22.167 3.19143C23.6348 3.19755 24.7891 4.36212 24.7733 5.82113C24.7583 7.23211 23.5605 8.39765 22.1377 8.3861C20.7081 8.37454 19.5301 7.20664 19.5225 5.79343C19.5148 4.35237 20.7007 3.18544 22.167 3.19143ZM22.1652 7.182C22.9365 7.17643 23.5697 6.55537 23.5797 5.79454C23.5898 5.0241 22.9207 4.36087 22.1406 4.36825C21.3446 4.37576 20.7262 5.01798 20.7434 5.81932C20.7601 6.59797 21.3755 7.1877 22.1652 7.182Z" fill="#1BA1E3"/>
<path d="M17.3075 5.80795C17.297 7.24246 16.1229 8.39519 14.6818 8.38586C13.2405 8.37654 12.0718 7.21086 12.0723 5.78303C12.0728 4.32611 13.2523 3.17755 14.7332 3.19203C16.1843 3.20609 17.3182 4.35827 17.3075 5.80795ZM16.1211 5.76215C16.1093 5.00549 15.4653 4.37233 14.7022 4.36704C13.9169 4.36161 13.2701 5.01329 13.2791 5.80113C13.2881 6.59857 13.927 7.20195 14.7407 7.18162C15.5155 7.16213 16.1329 6.52729 16.1211 5.76215Z" fill="#1BA1E3"/>
<path d="M4.6231 5.75986C4.63209 4.3188 5.78568 3.1889 7.24515 3.19141C8.69648 3.19392 9.85498 4.33983 9.85835 5.77629C9.86173 7.21483 8.63873 8.41476 7.19921 8.38511C5.74577 8.35517 4.61411 7.20189 4.6231 5.75986ZM7.22618 7.18267C8.01388 7.18713 8.63508 6.59253 8.65194 5.81805C8.66908 5.02979 8.03313 4.37407 7.24487 4.36725C6.46532 4.36057 5.80099 5.02339 5.81097 5.79786C5.82081 6.56468 6.44804 7.17836 7.22618 7.18267Z" fill="#1BA1E3"/>
<path d="M34.3033 6.37036C32.4267 6.37036 30.55 6.37078 28.6732 6.36966C28.4982 6.36952 28.2783 6.42229 28.1578 6.3389C27.9537 6.19759 27.6984 5.97748 27.6794 5.77116C27.6634 5.59756 27.9252 5.35726 28.1178 5.2218C28.2374 5.13772 28.4574 5.18811 28.6323 5.18797C32.4208 5.18686 36.2092 5.187 39.9976 5.18756C40.1554 5.18756 40.3624 5.13159 40.4606 5.20886C40.6687 5.37258 40.9372 5.597 40.9566 5.81613C40.9712 5.98152 40.6584 6.20761 40.4506 6.34697C40.3407 6.42062 40.1436 6.36994 39.986 6.36994C38.0917 6.37064 36.1975 6.37036 34.3033 6.37036Z" fill="#1BA1E3"/>
<path d="M45.5085 6.36825C45.1221 6.36825 44.8112 6.37104 44.5003 6.36756C44.1164 6.36338 43.8421 6.20871 43.8399 5.79397C43.8375 5.35613 44.1192 5.19046 44.5267 5.18782C44.8236 5.18587 45.1205 5.1874 45.5084 5.1874C45.5084 4.84283 45.5102 4.52263 45.508 4.20243C45.5052 3.81456 45.6817 3.54364 46.0811 3.53724C46.5079 3.53028 46.697 3.80663 46.6942 4.21871C46.6921 4.51316 46.6937 4.80761 46.6937 5.18782C47.0349 5.18782 47.3585 5.18782 47.6822 5.18782C48.0695 5.18782 48.3477 5.35808 48.3616 5.75346C48.3766 6.18156 48.092 6.36407 47.681 6.36783C47.3702 6.37062 47.0592 6.36839 46.6928 6.36839C46.6928 6.75417 46.703 7.07952 46.6901 7.4039C46.6746 7.79246 46.4701 8.02816 46.0651 8.01688C45.6776 8.00602 45.5149 7.75835 45.5097 7.39583C45.505 7.08481 45.5085 6.7738 45.5085 6.36825Z" fill="#1BA1E3"/>
</g>
<defs>
<clipPath id="clip0_337_2311">
<rect width="53" height="50" fill="white"/>
</clipPath>
</defs>
</svg>
