<svg width="47" height="50" viewBox="0 0 47 50" fill="none" xmlns="http://www.w3.org/2000/svg">
<g clip-path="url(#clip0_337_2292)">
<path d="M32.5246 15.9054C31.4077 17.1019 30.2852 18.304 29.1564 19.513C33.9183 25.2167 32.8321 33.4751 27.5149 37.9262C22.4092 42.2005 14.9084 41.8622 10.1924 37.1245C5.48726 32.3978 5.14511 24.8547 9.35448 19.6417C13.6968 14.264 22.3419 13.0008 28.1379 18.4134C29.2525 17.2084 30.3699 16.0006 31.5312 14.7453C31.2687 14.513 30.9144 14.1751 30.5358 13.868C24.8616 9.26457 17.0936 8.56733 10.7023 12.083C10.6125 12.1325 10.526 12.1884 10.4343 12.2337C9.9705 12.4626 9.58371 12.3663 9.37973 11.9737C9.18873 11.6061 9.30505 11.2113 9.74891 10.9922C10.7423 10.5017 11.7203 9.94554 12.7639 9.59844C20.0716 7.16831 26.6374 8.52503 32.4353 13.6376C32.4985 13.6933 32.5613 13.7492 32.6661 13.8419C33.4883 13.033 34.2556 12.1755 35.1302 11.4498C35.8424 10.8587 35.9836 10.2031 35.8818 9.33581C35.7212 7.96944 35.6452 6.59178 35.5766 5.2166C35.5638 4.96003 35.6856 4.62477 35.8626 4.44178C37.2225 3.03822 38.6017 1.65311 40.0028 0.291434C40.1937 0.105963 40.5914 -0.0584246 40.7986 0.0205312C41.0359 0.110924 41.2669 0.461609 41.3284 0.738024C41.6335 2.11376 41.8971 3.49955 42.1394 4.88824C42.1972 5.22004 42.3298 5.35026 42.638 5.41158C43.8415 5.65106 45.047 5.88614 46.2383 6.17881C46.528 6.25005 46.9163 6.49133 46.9858 6.73412C47.0554 6.97746 46.8559 7.39167 46.6484 7.60801C45.3785 8.93166 44.0853 10.2334 42.767 11.5078C42.5515 11.7162 42.1703 11.8589 41.8705 11.851C40.3702 11.8106 38.8721 11.6962 37.3719 11.6444C37.1358 11.6363 36.8294 11.7504 36.6642 11.9174C35.6775 12.915 34.7228 13.9446 33.7538 14.9672C40.5527 22.627 40.2677 34.8419 32.6351 42.0868C33.4918 43.406 34.3523 44.7279 35.2094 46.0521C35.6619 46.7514 35.5983 47.0434 34.8982 47.4771C33.6633 48.2423 32.4273 49.0057 31.1888 49.7649C30.5888 50.1327 30.2993 50.074 29.8967 49.5039C29.0849 48.3546 28.2724 47.2057 27.475 46.0461C27.3032 45.7962 27.1679 45.7223 26.8587 45.8513C21.7663 47.9761 16.675 47.9463 11.5925 45.8049C11.5308 45.7788 11.4658 45.7605 11.3602 45.724C11.1729 45.9822 10.981 46.2404 10.7957 46.5032C10.0835 47.5128 9.37728 48.5267 8.66118 49.5334C8.28545 50.0615 7.98221 50.1286 7.44756 49.8009C6.15066 49.006 4.85703 48.2058 3.566 47.4013C3.01824 47.06 2.94834 46.7129 3.31137 46.1503C4.18544 44.7958 5.06606 43.4456 5.95364 42.0788C5.43893 41.5042 4.91711 40.9625 4.44062 40.3828C1.7649 37.1278 0.308528 33.3771 0.00297304 29.1657C-0.0326614 28.6753 0.255554 28.3188 0.678388 28.2994C1.08812 28.2807 1.37456 28.5874 1.41606 29.1105C1.77295 33.6089 3.48135 37.4949 6.64203 40.6951C11.8515 45.9694 19.7668 47.4574 26.5084 44.4636C33.5382 41.3417 37.8449 33.9761 37.116 26.2528C36.7672 22.5575 35.4132 19.2612 33.0686 16.3899C32.9601 16.2572 32.8455 16.1295 32.7301 16.0028C32.7092 15.9801 32.6711 15.9736 32.5246 15.9054ZM24.5248 24.1006C26.6481 27.1501 25.8309 30.8739 23.4189 32.9129C20.9731 34.9802 17.3427 34.9165 14.9797 32.7557C12.5803 30.5616 12.1453 26.9414 13.9697 24.2593C14.8844 22.9146 16.1283 22.0171 17.6995 21.6274C19.8225 21.1008 21.7441 21.584 23.5148 22.9786C24.6672 21.7412 25.794 20.5313 26.9192 19.323C22.7198 15.3465 15.4301 15.1145 10.8724 20.0789C6.40665 24.9433 6.90608 32.5098 11.9308 36.7956C16.8597 40.9996 24.3571 40.2004 28.3326 35.0312C32.2749 29.905 30.8487 23.4342 27.922 20.4508C26.801 21.6551 25.6801 22.8593 24.5248 24.1006ZM22.3079 23.9057C20.5201 22.3132 17.3952 22.5421 15.6376 24.4381C13.769 26.4541 13.8153 29.5762 15.7426 31.5231C17.6294 33.4291 20.7228 33.4889 22.6865 31.6683C24.7547 29.7511 24.7003 26.6914 23.3619 25.0455C22.509 25.8864 21.6601 26.7258 20.8081 27.5622C20.3796 27.983 19.9677 28.0284 19.6494 27.6981C19.3294 27.3659 19.395 26.9864 19.8253 26.5354C20.6529 25.6678 21.4721 24.7921 22.3079 23.9057ZM38.3744 10.2461C39.578 10.3088 40.6618 10.3717 41.7463 10.412C41.8551 10.416 41.9866 10.3002 42.0778 10.2096C42.9517 9.34049 43.82 8.46578 44.6865 7.58927C44.7491 7.52588 44.7852 7.43563 44.8474 7.33545C43.8058 7.11498 42.812 6.87453 41.8066 6.70367C41.2256 6.60487 40.9574 6.31537 40.8599 5.74297C40.6592 4.56414 40.4146 3.3929 40.1878 2.2171C40.1188 2.23116 40.0756 2.22647 40.0558 2.24604C39.0846 3.21115 38.1106 4.17336 37.1537 5.15252C37.0543 5.25422 37.0118 5.46049 37.0203 5.61386C37.0678 6.47204 37.1382 7.32884 37.2024 8.18605C37.2271 8.51704 37.2557 8.84774 37.2824 9.17845C37.3403 9.21317 37.3982 9.24789 37.4561 9.28262C37.8763 8.81081 38.2825 8.32536 38.721 7.87161C39.0891 7.49088 39.4991 7.46953 39.8037 7.76289C40.1195 8.06714 40.0857 8.49719 39.7054 8.89073C39.3027 9.3077 38.8936 9.71805 38.3744 10.2461ZM7.01899 43.0535C6.28528 44.1818 5.55184 45.3098 4.78945 46.4823C5.80483 47.1081 6.78143 47.71 7.77619 48.3232C8.55605 47.2126 9.29987 46.1531 10.0366 45.1039C9.02476 44.4163 8.05348 43.7564 7.01899 43.0535ZM28.5439 45.1068C29.2988 46.1786 30.0476 47.2416 30.8129 48.3281C31.825 47.7006 32.8026 47.0945 33.7934 46.4801C33.0235 45.2968 32.295 44.1772 31.5684 43.0604C30.5567 43.7449 29.57 44.4126 28.5439 45.1068Z" fill="#1BA1E3"/>
<path d="M1.96097 20.0592C2.52743 20.0527 2.88159 20.4724 2.74752 20.9362C2.52866 21.6931 2.27049 22.4397 1.99906 23.1795C1.87277 23.5238 1.57732 23.6838 1.21579 23.5991C0.836917 23.5102 0.576281 23.2244 0.681819 22.8458C0.915695 22.0069 1.20787 21.1825 1.52394 20.371C1.58797 20.2069 1.86185 20.126 1.96097 20.0592Z" fill="#1BA1E3"/>
<path d="M4.71657 17.0743C4.09686 17.0785 3.71922 16.461 4.04607 16.0096C4.49594 15.3881 5.01216 14.8104 5.54367 14.2566C5.81072 13.9782 6.18222 14.0134 6.46634 14.2836C6.75128 14.5548 6.79074 14.9033 6.54089 15.2116C6.07778 15.7833 5.59173 16.337 5.09571 16.88C4.99059 16.995 4.80217 17.0324 4.71657 17.0743Z" fill="#1BA1E3"/>
</g>
<defs>
<clipPath id="clip0_337_2292">
<rect width="47" height="50" fill="white"/>
</clipPath>
</defs>
</svg>
