<svg width="66" height="66" viewBox="0 0 66 66" fill="none" xmlns="http://www.w3.org/2000/svg">
<mask id="mask0_862_2556" style="mask-type:luminance" maskUnits="userSpaceOnUse" x="0" y="0" width="66" height="66">
<path d="M65.0996 0.0996094H0.0996094V65.0996H65.0996V0.0996094Z" fill="white"/>
</mask>
<g mask="url(#mask0_862_2556)">
<path d="M50.1241 12.7787C50.0765 12.4912 49.8418 12.2709 49.5513 12.2434C49.3229 12.2059 44.3007 11.8616 44.3007 11.8616L40.4716 8.03266C40.1265 7.65078 39.3626 7.7625 39.0742 7.84172C39.0366 7.84172 38.3104 8.07023 37.1221 8.45617C35.9674 5.11477 33.9229 2.05164 30.3215 2.05164H30.0138C28.982 0.714062 27.7185 0.0996094 26.6521 0.0996094C18.2671 0.137187 14.2716 10.5941 13.0082 15.9373L7.14805 17.7349C5.35039 18.3077 5.28437 18.3493 5.04266 20.0638L0.0996094 58.1679L37.1374 65.0996L57.2091 60.773C57.2091 60.7355 50.1608 13.1423 50.1241 12.7787ZM35.0685 9.09805C34.1373 9.40578 33.0749 9.7125 31.9302 10.0578V9.36719C31.9642 7.64383 31.706 5.92718 31.1665 4.29008C33.0435 4.57852 34.3048 6.68391 35.0696 9.09703L35.0685 9.09805ZM28.9057 4.73289C29.5182 6.53867 29.8026 8.43992 29.7448 10.3462V10.6916L23.2701 12.6852C24.5376 7.95242 26.8745 5.61445 28.9057 4.73289ZM26.4174 2.40406C26.8005 2.41221 27.1729 2.53186 27.489 2.74836C24.7874 4.0057 21.9315 7.18258 20.7066 13.5414L15.5829 15.1116C17.028 10.2863 20.3999 2.39492 26.4145 2.39492L26.4174 2.40406Z" fill="#95BF47"/>
<path d="M49.5516 12.243C49.323 12.2054 44.3008 11.8611 44.3008 11.8611L40.4719 8.03223C40.3297 7.88801 40.1367 7.80574 39.9366 7.80371L37.1416 65.0992L57.2135 60.7726L50.1244 12.8168C50.1014 12.6732 50.0335 12.5405 49.9308 12.4376C49.8278 12.3348 49.6951 12.266 49.5516 12.243Z" fill="#5E8E3E"/>
<path d="M30.3232 23.3474L27.8308 30.7026C26.3247 29.9734 24.6783 29.5814 23.0046 29.5518C19.0964 29.5518 18.9055 32.0015 18.9055 32.617C18.9055 35.9665 27.6764 37.2523 27.6764 45.1428C27.6764 51.3482 23.7308 55.3295 18.4343 55.3295C12.0764 55.3295 8.81934 51.3837 8.81934 51.3837L10.5104 45.747C10.5104 45.747 13.8416 48.6212 16.6783 48.6212C17.0174 48.6342 17.3555 48.5781 17.6724 48.4567C17.9891 48.3351 18.2781 48.1505 18.5215 47.9141C18.7649 47.6776 18.9579 47.3943 19.0886 47.0813C19.2194 46.768 19.2854 46.4317 19.2824 46.0923C19.2824 41.6845 12.0815 41.4946 12.0815 34.2928C12.0815 28.2376 16.4467 22.3389 25.2177 22.3389C28.6647 22.3896 30.3141 23.3443 30.3141 23.3443L30.3232 23.3474Z" fill="white"/>
</g>
</svg>
