<svg width="66" height="66" viewBox="0 0 66 66" fill="none" xmlns="http://www.w3.org/2000/svg">
<g clip-path="url(#clip0_862_2571)">
<path d="M6.13212 13.0996H59.0407C62.3891 13.0996 65.0996 15.8146 65.0996 19.1686V39.3981C65.0996 42.7522 62.3891 45.4671 59.0407 45.4671H40.0669L42.6713 51.8554L31.2178 45.4671H6.15854C2.81026 45.4671 0.0998044 42.7522 0.0998044 39.3981V19.1686C0.0731442 15.8413 2.78334 13.0996 6.13212 13.0996Z" fill="#9B5C8F"/>
<path d="M3.80143 18.6316C4.17137 18.1285 4.72615 17.864 5.46602 17.8111C6.81379 17.7051 7.58005 18.3401 7.76493 19.7166C8.58402 25.2482 9.48232 29.9329 10.4335 33.7704L16.22 22.7339C16.7486 21.728 17.4093 21.1988 18.202 21.1459C19.3646 21.0665 20.0778 21.8074 20.3686 23.369C21.0292 26.8888 21.8748 29.8798 22.8787 32.4205C23.5658 25.6981 24.7284 20.8547 26.3666 17.864C26.7627 17.1229 27.3441 16.7524 28.1104 16.6992C28.7183 16.6466 29.2731 16.8317 29.775 17.2287C30.277 17.6257 30.5413 18.1285 30.5941 18.7374C30.6206 19.2137 30.5413 19.6107 30.3301 20.0078C29.2995 21.9134 28.4537 25.1159 27.7669 29.5621C27.1065 33.8762 26.8686 37.2377 27.027 39.6462C27.0801 40.3074 26.9742 40.8898 26.7102 41.3929C26.3928 41.9751 25.9174 42.2927 25.3096 42.3456C24.6225 42.3985 23.9093 42.0811 23.2222 41.3665C20.7649 38.8519 18.8096 35.0937 17.3829 30.0916C15.6652 33.4792 14.3969 36.02 13.5778 37.7138C12.0189 40.7047 10.6978 42.2398 9.58795 42.3192C8.87448 42.3721 8.26687 41.7632 7.73851 40.4931C6.39101 37.0259 4.93766 30.3297 3.37893 20.4048C3.27305 19.7166 3.43148 19.1077 3.80143 18.6316ZM60.584 22.7868C59.6331 21.1194 58.2324 20.1138 56.3567 19.7166C55.8543 19.6107 55.3789 19.5579 54.9294 19.5579C52.393 19.5579 50.3321 20.8811 48.7201 23.5279C47.3463 25.7774 46.6591 28.2653 46.6591 30.9914C46.6591 33.0293 47.0821 34.7761 47.9275 36.2318C48.8789 37.8992 50.2792 38.9048 52.1553 39.3018C52.6572 39.4079 53.1327 39.4608 53.5821 39.4608C56.1449 39.4608 58.2059 38.1375 59.7914 35.4907C61.1653 33.2145 61.8524 30.7267 61.8524 28.0008C61.8789 25.9364 61.4294 24.2159 60.584 22.7868ZM57.255 30.118C56.885 31.8648 56.2243 33.1616 55.2465 34.0349C54.4805 34.7231 53.7669 35.0141 53.1067 34.8818C52.4724 34.7496 51.9436 34.1939 51.5476 33.1616C51.23 32.3411 51.0722 31.5206 51.0722 30.7531C51.0722 30.0916 51.1246 29.4298 51.2569 28.8212C51.4946 27.736 51.9441 26.6773 52.6572 25.6716C53.5291 24.3745 54.454 23.8456 55.4053 24.0307C56.0395 24.163 56.5679 24.7189 56.9639 25.751C57.281 26.5715 57.4398 27.3919 57.4398 28.1595C57.4398 28.8477 57.3869 29.5095 57.255 30.118ZM44.0433 22.7868C43.0922 21.1194 41.6652 20.1138 39.8158 19.7166C39.3138 19.6107 38.8382 19.5579 38.3888 19.5579C35.8523 19.5579 33.7913 20.8811 32.1795 23.5279C30.8057 25.7774 30.1186 28.2653 30.1186 30.9914C30.1186 33.0293 30.5413 34.7761 31.3869 36.2318C32.338 37.8992 33.7385 38.9048 35.6144 39.3018C36.1166 39.4079 36.5919 39.4608 37.0413 39.4608C39.6042 39.4608 41.6652 38.1375 43.2506 35.4907C44.6248 33.2145 45.3116 30.7267 45.3116 28.0008C45.3116 25.9364 44.8888 24.2159 44.0433 22.7868ZM40.6877 30.118C40.3178 31.8648 39.6571 33.1616 38.6795 34.0349C37.9133 34.7231 37.1998 35.0141 36.5391 34.8818C35.9051 34.7496 35.3767 34.1939 34.9801 33.1616C34.6632 32.3411 34.5048 31.5206 34.5048 30.7531C34.5048 30.0916 34.5576 29.4298 34.6896 28.8212C34.9275 27.736 35.3767 26.6773 36.0902 25.6716C36.9621 24.3745 37.8869 23.8456 38.838 24.0307C39.4723 24.163 40.0009 24.7189 40.397 25.751C40.7144 26.5715 40.8725 27.3919 40.8725 28.1595C40.8992 28.8477 40.8197 29.5095 40.6877 30.118Z" fill="white"/>
</g>
<defs>
<clipPath id="clip0_862_2571">
<rect width="65" height="65" fill="white" transform="translate(0.0996094 0.0996094)"/>
</clipPath>
</defs>
</svg>
