<svg width="1920" height="663" viewBox="0 0 1920 663" fill="none" xmlns="http://www.w3.org/2000/svg">
<mask id="path-1-inside-1_92_63" fill="white">
<path d="M-21 260C-21 116.406 95.406 0 239 0H1681C1824.59 0 1941 116.406 1941 260V663H-21V260Z"/>
</mask>
<path d="M-21 260C-21 115.854 95.8537 -1 240 -1H1680C1824.15 -1 1941 115.854 1941 260C1941 116.958 1824.59 1 1681 1H239C95.406 1 -21 116.958 -21 260ZM1941 663H-21H1941ZM-21 663V0V663ZM1941 0V663V0Z" fill="#7B7B7B" mask="url(#path-1-inside-1_92_63)"/>
</svg>
