<svg width="51" height="36" viewBox="0 0 51 36" fill="none" xmlns="http://www.w3.org/2000/svg">
<path d="M0 8.76701C0.157797 8.44628 0.299115 8.11631 0.476026 7.80652C1.32407 6.32189 4.73627 6.28906 5.5532 7.86835C5.84507 8.43257 5.95949 9.08867 6.13627 9.64458C6.16277 9.57999 6.24147 9.40808 6.30488 9.23078C6.87556 7.63581 7.44267 6.03965 8.01256 4.44441C8.84966 2.10146 10.5941 0.86558 13.0694 0.865316C21.3408 0.864393 29.6122 0.864393 37.8836 0.865316C40.3362 0.86558 42.0746 2.0975 42.905 4.41831C43.3925 5.781 43.8789 7.14409 44.3672 8.50652C44.4197 8.65298 44.4808 8.79641 44.5771 9.04068C44.639 8.81645 44.6684 8.6949 44.7063 8.57599C45.0097 7.62223 45.6211 6.94886 46.6183 6.78566C47.2569 6.68112 47.94 6.67057 48.5772 6.77524C49.8367 6.98195 50.6695 8.10234 50.6178 9.36392C50.5674 10.5915 49.6421 11.615 48.3936 11.7524C47.7743 11.8204 47.1439 11.7877 46.5184 11.7986C46.3264 11.8021 46.1344 11.7992 45.8435 11.7992C45.9969 11.9854 46.0804 12.0968 46.1739 12.1993C47.0621 13.1731 47.9422 14.1546 48.844 15.1157C49.862 16.2005 50.3772 17.4751 50.3771 18.9609C50.3767 21.8773 50.3798 24.7937 50.3757 27.7101C50.3742 28.8885 49.8515 29.7503 48.802 30.3076C48.6591 30.3836 48.5265 30.6189 48.5192 30.7859C48.4881 31.5095 48.5182 32.2356 48.5025 32.9603C48.4647 34.7095 47.3012 35.8441 45.5469 35.8488C43.8663 35.8535 42.1856 35.8548 40.5051 35.8484C38.7766 35.8419 37.5941 34.6562 37.581 32.924C37.5752 32.1543 37.5801 31.3844 37.5801 30.5886C29.4754 30.5886 21.4246 30.5886 13.2943 30.5886C13.2943 30.9577 13.2962 31.3129 13.2939 31.6682C13.2905 32.1954 13.3094 32.7241 13.274 33.2492C13.1762 34.7012 12.0478 35.8148 10.5949 35.8396C8.75013 35.8711 6.90363 35.8757 5.05911 35.8378C3.55471 35.8068 2.40294 34.5928 2.37644 33.0865C2.36247 32.2958 2.36484 31.5046 2.37776 30.7141C2.38198 30.4599 2.32147 30.3093 2.08075 30.167C1.18684 29.6381 0.739548 28.8219 0.736252 27.7895C0.726102 24.6587 0.729793 21.5281 0.734275 18.3976C0.736516 16.8341 1.31853 15.5184 2.43906 14.428C3.28446 13.6053 4.11036 12.7627 5.04554 11.8284C4.32589 11.8284 3.74203 11.8284 3.15804 11.8284C1.31234 11.8284 0.693804 11.4224 0 9.75571C0 9.42614 0 9.09658 0 8.76701ZM25.5476 29.0277C26.1406 29.0277 26.7335 29.0277 27.3265 29.0277C34.0139 29.0277 40.7014 29.0285 47.3889 29.0268C48.4014 29.0265 48.8406 28.5902 48.8411 27.5906C48.8429 24.708 48.8394 21.8255 48.843 18.943C48.8443 17.9445 48.5316 17.0674 47.8582 16.3279C46.7824 15.1469 45.7095 13.963 44.6112 12.8029C44.457 12.6399 44.167 12.5235 43.9397 12.5233C31.6026 12.5101 19.2653 12.51 6.92802 12.5234C6.69891 12.5237 6.41667 12.6458 6.24991 12.8055C5.33437 13.6828 4.45653 14.5993 3.54759 15.4836C2.67173 16.3356 2.25714 17.3509 2.26557 18.5774C2.28574 21.5093 2.27203 24.4412 2.27203 27.3732C2.27203 28.6747 2.63047 29.0273 3.95335 29.0275C11.1514 29.0277 18.3495 29.0277 25.5476 29.0277ZM7.32838 10.9336C19.4585 10.9336 31.4972 10.9336 43.5463 10.9336C43.5395 10.8644 43.5442 10.8136 43.5288 10.77C42.7875 8.67737 42.0952 6.5655 41.2835 4.50044C40.7557 3.15765 39.6584 2.42614 38.1996 2.42338C29.7151 2.40716 21.2304 2.41072 12.7459 2.41982C11.2989 2.42153 10.1078 3.27353 9.5904 4.62396C9.30802 5.36087 9.05452 6.10899 8.78849 6.85223C8.30733 8.19647 7.82655 9.54083 7.32838 10.9336ZM46.9393 30.6004C44.3231 30.6004 41.7308 30.6004 39.1172 30.6004C39.1172 31.1766 39.1172 31.714 39.1172 32.3031C39.6849 32.2459 40.2031 32.3242 40.2877 32.985C40.3595 33.5462 39.9634 33.7867 39.4596 33.9769C39.8106 34.1359 40.1605 34.2837 40.5125 34.2888C42.1921 34.3137 43.8722 34.304 45.5521 34.2986C46.63 34.2951 47.124 33.678 46.9202 32.5803C46.3328 32.4625 45.3857 32.8159 45.4038 31.7598C45.4212 30.7454 46.3325 31.0928 46.9393 30.9889C46.9393 30.8519 46.9393 30.73 46.9393 30.6004ZM3.91275 32.3147C4.23269 32.3147 4.56898 32.2247 4.80469 32.3399C5.0425 32.4561 5.26977 32.7545 5.33305 33.0142C5.38025 33.2078 5.2148 33.5326 5.04224 33.6788C4.85768 33.8352 4.55382 33.8505 4.13765 33.9776C4.5326 34.1128 4.79836 34.2798 5.0661 34.2831C6.90891 34.3057 8.75237 34.3103 10.5952 34.2851C11.3389 34.275 11.7911 33.6825 11.7135 32.8951C11.3902 32.8951 11.0636 32.8951 10.7369 32.8951C10.1955 32.895 9.86354 32.5943 9.86921 32.1093C9.87475 31.6318 10.2276 31.3263 10.7556 31.3344C11.0787 31.3394 11.4018 31.3354 11.7509 31.3354C11.7509 31.065 11.7509 30.8414 11.7509 30.6035C9.13058 30.6035 6.52516 30.6035 3.91262 30.6035C3.91275 31.1826 3.91275 31.7192 3.91275 32.3147ZM4.42621 10.2495C4.58704 8.49031 4.25326 8.14228 2.57128 8.24313C2.53846 8.24511 2.5055 8.24669 2.47267 8.25012C1.92968 8.3068 1.55674 8.69952 1.54699 9.22432C1.53697 9.76903 1.9223 10.2191 2.47755 10.2431C3.11599 10.2706 3.75653 10.2495 4.42621 10.2495ZM46.1731 10.2432C46.8796 10.2432 47.5528 10.2799 48.2201 10.2323C48.8154 10.1898 49.1807 9.59396 49.0457 9.00048C48.9084 8.39684 48.4589 8.20332 47.2807 8.2405C46.6527 8.26027 46.2352 8.55807 46.1806 9.08155C46.142 9.45185 46.1731 9.8294 46.1731 10.2432Z" fill="black"/>
<path d="M25.3761 17.1281C28.2742 17.1282 31.1723 17.1253 34.0702 17.1297C35.1267 17.1312 35.8621 17.5768 36.1598 18.3926C36.4058 19.0668 36.3074 19.7096 35.8338 20.2418C34.9583 21.2255 34.0619 22.1918 33.1427 23.1346C32.9709 23.3109 32.6519 23.4283 32.4002 23.4293C27.8392 23.4465 23.278 23.4481 18.717 23.4264C18.4404 23.425 18.1099 23.2614 17.8985 23.0696C16.9841 22.2403 16.1119 21.3649 15.2102 20.5213C14.584 19.9356 14.3394 19.2523 14.6258 18.4291C14.9066 17.6219 15.6017 17.1428 16.5337 17.1343C18.2625 17.1184 19.9915 17.1285 21.7206 17.1281C22.9392 17.1278 24.1576 17.1281 25.3761 17.1281ZM25.4138 18.6578C22.5136 18.6578 19.6134 18.6521 16.7134 18.6697C16.5023 18.671 16.2923 18.8406 16.0818 18.932C16.1751 19.1216 16.2269 19.3528 16.3685 19.4938C17.1038 20.2263 17.8555 20.9429 18.618 21.647C18.7608 21.7788 18.9788 21.9049 19.1626 21.9056C23.414 21.9201 27.6654 21.9179 31.9168 21.9117C32.0517 21.9114 32.2299 21.8761 32.3145 21.7872C33.0876 20.9764 33.852 20.1571 34.6012 19.3243C34.8493 19.0485 34.7255 18.7444 34.3604 18.6723C34.2171 18.6439 34.0648 18.6582 33.9168 18.6582C31.0824 18.6575 28.2481 18.6578 25.4138 18.6578Z" fill="black"/>
<path d="M41.787 23.4244C40.7492 23.4243 39.7115 23.4182 38.6738 23.4265C38.0136 23.4318 37.5169 23.1747 37.2652 22.5523C37.018 21.9412 37.1537 21.3915 37.6163 20.9224C38.7498 19.7733 39.8718 18.6122 41.0278 17.486C41.2276 17.2913 41.5675 17.1555 41.8487 17.1444C42.8684 17.1043 43.8908 17.1154 44.9118 17.1328C46.0097 17.1515 46.7217 17.8716 46.742 18.9773C46.758 19.85 46.7588 20.7235 46.7417 21.5962C46.7198 22.7036 46.002 23.4115 44.9002 23.4223C43.8625 23.4324 42.8247 23.4244 41.787 23.4244ZM38.8045 21.9167C40.8821 21.9167 42.8212 21.9126 44.7601 21.9209C45.074 21.9222 45.2047 21.8144 45.1995 21.4915C45.1863 20.6865 45.1856 19.8807 45.1997 19.0757C45.2055 18.7464 45.0641 18.649 44.7553 18.6537C43.9338 18.6662 43.1117 18.6523 42.2902 18.6635C42.1545 18.6653 41.9792 18.7004 41.8907 18.7887C40.8832 19.7941 39.8891 20.813 38.8045 21.9167Z" fill="black"/>
<path d="M8.99954 23.4425C7.99594 23.4426 6.99221 23.4527 5.98888 23.4401C4.72637 23.4241 4.05524 22.7311 4.05234 21.463C4.05036 20.6239 4.0447 19.7848 4.05406 18.9459C4.06579 17.9002 4.76236 17.1626 5.80432 17.1361C6.87304 17.1091 7.9436 17.1094 9.0118 17.1443C9.26055 17.1525 9.5594 17.2914 9.73948 17.4679C10.879 18.5848 11.9902 19.7306 13.1137 20.8638C13.5969 21.3512 13.8019 21.9108 13.5238 22.5675C13.2545 23.2043 12.73 23.4483 12.0594 23.4439C11.0396 23.4373 10.0196 23.4423 8.99954 23.4425ZM11.8702 21.9014C11.9016 21.8559 11.9329 21.8105 11.9643 21.765C11.5104 21.3452 11.0489 20.9333 10.6044 20.5038C9.97875 19.8994 9.4637 19.0443 8.7194 18.7368C7.97392 18.4287 7.00473 18.6619 6.13375 18.6579C6.11728 18.6578 6.10053 18.6599 6.08445 18.6577C5.68436 18.6019 5.5694 18.7994 5.5781 19.1717C5.59551 19.9111 5.59893 20.6516 5.57705 21.3907C5.56492 21.8 5.71547 21.9292 6.12387 21.9251C7.932 21.9067 9.74054 21.9174 11.5489 21.9164C11.656 21.9162 11.7632 21.9066 11.8702 21.9014Z" fill="black"/>
</svg>
