<svg width="30" height="31" viewBox="0 0 30 31" fill="none" xmlns="http://www.w3.org/2000/svg">
<path d="M22.8002 3.45508H7.20022C6.84057 3.46495 6.48829 3.55933 6.17187 3.73057C5.85545 3.90181 5.58376 4.14511 5.37879 4.44079L1.47879 9.84079C1.18919 10.25 1.04457 10.7442 1.06786 11.245C1.09115 11.7458 1.28103 12.2245 1.60736 12.6051L13.3074 26.0836C13.5077 26.3417 13.7643 26.5506 14.0577 26.6943C14.3511 26.838 14.6735 26.9127 15.0002 26.9127C15.3269 26.9127 15.6493 26.838 15.9427 26.6943C16.2361 26.5506 16.4928 26.3417 16.6931 26.0836L28.3931 12.6051C28.7194 12.2245 28.9093 11.7458 28.9326 11.245C28.9559 10.7442 28.8112 10.25 28.5216 9.84079L24.6216 4.44079C24.4167 4.14511 24.145 3.90181 23.8286 3.73057C23.5121 3.55933 23.1599 3.46495 22.8002 3.45508Z" stroke="#1BA1E3" stroke-width="1.5" stroke-linecap="round" stroke-linejoin="round"/>
<path d="M13.8858 3.43359L8.65723 11.5336L15.0001 26.855" stroke="#1BA1E3" stroke-width="1.5" stroke-linecap="round" stroke-linejoin="round"/>
<path d="M16.1786 3.43359L21.3857 11.5336L15 26.855" stroke="#1BA1E3" stroke-width="1.5" stroke-linecap="round" stroke-linejoin="round"/>
<path d="M1.11426 11.5332H28.8857" stroke="#1BA1E3" stroke-width="1.5" stroke-linecap="round" stroke-linejoin="round"/>
</svg>
