<svg width="40" height="40" viewBox="0 0 40 40" fill="none" xmlns="http://www.w3.org/2000/svg">
<path d="M16.2493 40C16.0142 39.9335 15.7769 39.874 15.5445 39.7992C12.8642 38.9375 11.716 35.6924 13.2545 33.3321C13.29 33.2778 13.3255 33.2237 13.3889 33.1269C12.2125 32.3828 11.5082 31.314 11.3448 29.9348C11.1829 28.5683 11.5687 27.361 12.5561 26.3647C12.3014 26.1232 12.0455 25.9021 11.8147 25.6575C11.0711 24.8697 10.6606 23.9147 10.4023 22.8735C9.0465 17.4114 7.68115 11.9516 6.31653 6.49177C5.69203 3.9932 3.78781 2.44912 1.21148 2.3438C0.494172 2.31443 -0.0203215 1.80067 0.000616598 1.13483C0.021138 0.481694 0.543965 0.00491689 1.24482 0.000229326C4.68763 -0.0232085 7.71105 2.4037 8.58274 5.89041C8.89483 7.13876 9.22255 8.38367 9.50891 9.63786C9.58714 9.98046 9.736 10.0505 10.0576 10.0502C18.5199 10.042 26.9823 10.0437 35.4447 10.0437C36.4731 10.0437 37.5024 10.0678 38.5298 10.0355C39.242 10.0131 39.7334 10.2718 40 10.9371C40 11.1194 40 11.3017 40 11.484C39.9696 11.5686 39.9316 11.6512 39.9097 11.738C39.2609 14.3224 38.6138 16.9073 37.9664 19.492C37.6664 20.6899 37.3755 21.8901 37.0647 23.0851C36.3551 25.8134 34.2792 27.4349 31.4703 27.439C26.3013 27.4465 21.1323 27.4406 15.9634 27.4433C15.7301 27.4434 15.4941 27.4565 15.2642 27.4933C14.3554 27.6387 13.714 28.3499 13.6652 29.2497C13.6107 30.2539 14.1428 31.0508 15.0603 31.2884C15.3458 31.3624 15.652 31.3823 15.9489 31.3826C20.7533 31.3881 25.5577 31.3842 30.3621 31.3908C30.7634 31.3914 31.171 31.4184 31.5645 31.4923C33.3875 31.8345 34.7584 33.3518 34.9194 35.176C35.1024 37.2486 34.0916 38.9855 32.2843 39.6746C31.9243 39.8118 31.5431 39.8929 31.1717 39.9999C30.8071 39.9999 30.4425 39.9999 30.0779 39.9999C30.0182 39.977 29.9604 39.9446 29.8987 39.9325C27.1628 39.3952 25.6437 36.5505 26.7151 33.9699C26.7425 33.9041 26.7558 33.8323 26.7774 33.757C24.7573 33.757 22.7622 33.757 20.7342 33.757C20.7848 33.886 20.8211 33.981 20.859 34.0754C21.7845 36.3761 20.5268 39.0494 18.1625 39.8042C17.943 39.8743 17.7205 39.9349 17.4995 40C17.0827 40 16.666 40 16.2493 40ZM10.2389 12.4045C10.2461 12.4971 10.2428 12.5499 10.2551 12.5989C11.0892 15.94 11.9156 19.283 12.7637 22.6205C13.1537 24.1553 14.3635 25.0911 15.9546 25.0938C21.1608 25.1026 26.3671 25.1024 31.5734 25.0939C33.1826 25.0913 34.3778 24.1461 34.7724 22.5846C35.5333 19.5736 36.2823 16.5596 37.0353 13.5467C37.1279 13.1759 37.2154 12.8039 37.312 12.4045C28.2588 12.4045 19.2697 12.4045 10.2389 12.4045ZM16.8574 33.7329C15.7663 33.7354 14.8971 34.6043 14.9053 35.6845C14.9139 36.8004 15.7426 37.6378 16.8465 37.6459C17.957 37.654 18.8211 36.794 18.8263 35.6753C18.8312 34.6086 17.941 33.7305 16.8574 33.7329ZM30.683 37.6458C31.7941 37.636 32.6543 36.756 32.6377 35.646C32.6217 34.576 31.7244 33.7189 30.6353 33.7332C29.5689 33.7471 28.6947 34.6252 28.7026 35.6743C28.711 36.7982 29.5722 37.6555 30.683 37.6458Z" fill="black"/>
</svg>
