<svg width="50" height="39" viewBox="0 0 50 39" fill="none" xmlns="http://www.w3.org/2000/svg">
<g clip-path="url(#clip0_341_2495)">
<path d="M0 13.0691C0.2956 12.1557 0.954313 11.6009 1.79432 11.2005C8.48201 8.01285 15.157 4.79858 21.8569 1.63629C24.0772 0.588383 26.372 0.611781 28.5853 1.68344C35.0785 4.82698 41.5527 8.00963 48.0359 11.1739C48.832 11.5624 49.5196 12.0464 49.7827 12.9543C50.0378 13.8341 49.6993 14.5241 49.0458 15.0678C48.7016 15.3541 48.2913 15.5725 47.8871 15.7736C45.9133 16.756 43.9375 17.7349 41.9469 18.6827C41.5729 18.8607 41.4795 19.072 41.4809 19.4578C41.4945 23.0622 41.4791 26.6667 41.499 30.271C41.5022 30.8497 41.322 31.295 40.9483 31.7208C37.9021 35.1934 34.1213 37.4483 29.6039 38.3535C23.2168 39.6334 17.2684 38.5536 11.9804 34.6254C10.7797 33.7334 9.75175 32.5999 8.69795 31.5251C8.44861 31.2707 8.30251 30.8055 8.29965 30.4357C8.27107 26.734 8.27804 23.0322 8.28929 19.3303C8.29036 18.999 8.21035 18.8114 7.89046 18.6664C7.02634 18.2745 6.18187 17.8393 5.25935 17.3867C5.25935 17.8802 5.25935 18.2815 5.25935 18.6827C5.25935 20.842 5.26203 23.0014 5.25578 25.1608C5.25506 25.4055 5.29347 25.5656 5.54423 25.6999C6.51266 26.2186 7.02509 27.0459 7.01259 28.1497C7.00008 29.2458 6.49355 30.0681 5.52387 30.5954C5.46868 30.6254 5.41742 30.6626 5.32472 30.7217C6.17276 33.4226 7.01991 36.1211 7.87795 38.854C5.4644 38.854 3.11371 38.854 0.713011 38.854C0.759093 38.6822 0.793743 38.5307 0.840182 38.3826C1.59767 35.9705 2.35229 33.5577 3.12032 31.1489C3.21516 30.8515 3.22213 30.6897 2.90241 30.4938C1.05951 29.3642 1.10917 26.8001 2.98636 25.7261C3.23534 25.5836 3.32018 25.4398 3.31929 25.1623C3.30982 22.3697 3.30893 19.577 3.32054 16.7844C3.32179 16.4966 3.23338 16.3409 2.97011 16.24C2.71362 16.1417 2.47428 15.9994 2.22262 15.8874C1.25349 15.4559 0.39187 14.909 0 13.8486C0 13.5887 0 13.329 0 13.0691ZM1.80914 13.4019C1.78646 13.4717 1.76377 13.5415 1.74109 13.6116C1.8713 13.6814 1.99829 13.7578 2.13207 13.8198C3.29928 14.3594 4.33826 15.0919 5.80804 14.8629C8.99534 14.3665 12.2137 14.0699 15.4192 13.6912C18.512 13.3258 21.6047 12.9569 24.6982 12.5972C25.3071 12.5265 25.7331 12.8326 25.8117 13.3558C25.8879 13.863 25.5495 14.266 24.9218 14.3539C24.0706 14.4732 23.215 14.5614 22.3613 14.6616C18.2856 15.1403 14.2095 15.6177 10.1338 16.0974C9.31219 16.1941 8.49148 16.2986 7.52859 16.4168C7.80883 16.5575 7.94975 16.631 8.09282 16.6997C12.8565 18.9859 17.6176 21.2779 22.3859 23.5542C24.2231 24.4312 26.0746 24.4398 27.9167 23.5426C32.2525 21.4307 36.5901 19.3226 40.924 17.207C43.0652 16.1617 45.2033 15.1099 47.3333 14.042C47.5937 13.9114 47.7946 13.6621 48.0231 13.4678C47.7989 13.2745 47.5764 13.0793 47.349 12.89C47.3006 12.8496 47.2345 12.8303 47.1761 12.8017C40.739 9.65695 34.3049 6.50573 27.8626 3.37148C26.0922 2.51023 24.291 2.5397 22.5065 3.35237C21.6365 3.74871 20.782 4.17934 19.92 4.59336C14.1782 7.35163 8.43575 10.1083 2.6963 12.8716C2.38712 13.0204 2.1042 13.2238 1.80914 13.4019ZM39.6527 19.732C39.3841 19.8611 39.1978 19.949 39.0127 20.0397C35.5486 21.7363 32.0862 23.4369 28.6199 25.129C26.3134 26.2552 23.9829 26.2448 21.6774 25.1603C18.0259 23.4426 14.3929 21.6851 10.7518 19.9452C10.5825 19.8643 10.4087 19.7925 10.1981 19.6993C10.1835 19.8277 10.1672 19.9038 10.1672 19.9801C10.1658 23.3726 10.1615 26.7649 10.1767 30.1575C10.1776 30.3573 10.294 30.5947 10.4303 30.7499C11.9345 32.4644 13.7042 33.8529 15.7391 34.8767C21.0044 37.5253 26.435 37.7927 31.9607 35.8231C34.8341 34.799 37.2963 33.1013 39.3319 30.8178C39.5134 30.6142 39.6318 30.2825 39.6384 30.0067C39.6698 28.6927 39.6525 27.3776 39.6525 26.0626C39.6527 23.9858 39.6527 21.9089 39.6527 19.732Z" fill="black"/>
</g>
<defs>
<clipPath id="clip0_341_2495">
<rect width="49.8679" height="38" fill="white" transform="translate(0 0.864868)"/>
</clipPath>
</defs>
</svg>
