<svg width="36" height="41" viewBox="0 0 36 41" fill="none" xmlns="http://www.w3.org/2000/svg">
<path d="M18.6543 40.8649C16.4368 40.2683 14.2189 39.6735 12.0021 39.0743C11.212 38.8607 10.4242 38.6383 9.63624 38.4164C9.01732 38.2421 8.42608 38.3107 7.85947 38.6077C7.62922 38.7285 7.41029 38.8747 7.17174 38.975C6.75221 39.1514 6.45297 39.357 6.49173 39.9048C6.51768 40.2714 6.22378 40.497 5.84769 40.4896C4.12988 40.456 2.41199 40.416 0.694839 40.3586C0.205174 40.3423 -0.013257 40.0693 0.000620744 39.5555C0.0834769 36.4846 0.172163 33.4138 0.258058 30.343C0.275877 29.7054 0.287209 29.0676 0.307 28.4302C0.324819 27.8558 0.558114 27.6321 1.13433 27.6452C2.73496 27.6817 4.33558 27.7205 5.93604 27.7643C6.65153 27.7838 6.85099 28.0119 6.82307 28.7338C6.81363 28.9785 6.82159 29.2238 6.82159 29.4739C7.38221 29.2765 7.9319 29.0455 8.50204 28.8886C10.5534 28.3242 12.5695 28.4689 14.4577 29.4459C15.6727 30.0746 16.9144 30.3895 18.2717 30.3822C19.4685 30.3758 20.6656 30.4484 21.863 30.4686C23.4579 30.4956 24.6884 31.1619 25.542 32.5143C25.5693 32.5575 25.6019 32.5974 25.6499 32.6636C26.0027 32.4992 26.3533 32.3377 26.7025 32.1729C28.1012 31.5126 29.493 30.837 30.8996 30.1942C32.3785 29.5185 34.1138 30.0219 35.0079 31.355C35.3653 31.8879 35.3048 32.2172 34.7731 32.5612C30.9836 35.0132 27.1975 37.4703 23.3992 39.9086C22.5767 40.4367 21.6271 40.6369 20.6711 40.7857C20.5446 40.8054 20.42 40.8382 20.2946 40.8649C19.7479 40.8649 19.2011 40.8649 18.6543 40.8649ZM24.7427 34.0763C24.4804 32.8025 23.4097 31.8636 22.1813 31.802C21.3495 31.7604 20.5163 31.7492 19.6837 31.7225C18.7342 31.692 17.7831 31.6839 16.8356 31.6214C15.7476 31.5497 14.8039 31.0409 13.8329 30.5919C11.5511 29.5368 9.29669 29.6562 7.09677 30.8775C6.85444 31.012 6.74999 31.1683 6.7435 31.4541C6.69735 33.484 6.63289 35.5133 6.57574 37.5429C6.57401 37.6035 6.58781 37.6645 6.60004 37.7774C6.7568 37.7007 6.88515 37.6489 7.0025 37.5787C8.02436 36.9682 9.09854 36.8762 10.2327 37.2105C11.4787 37.5778 12.7294 37.9298 13.983 38.2703C15.5244 38.689 17.054 39.1813 18.6203 39.4701C20.0792 39.7392 21.5554 39.5211 22.8331 38.7094C26.324 36.4918 29.7836 34.2249 33.2552 31.9771C33.368 31.9041 33.4772 31.8255 33.5981 31.7427C32.9282 31.1566 32.1495 31.0515 31.3441 31.4292C29.8734 32.1189 28.4071 32.8182 26.939 33.5136C26.6494 33.6508 26.3599 33.7881 26.0832 33.9193C26.1043 34.1858 26.1341 34.4053 26.1365 34.6251C26.1421 35.1459 25.8922 35.4123 25.3814 35.3995C22.8443 35.3358 20.3073 35.2662 17.7705 35.1904C17.2931 35.1761 17.0118 34.9032 17.0259 34.5179C17.0401 34.128 17.3371 33.8849 17.8114 33.8939C18.6312 33.9094 19.4508 33.9333 20.2705 33.9552C21.7524 33.9947 23.2341 34.0354 24.7427 34.0763ZM1.60773 29.0411C1.51642 32.3592 1.42445 35.7033 1.33092 39.1046C2.65596 39.1046 3.92352 39.1046 5.22228 39.1046C5.31368 35.7769 5.40524 32.4416 5.49861 29.0411C4.19853 29.0411 2.94066 29.0411 1.60773 29.0411Z" fill="black"/>
<path d="M18.025 28.6206C12.7713 28.6196 8.50885 24.361 8.51074 19.1147C8.51255 13.8736 12.7851 9.6092 18.0325 9.61084C23.2866 9.61256 27.5475 13.8715 27.5457 19.1198C27.5441 24.3669 23.2804 28.6216 18.025 28.6206ZM18.0122 27.3171C22.5083 27.3343 26.2022 23.677 26.2288 19.1822C26.2558 14.6315 22.6157 10.9488 18.0655 10.923C13.5485 10.8974 9.84794 14.5583 9.82798 19.072C9.80778 23.6133 13.467 27.2997 18.0122 27.3171Z" fill="black"/>
<path d="M17.3785 4.66019C17.3785 3.63216 17.3683 2.60406 17.3826 1.5762C17.3904 1.01633 17.9138 0.680467 18.3375 0.972475C18.5024 1.08613 18.6591 1.34586 18.6614 1.54081C18.6845 3.60958 18.6802 5.67869 18.6719 7.74763C18.6704 8.13957 18.3996 8.3998 18.0459 8.40974C17.6764 8.42008 17.3894 8.15427 17.3844 7.7441C17.372 6.71624 17.3803 5.68813 17.3803 4.66019C17.3797 4.66019 17.3791 4.66019 17.3785 4.66019Z" fill="black"/>
<path d="M23.5975 6.26272C23.5974 6.74409 23.6056 7.2257 23.5949 7.70683C23.5856 8.12792 23.3339 8.39875 22.9682 8.41C22.5858 8.42182 22.3071 8.14615 22.3021 7.70732C22.2914 6.75764 22.2911 5.80771 22.3018 4.85802C22.3067 4.41935 22.5859 4.14336 22.9679 4.15502C23.3362 4.16635 23.5852 4.4334 23.5952 4.85753C23.6062 5.32568 23.5977 5.79432 23.5975 6.26272Z" fill="black"/>
<path d="M12.4584 6.28373C12.4584 5.81533 12.4508 5.34686 12.4606 4.87863C12.4699 4.42944 12.7231 4.15583 13.1066 4.15509C13.49 4.15435 13.7508 4.42821 13.7551 4.87608C13.7643 5.81271 13.7641 6.74958 13.7554 7.68629C13.7513 8.13063 13.4885 8.40925 13.109 8.40991C12.7284 8.41056 12.4698 8.13309 12.4606 7.68875C12.4508 7.2206 12.4584 6.75204 12.4584 6.28373Z" fill="black"/>
<path d="M20.8327 21.2245C20.8267 22.4133 20.0777 23.4612 18.9206 23.8526C18.665 23.9391 18.5557 24.0527 18.5931 24.3187C18.6091 24.4328 18.6 24.5539 18.5821 24.6687C18.5286 25.0145 18.3013 25.1898 17.9711 25.2222C17.655 25.2532 17.2982 25.0005 17.3276 24.6808C17.384 24.0689 17.071 23.8379 16.5793 23.5794C15.7426 23.1392 15.3301 22.3564 15.233 21.4189C15.1833 20.9394 15.4252 20.5992 15.8215 20.5602C16.2178 20.5211 16.4995 20.8077 16.5446 21.2961C16.6223 22.138 17.2427 22.6991 18.0814 22.6859C18.8371 22.674 19.4696 22.0644 19.5124 21.3067C19.5577 20.5064 19.018 19.8311 18.196 19.7425C17.5949 19.6777 17.0104 19.6117 16.4951 19.2582C15.6041 18.647 15.1642 17.7941 15.24 16.7289C15.3181 15.6314 15.8841 14.8127 16.9051 14.3735C17.2275 14.2349 17.3362 14.0726 17.2984 13.7425C17.2641 13.4426 17.345 13.1686 17.6345 13.0088C18.0313 12.7896 18.5149 13.0319 18.5825 13.484C18.5997 13.5989 18.6065 13.7192 18.5934 13.8343C18.5651 14.0811 18.6589 14.1858 18.9047 14.2718C20.0467 14.6712 20.6697 15.5036 20.8231 16.6951C20.8661 17.0289 20.7931 17.3231 20.4735 17.4967C20.0271 17.7391 19.5671 17.4275 19.5141 16.8533C19.4257 15.8971 18.6389 15.2879 17.7256 15.4689C17.0232 15.6081 16.53 16.229 16.5438 16.9571C16.5571 17.6617 17.0655 18.2612 17.7592 18.3767C18.0918 18.432 18.4358 18.4368 18.7606 18.5198C19.984 18.8323 20.8391 19.963 20.8327 21.2245Z" fill="black"/>
</svg>
