<svg width="51" height="51" viewBox="0 0 51 51" fill="none" xmlns="http://www.w3.org/2000/svg">
<g clip-path="url(#clip0_341_2525)">
<path d="M12.8973 42.7595C11.7588 43.7761 10.6723 44.8057 9.52089 45.7567C8.47697 46.6189 7.31451 47.2977 5.94714 47.5395C3.72163 47.933 1.30092 45.9594 1.37528 43.8021C1.40829 42.8434 1.83116 42.0422 2.49962 41.3905C2.97773 40.9244 3.53182 40.5364 4.08873 40.0837C3.98985 40.0321 3.86282 39.9779 3.74844 39.9041C2.89084 39.3504 1.93462 38.9011 1.20029 38.2149C-0.533643 36.5942 -0.347061 34.1198 1.48925 32.6097C1.64566 32.4812 1.73659 32.1859 1.73713 31.9678C1.75033 26.1754 1.7599 20.383 1.73295 14.5908C1.72932 13.8216 1.92492 13.2144 2.39697 12.6082C3.81337 10.789 5.16902 8.92261 6.56764 7.08926C6.82832 6.74749 6.93663 6.40948 6.92963 5.98324C6.9078 4.63649 6.91898 3.28919 6.92262 1.94217C6.92464 1.16014 7.2035 0.868613 7.98338 0.867939C13.018 0.863763 18.0526 0.863763 23.0873 0.867939C23.8644 0.868613 24.148 1.15893 24.1521 1.94284C24.1595 3.32354 24.1366 4.70465 24.1682 6.08468C24.1752 6.39413 24.2838 6.75153 24.4655 6.99887C25.9408 9.00614 27.4388 10.9966 28.9447 12.9811C29.2243 13.3497 29.3506 13.7283 29.3453 14.1907C29.3279 15.7376 29.3387 17.2848 29.3387 18.8958C31.6371 19.0166 33.5728 20.0122 35.3776 21.3298C35.4273 21.3095 35.477 21.2893 35.5266 21.2689C35.444 20.5987 35.4419 19.906 35.2622 19.2629C34.8738 17.8726 34.3958 16.5073 33.9516 15.1328C33.1862 12.764 33.4395 10.4927 34.6099 8.24526C35.114 8.49651 35.6033 8.74034 36.1047 8.99024C35.9044 9.51846 35.6962 10.0091 35.5311 10.5137C35.0802 11.8912 35.1614 13.2632 35.6031 14.6299C36.068 16.0682 36.5292 17.5079 36.9716 18.9532C37.0829 19.3165 37.1163 19.7035 37.191 20.1098C37.7024 19.8904 38.1851 19.6614 38.683 19.4732C42.0396 18.2043 45.1843 19.1205 47.3221 21.9991C48.773 23.9527 49.5013 26.1964 49.8454 28.5722C50.3554 32.0909 49.7621 35.4082 47.9156 38.4722C46.8565 40.2295 45.4723 41.6772 43.7311 42.7704C44.5663 43.4305 45.4261 44.0304 46.1876 44.7363C46.8228 45.325 47.434 45.9804 47.8936 46.7089C48.6665 47.934 48.2857 49.1185 47.0033 49.8023C45.8191 50.4339 44.5112 50.6005 43.2022 50.714C39.7673 51.0115 36.3391 50.8291 32.9151 50.5175C29.1093 50.1711 25.324 49.6745 21.601 48.7925C19.6678 48.3345 17.7718 47.7455 16.0207 46.7777C14.623 46.0051 13.5085 44.9717 13.0494 43.3744C12.9896 43.1653 12.9447 42.9522 12.8973 42.7595ZM35.2449 23.3607C34.9329 23.14 34.6704 22.9633 34.4172 22.7738C33.4016 22.014 32.3268 21.3612 31.1124 20.9695C28.8594 20.2428 26.8443 20.6447 25.2957 22.469C22.7593 25.4571 22.1711 29.0065 22.5889 32.7904C22.6029 32.9169 22.831 33.0736 22.9883 33.1219C24.0956 33.4624 25.2327 33.7167 26.3192 34.112C31.6578 36.0542 36.7411 38.5372 41.6039 41.4699C41.9449 41.6755 42.1858 41.664 42.51 41.4807C43.7923 40.7559 44.8525 39.7843 45.723 38.6086C47.9313 35.6262 48.6753 32.2797 48.1158 28.636C47.782 26.4624 47.0851 24.4232 45.655 22.7004C44.78 21.6465 43.7136 20.8955 42.3185 20.6992C40.4735 20.4398 38.8868 21.1257 37.3685 22.0542C37.279 22.1089 37.1855 22.22 37.1673 22.3185C37.0315 23.0495 36.9145 23.7841 36.7915 24.5175C36.8241 24.5474 36.8567 24.5772 36.8894 24.6071C37.1437 24.327 37.3981 24.0469 37.6702 23.7473C38.1315 24.0143 38.6058 24.289 39.1047 24.5778C38.1808 26.0053 36.9234 26.7447 35.2805 26.7154C33.7053 26.6871 32.5049 25.9495 31.6316 24.5728C32.146 24.2775 32.6213 24.0047 33.1187 23.7192C33.5347 24.3353 34.0486 24.7639 34.7885 24.9117C34.8695 24.6743 34.9534 24.4556 35.0183 24.2316C35.102 23.9422 35.1707 23.6487 35.2449 23.3607ZM31.9936 48.6583C32.0729 48.6833 32.1192 48.7066 32.1676 48.7117C35.4865 49.0641 38.8153 49.266 42.1486 49.0592C43.3963 48.9818 44.6439 48.7173 45.8627 48.4199C46.6777 48.221 46.7361 47.8984 46.2132 47.2321C45.1592 45.8887 43.761 44.9511 42.3364 43.9601C42.0725 44.8465 41.8257 45.676 41.5686 46.5394C40.9982 46.3714 40.4753 46.2174 39.9248 46.0552C40.1819 45.1724 40.3981 44.343 40.6701 43.5324C40.806 43.1273 40.7324 42.9268 40.3525 42.7016C36.7885 40.5884 33.0865 38.7513 29.284 37.1129C28.4288 36.7444 27.5578 36.4133 26.6674 36.0543C25.9463 38.5341 25.2448 40.9465 24.5323 43.3966C23.9433 43.2232 23.4209 43.0695 22.8835 42.9113C23.6072 40.4097 24.315 37.9624 25.031 35.4871C23.2354 34.9177 21.4717 34.4318 19.6212 34.3846C17.8536 34.3396 16.5238 35.102 15.8851 36.7575C15.3681 38.0975 14.9196 39.4886 14.6588 40.8973C14.2784 42.9518 14.9381 44.1786 16.7667 45.2078C17.4515 45.5933 18.1857 45.9035 18.9225 46.1817C21.5652 47.1793 24.3324 47.6609 27.1093 48.0894C28.1365 48.2478 29.1683 48.3757 30.2255 48.5213C30.5448 47.4387 30.8508 46.401 31.1683 45.3245C31.7476 45.4948 32.2705 45.6486 32.8107 45.8075C32.5292 46.7895 32.262 47.7216 31.9936 48.6583ZM4.62598 33.4384C4.6179 33.4611 4.60982 33.4838 4.6016 33.5065C4.2019 33.5527 3.796 33.5692 3.40357 33.6502C1.77552 33.9861 1.1953 35.7353 2.35426 36.9294C2.8119 37.4009 3.39616 37.7936 3.99187 38.0764C4.88289 38.4994 5.83048 38.8064 6.76312 39.1367C7.20216 39.2922 7.5213 39.5306 7.5209 40.0206C7.52049 40.4851 7.21805 40.7244 6.80407 40.8876C6.14935 41.1458 5.46877 41.3757 4.87588 41.7419C4.33042 42.0787 3.81499 42.5224 3.41502 43.0221C2.87023 43.7025 2.98177 44.4657 3.62774 45.0543C4.44492 45.7988 5.37298 46.1223 6.44869 45.615C6.78238 45.4576 7.1189 45.3 7.43252 45.1072C8.87762 44.2192 10.0712 43.0361 11.2773 41.8592C12.4628 40.7024 13.3556 39.4075 13.6058 37.7381C13.6794 37.2467 13.827 36.7387 13.7662 36.2604C13.6289 35.179 13.4268 34.101 13.1709 33.041C12.784 31.4385 12.3091 29.8627 11.3572 28.4773C10.7065 27.5303 9.72499 27.2932 8.5865 27.5429C7.81283 27.7127 7.44316 28.2486 7.43091 29.0456C7.41851 29.8491 7.71165 30.5653 8.11728 31.2293C8.45798 31.787 8.86321 32.3055 9.24472 32.8381C9.48546 33.1741 9.5318 33.5214 9.29133 33.868C9.05477 34.2092 8.71785 34.3169 8.31599 34.213C8.15339 34.171 7.99429 34.1132 7.83007 34.0799C6.76258 33.8634 5.69401 33.6516 4.62598 33.4384ZM3.5069 21.5757C3.5069 25.0232 3.5069 28.4139 3.5069 31.7876C4.51915 31.8338 5.49733 31.8784 6.46297 31.9224C6.26386 31.3923 6.02164 30.8722 5.87157 30.3267C5.25106 28.0712 6.33041 26.1469 8.45906 25.7996C10.195 25.5163 11.6935 25.9767 12.7605 27.4827C13.7502 28.8793 14.2862 30.4665 14.7119 32.0986C14.9118 32.8653 15.0716 33.6425 15.2393 34.3703C15.779 33.988 16.2716 33.5771 16.8228 33.2716C17.1526 33.0887 17.2629 32.913 17.2614 32.5445C17.2467 29.0616 17.2526 25.5785 17.2526 22.0956C17.2526 21.932 17.2526 21.7683 17.2526 21.5758C12.6466 21.5757 8.09559 21.5757 3.5069 21.5757ZM27.6115 14.6847C24.7023 14.6847 21.8647 14.6847 19.0073 14.6847C19.0073 20.6827 19.0073 26.6502 19.0073 32.6679C19.6134 32.6679 20.1891 32.6679 20.7926 32.6679C20.7822 32.4682 20.7759 32.2847 20.7628 32.1016C20.5745 29.471 20.9718 26.9278 22.0005 24.5036C23.0565 22.015 24.616 19.9965 27.3426 19.1556C27.452 19.122 27.5987 18.9635 27.6001 18.8617C27.617 17.4841 27.6115 16.1061 27.6115 14.6847ZM17.2266 14.6936C12.6342 14.6936 8.06771 14.6936 3.50164 14.6936C3.50164 16.4108 3.50164 18.0884 3.50164 19.7807C8.09506 19.7807 12.6604 19.7807 17.2266 19.7807C17.2266 18.0619 17.2266 16.3845 17.2266 14.6936ZM21.5114 7.83842C21.4121 7.79693 21.3834 7.77443 21.3548 7.77429C17.0615 7.77106 12.7684 7.76635 8.47509 7.77955C8.31343 7.78009 8.10314 7.9179 7.9986 8.05518C6.84556 9.56736 5.70829 11.0917 4.56954 12.6148C4.50703 12.6984 4.47012 12.8014 4.40181 12.9327C8.7875 12.9327 13.1139 12.9342 17.4403 12.9253C17.5684 12.925 17.7425 12.8507 17.8174 12.7521C19.0471 11.1321 20.2641 9.50257 21.5114 7.83842ZM22.4018 2.62733C17.7912 2.62733 13.24 2.62733 8.68282 2.62733C8.68282 3.77673 8.68282 4.89191 8.68282 6.01019C13.2735 6.01019 17.8255 6.01019 22.4018 6.01019C22.4018 4.87251 22.4018 3.76865 22.4018 2.62733ZM23.2957 8.33498C22.1372 9.88152 21.025 11.366 19.8847 12.888C22.1903 12.888 24.4205 12.888 26.7111 12.888C25.5602 11.3538 24.453 9.87761 23.2957 8.33498Z" fill="black"/>
<path d="M40.0259 16.3848C38.5315 16.3186 37.3519 15.6828 36.4866 14.4573C36.1776 14.0196 36.1711 13.6102 36.4679 13.1529C38.1392 10.5781 42.0124 10.5754 43.6816 13.1492C43.9758 13.6028 43.9793 14.0143 43.6682 14.4544C42.7783 15.7136 41.5652 16.3492 40.0259 16.3848ZM41.97 13.793C40.8946 12.6425 39.1881 12.6523 38.1916 13.7942C39.1869 14.9382 40.9105 14.9483 41.97 13.793Z" fill="black"/>
</g>
<defs>
<clipPath id="clip0_341_2525">
<rect width="50.0205" height="50" fill="white" transform="translate(0 0.864868)"/>
</clipPath>
</defs>
</svg>
