<svg width="50" height="51" viewBox="0 0 50 51" fill="none" xmlns="http://www.w3.org/2000/svg">
<path d="M36.316 30.9504C37.6876 30.2495 39.0697 29.5306 40.4633 28.8348C41.7102 28.2122 42.9054 28.3276 43.9883 29.2087C45.2961 30.2727 45.215 31.8382 43.8213 32.7746C39.5091 35.6715 35.1911 38.5598 30.8825 41.4619C29.189 42.6025 27.3448 42.891 25.3454 42.6341C22.7284 42.2979 20.1057 41.9793 17.4758 41.7843C16.4403 41.7075 15.3786 41.9844 14.2693 42.1069C14.3667 42.5879 14.4385 42.9471 14.5126 43.306C14.6337 43.8936 14.4632 44.18 13.8877 44.3057C12.2557 44.662 10.6223 45.0123 8.9885 45.3604C8.49154 45.4663 8.18554 45.2691 8.07977 44.7671C7.08951 40.0657 6.1019 35.364 5.11662 30.6618C5.02092 30.2052 5.20856 29.8944 5.66026 29.7945C7.31797 29.4275 8.97722 29.0668 10.639 28.7187C11.1979 28.6015 11.4492 28.7901 11.5777 29.3665C11.7063 29.9428 11.8277 30.5206 11.9535 31.1033C12.5595 30.8006 13.1155 30.4652 13.712 30.235C16.159 29.2906 18.5545 29.4511 20.8772 30.6643C22.0032 31.2525 23.1297 31.8403 24.241 32.4553C24.9968 32.8735 25.7163 32.8824 26.4836 32.4778C28.0958 31.6279 29.7432 30.8439 31.3416 29.9696C33.2275 28.9379 35.2285 29.5403 36.2189 30.8925C36.2335 30.9124 36.2644 30.9203 36.316 30.9504ZM16.7546 36.3319C16.9019 36.3572 17.0096 36.3696 17.1144 36.3946C19.1826 36.8875 21.2493 37.3876 23.3191 37.8745C24.8216 38.2279 26.2676 38.0576 27.6048 37.2776C30.0749 35.8369 32.5297 34.3701 34.9876 32.9088C35.4862 32.6124 35.5552 32.2373 35.2275 31.7622C34.5512 30.7819 33.2947 30.4805 32.1677 31.0517C30.4555 31.9193 28.7487 32.7976 27.0447 33.6811C25.8983 34.2754 24.7752 34.2581 23.6422 33.6372C22.5402 33.0334 21.4291 32.4452 20.3121 31.8696C17.6498 30.4977 15.0789 30.6691 12.5942 32.3377C12.3344 32.5122 12.2651 32.6788 12.3318 32.9821C12.6695 34.5194 12.9847 36.0618 13.3097 37.602C13.5398 38.6931 13.7728 39.7837 14.0093 40.8971C14.2299 40.8529 14.4183 40.8178 14.6054 40.7771C15.577 40.566 16.5437 40.3134 17.5538 40.4247C20.1773 40.7137 22.8065 40.9598 25.4222 41.307C27.2969 41.5558 28.9721 41.228 30.5235 40.1168C31.9832 39.0713 33.4999 38.1051 34.9918 37.1043C37.7 35.2873 40.4089 33.4714 43.1162 31.6528C43.6985 31.2617 43.7377 30.8245 43.246 30.3237C42.6879 29.7555 41.8575 29.6142 41.1055 29.9927C39.7363 30.6817 38.3729 31.3823 37.0161 32.0953C36.8863 32.1635 36.7571 32.3443 36.7361 32.4886C36.6372 33.1677 36.2992 33.6735 35.7173 34.019C33.2347 35.4929 30.7576 36.9764 28.2635 38.4305C26.7885 39.2904 25.1794 39.5849 23.5067 39.2524C21.8829 38.9296 20.2792 38.5063 18.667 38.1258C17.9329 37.9526 17.1997 37.7762 16.4527 37.5981C16.5576 37.1576 16.6498 36.7709 16.7546 36.3319ZM6.53967 30.9594C7.4515 35.3076 8.35325 39.6073 9.26143 43.9378C10.5619 43.658 11.8119 43.3891 13.1101 43.1097C12.198 38.7603 11.2941 34.4492 10.388 30.1286C9.08696 30.4094 7.84745 30.6771 6.53967 30.9594Z" fill="black"/>
<path d="M25.005 7.88936C26.5425 6.62275 28.255 5.84302 30.2069 5.63227C32.7286 5.3599 34.7839 6.25811 36.4144 8.1666C38.1814 10.2348 38.6158 12.6232 38.0721 15.2372C38.0608 15.2912 38.047 15.345 38.0394 15.3995C38.0358 15.4261 38.0439 15.4542 38.0505 15.5202C38.9977 15.5202 39.9491 15.5288 40.8997 15.5073C40.9984 15.5051 41.1187 15.3373 41.1855 15.2214C41.6915 14.3433 42.7152 13.9696 43.651 14.3326C44.5507 14.6815 45.0825 15.6464 44.8857 16.5729C44.6766 17.5569 43.8007 18.2406 42.8066 18.1696C42.0781 18.1175 41.5205 17.7613 41.1816 17.1117C41.0761 16.9095 40.9639 16.8409 40.7408 16.8438C39.8007 16.8562 38.8601 16.8407 37.9202 16.8593C37.7972 16.8617 37.6062 16.9763 37.5657 17.0838C36.475 19.9754 34.6249 22.3534 32.5209 24.5571C30.3945 26.7843 28.0187 28.724 25.5463 30.5507C25.2055 30.8025 24.8943 30.873 24.531 30.604C21.4007 28.2872 18.4113 25.8135 15.9071 22.8065C14.2225 20.7835 12.8013 18.6036 12.1101 16.0264C11.5318 13.8703 11.458 11.7254 12.5581 9.69596C13.9539 7.12136 16.0634 5.56877 19.0694 5.58403C21.222 5.59499 23.1392 6.39706 24.8188 7.74863C24.8715 7.79112 24.9269 7.8305 25.005 7.88936ZM24.9942 29.2998C26.8903 27.9005 28.6895 26.4367 30.3642 24.8245C32.4047 22.8602 34.2607 20.7472 35.5865 18.2181C35.813 17.786 36.0035 17.3352 36.2313 16.8488C34.725 16.8488 33.3013 16.8528 31.8776 16.8477C30.463 16.8426 30.6807 17.0013 29.9582 15.7357C29.461 14.8651 28.9606 13.9962 28.4371 13.0836C28.3606 13.2483 28.3038 13.3573 28.2583 13.4709C27.2018 16.1107 26.1465 18.7507 25.091 21.3909C25.0552 21.4807 25.0229 21.5718 24.9865 21.6612C24.8601 21.9715 24.6442 22.1708 24.2946 22.1492C23.9672 22.129 23.7715 21.9276 23.6786 21.62C23.6506 21.5275 23.6215 21.4353 23.593 21.343C22.9345 19.2063 22.2761 17.0696 21.617 14.9331C21.5791 14.8105 21.5337 14.6903 21.4711 14.5088C21.0761 15.1669 20.7064 15.7644 20.3566 16.3733C20.1641 16.7082 19.904 16.8572 19.5132 16.8538C18.1307 16.8414 16.7479 16.8496 15.3652 16.8476C15.2613 16.8475 15.1573 16.8273 15.069 16.8181C15.069 16.3709 15.069 15.9613 15.069 15.5214C16.2661 15.5214 17.4398 15.4917 18.6107 15.535C19.1291 15.5543 19.4311 15.416 19.6796 14.9431C20.1094 14.1251 20.6001 13.3363 21.1111 12.5657C21.2313 12.3844 21.5461 12.216 21.7496 12.2385C21.9549 12.2611 22.145 12.5169 22.3173 12.6944C22.3859 12.7651 22.3892 12.8994 22.4216 13.0049C23.0335 14.9972 23.6451 16.9894 24.2579 18.9814C24.299 19.1153 24.3489 19.2465 24.425 19.4662C24.5357 19.1991 24.6056 19.0352 24.6716 18.8698C25.6498 16.4215 26.6285 13.9735 27.6039 11.5242C27.731 11.2052 27.8697 10.9047 28.2704 10.8767C28.6695 10.8488 28.851 11.1202 29.0218 11.4219C29.7432 12.6959 30.4674 13.9685 31.2062 15.2325C31.2809 15.3602 31.4601 15.5073 31.5924 15.5088C33.1961 15.5277 34.8002 15.5254 36.404 15.5107C36.5057 15.5098 36.6737 15.3762 36.6966 15.2777C36.9786 14.0684 37.0992 12.8495 36.78 11.6269C36.1676 9.28109 33.9931 6.70052 30.618 6.90408C28.7081 7.01925 27.0952 7.86137 25.664 9.08605C25.0958 9.57227 24.9071 9.57924 24.3541 9.09943C23.5548 8.40567 22.6706 7.84776 21.6901 7.44551C18.7846 6.25357 16.0738 6.99435 14.2311 9.49029C13.0628 11.0728 12.8378 12.8462 13.1808 14.735C13.5619 16.8342 14.5244 18.6719 15.7439 20.3854C18.2605 23.9216 21.5255 26.6856 24.9942 29.2998ZM42.9052 16.8459C43.2608 16.8559 43.5681 16.5694 43.5841 16.2133C43.6 15.8583 43.3175 15.5454 42.9622 15.5248C42.5901 15.5031 42.2681 15.8035 42.2628 16.1775C42.2578 16.5335 42.5483 16.8358 42.9052 16.8459Z" fill="black"/>
<path d="M10.3799 15.5505C10.3799 15.9873 10.3799 16.3963 10.3799 16.8269C8.62654 16.8269 6.89129 16.8269 5.12207 16.8269C5.12207 16.4188 5.12207 15.9996 5.12207 15.5505C6.855 15.5505 8.59999 15.5505 10.3799 15.5505Z" fill="black"/>
<path d="M8.36165 33.2769C8.26772 32.8298 8.18364 32.43 8.09082 31.9878C8.51609 31.8943 8.92498 31.8045 9.37481 31.7056C9.46829 32.1308 9.55835 32.5407 9.65847 32.9964C9.23088 33.0889 8.82232 33.1773 8.36165 33.2769Z" fill="black"/>
</svg>
