<svg width="48" height="51" viewBox="0 0 48 51" fill="none" xmlns="http://www.w3.org/2000/svg">
<g clip-path="url(#clip0_341_2538)">
<path d="M28.9683 25.3209C30.0846 26.1727 31.2461 26.9221 32.243 27.8485C34.1845 29.6527 35.3071 31.9393 35.7705 34.5439C36.0145 35.9159 34.966 37.262 33.5776 37.3902C33.4482 37.4022 33.3172 37.4025 33.1868 37.4025C26.8925 37.4031 20.5982 37.406 14.3038 37.4007C12.8033 37.3993 11.6527 36.3347 11.7038 34.9338C11.7264 34.3116 11.8824 33.68 12.0679 33.0804C13.0969 29.7528 15.1577 27.271 18.2492 25.6534C18.3316 25.6104 18.4161 25.5706 18.4953 25.5225C18.5242 25.5049 18.5412 25.4676 18.5925 25.4033C17.2476 23.7869 16.7537 21.9211 17.1686 19.8469C17.5018 18.1818 18.3335 16.7914 19.6729 15.739C22.2471 13.716 25.9867 13.9249 28.3157 16.1742C30.5023 18.2857 31.5009 22.2314 28.9683 25.3209ZM23.7204 35.6151C26.8482 35.6151 29.9762 35.617 33.104 35.6137C33.8735 35.613 34.1085 35.3215 33.9469 34.5706C33.1801 31.011 31.1224 28.4919 27.8216 26.9713C27.4976 26.822 27.2416 26.807 26.8953 26.9874C24.7818 28.0891 22.6569 28.0666 20.5293 26.9844C20.3219 26.8789 19.9865 26.8581 19.7764 26.9494C16.4397 28.3995 14.3633 30.9077 13.5673 34.4609C13.3659 35.36 13.5868 35.6145 14.5044 35.6148C17.5764 35.6158 20.6485 35.6151 23.7204 35.6151ZM23.7483 26.0013C26.5279 25.9975 28.6517 23.8496 28.6349 21.0595C28.6182 18.2802 26.5201 16.1693 23.7636 16.1583C20.9845 16.1471 18.8529 18.2781 18.8485 21.0718C18.8441 23.865 20.9712 26.0051 23.7483 26.0013Z" fill="black"/>
<path d="M44.281 35.3209C45.4063 32.4172 45.9129 29.4273 45.7235 26.3415C45.4043 21.1413 43.4876 16.5977 39.9568 12.7554C38.1107 10.7465 35.9406 9.16604 33.4789 7.98686C32.6145 7.57294 32.3499 7.12714 32.6266 6.57137C32.8955 6.0311 33.3974 5.94989 34.2295 6.35681C41.088 9.71049 45.2293 15.2263 46.967 22.5775C48.0211 27.0364 47.6985 31.444 46.038 35.732C45.9245 36.0253 45.9328 36.2045 46.1784 36.4493C47.584 37.8511 47.8205 39.9104 46.8019 41.5716C45.8135 43.1838 43.8543 43.9249 42.051 43.3688C40.2578 42.8161 39.0388 41.1191 39.1124 39.2785C39.1909 37.3171 40.5158 35.7079 42.444 35.3376C43.0144 35.2283 43.6236 35.3209 44.281 35.3209ZM43.2805 37.0341C41.9923 37.0385 40.954 38.0883 40.9518 39.3891C40.9496 40.6842 41.9942 41.7507 43.272 41.7576C44.5753 41.7646 45.653 40.677 45.6383 39.3697C45.6235 38.0797 44.5638 37.0298 43.2805 37.0341Z" fill="black"/>
<path d="M0.681113 27.5539C0.613616 16.7111 8.16744 7.19092 18.9063 4.68505C19.8508 4.46468 20.4244 4.20914 20.8027 3.18358C21.503 1.28473 23.7741 0.449592 25.8186 1.10236C27.8075 1.73739 28.9403 3.68511 28.558 5.81267C28.1985 7.81388 26.3495 9.28048 24.2959 9.15577C22.5767 9.05147 21.3604 8.17759 20.6715 6.60818C20.5189 6.26072 20.3773 6.19665 20.0133 6.26831C10.8293 8.07642 3.89026 15.4228 2.66847 24.7182C2.49741 26.0197 2.56312 27.3526 2.52364 28.6711C2.51529 28.9496 2.55016 29.2309 2.52364 29.5068C2.47343 30.0303 2.13252 30.3624 1.65706 30.3448C1.16268 30.3265 0.842777 30.0456 0.792862 29.5593C0.72477 28.894 0.715681 28.2226 0.681113 27.5539ZM24.4601 2.64197C23.1872 2.6527 22.146 3.72355 22.1494 5.01851C22.1528 6.32508 23.1837 7.3721 24.4715 7.37717C25.7736 7.38223 26.8411 6.29111 26.818 4.97858C26.7952 3.68228 25.7346 2.63124 24.4601 2.64197Z" fill="black"/>
<path d="M7.27506 41.0141C10.7219 45.1998 15.0552 47.8363 20.359 48.7762C26.0131 49.7781 31.2626 48.6565 36.0862 45.541C36.6957 45.1473 37.1424 45.1559 37.485 45.5563C37.8703 46.0066 37.7214 46.6021 37.1108 47.0059C34.8575 48.4964 32.4378 49.6478 29.7972 50.2182C20.5202 52.2218 12.6748 49.6979 6.32414 42.6283C5.97236 42.2368 5.72964 42.097 5.18251 42.2566C3.26847 42.8149 1.25206 41.8398 0.39412 40.0255C-0.449216 38.2422 0.0967178 36.0984 1.68907 34.9394C3.3154 33.7556 5.53132 33.8879 6.97214 35.2549C8.43234 36.6402 8.70098 38.8263 7.61671 40.5085C7.51674 40.6636 7.41005 40.8147 7.27506 41.0141ZM4.16783 35.9162C2.87123 35.9117 1.79904 36.9513 1.78652 38.2251C1.774 39.491 2.83622 40.5683 4.12223 40.5943C5.42195 40.6206 6.52887 39.5384 6.52753 38.2422C6.52634 36.9585 5.47351 35.9207 4.16783 35.9162Z" fill="black"/>
</g>
<defs>
<clipPath id="clip0_341_2538">
<rect width="47.5746" height="50" fill="white" transform="translate(0 0.882874)"/>
</clipPath>
</defs>
</svg>
