<svg width="51" height="50" viewBox="0 0 51 50" fill="none" xmlns="http://www.w3.org/2000/svg">
<path d="M50.1243 24.9822C50.1243 29.8848 50.1245 34.7875 50.1241 39.6901C50.124 40.5925 50.0388 40.7145 49.1912 41.0328C41.2785 44.0034 33.3664 46.9757 25.4493 49.9343C25.23 50.0163 24.9282 50.0243 24.711 49.9431C16.7434 46.9658 8.78284 43.9695 0.81521 40.9922C0.210478 40.7662 0.00456453 40.3992 0.005097 39.7767C0.0129319 29.8415 0.00707474 19.9062 5.15417e-07 9.97098C-0.000379819 9.47891 0.209717 9.19289 0.676692 9.01832C8.53981 6.07925 16.4004 3.13333 24.2567 0.175922C24.7842 -0.0226883 25.249 -0.0750224 25.8016 0.133553C33.673 3.10465 41.5517 6.05643 49.4321 9.00356C49.9166 9.18476 50.1388 9.4764 50.1381 9.99593C50.1309 14.9914 50.1338 19.9869 50.1338 24.9823C50.1306 24.9822 50.1275 24.9822 50.1243 24.9822ZM48.5124 11.0215C48.2659 11.1057 48.1103 11.1544 47.958 11.2116C40.8134 13.8915 33.6714 16.5782 26.52 19.24C26.0239 19.4247 25.8597 19.6451 25.8608 20.1776C25.8789 29.2373 25.8738 38.297 25.8738 47.3567C25.8738 47.57 25.8738 47.7833 25.8738 48.0544C26.1227 47.9682 26.2957 47.9123 26.4659 47.8486C33.5962 45.1756 40.7242 42.496 47.8612 39.8407C48.3579 39.6559 48.5267 39.4341 48.5256 38.8978C48.5073 29.8381 48.5125 20.7784 48.5125 11.7187C48.5124 11.5169 48.5124 11.3152 48.5124 11.0215ZM1.62494 10.9994C1.62494 11.2767 1.62494 11.4416 1.62494 11.6064C1.62494 20.7437 1.6292 29.8809 1.61247 39.0181C1.61163 39.485 1.78879 39.652 2.18715 39.8007C9.09829 42.3804 16.0041 44.974 22.9116 47.5635C23.34 47.7241 23.7719 47.8754 24.2364 48.0435C24.2485 47.8934 24.2621 47.8046 24.2622 47.7158C24.2632 38.4486 24.2606 29.1814 24.2733 19.9142C24.2738 19.528 24.0893 19.4081 23.7909 19.2973C22.0054 18.6344 20.2235 17.9618 18.4392 17.2955C18.2437 17.2225 18.0412 17.1685 17.7927 17.0902C17.7927 19.4639 17.7915 21.7652 17.7938 24.0666C17.7943 24.5151 17.7418 24.93 17.2452 25.113C16.7693 25.2884 16.4775 25.0036 16.1913 24.6927C15.1475 23.5586 14.0916 22.4354 13.061 21.2895C12.8169 21.0181 12.614 20.9358 12.2539 21.0669C11.3315 21.4026 10.3923 21.6934 9.4574 21.9942C8.51729 22.2967 8.11558 22.0094 8.11452 21.0344C8.11193 18.6758 8.10478 16.3172 8.12243 13.9587C8.12532 13.5699 8.03373 13.3544 7.63651 13.2437C7.19304 13.1202 6.77133 12.9197 6.3382 12.7578C4.80066 12.1828 3.26213 11.6099 1.62494 10.9994ZM38.9482 6.78827C37.098 6.09294 35.3961 5.46478 33.7047 4.80916C33.3131 4.65733 32.973 4.6711 32.5868 4.81654C25.6712 7.41985 18.7519 10.0134 11.8337 12.6099C11.6713 12.6709 11.5127 12.7425 11.2475 12.8527C13.0656 13.5381 14.7599 14.166 16.4442 14.8197C16.8525 14.9782 17.2109 14.9647 17.6166 14.8119C23.6479 12.5395 29.6838 10.2794 35.7181 8.01477C36.7532 7.62622 37.7854 7.22999 38.9482 6.78827ZM3.29499 9.75031C3.30001 9.79321 3.30503 9.83612 3.31005 9.87902C5.00201 10.5152 6.68704 11.1707 8.39178 11.7706C8.72138 11.8866 9.16629 11.889 9.49285 11.7679C15.3321 9.60282 21.1617 7.41118 26.9926 5.2235C28.2547 4.74998 29.5142 4.26954 30.871 3.75594C28.9467 3.03726 27.1277 2.34961 25.2992 1.68798C25.1194 1.62294 24.8653 1.67322 24.6736 1.7448C19.1013 3.82577 13.5327 5.91662 7.96314 8.00496C6.40765 8.58824 4.85109 9.16863 3.29499 9.75031ZM19.3039 15.875C21.1257 16.5609 22.823 17.1898 24.5108 17.8431C24.8958 17.9921 25.229 17.9975 25.6215 17.8496C32.5586 15.2361 39.5011 12.6367 46.4417 10.0324C46.5871 9.97791 46.7242 9.901 46.9563 9.79162C45.1933 9.13082 43.5258 8.52358 41.8745 7.87519C41.4251 7.69871 41.0462 7.70997 40.5994 7.87861C35.1033 9.95334 29.6003 12.01 24.0994 14.0723C22.541 14.6566 20.9834 15.2436 19.3039 15.875ZM16.1746 22.3131C16.1746 20.3131 16.1813 18.4847 16.1593 16.6567C16.1578 16.5396 15.9553 16.3743 15.8123 16.318C14.9704 15.9865 14.1176 15.6828 13.2699 15.3658C12.0991 14.9279 10.9294 14.4865 9.7422 14.0402C9.7422 16.1242 9.7422 18.1458 9.7422 20.2237C10.6577 19.9204 11.5266 19.6637 12.3709 19.342C12.9409 19.125 13.3501 19.2343 13.7489 19.6863C14.4965 20.5339 15.2806 21.3494 16.1746 22.3131Z" fill="black"/>
<path d="M29.0698 40.1555C29.0698 39.5056 29.0839 38.8552 29.0652 38.2058C29.0509 37.7121 29.2516 37.4038 29.7171 37.231C31.7156 36.4894 33.7077 35.7306 35.707 34.991C36.4541 34.7146 36.9192 35.0281 36.9298 35.8251C36.9476 37.1619 36.9319 38.4991 36.9354 39.8362C36.9366 40.3057 36.7142 40.5945 36.2782 40.757C34.2636 41.5078 32.2553 42.2752 30.2378 43.018C29.5483 43.272 29.0887 42.9153 29.07 42.1611C29.0696 42.1425 29.0698 42.124 29.0698 42.1054C29.0698 41.4554 29.0698 40.8055 29.0698 40.1555ZM35.3289 36.8343C33.7828 37.4161 32.312 37.9656 30.847 38.5302C30.7589 38.5642 30.6639 38.7172 30.662 38.8167C30.6465 39.5724 30.6535 40.3285 30.6535 41.1581C32.1864 40.5823 33.6578 40.0333 35.1237 39.47C35.2145 39.4351 35.3179 39.2877 35.3199 39.1906C35.3361 38.4353 35.3289 37.6794 35.3289 36.8343Z" fill="black"/>
<path d="M21.0296 36.211C21.0201 36.9875 20.4507 37.3221 19.8036 37.0855C18.5516 36.6279 17.3075 36.1491 16.0601 35.6793C14.6911 35.1636 13.3236 34.6438 11.9521 34.1347C11.4795 33.9593 11.2648 33.6404 11.3666 33.1461C11.4591 32.6968 11.9371 32.4386 12.4136 32.6153C15.1045 33.6129 17.7935 34.6163 20.4701 35.6514C20.7328 35.7529 20.907 36.0833 21.0296 36.211Z" fill="black"/>
<path d="M21.0158 39.1397C21.0163 39.7395 20.4601 40.0729 19.8075 39.8326C18.2257 39.2499 16.6503 38.6496 15.0721 38.0572C14.0662 37.6796 13.0587 37.3063 12.0541 36.9254C11.4541 36.6978 11.2215 36.3075 11.3907 35.8363C11.5556 35.3769 12.0107 35.2165 12.6012 35.4366C15.17 36.3941 17.7352 37.3618 20.3049 38.317C20.7044 38.4656 20.9865 38.6857 21.0158 39.1397Z" fill="black"/>
<path d="M11.979 37.999C12.3131 38.1043 12.4916 38.1518 12.6639 38.2161C15.1775 39.1536 17.6942 40.083 20.1978 41.0463C20.4939 41.1602 20.7969 41.4202 20.9453 41.6945C21.0386 41.8669 20.93 42.3068 20.7673 42.4213C20.5364 42.5837 20.1336 42.6759 19.872 42.5906C18.7472 42.2239 17.6472 41.7812 16.5382 41.3664C15.0134 40.7961 13.4883 40.2264 11.9639 39.6554C11.5076 39.4845 11.2139 39.1557 11.3818 38.6774C11.4797 38.3985 11.7967 38.1965 11.979 37.999Z" fill="black"/>
</svg>
