<svg width="51" height="51" viewBox="0 0 51 51" fill="none" xmlns="http://www.w3.org/2000/svg">
<g clip-path="url(#clip0_341_2506)">
<path d="M50.0357 47.9331C50.0357 48.9104 50.0357 49.8876 50.0357 50.8649C33.3571 50.8649 16.6786 50.8649 0 50.8649C0 49.8952 0 48.9255 0 47.9141C1.15499 47.9141 2.23936 47.9141 3.35969 47.9141C3.35969 46.8797 3.35969 45.8884 3.35969 44.8972C3.35969 33.8397 3.36229 22.7821 3.35018 11.7246C3.34966 11.2852 3.4423 11.1049 3.9136 11.0496C4.84643 10.9402 5.76935 10.7456 6.74544 10.5778C6.74544 7.32377 6.74544 4.09282 6.74544 0.864868C12.2285 0.864868 17.6565 0.864868 23.1394 0.864868C23.1394 3.20456 23.1394 5.5092 23.1394 7.84732C24.2805 7.66152 25.3626 7.48535 26.5025 7.29967C26.5025 9.65447 26.5025 11.9579 26.5025 14.3026C33.241 14.3026 39.9282 14.3026 46.6713 14.3026C46.6713 25.5233 46.6713 36.7023 46.6713 47.9331C47.8294 47.9331 48.9326 47.9331 50.0357 47.9331ZM6.33069 13.6276C6.33069 25.0987 6.33069 36.5025 6.33069 47.8984C7.59969 47.8984 8.82909 47.8984 10.104 47.8984C10.104 45.6567 10.104 43.4493 10.104 41.2237C13.3327 41.2237 16.5153 41.2237 19.759 41.2237C19.759 43.4679 19.759 45.687 19.759 47.9061C21.0506 47.9061 22.2807 47.9061 23.5144 47.9061C23.5144 35.5195 23.5144 23.1601 23.5144 10.7626C17.7641 11.7213 12.0561 12.673 6.33069 13.6276ZM43.7093 47.9158C43.7093 37.6656 43.7093 27.4668 43.7093 17.2659C37.9542 17.2659 32.2339 17.2659 26.514 17.2659C26.514 27.5011 26.514 37.6997 26.514 47.9158C32.2544 47.9158 37.9645 47.9158 43.7093 47.9158ZM9.69116 10.0946C13.1976 9.51036 16.6741 8.93104 20.16 8.35003C20.16 6.80726 20.16 5.30124 20.16 3.79209C16.652 3.79209 13.1765 3.79209 9.69116 3.79209C9.69116 5.9014 9.69116 7.97945 9.69116 10.0946ZM16.7773 47.9049C16.7773 46.6326 16.7773 45.3939 16.7773 44.1633C15.5118 44.1633 14.2864 44.1633 13.0419 44.1633C13.0419 45.424 13.0419 46.6504 13.0419 47.9049C14.2929 47.9049 15.5194 47.9049 16.7773 47.9049Z" fill="black"/>
<path d="M19.7263 14.3277C19.7263 15.2907 19.7263 16.2267 19.7263 17.1954C18.7732 17.1954 17.8375 17.1954 16.8594 17.1954C16.8594 16.2525 16.8594 15.3064 16.8594 14.3277C17.7977 14.3277 18.7339 14.3277 19.7263 14.3277Z" fill="black"/>
<path d="M12.9932 34.501C12.9932 35.4634 12.9932 36.3982 12.9932 37.3657C12.0292 37.3657 11.0834 37.3657 10.1113 37.3657C10.1113 36.4035 10.1113 35.4696 10.1113 34.501C11.0642 34.501 11.9972 34.501 12.9932 34.501Z" fill="black"/>
<path d="M16.8438 37.3642C16.8438 36.4089 16.8438 35.4733 16.8438 34.5018C17.8028 34.5018 18.7503 34.5018 19.7235 34.5018C19.7235 35.4584 19.7235 36.3941 19.7235 37.3642C18.7652 37.3642 17.818 37.3642 16.8438 37.3642Z" fill="black"/>
<path d="M10.1084 23.918C10.1084 22.9601 10.1084 22.0377 10.1084 21.0684C11.0649 21.0684 12.0108 21.0684 12.9874 21.0684C12.9874 22.0094 12.9874 22.9464 12.9874 23.918C12.029 23.918 11.0802 23.918 10.1084 23.918Z" fill="black"/>
<path d="M19.7225 23.9244C18.7404 23.9244 17.8055 23.9244 16.8438 23.9244C16.8438 22.9619 16.8438 22.0287 16.8438 21.0583C17.8049 21.0583 18.7504 21.0583 19.7225 21.0583C19.7225 22.0123 19.7225 22.9482 19.7225 23.9244Z" fill="black"/>
<path d="M10.1123 30.6339C10.1123 29.6848 10.1123 28.7619 10.1123 27.7894C11.0565 27.7894 12.0031 27.7894 12.9839 27.7894C12.9839 28.7242 12.9839 29.6595 12.9839 30.6339C12.0333 30.6339 11.0866 30.6339 10.1123 30.6339Z" fill="black"/>
<path d="M19.7324 27.779C19.7324 28.7487 19.7324 29.6708 19.7324 30.6329C18.7708 30.6329 17.8248 30.6329 16.8477 30.6329C16.8477 29.6891 16.8477 28.7536 16.8477 27.779C17.794 27.779 18.7421 27.779 19.7324 27.779Z" fill="black"/>
<path d="M30.3174 34.4908C31.2819 34.4908 32.2172 34.4908 33.1856 34.4908C33.1856 35.4467 33.1856 36.3811 33.1856 37.3572C32.2427 37.3572 31.2958 37.3572 30.3174 37.3572C30.3174 36.422 30.3174 35.4859 30.3174 34.4908Z" fill="black"/>
<path d="M39.9216 34.5021C39.9216 35.4582 39.9216 36.3915 39.9216 37.3616C38.9624 37.3616 38.0171 37.3616 37.0449 37.3616C37.0449 36.409 37.0449 35.4737 37.0449 34.5021C38.0002 34.5021 38.9463 34.5021 39.9216 34.5021Z" fill="black"/>
<path d="M30.2988 44.0913C30.2988 43.1273 30.2988 42.2013 30.2988 41.2366C31.2589 41.2366 32.2077 41.2366 33.1879 41.2366C33.1879 42.1794 33.1879 43.1158 33.1879 44.0913C32.2423 44.0913 31.2939 44.0913 30.2988 44.0913Z" fill="black"/>
<path d="M37.041 44.0979C37.041 43.1354 37.041 42.199 37.041 41.2303C37.9948 41.2303 38.931 41.2303 39.9092 41.2303C39.9092 42.1706 39.9092 43.1179 39.9092 44.0979C38.9704 44.0979 38.0351 44.0979 37.041 44.0979Z" fill="black"/>
<path d="M33.1919 21.0562C33.1919 22.015 33.1919 22.9496 33.1919 23.9192C32.2313 23.9192 31.283 23.9192 30.3105 23.9192C30.3105 22.9608 30.3105 22.0259 30.3105 21.0562C31.2735 21.0562 32.2191 21.0562 33.1919 21.0562Z" fill="black"/>
<path d="M37.0508 21.0549C38.0252 21.0549 38.9613 21.0549 39.9235 21.0549C39.9235 22.0108 39.9235 22.9339 39.9235 23.9055C38.9779 23.9055 38.031 23.9055 37.0508 23.9055C37.0508 22.9687 37.0508 22.0334 37.0508 21.0549Z" fill="black"/>
<path d="M33.1882 30.6487C32.217 30.6487 31.2813 30.6487 30.3164 30.6487C30.3164 29.69 30.3164 28.7546 30.3164 27.7795C31.264 27.7795 32.2105 27.7795 33.1882 27.7795C33.1882 28.7259 33.1882 29.6585 33.1882 30.6487Z" fill="black"/>
<path d="M37.0361 30.6408C37.0361 29.6693 37.0361 28.7453 37.0361 27.7807C38.0005 27.7807 38.9477 27.7807 39.9224 27.7807C39.9224 28.7393 39.9224 29.6741 39.9224 30.6408C38.9587 30.6408 38.0226 30.6408 37.0361 30.6408Z" fill="black"/>
</g>
<defs>
<clipPath id="clip0_341_2506">
<rect width="50.0357" height="50" fill="white" transform="translate(0 0.864868)"/>
</clipPath>
</defs>
</svg>
