<svg width="82" height="80" viewBox="0 0 82 80" fill="none" xmlns="http://www.w3.org/2000/svg">
<g clip-path="url(#clip0_389_1808)">
<path d="M73.0195 60.2843C70.4989 59.8188 68.8245 58.4944 68.2067 56.0325C68.0702 55.4885 68.0715 54.901 68.0702 54.3336C68.0601 49.6033 68.0639 44.8728 68.0647 40.1425C68.0654 36.6624 69.3603 34.9524 72.7002 34.0147C72.7751 33.9936 72.8434 33.9499 72.9098 33.919C72.2478 18.3507 58.9393 3.98709 41.0992 3.95512C23.1343 3.92293 9.80776 18.3302 9.08845 33.9392C9.30942 34.0001 9.53867 34.0695 9.77096 34.1265C12.1638 34.7131 13.895 36.7057 13.919 39.1474C13.9708 44.448 13.9932 49.7503 13.9153 55.0503C13.8643 58.5181 10.7548 60.8046 7.15172 60.1875C3.09712 59.4932 0.138032 56.1432 0.0561733 52.0237C-0.00913913 48.7354 -0.0304745 45.4428 0.0635754 42.1561C0.15436 38.9793 1.68528 36.5726 4.45105 34.9972C4.91281 34.7342 5.09176 34.4763 5.12181 33.9445C6.01289 18.2391 17.032 4.93084 32.3048 1.0871C52.2336 -3.92834 72.4089 8.92097 76.2817 29.1191C76.5878 30.7154 76.7293 32.3458 76.89 33.966C76.9376 34.4467 77.0635 34.7201 77.5078 34.97C80.4049 36.5991 81.9066 39.1102 81.9636 42.4217C82.017 45.5201 82.0059 48.6204 81.9671 51.7189C81.9253 55.0646 80.4382 57.6068 77.5117 59.2537C77.0461 59.5158 76.9513 59.8066 76.9446 60.283C76.9169 62.2099 77.0423 64.1648 76.7622 66.0577C75.9181 71.7583 71.0556 75.91 65.2676 76.0319C63.4452 76.0701 61.6214 76.0527 59.7983 76.0347C59.3688 76.0303 59.1424 76.1423 58.934 76.5595C57.812 78.8046 55.9752 79.9687 53.4497 79.9874C51.4906 80.002 49.5312 80.0078 47.5723 79.9848C44.2346 79.9452 41.704 77.4933 41.5951 74.224C41.4891 71.0364 43.8993 68.3652 47.19 68.1971C49.415 68.0834 51.6526 68.1079 53.8802 68.1891C56.2323 68.2748 57.9054 69.4911 58.965 71.5845C59.0771 71.8062 59.3479 72.1035 59.5447 72.1031C61.8006 72.0983 64.0733 72.2003 66.3087 71.9647C69.9847 71.5771 72.8972 68.2595 73.0126 64.5698C73.0563 63.1599 73.0195 61.7481 73.0195 60.2843ZM78.0532 47.1289C78.0532 45.5255 78.0865 43.9214 78.0453 42.319C77.9828 39.8778 76.0385 37.908 73.716 37.8745C72.6274 37.8589 71.9961 38.4035 71.9924 39.4786C71.9754 44.5606 71.9756 49.6426 71.9911 54.7246C71.9946 55.8387 72.6385 56.3888 73.7695 56.3529C76.1062 56.2787 77.9977 54.3125 78.0482 51.8577C78.081 50.2821 78.0545 48.7052 78.0532 47.1289ZM10.0274 47.1916C10.0274 44.6642 10.0383 42.1366 10.0229 39.6094C10.0155 38.3907 9.39433 37.83 8.17908 37.878C5.92406 37.9672 4.00779 39.9065 3.971 42.2699C3.92093 45.5031 3.92202 48.7383 3.97144 51.9715C4.00605 54.2359 5.79692 56.1373 7.94613 56.3344C9.39934 56.4677 10.0213 55.9127 10.0261 54.4478C10.034 52.0291 10.0283 49.6102 10.0274 47.1916ZM50.5248 76.0732C51.5317 76.0732 52.5389 76.0914 53.5453 76.0684C54.7503 76.041 55.5752 75.2173 55.5781 74.0815C55.5809 72.9726 54.8019 72.1198 53.6365 72.0963C51.5966 72.0552 49.5545 72.0563 47.5144 72.0926C46.3024 72.1144 45.4914 72.9842 45.5171 74.1106C45.543 75.2458 46.3714 76.0447 47.586 76.0695C48.5653 76.0895 49.5452 76.0736 50.5248 76.0732Z" fill="white"/>
<path d="M28.4603 52.5575C26.812 52.4829 25.316 52.1427 23.9773 51.2853C21.3358 49.5931 20.0304 47.1529 20.0174 44.0428C19.9943 38.5245 19.9616 33.0053 20.0259 27.4876C20.0836 22.5248 23.6355 19.0578 28.5931 19.0454C36.8649 19.0248 45.1368 19.0258 53.4086 19.045C58.3701 19.0565 61.9227 22.5083 61.9848 27.4759C62.0542 33.0208 62.0601 38.5678 61.9826 44.1124C61.9127 49.1035 58.3231 52.5248 53.3056 52.5412C50.0132 52.552 46.7208 52.5546 43.4284 52.5318C42.8935 52.5281 42.5212 52.6938 42.1483 53.0686C39.8848 55.3435 37.6132 57.611 35.3131 59.8489C34.1612 60.9697 32.7561 61.2657 31.2383 60.7478C29.7235 60.231 28.8052 59.1418 28.5498 57.5559C28.4555 56.9704 28.4703 56.3651 28.4631 55.7687C28.4514 54.7145 28.4603 53.6604 28.4603 52.5575ZM32.3808 56.9174C32.447 56.9535 32.5129 56.9898 32.5791 57.0259C32.791 56.8299 33.0089 56.64 33.2137 56.4371C35.5106 54.1585 37.8226 51.8949 40.0898 49.5872C40.7715 48.8934 41.5078 48.6032 42.477 48.6132C46.0398 48.6506 49.6033 48.6304 53.1665 48.6274C56.2954 48.6248 58.0797 46.8541 58.0839 43.7305C58.0908 38.4314 58.0904 33.1323 58.0841 27.8333C58.0802 24.7016 56.3135 22.9559 53.1619 22.9553C45.0834 22.9535 37.0049 22.954 28.9264 22.9551C25.6641 22.9555 23.9337 24.674 23.9318 27.9224C23.9285 33.1671 23.93 38.412 23.9329 43.6567C23.9331 44.0093 23.9437 44.3641 23.9825 44.714C24.1995 46.6735 25.6114 48.2095 27.5594 48.5158C28.3319 48.6372 29.1295 48.6158 29.9163 48.6241C31.7292 48.6428 32.3771 49.2731 32.3801 51.0704C32.3832 53.0192 32.3808 54.9683 32.3808 56.9174Z" fill="white"/>
<path d="M40.9652 38.9901C39.3842 38.9617 38.0642 37.5975 38.1065 36.036C38.1493 34.4521 39.5209 33.1475 41.0845 33.2036C42.6431 33.2595 43.9175 34.5757 43.9036 36.115C43.8892 37.6923 42.534 39.0184 40.9652 38.9901Z" fill="white"/>
<path d="M28.5997 36.068C28.6134 34.4839 29.9593 33.17 31.534 33.2033C33.1328 33.2372 34.3955 34.5587 34.3627 36.1639C34.3307 37.7258 33.0338 38.9967 31.4787 38.9904C29.8944 38.9839 28.5862 37.656 28.5997 36.068Z" fill="white"/>
<path d="M53.4126 36.1211C53.3994 37.7022 52.05 39.0216 50.4788 38.9898C48.8819 38.9576 47.617 37.6343 47.649 36.0296C47.6804 34.4653 48.9712 33.1985 50.5295 33.2026C52.1131 33.207 53.4259 34.5362 53.4126 36.1211Z" fill="white"/>
</g>
<defs>
<clipPath id="clip0_389_1808">
<rect width="82" height="80" fill="white"/>
</clipPath>
</defs>
</svg>
