<svg width="80" height="80" viewBox="0 0 80 80" fill="none" xmlns="http://www.w3.org/2000/svg">
<g clip-path="url(#clip0_389_1817)">
<path d="M37.667 9.40999C37.667 7.09838 37.6333 4.9015 37.6893 2.70643C37.7044 2.11411 37.8651 1.44369 38.1848 0.957703C38.7657 0.0758288 39.691 -0.190896 40.7157 0.132898C41.7349 0.45429 42.3206 1.17637 42.3399 2.24988C42.3748 4.19745 42.3586 6.14622 42.3634 8.09439C42.3646 8.49027 42.3634 8.88555 42.3634 9.41059C42.9016 9.41059 43.3314 9.41059 43.7606 9.41059C53.2279 9.41059 62.6958 9.41059 72.1631 9.41119C72.5316 9.41119 72.903 9.39137 73.2672 9.43342C74.5212 9.5794 75.4375 10.6355 75.3857 11.8454C75.3345 13.0372 74.4375 14.0122 73.2052 14.0633C71.6604 14.1269 70.1115 14.0909 68.5649 14.0975C68.1706 14.0993 67.7762 14.0975 67.2266 14.0975C67.4469 14.6688 67.5999 15.1055 67.7817 15.5296C71.534 24.2667 75.2178 33.0338 79.0917 41.7161C80.123 44.0271 80.2187 46.2042 79.6642 48.5573C77.8389 56.3085 70.2126 61.8875 62.4532 61.1216C53.8504 60.2721 47.3764 53.6875 47.1735 45.5043C47.1518 44.6213 47.3625 43.6679 47.7105 42.8509C51.6181 33.6621 55.5746 24.4944 59.5148 15.3194C59.6689 14.9601 59.7899 14.5871 59.9543 14.1456C54.0762 14.1456 48.3089 14.1456 42.4537 14.1456C42.4537 34.5007 42.4537 54.8073 42.4537 75.2477C42.8257 75.267 43.2134 75.3036 43.6011 75.3048C45.5167 75.312 47.4329 75.2868 49.3479 75.3198C50.7976 75.3445 51.7879 76.3014 51.8066 77.608C51.8258 78.947 50.7874 79.9821 49.3082 79.9863C43.1195 80.0037 36.9302 80.0043 30.7415 79.9857C29.2533 79.9815 28.2178 78.9512 28.2377 77.6092C28.2569 76.314 29.2617 75.3403 30.7011 75.3204C32.9767 75.2892 35.2536 75.312 37.5978 75.312C37.5978 54.8926 37.5978 34.5806 37.5978 14.1828C31.8221 14.1828 26.0355 14.1828 20.1063 14.1828C20.2827 14.6382 20.4127 15.0052 20.5656 15.362C24.3583 24.2006 28.0872 33.068 31.9937 41.8567C33.0081 44.1395 33.0514 46.2997 32.4813 48.5951C30.6042 56.1547 23.6401 61.4718 16.0168 61.175C7.98709 60.8626 1.43656 55.1491 0.136209 47.3282C-0.152758 45.5896 0.00496964 43.9617 0.735214 42.291C4.64651 33.3431 8.4681 24.3568 12.3192 15.3831C12.4733 15.0238 12.61 14.658 12.8363 14.0915C10.7985 14.0915 8.93828 14.1191 7.07925 14.0825C5.65729 14.0548 4.73801 13.1586 4.69286 11.8598C4.64892 10.6018 5.5104 9.5836 6.77042 9.43342C7.13404 9.39017 7.50608 9.41059 7.87451 9.41059C17.3051 9.40939 26.7363 9.40999 36.1668 9.40999C36.6081 9.40999 37.0488 9.40999 37.667 9.40999ZM53.0624 42.2778C60.1806 42.2778 67.0893 42.2778 74.1438 42.2778C70.6322 34.1025 67.1634 26.0256 63.6049 17.7397C60.0566 25.9986 56.5878 34.0718 53.0624 42.2778ZM5.91255 42.2682C12.9989 42.2682 19.898 42.2682 26.9825 42.2682C23.4721 34.0995 20.0142 26.0509 16.4448 17.7433C12.8622 26.0845 9.41086 34.1217 5.91255 42.2682ZM5.00832 47.1341C5.67415 52.3701 11.0471 56.5836 16.7958 56.4322C22.2567 56.2887 27.4918 51.9015 27.847 47.1341C20.2351 47.1341 12.6256 47.1341 5.00832 47.1341ZM52.1696 47.1389C52.8752 52.5792 58.4227 56.7242 64.5013 56.4112C69.5829 56.1499 74.8878 51.4756 74.9727 47.1389C67.3735 47.1389 59.7761 47.1389 52.1696 47.1389Z" fill="white"/>
</g>
<defs>
<clipPath id="clip0_389_1817">
<rect width="80" height="80" fill="white"/>
</clipPath>
</defs>
</svg>
