<svg width="65" height="65" viewBox="0 0 65 65" fill="none" xmlns="http://www.w3.org/2000/svg">
<g clip-path="url(#clip0_862_2345)">
<mask id="mask0_862_2345" style="mask-type:luminance" maskUnits="userSpaceOnUse" x="0" y="0" width="65" height="65">
<path d="M65 0H0V65H65V0Z" fill="white"/>
</mask>
<g mask="url(#mask0_862_2345)">
<path fill-rule="evenodd" clip-rule="evenodd" d="M56.7762 26.671C57.4643 30.0153 57.3993 33.3157 56.8315 36.4825C56.2558 39.6954 55.0853 42.7335 53.4222 45.4819C52.7597 46.5781 52.028 47.6311 51.2238 48.633C50.4229 49.6257 49.5575 50.5737 48.622 51.4573C45.8724 54.0573 42.5411 56.1275 38.6758 57.304C35.6165 58.2642 32.5198 58.624 29.5003 58.422C26.3206 58.2061 23.245 57.4001 20.4078 56.0727L20.1309 56.6039C22.9567 58.2201 26.0777 59.3042 29.3497 59.7986C32.556 60.2843 35.8939 60.1854 39.2481 59.4402C43.6001 58.4234 47.4757 56.4312 50.6472 53.7007C51.7448 52.7563 52.7504 51.7136 53.6581 50.5997C54.569 49.4771 55.3834 48.2788 56.0789 47.0159C57.8018 43.891 58.9003 40.4106 59.2109 36.7984C59.5076 33.366 59.0842 29.8318 57.9314 26.3613L56.7762 26.671Z" fill="#1F88C0"/>
<path fill-rule="evenodd" clip-rule="evenodd" d="M12.8101 49.8206C11.5439 48.4328 10.4119 46.8993 9.47293 45.2171C8.55796 43.577 7.82908 41.8079 7.28596 39.9319C7.07787 38.9945 6.91787 38.0662 6.82432 37.1332C6.44258 33.3156 7.06059 29.6079 8.27475 26.1536C8.92563 24.3005 9.79236 22.5477 10.7851 20.8667C12.103 18.6327 13.6683 16.5432 15.5638 14.7346C18.3517 12.0759 21.7341 9.95669 25.6643 8.74537C28.8634 7.76076 32.1047 7.39769 35.2488 7.68903C37.4328 7.89043 39.5749 8.36679 41.5838 9.16443C43.8573 10.067 45.9514 11.3779 47.837 12.9337C49.6909 14.4629 51.3057 16.2846 52.6656 18.3109C52.8444 18.5794 52.9632 18.8859 53.1852 19.1209C53.3565 19.2991 53.5538 19.3693 53.7548 19.5132L54.5678 18.9964C54.5186 18.7416 54.5223 18.5252 54.416 18.2901C54.2758 17.9804 54.0111 17.7482 53.8008 17.4837C51.5801 14.6905 48.8367 12.4241 45.7749 10.7177C44.4705 9.99054 43.1065 9.37601 41.7096 8.845C40.1671 8.25634 38.5805 7.77186 36.949 7.43121C33.2217 6.65451 29.2861 6.59276 25.3303 7.4989C21.042 8.48096 17.2184 10.4196 14.0858 13.096C11.9073 14.9585 10.0293 17.1536 8.63239 19.6241C7.58408 21.4783 6.81703 23.49 6.30711 25.569C5.38986 29.3129 5.38257 33.2743 6.20854 37.2279C6.40447 38.1641 6.63229 39.0963 6.92595 40.0283C7.40268 41.9617 8.09298 43.7851 8.93747 45.4968C9.81567 47.2786 10.8635 48.9357 12.078 50.4474L12.8101 49.8206Z" fill="#1F88C0"/>
<path fill-rule="evenodd" clip-rule="evenodd" d="M59.1831 26.1112C58.1464 26.9401 56.7753 27.3603 55.3579 27.144C52.6794 26.7352 50.8176 24.2021 51.2262 21.5239C51.6352 18.8456 54.1679 16.9834 56.8464 17.3922C59.5248 17.801 61.3866 20.3341 60.978 23.0124C60.784 24.2826 60.1121 25.3656 59.1845 26.1101L59.1831 26.1112ZM57.9012 24.5098C58.4505 24.0689 58.8381 23.4368 58.9505 22.7029C59.1882 21.1444 58.0953 19.6577 56.5367 19.4198C54.9785 19.1819 53.4919 20.2749 53.2537 21.8334C53.016 23.3918 54.1089 24.8785 55.6675 25.1164C56.4861 25.2414 57.286 25.0014 57.9012 24.5098Z" fill="#1F88C0"/>
<path fill-rule="evenodd" clip-rule="evenodd" d="M47.6976 30.2892C47.6976 30.2892 48.3806 29.6525 49.2321 28.8168C50.7285 27.3468 52.7347 25.2924 52.7347 25.2924L52.0768 24.5215C52.0768 24.5215 49.7344 26.1848 48.0477 27.4312C47.0913 28.1437 46.3555 28.7192 46.3555 28.7192L47.6976 30.2892Z" fill="#1F88C0"/>
<path fill-rule="evenodd" clip-rule="evenodd" d="M18.3623 32.5684C18.3623 30.8114 19.786 29.3877 21.543 29.3877H43.528C45.285 29.3877 46.7085 30.8114 46.7085 32.5684V47.4178C46.7085 49.1747 45.285 50.5986 43.528 50.5986H28.7465V47.227H43.3371V32.7593H21.7339V41.3453H18.3623V32.5684Z" fill="#22B638"/>
<path fill-rule="evenodd" clip-rule="evenodd" d="M32.5353 18.4878C29.5525 18.4878 27.0855 20.9548 27.0855 23.9377V31.0734C27.0855 32.0045 26.3307 32.7592 25.3997 32.7592C24.4687 32.7592 23.7139 32.0045 23.7139 31.0734V23.9377C23.7139 19.0928 27.6904 15.1162 32.5353 15.1162C37.3803 15.1162 41.3568 19.0928 41.3568 23.9377V31.0734C41.3568 32.0045 40.602 32.7592 39.671 32.7592C38.74 32.7592 37.9852 32.0045 37.9852 31.0734V23.9377C37.9852 20.9548 35.5182 18.4878 32.5353 18.4878Z" fill="#22B638"/>
<path fill-rule="evenodd" clip-rule="evenodd" d="M10.5639 49.6279C11.1102 45.4683 14.9724 42.5029 19.1321 43.0493C22.0058 43.4267 24.3035 45.3856 25.2717 47.9142C25.7109 49.0587 25.8807 50.3243 25.7108 51.6174C25.1644 55.7774 21.3023 58.7428 17.1426 58.1963C12.9829 57.6498 10.0175 53.7879 10.5639 49.6279ZM18.7406 46.03C16.2271 45.6999 13.8748 47.5061 13.5446 50.0198C13.2145 52.5329 15.0206 54.8855 17.5341 55.2156C20.0476 55.5457 22.3999 53.7396 22.7301 51.226C22.8327 50.445 22.7307 49.6832 22.4647 48.9904L22.4643 48.989C21.8705 47.4388 20.4657 46.2566 18.7406 46.03Z" fill="#1F88C0"/>
<path fill-rule="evenodd" clip-rule="evenodd" d="M30.8981 39.2754C30.8981 39.2754 27.1324 41.5204 24.4281 43.2669C22.8966 44.2551 21.7383 45.0852 21.7383 45.0852L24.1394 48.1537C24.1394 48.1537 25.2194 47.2252 26.5486 45.9777C28.8934 43.7721 31.983 40.6587 31.983 40.6587L30.8981 39.2754Z" fill="#1F88C0"/>
</g>
</g>
<defs>
<clipPath id="clip0_862_2345">
<rect width="65" height="65" fill="white"/>
</clipPath>
</defs>
</svg>
