<svg width="65" height="65" viewBox="0 0 65 65" fill="none" xmlns="http://www.w3.org/2000/svg">
<path d="M64.3672 26.6976C64.1861 26.5487 62.5583 25.3284 59.0613 25.3284C58.1569 25.3284 57.2223 25.4178 56.3179 25.5666C55.6549 21.0127 51.8259 18.8101 51.6755 18.6911L50.7409 18.1553L50.1377 19.0185C49.3842 20.1793 48.8113 21.4889 48.4798 22.8284C47.8465 25.4178 48.2384 27.8585 49.5648 29.9419C47.9672 30.8349 45.3746 31.0432 44.832 31.0729H2.02373C0.908342 31.0729 0.00392519 31.9659 0.00392519 33.0672C-0.0562895 36.7579 0.576726 40.4486 1.87309 43.9309C3.3502 47.7407 5.55095 50.5682 8.38477 52.2949C11.5803 54.2291 16.7956 55.3304 22.6742 55.3304C25.3271 55.3304 27.9799 55.0927 30.6027 54.6163C34.2504 53.9612 37.7474 52.7114 40.9732 50.8955C43.6167 49.3829 45.9987 47.4529 48.0276 45.1811C51.434 41.401 53.4537 37.1746 54.931 33.4243H55.5337C59.2419 33.4243 61.5332 31.9659 62.7993 30.7157C63.6434 29.9419 64.2762 28.9895 64.7284 27.918L65 27.1441L64.3672 26.6976Z" fill="#0091E2"/>
<path d="M6.00271 29.853H11.7305C12.0019 29.853 12.2431 29.6447 12.2431 29.3471V24.2873C12.2431 24.0193 12.032 23.7813 11.7305 23.7813H6.00271C5.73143 23.7813 5.49023 23.9896 5.49023 24.2873V29.3471C5.52037 29.6447 5.73143 29.853 6.00271 29.853ZM13.9011 29.853H19.629C19.9003 29.853 20.1415 29.6447 20.1415 29.3471V24.2873C20.1415 24.0193 19.9304 23.7813 19.629 23.7813H13.901C13.6297 23.7813 13.3885 23.9896 13.3885 24.2873V29.3471C13.4187 29.6447 13.63 29.853 13.9011 29.853ZM21.9501 29.8531H27.678C27.9493 29.8531 28.1905 29.6447 28.1905 29.3471V24.2873C28.1905 24.0193 27.9794 23.7813 27.678 23.7813H21.9501C21.6788 23.7813 21.4376 23.9896 21.4376 24.2873V29.3471C21.4376 29.6447 21.6487 29.8531 21.9501 29.8531ZM29.8787 29.8531H35.6066C35.8779 29.8531 36.1191 29.6447 36.1191 29.3471V24.2873C36.1191 24.0193 35.908 23.7813 35.6066 23.7813H29.8787C29.6074 23.7813 29.3662 23.9896 29.3662 24.2873V29.3471C29.3662 29.6447 29.6074 29.8531 29.8787 29.8531ZM13.9011 22.6205H19.6289C19.9002 22.6205 20.1414 22.3824 20.1414 22.1145V17.0546C20.1414 16.7867 19.9303 16.5485 19.6289 16.5485H13.901C13.6297 16.5485 13.3885 16.7569 13.3885 17.0546V22.1145C13.4187 22.3823 13.6299 22.6205 13.9011 22.6205ZM21.9501 22.6205H27.678C27.9493 22.6205 28.1905 22.3824 28.1905 22.1145V17.0546C28.1905 16.7867 27.9794 16.5485 27.678 16.5485H21.9501C21.6788 16.5485 21.4376 16.7569 21.4376 17.0546V22.1145C21.4376 22.3823 21.6487 22.6205 21.9501 22.6205ZM29.8787 22.6205H35.6066C35.8779 22.6205 36.1191 22.3824 36.1191 22.1145V17.0546C36.1191 16.7867 35.8778 16.5485 35.6066 16.5485H29.8787C29.6074 16.5485 29.3662 16.7569 29.3662 17.0546V22.1145C29.3662 22.3823 29.6074 22.6205 29.8787 22.6205ZM29.8787 15.3581H35.6066C35.8779 15.3581 36.1191 15.1497 36.1191 14.8521V9.7922C36.1191 9.52427 35.8778 9.28613 35.6066 9.28613H29.8787C29.6074 9.28613 29.3662 9.4945 29.3662 9.7922V14.8521C29.3662 15.1199 29.6074 15.3581 29.8787 15.3581ZM37.8675 29.8531H43.5954C43.8667 29.8531 44.1078 29.6447 44.1078 29.3471V24.2873C44.1078 24.0193 43.8969 23.7813 43.5954 23.7813H37.8676C37.5962 23.7813 37.355 23.9896 37.355 24.2873V29.3471C37.3852 29.6447 37.5962 29.8531 37.8675 29.8531Z" fill="#0091E2"/>
</svg>
