<svg width="65" height="65" viewBox="0 0 65 65" fill="none" xmlns="http://www.w3.org/2000/svg">
<path fill-rule="evenodd" clip-rule="evenodd" d="M24.3725 4.02675V32.5H20.9219V59.3148L32.7324 65L39.8385 32.5L32.7324 0L24.3725 4.02675Z" fill="#9D5025"/>
<path fill-rule="evenodd" clip-rule="evenodd" d="M32.7324 0V32.5V65L41.0923 60.9732V32.5H44.5429V5.68509L32.7324 0Z" fill="#F58536"/>
<path fill-rule="evenodd" clip-rule="evenodd" d="M57.1068 24.1935L42.165 25.552L37.2559 24.9597L52.8284 9.68066L57.1068 24.1935Z" fill="#6B3A19"/>
<path fill-rule="evenodd" clip-rule="evenodd" d="M52.8281 9.68066L57.107 11.7412V24.1935L52.8281 23.3721V9.68066Z" fill="#F58536"/>
<path fill-rule="evenodd" clip-rule="evenodd" d="M37.2559 24.9597L52.8284 23.3729V9.68066L37.2559 13.7391V24.9597Z" fill="#9D5025"/>
<path fill-rule="evenodd" clip-rule="evenodd" d="M8.35742 40.8067L23.2985 39.4482L28.2076 40.0406L12.636 55.3195L8.35742 40.8067Z" fill="#FBBF93"/>
<path fill-rule="evenodd" clip-rule="evenodd" d="M12.636 55.3195L8.35742 53.259V40.8066L12.636 41.6752V55.3195Z" fill="#9D5025"/>
<path fill-rule="evenodd" clip-rule="evenodd" d="M28.2081 40.041L12.6357 41.6758V55.3201L28.2081 51.2618V40.041Z" fill="#F58536"/>
</svg>
