<svg width="66" height="66" viewBox="0 0 66 66" fill="none" xmlns="http://www.w3.org/2000/svg">
<g clip-path="url(#clip0_862_2252)">
<path d="M59.4135 15.0024C59.0416 13.8131 58.1497 12.8469 57.035 12.2522L34.364 1.39997C33.7694 1.10265 33.1004 1.02832 32.5057 1.02832C31.9111 1.02832 31.2421 1.02832 30.6475 1.17698L7.97673 12.1035C6.86175 12.6239 6.04414 13.5902 5.74681 14.8538L0.172034 39.3084C-0.0509572 40.5721 0.246364 41.8357 0.989668 42.8763L16.6734 62.2764C17.5653 63.1683 18.8289 63.7631 20.0926 63.8374H45.0676C46.4055 63.9859 47.6689 63.3916 48.4865 62.2764L64.1706 42.8763C64.9139 41.8357 65.211 40.5721 65.0625 39.3084L59.4135 15.0024Z" fill="#326DE6"/>
<path d="M55.9196 38.3415C55.8453 38.3415 55.771 38.3415 55.771 38.2672C55.771 38.1929 55.6225 38.1929 55.4739 38.1929C55.1763 38.1185 54.8792 38.1185 54.5816 38.1185C54.433 38.1185 54.2844 38.1185 54.1358 38.0442H54.0616C53.2439 37.9699 52.3516 37.8212 51.534 37.5982C51.3111 37.5239 51.0883 37.3009 51.014 37.0779L50.4192 36.9292C50.7164 34.7737 50.5678 32.5438 50.1221 30.3882C49.6016 28.2326 48.7097 26.1513 47.5202 24.2931L47.9664 23.8471V23.7728C47.9664 23.5498 48.0407 23.2524 48.1893 23.1038C48.8583 22.5092 49.5273 22.0632 50.2707 21.6172C50.4192 21.5428 50.5678 21.4685 50.7164 21.3942C51.014 21.2456 51.2368 21.0969 51.534 20.9482C51.6087 20.8739 51.683 20.8739 51.7573 20.7996C51.8316 20.7252 51.7573 20.7252 51.7573 20.6509C52.4263 20.1306 52.5749 19.2386 52.0544 18.5697C51.8316 18.2723 51.3854 18.0493 51.014 18.0493C50.6421 18.0493 50.2707 18.198 49.973 18.421L49.8988 18.4953C49.8245 18.5697 49.7502 18.644 49.6759 18.644C49.453 18.867 49.2297 19.09 49.0812 19.313C49.0069 19.4616 48.8583 19.5359 48.784 19.6103C48.2635 20.2049 47.5945 20.7996 46.9255 21.2456C46.7769 21.3198 46.6283 21.3942 46.4797 21.3942C46.4054 21.3942 46.2567 21.3942 46.1824 21.3198H46.1081L45.5134 21.6915C44.9188 21.0969 44.2498 20.5022 43.6551 19.9076C40.9049 17.752 37.4858 16.4141 33.9922 16.0424L33.9179 15.4478V15.5221C33.6949 15.3735 33.6206 15.1505 33.5463 14.9275C33.5463 14.1098 33.5462 13.2922 33.6949 12.4002V12.3259C33.6949 12.1772 33.7692 12.0286 33.7692 11.8799C33.8435 11.5826 33.8435 11.2853 33.9179 10.988V10.542C33.9922 9.79865 33.3976 9.05537 32.6543 8.98104C32.2083 8.90671 31.7623 9.1297 31.3907 9.50136C31.0933 9.79865 30.9447 10.1703 30.9447 10.542V10.9136C30.9447 11.211 31.019 11.5083 31.0933 11.8056C31.1677 11.9542 31.1677 12.1029 31.1677 12.2516V12.3259C31.3163 13.1435 31.3163 13.9612 31.3163 14.8531C31.242 15.0761 31.1677 15.2991 30.9447 15.4478V15.5964L30.8703 16.1911C30.0527 16.2654 29.2351 16.4141 28.3431 16.5627C24.8496 17.3061 21.6534 19.1643 19.2005 21.7658L18.7545 21.4685H18.6801C18.6058 21.4685 18.5315 21.5428 18.3828 21.5428C18.2342 21.5428 18.0855 21.4685 17.9369 21.3942C17.2679 20.8739 16.5989 20.2792 16.0786 19.6846C16.0043 19.5359 15.8556 19.4616 15.7813 19.3873C15.5583 19.1643 15.4096 18.9413 15.1866 18.7183C15.1123 18.644 15.038 18.644 14.9636 18.5697C14.8893 18.4953 14.8893 18.4953 14.8893 18.4953C14.592 18.2723 14.2204 18.1237 13.8487 18.1237C13.4027 18.1237 13.031 18.2723 12.808 18.644C12.3621 19.313 12.5107 20.2049 13.1054 20.7252C13.1797 20.7252 13.1797 20.7996 13.1797 20.7996C13.1797 20.7996 13.3284 20.9482 13.4027 20.9482C13.6257 21.0969 13.923 21.2456 14.2204 21.3942C14.369 21.4685 14.5176 21.5428 14.6663 21.6172C15.4096 22.0632 16.1529 22.5092 16.7476 23.1038C16.8962 23.2524 17.0449 23.5498 16.9706 23.7728V23.6984L17.4165 24.1444C17.3422 24.2931 17.2679 24.3674 17.1936 24.5161C14.8893 28.1583 13.923 32.4694 14.592 36.7063L13.9974 36.8549C13.9974 36.9292 13.923 36.9292 13.923 36.9292C13.8487 37.1522 13.6257 37.3009 13.4027 37.4496C12.5851 37.6725 11.7674 37.8212 10.8755 37.8955C10.7268 37.8955 10.5781 37.8955 10.4295 37.9699C10.1322 37.9699 9.83486 38.0442 9.53753 38.0442C9.46319 38.0442 9.38886 38.1185 9.2402 38.1185C9.16587 38.1185 9.16587 38.1185 9.09153 38.1929C8.27393 38.3415 7.7536 39.0848 7.90227 39.9025C8.05093 40.5715 8.71987 41.0174 9.38886 40.9431C9.53753 40.9431 9.61186 40.9431 9.76052 40.8687C9.83485 40.8687 9.83485 40.8687 9.83485 40.7944C9.83485 40.7201 10.0579 40.7944 10.1322 40.7944C10.4295 40.7201 10.7268 40.5715 10.9498 40.4971C11.0985 40.4228 11.2471 40.3485 11.3958 40.3485H11.4701C12.2878 40.0511 13.031 39.8281 13.923 39.6795H13.9974C14.2204 39.6795 14.4433 39.7538 14.592 39.9025C14.6663 39.9025 14.6663 39.9768 14.6663 39.9768L15.3353 39.9025C16.4502 43.3217 18.5315 46.3692 21.4304 48.5993C22.0993 49.1193 22.694 49.5655 23.4373 49.9369L23.0657 50.4574C23.0657 50.5317 23.14 50.5317 23.14 50.5317C23.2886 50.7545 23.2886 51.0521 23.2143 51.275C22.917 52.0183 22.471 52.7616 22.025 53.4307V53.505C21.9507 53.6535 21.8764 53.7278 21.7277 53.8764C21.5791 54.0254 21.4304 54.3226 21.2074 54.6197C21.1331 54.694 21.1331 54.7688 21.0587 54.843C21.0587 54.843 21.0587 54.9173 20.9844 54.9173C20.6127 55.6606 20.9101 56.5525 21.5791 56.924C21.7277 56.9983 21.9507 57.073 22.0993 57.073C22.694 57.073 23.2143 56.7011 23.5116 56.1806C23.5116 56.1806 23.5116 56.1064 23.586 56.1064C23.586 56.0321 23.6603 55.9578 23.7346 55.8835C23.809 55.5864 23.9576 55.363 24.032 55.0659L24.1806 54.6197C24.4036 53.8021 24.7752 53.0588 25.1469 52.3155C25.2956 52.0926 25.5186 51.944 25.7416 51.8698C25.8159 51.8698 25.8159 51.8698 25.8159 51.7955L26.1132 51.2007C28.1944 52.0183 30.35 52.3898 32.5799 52.3898C33.9179 52.3898 35.2558 52.2412 36.5938 51.8698C37.4114 51.7212 38.229 51.4236 38.9724 51.2007L39.2697 51.7212C39.344 51.7212 39.344 51.7212 39.344 51.7955C39.567 51.8698 39.79 52.0183 39.9386 52.2412C40.3103 52.9845 40.682 53.7278 40.9049 54.5454V54.6197L41.0536 55.0659C41.1279 55.363 41.2023 55.6606 41.3509 55.8835C41.4253 55.9578 41.4253 56.0321 41.4996 56.1064C41.4996 56.1064 41.4996 56.1806 41.5739 56.1806C41.8712 56.7011 42.3915 57.073 42.9862 57.073C43.2092 57.073 43.3579 56.9983 43.5808 56.924C43.8781 56.7754 44.1755 56.4783 44.2498 56.1064C44.3241 55.7349 44.3241 55.363 44.1755 54.9916C44.1755 54.9173 44.1011 54.9173 44.1011 54.9173C44.1011 54.843 44.0268 54.7688 43.9525 54.694C43.8038 54.3969 43.6551 54.174 43.4321 53.9507C43.3579 53.8021 43.2835 53.7278 43.1349 53.5793V53.4307C42.6145 52.7616 42.2429 52.0183 41.9455 51.275C41.8712 51.0521 41.8712 50.7545 42.0199 50.5317C42.0199 50.4574 42.0942 50.4574 42.0942 50.4574L41.8712 49.8626C45.6621 47.5584 48.5612 43.9906 49.8988 39.7538L50.4935 39.8281C50.5678 39.8281 50.5678 39.7538 50.5678 39.7538C50.7164 39.6051 50.9397 39.5308 51.1626 39.5308H51.2368C52.0544 39.6795 52.8721 39.9025 53.6154 40.1998H53.6897C53.8382 40.2741 53.9873 40.3485 54.1358 40.3485C54.433 40.4971 54.6558 40.6458 54.9534 40.7201C55.0277 40.7201 55.102 40.7944 55.2506 40.7944C55.3249 40.7944 55.3249 40.7944 55.3992 40.8687C55.5482 40.9431 55.6225 40.9431 55.771 40.9431C56.4401 40.9431 57.0348 40.4971 57.2577 39.9025C57.1834 39.0848 56.5887 38.4902 55.9196 38.3415ZM34.4382 36.0373L32.4313 37.0036L30.4243 36.0373L29.904 33.8817L31.3163 32.0978H33.5463L34.9585 33.8817L34.4382 36.0373ZM46.5541 31.2058C46.9255 32.7668 47.0002 34.3277 46.8512 35.8886L39.79 33.8817C39.121 33.733 38.7494 33.064 38.898 32.3951C38.9724 32.1721 39.0467 32.0234 39.1954 31.8748L44.7701 26.8203C45.5877 28.1583 46.1824 29.6449 46.5541 31.2058ZM42.5402 24.0701L36.4451 28.3813C35.9248 28.6786 35.1815 28.6043 34.8099 28.0839C34.6612 27.9353 34.5869 27.7866 34.5869 27.5636L34.1409 20.0562C37.4114 20.4279 40.3103 21.8402 42.5402 24.0701ZM29.0864 20.2792L30.573 19.9819L30.2014 27.4149C30.2014 28.0839 29.6067 28.6043 28.9378 28.6043C28.7148 28.6043 28.5661 28.5299 28.3431 28.4556L22.1737 24.0701C24.1063 22.2118 26.4848 20.8739 29.0864 20.2792ZM20.0181 26.8203L25.5186 31.7261C26.0388 32.1721 26.1132 32.9154 25.6672 33.4357C25.5186 33.6587 25.3699 33.733 25.0726 33.8074L17.8625 35.8886C17.6395 32.7668 18.3828 29.5705 20.0181 26.8203ZM18.7545 39.3821L26.1132 38.1185C26.7078 38.1185 27.3025 38.4902 27.3768 39.0848C27.4512 39.3078 27.4512 39.6051 27.3025 39.8281L24.4779 46.6665C21.8764 44.9569 19.7951 42.3554 18.7545 39.3821ZM35.6275 48.5993C34.5869 48.8222 33.5463 48.9708 32.4313 48.9708C30.8703 48.9708 29.2351 48.6736 27.7485 48.2274L31.3907 41.6121C31.7623 41.1661 32.3569 41.0174 32.8773 41.3147C33.1003 41.4634 33.2489 41.6121 33.4719 41.8351L37.0398 48.3017C36.5938 48.376 36.1478 48.4503 35.6275 48.5993ZM44.6958 42.1324C43.5808 43.9163 42.0199 45.4772 40.236 46.5922L37.3371 39.6051C37.1884 39.0105 37.4858 38.4159 38.006 38.1929C38.229 38.1185 38.452 38.0442 38.675 38.0442L46.1081 39.3078C45.7364 40.3485 45.2904 41.3147 44.6958 42.1324Z" fill="white"/>
</g>
<defs>
<clipPath id="clip0_862_2252">
<rect width="65" height="65" fill="white" transform="translate(0.0996094 0.0996094)"/>
</clipPath>
</defs>
</svg>
