<svg width="65" height="65" viewBox="0 0 65 65" fill="none" xmlns="http://www.w3.org/2000/svg">
<g clip-path="url(#clip0_862_2234)">
<mask id="mask0_862_2234" style="mask-type:luminance" maskUnits="userSpaceOnUse" x="0" y="0" width="65" height="65">
<path d="M65 0H0V65H65V0Z" fill="white"/>
</mask>
<g mask="url(#mask0_862_2234)">
<path fill-rule="evenodd" clip-rule="evenodd" d="M0.721375 25.874C1.15811 25.694 1.66109 25.7926 1.99611 26.1236L10.8513 34.8744V26.9459C10.8513 26.3049 11.3752 25.7852 12.0215 25.7852C12.6678 25.7852 13.1917 26.3049 13.1917 26.9459V37.6693C13.1917 38.1383 12.9071 38.5613 12.4703 38.7412C12.0335 38.9211 11.5306 38.8226 11.1956 38.4915L2.34039 29.7408V37.6693C2.34039 38.3103 1.81648 38.83 1.17019 38.83C0.523914 38.83 0 38.3103 0 37.6693V26.9459C0 26.4768 0.284638 26.0539 0.721375 25.874Z" fill="#009900"/>
<path d="M18.6115 25.5537L18.2202 26.2744L15.196 31.7057L14.8047 32.3912L15.196 33.0768L18.2202 38.3323L18.6293 39.053H19.4654H25.656H26.5454L26.9368 38.262L29.196 33.7622L30.2099 31.7233H27.9151L22.1338 31.7409C21.3819 31.7304 20.6903 32.4041 20.6903 33.1471C20.6903 33.8901 21.3819 34.5637 22.1338 34.5532L25.6204 34.5356L24.7665 36.2406H20.2837L18.0601 32.3737L20.3015 28.366H25.0702L26.182 30.6203H29.046L27.2404 26.3447L26.8491 25.5537H25.9596H19.4654H18.6115Z" fill="#009900"/>
<path d="M33.0284 25.5362C32.2833 25.5455 31.6139 26.2237 31.6231 26.96V30.6242H34.4694V26.96C34.4788 26.212 33.7855 25.5269 33.0284 25.5362Z" fill="#009900"/>
<path fill-rule="evenodd" clip-rule="evenodd" d="M48.8911 25.9013C48.4547 25.7214 47.9514 25.8199 47.6166 26.1509L38.7613 34.9017V26.9732C38.7613 26.3322 38.2374 25.8125 37.5911 25.8125C36.9448 25.8125 36.4209 26.3322 36.4209 26.9732V37.6966C36.4209 38.1656 36.7056 38.5886 37.1423 38.7685C37.579 38.9484 38.082 38.8499 38.417 38.5189L47.2721 29.7681V37.6966C47.2721 38.3376 47.7959 38.8573 48.4421 38.8573C49.0884 38.8573 49.6126 38.3376 49.6126 37.6966V26.9732C49.6126 26.5042 49.328 26.0812 48.8911 25.9013Z" fill="#009900"/>
<path fill-rule="evenodd" clip-rule="evenodd" d="M52.123 26.1516C52.5785 25.6966 53.3195 25.6939 53.7782 26.1455L64.642 36.8425C65.1007 37.2942 65.1035 38.0291 64.648 38.484C64.1926 38.939 63.4516 38.9417 62.9933 38.4901L52.129 27.7931C51.6703 27.3415 51.6675 26.6065 52.123 26.1516Z" fill="#009900"/>
<path fill-rule="evenodd" clip-rule="evenodd" d="M64.6603 26.1516C64.2053 25.6966 63.4643 25.6939 63.0056 26.1455L52.1418 36.8425C51.6831 37.2942 51.6803 38.0291 52.1353 38.484C52.5908 38.939 53.3318 38.9417 53.7905 38.4901L64.6543 27.7931C65.113 27.3415 65.1158 26.6065 64.6603 26.1516Z" fill="#009900"/>
<path d="M33.0284 39.0616C32.2833 39.0524 31.6139 38.3742 31.6231 37.6378V31.752H34.4694V37.6378C34.4788 38.3859 33.7855 39.071 33.0284 39.0616Z" fill="#009900"/>
</g>
</g>
<defs>
<clipPath id="clip0_862_2234">
<rect width="65" height="65" fill="white"/>
</clipPath>
</defs>
</svg>
