<svg width="66" height="66" viewBox="0 0 66 66" fill="none" xmlns="http://www.w3.org/2000/svg">
<g clip-path="url(#clip0_862_2247)">
<path d="M32.4762 54.3905C23.206 54.391 13.9352 54.4133 4.66494 54.3794C1.40576 54.3673 -0.315977 52.4674 0.185437 49.5573C0.642387 46.9044 2.47447 46.2633 4.88565 46.2676C21.7328 46.2976 38.5805 46.2832 55.4276 46.2832C57.2105 46.2832 58.9942 46.2424 60.7757 46.2933C63.4997 46.371 65.0699 47.8636 65.0991 50.3169C65.1293 52.7623 63.5763 54.3534 60.8221 54.3692C51.3739 54.4221 41.9249 54.3891 32.4762 54.3905Z" fill="#1FD3EF"/>
<path d="M32.4762 37.115C23.206 37.1155 13.9352 37.1381 4.66494 37.1037C1.40576 37.092 -0.315977 35.1919 0.185437 32.282C0.642387 29.6292 2.47447 28.9879 4.88565 28.9922C21.7328 29.0228 38.5805 29.0078 55.4276 29.0078C57.2105 29.0078 58.9942 28.967 60.7757 29.0179C63.4997 29.0956 65.0699 30.5881 65.0991 33.0416C65.1293 35.487 63.5763 37.078 60.8221 37.0936C51.3739 37.1466 41.9249 37.1139 32.4762 37.115Z" fill="#5D5D5D"/>
<path d="M32.4762 18.9012C23.206 18.9017 13.9352 18.9242 4.66494 18.8899C1.40576 18.8781 -0.315977 16.978 0.185437 14.0681C0.642387 11.4153 2.47447 10.7741 4.88565 10.7783C21.7328 10.8084 38.5805 10.7939 55.4276 10.7939C57.2105 10.7939 58.9942 10.7537 60.7757 10.8041C63.4997 10.8817 65.0699 12.3742 65.0991 14.8277C65.1293 17.2732 63.5763 18.8642 60.8221 18.8797C51.3739 18.9328 41.9249 18.9001 32.4762 18.9012Z" fill="#1FD3EF"/>
</g>
<defs>
<clipPath id="clip0_862_2247">
<rect width="65" height="65" fill="white" transform="translate(0.0996094 0.0996094)"/>
</clipPath>
</defs>
</svg>
