<svg width="254" height="40" viewBox="0 0 254 40" fill="none" xmlns="http://www.w3.org/2000/svg">
<g clip-path="url(#clip0_182_351)">
<path d="M35.4411 1.53903C36.3212 0.622387 37.5166 0.107422 38.7613 0.107422C44.3612 0.107422 49.6386 0.107425 54.8358 0.107435C65.2886 0.107457 70.5229 13.2695 63.1317 20.9674L47.0317 37.7351C46.2926 38.5049 45.0288 37.9596 45.0288 36.871V22.1026L46.8894 20.1648C48.3676 18.6253 47.3207 15.9928 45.2301 15.9928H21.563L35.4411 1.53903Z" fill="#727B81"/>
<path d="M31.1506 36.5564C30.2705 37.473 29.0752 37.988 27.8305 37.988C22.2305 37.988 16.9531 37.988 11.756 37.988C1.30313 37.9879 -3.93116 24.8259 3.46011 17.128L19.5601 0.360352C20.2992 -0.409436 21.563 0.135759 21.563 1.2244L21.5631 15.9927L19.7024 17.9306C18.2242 19.4702 19.2711 22.1026 21.3617 22.1026L45.0289 22.1025L31.1506 36.5564Z" fill="#727B81"/>
<path d="M159.964 12.8V31.8427H165.55V12.8H159.964Z" fill="#727B81"/>
<path d="M160.353 9.63214C161.013 10.2928 161.82 10.6232 162.775 10.6232C163.729 10.6232 164.531 10.2928 165.179 9.63214C165.839 8.9714 166.169 8.1691 166.169 7.22523C166.169 6.25775 165.839 5.44955 165.179 4.80065C164.531 4.13993 163.729 3.80957 162.775 3.80957C161.82 3.80957 161.013 4.13993 160.353 4.80065C159.693 5.44955 159.363 6.25775 159.363 7.22523C159.363 8.1691 159.693 8.9714 160.353 9.63214Z" fill="#727B81"/>
<path fill-rule="evenodd" clip-rule="evenodd" d="M168.702 39.2757V12.8H174.005V14.6936H174.075C174.409 14.3641 174.768 14.0633 175.154 13.7911C176.403 12.9179 177.841 12.4814 179.468 12.4814C180.894 12.4814 182.255 12.8531 183.552 13.5964C184.86 14.3396 185.92 15.4429 186.734 16.9058C187.546 18.3689 187.941 20.1917 187.918 22.3744C187.93 24.0262 187.699 25.4656 187.228 26.6927C186.757 27.9079 186.12 28.9167 185.319 29.719C184.518 30.5213 183.622 31.123 182.632 31.5241C181.642 31.9253 180.641 32.1258 179.627 32.1258C178.024 32.1258 176.586 31.6775 175.313 30.7809C174.993 30.5521 174.689 30.3044 174.403 30.0375H174.288V39.2757H168.702ZM178.318 27.4536C179.143 27.4418 179.868 27.2236 180.493 26.7989C181.117 26.3741 181.607 25.7724 181.96 24.9937C182.314 24.215 182.485 23.3065 182.473 22.2682C182.485 21.2064 182.308 20.2979 181.943 19.5428C181.589 18.7759 181.089 18.1918 180.44 17.7907C179.792 17.3778 179.049 17.1772 178.213 17.189C177.423 17.1772 176.716 17.3719 176.091 17.7731C175.466 18.1742 174.972 18.7582 174.606 19.5251C174.241 20.2802 174.058 21.1946 174.058 22.2682C174.058 23.3065 174.241 24.215 174.606 24.9937C174.983 25.7724 175.49 26.3741 176.127 26.7989C176.763 27.2236 177.494 27.4418 178.318 27.4536Z" fill="#727B81"/>
<path d="M193.297 31.5419C194.334 31.9312 195.418 32.1259 196.549 32.1259C197.846 32.1259 199.03 31.8723 200.103 31.3649C201.187 30.8576 202.053 30.1497 202.701 29.2412C203.362 28.3209 203.691 27.2649 203.691 26.0733C203.691 25.1294 203.491 24.333 203.091 23.6842C202.701 23.0352 202.206 22.5043 201.606 22.0913C201.016 21.6784 200.409 21.3539 199.785 21.118C199.16 20.8702 198.612 20.6814 198.14 20.5516C197.527 20.3747 196.938 20.1918 196.372 20.003C195.807 19.8143 195.341 19.5901 194.976 19.3305C194.611 19.0709 194.428 18.7288 194.428 18.304C194.428 17.8793 194.611 17.5253 194.976 17.2422C195.341 16.959 195.801 16.8174 196.355 16.8174C197.015 16.8174 197.557 16.9944 197.981 17.3484C198.418 17.7023 198.747 18.0681 198.971 18.4456L203.267 16.5873C202.725 15.3603 201.805 14.3751 200.51 13.6318C199.224 12.8886 197.775 12.5168 196.16 12.5168C194.865 12.5168 193.709 12.7588 192.696 13.2425C191.694 13.7262 190.899 14.3988 190.309 15.26C189.731 16.1095 189.443 17.0947 189.443 18.2155C189.443 19.2774 189.69 20.18 190.185 20.9233C190.681 21.6666 191.323 22.2801 192.112 22.7639C192.913 23.2358 193.762 23.6074 194.658 23.8788C195.047 23.985 195.472 24.1029 195.931 24.2328C196.402 24.3626 196.85 24.5159 197.274 24.6929C197.699 24.8699 198.046 25.0823 198.317 25.33C198.588 25.5778 198.724 25.8728 198.724 26.2149C198.724 26.4863 198.63 26.7399 198.441 26.9759C198.265 27.2119 198.016 27.4066 197.699 27.5599C197.38 27.7015 197.009 27.7723 196.585 27.7723C195.784 27.7723 195.088 27.5246 194.498 27.029C193.909 26.5334 193.468 26.0085 193.173 25.4539L188.789 27.3829C189.189 28.3387 189.785 29.1763 190.574 29.896C191.364 30.6039 192.271 31.1526 193.297 31.5419Z" fill="#727B81"/>
<path d="M226.399 31.8427V12.8001H231.72V15.2247H231.817C232.234 14.6453 232.702 14.1557 233.223 13.7557C234.284 12.9298 235.539 12.5168 236.988 12.5168C238.19 12.5168 239.21 12.8118 240.047 13.4018C240.692 13.8415 241.218 14.4314 241.625 15.1715H241.725C242.327 14.4029 243.059 13.8011 243.918 13.3664C245.038 12.8001 246.257 12.5168 247.577 12.5168C248.838 12.5168 249.876 12.741 250.688 13.1894C251.502 13.6259 252.138 14.2041 252.598 14.9238C253.057 15.6317 253.381 16.4104 253.57 17.2599C253.759 18.0975 253.853 18.9116 253.853 19.7022V31.8427H248.231V20.3924C248.231 19.3541 248.013 18.5577 247.577 18.0031C247.153 17.4368 246.528 17.1537 245.703 17.1537C245.161 17.1537 244.678 17.2776 244.254 17.5253C243.842 17.7613 243.512 18.1211 243.264 18.6048C243.028 19.0887 242.91 19.6845 242.91 20.3924V31.8427H237.324V20.3924C237.324 19.3541 237.106 18.5577 236.67 18.0031C236.234 17.4368 235.603 17.1537 234.779 17.1537C233.978 17.1537 233.312 17.4309 232.781 17.9855C232.251 18.5282 231.986 19.3423 231.986 20.4278V31.8427H226.399Z" fill="#727B81"/>
<path d="M212.729 32.1259C211.421 32.1259 210.231 31.8486 209.159 31.2941C208.086 30.7278 207.232 29.9019 206.595 28.8164C205.971 27.7192 205.658 26.3682 205.658 24.7637V12.8H211.244V24.0203C211.244 25.1176 211.528 25.9553 212.093 26.5334C212.67 27.0998 213.372 27.3829 214.197 27.3829C214.81 27.3829 215.346 27.2472 215.806 26.9759C216.277 26.7045 216.642 26.3211 216.902 25.8255C217.173 25.3181 217.308 24.7164 217.308 24.0203V12.8H222.894V25.1707C222.894 25.855 222.995 26.3505 223.195 26.6573C223.395 26.964 223.802 27.2296 224.414 27.4537L222.435 32.1259C221.032 31.7601 220.007 31.2823 219.359 30.6924C219.033 30.3952 218.785 30.053 218.617 29.666H218.475C217.981 30.1627 217.434 30.6052 216.831 30.9933C215.64 31.7483 214.273 32.1259 212.729 32.1259Z" fill="#727B81"/>
<path fill-rule="evenodd" clip-rule="evenodd" d="M147.868 32.1259C146.041 32.1259 144.373 31.7071 142.865 30.8694C141.368 30.0317 140.172 28.8754 139.276 27.4007C138.392 25.9258 137.951 24.2268 137.951 22.3037C137.951 20.3806 138.392 18.6816 139.276 17.2068C140.172 15.732 141.368 14.5816 142.865 13.7557C144.373 12.9298 146.041 12.5168 147.868 12.5168C149.73 12.5168 151.409 12.9298 152.906 13.7557C154.403 14.5816 155.587 15.732 156.459 17.2068C157.343 18.6816 157.785 20.3806 157.785 22.3037C157.785 24.2268 157.343 25.9258 156.459 27.4007C155.587 28.8754 154.397 30.0317 152.888 30.8694C151.392 31.7071 149.718 32.1259 147.868 32.1259ZM147.868 27.3475C148.74 27.3475 149.523 27.1352 150.219 26.7105C150.914 26.2857 151.462 25.6958 151.863 24.9407C152.263 24.1856 152.464 23.3066 152.464 22.3037C152.464 21.3363 152.27 20.4749 151.881 19.7198C151.492 18.9648 150.955 18.3748 150.272 17.9501C149.588 17.5135 148.798 17.2952 147.903 17.2952C147.02 17.2952 146.223 17.5076 145.516 17.9324C144.821 18.3453 144.273 18.9293 143.873 19.6845C143.472 20.4395 143.271 21.3127 143.271 22.3037C143.271 23.3066 143.472 24.1856 143.873 24.9407C144.285 25.6958 144.839 26.2857 145.535 26.7105C146.23 27.1352 147.007 27.3475 147.868 27.3475Z" fill="#727B81"/>
<path fill-rule="evenodd" clip-rule="evenodd" d="M121.417 38.9747C122.736 39.3641 124.186 39.5587 125.765 39.5587C127.239 39.5587 128.588 39.37 129.814 38.9925C131.039 38.6267 132.1 38.0722 132.995 37.3288C133.903 36.5856 134.604 35.6653 135.099 34.568C135.594 33.4707 135.841 32.1965 135.841 30.7453V12.7822H130.768V14.6404H130.662C130.325 14.3168 129.959 14.0219 129.566 13.7555C128.34 12.9178 126.909 12.499 125.27 12.499C123.856 12.499 122.494 12.8588 121.186 13.5785C119.878 14.2865 118.806 15.3484 117.969 16.7642C117.144 18.1682 116.731 19.932 116.731 22.0558C116.731 23.6485 116.973 25.0348 117.456 26.2147C117.94 27.3945 118.582 28.3797 119.384 29.1703C120.197 29.9489 121.098 30.5329 122.088 30.9223C123.079 31.2999 124.074 31.4886 125.075 31.4886C126.691 31.4886 128.128 31.0462 129.39 30.1613C129.788 29.8776 130.161 29.5649 130.506 29.2233H130.591V31.0639C130.591 31.9724 130.297 32.7039 129.707 33.2584C129.118 33.8247 128.405 34.2377 127.569 34.4972C126.732 34.7568 125.924 34.8865 125.147 34.8865C124.239 34.8865 123.343 34.7391 122.459 34.4442C121.587 34.1609 120.821 33.8188 120.162 33.4177L118.323 37.8067C119.077 38.2079 120.109 38.5972 121.417 38.9747ZM128.7 26.3032C128.052 26.728 127.303 26.9403 126.455 26.9403C125.618 26.9403 124.881 26.728 124.245 26.3032C123.608 25.8666 123.108 25.2708 122.743 24.5157C122.377 23.7488 122.194 22.8699 122.194 21.8787C122.194 20.8877 122.377 20.0264 122.743 19.2949C123.119 18.5634 123.638 18.0029 124.298 17.6136C124.958 17.2125 125.706 17.0119 126.543 17.0119C127.379 17.0119 128.117 17.2065 128.753 17.5959C129.39 17.9853 129.89 18.5457 130.255 19.2772C130.621 19.9969 130.803 20.8641 130.803 21.8787C130.803 22.8816 130.615 23.7665 130.238 24.5334C129.86 25.2885 129.348 25.8785 128.7 26.3032Z" fill="#727B81"/>
<path fill-rule="evenodd" clip-rule="evenodd" d="M105.396 32.1259C103.569 32.1259 101.902 31.7071 100.393 30.8694C98.8966 30.0317 97.6998 28.8754 96.8046 27.4007C95.9209 25.9258 95.4785 24.2268 95.4785 22.3037C95.4785 20.3806 95.9209 18.6816 96.8046 17.2068C97.6998 15.732 98.8966 14.5816 100.393 13.7557C101.902 12.9298 103.569 12.5168 105.396 12.5168C107.258 12.5168 108.938 12.9298 110.434 13.7557C111.93 14.5816 113.115 15.732 113.987 17.2068C114.871 18.6816 115.313 20.3806 115.313 22.3037C115.313 24.2268 114.871 25.9258 113.987 27.4007C113.115 28.8754 111.925 30.0317 110.416 30.8694C108.92 31.7071 107.246 32.1259 105.396 32.1259ZM105.396 27.3475C106.268 27.3475 107.051 27.1352 107.747 26.7105C108.442 26.2857 108.99 25.6958 109.391 24.9407C109.792 24.1856 109.992 23.3066 109.992 22.3037C109.992 21.3363 109.798 20.4749 109.409 19.7198C109.019 18.9648 108.484 18.3748 107.8 17.9501C107.117 17.5135 106.326 17.2952 105.431 17.2952C104.547 17.2952 103.752 17.5076 103.044 17.9324C102.349 18.3453 101.801 18.9293 101.4 19.6845C101 20.4395 100.799 21.3127 100.799 22.3037C100.799 23.3066 101 24.1856 101.4 24.9407C101.813 25.6958 102.367 26.2857 103.062 26.7105C103.758 27.1352 104.535 27.3475 105.396 27.3475Z" fill="#727B81"/>
<path d="M80.3765 5.75635V31.8427H95.5621V26.675H86.1748V5.75635H80.3765Z" fill="#727B81"/>
</g>
<defs>
<clipPath id="clip0_182_351">
<rect width="254" height="40" fill="white"/>
</clipPath>
</defs>
</svg>
