<svg width="150" height="40" viewBox="0 0 150 40" fill="none" xmlns="http://www.w3.org/2000/svg">
<g clip-path="url(#clip0_182_365)">
<path fill-rule="evenodd" clip-rule="evenodd" d="M0.311523 4.40312L2.93386 3.26365C12.6824 -0.972323 23.7562 -0.972323 33.5048 3.26365L36.1272 4.40312V22.0112C36.1272 31.8839 28.1095 39.8874 18.2193 39.8874C8.32911 39.8874 0.311523 31.8839 0.311523 22.0112V4.40312ZM5.98528 8.12691V15.8325C6.59035 15.6863 7.18454 15.4932 7.7623 15.2543C9.2251 14.6495 10.5542 13.7629 11.6738 12.6453C12.7934 11.5278 13.6814 10.201 14.2874 8.74078C14.6661 7.82822 14.9299 6.87466 15.0745 5.90199C11.9797 6.20107 8.91759 6.94273 5.98528 8.12691ZM5.98631 22.1723C6.59102 22.3185 7.18485 22.5115 7.7623 22.7503C9.2251 23.3552 10.5542 24.2417 11.6738 25.3593C12.7934 26.4769 13.6814 27.8036 14.2874 29.2638C14.8908 30.718 15.2026 32.2762 15.2051 33.8501C9.95599 32.5225 6.05932 27.8076 5.98631 22.1723ZM18.042 24.2663C17.3635 23.2177 16.5742 22.2413 15.6857 21.3544C14.7973 20.4675 13.8191 19.6796 12.7687 19.0023C13.8191 18.325 14.7973 17.5371 15.6857 16.6502C16.5742 15.7633 17.3635 14.7869 18.042 13.7383C18.7205 14.7869 19.5098 15.7633 20.3983 16.6502C21.2867 17.5371 22.2649 18.325 23.3153 19.0023C22.2649 19.6796 21.2867 20.4675 20.3983 21.3544C19.5098 22.2413 18.7205 23.2177 18.042 24.2663ZM20.8789 33.9342C26.3314 32.7276 30.4154 27.8892 30.4531 22.0921C29.7255 22.2449 29.0119 22.4649 28.3217 22.7503C26.8589 23.3552 25.5298 24.2417 24.4102 25.3593C23.2907 26.4769 22.4026 27.8036 21.7967 29.2638C21.1907 30.724 20.8789 32.2891 20.8789 33.8696V33.9342ZM28.3217 15.2543C29.012 15.5397 29.7257 15.7598 30.4534 15.9126V8.12691C27.4076 6.89689 24.2218 6.14432 21.0047 5.86924C21.1483 6.85328 21.4137 7.81799 21.7967 8.74078C22.4026 10.201 23.2907 11.5278 24.4102 12.6453C25.5298 13.7629 26.8589 14.6495 28.3217 15.2543Z" fill="#727B81"/>
<path fill-rule="evenodd" clip-rule="evenodd" d="M78.7329 36.3744C77.8818 36.3744 77.1159 36.1705 76.435 35.7628C75.7542 35.3435 75.2151 34.7771 74.818 34.0635C74.4322 33.3385 74.2393 32.523 74.2393 31.6168C74.2393 30.6993 74.4322 29.8837 74.818 29.1701C75.2151 28.4564 75.7485 27.8957 76.418 27.4879C77.0988 27.0688 77.8705 26.8593 78.7329 26.8593C79.5159 26.8593 80.2137 27.0292 80.8265 27.369C81.3283 27.6472 81.7425 28.0051 82.069 28.4427V23.3081H83.3456V36.1705H82.069V34.6864C81.7634 35.1688 81.3549 35.556 80.8435 35.8477C80.2194 36.1989 79.5159 36.3744 78.7329 36.3744ZM78.801 35.1C79.4137 35.1 79.9641 34.947 80.452 34.6412C80.9513 34.3354 81.3428 33.9219 81.6265 33.4008C81.9215 32.8685 82.069 32.2738 82.069 31.6168C82.069 30.9598 81.9215 30.3708 81.6265 29.8497C81.3428 29.3173 80.9513 28.8982 80.452 28.5924C79.9641 28.2865 79.4137 28.1336 78.801 28.1336C78.1995 28.1336 77.6549 28.2865 77.1669 28.5924C76.679 28.8982 76.2932 29.3116 76.0095 29.8327C75.7371 30.3538 75.601 30.9485 75.601 31.6168C75.601 32.2738 75.7371 32.8685 76.0095 33.4008C76.2932 33.9219 76.6733 34.3354 77.1499 34.6412C77.6378 34.947 78.1882 35.1 78.801 35.1Z" fill="#727B81"/>
<path fill-rule="evenodd" clip-rule="evenodd" d="M87.2948 35.7629C87.987 36.1707 88.7586 36.3746 89.6097 36.3746C90.2338 36.3746 90.8012 36.2726 91.3118 36.0687C91.8338 35.8535 92.282 35.576 92.6565 35.236C93.031 34.8849 93.309 34.5054 93.4905 34.0976L92.4012 33.5199C92.1175 33.9957 91.7487 34.3921 91.2948 34.7093C90.8409 35.0265 90.2792 35.185 89.6097 35.185C89.031 35.185 88.4863 35.0378 87.9756 34.7433C87.4764 34.4488 87.0792 34.0353 86.7842 33.5029C86.5551 33.0637 86.437 32.5653 86.4299 32.0077H93.6097C93.6324 31.8604 93.6494 31.7188 93.6607 31.5829C93.6721 31.4357 93.6778 31.3054 93.6778 31.1921C93.6778 30.6484 93.5813 30.1217 93.3884 29.6119C93.1955 29.0909 92.9175 28.6265 92.5544 28.2187C92.1912 27.7996 91.7487 27.4711 91.2267 27.2332C90.7161 26.984 90.1317 26.8594 89.4735 26.8594C88.6452 26.8594 87.8962 27.0633 87.2267 27.4711C86.5686 27.8788 86.0466 28.4396 85.6608 29.1532C85.2749 29.8555 85.082 30.6654 85.082 31.5829C85.082 32.5004 85.2806 33.3217 85.6778 34.0466C86.0749 34.7716 86.6139 35.3436 87.2948 35.7629ZM86.4501 30.8183C86.4923 30.4166 86.598 30.0541 86.7671 29.7309C87.0395 29.1985 87.4139 28.785 87.8905 28.4905C88.3785 28.196 88.9061 28.0488 89.4735 28.0488C90.0409 28.0488 90.5515 28.196 91.0054 28.4905C91.4593 28.7737 91.8054 29.1645 92.0437 29.6629C92.2232 30.013 92.3115 30.3981 92.3093 30.8183H86.4501Z" fill="#727B81"/>
<path d="M95.418 27.0633H96.6946V28.1727C96.9272 27.8142 97.2279 27.5237 97.5967 27.3011C98.096 27.0066 98.6407 26.8594 99.2307 26.8594C99.9343 26.8594 100.57 27.0576 101.137 27.4541C101.576 27.7605 101.916 28.1381 102.158 28.5867C102.392 28.0933 102.726 27.7044 103.163 27.4201C103.73 27.0463 104.354 26.8594 105.035 26.8594C105.648 26.8594 106.209 27.0066 106.72 27.3011C107.242 27.5957 107.656 28.0034 107.963 28.5245C108.28 29.0342 108.439 29.6119 108.439 30.2576V36.1707H107.163V30.7503C107.163 30.1953 107.061 29.7252 106.856 29.3401C106.663 28.9549 106.397 28.6604 106.056 28.4565C105.716 28.2413 105.324 28.1337 104.882 28.1337C104.451 28.1337 104.059 28.2413 103.707 28.4565C103.356 28.6604 103.078 28.9606 102.873 29.3571C102.669 29.7422 102.567 30.2066 102.567 30.7503V36.1707H101.29V30.7503C101.29 30.1953 101.188 29.7252 100.984 29.3401C100.791 28.9549 100.524 28.6604 100.184 28.4565C99.8435 28.2413 99.452 28.1337 99.0095 28.1337C98.5669 28.1337 98.1697 28.2413 97.818 28.4565C97.4775 28.6604 97.2052 28.9606 97.0009 29.3571C96.7967 29.7422 96.6946 30.2066 96.6946 30.7503V36.1707H95.418V27.0633Z" fill="#727B81"/>
<path d="M110.387 39.9087C110.205 39.9087 110.018 39.8917 109.825 39.8577C109.644 39.8351 109.462 39.7897 109.28 39.7218V38.5324C109.394 38.5437 109.536 38.5607 109.706 38.5834C109.888 38.6174 110.069 38.6343 110.251 38.6343C110.807 38.6343 111.232 38.5154 111.527 38.2775C111.822 38.051 112.112 37.6092 112.395 36.9522L112.725 36.1774L109.076 27.0632H110.455L113.442 34.581L116.412 27.0632H117.825L113.655 37.326C113.473 37.7678 113.241 38.1869 112.957 38.5834C112.685 38.9798 112.339 39.297 111.919 39.5349C111.499 39.7841 110.988 39.9087 110.387 39.9087Z" fill="#727B81"/>
<path fill-rule="evenodd" clip-rule="evenodd" d="M66.4732 36.0517C66.9271 36.2669 67.4435 36.3746 68.0225 36.3746C68.5559 36.3746 69.0438 36.2953 69.486 36.1367C69.9399 35.9668 70.3314 35.7459 70.6605 35.474C70.8885 35.2843 71.0757 35.082 71.2222 34.867V36.1707H72.4991V29.9178C72.4991 29.3174 72.3516 28.7907 72.0562 28.3376C71.7725 27.8732 71.3697 27.5107 70.8481 27.2502C70.3371 26.9896 69.7474 26.8594 69.0775 26.8594C68.5672 26.8594 68.0732 26.9557 67.5966 27.1482C67.12 27.3295 66.6945 27.5787 66.3201 27.8958C65.9573 28.213 65.6903 28.5642 65.5201 28.9493L66.6779 29.578C66.8818 29.1362 67.1938 28.7794 67.614 28.5075C68.0335 28.2243 68.5215 28.0827 69.0775 28.0827C69.713 28.0827 70.2296 28.2526 70.6268 28.5925C71.0236 28.9323 71.2222 29.3741 71.2222 29.9178V30.3879L67.92 30.9373C67.2505 31.0505 66.7002 31.2431 66.2693 31.515C65.8378 31.7868 65.5201 32.121 65.3158 32.5174C65.1119 32.9026 65.0098 33.333 65.0098 33.8088C65.0098 34.3072 65.1399 34.7489 65.4009 35.1341C65.6622 35.5193 66.0193 35.8252 66.4732 36.0517ZM71.2222 31.5433V32.2286C71.2222 32.7836 71.092 33.2877 70.8307 33.7408C70.5697 34.1939 70.2066 34.5564 69.7417 34.8282C69.2764 35.0888 68.7318 35.219 68.1073 35.219C67.5966 35.219 67.1768 35.0774 66.8477 34.7942C66.5303 34.5111 66.3715 34.1656 66.3715 33.7578C66.3715 33.3387 66.5133 32.9762 66.7966 32.6703C67.0917 32.3645 67.5683 32.155 68.2264 32.0417L71.2222 31.5433Z" fill="#727B81"/>
<path d="M60.0247 36.3746C59.1282 36.3746 58.3396 36.165 57.6587 35.7459C56.9779 35.3266 56.4445 34.7603 56.0587 34.0466C55.6729 33.3217 55.48 32.5061 55.48 31.5999C55.48 30.6937 55.6729 29.8838 56.0587 29.1702C56.4445 28.4565 56.9779 27.8958 57.6587 27.488C58.3396 27.0689 59.1282 26.8594 60.0247 26.8594C60.592 26.8594 61.1254 26.9613 61.6247 27.1652C62.124 27.3691 62.5665 27.6466 62.9523 27.9978C63.3381 28.3376 63.6275 28.7341 63.8204 29.1872L62.663 29.7819C62.436 29.2948 62.0899 28.8983 61.6247 28.5925C61.1594 28.2866 60.6261 28.1337 60.0247 28.1337C59.4232 28.1337 58.8786 28.2866 58.3906 28.5925C57.914 28.887 57.5339 29.3004 57.2502 29.8328C56.9779 30.3539 56.8417 30.9486 56.8417 31.6169C56.8417 32.2739 56.9779 32.8686 57.2502 33.401C57.5339 33.922 57.914 34.3355 58.3906 34.6413C58.8786 34.9472 59.4232 35.1001 60.0247 35.1001C60.6261 35.1001 61.1537 34.9472 61.6076 34.6413C62.0729 34.3355 62.4247 33.9277 62.663 33.418L63.8204 34.0466C63.6275 34.4884 63.3381 34.8849 62.9523 35.236C62.5665 35.5873 62.124 35.8648 61.6247 36.0687C61.1254 36.2726 60.592 36.3746 60.0247 36.3746Z" fill="#727B81"/>
<path fill-rule="evenodd" clip-rule="evenodd" d="M49.1005 23.512L44.4707 36.1705H45.9005L47.0069 33.078H52.675L53.7643 36.1705H55.1941L50.5643 23.512H49.1005ZM52.1984 31.8036H47.4494L49.8317 25.1075L52.1984 31.8036Z" fill="#727B81"/>
<path d="M45.624 3.0083V18.1173H55.173V15.3794H48.773V3.0083H45.624Z" fill="#727B81"/>
<path d="M93.7144 18.1173H96.7619V7.04419H93.7144V18.1173Z" fill="#727B81"/>
<path d="M93.7144 3.0083V6.0504H96.7619V3.0083H93.7144Z" fill="#727B81"/>
<path fill-rule="evenodd" clip-rule="evenodd" d="M98.3823 22.1734V7.04414H101.227V8.19289C101.555 7.80683 101.961 7.49827 102.445 7.26722C103.082 6.95625 103.807 6.80078 104.62 6.80078C105.676 6.80078 106.631 7.05767 107.484 7.57144C108.337 8.08521 109.015 8.78149 109.516 9.66032C110.017 10.5256 110.267 11.4991 110.267 12.5807C110.267 13.6488 110.017 14.6223 109.516 15.5011C109.028 16.3799 108.358 17.0762 107.504 17.59C106.651 18.1038 105.683 18.3606 104.599 18.3606C103.84 18.3606 103.136 18.2255 102.486 17.955C102.086 17.7765 101.734 17.5471 101.43 17.2669V22.1734H98.3823ZM104.233 15.6228C104.802 15.6228 105.303 15.4943 105.737 15.2375C106.17 14.9806 106.509 14.6223 106.753 14.1626C106.997 13.7029 107.118 13.1756 107.118 12.5807C107.118 11.9858 106.997 11.4653 106.753 11.0191C106.509 10.5594 106.17 10.2011 105.737 9.94425C105.303 9.67384 104.802 9.53862 104.233 9.53862C103.692 9.53862 103.204 9.66708 102.771 9.92397C102.351 10.1809 102.019 10.5391 101.775 10.9988C101.545 11.4585 101.43 11.9858 101.43 12.5807C101.43 13.1756 101.545 13.7029 101.775 14.1626C102.019 14.6223 102.351 14.9806 102.771 15.2375C103.204 15.4943 103.692 15.6228 104.233 15.6228Z" fill="#727B81"/>
<path d="M112.601 17.5089C113.508 18.0767 114.571 18.3606 115.791 18.3606C116.657 18.3606 117.409 18.2187 118.046 17.9348C118.682 17.6373 119.177 17.2317 119.529 16.7179C119.894 16.2041 120.077 15.6025 120.077 14.913C120.077 14.1153 119.833 13.446 119.346 12.9052C118.858 12.3509 118.154 11.9385 117.233 11.6681L115.465 11.1408C115.194 11.0597 114.964 10.9718 114.775 10.8771C114.599 10.7825 114.47 10.6743 114.389 10.5527C114.308 10.431 114.267 10.2958 114.267 10.147C114.267 9.86312 114.375 9.64004 114.592 9.47781C114.822 9.31554 115.133 9.23445 115.526 9.23445C116.068 9.23445 116.549 9.37639 116.969 9.66032C117.402 9.93073 117.7 10.2958 117.863 10.7555L120.118 9.70089C119.779 8.78149 119.197 8.07168 118.371 7.57144C117.558 7.05767 116.61 6.80078 115.526 6.80078C114.7 6.80078 113.969 6.94949 113.332 7.24694C112.696 7.53087 112.201 7.9297 111.849 8.44347C111.497 8.95728 111.321 9.55891 111.321 10.2485C111.321 11.0326 111.565 11.7154 112.052 12.2968C112.54 12.8646 113.237 13.277 114.145 13.5339L116.034 14.0612C116.278 14.1288 116.481 14.2099 116.644 14.3045C116.806 14.3992 116.928 14.5074 117.009 14.629C117.091 14.7372 117.131 14.8724 117.131 15.0347C117.131 15.3456 117.016 15.589 116.786 15.7647C116.556 15.9405 116.224 16.0284 115.791 16.0284C115.194 16.0284 114.653 15.8594 114.165 15.5214C113.677 15.1834 113.292 14.7169 113.007 14.122L110.772 15.1766C111.097 16.1501 111.707 16.9275 112.601 17.5089Z" fill="#727B81"/>
<path d="M132.841 7.04414H135.686V8.38177C135.894 7.97706 136.185 7.65285 136.559 7.40917C137.182 7.00358 137.927 6.80078 138.794 6.80078C139.715 6.80078 140.521 7.03738 141.212 7.51059C141.623 7.77873 141.943 8.10209 142.175 8.48068C142.468 8.05229 142.818 7.70864 143.223 7.44974C143.9 7.0171 144.693 6.80078 145.6 6.80078C146.399 6.80078 147.104 6.97653 147.713 7.32807C148.336 7.67958 148.824 8.17306 149.176 8.80853C149.528 9.43048 149.704 10.1606 149.704 10.9988V18.1173H146.657V11.6478C146.657 11.2152 146.575 10.8434 146.413 10.5324C146.264 10.2214 146.047 9.97806 145.763 9.80227C145.478 9.62652 145.133 9.53862 144.726 9.53862C144.334 9.53862 143.988 9.62652 143.691 9.80227C143.406 9.97806 143.182 10.2214 143.02 10.5324C142.871 10.8434 142.797 11.2152 142.797 11.6478V18.1173H139.749V11.6478C139.749 11.2152 139.668 10.8434 139.505 10.5324C139.356 10.2214 139.14 9.97806 138.855 9.80227C138.571 9.62652 138.225 9.53862 137.819 9.53862C137.426 9.53862 137.081 9.62652 136.783 9.80227C136.498 9.97806 136.275 10.2214 136.112 10.5324C135.963 10.8434 135.889 11.2152 135.889 11.6478V18.1173H132.841V7.04414Z" fill="#727B81"/>
<path d="M125.271 18.3607C124.377 18.3607 123.612 18.1714 122.975 17.7929C122.352 17.4008 121.878 16.8599 121.553 16.1704C121.228 15.4809 121.065 14.6764 121.065 13.757V7.04419H124.113V13.5136C124.113 13.9328 124.194 14.3046 124.357 14.6291C124.533 14.94 124.776 15.1834 125.088 15.3592C125.399 15.535 125.752 15.6228 126.145 15.6228C126.551 15.6228 126.903 15.535 127.201 15.3592C127.513 15.1834 127.749 14.94 127.912 14.6291C128.088 14.3046 128.176 13.9328 128.176 13.5136V7.04419H131.224V18.1173H128.379V16.7698C128.121 17.256 127.755 17.6308 127.282 17.8942C126.713 18.2052 126.043 18.3607 125.271 18.3607Z" fill="#727B81"/>
<path fill-rule="evenodd" clip-rule="evenodd" d="M86.5959 18.3606C85.4987 18.3606 84.4963 18.1105 83.5888 17.6103C82.6948 17.11 81.9771 16.4273 81.4353 15.5619C80.9072 14.6831 80.6431 13.6894 80.6431 12.5807C80.6431 11.4585 80.9072 10.4648 81.4353 9.59947C81.9771 8.73416 82.6948 8.0514 83.5888 7.55115C84.4963 7.05091 85.4987 6.80078 86.5959 6.80078C87.6927 6.80078 88.6885 7.05091 89.5824 7.55115C90.476 8.0514 91.1874 8.73416 91.7154 9.59947C92.2573 10.4648 92.5282 11.4585 92.5282 12.5807C92.5282 13.6894 92.2573 14.6831 91.7154 15.5619C91.1874 16.4273 90.476 17.11 89.5824 17.6103C88.6885 18.1105 87.6927 18.3606 86.5959 18.3606ZM86.5959 15.6228C87.1512 15.6228 87.6321 15.4943 88.0381 15.2375C88.458 14.9806 88.7831 14.6223 89.0133 14.1626C89.2573 13.7029 89.3792 13.1756 89.3792 12.5807C89.3792 11.9858 89.2573 11.4653 89.0133 11.0191C88.7831 10.5594 88.458 10.2011 88.0381 9.94425C87.6321 9.67384 87.1512 9.53862 86.5959 9.53862C86.0406 9.53862 85.553 9.67384 85.1331 9.94425C84.7129 10.2011 84.3814 10.5594 84.1374 11.0191C83.9073 11.4653 83.792 11.9858 83.792 12.5807C83.792 13.1756 83.9073 13.7029 84.1374 14.1626C84.3814 14.6223 84.7129 14.9806 85.1331 15.2375C85.553 15.4943 86.0406 15.6228 86.5959 15.6228Z" fill="#727B81"/>
<path fill-rule="evenodd" clip-rule="evenodd" d="M71.5935 22.1531C72.3247 22.437 73.1173 22.579 73.9705 22.579C75.0403 22.579 75.9818 22.3627 76.7946 21.93C77.6208 21.4973 78.2708 20.8957 78.7449 20.1251C79.2187 19.3679 79.4559 18.5026 79.4559 17.5291V7.04414H76.6116V8.20715C76.2768 7.81519 75.8978 7.5086 75.474 7.28751C74.8779 6.96301 74.1804 6.80078 73.3811 6.80078C72.3655 6.80078 71.458 7.03062 70.6588 7.4903C69.8598 7.94999 69.23 8.58545 68.7694 9.39668C68.3088 10.1944 68.0786 11.1137 68.0786 12.1548C68.0786 13.1959 68.3088 14.1288 68.7694 14.9535C69.23 15.7647 69.8666 16.4069 70.6793 16.8802C71.4917 17.3399 72.4127 17.5697 73.4421 17.5697C74.2414 17.5697 74.9389 17.421 75.5346 17.1235C75.8577 16.955 76.1492 16.7407 76.4084 16.4808V17.5291C76.4084 18.0024 76.307 18.4147 76.1038 18.7663C75.9141 19.1178 75.6364 19.3814 75.2708 19.5572C74.9049 19.7465 74.4715 19.8411 73.9705 19.8411C73.3339 19.8411 72.7854 19.6924 72.3247 19.3949C71.8644 19.0975 71.5595 18.6919 71.4105 18.1781L68.5864 19.1719C68.8169 19.8614 69.1893 20.4563 69.7041 20.9565C70.2322 21.4703 70.8619 21.8692 71.5935 22.1531ZM75.2098 14.4871C74.8304 14.7034 74.3836 14.8116 73.8687 14.8116C73.3541 14.8116 72.8935 14.7034 72.4875 14.4871C72.0946 14.2572 71.7829 13.9463 71.5527 13.5542C71.3361 13.1621 71.2276 12.7092 71.2276 12.1954C71.2276 11.6681 71.3361 11.2084 71.5527 10.8163C71.7829 10.4107 72.0946 10.0997 72.4875 9.8834C72.8935 9.65356 73.3541 9.53862 73.8687 9.53862C74.3701 9.53862 74.8102 9.65356 75.1893 9.8834C75.5687 10.0997 75.8666 10.4107 76.0832 10.8163C76.3002 11.2084 76.4084 11.6681 76.4084 12.1954C76.4084 12.7227 76.3002 13.1824 76.0832 13.5744C75.88 13.9666 75.5889 14.2708 75.2098 14.4871Z" fill="#727B81"/>
<path fill-rule="evenodd" clip-rule="evenodd" d="M61.4076 18.3606C60.3104 18.3606 59.3083 18.1105 58.4008 17.6103C57.5069 17.11 56.7891 16.4273 56.2473 15.5619C55.7189 14.6831 55.4551 13.6894 55.4551 12.5807C55.4551 11.4585 55.7189 10.4648 56.2473 9.59947C56.7891 8.73416 57.5069 8.0514 58.4008 7.55115C59.3083 7.05091 60.3104 6.80078 61.4076 6.80078C62.5047 6.80078 63.5001 7.05091 64.3941 7.55115C65.2881 8.0514 65.999 8.73416 66.5274 9.59947C67.0693 10.4648 67.3402 11.4585 67.3402 12.5807C67.3402 13.6894 67.0693 14.6831 66.5274 15.5619C65.999 16.4273 65.2881 17.11 64.3941 17.6103C63.5001 18.1105 62.5047 18.3606 61.4076 18.3606ZM61.4076 15.6228C61.9629 15.6228 62.4437 15.4943 62.8501 15.2375C63.27 14.9806 63.5952 14.6223 63.8253 14.1626C64.0693 13.7029 64.1909 13.1756 64.1909 12.5807C64.1909 11.9858 64.0693 11.4653 63.8253 11.0191C63.5952 10.5594 63.27 10.2011 62.8501 9.94425C62.4437 9.67384 61.9629 9.53862 61.4076 9.53862C60.8522 9.53862 60.3647 9.67384 59.9448 9.94425C59.5249 10.2011 59.193 10.5594 58.9494 11.0191C58.7193 11.4653 58.604 11.9858 58.604 12.5807C58.604 13.1756 58.7193 13.7029 58.9494 14.1626C59.193 14.6223 59.5249 14.9806 59.9448 15.2375C60.3647 15.4943 60.8522 15.6228 61.4076 15.6228Z" fill="#727B81"/>
</g>
<defs>
<clipPath id="clip0_182_365">
<rect width="150" height="40" fill="white"/>
</clipPath>
</defs>
</svg>
